<svg xmlns="http://www.w3.org/2000/svg" width="128" height="128"><path d="M53 1.369c-17.206 5.04-29.28 18.545-32.29 36.116-2.121 12.379 2.073 26.092 10.848 35.474C36.836 78.601 44.442 84 47.112 84c3.913 0 2.583-2.1-4.045-6.388-12.524-8.102-18.386-18.927-18.499-34.164-.064-8.504.158-9.509 3.667-16.608 4.475-9.055 10.313-14.797 19.336-19.02 12.183-5.701 27.471-4.62 38.251 2.705 2.799 1.902 3.849 2.163 4.966 1.236 1.196-.992 1.049-1.479-.935-3.114-1.294-1.066-5.2-3.281-8.679-4.922C76 1.284 73.268.677 66.174.396 60.91.186 55.731.569 53 1.369m3.734 11.661c-8.309 2.086-17.412 9.224-21.004 16.47-4.023 8.115-4.277 18.694-.653 27.17C38.191 63.952 46.786 72 51.45 72c2.736 0 1.544-2.415-2.718-5.51-12.902-9.367-16.029-24.747-7.7-37.879 5.697-8.983 17.948-14.053 28.34-11.727C87.532 20.948 96.96 40.64 88.541 56.92 87.023 59.856 77.448 69 75.892 69c-.491 0-.892.675-.892 1.5 0 3.628 6.914.551 12.395-5.516C96.237 55.197 98.053 40.886 91.959 29c-2.556-4.986-9.673-11.558-15.116-13.958-5.477-2.415-14.793-3.347-20.109-2.012m36.617 1.497c-.315.821.537 2.951 1.894 4.733 4.068 5.343 6.529 10.982 7.768 17.794 2.913 16.02-3.951 31.418-18.08 40.558C78.305 81.9 76.975 84 80.888 84c2.64 0 10.255-5.377 15.391-10.867 13.922-14.884 15.342-36.958 3.494-54.321-3.592-5.264-5.546-6.568-6.422-4.285M60.5 24.975c-9.601 2.21-15.5 9.312-15.5 18.66 0 8.254 6.318 17.608 10.746 15.909 1.309-.502 1.055-1.167-1.461-3.826C50.069 51.263 49 48.834 49 43.714c0-8.411 6.558-14.945 15-14.945s15 6.534 15 14.945c0 5.12-1.069 7.549-5.285 12.004-2.516 2.659-2.77 3.324-1.461 3.826C76.679 61.242 83 51.889 83 43.644c0-4.962-2.468-10.987-5.644-13.773-4.579-4.02-11.692-6.085-16.856-4.896M59 40c-1.1 1.1-2 3.04-2 4.311 0 1.272.9 3.278 2 4.459 1.1 1.18 1.998 2.503 1.995 2.938-.003.436-3.538 12.908-7.857 27.717-6.772 23.22-8.159 27.039-10.082 27.75-1.226.454-2.739 2.175-3.362 3.825-.65 1.722-1.861 3-2.842 3-2.819 0-4.852 2.898-4.852 6.916 0 6.89.709 7.084 25.902 7.084 20.647 0 22.22-.126 21.908-1.75-.306-1.593-2.291-1.774-22.073-2.02L36 123.961V118h56v3c0 2.82-.234 3-3.893 3-3.615 0-5.953 1.82-4.371 3.402 1.418 1.419 9.008.539 10.609-1.231C97.808 122.344 95.616 114 91.148 114c-.981 0-2.192-1.278-2.842-3-.623-1.65-2.136-3.371-3.362-3.825-1.923-.711-3.31-4.53-10.082-27.75-4.319-14.809-7.854-27.281-7.857-27.717-.003-.435.895-1.758 1.995-2.938C73.023 44.451 70.028 38 64 38c-1.667 0-3.889.889-5 2m2.556 2.91C60.6 44.456 62.12 47 64 47s3.4-2.544 2.444-4.09C66.135 42.409 65.035 42 64 42s-2.135.409-2.444.91m.516 20.187c-1.151 4.491-1.114 5.289.311 6.714 1.489 1.49 1.745 1.49 3.234 0 1.425-1.425 1.462-2.223.311-6.714C65.21 60.294 64.342 58 64 58c-.342 0-1.21 2.294-1.928 5.097m-3.414 11.352c-.371.967-.076 1.265.887.895.794-.304 1.195-.956.89-1.449-.766-1.24-1.132-1.126-1.777.554m8.907-.554c-.305.493.096 1.145.89 1.449.963.37 1.258.072.887-.895-.645-1.68-1.011-1.794-1.777-.554m-6.95 5.985-2.76 2.881 3.073 2.187L64 87.136l3.072-2.188 3.073-2.187-2.76-2.881C65.868 78.296 64.344 77 64 77c-.344 0-1.868 1.296-3.385 2.88m-6.452 9.972c-1.617 5.397-1.584 5.439 2.324 2.907 3.804-2.465 3.952-3.391.871-5.437-1.89-1.255-2.115-1.077-3.195 2.53m16.078-2.308c-2.959 2.072-2.842 2.551 1.271 5.215 3.776 2.446 4.116 1.891 2.153-3.522-1.138-3.136-1.271-3.202-3.424-1.693m-13.448 9.738C51.248 101.38 47.549 107 50.397 107c1.766 0 4.603 3.284 4.603 5.329 0 1.438 1.257 1.671 9 1.671 8.081 0 9-.188 9-1.845 0-1.981 2.941-5.155 4.777-5.155.793 0 .832-.8.132-2.75-1.016-2.828-11.591-11.276-14.044-11.218-.751.018-3.933 1.93-7.072 4.25M43 112.5c0 1.083 1.111 1.5 4 1.5 2.889 0 4-.417 4-1.5s-1.111-1.5-4-1.5c-2.889 0-4 .417-4 1.5m34 0c0 1.083 1.111 1.5 4 1.5 2.889 0 4-.417 4-1.5s-1.111-1.5-4-1.5c-2.889 0-4 .417-4 1.5" fill-rule="evenodd"/></svg>