<svg xmlns="http://www.w3.org/2000/svg" width="128" height="128"><path d="M4.354 5.75c-4.771 7.4-4.917 9.647-.654 10.06 3.104.3 3.209.465 3.5 5.5.256 4.423.595 5.19 2.3 5.19 1.708 0 2.044-.767 2.302-5.25.293-5.091.393-5.25 3.282-5.25 1.638 0 3.213-.611 3.5-1.358C19.26 12.881 11.197 0 9.419 0c-.747 0-3.026 2.588-5.065 5.75m21.108-4.509c-.265.692-.365 23.759-.222 51.259l.26 50h102l.5-6.848c.275-3.766.372-23.474.215-43.795-.251-32.436-.477-37.02-1.851-37.548-.861-.33-1.964.028-2.45.795-.486.768-.89 9.608-.899 19.646L123 53h-3.418c-4.713 0-6.582.882-6.582 3.107 0 1.605.761 1.893 5 1.893h5v40H62l-.015-4.75c-.018-5.52-1.128-7.793-3.384-6.927C57.4 86.784 57 88.319 57 92.469V98H30V5h27v34.441c0 35.068.369 38.51 3.652 34.021.818-1.12 1.348-4.52 1.348-8.653V58h20c18.957 0 20-.099 20-1.893 0-1.041-.712-2.166-1.582-2.5-.87-.334-9.87-.607-20-.607H62V5h60.75l.6 3c.436 2.178 1.169 3 2.677 3 1.878 0 2.048-.505 1.775-5.25L127.5.5 76.722.241c-40.089-.205-50.879.006-51.26 1M8 9c-.941 1.759-.76 2 1.5 2s2.441-.241 1.5-2c-.589-1.1-1.264-2-1.5-2s-.911.9-1.5 2m-.299 20.632C7.316 30.018 7 43.083 7 58.667V87H4c-2.527 0-3 .391-3 2.481C1 92.508 7.534 103 9.419 103c1.778 0 9.841-12.881 9.165-14.642-.287-.747-1.878-1.358-3.537-1.358h-3.016l-.266-28.737c-.231-25.013-.466-28.775-1.814-29.034-.852-.164-1.864.017-2.25.403M8 94c.589 1.1 1.264 2 1.5 2s.911-.9 1.5-2c.941-1.759.76-2-1.5-2s-2.441.241-1.5 2m23.5 19.04c-3.366 2.193-6 4.64-6 5.574 0 2.09 11.981 9.799 14.016 9.018.86-.33 1.484-1.843 1.484-3.601V121h71v3.031c0 1.758.624 3.271 1.484 3.601 1.822.7 13.902-6.77 14.312-8.85.36-1.825-12.444-10.131-14.438-9.366-.747.287-1.358 1.885-1.358 3.553V116H41.127l-.314-3.242c-.426-4.414-2.185-4.361-9.313.282m2.011 4.328c-1.809 1.323-1.798 1.408.309 2.536 1.974 1.056 2.18.926 2.18-1.369 0-2.95-.03-2.964-2.489-1.167M117 118.5c0 2.26.241 2.441 2 1.5 1.1-.589 2-1.264 2-1.5s-.9-.911-2-1.5c-1.759-.941-2-.76-2 1.5" fill-rule="evenodd"/></svg>