<svg xmlns="http://www.w3.org/2000/svg" width="128" height="128"><path d="M41 21c-2.807 2.807-2.495 4.606 1.108 6.404 3.375 1.684 6.165.933 7.274-1.958.921-2.399.774-3.147-.953-4.875-2.141-2.14-5.027-1.973-7.429.429m15.762.081c-3.246 1.876-3.887 4.458-1.752 7.049 3.771 4.576 4.077 4.87 5.075 4.87C61.811 33 66 28.185 66 26.2c0-3.654-6.009-6.984-9.238-5.119m-14.248 1.548c-1.506 1.505-1.454 1.722.678 2.851 1.841.974 2.594.958 3.722-.079 1.159-1.066 1.182-1.58.128-2.851-1.631-1.965-2.499-1.95-4.528.079m13.868 1.562c-.405.655-.206 1.368.441 1.583.647.216 1.177 1.255 1.177 2.309 0 1.234.695 1.917 1.95 1.917 2.557 0 4.179-2.891 2.93-5.224-1.074-2.007-5.38-2.395-6.498-.585m44.063 3.768c-1.13.458-3.444 2.415-5.142 4.349l-3.088 3.517-21.063-.796c-17.328-.655-21.349-1.083-22.679-2.413-2-2-4.49-2.062-7.032-.175-1.067.793-2.934 1.199-4.148.903-1.544-.377-2.926.236-4.598 2.04-1.716 1.852-4.375 2.997-9.429 4.06-8.239 1.733-17.037 5.446-19.508 8.231C.19 51.699-.95 67.131.971 85.397c1.109 10.537 3.116 13.369 11.772 16.608 12.151 4.546 46.484 7.707 65.153 5.997 28.705-2.629 40.237-5.4 45.549-10.944 2.395-2.5 2.889-3.992 3.32-10.023.279-3.897.896-7.326 1.371-7.619.475-.294.864-5.484.864-11.534 0-6.05-.392-10.758-.871-10.462-.479.296-1.117-1.296-1.418-3.539-.644-4.8-3.301-7.942-8.824-10.432-3.889-1.754-3.984-1.915-3.351-5.66.848-5.023-1.297-8.351-6.277-9.734-4.358-1.21-5.042-1.219-7.814-.096m-3.067 5.463c-3.975 3.975-3.749 4.973 1.373 6.052 2.901.612 3.439.356 5-2.379.962-1.685 2.369-3.303 3.126-3.597 1.542-.597 4.123 1.171 4.123 2.824 0 .715-.397.681-1.176-.098-.859-.859-1.534-.88-2.5-.078-2.215 1.839-1.488 3.603 1.676 4.067 2.873.422 3 .283 3-3.264 0-4.431-1.578-5.949-6.933-6.667-3.617-.485-4.372-.177-7.689 3.14m-55.415 2.122c-.866 1.045-2.179 1.348-4.053.936-2.224-.488-3.011-.152-3.986 1.706-.669 1.273-1.825 2.674-2.57 3.114-.745.44-1.354 1.842-1.354 3.117 0 2.181-.338 2.304-5.75 2.086-9.749-.391-12.554 2.963-4.917 5.88 9.966 3.806 18.437 4.739 43.278 4.765C86.593 57.174 98 56.48 98 54.996c0-.426-.756-.711-1.681-.635-1.023.085-1.923-.839-2.3-2.361-.446-1.8-1.291-2.5-3.019-2.5-1.734 0-2.566-.694-2.999-2.5-.378-1.576-1.321-2.521-2.55-2.556-1.073-.031-2.948-.602-4.167-1.267-1.942-1.061-2.416-.905-3.837 1.264-1.27 1.938-2.21 2.356-4.335 1.931-2.215-.443-2.93-.068-3.891 2.043-1.225 2.689-2.661 3.3-3.721 1.585-.34-.55-1.941-1-3.559-1C59.355 49 59 48.646 59 46.07c0-2.278-.501-3.002-2.25-3.25-1.648-.235-2.25-.989-2.25-2.82 0-1.96-.54-2.533-2.5-2.651a293.04 293.04 0 0 1-3.75-.25c-.687-.055-1.25-.774-1.25-1.599 0-1.962-3.397-1.932-5.037.044M58 38.673c0 .465.9 1.408 2 2.095 1.1.687 2 2.093 2 3.124 0 2.734 4.381 3.312 6.485.855 1.016-1.187 2.425-1.742 3.627-1.428 1.25.327 2.857-.379 4.419-1.941 2.132-2.132 2.753-2.295 4.712-1.239 1.241.669 3.318 1.266 4.615 1.326 1.297.061 2.93.892 3.629 1.848 1.153 1.577 1.319 1.482 1.803-1.038.294-1.526.312-3 .04-3.275-.872-.885-33.33-1.203-33.33-.327m-35.5 3.71c-3.853.918-4.509 1.327-2.861 1.782 1.177.324 2.752.205 3.5-.265.749-.47 2.149-.609 3.111-.31 1.154.359 1.75.011 1.75-1.023 0-.862-.113-1.524-.25-1.471-.137.053-2.5.632-5.25 1.287m70.5.962c0 1.29.9 3.16 2 4.155 1.1.995 2 2.47 2 3.277 0 1.166.297 1.221 1.444.269.864-.717 1.382-2.749 1.29-5.06-.118-2.968-.626-3.989-2.194-4.411-3.628-.974-4.54-.619-4.54 1.77m9.61-.523c-.352.57 2.074 1.804 5.635 2.865 5.028 1.498 6.318 2.305 6.578 4.112.267 1.866-.58 2.645-5 4.593C99.024 59.153 92.103 60 64 60c-20.536 0-27.635-.348-33.274-1.631-13.424-3.053-19.308-6.76-17.647-11.119.471-1.237 1.396-2.25 2.055-2.25.66 0 .943-.256.63-.57-.73-.729-8.02 2.968-9.596 4.868-3.224 3.884 8.157 9.21 26.388 12.348 13.824 2.379 49.002 2.39 62.764.02 17.036-2.935 27.044-7.116 26.48-11.064-.527-3.693-17.47-10.563-19.19-7.78m-64.908 3.015c-.661 1.56-1.696 2.67-2.301 2.467-1.535-.517-6.079 3.345-5.097 4.331.443.444 1.185.192 1.649-.559.571-.924 1.848-1.166 3.946-.746 2.888.577 3.101.424 3.101-2.233 0-4.174 2.389-5.808 4.366-2.985 1.293 1.846 1.798 1.997 3.09.925C47.794 45.926 48 46.186 48 48.986c0 2.928.229 3.173 2.447 2.617 1.706-.428 2.729-.112 3.376 1.046.596 1.063 1.558 1.419 2.68.988.963-.369 2.379-.15 3.148.488.768.638 1.676.882 2.016.542.952-.953-1.704-3.667-3.59-3.667-2.934 0-6.945-2.419-8.058-4.859-.76-1.668-1.653-2.208-3.046-1.844-1.084.283-2.223.107-2.531-.391-.308-.498-1.68-.906-3.049-.906-1.785 0-2.83.803-3.691 2.837m64.284 2.413c-.007.688-.285 2.263-.616 3.5-.484 1.806-.192 2.25 1.479 2.25 2.324 0 9.151-3.004 9.151-4.027 0-.676-6.848-2.973-8.866-2.973-.624 0-1.14.563-1.148 1.25M3.482 58.105c-.939 5.561.492 32.197 1.885 35.063 2.655 5.464 15.124 8.782 42.383 11.276 14.383 1.317 18.117 1.317 32.5 0 27.259-2.494 39.728-5.812 42.383-11.276 1.393-2.866 2.824-29.502 1.885-35.063l-.683-4.043-2.693 1.991c-4.038 2.986-15.548 6.68-26.183 8.405-12.923 2.096-48.995 2.096-61.918 0-10.635-1.725-22.145-5.419-26.183-8.405l-2.693-1.991-.683 4.043M.378 69c0 6.325.163 8.912.361 5.75.198-3.163.198-8.338 0-11.5C.541 60.087.378 62.675.378 69m15.695 7.635c-2.971 3.776-2.725 8.707.562 11.292 4.492 3.534 9.238 2.169 11.298-3.25 2.885-7.589-6.964-14.267-11.86-8.042m86.25-.385c-2.839 3.154-3.426 5.348-2.256 8.427 2.06 5.419 6.806 6.784 11.298 3.25 3.287-2.585 3.533-7.516.562-11.292-2.611-3.32-6.81-3.488-9.604-.385m-42.008.342C57.355 78.074 55 82.107 55 85.695 55 88.673 59.749 92 64 92c7.821 0 11.752-7.808 6.75-13.407-2.942-3.292-6.494-3.973-10.435-2.001m-43.34 2.973C15.082 84.546 16.483 87 21.221 87c3.678 0 5.664-3.762 3.961-7.5-1.633-3.585-6.835-3.543-8.207.065m85.872-.128c-1.75 3.84.224 7.563 4.009 7.563 4.057 0 5.654-2.224 4.501-6.27-.76-2.668-1.479-3.284-4.131-3.543-2.631-.256-3.423.151-4.379 2.25m-42.908.624c-2.825 2.825-2.22 6.941 1.311 8.907 2.47 1.376 3.03 1.376 5.5 0 3.366-1.874 4.179-6.284 1.67-9.056-2.259-2.496-5.9-2.432-8.481.149m-40.549.365c-.91 2.371.377 4.765 2.357 4.384 2.378-.458 2.378-5.162 0-5.62-.964-.186-2.025.37-2.357 1.236m85 0c-.91 2.371.377 4.765 2.357 4.384 1.107-.213 1.753-1.249 1.753-2.81 0-2.851-3.156-4.059-4.11-1.574m-83.311 1.157c.048 1.165.285 1.402.604.605.289-.722.253-1.585-.079-1.917-.332-.332-.568.258-.525 1.312m85 0c.048 1.165.285 1.402.604.605.289-.722.253-1.585-.079-1.917-.332-.332-.568.258-.525 1.312m-44.412.084c-1.243 1.242-.676 5.116.833 5.695 1.951.748 4.203-.145 4.891-1.939.893-2.326-.45-4.423-2.831-4.423-1.225 0-2.527.3-2.893.667m1.442 1.702c-.891 1.074-.91 1.636-.07 2.155 1.63 1.008 3.654-1.231 2.319-2.566-.724-.724-1.412-.598-2.249.411" fill-rule="evenodd"/></svg>