<svg xmlns="http://www.w3.org/2000/svg" width="128" height="128"><path d="M.422 1.342C.133 2.095.033 5.588.199 9.105c.271 5.763.523 6.427 2.551 6.715l2.25.319v54.349c0 29.892.273 55.06.607 55.93.904 2.355 4.844 1.915 8.211-.918 3.655-3.076 3.709-3.076 7.364 0 3.571 3.004 7.854 3.223 10.295.526 3.028-3.346 5.421-3.498 8.509-.539 3.082 2.953 7.277 3.147 7.808.362.173-.908-4.228-10.728-9.781-21.822L27.918 83.856l5.568-6.014C42.695 67.895 44.683 62.684 49.451 36c1.425-7.975 2.843-15.737 3.15-17.25l.558-2.75h21.682l.558 2.75c.307 1.512 1.725 9.275 3.15 17.25 4.768 26.684 6.756 31.895 15.965 41.842l5.568 6.014-10.095 20.171c-5.553 11.094-9.954 20.914-9.781 21.822.511 2.685 4.539 2.543 7.891-.277 3.806-3.203 4.952-3.213 7.903-.072 3.021 3.216 6.996 3.216 10.818 0 3.655-3.076 3.709-3.076 7.364 0 3.367 2.833 7.307 3.273 8.211.918.334-.87.607-26.07.607-56 0-51.736.089-54.418 1.8-54.418 3.205 0 4.2-2.172 4.2-9.172V.057L64.974.015C11.675-.021.86.202.422 1.342M.336 8c0 4.125.177 5.813.392 3.75.216-2.062.216-5.437 0-7.5C.513 2.188.336 3.875.336 8M6 8c0 1.977.667 2 58 2s58-.023 58-2-.667-2-58-2S6 6.023 6 8m5 38.955v30.954l3.75.603c2.063.332 4.77.813 6.018 1.069 3.545.728 11.556-7.413 15.735-15.99 2.776-5.699 4.145-10.907 6.975-26.528C45.415 26.373 47 17.261 47 16.813c0-.447-8.1-.813-18-.813H11v30.955m70-30.142c0 .448 1.585 9.56 3.522 20.25 2.83 15.621 4.199 20.829 6.975 26.528 4.179 8.577 12.19 16.718 15.735 15.99 1.248-.256 3.956-.737 6.018-1.069l3.75-.603V16H99c-9.9 0-18 .366-18 .813M11 101.94v18.173l2.223-1.556c3.175-2.225 6.181-1.929 9.595.943 1.634 1.375 3.516 2.5 4.182 2.5.666 0 2.548-1.125 4.182-2.5 1.634-1.375 3.84-2.5 4.901-2.5 1.652 0 .778-2.298-6.083-16-7.87-15.718-8.069-16-11.256-16.014-1.784-.007-4.256-.285-5.494-.616L11 83.767v18.173m99.227-17.207-4.274.384-7.982 15.942C91.133 114.713 90.265 117 91.917 117c1.061 0 3.267 1.125 4.901 2.5s3.516 2.5 4.182 2.5c.666 0 2.548-1.125 4.182-2.5 3.414-2.872 6.42-3.168 9.595-.943l2.223 1.556v-18.056c0-13.872-.29-18.017-1.25-17.882-.687.096-3.173.347-5.523.558" fill-rule="evenodd"/></svg>