<svg xmlns="http://www.w3.org/2000/svg" width="128" height="128"><path d="M57 1.93c0 1.241.804 2.045 2.25 2.25 1.725.245 2.323 1.079 2.563 3.57.297 3.074.134 3.251-3 3.262-5.031.018-13.564 2.565-20.805 6.211C22.814 24.874 9.048 45.13 8.985 59.932c-.021 4.785-.869 5.845-4.994 6.237-3.325.315-3.486.507-3.38 4.044.135 4.516 2.431 8.232 6.693 10.831 2.592 1.58 5.087 1.955 13.196 1.984l10 .035-2.787 2.079c-2.505 1.869-4.045 2.062-15.25 1.918L0 86.899V92h21v32H10.5c-9.833 0-10.5.127-10.5 2 0 1.892.667 2 12.393 2C25.706 128 26 127.881 26 122.49v-2.347l27.297-.321c31.771-.375 26.617 1.334 46.955-15.566 13.778-11.449 15.481-13.64 14.518-18.681-.371-1.94.035-2.486 2.163-2.912 3.868-.773 7.843-4.296 10.086-8.938 3.003-6.216 2.684-7.292-2.243-7.583-4.848-.286-5.739-1.248-5.761-6.21-.063-14.802-13.829-35.058-29.023-42.709-7.241-3.646-15.774-6.193-20.805-6.211-3.134-.011-3.297-.188-3-3.262.24-2.491.838-3.325 2.563-3.57C70.196 3.975 71 3.171 71 1.93 71 .207 70.249 0 64 0s-7 .207-7 1.93m-3 14.1C40.13 18.937 27.573 28.143 19.941 41c-3.709 6.248-6.895 16.485-6.926 22.25L13 66h102l-.015-2.75c-.054-10.019-6.817-24.802-15.135-33.08-5.03-5.006-13.704-10.362-20.542-12.684-5.8-1.969-19.185-2.739-25.308-1.456m3.5 3.619c-9.548 1.988-16.739 5.158-22.989 10.136-2.56 2.038-2.707 2.448-1.359 3.796 1.348 1.347 2.067 1.136 6.665-1.958C46.336 27.236 54.92 24 60.038 24 63.597 24 64 23.746 64 21.5c0-2.561-1.306-2.933-6.5-1.851m-30.908 18.03c-1.83 2.51-1.835 2.67-.113 3.929 1.556 1.138 2.057.98 3.755-1.178 1.575-2.003 1.72-2.78.74-3.961-1.644-1.982-2.158-1.84-4.382 1.21M.195 69.5c.02 1.65.244 2.204.498 1.231.254-.973.237-2.323-.037-3-.274-.677-.481.119-.461 1.769M5 71.535c0 1.782 3.593 5.476 6.215 6.39 4.258 1.484 101.312 1.484 105.57 0 2.622-.914 6.215-4.608 6.215-6.39 0-.294-26.55-.535-59-.535s-59 .241-59 .535m32.212 12.51c-1.258.505-4.295 2.597-6.75 4.648L26 92.424V115h26.777c23.685 0 27.064-.198 29.25-1.718 6.341-4.405 27.571-22.602 28.365-24.313 1.044-2.248-.749-4.973-3.264-4.962-.896.004-7.689 4.311-15.096 9.572l-13.468 9.565-13.68-.322C49.756 102.466 47 101.415 47 96c0-4.786 3.123-6.422 13.344-6.991 8.376-.466 9.182-.69 9.458-2.629.215-1.505-.364-2.298-2-2.736-3.556-.953-28.016-.632-30.59.401m37.276.917c.686 2.163-.937 5.864-3.401 7.756-.961.737-5.041 1.231-10.337 1.25-8.073.03-8.75.187-8.75 2.032 0 1.898.667 2 13.132 2h13.132l9.868-7.045c5.427-3.875 9.868-7.25 9.868-7.5S92.57 83 85.933 83c-11.535 0-12.04.087-11.445 1.962M5.557 109.223c-2.036 2.906-1.966 5.05.253 7.791C9.371 121.411 17 118.674 17 113c0-5.629-8.241-8.35-11.443-3.777m4.11 2.444C8.449 112.885 8.978 115 10.5 115c.833 0 1.5-.889 1.5-2 0-1.992-1.066-2.601-2.333-1.333" fill-rule="evenodd"/></svg>