<svg xmlns="http://www.w3.org/2000/svg" width="128" height="128"><path d="M84.533 11.61C82.292 13.851 82.701 29.5 85 29.5c1.179 0 1.562-1.658 1.792-7.75l.292-7.75H124v37H87.095l-.297-6.25c-.227-4.757-.656-6.25-1.798-6.25-1.14 0-1.571 1.488-1.797 6.203C82.783 53.494 84.436 55 94.5 55h7.5v21.25l-3.185-.637c-1.752-.35-7.939-3.733-13.75-7.516-5.811-3.784-12.365-7.376-14.565-7.983-5.371-1.481-33.248-1.442-37.601.053-3.551 1.22-7.766 3.824-14.234 8.794-2.109 1.62-6.263 3.652-9.232 4.515C.809 75.983 0 77.423 0 90.254c0 5.983.437 11.694.971 12.691.534.998 2.751 2.527 4.928 3.398 2.39.956 4.48 2.672 5.279 4.333 1.76 3.661 7.376 7.325 11.22 7.32 3.928-.004 9.3-3.24 10.783-6.494l1.14-2.502h58.907l3.636 4.046c2.563 2.852 4.703 4.212 7.254 4.609 4.679.729 10.474-1.966 12.452-5.79 1.041-2.013 2.237-2.865 4.021-2.865 6.751 0 8.475-4.292 8.235-20.5-.131-8.87-.275-9.853-.744-5.076-.579 5.895-.589 5.91-2.046 3.165-1.928-3.631-5.923-6.389-10.682-7.376l-3.854-.799-.282-11.707L110.937 55h6.876c10.35 0 10.187.369 10.187-23.129 0-13.811-.349-19.82-1.2-20.671-.852-.852-6.917-1.2-20.929-1.2-16.802 0-19.967.239-21.338 1.61m-43.201 9.18C35.363 22.923 29 27.444 29 29.551c0 2.189 2.034 1.728 6.887-1.56 10.008-6.782 22.414-6.575 31.728.529 5.399 4.118 8.737 2.821 4.135-1.607-6.877-6.616-21.055-9.47-30.418-6.123m58.098.531c-.279.727-.377 5.784-.218 11.239.247 8.514.535 9.964 2.038 10.252 1.435.274 1.75-.398 1.75-3.739 0-3.816.181-4.073 2.865-4.073 4.286 0 8.138-3.475 8.12-7.323-.018-3.737-.712-4.971-3.669-6.527-3.022-1.591-10.253-1.477-10.886.171m3.57 6.113c0 3.304.223 3.566 3.031 3.566 5.464 0 5.119-6.159-.382-6.816-2.429-.291-2.649-.021-2.649 3.25m-60.5 4.375c-4.98 2.333-7.246 4.845-5.735 6.356.774.774 2.012.418 4.365-1.258 2.336-1.663 5.03-2.447 9.327-2.713 5.213-.323 6.564-.019 9.837 2.216 4.458 3.043 5.711 3.227 5.694.84-.007-.962-1.695-2.852-3.75-4.2-5.044-3.306-14.115-3.876-19.738-1.241m4.965 9.143c-1.119.453-2.603 1.51-3.298 2.347-1.862 2.243.314 3.159 3.938 1.657 2.27-.94 3.585-.963 5.487-.096C56.951 46.39 59 46.297 59 44.614c0-1.436-5.779-4.662-8.151-4.551-.742.035-2.265.435-3.384.889M106.378 66c0 6.325.163 8.912.361 5.75.198-3.163.198-8.338 0-11.5-.198-3.163-.361-.575-.361 5.75m-73.415-1.647c-1.945.696-6.494 3.531-10.108 6.302-4.058 3.11-8.438 5.506-11.45 6.265-2.683.675-5.447 1.7-6.142 2.276C4.394 79.918 4 83.477 4 90.597v10.352l2.953 1.526c2.921 1.511 2.969 1.491 4.552-1.845 3.518-7.412 14.217-8.862 19.745-2.676 1.513 1.693 2.75 3.97 2.75 5.062 0 1.934.746 1.984 29.799 1.984h29.799l1.246-3.446c2.307-6.38 10.71-9.387 17.057-6.105 3.087 1.596 6.099 5.588 6.099 8.082 0 1.157.763 1.514 2.75 1.285 2.668-.307 2.759-.521 3.048-7.168.47-10.815-1.97-13.158-16.798-16.129-10.551-2.114-14.685-3.895-24.639-10.616-4.324-2.918-9.436-5.871-11.361-6.561-4.767-1.708-33.253-1.7-38.037.011m1.537 1.994c-4.617 1.522-17.676 11.083-18.675 13.672-.377.978-.021 2.684.807 3.866C17.828 85.593 19.149 86 23.498 86c8.574 0 8.148-3.564-.499-4.181l-4.463-.319 5.367-4c9.028-6.73 10.815-7.615 16.556-8.208L46 68.72v13.159l-3.742.311c-2.615.217-3.841.837-4.073 2.06C37.876 85.881 39.65 86 64.227 86c17.616 0 26.733-.36 27.457-1.084 2.097-2.097.03-4.892-7.291-9.859-13.81-9.371-14.024-9.438-30.893-9.751-10.408-.192-16.225.126-19 1.041M50 75.5V82h37.314l-7.336-5.152C71.313 70.763 66.115 69 56.841 69H50v6.5M.382 90.5c.002 6.6.164 9.17.359 5.711.196-3.459.195-8.859-.003-12S.38 83.9.382 90.5m46.293-.842c-.362.362-.156 1.262.456 2 2.081 2.508 10.042 1.049 8.438-1.546-.735-1.19-7.797-1.55-8.894-.454m-30.339 10.915C11.409 105.5 15.271 114 22.436 114c6.847 0 10.463-9.101 5.564-14-2.926-2.926-8.436-2.655-11.664.573m84.119-.118c-7.23 7.229 2.841 17.82 10.91 11.472 2.01-1.581 2.635-2.962 2.635-5.825 0-7.401-8.322-10.87-13.545-5.647m-81.289 1.141c-5.036 3.528-.153 12.042 5.271 9.19 4.092-2.152 4.712-5.637 1.563-8.786-2.417-2.417-3.839-2.501-6.834-.404m84.057-.039c-2.468 1.728-3.044 6.563-.973 8.165 2.666 2.063 4.7 2.106 7.186.15 3.078-2.422 3.274-5.162.564-7.872-2.407-2.407-3.84-2.501-6.777-.443M21.5 105c-.399.646-.276 1.624.274 2.174.667.667 1.242.609 1.726-.174.399-.646.276-1.624-.274-2.174-.667-.667-1.242-.609-1.726.174m83.654.438c.191.917.796 1.644 1.346 1.615 1.484-.079 1.212-2.316-.346-2.835-.841-.28-1.215.177-1 1.22" fill-rule="evenodd"/></svg>