<svg xmlns="http://www.w3.org/2000/svg" width="128" height="128"><path d="M55.667 3.667C54.29 5.043 55.073 7 57 7c1.756 0 2 .667 2 5.465 0 4.441-.375 5.665-2 6.535-1.542.825-2 2.094-2 5.535V29H42.715l.63-6.025c.699-6.693 2.709-11.367 5.686-13.227C51.318 8.321 51.679 5 49.548 5c-.798 0-3.02 1.614-4.936 3.587C41.027 12.279 39 18.405 39 25.549V29h-4.777c-2.706 0-5.742.675-7 1.557C25.095 32.047 25 32.75 25 47.016v14.903l-8.25.291c-8.05.283-8.286.363-9.751 3.29-1.066 2.133-2.223 3-4 3H.5L.23 90.25c-.281 22.74-.372 22.246 3.987 21.808 1.082-.109 1.953.772 2.358 2.385.353 1.406 1.043 2.557 1.533 2.557.491 0 .892.874.892 1.943 0 1.57-.814 2.001-4.25 2.25C1.776 121.408.5 121.95.5 123c0 1.315 7.769 1.532 62.888 1.758 62.225.254 65.612.106 65.612-2.88 0-.483-2.475-.878-5.5-.878-5.907 0-6.65-.85-3.5-4 1.1-1.1 2-2.727 2-3.617 0-1.083.613-1.456 1.858-1.13 1.022.267 2.597.072 3.5-.433 1.443-.808 1.642-3.507 1.642-22.22V68.3l-3.249.1c-2.659.082-3.523-.446-4.75-2.9l-1.501-3-11.357-.284c-10.961-.274-15 .588-13.573 2.897.301.488 5.471.887 11.489.887H117v22H74.932l.284-10.75.284-10.75 7.315-.295c6.264-.253 7.268-.54 6.99-2-.26-1.367-1.809-1.81-7.814-2.233-5.357-.378-6.494-.663-3.991-1l3.5-.472v-25l-3.25.147c-2.543.116-3.25-.253-3.25-1.693C75 30.894 71.091 29 64.777 29 59.025 29 59 28.987 59 26c0-2.824.23-3 3.929-3C68.763 23 70 21.186 70 12.629c0-4.289-.488-7.717-1.2-8.429-1.255-1.255-11.976-1.69-13.133-.533M63 12.5c0 4.222.348 5.5 1.5 5.5 1.152 0 1.5-1.278 1.5-5.5 0-4.222-.348-5.5-1.5-5.5-1.152 0-1.5 1.278-1.5 5.5M29 52.434v18.433l2.75.317c1.637.188 2.75.923 2.75 1.816s-1.113 1.628-2.75 1.816l-2.75.317V114h42V75.052l-15.237-.276c-13.589-.246-15.274-.465-15.574-2.026-.308-1.606.945-1.75 15.238-1.75H71V34H29v18.434m22.57-13.547c-1.241 2.008 2.474 3.199 9.08 2.911 5.567-.243 6.891-.621 7.163-2.048.295-1.549-.588-1.75-7.681-1.75-4.408 0-8.261.399-8.562.887m23.64 9.283c.193 5.429.709 8.308 1.54 8.583.935.309 1.25-1.749 1.25-8.17C78 41.52 77.727 40 76.46 40c-1.286 0-1.493 1.353-1.25 8.17M11 76.954V88h14.068l-.284-10.75L24.5 66.5l-6.75-.296-6.75-.295v11.045M.426 90.5c.001 12.1.145 16.913.321 10.695.176-6.218.175-16.118-.001-22C.569 73.313.425 78.4.426 90.5M14 71.441c0 .793.399 1.688.887 1.989 1.101.681 3.342-1.868 2.438-2.772-1.19-1.19-3.325-.687-3.325.783m82.177.112c.452 2.172 2.227 2.305 2.633.197.21-1.095-.28-1.75-1.31-1.75-.961 0-1.512.647-1.323 1.553m6.823-.112c0 .793.399 1.688.887 1.989 1.101.681 3.342-1.868 2.438-2.772-1.19-1.19-3.325-.687-3.325.783m7.177.112c.452 2.172 2.227 2.305 2.633.197.21-1.095-.28-1.75-1.31-1.75-.961 0-1.512.647-1.323 1.553M4 90.559c0 11.451.348 17.344 1 16.941.603-.373 1-7.344 1-17.559C6 79.314 5.627 73 5 73c-.629 0-1 6.52-1 17.559m118-.618c0 10.215.397 17.186 1 17.559.652.403 1-5.49 1-16.941C124 79.52 123.629 73 123 73c-.627 0-1 6.314-1 16.941m-77.429-.37C40.559 93.583 43.783 101 49.538 101 52.143 101 56 96.741 56 93.865c0-4.766-7.964-7.758-11.429-4.294M11 103c0 10.222.137 11 1.941 11 2.697 0 3.7 2.058 1.712 3.512C10.104 120.838 12.37 121 63.5 121c44.073 0 50.5-.19 50.5-1.49 0-1.295-6.115-1.524-46.75-1.75-40.773-.227-46.75-.452-46.75-1.76 0-.825 1.012-1.644 2.25-1.82 2.177-.309 2.25-.676 2.25-11.25V92H11v11m36-9.059c0 2.693 1.892 3.596 3.714 1.773 1.823-1.822.92-3.714-1.773-3.714-1.255 0-1.941.686-1.941 1.941M75 103v11h42V92H75v11" fill-rule="evenodd"/></svg>