<svg xmlns="http://www.w3.org/2000/svg" width="128" height="128"><path d="M10.733 13.509C4.391 26.235 4 27.417 4 33.875c0 5.341.442 7.417 2 9.398 1.845 2.346 2 4.057 2 22.135C8 84.333 7.932 85 6 85c-1.938 0-2 .667-2 21.5V128h120v-21.5c0-20.833-.062-21.5-2-21.5-1.932 0-2-.667-2-19.592 0-18.078.155-19.789 2-22.135 1.558-1.981 2-4.057 2-9.398 0-6.458-.391-7.64-6.733-20.366L110.534 0H17.466l-6.733 13.509m4.275 2.476C11.703 22.576 9 28.452 9 29.042c0 .643 1.696.95 4.236.765l4.235-.307 3.251-11C24.38 6.118 24.641 4 22.508 4c-.906 0-3.853 4.71-7.5 11.985m14.27-10.267c-.363.945-2.088 6.683-3.834 12.75L22.27 29.5l3.465.316c1.906.174 3.632.151 3.835-.052C30.092 29.241 33 9.527 33 6.507c0-2.904-2.692-3.474-3.722-.789m7.381 10.032C34.515 30.911 34.397 30 38.5 30H42V17c0-11.956-.148-13-1.84-13-1.588 0-2.067 1.61-3.501 11.75M47 17v13h8V4h-8v13m13 0v13h8V4h-8v13m13 0v13h8V4h-8v13m13 0v13h3.5c4.103 0 3.985.911 1.841-14.25C89.907 5.61 89.428 4 87.84 4 86.148 4 86 5.044 86 17m9-10.567c0 3.074 2.9 22.801 3.43 23.331.203.203 1.933.226 3.844.052l3.475-.316-3.625-12.487C99.423 7.705 98.054 4.44 96.75 4.189 95.449 3.94 95 4.515 95 6.433m9.014-.683c.008.963 1.477 6.7 3.264 12.75l3.251 11 4.235.307c2.54.185 4.236-.122 4.236-.765C119 26.468 106.881 4 105.492 4c-.82 0-1.486.787-1.478 1.75m-94.824 32c.251 3.042.745 3.812 2.615 4.077 3.151.446 5.195-1.501 5.195-4.949C17 34.18 16.746 34 12.94 34H8.879l.311 3.75m13 0c.257 3.11.727 3.809 2.754 4.095 2.819.398 5.056-2.051 5.056-5.536C30 34.276 29.514 34 25.94 34h-4.061l.311 3.75M34 36.309c0 3.485 2.237 5.934 5.056 5.536 2.027-.286 2.497-.985 2.754-4.095l.311-3.75H38.06c-3.574 0-4.06.276-4.06 2.309m13 .569c0 3.448 2.044 5.395 5.195 4.949 1.87-.265 2.364-1.035 2.615-4.077l.311-3.75H51.06c-3.806 0-4.06.18-4.06 2.878m13-.46C60 40.52 61.06 42 64 42s4-1.48 4-5.582C68 34.264 67.564 34 64 34s-4 .264-4 2.418m13.19 1.332c.251 3.042.745 3.812 2.615 4.077 3.151.446 5.195-1.501 5.195-4.949C81 34.18 80.746 34 76.94 34h-4.061l.311 3.75m13 0c.257 3.11.727 3.809 2.754 4.095 2.819.398 5.056-2.051 5.056-5.536C94 34.276 93.514 34 89.94 34h-4.061l.311 3.75M98 36.309c0 3.485 2.237 5.934 5.056 5.536 2.027-.286 2.497-.985 2.754-4.095l.311-3.75h-4.061c-3.574 0-4.06.276-4.06 2.309m13 .569c0 3.448 2.044 5.395 5.195 4.949 1.87-.265 2.364-1.035 2.615-4.077l.311-3.75h-4.061c-3.806 0-4.06.18-4.06 2.878m-94.796 8.967L13 47.363V85h3.035c2.691 0 2.918-.219 2-1.934-2.031-3.796-1.259-8.03 1.782-9.776 2.672-1.533 2.764-1.817 1.782-5.496-1.401-5.25-.057-7.208 5.215-7.6 2.26-.168 4.999.171 6.087.753 1.311.702 2.186.721 2.597.056.341-.552 2.584-1.003 4.984-1.003C46.207 60 51 64.364 51 69.577c0 2.159.485 3.423 1.313 3.423 2.167 0 6.607 5.348 7.294 8.786.591 2.955.955 3.214 4.518 3.214H68V68h3c2.543 0 3-.385 3-2.532C74 62.175 76.592 56 77.974 56c.591 0 1.503-1.125 2.026-2.5.605-1.592 1.728-2.5 3.092-2.5 1.75 0 2.053.461 1.659 2.524-.266 1.388-.129 2.742.302 3.009 1.089.673 3.947-2.35 3.947-4.174 0-.982.776-1.388 2.25-1.179 1.833.261 2.188.851 1.914 3.182-.423 3.595 1.753 3.185 3.641-.686 1.674-3.434 5.479-3.748 5.042-.416-.163 1.243.48 3.369 1.428 4.723.949 1.354 1.725 4.162 1.725 6.24 0 3.53.196 3.777 3 3.777h3v8.5c0 7.833.157 8.5 2 8.5 1.929 0 2-.667 2-18.819V47.363l-3.204-1.518c-2.877-1.362-3.483-1.357-5.928.046-2.322 1.332-3.252 1.372-6.296.271-2.919-1.055-4.225-1.055-7.144 0-3.072 1.111-3.972 1.062-6.429-.348-2.452-1.407-3.114-1.444-4.678-.258-2.363 1.792-6.351 1.811-8.875.044-1.713-1.2-2.272-1.2-3.914 0-2.45 1.792-6.528 1.792-9.086 0-1.713-1.2-2.272-1.2-3.914 0-2.374 1.736-5.298 1.736-8.434-.002-2.044-1.133-2.815-1.094-5.178.263-2.375 1.363-3.292 1.406-6.348.301-2.919-1.055-4.225-1.055-7.144 0-3.044 1.101-3.974 1.061-6.296-.271-2.445-1.403-3.051-1.408-5.928-.046m63.484 14.801c-.379.378-.688 2.187-.688 4.021 0 2.699.392 3.333 2.06 3.333 1.763 0 2.016-.53 1.75-3.673-.297-3.521-1.667-5.136-3.122-3.681M88 64c0 3.333.333 4 2 4 2.06 0 2.709-2.99 1.393-6.418C90.149 58.34 88 59.872 88 64m8.688-3.354c-.379.378-.688 2.187-.688 4.021 0 2.699.392 3.333 2.06 3.333 1.763 0 2.016-.53 1.75-3.673-.297-3.521-1.667-5.136-3.122-3.681M26 66.345C26 69.202 28.884 72 31.829 72c3.724 0 2.701-4.632-1.513-6.85C27.069 63.441 26 63.737 26 66.345m13 .084A5.534 5.534 0 0 0 44.571 72c3.167 0 3.156-2.364-.026-5.545C41.364 63.273 39 63.262 39 66.429M73 79v6h33V73H73v6m-51 .345C22 82.202 24.884 85 27.829 85c2.733 0 2.769-1.97.098-5.365-2.654-3.374-5.927-3.534-5.927-.29m12-1.279c0 1.503 2.089 5.294 3.4 6.169.605.404 1.888.741 2.85.75 2.366.02 2.314-4.164-.079-6.33-2.04-1.846-6.171-2.241-6.171-.589M47 79c0 2.576 3.424 6 6 6 2.821 0 2.669-4.418-.223-6.443C49.645 76.362 47 76.565 47 79m30 0c0 1.897.667 2 13 2s13-.103 13-2-.667-2-13-2-13 .103-13 2M9 107v17h110V90H9v17m74.615-12.127c-1.339 1.479-2.637 1.766-6.183 1.366-4.205-.474-4.726-.255-8.264 3.464l-3.776 3.97-3.188-2.459c-3.732-2.877-11.405-4.122-13.696-2.221-1.936 1.607-1.961 8.231-.044 11.938 2.319 4.484 6.941 7.753 12.045 8.518 4.076.611 5.598.248 12.321-2.942 8.462-4.015 12.17-6.943 12.17-9.612 0-1.06.892-1.883 2.25-2.075 1.446-.206 2.364-1.124 2.57-2.57.264-1.864-.151-2.25-2.425-2.25h-2.744l2.168-2.307c1.678-1.787 1.898-2.576.974-3.5-1.608-1.608-2.193-1.513-4.178.68m-9.233 6.164C70.449 102.524 65.766 113 69.033 113c2.44 0 10.874-5.131 11.458-6.97 1.119-3.526-2.395-6.397-6.109-4.993m-22.763 4.713c1.053 4.405 2.248 6.13 5.361 7.74 3.625 1.874 7.02 1.951 7.02.159C64 107.925 59.159 103 53.531 103c-2.295 0-2.499.293-1.912 2.75" fill-rule="evenodd"/></svg>