<svg xmlns="http://www.w3.org/2000/svg" width="128" height="128"><path d="M9.235 2.037c-1.245.5-2.708 2.076-3.25 3.501C5.409 7.055 5 22.15 5 41.93c0 32.681.069 33.888 2.073 36.435C8.922 80.716 9.828 81 15.474 81h6.328l-2.901 3.106C17.306 85.814 16 87.992 16 88.947c0 .954-1.8 3.571-4 5.815-2.939 2.999-4 4.908-4 7.2 0 2.344-1.006 4.075-4.05 6.971-3.999 3.804-4.047 3.935-3.75 10.2.25 5.283.615 6.407 2.18 6.705 2.571.491 3.587-1.486 3.605-7.017.022-6.827 1.467-7.821 11.364-7.821 10.61 0 12.645 1.254 12.666 7.807.018 5.545 1.032 7.522 3.605 7.032 1.508-.288 1.983-1.513 2.4-6.194.687-7.717 2.026-8.645 12.48-8.645s11.793.928 12.48 8.645c.417 4.681.892 5.906 2.4 6.194 2.573.49 3.587-1.487 3.605-7.032.021-6.54 2.063-7.807 12.583-7.807 9.746 0 11.305 1.166 12.284 9.192.54 4.425.981 5.308 2.648 5.308 1.704 0 2.094-.879 2.637-5.931.83-7.728 2.04-8.569 12.332-8.569 10.333 0 12.531 1.311 12.531 7.475 0 5.527.772 7.525 2.907 7.525 3.01 0 4.093-2.244 4.078-8.45-.011-4.275-.3-5.61-.985-4.55-.833 1.29-.972 1.261-.985-.207-.008-.939-1.59-2.964-3.515-4.5-2.767-2.208-3.5-3.505-3.5-6.197 0-2.688-.84-4.179-4-7.096-2.2-2.031-4.01-4.549-4.022-5.596-.026-2.23-2.636-5.68-5.478-7.243-1.622-.892-.745-1.106 4.639-1.131 11.687-.053 10.954 2.738 10.634-40.501L121.5 3.558 119 2.294c-1.925-.973-14.584-1.253-55-1.216-29.073.027-53.511.455-54.765.959M11 41v34h6.5c3.855 0 6.5-.425 6.5-1.045 0-.575 1.105-2.15 2.455-3.5 5.599-5.6 15.665-1.623 17.079 6.749.4 2.365 1.612 4.903 2.801 5.866 1.944 1.575 2.258 1.579 4.315.064 1.315-.968 2.499-3.243 2.906-5.582 1.58-9.082 11.365-12.785 17.521-6.629C73.211 73.057 74 74.805 74 77.4c0 4.724 3.433 7.271 7.377 5.474C83.327 81.986 84 80.937 84 78.79c0-3.659 2.429-8.414 5.001-9.79 5.07-2.714 13.064-.522 14.491 3.973.558 1.759 1.493 2.027 7.075 2.027H117V7H11v34m19.792 33.25c-.874.688-1.891 2.263-2.258 3.5-.632 2.125-.388 2.25 4.399 2.25C37.271 80 38 79.722 38 78.071 38 75.9 35.496 73 33.62 73c-.681 0-1.953.563-2.828 1.25m29.863.579C57.45 78.37 58.504 80 64 80c5.439 0 6.124-.95 3.443-4.777-1.89-2.699-4.562-2.854-6.788-.394m30.916-.258c-.864.865-1.571 2.44-1.571 3.5C90 79.69 90.722 80 94.5 80c4.116 0 4.5-.21 4.5-2.465 0-1.413-.825-2.906-1.934-3.5-2.628-1.406-3.652-1.306-5.495.536M23 88c-2.681 2.681-2.568 3.232 1.5 7.3 2.661 2.661 3.5 4.335 3.5 6.985 0 2.614.625 3.894 2.5 5.123 2.316 1.517 2.684 1.517 5 0 1.617-1.06 2.501-2.569 2.504-4.273.004-2.678 3.336-9.122 4.731-9.15.421-.009 1.374-.402 2.118-.873 1.103-.699 1.122-1.297.101-3.235-1.877-3.56-2.742-3.845-11.704-3.862-6.929-.013-8.57.305-10.25 1.985m31.223-.443c-3.077 2.154-2.792 3.941 1.277 8.01 2.774 2.774 3.5 4.289 3.5 7.306 0 3.105.468 4.019 2.54 4.963 3.86 1.759 7.46-.936 7.46-5.583 0-2.724.789-4.261 3.5-6.818C78.959 89.343 75.947 86 64 86c-5.219 0-8.242.481-9.777 1.557m30.232.898c-3.106 3.105-3.078 3.874.2 5.626C87.482 95.592 90 100.405 90 104.299c0 1.46.902 2.846 2.362 3.627 3.466 1.855 6.272-.236 7.078-5.273.442-2.765 1.721-5.012 4.167-7.319 6.318-5.959 2.804-9.334-9.718-9.334-6.077 0-7.297.317-9.434 2.455M14.571 99.571c-.864.865-1.571 2.44-1.571 3.5 0 1.648.728 1.929 5 1.929 5.439 0 6.124-.95 3.443-4.777-1.822-2.602-4.653-2.87-6.872-.652m31.179-.491c-.962.561-1.75 2.122-1.75 3.47 0 2.237.391 2.45 4.5 2.45 4.029 0 4.5-.241 4.5-2.3 0-4.145-3.418-5.852-7.25-3.62m29.807 1.143C72.876 104.05 73.561 105 79 105c4.272 0 5-.281 5-1.929C84 100.617 81.412 98 78.985 98c-1.029 0-2.572 1-3.428 2.223m31.014-.652c-.864.865-1.571 2.44-1.571 3.5 0 1.648.728 1.929 5 1.929 5.439 0 6.124-.95 3.443-4.777-1.822-2.602-4.653-2.87-6.872-.652M.32 119c0 3.575.182 5.037.403 3.25.222-1.787.222-4.713 0-6.5-.221-1.787-.403-.325-.403 3.25" fill-rule="evenodd"/></svg>