<svg xmlns="http://www.w3.org/2000/svg" width="128" height="128"><path d="M50 1.555c-11.066 2.377-22.258 8.638-30.967 17.324C-.759 38.621-5.57 67.234 6.646 92.558c3.007 6.231 5.665 9.775 12.343 16.454 8.571 8.572 14.296 12.147 26.511 16.556 7.288 2.63 28.848 2.665 36.5.059 17.493-5.958 31.47-17.699 38.886-32.666 2.309-4.659 4.732-11.281 5.385-14.716.653-3.435 1.534-6.245 1.958-6.245.424 0 .735-4.162.692-9.25-.043-5.087-.342-8.579-.664-7.758-.322.82-1.175-1.43-1.896-5-.722-3.571-3.193-10.302-5.492-14.958C108.222 9.419 78.581-4.583 50 1.555m8.5 3.371-4 .619 3.23 1.743c9.337 5.038 25.146 24.244 29.639 36.007 1.756 4.6 1.933 4.743 5.224 4.233 11.491-1.781 10.539-1.308 9.867-4.892-.337-1.792-.124-7.637.473-12.988l1.085-9.729-2.759-2.427C91.518 8.922 71.22 2.956 58.5 4.926M42 8.865c-7.29 2.869-18 10.117-18 12.18 0 .384 2.21.99 4.911 1.349C40.04 23.87 54.797 34.091 62.588 45.72c2.13 3.179 3.921 5.894 3.98 6.034.114.271 16.682-2.99 17.298-3.405.804-.543-2.16-7.215-6.104-13.743-5.291-8.757-16.605-20.332-23.884-24.436C47.38 6.506 47.86 6.558 42 8.865m65.628 17.392c-.33 1.234-.607 6.181-.614 10.993L107 46h6.5c5.165 0 6.5-.314 6.5-1.529 0-2.242-5.333-12.391-8.783-16.714-2.851-3.572-3.015-3.641-3.589-1.5M14.549 31.25c-1.91 2.888-4.714 8.4-6.231 12.25C5.796 49.899 5.556 51.659 5.53 64c-.017 7.535.425 14.266 1 15.233.923 1.552 1.817 1.164 8.515-3.691 9.616-6.969 26.644-15.572 37.999-19.198 4.9-1.564 8.919-3.132 8.932-3.484.013-.352-1.975-3.355-4.418-6.674-8.655-11.757-23.521-20.135-35.798-20.174-3.409-.011-4.047.453-7.211 5.238m95.128 19.453c-1.543.399-1.717 1.103-1.129 4.579 1.685 9.976 10.298 27.285 12.48 25.082 1.175-1.187 2.878-16.065 2.331-20.364-1.368-10.736-.881-10.013-6.654-9.884-2.863.064-6.025.328-7.028.587M93.75 51.716c-1.513.229-2.75.555-2.75.725 0 .169.7 2.277 1.555 4.683 4.187 11.785 6.685 38.945 4.697 51.076-.9 5.498-.863 5.662 1.042 4.642 4.264-2.281 14.556-13.974 17.787-20.206l3.396-6.549-3.108-3.293c-5.696-6.037-9.89-15.543-12.812-29.044-.622-2.874-2.157-3.193-9.807-2.034m-18.218 2.946c-3.282.792-6.095 1.568-6.252 1.725-.157.157.611 2.891 1.707 6.075 3.466 10.075 4.57 21.2 3.253 32.796-1.162 10.239-4.18 21.106-7.124 25.658l-1.563 2.416 5.973-.635c6.638-.706 17.819-4.191 19.306-6.017.528-.649 1.46-5.905 2.072-11.68 1.529-14.445-.306-33.083-4.599-46.701-1.905-6.044-2.316-6.161-12.773-3.637M.36 64c0 5.225.169 7.362.375 4.75s.206-6.888 0-9.5S.36 58.775.36 64m52.838-3.063c-4.567 1.562-12.965 5.204-18.664 8.093C23.943 74.399 9.029 84.647 9.01 86.569c-.021 2.183 7.654 13.637 12.481 18.627 9.558 9.881 23.731 16.891 34.724 17.175 4.926.128 5 .084 7.374-4.407 1.32-2.494 3.353-8.306 4.518-12.915 1.784-7.054 2.044-10.372 1.643-20.965-.546-14.432-3.483-26.122-6.54-26.035-.941.027-5.446 1.327-10.012 2.888M18.25 87.662c-2.041.824-1.457 2.779 2.296 7.694 3.436 4.5 5.69 5.69 6.942 3.663.455-.737-7.186-12.348-7.858-11.94-.072.043-.692.306-1.38.583m15.935 19.062c.37 1.92 11.871 8.276 14.976 8.276 3.92 0 1.337-3.333-5.161-6.66-7.326-3.75-10.321-4.243-9.815-1.616" fill-rule="evenodd"/></svg>