<svg xmlns="http://www.w3.org/2000/svg" width="128" height="128"><path d="M8.333 17.097c-1.742.505-4.329 2.299-5.75 3.987C.042 24.104 0 24.411 0 40.126c0 12.216.352 16.653 1.494 18.863C4.741 65.267 1.971 65 63.788 65c37.199 0 57.006-.354 58.292-1.043 1.072-.574 3.068-2.815 4.435-4.98 2.382-3.775 2.485-4.606 2.485-20.124 0-8.902-.275-15.911-.611-15.575-.336.336-1.715-.701-3.064-2.304-1.35-1.604-4.112-3.376-6.139-3.939-4.65-1.292-106.375-1.234-110.853.062m-2.294 6.092C4.236 25.124 4 26.687 4 36.689V48h36.418c20.03 0 37.13.273 38 .607 2.039.782 2.039 3.004 0 3.786-.87.334-17.97.607-38 .607C16.806 53 4 53.352 4 54c0 .633 7.358 1 20.073 1 18.579 0 20.049.13 19.737 1.75-.303 1.578-2.128 1.777-18.618 2.023-11.582.173-18.061.631-17.678 1.25.83 1.343 112.148 1.333 112.978-.01.397-.642-12.113-1.08-35.677-1.25-33.645-.244-36.313-.39-36.625-2.013-.316-1.642 2.015-1.75 37.737-1.75C110.642 55 124 54.649 124 54c0-.632-7.126-1-19.378-1-14.858 0-19.633-.309-20.476-1.324C81.597 48.605 84.979 48 104.7 48H124V36.689c0-10.002-.236-11.565-2.039-13.5L119.922 21H8.078l-2.039 2.189M.409 40.5c-.001 9.35.149 13.31.334 8.799.185-4.51.186-12.16.002-17C.562 27.46.41 31.15.409 40.5M57 29c0 1.952.471 2.069 7.25 1.794 5.647-.229 7.25-.626 7.25-1.794 0-1.168-1.603-1.565-7.25-1.794C57.471 26.931 57 27.048 57 29m49.336 12.567c-.331.862-.122 2.047.464 2.633 1.555 1.555 4.2.19 4.2-2.169 0-2.466-3.753-2.839-4.664-.464m10 0c-.331.862-.122 2.047.464 2.633 1.555 1.555 4.2.19 4.2-2.169 0-2.466-3.753-2.839-4.664-.464m-79.669 30.1c-.367.366-.667 2.166-.667 4 0 3.819-.188 3.911-3.527 1.723-2.44-1.599-5.473-1.323-5.473.497 0 .522 1.653 1.972 3.674 3.22 3.296 2.038 3.489 2.38 1.881 3.332-4.764 2.82-6.084 4.389-4.795 5.7 1.023 1.04 1.804.959 4.154-.429 3.872-2.288 3.919-2.265 4.276 2.032.217 2.615.837 3.841 2.06 4.073 1.464.277 1.75-.43 1.75-4.323v-4.655l3.368 2.081c4.153 2.567 5.632 2.63 5.632.239 0-1.074-1.436-2.615-3.443-3.696l-3.443-1.854 3.443-2.34c3.676-2.497 4.578-5.288 1.693-5.235-.962.017-2.624.692-3.691 1.5C40.596 79.773 40 79.348 40 75c0-3.771-1.448-5.219-3.333-3.333m40.733.098c-2.468 1.648-3.449 5.032-2.233 7.702C77.643 84.902 86 83.025 86 77.034c0-4.28-5.258-7.501-8.6-5.269M79 77c0 1.289.506 1.998 1.25 1.75.688-.229 1.25-1.017 1.25-1.75 0-.733-.562-1.521-1.25-1.75-.744-.248-1.25.461-1.25 1.75m28.688-.354c-.379.378-.688 2.412-.688 4.521 0 2.108-.199 3.833-.443 3.833-.243 0-2.041-.943-3.995-2.096-3.306-1.951-3.597-1.975-4.219-.355-.636 1.657.263 2.729 4.657 5.552 1.3.835 1.255 1.126-.337 2.181-4.571 3.032-4.964 3.492-4.345 5.104.589 1.536.97 1.508 4.605-.347l3.963-2.021.307 4.241c.431 5.95 3.187 5.909 3.617-.054l.309-4.294 3.514 2.171c2.561 1.583 3.812 1.873 4.617 1.068 1.323-1.323-1.376-4.738-4.54-5.742-1.846-.586-1.679-.936 1.882-3.948 3.016-2.55 3.639-3.579 2.731-4.509-.915-.937-1.958-.722-4.69.967l-3.514 2.171-.309-4.217c-.293-3.987-1.597-5.752-3.122-4.226M8.571 81.571c-1.994 1.995-2.033 6.801-.068 8.432 2.068 1.715 6.358 1.565 8.211-.289 2.093-2.092 1.936-6.765-.28-8.386-2.441-1.785-5.942-1.677-7.863.243M11 85.5c0 .825.675 1.5 1.5 1.5s1.5-.675 1.5-1.5-.675-1.5-1.5-1.5-1.5.675-1.5 1.5m52.598 9.236c-.329.328-.598 1.408-.598 2.399 0 1.191-.509 1.607-1.5 1.227-.825-.317-2.236-.293-3.136.052-1.497.574-1.487.793.115 2.563 1.617 1.786 1.626 2.06.127 3.56-2.124 2.124-1.024 3.785 2.003 3.025 1.93-.484 2.391-.211 2.391 1.419 0 1.352.66 2.019 2 2.019 1.284 0 2-.667 2-1.861 0-1.447.558-1.755 2.5-1.384 2.881.551 3.473-1.703.989-3.764-1.341-1.113-1.323-1.392.162-2.478 1.017-.744 1.42-1.886 1.026-2.912-.519-1.352-1.048-1.473-2.662-.609-1.696.908-2.015.773-2.015-.85 0-1.927-2.273-3.535-3.402-2.406" fill-rule="evenodd"/></svg>