<svg xmlns="http://www.w3.org/2000/svg" width="128" height="128"><path d="M87.987 2.744c-1.938 2.464-2.125 3.732-1.823 12.398C86.564 26.628 87.932 29 94.155 29c4.241 0 4.325.207 2.786 6.882-.556 2.41-.811 4.582-.567 4.825.244.244 4.783-2.29 10.087-5.632C114.047 30.296 116.947 29 120.052 29c6.777 0 7.948-2.136 7.948-14.5C128-.444 128.641 0 107.073 0H90.145l-2.158 2.744m3.44 2.585c-.28.731-.379 5.344-.218 10.25L91.5 24.5l5.851.303 5.852.303-.647 3.447c-.356 1.896-.283 3.447.162 3.447.445 0 3.147-1.575 6.006-3.5 3.697-2.49 6.305-3.5 9.037-3.5 2.111 0 4.379-.54 5.039-1.2 1.613-1.613 1.613-16.987 0-18.6-1.797-1.797-30.679-1.678-31.373.129M51.25 7.45c-9.247 2.108-18.897 7.289-26.067 13.996-7.894 7.384-11.768 12.948-15.254 21.906l-2.711 6.969-1.632-3.155c-1.433-2.771-1.867-3.008-3.567-1.946-1.88 1.174-1.851 1.357.964 6.245 1.595 2.769 3.509 5.425 4.255 5.901C8.892 58.424 19 52.501 19 50.473c0-2.307-1.972-2.721-4.638-.974-2.506 1.641-2.539 1.63-1.885-.664 1.739-6.104 7.19-15.442 12.124-20.771C35.369 16.433 47.916 10.871 63.319 10.9c5.05.01 10.733.481 12.63 1.046 3.336.995 4.987.267 5.036-2.221.059-2.999-19.87-4.524-29.735-2.275M95 10.531v2.531l12.25-.281c11.845-.272 12.261-.355 12.57-2.531.316-2.231.213-2.25-12.25-2.25H95v2.531m0 7.969c0 2.458.133 2.5 8 2.5s8-.042 8-2.5-.133-2.5-8-2.5-8 .042-8 2.5m20.408-1.122c-.809 2.109.327 3.622 2.721 3.622 1.51 0 1.931-.557 1.691-2.24-.373-2.614-3.556-3.611-4.412-1.382M53 23.079c-5.532 2.501-10.489 7.13-13.301 12.421-1.749 3.291-2.195 6.176-2.516 16.268-.415 13.074.449 16.346 4.671 17.686 1.069.339 2.161 1.873 2.485 3.489.317 1.586 2.396 4.797 4.621 7.135 2.224 2.338 3.901 4.394 3.727 4.568-.174.174-3.887.998-8.252 1.832-8.875 1.694-11.981 3.527-14.998 8.85l-2.062 3.64-3.895-3.989-3.895-3.989 4.702-4.774 4.702-4.774-7.825-7.779-7.826-7.78-6.121 6.544C3.119 76.808.883 80.106.451 82.407c-1.362 7.261-.138 9.172 16.91 26.422 8.877 8.981 17.354 16.968 18.839 17.75 3.263 1.717 9.128 1.846 12.116.266 1.201-.635 5.002-3.619 8.446-6.632 4.967-4.346 6.028-5.761 5.128-6.846-.954-1.149 2.331-1.367 20.595-1.367 16.962 0 21.628-.274 21.268-1.25-.253-.687-1.496-4.4-2.761-8.25-1.265-3.85-2.975-8.038-3.799-9.308-2.126-3.273-7.524-5.668-16.129-7.155l-7.436-1.285 3.412-2.784c1.876-1.532 5.102-3.055 7.168-3.385 6.462-1.034 7.059-3.006 6.607-21.815-.367-15.276-.553-16.58-3.054-21.388C82.887 26.009 74.657 21.044 64 21.044c-4.396 0-7.957.659-11 2.035m3.239 3.256c-4.923 1.785-9.994 6.265-12.374 10.93C41.546 41.809 40.01 54 41.756 54c.567 0 1.289-.675 1.606-1.5.358-.934 1.883-1.5 4.042-1.5 4.569 0 8.046-1.396 12.743-5.116l3.859-3.057 3.247 2.738C71.443 49.098 76.05 51 80.418 51c2.236 0 3.872.627 4.571 1.75.829 1.332 1.016-.085.783-5.937-.264-6.656-.707-8.26-3.305-11.957-5.712-8.127-17.107-11.829-26.228-8.521m54.768 18.153c-1.727 3.018-2.858 5.943-2.514 6.5 1.111 1.799 3.134 1.078 4.585-1.634l1.416-2.646 1.176 3.896c1.765 5.847 1.608 21.096-.282 27.464-1.509 5.083-5.823 14.169-8.646 18.21-1.013 1.452-.966 1.955.258 2.735 2.303 1.468 2.388 1.398 6.343-5.263 6.952-11.71 9.862-26.012 7.754-38.112-.633-3.64-1.455-7.409-1.826-8.375-.629-1.638-.483-1.632 2.143.088 2.564 1.68 2.959 1.705 4.392.272.866-.867 1.377-1.732 1.134-1.923-1.815-1.434-11.154-6.7-11.882-6.7-.501 0-2.324 2.47-4.051 5.488M59.5 51.553c-2.2 1.37-5.972 3-8.383 3.621l-4.383 1.13.558 7.378c.638 8.429 2.677 12.707 7.66 16.065C58.879 82.393 67.02 82.775 71 80.5c2.433-1.391 2.373-1.43-2.25-1.465-4.391-.032-4.75-.224-4.75-2.535 0-2.427.202-2.5 6.965-2.5C79.404 74 80 73.281 80 63.104v-7.027l-4.25-1.113c-2.338-.612-5.928-2.205-7.979-3.539-2.05-1.334-3.85-2.411-4-2.394-.149.017-2.071 1.152-4.271 2.522m-17.895 9.033c-.334.872-.171 2.335.363 3.25.773 1.324.977.999 1.002-1.586.033-3.559-.424-4.116-1.365-1.664m43.59.914c.02 1.65.244 2.204.498 1.231.254-.973.237-2.323-.037-3-.274-.677-.481.119-.461 1.769M83.71 72c-.34 1.3-.03 2 .884 2 .773 0 1.406-.9 1.406-2s-.398-2-.883-2c-.486 0-1.119.9-1.407 2m-71.219 1.014c-1.042 1.686 8.119 10.776 9.484 9.411.683-.683-.574-2.575-3.863-5.815-3.333-3.282-5.111-4.42-5.621-3.596M6.48 79.033c-1.66 2.686-2.31 7.289-1.38 9.785 1.166 3.134 29.128 31.644 33.1 33.75 3.649 1.935 5.684 1.8 9.689-.642l3.39-2.066-4.307-4.388c-4.002-4.078-4.594-4.35-8.389-3.856-4.048.528-4.164.451-13.478-8.956-9.214-9.306-9.383-9.562-8.775-13.308.558-3.438.253-4.195-3.058-7.585-3.736-3.827-5.643-4.594-6.792-2.734m54.263 10.221 2.639 2.754 2.809-2.691C67.736 87.837 69 86.598 69 86.563c0-.035-2.451-.063-5.448-.063h-5.447l2.638 2.754m-15.509 1.622c-8.98 1.876-10.375 2.784-12.641 8.231-1.47 3.535-1.441 3.664 1.436 6.421 3.286 3.148 2.756 3.336 10.518-3.747l3.048-2.78L51.5 103l3.906 4h42.472l-1.733-5.099c-2.657-7.818-4.776-9.429-14.854-11.299l-8.709-1.615-4.579 4.51-4.579 4.51-4.42-4.503c-2.431-2.477-4.664-4.471-4.962-4.43-.298.041-4.262.852-8.808 1.802m.968 15.381c-1.653 1.991 7.189 10.752 9.012 8.929.964-.964.26-2.186-3.321-5.767-3.724-3.724-4.751-4.295-5.691-3.162" fill-rule="evenodd"/></svg>