<svg xmlns="http://www.w3.org/2000/svg" width="128" height="128"><path d="M17.636 2.636C13.93 6.342 14.07 10.952 18 14.662c2.563 2.419 3 3.567 3 7.877v5.046l-4.25 1.157c-5.838 1.59-11.55 6.633-14.369 12.687-4.453 9.562-2.758 18.478 4.979 26.204 4.236 4.229 6.129 5.352 10.762 6.38 8.889 1.973 15.021.12 21.519-6.505 2.961-3.019 5.433-6.57 5.83-8.374.378-1.724.946-3.134 1.261-3.134.315 0 2.531 1.463 4.924 3.25 3.113 2.325 4.224 3.793 3.901 5.158-.795 3.353 1.974 8.233 5.335 9.405 9.25 3.224 15.549-7.618 8.247-14.196-1.615-1.454-3.1-1.769-6.531-1.382-4.071.459-4.905.136-10.024-3.882-3.071-2.41-5.588-5.163-5.594-6.118-.005-.954-1.104-4.085-2.441-6.957l-2.431-5.223 4.691-4.012L51.5 28.03l.878 2.735c.935 2.915 5.032 8.881 7.581 11.04 5.89 4.988 15.719 6.508 23.067 3.568 4.571-1.829 3.546-2.48 9.974 6.339l3.07 4.212-3.853 1.966c-5.354 2.731-10.889 9.182-12.273 14.303-.64 2.369-.928 6.617-.638 9.439.517 5.054.464 5.177-3.448 8.011l-3.973 2.878-4.7-4.529c-4.986-4.807-10.289-7.007-16.801-6.97-4.111.023-11.574 2.95-14.746 5.783-2.863 2.558-6.294 8.351-7.089 11.972-.686 3.124-.866 3.223-5.882 3.223-4.452 0-5.568-.418-8.005-3-3.71-3.93-8.32-4.07-12.026-.364-3.537 3.538-3.537 8.19 0 11.728 3.706 3.706 8.316 3.566 12.026-.364 2.419-2.563 3.567-3 7.877-3h5.046l1.141 4.25c1.49 5.551 7.076 11.967 12.736 14.627 5.395 2.536 13.035 2.776 18.32.574 4.795-1.997 10.539-7.619 12.715-12.445l1.713-3.799 6.795 3.001c6.585 2.909 6.795 3.113 6.795 6.612 0 7.083 8.25 10.622 13.744 5.896 3.738-3.215 3.738-9.217 0-12.432-2.701-2.323-6.943-2.951-9.406-1.391-.883.56-4.094-.366-9.149-2.64-6.749-3.035-7.869-3.903-8.389-6.503-1.066-5.33-.666-6.432 3.345-9.212l3.945-2.733 3.21 3.656c11.153 12.703 31.303 9.607 38.533-5.92 2.903-6.234 3-12.545.286-18.541-3.691-8.153-8.728-12.122-17.875-14.084-4.474-.96-5.554-1.737-9.374-6.75-6.108-8.017-6.049-7.825-3.502-11.402 1.262-1.772 3.015-5.351 3.896-7.952l1.601-4.73 6.168 2.916c5.528 2.615 6.167 3.226 6.167 5.904 0 7.694 9.682 11.495 14.63 5.742 3.161-3.675 3.079-8.026-.214-11.319-2.293-2.292-3.137-2.518-7.496-2.002-4.234.502-5.933.097-12.302-2.927-6.748-3.205-7.538-3.899-9.102-7.992-2.394-6.269-6.096-10.3-11.975-13.037-13.256-6.173-28.006.612-32.392 14.9-1.541 5.019-2.706 6.684-7.601 10.86l-5.781 4.933-3.26-1.923c-1.793-1.058-4.666-2.233-6.384-2.61-3.007-.66-3.123-.879-3.123-5.86 0-4.452.418-5.568 3-8.005 3.93-3.71 4.07-8.32.364-12.026-3.538-3.537-8.19-3.537-11.728 0M21 6c-2.173 2.173-1.747 4.53 1.095 6.051 2.668 1.428 6.384-2.288 4.956-4.956C25.53 4.253 23.173 3.827 21 6m51.5-1.305c-1.1.21-3.004.597-4.232.858-3.218.686-9.341 6.379-10.917 10.149-2.663 6.373-1.121 16.757 2.994 20.17C61.794 37.074 62 36.988 62 35.179 62 31.453 65.666 30 75.068 30c9.047 0 10.626.698 12.327 5.453.642 1.796.856 1.716 2.661-1 4.565-6.868 4.706-13.543.444-20.964-3.327-5.792-11.875-9.968-18-8.794m-1.244 4.84c-5.664 2.381-6.595 10.886-1.554 14.189 8.272 5.421 17.404-4.234 11.321-11.968-2.41-3.064-5.884-3.854-9.767-2.221m.914 4.339c-.756.479-1.188 2.092-1 3.735.258 2.259.895 2.957 2.916 3.192 3.619.42 5.553-2.104 4.082-5.331-1.137-2.497-3.56-3.142-5.998-1.596m44.401 17.697c-1.859 1.86-1.875 1.993-.536 4.495 2.128 3.975 8.642 1.194 7.18-3.066-1.095-3.189-4.213-3.859-6.644-1.429m-98.78 1.362C7.634 36.204 2.34 47.411 5.883 58.145c.656 1.987 2.075 4.412 3.155 5.389 1.887 1.708 1.962 1.7 1.962-.224 0-4.164 3.542-5.81 12.5-5.81 8.953 0 12.064 1.435 12.694 5.854.277 1.941.542 1.816 2.772-1.311 1.816-2.547 2.571-5.106 2.864-9.717.342-5.366.027-6.895-2.207-10.706-1.433-2.445-4.153-5.403-6.045-6.572-3.861-2.386-11.689-3.435-15.787-2.115M67.2 35.2c-1.802 1.802-1.446 4.598.734 5.765 2.118 1.133 9.257 1.359 12.816.405 2.709-.726 3.209-5.788.668-6.763-2.794-1.072-12.978-.647-14.218.593m-46.843 1.77c-5.449 2.254-6.995 9.483-2.902 13.575C22.583 55.674 32 52.149 32 45.101c0-5.657-6.555-10.235-11.643-8.131m-.318 5.958c-1.273 2.377-.435 4.812 1.913 5.557 3.88 1.231 6.839-2.32 4.868-5.843-1.264-2.257-5.516-2.078-6.781.286M95 61.594c-8.408 3.642-13.235 13.105-10.973 21.508C85.23 87.567 87.71 92 89.007 92c.427 0 1.063-1.141 1.413-2.535.817-3.259 4.087-4.465 12.098-4.465 8.042 0 11.275 1.422 12.31 5.415l.798 3.08 2.687-4.585c4.488-7.659 3.133-18.582-2.993-24.122-5.067-4.582-13.907-5.971-20.32-3.194m-79.295 1.034c-.388.388-.705 1.766-.705 3.063 0 3.84 8.189 5.708 14.501 3.309 2.1-.799 2.568-1.557 2.315-3.75-.31-2.699-.455-2.755-7.861-3.038-4.15-.159-7.862.029-8.25.416m45.335.824c-2.657 3.201 1.245 8.118 4.71 5.936C69.212 67.207 67.979 62 64 62c-.965 0-2.297.653-2.96 1.452m35.596 3.184C94.877 68.396 94 70.346 94 72.5c0 6.341 8.28 10.908 13.087 7.218 4.587-3.522 4.995-8.79.99-12.795-3.765-3.765-7.859-3.868-11.441-.287m3.519 2.968c-2.662 1.864-2.731 3.564-.238 5.821 2.531 2.29 6.083.582 6.083-2.925 0-3.347-3.046-4.856-5.845-2.896m-52.238 16.41c-5.071.873-10.431 4.465-13.111 8.786-3.226 5.202-3.207 14.228.04 19.464l2.334 3.764 2.196-3.264c2.135-3.174 2.416-3.272 10.156-3.561 10.265-.382 12.31.191 13.863 3.886.984 2.338 1.505 2.725 2.313 1.715C68.319 113.537 70 108.722 70 104.51c0-11.594-10.602-20.474-22.083-18.496m-2.743 6.3c-2.479 2.64-2.874 8.18-.779 10.94 5.753 7.579 18.226.489 14.589-8.292C57.475 91.318 55.285 90 50.74 90c-2.252 0-4.122.778-5.566 2.314m49.531-1.686c-.388.388-.705 1.711-.705 2.941 0 1.608.883 2.543 3.149 3.333 3.902 1.36 5.351 1.364 10.161.029 3.339-.927 3.772-1.391 3.5-3.745-.302-2.62-.495-2.693-7.855-2.974-4.15-.159-7.862.029-8.25.416M48.2 95.2c-2.86 2.86-.228 7.225 3.995 6.627C56.422 101.228 55.39 94 51.078 94c-.923 0-2.218.54-2.878 1.2M6 102c-2.173 2.173-1.747 4.53 1.095 6.051 2.668 1.428 6.384-2.288 4.956-4.956C10.53 100.253 8.173 99.827 6 102m38.25 13.662c-.687.278-1.25 1.765-1.25 3.305 0 3.182 1.788 3.997 8.816 4.019 7.022.023 10.456-3.314 6.984-6.786-1.172-1.172-11.988-1.571-14.55-.538m49.5.418c-4.363 2.541-.208 9.306 4.25 6.92 2.579-1.38 2.619-5.598.066-6.965-2.302-1.232-2.12-1.234-4.316.045" fill-rule="evenodd"/></svg>