<svg xmlns="http://www.w3.org/2000/svg" width="128" height="128"><path d="M16.984 1.824C14.82 2.957 12.648 5.31 11.25 8.036 9.002 12.419 9 12.48 9 64c0 51.52.002 51.581 2.25 55.964C15.452 128.159 14.406 128 64 128c40.551 0 43.77-.128 47.016-1.863 1.916-1.025 4.384-3.387 5.484-5.25 1.921-3.254 2.011-5.45 2.277-55.887l.277-52.5-2.277-4.426C112.538-.166 113.622 0 64 0 23.809 0 20.201.14 16.984 1.824m1.327 4.128c-3.912 2.385-5.298 6.773-5.305 16.798L13 30h102l-.006-7.25c-.007-10.025-1.393-14.413-5.305-16.798-3.026-1.845-5.355-1.945-45.689-1.945s-42.663.1-45.689 1.945m6.144 5.503c-6.989 6.988 3.122 18.246 10.344 11.517 2.848-2.653 3.676-6.214 2.123-9.129-2.864-5.375-8.417-6.439-12.467-2.388m21.553.037c-3.276 3.487-3.116 8.158.381 11.166 3.361 2.892 6.534 2.977 9.976.269C58.398 21.329 59 19.973 59 17c0-7.135-8.199-10.611-12.992-5.508M74.2 10.2c-.66.66-1.2 3.72-1.2 6.8 0 3.08.54 6.14 1.2 6.8 1.663 1.663 25.937 1.663 27.6 0 .66-.66 1.2-3.72 1.2-6.8 0-3.08-.54-6.14-1.2-6.8-1.663-1.663-25.937-1.663-27.6 0m-47.16 4.252c-2.657 3.201 1.245 8.118 4.71 5.936 2.222-1.399 2.765-4.063 1.21-5.936a3.837 3.837 0 0 0-5.92 0M48 15c-2.161 4.037 2.613 7.987 5.8 4.8 1.714-1.714 1.482-5.478-.382-6.193C50.651 12.545 49.1 12.944 48 15m29 2v4h22v-8H77v4M13.238 72.75l.262 38.75 39 .251c21.45.138 39.613.481 40.363.762 1.09.409 1.115.808.127 1.999-1.055 1.271-6.912 1.488-40.112 1.488-27.582 0-38.878.319-38.878 1.099 0 .604 1.398 2.404 3.106 4L20.212 124h87.576l3.106-2.901c4.675-4.367 4.062-5.099-4.272-5.099-5.311 0-7.723-.417-8.612-1.488-1.668-2.01-.382-2.402 8.99-2.741l7.5-.271.262-38.75.261-38.75H12.977l.261 38.75M59 38.652c-6.754 1.13-17 6.222-17 8.447 0 2.008 3.041 2.008 5.861 0 4.936-3.515 14.179-5.378 20.702-4.172C84.186 45.815 94.176 57.545 94.176 73c0 16.873-13.204 30-30.176 30-17.077 0-30.176-13.117-30.176-30.218 0-6.2.463-8.055 3.479-13.935 2.864-5.582 3.24-6.981 2.125-7.907-1.072-.89-1.994-.117-4.416 3.702-8.659 13.655-6.669 30.861 4.908 42.438C46.93 104.09 53.993 107 64 107c30.771 0 45.918-37.303 23.834-58.699C80.681 41.37 68.038 37.14 59 38.652m-3.946 10.076C48.59 51.01 41.538 58.45 39.575 65.059c-1.987 6.693-1.978 9.463.054 15.755 4.886 15.127 22.387 22.216 36.227 14.672 6.565-3.578 10.375-8.045 12.515-14.672 2.032-6.292 2.041-9.062.054-15.755-1.126-3.791-2.919-6.649-6.285-10.015-7.533-7.532-17.234-9.795-27.086-6.316m.446 4.151c-6.894 3.162-11.652 9.085-12.979 16.156l-.65 3.465 5.065.227c2.785.125 6.639.227 8.564.227h17c1.925 0 5.779-.102 8.564-.227l5.065-.227-.65-3.465C82.921 55.402 67.783 47.244 55.5 52.879m-12.031 24.34c-.766 1.997.838 5.804 4.058 9.631 6.444 7.658 17.901 9.883 26.384 5.124 5.449-3.057 10.097-8.68 10.378-12.556.204-2.816.071-2.908-3.789-2.627-2.2.16-5.912.276-8.25.258-6.691-.053-11.9-.04-16.5.041-2.337.041-5.933-.236-7.99-.616-2.803-.517-3.878-.331-4.291.745" fill-rule="evenodd"/></svg>