<svg xmlns="http://www.w3.org/2000/svg" width="128" height="128"><path d="M5 27.697c-.825.31-2.287 1.25-3.25 2.088C.163 31.168 0 33.86 0 58.655 0 84.667.098 86.098 2 88c1.312 1.312 3.333 2 5.879 2 3.374 0 4.041.394 5.132 3.026C14.867 97.508 18.974 100 24.504 100c4.007 0 5.195-.499 8.096-3.4 1.87-1.87 3.4-4.091 3.4-4.937 0-1.002 1.129-1.645 3.25-1.85 2.083-.2 3.25-.852 3.25-1.813s-1.167-1.613-3.25-1.813c-2.152-.208-3.25-.844-3.25-1.882 0-.863-1.607-3.084-3.571-4.937C29.607 76.707 28.023 76 24.879 76c-5.358 0-9.084 2.108-11.43 6.468-1.738 3.23-2.328 3.59-5.449 3.327L4.5 85.5l-.266-26.75L3.967 32h57.517c50.459 0 57.516.184 57.516 1.5 0 1.256-2.107 1.5-12.965 1.5-11.794 0-13.058.175-14 1.934-1.462 2.732-1.284 21.004.234 24.066 2.234 4.506 13.512 8.271 27.731 9.257l3.5.243.299 6.91c.323 7.45-.294 8.547-4.822 8.575-1.875.011-3.016-.903-4.449-3.562-2.325-4.317-6.065-6.423-11.407-6.423-3.144 0-4.728.707-7.55 3.368C93.607 81.221 92 83.462 92 84.349c0 1.425-2.521 1.643-21.75 1.881-18.547.23-21.75.491-21.75 1.77s3.203 1.54 21.75 1.77c19.045.235 21.75.466 21.75 1.85 0 .869 1.53 3.11 3.4 4.98 2.901 2.901 4.089 3.4 8.096 3.4 5.53 0 9.637-2.492 11.493-6.974 1.075-2.595 1.779-3.026 4.945-3.026 2.74 0 4.385-.724 6.379-2.805L129 84.391l-.204-27.446c-.155-20.828-.336-24.311-.75-14.445l-.546 13-2.353-12.188c-1.707-8.843-2.902-12.686-4.354-14-1.877-1.699-5.497-1.823-58.147-1.996-30.88-.101-56.821.071-57.646.381M.44 58.5c0 15.4.139 21.56.308 13.689.169-7.87.169-20.47-.001-28C.578 36.66.439 43.1.44 58.5M9.2 36.2c-1.26 1.26-1.748 21.208-.593 24.218.913 2.381 35.873 2.381 36.786 0 1.155-3.01.667-22.958-.593-24.218-1.684-1.684-33.916-1.684-35.6 0m40.835.734c-1.215 2.271-1.377 21.979-.196 23.84.617.971 5.062 1.209 18.735 1L86.5 61.5l.283-11.858c.188-7.888-.104-12.324-.873-13.25C85.007 35.304 81.082 35 67.913 35c-15.628 0-16.917.139-17.878 1.934M12 48.5V58h13V39H12v9.5m17 0V58h13V39H29v9.5m24 0V58h12.879l.311-3.742c.217-2.615.837-3.841 2.06-4.073 1.435-.272 1.75.403 1.75 3.742V58h13V39h-6.5c-6.143 0-6.5.128-6.5 2.333 0 1.284-.269 2.603-.598 2.931C68.157 45.51 66 43.689 66 41.393 66 39.114 65.689 39 59.5 39H53v9.5m43 1.339c0 10.754.021 10.849 2.649 12.047 4.435 2.021 14.551 4.084 20.101 4.099L124 66v-3.935c0-3.337-1.444-11.886-3.516-20.815-.506-2.179-.9-2.25-12.503-2.25H96v10.839m-2.75 19.823c-1.953.788-1.467 3.134.798 3.853 2.763.877 5.394-1.278 3.842-3.148-1.163-1.4-2.436-1.594-4.64-.705M18.455 82.455c-5.032 5.031-1.638 13.574 5.368 13.513 4.308-.037 6.707-1.602 8.11-5.291 3-7.891-7.441-14.26-13.478-8.222m79.868-.205c-2.839 3.154-3.426 5.348-2.256 8.427 1.403 3.689 3.802 5.254 8.11 5.291 7.006.061 10.4-8.482 5.368-13.513-3.222-3.223-8.419-3.318-11.222-.205" fill-rule="evenodd"/></svg>