<svg xmlns="http://www.w3.org/2000/svg" width="128" height="128"><path d="M54 1.428c-18.904 5.246-28.96 22.09-27.845 46.64.283 6.24.776 8.239 2.491 10.106 1.176 1.279 2.446 3.783 2.823 5.564.743 3.514 4.692 7.262 7.652 7.262 1.044 0 2.977 1.702 4.434 3.904l2.584 3.904-2.014 3.946c-1.801 3.531-2.827 4.236-9.733 6.688-12.767 4.532-18.76 9.431-23.866 19.507-2.931 5.784-4.816 15.946-3.302 17.801 1.489 1.823 112.063 1.823 113.552 0 1.514-1.855-.371-12.017-3.302-17.801-5.11-10.085-11.097-14.974-23.901-19.52-7.138-2.534-7.92-3.09-9.806-6.972l-2.05-4.219 2.659-3.486c1.462-1.918 3.207-5.796 3.878-8.619C89.408 61.276 89.646 61 92.681 61c1.945 0 4.307-.946 6.001-2.403 2.547-2.191 2.826-3.108 3.156-10.356 1.136-25.022-8.956-41.72-28.338-46.885C67.404-.268 60.014-.241 54 1.428m2.734 4.602C44.379 9.133 34.607 19.31 32.437 31.336c-.652 3.615-.556 3.817 1.662 3.5 1.912-.273 2.49-1.144 3.086-4.652 2.064-12.15 12.702-20.14 26.815-20.14 14.113 0 24.751 7.99 26.815 20.14.596 3.508 1.174 4.379 3.086 4.652 2.218.317 2.314.115 1.662-3.5-1.724-9.557-8.982-18.807-17.994-22.933-5.935-2.717-15.244-3.778-20.835-2.373M55.5 16.17C49.081 18.556 44.421 23.506 42.481 30c-.716 2.397-.668 2.43 1.154.805 2.926-2.609 10.518-5.759 13.941-5.783 1.975-.014 3.883.838 5.334 2.382 2.991 3.184 13.486 8.22 18.983 9.109l4.392.711-.532-4.725C85.08 26.53 80.838 20.37 75.5 17.609c-4.638-2.398-15.347-3.169-20-1.439m-2.258 15.079C48.613 32.734 42 40.178 42 43.905c0 3.379 1.847 17.727 2.619 20.345.785 2.661 5.807 2.233 8.79-.75C56.738 60.171 65.878 59.878 69 63c3.25 3.25 3.01 7.5-.607 10.75-3.578 3.214-10.233 3.097-14.211-.25C51.21 70.999 48 70.182 48 71.927c0 .51 1.654 2.29 3.675 3.956 8.32 6.859 20.684 5.56 27.447-2.883 3.393-4.236 5.703-12.923 6.091-22.901l.287-7.401-5.857-1.35c-6.663-1.536-14.544-5.246-18.86-8.877-3.244-2.73-2.975-2.686-7.541-1.222M32 47.363c0 6.613.236 7.577 1.991 8.134 1.095.348 2.333.422 2.75.165.417-.258.534-3.774.259-7.815-.455-6.679-.704-7.376-2.75-7.667-2.162-.307-2.25-.025-2.25 7.183m59.659-6.613c-.771 1.261-1.182 14.06-.474 14.769.365.365 1.598.367 2.74.005C95.78 54.935 96 54.077 96 47.433 96 40.742 95.806 40 94.059 40c-1.068 0-2.147.337-2.4.75M37 63c0 1.1.45 2 1 2s1-.9 1-2-.45-2-1-2-1 .9-1 2m20.323 4.601c-1.07 2.789 4.306 4.553 7.573 2.485C67.409 68.494 65.335 66 61.5 66c-2.344 0-3.773.548-4.177 1.601m15.389 20.183C70.121 90.416 68 93.024 68 93.581c0 .557 1.737 2.709 3.86 4.782l3.859 3.769 2.734-6.434c2.621-6.166 2.667-6.565 1.115-9.566C78.677 84.409 77.831 83 77.687 83c-.144 0-2.383 2.153-4.975 4.784m-24.639-.961c-1.007 2.432-.788 3.702 1.577 9.156l2.746 6.332 3.843-4.33 3.842-4.33-4.753-4.825C52.714 86.172 50.275 84 49.909 84c-.367 0-1.193 1.27-1.836 2.823m13.434 1.185c1.701 1.88 1.935 1.902 3.655.345C67.639 86.112 67.553 86 63.345 86c-3.597 0-3.626.032-1.838 2.008m-28.07 7.35c-7.696 2.862-12.533 6.557-16.322 12.469-2.98 4.65-6.012 13.609-4.962 14.66.303.303 10.989.43 23.746.282l23.194-.269-5.928-9.243c-3.26-5.084-6.933-11.722-8.162-14.75-2.553-6.29-2.878-6.379-11.566-3.149m49.548 3.179c-1.278 3.149-4.451 8.984-7.051 12.967-2.6 3.982-5.24 8.198-5.866 9.369L68.93 123h47.332l-.582-3.582c-1.604-9.884-9.87-19.849-19.433-23.427-10.592-3.963-10.623-3.957-13.262 2.546m-23.845 3.82-4.276 4.357 4.318 6.607c2.375 3.634 4.543 6.619 4.818 6.632.275.014 2.385-3.007 4.688-6.714l4.188-6.739-4.146-4.25C66.449 99.912 64.321 98 64 98c-.321 0-2.508 1.961-4.86 4.357m30.224-1.864c-.346.903-.15 2.121.436 2.707 1.524 1.524 4.41.131 4.012-1.935-.443-2.302-3.647-2.858-4.448-.772m9.016 4.96c-.732 1.907 6.504 10.547 8.832 10.547 2.86 0 2.114-3.26-1.79-7.82-3.7-4.323-6.077-5.243-7.042-2.727" fill-rule="evenodd"/></svg>