<svg xmlns="http://www.w3.org/2000/svg" width="128" height="128"><path d="M50 1.555C26.634 6.573 6.423 26.97 1.499 50.5c-9.508 45.442 30.559 85.509 76.001 76.001 17.967-3.76 35.068-16.894 43.232-33.206 2.256-4.507 4.628-10.805 5.271-13.995.643-3.19 1.581-6.581 2.083-7.536 1.063-2.02 1.259-17.442.209-16.392-.388.388-1.277-2.124-1.976-5.583-.699-3.459-3.151-10.099-5.45-14.755C108.222 9.419 78.581-4.583 50 1.555m6.173 3.531c-8.145 1.042-12.095 2.337-20.611 6.758-13.359 6.934-25.044 21.693-29.095 36.748-2.071 7.699-2.071 23.117 0 30.816 5.349 19.879 22.267 36.794 42.125 42.119 7.937 2.129 22.25 2.128 30.408-.001 20.509-5.352 37.174-22.017 42.526-42.526 2.129-8.158 2.13-22.471.001-30.408-7.636-28.478-35.879-47.279-65.354-43.506M62 10.5c0 3.069 3.499 3.525 4.275.558.606-2.32.017-3.058-2.442-3.058C62.544 8 62 8.742 62 10.5m-8.985-.25c.028 2.291 1.764 4.049 3.384 3.427.881-.338 1.601-1.528 1.601-2.646C58 9.531 57.346 9 55.5 9c-1.375 0-2.493.563-2.485 1.25m17.321.317c-.331.862-.122 2.047.464 2.633 1.555 1.555 4.2.19 4.2-2.169 0-2.466-3.753-2.839-4.664-.464m-24.972 1.926c-.346.903-.195 2.076.336 2.607 1.399 1.399 4.453-.068 4.088-1.964-.424-2.201-3.646-2.669-4.424-.643m33.363.442c-.46 1.759.92 3.065 3.238 3.065 1.539 0 1.838-3.862.343-4.435-2.397-.92-3.047-.671-3.581 1.37m-40.623 1.98c-1.89 1.196-.572 4.322 1.643 3.895.964-.185 1.753-1.194 1.753-2.24 0-2.219-1.414-2.908-3.396-1.655m48.449.809c-.413 1.074-.016 2.195 1.05 2.975 1.415 1.034 1.938.952 3.009-.473 1.084-1.444 1.026-1.931-.349-2.976-2.198-1.67-2.923-1.577-3.71.474M62 19c0 1.333.667 2 2 2s2-.667 2-2-.667-2-2-2-2 .667-2 2m-30.853.323c-1.186 1.429-.604 4.677.838 4.677.423 0 1.349-.698 2.057-1.55 1.057-1.274 1.019-1.817-.214-3.05-1.294-1.295-1.662-1.305-2.681-.077m63.075.694C92.652 22.53 95.235 24.88 97.5 23c1.949-1.618 1.891-2.275-.323-3.657-1.471-.919-2.042-.789-2.955.674M24.2 25.2c-1.622 1.622-1.51 2.467.427 3.21 2.37.91 4.722-1.284 3.263-3.043-1.394-1.68-2.143-1.714-3.69-.167m76.842.25c-1.049 1.263-1.049 1.837 0 3.1 1.162 1.4 1.436 1.4 2.836 0 1.401-1.4 1.401-1.7 0-3.1-1.4-1.4-1.674-1.4-2.836 0m-81.866 5.774c-1.667 1.667-1.457 3.454.494 4.203 2.705 1.038 4.304-2.374 2.006-4.281-.966-.802-1.641-.781-2.5.078m87.04.622c-1.743 1.105-.383 4.333 1.66 3.939 1.758-.338 2.261-3.916.624-4.435-.55-.175-1.578.049-2.284.496M14.053 39.9c-.975 1.823.228 3.1 2.922 3.1 1.472 0 2.119-3.323.809-4.155-1.93-1.224-2.614-1.031-3.731 1.055M34 40.5V43h21v19H34v28h26v-5H39V66h21V38H34v2.5m34 11.43V66h10.5c8.057 0 10.5.309 10.5 1.327 0 1.058-.991 1.124-4.895.324-3.998-.819-5.74-.68-9.509.759-13.558 5.178-17.988 20.931-8.879 31.572 4.653 5.436 8.618 7.341 15.283 7.341 6.155 0 9.959-1.631 14.693-6.3 6.48-6.39 7.128-17.567 1.474-25.439L94 71.173V37.861l-2.25.319c-2.169.308-2.26.744-2.532 12.07L88.937 62H73.063l-.281-11.75c-.272-11.326-.363-11.762-2.532-12.07-2.242-.318-2.25-.268-2.25 13.75m42.704-12.703c-1.495 1.093-1.57 1.574-.477 3.069 1.093 1.495 1.574 1.57 3.069.477 1.495-1.093 1.57-1.574.477-3.069-1.093-1.495-1.574-1.57-3.069-.477m-99.977 8.708c-.46 1.759.92 3.065 3.238 3.065 1.539 0 1.838-3.862.343-4.435-2.397-.92-3.047-.671-3.581 1.37m103.523-1.273c-.687.278-1.25 1.367-1.25 2.421 0 1.399.704 1.917 2.607 1.917 1.966 0 2.458-.389 2-1.582-.334-.87-.607-1.995-.607-2.5 0-.986-.764-1.057-2.75-.256M9 56.433C9 58.285 9.527 59 10.893 59c1.041 0 2.177-.739 2.524-1.643.737-1.922.752-1.903-2.167-2.8C9.321 53.964 9 54.232 9 56.433m105.775-.875c-.533.534.135 4.442.76 4.442 1.698 0 3.465-1.584 3.465-3.107 0-1.781-2.871-2.689-4.225-1.335M.349 64c0 4.675.173 6.588.383 4.25.211-2.338.211-6.163 0-8.5-.21-2.338-.383-.425-.383 4.25M17 64c0 1.333.667 2 2 2s2-.667 2-2-.667-2-2-2-2 .667-2 2m90 0c0 1.333.667 2 2 2s2-.667 2-2-.667-2-2-2-2 .667-2 2M8.18 65.25c.21 1.477 1.007 2.25 2.32 2.25s2.11-.773 2.32-2.25c.262-1.846-.155-2.25-2.32-2.25s-2.582.404-2.32 2.25m107.487-1.583c-1.504 1.504-.645 6.106 1.232 6.596 1.474.386 2.033-.171 2.496-2.486.328-1.64.347-3.386.042-3.88-.651-1.053-2.816-1.185-3.77-.23M10.693 71.76c-2.51.567-1.696 3.665 1.067 4.06 1.683.24 2.24-.181 2.24-1.691 0-2.35-.813-2.932-3.307-2.369m62.718 2.131c-7.68 4.683-10.053 12.23-6.254 19.886C70.024 99.553 74.891 103 80.18 103c11.191 0 18.989-9.717 15.796-19.685-3.132-9.775-14.324-14.449-22.565-9.424m40.212 1.65c-.845 2.2.067 3.459 2.506 3.459 1.51 0 1.931-.557 1.691-2.24-.383-2.682-3.31-3.532-4.197-1.219m-36.968 3.288C74.41 81.309 74.57 85.57 77 88c1.333 1.333 2 3.333 2 6 0 3.778.167 4 3 4 2.333 0 3-.444 3-2 0-1.1-.45-2-1-2-1.729 0-1.087-4.104.913-5.84 3.03-2.629 3.38-5.518 1.032-8.503-2.483-3.157-6.832-3.544-9.29-.828m-63.947.928c-1.325.3-1.618.97-1.125 2.574.868 2.828.858 2.821 2.774 2.086 1.653-.635 2.289-3.969.893-4.682-.412-.211-1.556-.201-2.542.022m66.825 2.19c-.88 1.423.242 3.053 2.099 3.053.876 0 1.378-.703 1.191-1.667-.389-2.009-2.386-2.849-3.29-1.386m31.52 1.953c-.975 1.823.228 3.1 2.922 3.1 1.472 0 2.119-3.323.809-4.155-1.93-1.224-2.614-1.031-3.731 1.055m-94.99 4.04c-1.05.664-1.183 1.477-.493 3.023.816 1.828 1.186 1.936 2.741.799 1.136-.831 1.554-1.949 1.136-3.038-.747-1.948-1.331-2.083-3.384-.784m91.144 3.1c-.982 1.573-.87 2.07.65 2.883 1.259.674 2.199.621 2.99-.17 1.607-1.607 1.443-2.527-.65-3.648-1.372-.734-2.087-.511-2.99.935m-87.068 4.292c-.813.98-.776 1.782.14 3.034 1.094 1.497 1.48 1.531 3.195.277 1.659-1.213 1.751-1.667.616-3.035-1.624-1.956-2.505-2.018-3.951-.276m82.112 2.638c-1.039 1.664-.938 2.127.654 2.979 2.606 1.395 4.949-1.215 3.095-3.449-1.638-1.973-2.273-1.894-3.749.47m-76.282 3.568c-1.074 1.293-1.027 1.833.271 3.131 1.677 1.677 3.76 1.064 3.76-1.106 0-.725-.615-1.829-1.367-2.453-1.042-.865-1.676-.763-2.664.428m70.701 1.714c-1.552 1.135-1.58 1.485-.266 3.26 1.404 1.894 1.558 1.905 3.249.238 1.583-1.561 1.612-1.913.266-3.26-1.241-1.241-1.82-1.283-3.249-.238m-64.347 4.349c-.545 1.419 1.058 3.342 2.82 3.384.968.023 1.944-3.035 1.301-4.075-.909-1.471-3.455-1.044-4.121.691M62 109c0 1.333.667 2 2 2s2-.667 2-2-.667-2-2-2-2 .667-2 2m27.67-.748c-1.464 1.071-1.534 1.552-.443 3.044 1.159 1.584 1.508 1.616 3.285.3 1.795-1.331 1.838-1.626.443-3.045-1.275-1.295-1.851-1.348-3.285-.299m-50.097 3.418c-.635 1.654.871 3.285 3.06 3.315 1.777.024 2.357-3.775.675-4.42-2.33-.894-3.049-.681-3.735 1.105m42.531.244c-1.699 1.077-.738 4.086 1.306 4.086 1.922 0 2.749-1.421 1.986-3.41-.693-1.806-1.307-1.932-3.292-.676m-34.371 2.999c-.37 1.414.062 2.205 1.445 2.644 2.312.733 2.52.59 2.977-2.057.489-2.834-3.689-3.389-4.422-.587m25.447 1.337c.231 1.626.875 2.154 2.32 1.905 2.581-.445 2.666-.558 1.917-2.512-.347-.904-1.514-1.643-2.594-1.643-1.463 0-1.881.572-1.643 2.25M56 117c0 1.467.667 2 2.5 2s2.5-.533 2.5-2-.667-2-2.5-2-2.5.533-2.5 2m9 .5c0 2.722.085 2.788 2.418 1.893 2.347-.9 2.014-4.393-.418-4.393-1.467 0-2 .667-2 2.5" fill-rule="evenodd"/></svg>