<svg xmlns="http://www.w3.org/2000/svg" width="128" height="128"><path d="M34.692.642c-.381.38-.692 4.205-.692 8.5v7.81l-16.75.274L.5 17.5v110h65l.5-48.749.5-48.749 12.407 47.749c6.824 26.262 12.973 48.369 13.664 49.128 1.061 1.163 3.71.722 16.937-2.818 8.624-2.308 16.283-4.427 17.021-4.71.942-.362 1.459.625 1.738 3.317.218 2.108.364-20.918.325-51.168l-.073-55-.33 49.5-.331 49.5-12.784-48.771c-7.03-26.824-13.071-49.059-13.423-49.411-.506-.506-29.255 6.54-34.37 8.424-.911.335-1.291-2.806-1.5-12.397L65.5.5 50.442.225c-8.282-.151-15.37.036-15.75.417M39 8.467V13h23.115l-.308-4.25L61.5 4.5l-11.25-.283L39 3.934v4.533M39 20v3h23v-6H39v3M.467 72.5c0 30.25.127 42.769.282 27.821.156-14.949.156-39.699 0-55C.594 30.019.467 42.25.467 72.5m3.917-50.058c-.304.792-.397 2.255-.206 3.25.313 1.631 1.787 1.835 15.085 2.085L34 28.053V21H19.469c-11.733 0-14.638.278-15.085 1.442M84.5 25.666c-7.15 1.935-13.09 3.603-13.199 3.708-.109.105.286 2.101.878 4.435.81 3.188 1.481 4.125 2.699 3.764.892-.264 7.022-1.9 13.622-3.635 6.6-1.736 12.09-3.234 12.199-3.329.467-.408-2.001-8.602-2.571-8.535-.345.04-6.478 1.657-13.628 3.592M39 65v37h23V28H39v37M4 64v32h30V32H4v32m92-27.51c-2.475.743-8.213 2.336-12.75 3.54-6.779 1.799-8.25 2.538-8.25 4.147 0 1.396.502 1.808 1.75 1.437.963-.287 7.15-1.941 13.75-3.676 6.6-1.736 12.123-3.267 12.274-3.404.488-.442-.968-3.536-1.631-3.464-.354.038-2.668.677-5.143 1.42M9.2 39.2c-1.78 1.78-1.614 18.211.199 19.716.903.75 4.715 1.059 10.75.873L29.5 59.5l.288-9.917c.211-7.261-.057-10.137-1-10.735C26.726 37.54 10.57 37.83 9.2 39.2M13 49v6h12V43H13v6m77.038-2.362c-6.854 1.899-12.654 3.645-12.89 3.881-.607.607 10.844 44.789 11.893 45.884 1.029 1.075 26.035-5.42 26.577-6.903.568-1.552-11.153-45.857-12.195-46.099-.508-.118-6.531 1.338-13.385 3.237m12.687 51.809c-6.476 1.798-11.976 3.471-12.223 3.717-.94.941 1.679 7.982 2.817 7.573.65-.234 6.857-1.899 13.794-3.702l12.613-3.277-.985-3.879c-.656-2.586-1.527-3.849-2.613-3.79-.895.048-6.927 1.559-13.403 3.358m-98.341 2.995c-.304.792-.397 2.255-.206 3.25.313 1.631 1.787 1.835 15.085 2.085l14.737.276V100H19.469c-11.733 0-14.638.278-15.085 1.442M39 109c0 1.884.667 2 11.5 2s11.5-.116 11.5-2-.667-2-11.5-2-11.5.116-11.5 2m67.401 1.772-13.1 3.577.999 4.075c.55 2.242 1.095 4.202 1.213 4.356.232.305 26.786-6.77 27.306-7.275.519-.504-2.08-8.514-2.727-8.407-.326.054-6.487 1.708-13.691 3.674M4.202 117.25l.298 6.25 14.75.277 14.75.276V111H3.905l.297 6.25M39 119.533v4.533l11.25-.283 11.25-.283.307-4.25.308-4.25H39v4.533" fill-rule="evenodd"/></svg>