<svg xmlns="http://www.w3.org/2000/svg" width="128" height="128"><path d="M67.299 1.96c-11.919 7.267-6.825 26.207 7.048 26.207 14.865 0 20.088-18.444 7.412-26.172C77.605-.538 71.42-.553 67.299 1.96M70.5 6.208c-3.223 1.848-4.434 4.041-4.468 8.087-.09 10.716 14.873 12.053 17.475 1.563 1.727-6.962-6.74-13.244-13.007-9.65M2.2 31.2c-1.728 1.728-1.728 93.872 0 95.6 1.869 1.869 12.447 1.563 13.193-.382.334-.87.607-10.095.607-20.5V87h96l.015 19.25c.009 10.588.388 19.837.843 20.555.567.894 2.686 1.208 6.735 1l5.907-.305v-97l-5.907-.305c-6.903-.356-7.556.252-7.578 7.055L112 42H16v-4.418C16 30.509 15.536 30 9.093 30c-3.131 0-6.233.54-6.893 1.2M7 79c0 38.444.189 44 1.5 44s1.5-5.556 1.5-44-.189-44-1.5-44S7 40.556 7 79m111 0c0 38.444.189 44 1.5 44s1.5-5.556 1.5-44-.189-44-1.5-44-1.5 5.556-1.5 44M16 55.5V63h21V48H16v7.5m26 0V63h19V48H42v7.5m25 0V63h19V48H67v7.5m24.206-.25.294 7.25 10.25.285 10.25.285V48H90.912l.294 7.25M16 75v7h21V68H16v7m26 0v7h19V68H42v7m25 0v7h19V68H67v7m24 0v7h21V68H91v7" fill-rule="evenodd"/></svg>