<svg xmlns="http://www.w3.org/2000/svg" width="128" height="128"><path d="M113.688.646c-.379.378-.688 20.67-.688 45.094 0 41.754.105 44.387 1.75 44.07 1.635-.315 1.75-3.247 1.75-44.74 0-42.625-.275-46.962-2.812-44.424M4.901 8.096C1.166 9.49-.157 12.706.194 19.539.425 24.035.869 25.5 2 25.5c1.143 0 1.571-1.499 1.799-6.293.272-5.732.53-6.382 2.898-7.282 1.605-.61 18.426-.88 43.988-.706 35.493.241 41.524.495 42.337 1.781 1.475 2.335 1.267 60.311-.222 61.8-.66.66-3.33 1.2-5.934 1.2-4.416 0-4.754-.184-5.05-2.741-.19-1.654-1.011-2.874-2.066-3.074-1.359-.258-1.75.355-1.75 2.742V76H42.122c-28.604 0-36.101-.269-36.979-1.328-.707-.852-1.199-9.005-1.373-22.75C3.54 33.667 3.278 30.5 2 30.5.721 30.5.46 33.719.23 52.395c-.287 23.32.112 25.626 4.684 27.078 1.311.416 2.07 1.691 2.276 3.825L7.5 86.5l35 .5 35 .5.29 8.25.291 8.25h-4.484C67.384 104 66 106.186 66 116c0 12.744-1.944 12 31.357 12 20.633 0 28.566-.323 29.443-1.2.769-.769 1.2-4.703 1.2-10.965 0-10.953-.554-11.835-7.434-11.835-3.547 0-3.566-.024-3.566-4.393 0-2.846-.494-4.582-1.402-4.931-2.082-.799-2.598.192-2.598 4.991V104H82V87h3.893C89.888 87 91 85.894 91 81.918c0-1.055.47-1.918 1.045-1.918s2.15-1.105 3.5-2.455L98 75.091V13.112l-2.413-2.806L93.175 7.5l-42.838-.187c-25.714-.112-43.876.201-45.436.783m5.96 9.814c-2.337 1.891-2.364 2.138-2.664 24.448-.328 24.438.289 27.987 5.071 29.16 1.228.302 11.682.421 23.232.265 17.874-.241 21-.506 21-1.783 0-1.279-3.171-1.538-21.5-1.761-18.783-.227-21.658-.472-22.75-1.941-1.774-2.385-1.774-42.199 0-44.624 1.134-1.55 3.753-1.684 28.25-1.441l27 .267.268 23.217.269 23.216-3.269.847c-1.797.466-3.268 1.494-3.268 2.284 0 2.305 4.831 2.25 7.805-.089L73 67.855V44.102c0-23.536-.021-23.773-2.314-25.928C68.425 16.05 67.732 16 40.796 16c-25.651 0-27.739.133-29.935 1.91m68.774 4.163C78.121 23.263 77 25.147 77 26.5c0 2.448 4.164 6.5 6.68 6.5 1.915 0 6.32-4.53 6.32-6.5 0-1.97-4.405-6.5-6.32-6.5-.776 0-2.596.933-4.045 2.073m1.701 3.494c-.91 2.372 1.223 4.044 3.134 2.458 1.184-.983 1.284-1.616.42-2.658-1.498-1.804-2.813-1.73-3.554.2m-2.979 15.01c-3.466 5.29 2.176 11.324 8.075 8.636C92.25 46.562 90.011 38 83.5 38c-2.608 0-3.867.631-5.143 2.577m3.123 2.455c-.388.628-.235 1.613.34 2.188 1.344 1.344 4.477.172 3.93-1.471-.556-1.671-3.386-2.147-4.27-.717M76.822 56.49c-.806 1.77-.878 3.449-.227 5.3.893 2.538 1.333 2.71 6.929 2.71H89.5v-10l-5.749-.3c-5.347-.279-5.831-.119-6.929 2.29M80 59.5c0 1 1 1.5 3 1.5s3-.5 3-1.5-1-1.5-3-1.5-3 .5-3 1.5m-69 22c0 1.303 4.389 1.5 33.5 1.5S78 82.803 78 81.5 73.611 80 44.5 80 11 80.197 11 81.5m71 0c0 .933.944 1.5 2.5 1.5s2.5-.567 2.5-1.5-.944-1.5-2.5-1.5-2.5.567-2.5 1.5m-11.583 27.855c-.286.746-.384 4.233-.218 7.75l.301 6.395 26.75.266 26.75.267V108H97.469c-21.403 0-26.632.262-27.052 1.355M106.2 111.2c-.66.66-1.2 2.82-1.2 4.8 0 4.68 1.459 6 6.629 6 4.98 0 7.371-1.946 7.371-6 0-1.571-.707-3.564-1.571-4.429-1.871-1.871-9.478-2.122-11.229-.371m-31.5 3.433c-.385.385-.7 1.316-.7 2.069 0 1.087 2.105 1.309 10.25 1.083 8.318-.231 10.25-.568 10.25-1.785 0-1.209-1.854-1.555-9.55-1.784-5.252-.156-9.864.032-10.25.417M109 116c0 1.556.667 2 3 2s3-.444 3-2-.667-2-3-2-3 .444-3 2" fill-rule="evenodd"/></svg>