<svg xmlns="http://www.w3.org/2000/svg" width="128" height="128"><path d="M29.818 2.499c-.875 1.922-.827 3.445.21 6.586 1.942 5.885.146 13.116-5.894 23.727C21.414 37.59 18.699 43.3 18.1 45.5c-.619 2.275-1.09 12.839-1.091 24.5-.001 19.383.118 20.691 2.195 24 1.207 1.925 2.443 5.75 2.746 8.5.389 3.533.99 5 2.05 5 1.088 0 1.586-1.352 1.812-4.921.244-3.857-.174-5.578-1.935-7.96-1.433-1.937-2.406-4.956-2.686-8.329L20.752 81H63l-.004 4.25c-.002 2.695-.826 5.531-2.25 7.75-1.942 3.026-2.314 5.248-2.746 16.395-.573 14.771-1.232 16.008-7.35 13.795-2.675-.967-4.018-.98-6.045-.056-2.01.916-3.2.916-5.21 0-2.027-.924-3.37-.911-6.045.056-4.88 1.765-6.727.309-7.35-5.792-.354-3.465-.939-4.898-2-4.898-1.097 0-1.579 1.361-1.796 5.068-.256 4.376.07 5.433 2.386 7.75 2.772 2.771 8.032 3.66 10.002 1.69.655-.655 2.079-.581 4.2.219 2.38.899 3.955.929 6.103.119 1.678-.634 3.466-.732 4.25-.235 1.968 1.247 7.1 1.021 8.942-.393 3.164-2.43 3.913-5.605 3.913-16.599 0-9.913.257-11.493 2.569-15.816l2.568-4.803-.368-22c-.203-12.1-.741-22.81-1.195-23.799-.96-2.092-4.135-1.821-3.947.337.07.804.458 3.15.862 5.212l.734 3.75H20.738l.6-3.694c.593-3.658 1.765-6.23 9.019-19.806 2.535-4.744 3.931-8.853 4.332-12.75L35.28 11h13.44l.585 5.667c.546 5.288 4.517 15.042 8.075 19.833 1.195 1.609 1.735 1.754 2.759.743 1.03-1.016.564-2.572-2.434-8.123-4.357-8.066-5.543-14.552-3.688-20.172.997-3.02 1.036-4.537.165-6.449C53.067.053 52.808 0 42 0S30.933.053 29.818 2.499M33 5.5C33 6.722 34.667 7 42 7s9-.278 9-1.5S49.333 4 42 4s-9 .278-9 1.5M21 67v10h42V57H21v10m14.122-5.12c-2.879 1.872.124 3.12 7.51 3.12 6.617 0 7.475-.209 7.181-1.75-.271-1.419-1.56-1.799-6.823-2.008-3.57-.142-7.11.145-7.868.638M28 71c0 1.99.45 2.046 14.25 1.777C54.127 72.546 56.5 72.25 56.5 71s-2.373-1.546-14.25-1.777C28.45 68.954 28 69.01 28 71m45.25-1.338c-2.087.842-1.701 22.766.466 26.434.943 1.597 2.068 2.904 2.5 2.904.431 0 .784 5.42.784 12.045 0 11.456.12 12.166 2.455 14.5 2.256 2.257 3.21 2.455 11.811 2.455 13.371 0 13.734-.421 13.734-15.917 0-9.796.286-12.075 1.655-13.211.91-.754 2.26-2.82 3-4.59 1.731-4.141 1.841-22.386.145-24.082-.846-.846-6.229-1.177-18.25-1.121-9.378.043-17.612.306-18.3.583M76 79.961v6.961l8.739.289c7.391.244 8.79.559 9.073 2.039.299 1.563-.637 1.75-8.739 1.75-4.99 0-9.073.415-9.073.923s1.125 2.261 2.5 3.895c2.349 2.791 2.5 3.664 2.5 14.454 0 8.635.348 11.772 1.403 12.648.89.738 4.456 1.057 9.75.872l8.347-.292.5-12.564c.481-12.078.612-12.697 3.405-16l2.904-3.436-4.216-.311c-3.327-.245-4.149-.666-3.896-2 .218-1.155 1.502-1.787 4.061-1.999l3.742-.311V73H76v6.961" fill-rule="evenodd"/></svg>