<svg xmlns="http://www.w3.org/2000/svg" width="128" height="128"><path d="M80.275 1.205c-.574.712-1.347 2.712-1.717 4.443-.82 3.84-3.391 4.716-6.485 2.21-3.262-2.642-5.231-2.322-8.877 1.44-3.457 3.567-4.074 6.729-1.696 8.702.825.685 1.5 2.272 1.5 3.526v2.282l-5.011-1.904c-8.742-3.322-18.303-1.953-25.686 3.678-3.831 2.922-9.28 11.834-9.294 15.199-.005 1.255-.797 2.572-1.759 2.927-2.212.815-8.362 5.314-9.968 7.292-.67.825-1.233 3.433-1.25 5.795-.024 3.248.543 4.834 2.324 6.5C17.245 67.871 19.47 69 23.595 69c3.598 0 4.274.341 4.796 2.423.335 1.333 1.807 3.848 3.273 5.589 2.187 2.599 2.411 3.333 1.25 4.096-.778.511-2.876 1.857-4.664 2.992-3.428 2.176-4.348 4.9-1.654 4.9.877 0 2.843-.889 4.369-1.975 1.526-1.086 3.904-2.405 5.285-2.93 2.432-.925 2.532-.798 3.177 4.067C40.278 94.576 43.435 98 48.5 98c5.263 0 8.5-3.578 8.5-9.396 0-2.467.375-4.718.834-5.002 1.595-.985 9.077 3.577 13.198 8.049 6.531 7.084 8.251 12.016 8.774 25.148.387 9.738.673 11.256 2.072 10.989 1.312-.251 1.678-1.897 1.913-8.613.616-17.524-6.059-30.424-19.744-38.16-2.394-1.354.638-4.015 4.575-4.015 3.696 0 7.374-2.863 7.385-5.75.009-2.463 5.99-6.25 9.871-6.25 4.733 0 6.951-1.573 7.677-5.443.822-4.382 2.83-5.1 7.018-2.512 3.87 2.392 5.672 1.83 9.777-3.05 2.642-3.139 2.622-5.006-.09-8.171-2.195-2.562-1.163-5.16 2.333-5.875 4.942-1.01 5.407-1.689 5.407-7.901 0-6.024-.721-7.048-4.959-7.048-.988 0-2.396-.723-3.129-1.607-1.13-1.361-.994-2.197.894-5.478l2.228-3.871-3.633-4.022c-4.031-4.461-5.757-4.857-9.301-2.133-3.51 2.699-5.703 1.648-6.726-3.223L92.499.5l-5.59-.295c-3.683-.195-5.945.146-6.634 1m2.057 6.46c-.731 3.089-1.559 4.029-4.558 5.17-3.39 1.29-3.87 1.234-6.382-.742l-2.717-2.136-2.321 2.18-2.321 2.181 2.006 3.245c1.688 2.731 1.818 3.656.825 5.837-.978 2.145-.896 2.908.477 4.425C68.254 28.833 69 30.158 69 30.77c0 2.599-2.334 2.161-5.967-1.121-3.991-3.606-9.23-5.638-14.533-5.638-11.917 0-22.5 10.828-22.5 23.02 0 2.084.314 2.136 10.922 1.807 9.691-.3 11.192-.592 13.315-2.588 2.962-2.786 2.88-2.789 7.358.25 2.692 1.827 5.006 2.5 8.594 2.5h4.91l-.679-6c-.566-5.003-.425-6 .844-6C72.889 37 74 39.02 74 41.973c0 1.055.96 2.051 2.3 2.387 1.265.318 4.19 2.323 6.5 4.455 3.637 3.358 4.2 4.435 4.2 8.031 0 4.681 1.658 5.597 2.541 1.404.952-4.525 1.975-5.704 5.788-6.672 2.904-.737 4.005-.586 5.481.75 2.393 2.166 3.486 2.108 5.667-.302 1.699-1.878 1.702-2.104.054-4.62-1.166-1.778-1.534-3.639-1.126-5.68.841-4.208 2.357-5.726 5.717-5.726 2.61 0 2.878-.319 2.878-3.421 0-2.987-.38-3.504-2.999-4.079-5.21-1.144-8.096-8.517-4.501-11.5 2.023-1.679 1.887-3.34-.446-5.451-1.866-1.689-2.08-1.667-5.152.521l-3.206 2.283-3.589-1.927c-2.577-1.382-3.734-2.772-4.103-4.926-.427-2.496-1.039-3.051-3.646-3.305-2.884-.281-3.204-.004-4.026 3.47M78.4 24.4c-2.692 2.692-3.399 4.202-3.396 7.25.008 8.702 7.607 14.211 15.216 11.031 7.819-3.267 9.469-12.192 3.38-18.281-2.787-2.787-4.157-3.4-7.6-3.4-3.443 0-4.813.613-7.6 3.4M81 27c-2.511 2.511-2.647 8.107-.25 10.267 5.165 4.655 12.66 1.443 12.467-5.343C93.04 25.719 85.372 22.628 81 27M20 56.5V65h3.5c3.868 0 4.956-2.386 1.5-3.29-1.1-.287-2-1.24-2-2.116 0-.927.837-1.594 2-1.594 2.837 0 2.773-4.565-.074-5.309-1.141-.298-2.319-1.476-2.617-2.617C21.098 45.442 20 48.497 20 56.5m54.24-6.127C73.581 51.818 72.358 53 71.521 53c-.956 0-1.521.929-1.521 2.5 0 1.833.533 2.5 2 2.5 1.163 0 2 .667 2 1.594 0 .876-.9 1.829-2 2.116-3.11.814-2.452 3.29.875 3.29 2.394 0 2.975-.501 3.475-3 .604-3.02 3.041-4.089 3.991-1.75.694 1.711 2.628-1.048 2.628-3.75s-1.934-5.461-2.628-3.75c-.947 2.333-3.28 1.264-4.094-1.877l-.81-3.127-1.197 2.627M50 51c-2.571 1.407-5.558 1.927-11.25 1.958L31 53v7.343c0 9.2 2.736 15.068 8.575 18.391 4.828 2.747 12.207 2.981 16.725.529l3.2-1.736-4.5-.514c-3.105-.354-4.5-.978-4.5-2.013 0-1.155 1.544-1.568 6.715-1.795l6.716-.295 1.029-3.705c.566-2.038 1.031-6.517 1.034-9.955.006-6.152-.037-6.25-2.744-6.254-1.513-.002-4.223-.902-6.024-2-1.801-1.098-3.376-1.977-3.5-1.954-.124.023-1.801.904-3.726 1.958m-35.333 1.667c-1.042 1.041-.782 7.144.333 7.833.611.378 1-1.156 1-3.941 0-4.636-.15-5.075-1.333-3.892M39 61c0 2.459.383 3.073 1.75 2.81 1.104-.213 1.75-1.25 1.75-2.81s-.646-2.597-1.75-2.81C39.383 57.927 39 58.541 39 61m7.667-2.333c-1.202 1.201-.698 8.062.675 9.202 1.982 1.645 2.658.364 2.658-5.036 0-4.573-1.301-6.199-3.333-4.166m7.695.833c-.815 2.122.299 4.5 2.107 4.5C57.503 64 58 63.027 58 61c0-3.218-2.572-4.279-3.638-1.5m14.221 11.143c-.346.904-.414 1.859-.15 2.124.93.93 3.567-.723 3.567-2.236 0-2.047-2.621-1.961-3.417.112M43.381 88.155C44.198 92.238 45.717 94 48.422 94 51.497 94 53 92.129 53 88.3V85H42.75l.631 3.155M17.973 95.25c-3.326 5.411-4.415 10.743-4.445 21.75-.023 8.679.232 10.5 1.472 10.5 1.211 0 1.602-2.13 2.031-11.043.453-9.401.946-11.889 3.317-16.737 2.619-5.351 2.796-7.72.578-7.72-.525 0-1.854 1.463-2.953 3.25m28.693 7.177c-.702 1.831 1.856 4.155 2.834 2.574.824-1.334-.084-4.001-1.362-4.001-.508 0-1.17.642-1.472 1.427m-20.595 6.987c-.727.877-1.047 4.478-.863 9.728.245 7.006.571 8.389 2.042 8.67 1.567.3 1.75-.658 1.75-9.18 0-9.497-.747-11.847-2.929-9.218m42.596-.747c-.367.366-.667 4.899-.667 10.073 0 8.419.184 9.372 1.75 9.073 1.448-.276 1.802-1.627 2.049-7.812.399-10.001-.654-13.813-3.132-11.334M47 111c0 1.111.667 2 1.5 2s1.5-.889 1.5-2-.667-2-1.5-2-1.5.889-1.5 2m.238 6.162c-1.362 1.362-.479 3.838 1.369 3.838 1.498 0 1.943-3.542.553-4.401-.462-.286-1.327-.032-1.922.563" fill-rule="evenodd"/></svg>