<svg xmlns="http://www.w3.org/2000/svg" width="128" height="128"><path d="M36.453 3.261c-.273.711-.374 10.506-.224 21.766L36.5 45.5l12.75.28 12.75.28v67.862l-8.75.289-8.75.289-1.35 4.267C40.808 126.168 40.323 126 64 126s23.192.168 20.85-7.233L83.5 114.5l-8.75-.289-8.75-.289V46h12v3.845c0 2.575-.661 4.443-2 5.655-4.088 3.7-1.385 10.5 4.174 10.5 5.248 0 7.773-6.928 3.826-10.5-1.33-1.204-2-3.08-2-5.6v-3.79l4.75-.305 4.75-.305v-43l-27.275-.266c-21.575-.211-27.379.004-27.772 1.027M40 24v18h48V6H40v18m2.477-14.962c-1.248 2.018 1.126 3.09 6.133 2.772 3.542-.224 4.89-.724 4.89-1.81 0-1.872-9.926-2.738-11.023-.962m14.004-.008c-.388.629-.254 1.597.3 2.151 1.421 1.421 4.719.586 4.719-1.195 0-1.798-4.024-2.564-5.019-.956m21.965 50.057c-1.03 1.668 1.287 3.58 2.667 2.2C82.267 60.133 81.545 58 80 58c-.485 0-1.184.489-1.554 1.087m-30.755 59.556c-.38.38-.691 1.29-.691 2.024 0 1.059 3.512 1.333 17.073 1.333 15.722 0 17.047-.139 16.738-1.75-.301-1.566-2.023-1.779-16.383-2.024-8.826-.15-16.358.037-16.737.417" fill-rule="evenodd"/></svg>