<svg xmlns="http://www.w3.org/2000/svg" width="128" height="128"><path d="M25.241 3.995c-8.134 4.959-9.587 16.324-2.806 21.951 1.373 1.14 1.029 1.642-2.787 4.062C12.804 34.348 10 40.943 10 52.696V62H2v64h124V62h-8v-9.304c0-11.753-2.804-18.348-9.648-22.688-3.816-2.42-4.16-2.922-2.787-4.062 9.096-7.549 2.547-23.939-9.565-23.939s-18.661 16.39-9.565 23.939c1.374 1.141 1.043 1.634-2.684 4.004-2.338 1.486-4.87 3.87-5.628 5.297-1.207 2.275-1.671 2.461-3.766 1.506-2.356-1.073-2.363-1.119-.498-3.171 4.637-5.105 5.41-10.988 2.146-16.341-5.752-9.434-18.258-9.434-24.01 0-3.264 5.353-2.491 11.236 2.146 16.341 1.865 2.052 1.858 2.098-.498 3.171-2.095.955-2.559.769-3.766-1.506-.758-1.427-3.29-3.811-5.628-5.297-3.727-2.37-4.058-2.863-2.684-4.004.862-.715 2.212-2.548 3.001-4.074 6.006-11.613-8.138-24.698-19.325-17.877M25.4 9.4c-4.613 4.613-4.613 8.587 0 13.2 4.613 4.613 8.587 4.613 13.2 0 2.45-2.45 3.4-4.294 3.4-6.6 0-4.446-5.554-10-10-10-2.306 0-4.15.95-6.6 3.4m64 0c-4.613 4.613-4.613 8.587 0 13.2 4.613 4.613 8.587 4.613 13.2 0 2.45-2.45 3.4-4.294 3.4-6.6s-.95-4.15-3.4-6.6c-4.613-4.613-8.587-4.613-13.2 0m-32 8c-4.613 4.613-4.613 8.587 0 13.2 4.613 4.613 8.587 4.613 13.2 0 2.45-2.45 3.4-4.294 3.4-6.6s-.95-4.15-3.4-6.6c-4.613-4.613-8.587-4.613-13.2 0M24.168 32.146c-2.532 1.253-5.44 3.817-7 6.172-2.349 3.547-2.709 5.202-3.012 13.855L13.813 62H42v-5.398c0-4.064.741-6.808 2.998-11.099l2.998-5.699-2.005-2.816c-2.494-3.504-9.505-6.988-14.057-6.987-1.889 0-5.383.965-7.766 2.145m64.072-.093c-2.343 1.191-5.154 3.422-6.248 4.958l-1.988 2.793 2.998 5.699C85.259 49.794 86 52.538 86 56.602V62h28v-8.684c0-6.806-.459-9.632-2.121-13.066-4.257-8.794-15.081-12.547-23.639-8.197m-32.072 8.036c-6.016 3.057-9.442 8.55-9.981 16.001L45.76 62H82v-4.684c0-14.022-13.899-23.291-25.832-17.227M6 70v4h8v-8H6v4m12 0v4h8v-8h-8v4m12 0v4h8v-8h-8v4m12 0v4h8v-8h-8v4m12 0v4h8v-8h-8v4m12 0v4h8v-8h-8v4m12 0v4h8v-8h-8v4m12 0v4h8v-8h-8v4m12 0v4h8v-8h-8v4m12 0v4h8v-8h-8v4M6 94v16h32V78H6v16m36 0v16h44V78H42v16m48 0v16h32V78H90v16m-80 0c0 6.05.229 11 .508 11C11.694 105 29 94.705 29 94c0-.705-17.306-11-18.492-11-.279 0-.508 4.95-.508 11m44 0c0 6.05.229 11 .508 11C55.694 105 73 94.705 73 94c0-.705-17.306-11-18.492-11-.279 0-.508 4.95-.508 11m44 0c0 6.05.229 11 .508 11C99.694 105 117 94.705 117 94c0-.705-17.306-11-18.492-11-.279 0-.508 4.95-.508 11m-84 0c0 2.292.338 4.002.75 3.801C19.489 95.492 21 94.573 21 94s-1.511-1.492-6.25-3.801C14.338 89.998 14 91.708 14 94m44 0c0 2.292.337 4.002.75 3.801C63.489 95.492 65 94.573 65 94s-1.511-1.492-6.25-3.801C58.337 89.998 58 91.708 58 94m44 0c0 2.292.338 4.002.75 3.801C107.489 95.492 109 94.573 109 94s-1.511-1.492-6.25-3.801c-.412-.201-.75 1.509-.75 3.801M6 118v4h8v-8H6v4m12 0v4h8v-8h-8v4m12 0v4h8v-8h-8v4m12 0v4h8v-8h-8v4m12 0v4h8v-8h-8v4m12 0v4h8v-8h-8v4m12 0v4h8v-8h-8v4m12 0v4h8v-8h-8v4m12 0v4h8v-8h-8v4m12 0v4h8v-8h-8v4" fill-rule="evenodd"/></svg>