<svg xmlns="http://www.w3.org/2000/svg" width="128" height="128"><path d="M48.686 6.648C48.309 7.025 48 17.833 48 30.667V54h31.393c27.704 0 31.464-.186 32-1.582.792-2.063.792-42.773 0-44.836-.472-1.231-2.137-1.582-7.5-1.582C97.667 6 97 6.193 97 8c0 1.632.667 2 3.622 2 3.107 0 3.446.214 2.378 1.5-1.837 2.213-45.146 2.234-46.981.022-1.073-1.293 1.128-1.511 17.627-1.75C89.617 9.542 92.5 9.271 92.5 8c0-1.279-3.182-1.54-21.564-1.769-11.861-.148-21.873.04-22.25.417m56.969 8.181C104.287 16.341 104 19 104 30.174c0 12.246.188 13.686 2 15.326 1.993 1.803 2 1.747 2-15.345 0-9.435-.155-17.155-.345-17.155-.19 0-1.09.823-2 1.829m-99.113.421C5.582 18.284 0 43.317 0 44.589 0 45.678 1.709 46 7.5 46H15v64.841l-2.896.636c-3.721.817-6.14 3.521-6.399 7.152L5.5 121.5l11.769.282c13.302.319 14.378-.268 11.033-6.017-1.335-2.293-3.006-3.542-5.615-4.195l-3.714-.929.263-32.071.264-32.07 2.25-.32c2.222-.315 2.25-.176 2.25 11.25C24 68.333 24.115 69 26 69c1.884 0 2-.667 2-11.5V46h3.5c1.925 0 3.5-.39 3.5-.866 0-1.016-4.65-21.93-6.088-27.384L27.923 14H17.43c-7.517 0-10.605.355-10.888 1.25M52 30.5c0 14.771.177 16.598 1.5 15.5 1.205-1 1.5-4.049 1.5-15.5S54.705 16 53.5 15c-1.323-1.098-1.5.729-1.5 15.5m7-4.297v9.203l3.792-3.703C64.878 29.666 67.138 28 67.815 28c.676 0 3.254 1.866 5.729 4.147l4.498 4.147 5.563-6.147c6.428-7.103 8.363-7.539 13.097-2.951L100 30.392V17H59v9.203M9.603 19.75C8.759 22.526 5 39.872 5 40.989 5 41.616 9.746 42 17.5 42c7.508 0 12.5-.392 12.5-.981 0-.54-1.163-5.94-2.584-12L24.832 18h-7.348c-6.13 0-7.437.29-7.881 1.75M74 21c-1.1 1.1-2 2.675-2 3.5 0 2.09 3.624 5.5 5.845 5.5C80.209 30 83 26.928 83 24.326 83 21.951 80.048 19 77.671 19c-.919 0-2.571.9-3.671 2m2.694 2.639c-.799.799.104 2.361 1.365 2.361.518 0 .941-.675.941-1.5 0-1.546-1.18-1.987-2.306-.861m8.873 10.015c-6.695 7.523-5.921 8.744 5.789 9.135l8.644.289v-3.099c0-3.164-6.298-12.039-8.462-11.924-.571.031-3.258 2.55-5.971 5.599M63.25 36.936c-2.337 2.714-4.25 5.189-4.25 5.5 0 .31 4.337.564 9.637.564h9.637l-4.868-5.25c-2.677-2.888-5.101-5.362-5.387-5.499-.285-.138-2.431 1.971-4.769 4.685M56 48.5c-1.101 1.326 1.618 1.5 23.5 1.5s24.601-.174 23.5-1.5c-1.852-2.232-45.148-2.232-47 0M43.106 68.564c-2.998 2.523-5.089 7.592-5.1 12.363-.004 1.511-1.233 3.451-3.256 5.139l-3.25 2.711V121.5H62c26.444 0 30.5-.199 30.5-1.5 0-1.278-3.148-1.54-21.25-1.77L50 117.96V104h60v14h-6.5c-5.861 0-6.5.199-6.5 2.026 0 1.958.51 2.017 15.25 1.75l15.25-.276.276-15.857.276-15.858-3.526-3.325C121.76 83.851 121 82.358 121 79.535c0-5.268-2.408-10.178-5.872-11.969C112.619 66.269 107.872 66 87.476 66c-22.912 0-24.599.122-24.286 1.75.308 1.602 2.43 1.773 25.014 2.017l24.678.268 2.059 2.617c2.968 3.773 2.86 10.851-.191 12.476-3.647 1.943-4.684 4.059-4.718 9.622L110 100H50l-.004-4.25c-.004-4.866-2.846-10.25-5.927-11.228-2.371-.753-2.736-4.31-.964-9.394C44.45 71.272 46.619 70 51.852 70 56.801 70 59 69.198 59 67.393 59 66.347 57.4 66 52.577 66c-5.436 0-6.892.394-9.471 2.564m-6.451 21.265c-1.364 1.507-1.655 4.147-1.655 15V118h11v-12.777c0-9.947-.345-13.27-1.557-15-1.888-2.696-5.538-2.881-7.788-.394M115.2 89.2c-.817.817-1.2 5.6-1.2 15V118h10v-13.429c0-10.874-.299-13.727-1.571-15-1.865-1.865-5.546-2.054-7.229-.371M11 116.5c-1.088 1.311-.271 1.5 6.5 1.5s7.588-.189 6.5-1.5c-.818-.985-3.049-1.5-6.5-1.5s-5.682.515-6.5 1.5" fill-rule="evenodd"/></svg>