<svg xmlns="http://www.w3.org/2000/svg" width="128" height="128"><path d="M4 43.54C4 85.106 3.909 87.257 2 91c-2.401 4.706-2.501 6-.466 6 .843 0 2.463-1.575 3.599-3.5C6.726 90.799 7.85 90 10.054 90h2.856l-2.333 6.25C1.884 119.532-.2 126.2.879 127.279c.707.707 1.467.77 2.058.171.516-.522 3.626-8.375 6.913-17.45 3.286-9.075 6.287-17.287 6.669-18.25.569-1.433 1.958-1.75 7.655-1.75 6.154 0 6.903.203 6.458 1.75-.276.962-2.156 9.103-4.177 18.09-2.693 11.973-3.378 16.637-2.565 17.45.7.7 1.453.759 2.039.16.693-.709 9.071-34.958 9.071-37.082 0-.203 3.64-.368 8.088-.368h8.088l-.549 3.75c-1.689 11.535-2.774 32.503-1.735 33.542 2.147 2.147 2.963-.842 4.04-14.792.594-7.7 1.33-15.912 1.635-18.25l.556-4.25h17.754l.556 4.25c.305 2.338 1.041 10.55 1.635 18.25 1.077 13.95 1.893 16.939 4.04 14.792 1.039-1.039-.046-22.007-1.735-33.542L76.824 90h8.088c4.448 0 8.088.165 8.088.368 0 2.124 8.378 36.373 9.071 37.082.586.599 1.339.54 2.039-.16.813-.813.128-5.477-2.565-17.45-2.021-8.987-3.901-17.128-4.177-18.09-.445-1.547.304-1.75 6.458-1.75 5.697 0 7.086.317 7.655 1.75.382.963 3.383 9.175 6.669 18.25 3.287 9.075 6.378 16.908 6.87 17.408 1.115 1.13 3.98-1.094 3.98-3.089 0-.791-.37-1.209-.821-.929-.452.279-2.528-4.307-4.613-10.191-2.085-5.885-4.845-13.511-6.134-16.949L115.09 90h2.856c2.215 0 3.329.802 4.964 3.572 2.26 3.83 5.286 4.366 5.925 1.048.196-1.021-.062-1.598-.574-1.281-.512.316-1.681-.996-2.596-2.916-1.41-2.957-1.665-7.169-1.665-27.53 0-22.356-.123-24.016-1.75-23.703-1.597.307-1.773 2.362-2.018 23.573L119.963 86h-5.939l-.262-37.75-.262-37.75h-99l-.285 10.83c-.261 9.939-.137 10.802 1.5 10.489 1.524-.292 1.827-1.622 2.074-9.08L18.078 14H110v18.622c0 16.148-.193 18.463-1.449 17.42-2.837-2.354-3.816-7.697-2.645-14.424 1.508-8.661 1.428-9.375-1.361-12.163-3.006-3.007-6.416-3.131-9.936-.362-2.659 2.091-2.66 2.099-1.999 12.313.47 7.27.307 10.88-.562 12.505l-1.223 2.284-1.542-2.201c-1.267-1.809-1.419-4.037-.854-12.479l.689-10.277-2.694-2.119c-3.552-2.794-6.955-2.679-9.969.336-2.789 2.788-2.869 3.502-1.361 12.163.816 4.685.796 7.185-.078 9.832-2.565 7.775-5.573 2.231-4.546-8.38.403-4.164.709-8.47.68-9.57-.065-2.428-4.544-6.5-7.15-6.5-2.606 0-7.085 4.072-7.15 6.5-.029 1.1.277 5.406.68 9.57 1.027 10.611-1.981 16.155-4.546 8.38-.874-2.647-.894-5.147-.078-9.832 1.508-8.661 1.428-9.375-1.361-12.163-3.014-3.015-6.417-3.13-9.969-.336l-2.694 2.119.689 10.277c.565 8.442.413 10.67-.854 12.479l-1.542 2.201-1.223-2.284c-.869-1.625-1.032-5.235-.562-12.505.661-10.214.66-10.222-1.999-12.313-3.556-2.797-6.936-2.639-10.044.469-2.396 2.396-2.508 2.93-1.727 8.25 1.328 9.051 1.021 13.57-1.141 16.765L18.5 51.5l-.5-7c-.381-5.333-.857-7-2-7-1.285 0-1.538 3.48-1.768 24.25L13.964 86H8V4h111.947l.276 14.737c.246 13.113.47 14.775 2.027 15.074 1.611.309 1.75-1.016 1.75-16.738V0H4v43.54m22.096-17.155c-.861 1.036-.869 3.195-.034 8.577 1.036 6.676.903 9.359-.665 13.445-.484 1.262.086 1.593 2.746 1.592l3.357-.002-.006-11.248c-.003-6.187-.367-11.811-.809-12.499-1.06-1.649-3.16-1.588-4.589.135m18.219-.135c-.442.688-.806 6.312-.809 12.499L43.5 49.997l3.357.002c2.789.001 3.242-.295 2.68-1.749-1.548-4.001-1.701-7.489-.605-13.783.882-5.063.88-6.989-.009-8.06-1.446-1.742-3.544-1.814-4.608-.157m17.206-.284c-.367.594-.369 5.007-.003 9.807.413 5.428.261 9.766-.402 11.477C60.063 49.966 60.099 50 64 50c3.888 0 3.934-.043 2.914-2.726-.57-1.5-.897-7.012-.725-12.25.297-9.105.216-9.538-1.845-9.831-1.185-.169-2.456.179-2.823.773m17.556.441c-.889 1.071-.891 2.997-.009 8.06 1.096 6.294.943 9.782-.605 13.783-.562 1.454-.109 1.75 2.68 1.749l3.357-.002-.006-11.248c-.003-6.187-.367-11.811-.809-12.499-1.064-1.657-3.162-1.585-4.608.157m18.238-.157c-.442.688-.806 6.312-.809 12.499L96.5 49.997l3.357.002c2.789.001 3.242-.295 2.68-1.749-1.548-4.001-1.701-7.489-.605-13.783.882-5.063.88-6.989-.009-8.06-1.446-1.742-3.544-1.814-4.608-.157m-77.34 29.797c-1.06 1.981-.877 2.038 5.704 1.75 5.54-.242 6.862-.621 7.134-2.047.288-1.51-.493-1.75-5.704-1.75-5.061 0-6.216.331-7.134 2.047M38.2 55.2c-2.243 2.243-1.209 2.8 5.193 2.8C49.396 58 51 57.245 51 54.418c0-1.013-11.721-.297-12.8.782m17.032.8c-1.218 1.95-.999 2 8.768 2 9.767 0 9.986-.05 8.768-2-1.069-1.712-2.332-2-8.768-2-6.436 0-7.699.288-8.768 2m22.161-.418c.334.87.607 1.77.607 2 0 .23 2.925.418 6.5.418s6.5-.36 6.5-.8c0-2.08-2.906-3.2-8.307-3.2-4.976 0-5.811.249-5.3 1.582m17.794.168c.272 1.426 1.594 1.805 7.134 2.047 6.581.288 6.764.231 5.704-1.75-.918-1.716-2.073-2.047-7.134-2.047-5.211 0-5.992.24-5.704 1.75m-77.181 9.5c.003 1.787.474 4.938 1.047 7L20.094 76h12.975l-.723-5.25c-.397-2.888-.734-6.037-.749-7-.022-1.492-1.025-1.75-6.811-1.75H18l.006 3.25m17.626-2.464c-.267.433.044 3.47.691 6.75L37.5 75.5l6.871.298 6.87.299-.64-2.549c-.352-1.402-.917-4.574-1.256-7.049L48.728 62h-6.305c-3.468 0-6.524.354-6.791.786M53 63.924c0 1.058.527 4.208 1.172 7L55.343 76h17.314l1.171-5.076C75.992 61.549 76.488 62 64 62c-10.188 0-11 .142-11 1.924m25.655 2.575c-.339 2.475-.904 5.647-1.256 7.049l-.64 2.549 6.87-.299L90.5 75.5l1.177-5.964c.647-3.28.958-6.317.691-6.75-.267-.432-3.323-.786-6.791-.786h-6.305l-.617 4.499m17.731-2.749c-.024.963-.387 4.112-.808 7L94.812 76h13.094l1.041-3.75c.573-2.062 1.044-5.213 1.047-7L110 62h-6.786c-5.779 0-6.792.259-6.828 1.75M18 83v3h92v-6H18v3M.079 95.583c.048 1.165.285 1.402.604.605.289-.722.253-1.585-.079-1.917-.332-.332-.568.258-.525 1.312m0 30c.048 1.165.285 1.402.604.605.289-.722.253-1.585-.079-1.917-.332-.332-.568.258-.525 1.312" fill-rule="evenodd"/></svg>