<svg xmlns="http://www.w3.org/2000/svg" width="128" height="128"><path d="M22.688 6.646C22.309 7.024 22 23.233 22 42.667c0 34-.075 35.408-2 37.333-1.1 1.1-2 3.05-2 4.332 0 1.599-1.179 3.093-3.75 4.75C9.843 91.923 6 98.873 6 104c0 1.967 1.012 5.58 2.25 8.03 6.629 13.123 24.871 13.123 31.5 0 1.237-2.45 2.25-6.063 2.25-8.03 0-5.127-3.843-12.077-8.25-14.918-2.571-1.657-3.75-3.151-3.75-4.75 0-1.282-.894-3.226-1.987-4.319-1.899-1.899-1.999-3.584-2.25-37.667-.251-34.056-.605-38.17-3.075-35.7M49 24.772c0 17.648-.134 19.04-2 20.728-1.107 1.002-2 3.08-2 4.655C45 51.72 44.566 53 44.035 53c-1.605 0-8.039 6.107-9.586 9.099-1.848 3.573-1.869 12.196-.038 15.701 4.822 9.23 14.99 12.605 24.339 8.079 12.311-5.96 13.289-23.747 1.7-30.91-2.395-1.48-3.45-2.872-3.45-4.551 0-1.33-.89-3.308-1.978-4.396-1.808-1.808-2.001-3.587-2.25-20.737C52.526 8.34 52.331 6.493 50.75 6.19 49.133 5.879 49 7.293 49 24.772M75.667 6.667c-.367.366-.667 16.566-.667 36 0 34-.075 35.408-2 37.333-1.1 1.1-2 3.088-2 4.418 0 1.679-1.055 3.071-3.45 4.551-11.589 7.163-10.611 24.95 1.7 30.91 9.349 4.526 19.517 1.151 24.339-8.079 1.831-3.505 1.81-12.128-.038-15.701C92.004 93.107 85.57 87 83.965 87c-.531 0-.965-1.28-.965-2.845 0-1.575-.893-3.653-2-4.655-1.929-1.746-2-3.08-2-37.655C79 12.641 78.753 6 77.667 6c-.734 0-1.634.3-2 .667m27.021-.021c-.379.378-.688 8.937-.688 19.021 0 17-.145 18.478-2 20.333-1.1 1.1-2 3.05-2 4.332 0 1.599-1.179 3.093-3.75 4.75-4.486 2.892-8.25 9.814-8.25 15.17 0 12.839 14.379 21.678 25.79 15.854 12.63-6.446 13.686-23.392 1.933-31.024-2.542-1.65-3.723-3.157-3.723-4.75 0-1.282-.89-3.222-1.978-4.31-1.807-1.807-2.001-3.587-2.25-20.667-.256-17.57-.817-20.976-3.084-18.709M60.446 17.087c-1.03 1.668 1.287 3.58 2.667 2.2C64.267 18.133 63.545 16 62 16c-.485 0-1.184.489-1.554 1.087m-50.132 4.821c-.274 1.049-1.357 2.132-2.406 2.406-2.462.644-2.462 2.728 0 3.372 1.049.274 2.132 1.357 2.406 2.406C10.588 31.142 11.347 32 12 32s1.412-.858 1.686-1.908c.274-1.049 1.357-2.132 2.406-2.406C17.142 27.412 18 26.653 18 26s-.858-1.412-1.908-1.686c-1.049-.274-2.132-1.357-2.406-2.406C13.412 20.858 12.653 20 12 20s-1.412.858-1.686 1.908m74.132 25.179c-1.03 1.668 1.287 3.58 2.667 2.2C88.267 48.133 87.545 46 86 46c-.485 0-1.184.489-1.554 1.087m-34.779 1.58C48.29 50.043 49.073 52 51 52c2.202 0 2.273-.124 1.393-2.418-.644-1.679-1.631-2.01-2.726-.915m53.021-.021c-1.416 1.415-.615 3.354 1.385 3.354 1.398 0 1.968-.543 1.75-1.667-.357-1.841-2.064-2.759-3.135-1.687M45.5 57.412c-1.65.733-4.125 2.552-5.5 4.041-2.074 2.246-2.5 3.707-2.5 8.562 0 5.104.373 6.244 2.915 8.896 5.676 5.925 13.845 6.451 19.413 1.249 7.128-6.658 5.481-18.413-3.154-22.511-4.152-1.97-7.134-2.033-11.174-.237m52.571.286c-12.335 6.483-9.242 24.243 4.516 25.928 7.309.894 14.11-4.628 15.039-12.213 1.277-10.431-10.323-18.568-19.555-13.715M22.688 82.646C21.272 84.061 22.073 86 24.073 86c1.398 0 1.968-.543 1.75-1.667-.357-1.841-2.064-2.759-3.135-1.687m52.935.894c-.901 2.348-.835 2.46 1.45 2.46 1.398 0 1.968-.543 1.75-1.667-.442-2.283-2.438-2.778-3.2-.793m-57.552 8.158c-12.335 6.483-9.242 24.243 4.516 25.928 7.309.894 14.11-4.628 15.039-12.213 1.277-10.431-10.323-18.568-19.555-13.715m53.093-.009c-8.498 4.187-10.054 15.875-2.992 22.471 5.568 5.202 13.737 4.676 19.413-1.249 2.542-2.652 2.915-3.792 2.915-8.896 0-4.864-.423-6.306-2.5-8.529-5.177-5.541-10.747-6.797-16.836-3.797m37.524 4.957c-.379.378-.688 1.707-.688 2.954 0 1.73-.652 2.342-2.75 2.584-3.616.416-3.662 3.211-.061 3.627 2.079.24 2.76.921 3 3 .184 1.585.926 2.689 1.811 2.689.885 0 1.627-1.104 1.811-2.689.24-2.079.921-2.76 3-3 1.585-.184 2.689-.926 2.689-1.811 0-.885-1.104-1.627-2.689-1.811-2.054-.237-2.763-.928-3-2.922-.312-2.623-1.84-3.905-3.123-2.621m-60.242 4.441c-1.03 1.668 1.287 3.58 2.667 2.2C52.267 102.133 51.545 100 50 100c-.485 0-1.184.489-1.554 1.087" fill-rule="evenodd"/></svg>