<svg xmlns="http://www.w3.org/2000/svg" width="128" height="128"><path d="M83.265 1.542c-6.94 1.869-13.731 5.388-20.074 10.401-5.13 4.055-6.67 7.057-3.62 7.057.863 0 3.676-1.751 6.25-3.892 11.678-9.713 26.428-13.302 39.145-9.525 7.411 2.2 15.251 10.04 17.451 17.451 2.878 9.69 1.36 21.025-4.2 31.372-4.424 8.233-14.506 17.685-23.665 22.187-7.718 3.794-8.255 3.907-18.5 3.907-8.916 0-11.172-.335-14.552-2.162-5.479-2.962-9.98-7.892-12.58-13.78-4.223-9.559-2.162-25.55 4.612-35.785 2.921-4.414 3.09-5.774.718-5.771-2.291.002-6.535 6.855-9.231 14.905-1.562 4.663-2.206 9.291-2.366 17-.197 9.476-.542 11.278-3.277 17.093-3.266 6.945-7.801 13-9.736 13-.65 0-5.213 4.05-10.14 9-7.638 7.673-9.441 9-12.229 9C3.251 103 0 106.004 0 109.719c0 2.076 1.876 4.563 7.918 10.5 4.41 4.334 8.78 7.781 9.865 7.781 3.467 0 7.217-3.816 7.217-7.343 0-2.698 1.41-4.602 9-12.157 4.95-4.927 9-9.61 9-10.406 0-.797 1.462-2.682 3.25-4.189 2.605-2.197 3.003-2.993 2.007-4.016-1.005-1.031-1.812-.855-4.21.918-3.705 2.739-4.193 2.731-6.873-.121-2.739-2.916-2.721-3.28.355-7.313 1.391-1.823 3.803-6.009 5.36-9.302l2.832-5.988 3.069 4.274c1.688 2.35 4.948 5.575 7.245 7.167l4.177 2.895-3.062 1.04c-4.029 1.37-5.868 3.223-4.527 4.564.697.697 2.273.489 4.95-.655 2.528-1.08 8.379-1.93 16.427-2.386 17.779-1.008 26.92-4.918 38.134-16.31C122.517 58.123 127.5 46.524 127.5 32.899c0-7.856-.303-9.195-3.5-15.462-7.377-14.462-23.172-20.625-40.735-15.895m-.357 12.348c-18.839 7.371-32.281 28.993-27.854 44.804 1.957 6.989 8.087 12.747 15.287 14.358 10.488 2.347 23.173-2.443 33.313-12.578 7.038-7.035 11.503-16.094 12.117-24.583.77-10.649-2.776-17.812-10.857-21.935-4.982-2.541-15.597-2.573-22.006-.066m4.682 2.965c-.291.47.499 1.819 1.754 2.999l2.283 2.144 2.874-2.999L97.374 16h-4.628c-2.545 0-4.866.385-5.156.855m10.894 4.161-3.922 4.017 4.203 4.202 4.202 4.203 3.964-3.871c3.786-3.696 3.901-3.991 2.567-6.57-1.142-2.208-5.412-5.997-6.76-5.997-.183 0-2.097 1.807-4.254 4.016m-22.789 1.295-4.656 3.311 4.27 4.191 4.271 4.191 4.407-4.491 4.408-4.491-2.885-3.011C83.924 20.355 82.114 19 81.489 19s-3.232 1.49-5.794 3.311m11.294 10.201-4.432 4.515 4.222 4.223 4.223 4.222 4.513-4.514 4.514-4.513-4.304-4.225-4.305-4.224-4.431 4.516m-20.668-1.293c-1.148 1.254-2.792 3.677-3.654 5.384-1.536 3.043-1.504 3.162 1.678 6.247l3.244 3.144 4.427-4.511 4.427-4.51-4.018-4.018-4.017-4.018-2.087 2.282m42.248 1.699-2.93 3.069 2.367 2.52c3.034 3.229 4.197 2.023 3.804-3.943l-.31-4.715-2.931 3.069m-10.57 10.583-4.442 4.526 4.28 4.237 4.281 4.236 2.36-2.916c5.149-6.358 5.271-7.302 1.434-11.139l-3.471-3.47-4.442 4.526m-23.01 1.011-4.432 4.515 4.222 4.223 4.223 4.222 4.513-4.514 4.514-4.513-4.304-4.225-4.305-4.224-4.431 4.516m-16.364 2.613c-.344 1.719-.625 4.282-.625 5.696v2.571l3.495-3.387 3.495-3.387-2.17-2.309c-2.85-3.035-3.448-2.919-4.195.816m27.383 8.367-4.412 4.496 3.369 3.476 3.369 3.476 3.857-2.167c7.14-4.013 7.351-4.824 2.501-9.584l-4.272-4.193-4.412 4.496m-22.305.3C61.666 57.878 60 60.074 60 60.674 60 62.086 66.044 68 67.487 68c.609 0 2.865-1.8 5.013-4l3.906-4-3.906-4c-2.148-2.2-4.173-4-4.5-4-.327 0-2.26 1.706-4.297 3.792M75.51 65.99c-1.575 1.644-2.588 3.265-2.251 3.602.818.819 10.741-.578 10.741-1.512 0-.799-4.321-5.08-5.127-5.08-.275 0-1.788 1.345-3.363 2.99M27.675 90.807c-1.536 1.697-1.344 2.094 3.161 6.532l4.797 4.724 1.864-2.06c1.838-2.03 1.802-2.123-2.525-6.531C32.559 91.012 30.297 89 29.947 89c-.35 0-1.373.813-2.272 1.807m60.867.468c-2.178 1.233-5.312 4.167-6.966 6.521-5.858 8.335-3.475 20.47 5.228 26.619 14.539 10.271 34.699-3.538 30.146-20.65-3.332-12.526-17.415-18.717-28.408-12.49m1.869 3.616C86.974 96.987 83 101.605 83 103.503c0 .691 1.831 1.479 4.163 1.792 7.279.976 12.888 6.759 13.793 14.222l.544 4.489 3.48-1.753c3.382-1.704 8.02-7.335 8.02-9.739 0-.675-1.562-1.249-3.613-1.326C101.881 110.906 95 104.049 95 96.852c0-4.4-.346-4.548-4.589-1.961M99 96.05c0 7.325 5.363 11.846 13.18 11.108 1.4-.132 1.529-.686.774-3.318-1.052-3.668-4.305-7.432-8.154-9.435-4.3-2.237-5.8-1.811-5.8 1.645m-81.512 4.962-4.937 5.013 4.725 4.725 4.725 4.725 5.223-5.222 5.222-5.223-4.431-4.515C25.578 98.032 23.323 96 23.004 96c-.318 0-2.801 2.256-5.516 5.012m-13.164 7.585c-.856 2.232 12.847 15.935 15.079 15.079 2.986-1.146 1.609-4.221-4.68-10.455-6.317-6.261-9.267-7.573-10.399-4.624m78.434.978c-1.011 1.011 1.116 6.66 3.468 9.214 2.16 2.345 7.518 5.211 9.742 5.211 1.567 0 1.233-5.711-.534-9.128-2.053-3.969-10.482-7.491-12.676-5.297" fill-rule="evenodd"/></svg>