<svg xmlns="http://www.w3.org/2000/svg" width="128" height="128"><path d="M105.39 1.427c-.968 2.522.057 6.043 1.86 6.386 1.435.274 1.75-.4 1.75-3.74C109 1.082 108.593 0 107.469 0c-.843 0-1.778.642-2.079 1.427M92.372 6.474C91.608 8.465 94.668 12 97.155 12c2.332 0 2.383-2.228.095-4.193-3.123-2.682-4.243-2.988-4.878-1.333m25.259 1.39c-2.234 2.331-2.469 3.026-1.339 3.963 1.068.886 1.965.514 4.077-1.691 2.234-2.331 2.469-3.026 1.339-3.963-1.068-.886-1.965-.514-4.077 1.691m-14.243 3.116c-6.623 2.676-8.521 12.041-3.465 17.097 5.529 5.528 15.896 2.576 17.56-5 .984-4.48-1.766-9.88-5.915-11.613-3.927-1.641-5.139-1.713-8.18-.484M105 14.694c-4.083 1.459-5.367 7.759-2.171 10.651 3.74 3.385 9.502 1.478 10.712-3.545.504-2.093.078-3.272-1.9-5.25-2.535-2.535-3.773-2.881-6.641-1.856m-65.844 3.435C26.414 19.676 11.813 29.578 5.691 40.826.914 49.603-1.79 66.625.914 70.896c1.434 2.264 3.925.479 4.268-3.057.639-6.588 9.229-7.812 12.358-1.761 1.947 3.764 3.689 3.346 4.599-1.104 1.591-7.776 9.047-8.033 13.423-.461C36.908 66.842 39 65.655 39 62.563c0-2.077 2.55-5.44 3.379-4.456.181.216.888 3.993 1.57 8.393.681 4.4 1.478 9.237 1.77 10.75L46.25 80H23.052C1.497 80-.123 80.124.19 81.75c.307 1.597 2.359 1.773 23.515 2.018l23.178.269.679 4.527c.373 2.491.471 4.736.217 4.991-.255.254-3.107-.871-6.339-2.502-7.705-3.886-14.41-4.689-22.295-2.669-3.386.868-7.392 2.342-8.901 3.275C6.153 94.19 0 100.223 0 101.703c0 2.26 2.601 1.41 6.269-2.05 7.191-6.781 16.885-9.593 26.322-7.634 4.424.918 8.416 3.04 18.027 9.581 6.79 4.621 14.266 9.176 16.614 10.123 7.238 2.918 23.007 1.423 24.443-2.319.962-2.507-.278-2.67-7.161-.944-8.914 2.235-14.822.987-24.227-5.117-6.481-4.207-7.124-4.934-7.706-8.716-.349-2.27-.898-5.59-1.219-7.377L50.777 84h37.912c38.021 0 40.31-.196 40.311-3.45.001-.72-12.406-.964-39.5-.777-21.725.149-39.504-.076-39.509-.5-.005-.425-.837-5.611-1.849-11.523C46.698 59.318 46.577 57 47.579 57 49.295 57 52 59.797 52 61.571c0 .786.9 1.429 2 1.429 1.531 0 2-.667 2-2.845C56 56.561 58.777 54 62.674 54 65.592 54 69 56.543 69 58.722c0 1.255 2.539 2.406 3.402 1.542.329-.328.598-1.647.598-2.931C73 54.145 76.4 51 79.845 51c2.882 0 5.315 1.995 6.504 5.333 1.1 3.092 3.16 1.24 3.033-2.727-.194-6.082-6.625-17.713-13.031-23.568-10.843-9.91-22.612-13.678-37.195-11.909m47.503 1.614c-1.126 1.821 1.147 3.396 4.446 3.081 4.8-.458 4.6-3.224-.262-3.629-2.012-.167-3.894.079-4.184.548m33.531 1.007c.244 1.266 1.298 1.75 3.81 1.75s3.566-.484 3.81-1.75c.277-1.439-.399-1.75-3.81-1.75s-4.087.311-3.81 1.75m-82.549 3.46c-.773 2.885-.836 27.118-.076 29.099.497 1.294.931 1.29 3.574-.028 1.779-.888 4.206-1.262 5.935-.916 3.426.685 3.456.521 1.374-7.721-2.316-9.174-6.295-19.196-8.364-21.068-1.719-1.555-1.867-1.517-2.443.634m10.932 7.54c1.814 4.813 3.843 11.48 4.509 14.817l1.212 6.067 3.603-1.839c2.293-1.171 4.609-1.619 6.371-1.234l2.769.606-2.068-5.334c-1.138-2.933-3.678-7.698-5.645-10.589C55.857 29.148 48.813 23 46.441 23c-.725 0 .081 3.308 2.132 8.75m10.148-4.437c4.557 4.944 8.273 11.114 10.781 17.9l1.741 4.713 2.829-1.463C75.628 47.658 78.273 47 79.95 47c3.605 0 3.604.006 1.091-4.92-2.91-5.704-10.242-12.525-17.203-16.003-8.532-4.264-9.885-3.937-5.117 1.236M28.567 28.5c-1.468 1.926-3.327 5.076-4.132 7-.804 1.925-1.92 3.5-2.48 3.5-2.039 0-2.121-3.087-.186-6.997C22.858 29.801 23.533 28 23.268 28c-1.751 0-9.196 7.368-12.305 12.179-3.527 5.456-7.923 18.195-6.701 19.416.312.312 1.57.03 2.797-.626 1.226-.657 3.964-.961 6.085-.676L17 58.81v-5.823c0-6.732.654-8.987 2.607-8.987C20.665 44 21 45.687 21 51.023v7.023l2.516-1.648c1.83-1.199 3.624-1.471 6.585-.998l4.069.651-.664-3.025c-.366-1.664-.674-8.65-.685-15.526-.01-6.875-.371-12.5-.801-12.5-.431 0-1.984 1.575-3.453 3.5m65.607 2.814C91.722 33.925 91.346 36 93.326 36c1.908 0 6.006-4.653 5.22-5.926-.989-1.6-1.963-1.324-4.372 1.24M116 30.845c0 1.978 2.94 5.155 4.77 5.155 2.13 0 2.189-1.782.144-4.382-2.391-3.04-4.914-3.436-4.914-.773m-10.574 3.487c-1.013 2.639-.018 7.168 1.574 7.168 1.078 0 1.5-1.102 1.5-3.917 0-3.966-1.991-6.072-3.074-3.251M.079 81.583c.048 1.165.285 1.402.604.605.289-.722.253-1.585-.079-1.917-.332-.332-.568.258-.525 1.312m82.107 9.144c.311 1.617 1.881 1.773 17.828 1.773 14.876 0 17.486-.224 17.486-1.5 0-1.267-2.769-1.542-17.828-1.773-16.612-.255-17.804-.153-17.486 1.5M71.704 96.63c-.387.387-.704 1.303-.704 2.037C71 99.68 73.179 100 80.073 100c8.102 0 9.038-.187 8.739-1.75-.279-1.464-1.647-1.797-8.369-2.037-4.42-.158-8.352.029-8.739.417m30.462 6.432c-4.671 1.872-1.767 3.272 6.964 3.356 7.571.073 8.985.392 12.729 2.869 4.11 2.721 6.141 2.843 6.141.37 0-1.331-4.689-4.459-9.489-6.331-3.62-1.411-13.1-1.564-16.345-.264M39 104.5c0 .833.889 1.5 2 1.5s2-.667 2-1.5-.889-1.5-2-1.5-2 .667-2 1.5m-31.361 2.194C6.444 107.889 6.994 110 8.5 110c.825 0 1.5-.648 1.5-1.441 0-1.671-1.427-2.798-2.361-1.865m103.534 8.965c.421 2.189 3.327 2.498 3.327.355 0-.818-.828-1.646-1.841-1.841-1.336-.257-1.743.15-1.486 1.486m-77.996 2.894c.452 2.172 2.227 2.305 2.633.197.21-1.095-.28-1.75-1.31-1.75-.961 0-1.512.647-1.323 1.553m56.168 6.99c-.754 1.966.138 2.869 2.095 2.118.879-.337 1.276-1.238.936-2.123-.758-1.976-2.272-1.973-3.031.005" fill-rule="evenodd"/></svg>