<svg xmlns="http://www.w3.org/2000/svg" width="128" height="128"><path d="M117.618 6.131c-11.194 5.717-28.983 11.36-44.118 13.995-10.859 1.89-16.376 2.246-33.5 2.159-12.87-.065-23.85-.653-29.5-1.581C1.121 19.163 0 19.243 0 21.451c0 1.477 1.967 2.107 9.75 3.122 4.84.631 5.25.892 5.25 3.334 0 1.457-.9 3.419-2 4.361-1.165.997-2 2.95-2 4.675 0 1.63-.514 4.09-1.142 5.468-2.529 5.553 3.154 16.154 8.267 15.421 3.524-.504 7.064-7.287 6.436-12.332-1.328-10.677-1.843-12.58-3.668-13.557C19.778 31.346 19 29.857 19 28.318v-2.611l7.651.646c4.208.356 10.283.647 13.5.647H46v3.393c0 2.094-.574 3.613-1.5 3.969-.883.338-1.5 1.839-1.5 3.647 0 1.69-.989 4.41-2.198 6.045C35.87 50.725 40.401 60 48.593 60c7.732 0 12.264-9.79 7.407-16-1.076-1.375-1.966-3.947-1.978-5.715-.015-2.176-.668-3.56-2.022-4.285-1.299-.695-2-2.094-2-3.99 0-3.257.367-3.382 13.279-4.49 3.729-.32 8.116-.849 9.75-1.176 2.745-.549 2.971-.375 2.971 2.29 0 1.745-.746 3.351-1.889 4.065-1.117.697-2.139 2.841-2.5 5.24-.336 2.234-.877 5.798-1.203 7.921-.788 5.143 2.495 11.827 6.276 12.775 2.116.532 3.127.123 4.953-2 3.151-3.663 4.855-10.261 3.447-13.35C84.488 39.976 84 37.577 84 35.953c0-1.624-.9-3.853-2-4.953s-2-3.302-2-4.892c0-2.762.327-2.972 7.25-4.655 3.987-.969 9.683-2.593 12.657-3.608 2.973-1.015 5.786-1.845 6.25-1.845 1.749 0 .794 4.956-1.157 6-1.425.762-2 2.094-2 4.627 0 2.043-.851 4.64-2 6.1-2.37 3.014-2.544 6.319-.537 10.201 1.654 3.2 4.371 4.638 5.891 3.118.693-.693.319-1.766-1.167-3.347-1.203-1.28-2.187-3.311-2.187-4.513 0-2.734 3.348-6.186 6-6.186 2.518 0 6 3.404 6 5.865 0 1.026-.9 3.009-2 4.408-4.163 5.292-.865 6.732 3.51 1.532 2.158-2.563 2.579-3.872 2.132-6.624-.306-1.886-1.251-4.196-2.099-5.134-.849-.937-1.543-2.87-1.543-4.294 0-3.614-.969-5.753-2.607-5.753-.981 0-1.375-1.255-1.333-4.25l.059-4.25 8.191-4c7.312-3.571 10.075-6.305 7.19-7.114-.55-.154-4.547 1.531-8.882 3.745M107 26.427c0 .927.855 1.573 2.083 1.573 2.437 0 2.093-2.337-.416-2.823-.987-.192-1.667.318-1.667 1.25M76 35c0 .55.9 1 2 1s2-.45 2-1-.9-1-2-1-2 .45-2 1m-60.43.886c-.301.488.347 1.121 1.441 1.407 1.289.337 1.989.025 1.989-.887 0-1.545-2.557-1.932-3.43-.52M47 39c0 .55.675 1 1.5 1s1.5-.45 1.5-1-.675-1-1.5-1-1.5.45-1.5 1m28.2 2.2c-1.641 1.641-1.506 5.308.326 8.85 2.03 3.925 2.947 3.724 4.865-1.07 1.989-4.97 1.991-5.455.038-7.409-1.879-1.879-3.599-2.001-5.229-.371m-60.629 1.371c-1.955 1.956-1.972 3.534-.085 8.049 1.641 3.929 3.348 4.027 5.249.301 1.867-3.659 1.563-7.691-.669-8.886-2.502-1.339-2.635-1.323-4.495.536m30.415 3.239C40.642 49.328 42.967 56 48.536 56c5.051 0 7.39-7.538 3.241-10.443-2.863-2.006-4.056-1.961-6.791.253M.415 69.137c-.93 1.506 2.661 4.144 10.308 7.573 6.207 2.783 6.223 2.801 6.25 7.04.019 2.979-.39 4.25-1.366 4.25C13.969 88 13 90.139 13 93.753c0 1.424-.718 3.383-1.595 4.352-2.292 2.533-2.394 8.222-.155 8.682 1.306.269 1.75-.293 1.75-2.214C13 101.508 16.202 98 19 98c1.1 0 2.9.9 4 2 4.293 4.293 1.084 10.438-5.133 9.826-4.249-.419-5.456 2.737-1.433 3.747 9.284 2.33 16.656-9.34 10.064-15.932-.824-.824-1.498-3.089-1.498-5.034 0-2.513-.579-3.846-2-4.607-1.286-.689-2-2.094-2-3.939v-2.869l4.961 1.885c2.729 1.037 8.804 2.849 13.5 4.027C47.705 89.172 48 89.345 48 92.123c0 1.582-.9 3.777-2 4.877-1.1 1.1-2 3.329-2 4.953s-.488 4.023-1.084 5.332c-1.408 3.089.296 9.687 3.447 13.35 3.239 3.766 6.909 2.711 9.717-2.791 2.134-4.184 2.133-4.156.285-16.155-.333-2.165-1.402-4.32-2.476-4.99-1.143-.714-1.889-2.32-1.889-4.065 0-2.637.244-2.835 2.847-2.315 1.566.314 6.404.847 10.75 1.186C77.594 92.439 78 92.586 78 95.984c0 1.922-.695 3.318-2 4.016-1.354.725-2.007 2.109-2.022 4.285-.012 1.768-.902 4.34-1.978 5.715-3.032 3.876-2.633 9.521.923 13.077 8.564 8.564 21.506-3.243 14.275-13.023-1.209-1.635-2.198-4.355-2.198-6.045 0-1.808-.617-3.309-1.5-3.647-.926-.356-1.5-1.875-1.5-3.969V93h5.849c3.217 0 9.292-.291 13.5-.647l7.651-.646v2.611c0 1.539-.778 3.028-1.893 3.625-1.825.977-2.34 2.88-3.668 13.557-.628 5.045 2.912 11.828 6.436 12.332 5.113.733 10.796-9.868 8.267-15.421-.628-1.378-1.142-3.838-1.142-5.468 0-1.725-.835-3.678-2-4.675-1.1-.942-2-2.904-2-4.361 0-2.442.41-2.703 5.25-3.334 7.783-1.015 9.75-1.645 9.75-3.122 0-2.301-1.392-2.395-11.074-.741-14.986 2.559-45.95 2.247-62.426-.63-15.285-2.669-32.774-8.184-44.256-13.957-9.222-4.637-8.874-4.531-9.829-2.986m17.252 22.53C16.399 92.934 17.008 94 19 94c1.111 0 2-.667 2-1.5 0-1.522-2.115-2.051-3.333-.833M48 101c0 .55.9 1 2 1s2-.45 2-1-.9-1-2-1-2 .45-2 1m61 1c0 .55.927 1 2.059 1 1.132 0 1.781-.45 1.441-1-.34-.55-1.266-1-2.059-1-.793 0-1.441.45-1.441 1m-31 3c0 .55.675 1 1.5 1s1.5-.45 1.5-1-.675-1-1.5-1-1.5.45-1.5 1m-30.429 2.571c-1.953 1.954-1.951 2.439.038 7.409 1.918 4.794 2.835 4.995 4.865 1.07 3.493-6.755-.215-13.166-4.903-8.479m61.179.509c-2.04 1.189-2.269 5.346-.485 8.841 1.901 3.726 3.608 3.628 5.249-.301 1.887-4.515 1.87-6.093-.085-8.049-1.822-1.821-2.308-1.872-4.679-.491m-32.527 3.477C71.984 114.526 74.428 122 79.638 122c5.41 0 7.642-6.735 3.376-10.19-2.735-2.214-3.928-2.259-6.791-.253" fill-rule="evenodd"/></svg>