<svg xmlns="http://www.w3.org/2000/svg" width="128" height="128"><path d="M54.921 5.315c-1.968.732-4.655 2.086-5.972 3.008C47.625 9.251 44.665 10 42.325 10c-2.327 0-5.411.538-6.853 1.195C30.332 13.537 30 15.583 30 44.95V72h-2.889c-3.355 0-3.621-.878-4.7-15.5C21.678 46.574 20.358 44 16 44s-5.678 2.574-6.411 12.5c-.956 12.959-1.488 15.24-3.683 15.814C4.34 72.724 4 73.739 4 78c0 4.346.324 5.272 2 5.71 1.567.41 2 1.364 2 4.407C8 91.333 8.343 92 10 92c1.667 0 2-.667 2-4v-4h24v28H12v-8c0-7.333-.167-8-2-8-1.861 0-2 .667-2 9.594 0 8.663.189 9.643 1.946 10.102 1.397.365 2.031 1.537 2.25 4.156l.304 3.648h11l.31-3.75.311-3.75h79.758l.311 3.75.31 3.75h11l.304-3.648c.219-2.619.853-3.791 2.25-4.156 1.822-.476 1.946-1.494 1.946-15.986 0-14.774.093-15.501 2.055-16.014 1.801-.471 2.017-1.196 1.75-5.867L123.5 72.5l-3.75-.31-3.75-.311v-8.883c0-7.627-.272-9.073-1.921-10.228-1.105-.774-2.061-2.816-2.25-4.807-.305-3.209-.578-3.461-3.746-3.461-3.854 0-5.455 2.328-2.188 3.183 2.663.696 2.72 3.452.105 5.085-1.759 1.099-2 2.332-2 10.24V72h-6V60c0-11.333-.111-12-2-12s-2 .667-2 12-.111 12-2 12c-1.947 0-2-.667-2-25.345C90 17.665 90.096 18 81.794 18c-3.013 0-5.012-.559-5.922-1.655C73.854 13.912 68.631 12 64 12s-9.854 1.912-11.872 4.345C51.205 17.458 49.207 18 46.033 18 37.947 18 38 17.811 38 46.829 38 71.333 37.947 72 36 72c-1.951 0-2-.667-2-27 0-25.667.099-27.099 2-29 1.477-1.477 3.333-2 7.096-2 3.33 0 6.015-.64 7.75-1.847 5.82-4.05 13.712-5.219 20.255-3 1.869.634 4.593 1.984 6.053 3C78.889 13.36 81.574 14 84.904 14 92.738 14 94 15.803 94 27c0 8.333.148 9 2 9 1.853 0 2-.667 2-9.05C98 13.814 95.31 10 86.045 10c-2.252 0-6.05-1.136-9.116-2.727-6.171-3.201-16.253-4.099-22.008-1.958m2.581 12.26c-1.649.86-3.709 2.207-4.579 2.994-.869.787-3.472 1.431-5.783 1.431-5.037 0-5.334.564-4.939 9.373l.299 6.675 10.983-11.024c7.918-7.948 10.43-11.022 9-11.018-1.091.004-3.332.71-4.981 1.569m-1.765 13.188L42 44.526v10.951L58.5 39C67.575 29.938 75 22.007 75 21.376 75 20.445 70.885 17 69.772 17c-.164 0-6.48 6.193-14.035 13.763m5.513 10.465L42 60.519v5.74c0 3.948.393 5.741 1.259 5.741.692 0 10.624-9.373 22.07-20.829 20.638-20.656 20.809-20.862 20.492-24.75-.273-3.338-.693-3.963-2.821-4.202-2.067-.233-5.834 3.06-21.75 19.009m6.761 13.252L50.521 72H61.53l12.293-12.323 12.294-12.323-.309-5.197-.308-5.196L68.011 54.48M94 42c0 1.333.667 2 2 2s2-.667 2-2-.667-2-2-2-2 .667-2 2m-79.554 7.087c-1.03 1.668 1.287 3.58 2.667 2.2C18.267 50.133 17.545 48 16 48c-.485 0-1.184.489-1.554 1.087M76 62.5 66.54 72H86v-9.5c0-5.225-.121-9.5-.27-9.5-.148 0-4.527 4.275-9.73 9.5m-62.469-1.75-.999 8C12.135 71.927 12.212 72 16 72s3.865-.073 3.468-3.25l-.999-8C18 56.98 17.49 56 16 56c-1.49 0-2 .98-2.469 4.75M108 64c0 7.333.167 8 2 8s2-.667 2-8-.167-8-2-8-2 .667-2 8M8 78c0 1.976.667 2 56 2s56-.024 56-2-.667-2-56-2-56 .024-56 2m32 12v6h48V84H40v6m52 8v14h24V84H92v14m-33.523-8.962c-1.248 2.018 1.126 3.09 6.133 2.772 3.542-.224 4.89-.724 4.89-1.81 0-1.872-9.926-2.738-11.023-.962M28.43 95.322c-1.058 2.756-.017 8.178 1.57 8.178 1.107 0 1.5-1.157 1.5-4.417 0-4.402-1.921-6.756-3.07-3.761m68 0c-1.058 2.756-.017 8.178 1.57 8.178 1.107 0 1.5-1.157 1.5-4.417 0-4.402-1.921-6.756-3.07-3.761M40 106v6h48v-12H40v6m18.477-.962c-1.248 2.018 1.126 3.09 6.133 2.772 3.542-.224 4.89-.724 4.89-1.81 0-1.872-9.926-2.738-11.023-.962M16 118c0 1.333.667 2 2 2s2-.667 2-2-.667-2-2-2-2 .667-2 2m92 0c0 1.333.667 2 2 2s2-.667 2-2-.667-2-2-2-2 .667-2 2" fill-rule="evenodd"/></svg>