<svg xmlns="http://www.w3.org/2000/svg" width="128" height="128"><path d="M33.667.667c-.367.366-.667 2.616-.667 5 0 2.383-.112 4.328-.25 4.322-.138-.006-2.44-.675-5.116-1.487-2.677-.812-5.264-1.231-5.75-.93-.486.3-.884 6.512-.884 13.804v13.259l-5.47 1.724c-3.009.949-6.127 2.381-6.929 3.183C7.799 40.344 6.076 41 4.771 41 .081 41 0 41.554 0 73.7 0 103.333.044 104 2 104c1.955 0 2-.667 2-29.5C4 45.727 4.049 45 5.988 45c1.943 0 1.994.831 2.25 37.25L8.5 119.5h111l.262-37.25c.256-36.419.307-37.25 2.25-37.25 1.95 0 1.988.747 1.988 39.53v39.531l-28.25-.472c-34.262-.572-29.247-.572-63.449 0l-28.199.472-.301-5.781c-.226-4.337-.675-5.78-1.801-5.78-1.927 0-2.713 11.936-.928 14.087 1.609 1.938 57.86 2.097 60.942.172 1.581-.987 2.391-.987 3.972 0 1.462.913 9.61 1.241 30.845 1.241 26.236 0 28.998-.159 30.386-1.75 1.311-1.502 1.552-7.616 1.699-43.086.11-26.62-.176-41.121-.803-40.734-.536.332-1.257.145-1.603-.414-.345-.559-1.914-1.016-3.486-1.016-1.571 0-3.034-.531-3.251-1.181-.217-.65-1.942-1.7-3.833-2.334-3.4-1.14-3.446-1.234-3.94-8.069l-.5-6.916-6.731.218c-11.521.372-24.714 4.708-34.214 11.244l-4.502 3.098-.614-2.78c-1.928-8.734-3.84-13.652-7.346-18.902-4.37-6.544-7.736-9.372-15.401-12.941-5.29-2.463-7.834-2.962-9.025-1.77M37 40.423c0 33.052.127 35.683 1.75 36.229 9.016 3.035 17.198 9.605 21.164 16.995l2.068 3.853-.257-33c-.249-31.866-.338-33.199-2.575-38.782-4.028-10.05-12.184-18.577-19.4-20.284L37 4.783v35.64m-12 7.312v35.948l4.25 1.255c8.07 2.383 16.229 7.541 24.029 15.192 8.138 7.982 8.459 7.785 3.958-2.43-3.933-8.927-11.581-15.008-22.987-18.279C33.283 79.144 33 71.72 33 46.64V14.217l-2.407-.604c-1.324-.333-3.124-.88-4-1.216C25.154 11.845 25 15.259 25 47.735m72-20.236c-9.246 1.865-16.518 4.813-24 9.73L66.5 41.5l-.263 35.917c-.25 34.236-.18 35.844 1.5 34.366 6.276-5.517 20.087-11.041 32.275-12.906L108 97.654V77.909c0-20.492.275-22.909 2.607-22.909 1.151 0 1.393 4.08 1.393 23.5V102h-4.042c-4.175 0-18.554 2.677-20.635 3.841-.647.363 2.953.711 8 .775 5.047.064 11.77.811 14.94 1.659l5.763 1.542-.263-34.145c-.243-31.603-.393-34.17-2.013-34.482-1.36-.262-1.75.348-1.75 2.737 0 1.96-.505 3.073-1.393 3.073C108.5 47 108 44.683 108 34.918c0-10.252.701-9.779-11-7.419M16 40.306 12.5 41.5l-.263 34.158-.263 34.159 5.763-1.553c10.526-2.838 27.692-1.818 37.513 2.229 3.416 1.407 1.687-1.435-4.75-7.809-6.917-6.849-16.785-12.72-24.75-14.726L21 86.763V62.881c0-13.134-.337-23.856-.75-23.825-.413.031-2.325.594-4.25 1.25M.445 73.5C.444 90.55.581 97.666.748 89.312c.167-8.353.167-22.303 0-31C.582 49.616.445 56.45.445 73.5M24 111.076c-7.203 1.254-12 2.854-12 4.002 0 .535 9.428.922 22.5.922 12.375 0 22.5-.207 22.5-.46s-2.906-1.357-6.458-2.454c-7.896-2.439-19.172-3.293-26.542-2.01m61.763-.103c-2.605.471-7.105 1.683-10 2.692L70.5 115.5l22.397.27c12.319.148 22.656.011 22.971-.305 2.81-2.809-20.329-6.262-30.105-4.492M.328 119.5c.005 3.85.185 5.302.402 3.228.216-2.075.213-5.225-.008-7-.221-1.776-.398-.078-.394 3.772" fill-rule="evenodd"/></svg>