<svg xmlns="http://www.w3.org/2000/svg" width="128" height="128"><path d="M77.91 24 56.648 46H2v80h124V46H75.871l17.088-16.75c18.664-18.295 19.562-19.82 14.586-24.795C102.282-.809 101.19-.089 77.91 24m-8.375 14.661c-17.377 17.963-31.44 33.123-31.252 33.687.188.565.806 1.182 1.372 1.37C40.955 74.152 106 11.334 106 9.646 106 8.047 103.959 6 102.365 6c-.68 0-15.453 14.697-32.83 32.661M6 82v32h116V50H96.655c-24.075 0-25.436.1-27.155 2-1.805 1.995-1.747 2 23.345 2H118v56H10V54h19.345c18.075 0 19.464-.131 21.155-2 1.805-1.995 1.747-2-21.345-2H6v32m8-19.965c0 3.543.215 3.92 1.761 3.093 1.801-.964 4.375-3.643 5.646-5.878.518-.911-.388-1.25-3.348-1.25H14v4.035m10.992-1.015c-1.36 3.283-5.793 7.465-8.987 8.478C14.147 70.088 14 71.002 14 82c0 10.998.147 11.912 2.005 12.502 3.194 1.013 7.627 5.195 8.987 8.478l1.251 3.02h37.811c36.967 0 37.825-.045 38.448-2.005 1.013-3.194 5.195-7.627 8.478-8.987l3.02-1.251V70.243l-3.02-1.251c-3.283-1.36-7.465-5.793-8.478-8.987-.608-1.916-1.492-2.004-19.819-1.992l-19.183.014-9.743 9.065c-8.273 7.697-9.593 9.345-8.75 10.921C48.166 83.915 42.96 92 36 92c-5.155 0-10-4.892-10-10.097 0-3.199 2.633-7.415 5.425-8.687C32.841 72.571 34 71.484 34 70.8c0-.683 2.573-3.843 5.719-7.021L45.437 58H26.243l-1.251 3.02m81.88-1.259c.964 1.801 3.643 4.375 5.878 5.646.911.518 1.25-.388 1.25-3.348V58h-4.035c-3.543 0-3.92.215-3.093 1.761m-22.417 4.694C83.105 65.805 82 67.302 82 67.781c0 .48-1.351.674-3.002.432-3.383-.496-7.534 1.75-8.426 4.559-.449 1.417-1.349 1.736-4.018 1.424-7.339-.857-11.337 8.112-5.997 13.452 1.995 1.995 3.314 2.469 5.997 2.156 2.669-.312 3.569.007 4.018 1.424.892 2.809 5.043 5.055 8.426 4.559 1.651-.242 3.002-.048 3.002.432 0 .479 1.105 1.976 2.455 3.326 3.29 3.291 7.842 3.249 11.193-.102 2.147-2.147 2.457-3.151 1.932-6.25-.344-2.031-.592-4.48-.551-5.443.041-.963.075-3.55.075-5.75s-.034-4.787-.075-5.75c-.041-.963.207-3.412.551-5.443.525-3.099.215-4.103-1.932-6.25-3.351-3.351-7.903-3.393-11.193-.102m2.585 2.997c-2.657 3.201 1.245 8.118 4.71 5.936C95.212 71.207 93.979 66 90 66c-.965 0-2.297.653-2.96 1.452m-12 6c-2.657 3.201 1.245 8.118 4.71 5.936C83.212 77.207 81.979 72 78 72c-.965 0-2.297.653-2.96 1.452M32 78c-1.1 1.1-2 2.9-2 4 0 2.576 3.424 6 6 6 2.308 0 6-3.334 6-5.418C42 79.849 40.77 78 38.952 78c-1.009 0-2.112-.45-2.452-1-.935-1.513-2.288-1.212-4.5 1m31.04 1.452c-2.657 3.201 1.245 8.118 4.71 5.936C71.212 83.207 69.979 78 66 78c-.965 0-2.297.653-2.96 1.452m24 0c-2.657 3.201 1.245 8.118 4.71 5.936C95.212 83.207 93.979 78 90 78c-.965 0-2.297.653-2.96 1.452m-12 6c-2.657 3.201 1.245 8.118 4.71 5.936C83.212 89.207 81.979 84 78 84c-.965 0-2.297.653-2.96 1.452m12 6c-2.657 3.201 1.245 8.118 4.71 5.936C95.212 95.207 93.979 90 90 90c-.965 0-2.297.653-2.96 1.452M14 101.965V106h4.059c2.96 0 3.866-.339 3.348-1.25-1.271-2.235-3.845-4.914-5.646-5.878-1.546-.827-1.761-.45-1.761 3.093m95.5-.465-4 4 3.85.316c2.118.174 4.06.107 4.317-.149.256-.257.323-2.199.149-4.317l-.316-3.85-4 4M6 120c0 1.977.667 2 58 2s58-.023 58-2-.667-2-58-2-58 .023-58 2" fill-rule="evenodd"/></svg>