<svg xmlns="http://www.w3.org/2000/svg" width="128" height="128"><path d="M48.116 2.044C38.473 4.569 26.5 10.944 26.5 13.553c0 2.974 2.759 2.821 8.109-.452 4.512-2.759 17.202-7.623 17.947-6.879.177.178-.984 3.013-2.58 6.3-1.596 3.288-3.676 9.24-4.622 13.228-1.171 4.937-2.189 7.25-3.192 7.25-.809 0-3.184 1.8-5.277 4l-3.805 4H21.54c-6.347 0-11.538-.337-11.535-.75.003-.413 1.114-2.55 2.469-4.75 2.65-4.303 3.148-6.998 1.482-8.027-1.65-1.02-3.881 1.436-7.106 7.824-9.324 18.47-8.933 40.748 1.039 59.236 2.605 4.829 3.6 7.664 3.015 8.588-2.02 3.19-.972 8.011 2.496 11.479s8.289 4.516 11.479 2.496c.924-.585 3.759.41 8.588 3.015 25.285 13.638 55.137 9.257 75.598-11.095 8.473-8.428 14.832-19.538 17.01-29.716.683-3.19 1.62-6.228 2.083-6.75.992-1.12 1.158-19.199.167-18.208-.371.371-1.493-2.545-2.492-6.48-.999-3.935-3.57-10.405-5.714-14.379-2.611-4.841-3.608-7.68-3.023-8.604 2.02-3.19.972-8.011-2.496-11.479s-8.289-4.516-11.479-2.496c-.924.585-3.759-.41-8.588-3.015-14.22-7.67-31.257-9.815-46.417-5.845m11.275 5.474c-3.147 3.148-6.817 11.072-8.906 19.231l-1.6 6.249 3.307 3.983 3.308 3.983 12.25.018c14.305.021 13.651.817 10.25-12.482C74.392 14.392 68.72 5 63.809 5c-1.045 0-3.033 1.133-4.418 2.518m15.812-.812c4.041 8.052 6.37 14.516 8.031 22.294 1.116 5.225 2.181 10.063 2.366 10.75.252.934 4.39 1.25 16.369 1.25 8.817 0 16.031-.362 16.031-.804 0-.443-1.28-2.824-2.846-5.291-2.728-4.303-3.015-4.471-6.995-4.092-3.683.352-4.556-.01-7.759-3.213-3.185-3.185-3.563-4.089-3.22-7.69.338-3.546.024-4.341-2.402-6.068-4.713-3.356-20.582-9.14-19.575-7.136M104 17c-1.1 1.1-2 2.675-2 3.5 0 1.938 3.562 5.5 5.5 5.5 1.938 0 5.5-3.562 5.5-5.5 0-1.938-3.562-5.5-5.5-5.5-.825 0-2.4.9-3.5 2m-85.429 2.571c-1.558 1.559-1.571 1.858-.142 3.286 1.428 1.429 1.727 1.416 3.285-.143 1.559-1.558 1.572-1.857.143-3.285-1.428-1.429-1.727-1.416-3.286.142M41 40c-1.1 1.1-2 2.675-2 3.5 0 .825.9 2.4 2 3.5s2.675 2 3.5 2c.825 0 2.4-.9 3.5-2s2-2.675 2-3.5c0-.825-.9-2.4-2-3.5s-2.675-2-3.5-2c-.825 0-2.4.9-3.5 2M7.545 46.927C5.748 49.835 4.751 64.446 5.83 72.073c.628 4.439 1.4 8.489 1.715 9 .315.51 8.093.927 17.285.927h16.712l-.383-13.955-.384-13.955-3.847-4.045L33.08 46H20.599c-6.864 0-12.739.417-13.054.927m45.574 2.126c-1.241 1.679-3.351 3.551-4.688 4.16-2.301 1.049-2.431 1.567-2.422 9.698.004 4.724.292 10.951.639 13.839l.631 5.25h25.67l1.478-2.859c.813-1.573 2.85-3.427 4.526-4.121L82 73.757l-.009-8.628c-.004-4.746-.292-10.991-.639-13.879L80.721 46H55.376l-2.257 3.053m33.727 11.088.39 14.187 2.882 2.425C91.703 78.087 93 79.813 93 80.589 93 81.734 95.534 82 106.422 82h13.423l1.299-3.75c1.49-4.3 1.586-24.07.141-28.75l-.927-3-16.951-.273-16.95-.272.389 14.186M.36 64c0 5.225.169 7.362.375 4.75s.206-6.888 0-9.5S.36 58.775.36 64m79.295 16.829C78.745 81.835 78 83.565 78 84.674 78 87.049 80.952 90 83.329 90 85.407 90 89 86.515 89 84.5c0-2.09-3.624-5.5-5.845-5.5-1.015 0-2.59.823-3.5 1.829M10 87.804c0 .443 1.28 2.824 2.846 5.291 2.728 4.303 3.015 4.471 6.995 4.092 3.683-.352 4.556.01 7.759 3.213 3.196 3.196 3.564 4.081 3.216 7.73-.364 3.819-.122 4.301 3.292 6.56 3.524 2.332 17.723 7.812 18.424 7.111.186-.185-1.003-3.129-2.641-6.541-1.638-3.412-3.917-10.604-5.066-15.982s-2.24-10.34-2.425-11.028c-.252-.934-4.39-1.25-16.369-1.25-8.817 0-16.031.362-16.031.804m38.419 4.295c1.014 7.647 5.128 19.797 8.505 25.122 3.448 5.434 6.802 6.844 10.508 4.416 3.027-1.984 8.023-12.106 10.161-20.589 1.573-6.24 1.562-6.504-.337-8.041-1.079-.875-2.494-2.584-3.144-3.798C72.988 87.11 72.303 87 60.336 87H47.742l.677 5.099M93 88.411C93 90.079 87.424 95 85.535 95c-.726 0-1.625 1.677-2.01 3.75-.965 5.182-5.196 17.098-7.106 20.014-.868 1.325-1.37 2.618-1.116 2.873.888.888 13.237-3.837 18.697-7.154 8.36-5.079 13.429-9.856 18.411-17.35C119.643 86.255 120.143 87 105.607 87 95.42 87 93 87.271 93 88.411M17 104c-1.1 1.1-2 2.675-2 3.5 0 1.938 3.562 5.5 5.5 5.5 1.938 0 5.5-3.562 5.5-5.5 0-1.938-3.562-5.5-5.5-5.5-.825 0-2.4.9-3.5 2" fill-rule="evenodd"/></svg>