<svg xmlns="http://www.w3.org/2000/svg" width="128" height="128"><path d="M68.923 2.923C66.928 4.918 66 6.848 66 9c0 4.184 4.703 9 8.788 9 1.618 0 4.086-.9 5.485-2C85.036 12.254 88 14.036 88 20.645v4.245l-4.75.305c-3.968.255-4.8.656-5.054 2.435-.278 1.953-1.043 2.166-9.154 2.554-7.462.356-9.473.835-12.825 3.053C51.43 36.405 48 42.938 48 48.887c0 2.508-.636 4.892-1.548 5.804-1.091 1.09-1.46 3.065-1.25 6.679l.298 5.13 13.25.279 13.25.279v-5.97c0-3.283-.45-6.248-1-6.588-2.18-1.347-.797-2.5 3-2.5 3.258 0 4 .351 4 1.893C78 56.64 79.795 57 93.5 57s15.5-.36 15.5-3.107c0-1.689.808-1.893 7.488-1.893h7.488l.262 37.75c.227 32.772.46 37.75 1.762 37.75 2.556 0 2.842-9.207 2.155-69.5C127.584 7.847 127.308.5 126 .5c-1.253 0-1.546 2.429-1.777 14.75L123.947 30h-7.474c-6.666 0-7.473-.205-7.473-1.893 0-2.285-1.873-3.107-7.082-3.107H98v-4.3c0-6.775 2.801-8.385 7.958-4.573 2.207 1.631 3.679 1.976 6.322 1.48 4.3-.806 6.636-3.317 7.386-7.937.496-3.058.139-4.019-2.466-6.624C113.586-.568 109.469-.943 105.727 2c-3.181 2.502-4.273 2.502-7.454 0C96.874.9 94.502 0 93 0c-1.502 0-3.874.9-5.273 2-3.181 2.502-4.273 2.502-7.454 0-3.693-2.904-7.861-2.565-11.35.923m2.642 3.005c-2.093 2.313-1.354 5.58 1.623 7.172 1.65.884 2.607.688 4.891-1.001 3.834-2.834 8.971-2.74 11.747.215 1.655 1.762 2.174 3.553 2.174 7.5 0 2.853.45 5.186 1 5.186s1-2.397 1-5.326c0-4.274.457-5.755 2.314-7.5 2.963-2.783 7.9-2.815 11.607-.075 2.252 1.666 3.253 1.878 4.841 1.028 2.873-1.537 3.518-4.05 1.738-6.768-1.891-2.886-4.588-3.024-7-.359-2.446 2.703-8.554 2.703-11 0-.995-1.1-2.57-2-3.5-2-.93 0-2.505.9-3.5 2-2.446 2.703-8.554 2.703-11 0-2.282-2.521-4.696-2.546-6.935-.072M82 41v11h23V30H82v11m-19.058-6.052c-6.928 2.102-10.875 7.633-10.92 15.302L52 54h6.434c6.275 0 6.441-.068 6.75-2.75.303-2.636.576-2.762 6.566-3.048l6.25-.297V34l-6.25.086c-3.437.047-7.401.435-8.808.862M109 41v7h15V34h-15v7M50 60.5c0 2.481.067 2.5 9 2.5s9-.019 9-2.5-.067-2.5-9-2.5-9 .019-9 2.5m4.69 14.022c-1.546 1.937-3.464 5.087-4.264 7-3.891 9.312 7.433 16.819 14.769 9.791 4.488-4.299 3.246-10.756-3.474-18.063-2.785-3.027-3.738-2.855-7.031 1.272m1.334 5.175c-2.436 3.097-2.4 8.053.071 9.599 2.537 1.587 6.791.008 7.49-2.78.619-2.463-2.787-9.516-4.594-9.516-.465 0-1.8 1.214-2.967 2.697M7.5 86.834l-6 1.674-.275 15.646L.95 119.8l15.046 3.666c17.348 4.228 29.982 5.384 39.185 3.588 8.493-1.658 38.694-14.503 41.569-17.679 2.804-3.099 2.863-6.326.177-9.74-2.763-3.513-5.291-3.359-15.723.959-8.042 3.329-8.757 3.465-9.693 1.838C68.574 97.329 67.599 97 55.416 97H43.831l-5.665-4.448c-3.117-2.447-7.339-5.147-9.384-6-4.739-1.978-13.603-1.861-21.282.282m1.75 3.875L4 92.256v23.602l5.726 1.665c18.328 5.328 33.74 7.298 43.626 5.576 7.459-1.299 38.43-14.149 40.359-16.745 1.309-1.762.097-5.354-1.806-5.354-.564 0-6.849 2.487-13.966 5.526l-12.941 5.526-15.249-.276c-12.765-.231-15.249-.52-15.249-1.776 0-1.25 2.33-1.54 14-1.743 17.72-.308 18.718-.528 18.313-4.042L66.5 101.5l-12.358-.282-12.358-.281-4.642-3.909c-9.217-7.762-17.008-9.527-27.892-6.319" fill-rule="evenodd"/></svg>