<svg xmlns="http://www.w3.org/2000/svg" width="128" height="128"><path d="M23.608 13.891c-6.837 6.856-11.57 12.361-11.175 13 .377.61 2.683 1.109 5.126 1.109H22v21c0 20.398.058 21 2.019 21 1.974 0 2.013-.507 1.75-22.75L25.5 24.5l-3.284-.5-3.284-.5 8.534-8.478L36 6.544l8.534 8.478 8.534 8.478-3.284.5-3.284.5-.269 22.75C45.968 69.493 46.007 70 47.981 70 49.942 70 50 69.398 50 49V28h4.441c2.443 0 4.749-.499 5.126-1.109C60.16 25.932 37.501 2 36 2c-.292 0-5.868 5.351-12.392 11.891m56 12c-6.837 6.856-11.57 12.361-11.175 13 .377.61 2.683 1.109 5.126 1.109H78v15c0 14.393.082 15 2.024 15 1.963 0 2.016-.51 1.75-16.75L81.5 36.5l-3.284-.5-3.284-.5 8.534-8.478L92 18.544l8.534 8.478 8.534 8.478-3.284.5-3.284.5-.274 16.75c-.266 16.24-.213 16.75 1.75 16.75 1.942 0 2.024-.607 2.024-15V40h4.441c2.443 0 4.749-.499 5.126-1.109C116.16 37.932 93.501 14 92 14c-.292 0-5.868 5.351-12.392 11.891M38 54c0 19.333.067 20 2 20s2-.667 2-20-.067-20-2-20-2 .667-2 20m-8 6c0 13.333.095 14 2 14s2-.667 2-14-.095-14-2-14-2 .667-2 14m56 0c0 13.333.095 14 2 14s2-.667 2-14-.095-14-2-14-2 .667-2 14m8 6c0 7.333.167 8 2 8s2-.667 2-8-.167-8-2-8-2 .667-2 8M28.173 79.269c-5.319 1.702-12.755 9.055-14.583 14.421-3.303 9.693-1.453 17.515 5.876 24.844 10.235 10.235 24.358 10.017 33.833-.522 9.11-10.133 8.872-23.526-.584-32.796-6.628-6.499-15.841-8.731-24.542-5.947m56 0c-5.319 1.702-12.755 9.055-14.583 14.421-3.303 9.693-1.453 17.515 5.876 24.844 10.235 10.235 24.358 10.017 33.833-.522 9.11-10.133 8.872-23.526-.584-32.796-6.628-6.499-15.841-8.731-24.542-5.947m-55.085 4.117c-4.75 1.717-10.499 7.706-11.907 12.403-1.727 5.767-1.451 9.09 1.239 14.866 2.651 5.694 8.462 9.965 15.002 11.026 9.025 1.465 19.017-5.035 21.528-14.002 4.383-15.654-10.664-29.788-25.862-24.293m56 0c-4.75 1.717-10.499 7.706-11.907 12.403-1.727 5.767-1.451 9.09 1.239 14.866 2.651 5.694 8.462 9.965 15.002 11.026 9.025 1.465 19.017-5.035 21.528-14.002 4.383-15.654-10.664-29.788-25.862-24.293m-62.682 10c-.293.762-.391 3.349-.219 5.75.297 4.146.488 4.389 3.802 4.864 2.362.339 3.603 1.099 3.843 2.356.494 2.58-1.462 4.414-3.032 2.844-1.453-1.453-4.8-1.593-4.8-.2 0 1.736 3.917 5 6 5 2.948 0 6-3.561 6-7s-3.052-7-6-7c-1.333 0-2-.667-2-2 0-1.667.667-2 4-2s4-.333 4-2c0-1.759-.667-2-5.531-2-3.792 0-5.699.436-6.063 1.386m17.768.928C38.401 96.202 38 97.831 38 103.14c0 5.513.355 6.845 2.314 8.686 4.865 4.57 12.154.791 11.508-5.967-.271-2.825-.759-3.409-3.072-3.675-2.182-.251-2.75.093-2.75 1.666 0 1.091.531 2.16 1.18 2.377 2.16.72-.01 3.936-2.426 3.593-2.075-.295-2.254-.837-2.254-6.82 0-6.04.164-6.523 2.323-6.829 1.67-.237 2.476.255 2.867 1.75.683 2.612 4.31 2.825 4.31.253C52 95.596 47.841 92 44.86 92c-1.381 0-3.49 1.042-4.686 2.314m43.071 2.878C74.52 109.056 74.395 110 81.559 110c3.774 0 4.441.3 4.441 2 0 1.333.667 2 2 2s2-.667 2-2c0-1.1.45-2 1-2s1-.9 1-2-.429-2-.954-2c-.525 0-1.088-3.002-1.25-6.67-.177-3.984-.769-6.827-1.471-7.059-.647-.213-2.932 2.001-5.08 4.921m12.929-2.878C94.401 96.202 94 97.831 94 103.14c0 5.513.355 6.845 2.314 8.686 4.865 4.57 12.154.791 11.508-5.967-.271-2.825-.759-3.409-3.072-3.675-2.182-.251-2.75.093-2.75 1.666 0 1.091.531 2.16 1.18 2.377 2.16.72-.01 3.936-2.426 3.593-2.075-.295-2.254-.837-2.254-6.82 0-6.04.164-6.523 2.323-6.829 1.67-.237 2.476.255 2.867 1.75.683 2.612 4.31 2.825 4.31.253 0-2.578-4.159-6.174-7.14-6.174-1.381 0-3.49 1.042-4.686 2.314M83.592 103.5c-1.561 2.383-1.543 2.5.385 2.5 1.491 0 2.023-.657 2.023-2.5 0-1.375-.173-2.5-.385-2.5-.212 0-1.122 1.125-2.023 2.5" fill-rule="evenodd"/></svg>