<svg xmlns="http://www.w3.org/2000/svg" width="128" height="128"><path d="M.68.653c-1.166 1.166-.744 19.113.515 21.875 1.462 3.209 5.596 5.471 10.005 5.475 2.789.002 3.61.583 5.3 3.75 1.186 2.222 2.866 3.87 4.128 4.051 1.656.236 2.855 2.185 5.416 8.809 1.808 4.679 4.214 9.154 5.345 9.947 3.037 2.127 62.185 2.127 65.222 0 1.131-.793 3.537-5.268 5.345-9.947 2.561-6.624 3.76-8.573 5.416-8.809 1.262-.181 2.942-1.829 4.128-4.051 1.672-3.132 2.526-3.748 5.203-3.75 4.671-.004 8.017-1.863 10.291-5.718C128.619 19.531 129 17.098 129 9.471V.057L65.18.015C30.08-.008 1.055.279.68.653M.37 11c0 5.775.165 8.138.367 5.25.202-2.887.202-7.612 0-10.5C.535 2.863.37 5.225.37 11m3.63.809c0 9.92 1.017 11.438 8.142 12.153 4.955.498 5.508.82 7.358 4.285l2 3.748h85l2-3.748c1.85-3.465 2.403-3.787 7.358-4.285 7.125-.715 8.142-2.233 8.142-12.153V4H4v7.809m53.873-4.125c-7.775 4.825-7.684 16.043.167 20.68C65.781 32.937 76 27.04 76 18 76 8.939 65.489 2.957 57.873 7.684m2.448 3.505c-5.523 2.67-5.039 11.443.765 13.847 8.905 3.688 15.066-9.912 6.299-13.906-2.957-1.348-4.175-1.338-7.064.059m-.666 2.64C56.067 17.793 58.825 24 64.174 24c5.121 0 7.792-6.911 3.997-10.345-2.415-2.186-6.455-2.103-8.516.174m2.791 3.258c-1.03 1.668 1.287 3.58 2.667 2.2C66.267 18.133 65.545 16 64 16c-.485 0-1.184.489-1.554 1.087M28.131 38.946c.887 2.543 1.598 2.988 5.198 3.25 5.18.377 5.924 3.134.975 3.613-2.502.243-3.069.677-2.61 2C33.088 51.833 34.374 52 64 52c29.626 0 30.912-.167 32.306-4.191.459-1.323-.108-1.757-2.61-2-4.949-.479-4.205-3.236.975-3.613 3.6-.262 4.311-.707 5.198-3.25L100.896 36H27.104l1.027 2.946m14.346 4.092c-1.248 2.018 1.126 3.09 6.133 2.772 3.542-.224 4.89-.724 4.89-1.81 0-1.872-9.926-2.738-11.023-.962m16 0c-1.248 2.018 1.126 3.09 6.133 2.772 3.542-.224 4.89-.724 4.89-1.81 0-1.872-9.926-2.738-11.023-.962m16 0c-1.248 2.018 1.126 3.09 6.133 2.772 3.542-.224 4.89-.724 4.89-1.81 0-1.872-9.926-2.738-11.023-.962m-13.368 27.55C59.283 72.911 59 74.611 59 83.283v10.013l-2.285-3.391c-4.392-6.517-7.468-4.104-9.622 7.549-2.853 15.436-.153 23.921 9.117 28.652 6.609 3.373 16.172 1.659 20.919-3.75 7.531-8.58 6.054-21.476-4.311-37.637-1.687-2.63-4.109-7.346-5.383-10.481-1.274-3.134-2.744-5.841-3.266-6.015-.523-.174-1.899.89-3.06 2.365m1.954 15.162C63.009 94.616 62.73 96.27 61 98c-2.806 2.806-3.887 2.515-5.564-1.5-.805-1.925-1.861-3.5-2.347-3.5C52.111 93 50 103.84 50 108.864c0 13.506 15.983 20.075 24.427 10.04 5.569-6.618 4.309-15.896-4.077-30.03-3.059-5.156-5.935-10.274-6.392-11.374-.522-1.256-.855 1.813-.895 8.25m-2.003 23.166C56.417 115.436 57.892 122 64 122c6.108 0 7.583-6.564 2.94-13.084-2.59-3.637-3.29-3.637-5.88 0m1.514 5.751c-.82 2.138 1.011 4.148 2.459 2.7C66.12 116.28 65.344 113 64 113c-.432 0-1.074.75-1.426 1.667" fill-rule="evenodd"/></svg>