<svg xmlns="http://www.w3.org/2000/svg" width="128" height="128"><path d="M79.994.934c-8.181 2.489-15.128 9.411-17.517 17.454-1.747 5.885-2.08 34.896-.449 39.186 1.169 3.075 1.229 2.945-1.778 3.869-2.23.686-2.25.603-2.25-9.376C58 37.154 59.73 38 29.223 38-1.623 38 0 37.299 0 50.63c0 8.524.183 9.482 1.75 9.183 1.454-.276 1.835-1.769 2.25-8.823l.5-8.49h49v32l-8.75.289-8.75.289v-6.605C36 59.397 35.089 58 29.165 58c-2.621 0-5.305.54-5.965 1.2-.714.714-1.2 4.156-1.2 8.5V75H4.11l-.305-4.75C3.585 66.83 3.08 65.5 2 65.5.887 65.5.42 66.912.19 70.97-.226 78.315.84 79 12.691 79H22v3c0 2.261-.459 3-1.865 3C16.888 85 13 88.854 13 92.073 13 94.882 12.815 95 8.434 95 .944 95 0 95.989 0 103.835 0 111.075.978 113 4.656 113c2.107 0 2.276.479 2.55 7.239.242 5.961.603 7.299 2.044 7.574 1.542.294 1.75-.566 1.75-7.24V113h43.5c42.833 0 43.5-.031 43.5-2 0-1.972-.667-2-47-2H4V99h120v9.93l-10.25.285c-8.318.231-10.25.568-10.25 1.785 0 1.156 1.548 1.568 6.75 1.796l6.75.295v7.528c0 6.63.209 7.488 1.75 7.194 1.441-.275 1.802-1.613 2.044-7.574.276-6.803.432-7.239 2.595-7.239 4.089 0 5.619-2.926 5.532-10.579-.043-3.806-.296-6.387-.562-5.734-.344.844-1.043.708-2.421-.472-1.714-1.468-1.938-3.024-1.938-13.487 0-8.722-.407-12.614-1.549-14.822-1.669-3.228-6.844-6.896-9.736-6.902-1.455-.003-1.594-.362-.75-1.938.608-1.138 1.035-9.709 1.035-20.804 0-18.276-.081-19.032-2.579-24.044-5.4-10.837-18.98-16.766-30.427-13.284M78.5 5.866c-5.144 2.342-11.072 8.932-12.428 13.813-1.594 5.741-1.342 35.382.32 37.571 1.489 1.962 4.227 2.226 8.043.775 3.393-1.29 3.239-2.537-.878-7.094-4.036-4.468-4.776-7.592-4.362-18.431l.305-8 6.501-.5c4.22-.325 7.836-1.289 10.307-2.75 4.839-2.86 6.22-2.825 9.874.25 1.634 1.375 4.239 2.5 5.788 2.5 3.56 0 4.035 1.286 4.008 10.832-.024 8.279-1.967 14.13-5.837 17.573-3.457 3.076-2.762 5.314 1.894 6.101 6.82 1.152 6.968.729 6.943-19.878-.019-15.469-.293-18.725-1.871-22.199C102.412 6.091 88.933 1.114 78.5 5.866m8 19.774c-2.75 1.284-6.912 2.34-9.25 2.347L73 28l.007 7.75c.007 8.563 1.469 11.947 6.634 15.352 4.059 2.676 11.154 2.505 15.461-.372 4.864-3.249 6.895-7.931 6.896-15.901.002-6.575-.04-6.679-2.951-7.319-1.624-.356-3.987-1.448-5.25-2.426-2.219-1.718-2.467-1.699-7.297.556m-9.084 6.718c-.948 2.471-.029 5.093 1.915 5.467 1.494.288 1.753-.218 1.489-2.911-.343-3.493-2.44-5.067-3.404-2.556m15.968.084c-.907 2.363.019 5.012 1.877 5.37 1.39.267 1.739-.383 1.739-3.239C97 32.031 96.558 31 95.469 31c-.843 0-1.781.649-2.085 1.442M82.446 45.087c-1.15 1.861 1.123 3.063 5.164 2.731 2.737-.225 3.971-.831 4.205-2.068.276-1.457-.424-1.75-4.183-1.75-2.483 0-4.816.489-5.186 1.087m-3.293 14.65c-2.658 2.86-2.193 3.487 4.001 5.396 4.026 1.241 9.494.576 12.33-1.498 1.773-1.296 1.77-1.424-.076-3.956-1.705-2.337-2.547-2.608-7.908-2.542-5.077.063-6.361.463-8.347 2.6M26 73.5V85h6V62h-6v11.5m39-9.293c-5.953 1.312-7 2.326-7 6.781 0 2.228-.809 4.771-2 6.285-1.341 1.704-2 4.057-2 7.135V89h5.383c4.633 0 5.461-.294 5.934-2.105.962-3.678 3.165-1.509 3.488 3.433L69.11 95H106v-5c0-3.908.348-5 1.594-5 .876 0 1.829.9 2.116 2 .433 1.656 1.364 2 5.407 2H120v-9.077c0-8.575-.152-9.227-2.75-11.799-1.784-1.767-4.775-3.171-8.516-3.999-5.603-1.24-5.852-1.204-8.796 1.273-6.596 5.551-15.863 5.813-24.116.682-2.725-1.694-5.262-3.032-5.638-2.973-.376.059-2.709.554-5.184 1.1M36 82c0 2.208.469 3 1.777 3C41.238 85 44 87.91 44 91.557c0 3.159.248 3.443 3 3.443h3V79H36v3m-18.302 7.635c-.384.384-.698 1.748-.698 3.032 0 2.31.116 2.333 11.566 2.333h11.567l-.317-2.75-.316-2.75-10.552-.282c-5.803-.155-10.865.033-11.25.417M54 94c0 .55 2.475 1 5.5 1s5.5-.45 5.5-1-2.475-1-5.5-1-5.5.45-5.5 1m56 0c0 .55 2.25 1 5 1s5-.45 5-1-2.25-1-5-1-5 .45-5 1M.336 104c0 4.125.177 5.813.392 3.75.216-2.062.216-5.437 0-7.5-.215-2.062-.392-.375-.392 3.75" fill-rule="evenodd"/></svg>