<svg xmlns="http://www.w3.org/2000/svg" width="128" height="128"><path d="M52.105 3.519c-7.819 2.195-14.603 6.197-20.496 12.09-18.174 18.173-18.102 46.769.163 65.1L37.043 86l-5.271 5.291C23.506 99.586 18 111.949 18 122.21V126h92.289l-.593-6.354c-.664-7.114-3.383-15.064-7.042-20.593-1.833-2.77-2.195-4.122-1.456-5.442 2.528-4.518-2.385-9.187-7.044-6.693-4.249 2.274-3.101-1.015 2.255-6.457 19.781-20.099 17.516-52.084-4.895-69.134-3.017-2.295-8.079-5.158-11.25-6.361-7.536-2.862-20.71-3.539-28.159-1.447M49.5 8.703c-5.398 2.16-14.426 8.3-16.256 11.057L31.756 22h6.587c5.817 0 6.724-.263 7.758-2.25.644-1.238 3.17-4.612 5.613-7.5 4.682-5.535 4.298-6.152-2.214-3.547m7.911 3.668c-2.862 2.955-5.716 6.33-6.342 7.5C49.932 21.996 49.956 22 64 22c14.044 0 14.068-.004 12.931-2.129C75.163 16.568 65.551 7 64 7c-.763 0-3.728 2.417-6.589 5.371m18.834-.17c2.465 2.914 5.01 6.311 5.654 7.549C82.93 21.731 83.845 22 89.535 22c3.556 0 6.465-.42 6.465-.933 0-2.672-14.622-11.902-21.369-13.49-2.846-.669-2.833-.632 1.614 4.624M2 48c0 21.333.061 22 2 22s2-.667 2-22-.061-22-2-22-2 .667-2 22m24.07-17.426C24.4 34.128 22 43.009 22 45.636c0 .2 3.6.364 8 .364 7.671 0 8-.094 8-2.29 0-1.98 1.106-6.741 3.592-15.46.621-2.18.424-2.25-6.365-2.25H28.22l-2.15 4.574m19.035.875c-1.121 2.997-2.341 8.397-2.71 12L41.724 50h-9.862c-5.424 0-9.862.164-9.862.364 0 2.627 2.4 11.508 4.07 15.062C28.193 69.941 28.283 70 33.11 70c4.223 0 4.89.273 4.89 2 0 1.556-.667 2-3 2-1.65 0-3 .42-3 .933 0 .513 2.056 2.618 4.568 4.676 4.288 3.514 4.768 3.671 7.821 2.567 4.258-1.539 5.279-1.484 5.973.324.397 1.036-.53 1.961-3.001 2.994-12.468 5.209-22.518 18.262-24.833 32.256-.632 3.818-.5 4.25 1.296 4.25 1.58 0 2.142-.892 2.677-4.25 1.662-10.43 9.375-21.343 18.979-26.852 5.807-3.33 8.52-3.681 8.52-1.099 0 1.171-1.308 2.272-3.746 3.154-2.061.745-6.516 4.124-9.901 7.509-5.196 5.196-6.481 7.212-8.253 12.951-1.155 3.739-2.1 7.2-2.1 7.692s4.388.894 9.75.892l9.75-.002 2-3.717C54.104 113.44 59.284 110 63.967 110c3.087 0 4.893-1.056 11.359-6.639 8.363-7.221 8.57-8.25 2.094-10.387-2.316-.765-3.42-1.75-3.42-3.052 0-2.637 2.306-2.425 8.141.751 3.903 2.125 5.163 2.419 6.136 1.433 1.477-1.499-.563-3.323-6.985-6.247-2.899-1.32-4.032-2.373-3.643-3.387.683-1.779 1.717-1.831 5.962-.296 3.053 1.104 3.533.947 7.821-2.567C93.944 77.551 96 75.446 96 74.933c0-.513-1.35-.933-3-.933-2.333 0-3-.444-3-2 0-1.727.667-2 4.89-2 4.827 0 4.917-.059 7.04-4.574 1.67-3.554 4.07-12.435 4.07-15.062 0-.2-4.438-.364-9.862-.364h-9.862l-.671-6.551c-.369-3.603-1.589-9.003-2.71-12L80.856 26H47.144l-2.039 5.449m41.303-3.199C88.894 36.969 90 41.73 90 43.71c0 2.196.329 2.29 8 2.29 4.4 0 8-.203 8-.451 0-2.319-2.659-11.923-4.235-15.299L99.78 26h-7.007c-6.789 0-6.986.07-6.365 2.25M122 48c0 21.333.061 22 2 22s2-.667 2-22-.061-22-2-22-2 .667-2 22M10 48c0 9.333.133 10 2 10s2-.667 2-10-.133-10-2-10-2 .667-2 10m104 0c0 9.333.133 10 2 10s2-.667 2-10-.133-10-2-10-2 .667-2 10m-60.397-.422C46.215 49.944 35 57.739 35 60.508c0 2.934 2.146 2.396 7.349-1.842C49.42 52.906 55.801 50.5 64 50.5s14.58 2.406 21.651 8.166C90.854 62.904 93 63.442 93 60.508c0-1.895-7.401-7.787-13.847-11.025-6.802-3.417-18.182-4.265-25.55-1.905m.641 12.398C48.768 62.461 43 66.865 43 68.56c0 2.711 2.035 2.4 6.476-.99 4.615-3.523 9.935-5.559 14.524-5.559 4.589 0 9.909 2.036 14.524 5.559 4.441 3.39 6.476 3.701 6.476.99 0-1.695-5.768-6.099-11.244-8.584-5.564-2.526-13.948-2.526-19.512 0m1.918 12.116c-4.627 2.351-6.085 4.385-4.372 6.098.741.741 2.048.348 4.383-1.317 4.49-3.202 11.128-3.228 15.57-.06 3.188 2.274 5.264 2.226 5.25-.122-.013-2.219-6.935-5.98-11.773-6.397-3.486-.3-5.854.17-9.058 1.798m3.493 11.737C56.067 87.793 58.825 94 64.174 94c5.121 0 7.792-6.911 3.997-10.345-2.415-2.186-6.455-2.103-8.516.174m2.791 3.258c-1.03 1.668 1.287 3.58 2.667 2.2C66.267 88.133 65.545 86 64 86c-.485 0-1.184.489-1.554 1.087m26.525 9.705c-4.14 3.689-9.72 8.624-12.398 10.965-4.774 4.173-4.834 4.297-3.045 6.274 1.004 1.11 2.128 1.894 2.497 1.743C76.989 115.38 98 91.304 98 90.594c0-1.441-1.981-.082-9.029 6.198m6.457 3.535c-.28.729.628 3.317 2.019 5.75 1.39 2.433 3.041 7.011 3.67 10.173.925 4.653 1.517 5.75 3.101 5.75 1.748 0 1.882-.455 1.248-4.25-1.263-7.561-6.403-18.75-8.612-18.75-.504 0-1.146.597-1.426 1.327m-10.789 12.347c-3.651 4.229-6.639 8.057-6.639 8.507 0 .451 4.5.819 10 .819s10-.403 10-.895c0-2.353-4.166-13.998-5.364-14.992-1.075-.893-2.74.473-7.997 6.561M57.15 117.75l-3.65 3.75 5.25.302c2.887.167 7.612.167 10.5 0l5.25-.302-3.65-3.75C68.133 114.958 66.382 114 64 114c-2.382 0-4.133.958-6.85 3.75" fill-rule="evenodd"/></svg>