<svg xmlns="http://www.w3.org/2000/svg" width="128" height="128"><path d="M84.655 1.829C83.184 3.454 83 7.397 83 37.27c0 21.329-.365 33.838-1 34.23-.55.34-1 1.89-1 3.446 0 2.303-.51 2.914-2.75 3.299-1.513.26-3.537.809-4.5 1.221-1.486.635-1.75.19-1.75-2.951 0-2.185.819-4.74 2-6.242 2.489-3.165 2.489-3.784 0-6.273-1.911-1.911-3.333-2-31.977-2H12.046l-1.672 2.552c-1.589 2.425-1.567 2.696.448 5.421 1.87 2.53 2.302 5.439 3.649 24.606C15.312 106.535 16 117.63 16 119.235c0 1.893 1.028 3.947 2.923 5.842L21.846 128H118l.007-2.25c.004-1.237-1.623-10.35-3.615-20.25-4.409-21.912-6.503-25.533-15.881-27.462-4.178-.86-4.386-2.773-4.453-41.065-.05-27.758-.286-32.854-1.615-34.75-1.888-2.696-5.538-2.881-7.788-.394M87 37.5c0 26.489.267 33.578 1.25 33.25.966-.322 1.25-7.872 1.25-33.25s-.284-32.928-1.25-33.25C87.267 3.922 87 11.011 87 37.5M14 67c0 .643 10.167 1 28.5 1S71 67.643 71 67s-10.167-1-28.5-1-28.5.357-28.5 1m4 7.35c0 2.809 5.957 9.451 10.409 11.606 4.052 1.961 5.856 2.181 15.429 1.883 9.927-.31 11.177-.572 14.825-3.103C62.014 82.412 67 75.76 67 73.614 67 73.276 55.975 73 42.5 73c-19.901 0-24.5.253-24.5 1.35m68 2.15c0 .933.944 1.5 2.5 1.5s2.5-.567 2.5-1.5-.944-1.5-2.5-1.5-2.5.567-2.5 1.5m-11.237 7.065C72.457 84.816 69 89.546 69 91.45c0 .303 8.733.55 19.406.55 18.909 0 19.393-.051 18.884-1.998-.287-1.1-2.061-3.35-3.941-5-3.372-2.961-3.572-3.001-14.634-2.962-7.96.028-12.009.471-13.952 1.525m-56.682 3.489c.044 2.445.611 11.328 1.26 19.739.887 11.497 1.549 15.526 2.669 16.234.82.519 9.402.949 19.072.958l17.582.015 3.748-18.25c2.061-10.037 4.01-19.374 4.332-20.747.567-2.428.476-2.403-3.257.875C57.599 91.047 54.333 92 42.5 92c-11.9 0-16.059-1.223-21.25-6.247L18 82.608l.081 4.446m47.643 22.196c-1.506 7.287-2.735 13.588-2.731 14 .004.412 1.512.75 3.352.75h3.346l1.212-10.25c.667-5.638 1.469-11.937 1.783-14 .524-3.449.377-3.75-1.827-3.75-2.271 0-2.541.697-5.135 13.25m10.38-4c-.637 5.088-1.429 11.388-1.76 14l-.602 4.75h3.11c3.81 0 3.928-.433 4.415-16.25.355-11.523.32-11.75-1.822-11.75-2.004 0-2.279.761-3.341 9.25m9.538-5.5c-.341 2.063-.625 8.362-.631 14L85 124h7v-4.846c0-2.666-.292-8.966-.65-14C90.74 96.56 90.565 96 88.481 96c-1.788 0-2.34.729-2.839 3.75m9.704 3.811c.36 4.257.654 10.598.654 14.09V124h3.512c3.492 0 3.508-.021 2.947-3.75-.31-2.062-1.107-8.25-1.771-13.75-1.132-9.386-1.353-10.021-3.601-10.34l-2.396-.34.655 7.741m8.686-4.881c.017 1.551.678 7.545 1.468 13.32.79 5.775 1.451 10.838 1.468 11.25.018.412 1.607.75 3.532.75s3.493-.112 3.484-.25c-.008-.138-1.276-6.325-2.817-13.75-2.506-12.077-3.031-13.534-4.984-13.82-1.809-.264-2.178.164-2.151 2.5m-81.598 5.632c-1.095 2.853-.015 9.188 1.566 9.188 1.13 0 1.5-1.213 1.5-4.917 0-4.842-1.855-7.427-3.066-4.271" fill-rule="evenodd"/></svg>