<svg xmlns="http://www.w3.org/2000/svg" width="128" height="128"><path d="M23.763 1.565c-2.979 1.617-5.134 5.131-6.209 10.126-.42 1.949.181 7.74 1.544 14.875l2.231 11.683-2.078 6.626c-1.142 3.644-3.694 10.771-5.67 15.839-10.013 25.675-8.674 49.86 3.529 63.758L20.207 128h9.856c9.392 0 9.973-.126 12.328-2.666 6.888-7.428 10.612-19.125 10.602-33.294-.01-13.129-2.543-23.207-10.355-41.199-.874-2.012-2.056-5.745-2.628-8.296-1.035-4.62-.922-5.811 2.148-22.673 1.064-5.843.994-7.187-.591-11.335C38.654.908 30.708-2.203 23.763 1.565m3.594 3.436c-4.89 1.952-6.693 9.245-4.448 17.999a260.69 260.69 0 0 1 1.513 6.25C24.993 31.798 25.403 32 30 32s5.007-.202 5.578-2.75A260.69 260.69 0 0 1 37.091 23c1.661-6.476 1.122-12.655-1.341-15.363-2.669-2.936-5.452-3.81-8.393-2.636M25 40.5V45h5.607c4.702 0 5.509-.255 5-1.582-.334-.87-.607-2.895-.607-4.5C35 36.083 34.858 36 30 36h-5v4.5m43.871-1.483C60.631 40.41 47 47.614 47 50.577c0 2.725 2.195 2.425 7.862-1.073C62.286 44.922 68.673 43 76.477 43c11.974 0 22.171 4.552 30.423 13.581 7.181 7.858 9.521 14.441 9.565 26.919.032 9.154-.228 10.555-3.074 16.562-9.663 20.392-33.418 28.884-54.247 19.392-2.946-1.342-5.759-2.192-6.25-1.888-5.235 3.235 11.48 10.465 24.066 10.41 27.068-.12 48.468-24.993 44.126-51.286-3.183-19.276-17.634-34.157-36.52-37.606-6.583-1.203-8.913-1.213-15.695-.067M22.087 51.206c-.493 1.262-2.347 5.888-4.12 10.281-8.941 22.153-8.831 43.512.292 57.164L21.5 123.5l8.215.29 8.215.29 3.002-4.145c5.802-8.009 7.449-14.095 7.425-27.435-.023-13.02-1.891-21.214-8.204-36l-2.989-7-7.09-.294c-6.597-.274-7.152-.135-7.987 2m65.775.812c-3.605 2.105-3.024 8.571 1.051 11.7 2.239 1.719 6.658 1.568 8.516-.289 5.378-5.379-2.93-15.288-9.567-11.411M90 57.378c0 2.215 2.875 4.147 4.2 2.822.82-.82.777-1.523-.165-2.658C92.446 55.628 90 55.528 90 57.378m9.223 9.179c-4.941 3.46-.682 12.443 5.9 12.443 5.829 0 7.501-7.478 2.676-11.972-2.604-2.426-5.554-2.588-8.576-.471M83 68c-4.434 4.434-.207 12.44 6.235 11.812 6.584-.642 7.417-9.827 1.15-12.682-3.514-1.601-5.101-1.414-7.385.87m19.17 3.162c.182 1.275 1.117 2.468 2.08 2.651 2.476.472 2.223-2.49-.33-3.856-1.853-.991-2.044-.86-1.75 1.205M86 72.227C86 73.764 87.937 76 89.27 76c.478 0 .725-1.008.55-2.24-.345-2.418-3.82-3.813-3.82-1.533m-67.996 2.261c-1.901 5.002-3.231 16.99-2.585 23.3 1.15 11.224 7.179 23.421 10.519 21.283 1.196-.767.861-2.056-2-7.697-3.423-6.747-3.437-6.83-3.232-19.325.113-6.902.338-14.081.5-15.954.364-4.22-1.796-5.304-3.202-1.607m91.684 7.209c-.273.442-.97 3.372-1.55 6.511-.58 3.14-1.927 7.415-2.994 9.5-4.443 8.684-14.706 15.861-24.311 16.998-4.931.584-7.105 2.422-5.163 4.364 1.539 1.539 12.3-.963 18.656-4.337 10.396-5.519 17.863-16.899 18.068-27.536.065-3.351-.346-5.651-1.052-5.898-.637-.223-1.382-.043-1.654.398" fill-rule="evenodd"/></svg>