<svg xmlns="http://www.w3.org/2000/svg" width="128" height="128"><path d="M62 23.019c0 2.651-.727 5.09-2 6.708-1.615 2.053-2 4.057-2 10.408V48h-6c-5.733 0-6-.111-6-2.5 0-1.375.9-3.4 2-4.5 2.222-2.222 2.651-6.949.8-8.8-1.552-1.552-8.048-1.552-9.6 0-1.851 1.851-1.422 6.578.8 8.8 1.1 1.1 2 3.069 2 4.376 0 2.167-.499 2.418-5.668 2.846-4.8.398-6.102.956-8.5 3.64-2.984 3.339-3.639 6.931-1.632 8.938.813.813 5.489 1.2 14.5 1.2H54v3.345C54 69.129 56.514 72 59.829 72c2.109 0 2.172.351 2.191 12.25l.02 12.25-5.188 4.59c-3.736 3.305-5.007 5.064-4.539 6.283.566 1.476 2.092 1.657 11.906 1.41 13.607-.342 14.625-1.441 6.875-7.419L66.085 97.5l-.042-12.75C66 72.029 66.005 72 68.345 72c3.858 0 5.817-3.1 5.464-8.644L73.5 58.5l-22.32-.269c-20.413-.247-22.291-.415-21.991-1.975.732-3.801 4.2-4.226 34.627-4.241C92.738 52 96.192 52.34 98.235 55.4c1.495 2.24.556 2.534-8.985 2.814-7.873.231-9.75.575-9.75 1.786 0 1.2 1.797 1.559 9 1.794 11.067.362 13.3-.149 14.07-3.216 1.304-5.195-4.956-10.568-12.32-10.574C86.235 48 86 47.841 86 45.122c0-1.582.675-3.437 1.5-4.122 2.055-1.705 1.995-8.596-.082-9.393-2.607-1-6.937-.688-8.218.593-1.851 1.851-1.422 6.578.8 8.8 1.1 1.1 2 3.125 2 4.5 0 2.389-.267 2.5-6 2.5h-6v-7.596c0-5.898-.431-8.2-1.928-10.303-1.06-1.489-2.073-4.48-2.25-6.646-.229-2.797-.829-4.034-2.072-4.27-1.44-.273-1.75.407-1.75 3.834m.688 9.627c-.379.378-.688 3.987-.688 8.021 0 6.717.172 7.333 2.042 7.333 1.904 0 2.022-.519 1.75-7.67-.267-7.013-1.277-9.512-3.104-7.684M4 34.778c-3.626 1.093-4 3.233-4 22.878V76.93l3.104 3.535C4.811 82.409 7.109 84 8.211 84c1.381 0 1.822.472 1.42 1.52-2.279 5.937-6.852 22.593-6.343 23.101 1.722 1.722 3.551-1.405 7.044-12.042l3.833-11.67 6.039.295 6.039.296 1.73 4.5c.951 2.475 2.96 7.763 4.465 11.75 2.449 6.486 4.515 8.761 5.905 6.5.254-.412-1.295-5.424-3.441-11.137-2.146-5.712-3.899-10.662-3.896-11 .004-.337 1.354-1.38 3-2.316C36.279 82.503 37 81.376 37 79.118 37 73.827 35.102 73 22.962 73H12.068l-.284-10.75C11.552 53.487 11.223 51.5 10 51.5c-1.229 0-1.551 2.055-1.784 11.357-.188 7.517.107 11.828.873 12.75C9.954 76.649 13.128 77 21.696 77c10.369 0 11.418.165 11.11 1.75-.303 1.554-1.724 1.75-12.664 1.75C3.266 80.5 4 81.554 4 57.316c0-17.043.135-18.437 1.75-18.131 1.161.22 1.857 1.443 2.068 3.633.405 4.205 3.518 4.095 4.005-.141.563-4.897-3.655-9.156-7.823-7.899m116.315.297C116.535 36.48 116 39.129 116 56.434V73h-10.929C92.896 73 91 73.824 91 79.118c0 2.258.721 3.385 2.994 4.679 1.646.936 2.996 1.979 3 2.316.003.338-1.75 5.288-3.896 11-2.146 5.713-3.695 10.724-3.441 11.137 1.39 2.261 3.456-.014 5.905-6.5A2715.01 2715.01 0 0 1 100.027 90l1.73-4.5 6.039-.296 6.039-.295 3.833 11.67c3.488 10.621 5.322 13.764 7.036 12.051.486-.487-4.149-17.298-6.446-23.38-.28-.741.344-1.25 1.531-1.25 1.102 0 3.4-1.591 5.107-3.535L128 76.93V57.656c0-19.64-.351-21.648-4-22.885-.825-.279-2.483-.143-3.685.304M42.19 36.75c.186.962 1 1.75 1.81 1.75s1.624-.788 1.81-1.75C46.046 35.522 45.506 35 44 35s-2.046.522-1.81 1.75m39.987-.083c.486 2.509 2.823 2.853 2.823.416C85 35.855 84.354 35 83.427 35c-.932 0-1.442.68-1.25 1.667m38.49 3c-.367.366-.667 8.376-.667 17.8 0 11.992-.36 17.493-1.2 18.333-.793.793-5.061 1.2-12.573 1.2-10.295 0-11.341.166-11.033 1.75.303 1.554 1.724 1.75 12.664 1.75C124.729 80.5 124 81.543 124 57.389 124 42.732 123.729 39 122.667 39c-.734 0-1.634.3-2 .667M58 65v3h12v-6H58v3m2.861 37.967-2.361 1.966 5.5.011 5.5.012L67 103c-3.113-2.435-3.256-2.435-6.139-.033" fill-rule="evenodd"/></svg>