<svg xmlns="http://www.w3.org/2000/svg" width="128" height="128"><path d="M17.938 2.566 15.5 5.161v117.678l2.438 2.595 2.438 2.596 29.062-.265c25.049-.228 29.062-.472 29.062-1.765 0-1.284-3.436-1.539-23.85-1.768-21.151-.238-23.782-.446-23.25-1.832.33-.86.6-1.752.6-1.982 0-.23 1.589-.418 3.531-.418 2.261 0 3.745-.555 4.124-1.543.864-2.252-.178-2.853-5.966-3.435L28.5 114.5l-.27-21.817c-.254-20.597-.156-21.961 1.75-24.385 2.55-3.241 2.55-5.355 0-8.596-1.906-2.424-2.004-3.788-1.75-24.385L28.5 13.5h71l.27 21.817c.254 20.597.156 21.961-1.75 24.385-2.55 3.241-2.55 5.355 0 8.596 1.906 2.424 2.004 3.788 1.75 24.385L99.5 114.5l-26.669.5c-14.667.275-26.985.818-27.373 1.207-.388.389-.439 1.401-.113 2.25.512 1.334 3.974 1.543 25.517 1.543 21.805 0 25 .198 25.531 1.582.334.87.607 1.77.607 2 0 .23-2.925.418-6.5.418-5.833 0-6.5.205-6.5 2 0 1.887.667 2 11.826 2 11.419 0 11.909-.089 14.25-2.581l2.424-2.58V5.161l-2.424-2.58C107.778.135 107.12 0 97.492 0c-5.587 0-10.428.269-10.756.598-.329.329-.356 1.229-.06 2C87.038 3.542 88.847 4 92.214 4c4.148 0 4.897.269 4.393 1.582-.334.87-.607 1.77-.607 2C96 7.812 81.648 8 64.107 8c-28.16 0-31.964-.185-32.5-1.582-.334-.87-.607-1.762-.607-1.983 0-.22 11.362-.521 25.25-.668C77.909 3.538 81.5 3.287 81.5 2 81.5.705 77.32.464 50.938.236L20.375-.028l-2.437 2.594m3.312 2.096c-1.71.69-1.578 4.821.202 6.298 1.748 1.451 5.136.557 5.952-1.571 1.352-3.522-2.261-6.298-6.154-4.727m79.789 1.266c-1.307 2.442-.419 4.817 2.101 5.617 2.517.798 4.86-1.16 4.86-4.06 0-3.679-5.203-4.843-6.961-1.557M20 36c0 20.32.047 20.8 2 20.29 1.915-.501 2-1.364 2-20.29s-.085-19.789-2-20.29c-1.953-.51-2-.03-2 20.29m85.75-20.311c-1.592.416-1.75 2.242-1.75 20.268 0 18.969.085 19.832 2 20.333 1.953.51 2 .03 2-20.384 0-11.498-.112-20.854-.25-20.79-.138.064-1.037.322-2 .573m-56.503 7.548c-2.985 3.177-2.883 7.269.253 10.175 1.375 1.275 2.5 3.2 2.5 4.278 0 1.079 1.125 3.018 2.5 4.31 1.375 1.292 2.5 3.363 2.5 4.602C57 49.087 61.281 53 64 53c2.719 0 7-3.913 7-6.398 0-1.239 1.125-3.31 2.5-4.602 1.375-1.292 2.5-3.231 2.5-4.31 0-1.078 1.125-3.003 2.5-4.278 3.268-3.028 3.289-7.322.051-10.364-1.889-1.774-3.09-2.143-5.25-1.61-1.541.38-3.588.648-4.551.595-2.068-.114-7.029-.126-9.5-.024-.962.04-3.101-.206-4.753-.546-2.364-.486-3.482-.108-5.25 1.774m2.905 2.648c-2.025 1.283-.95 4.57 1.613 4.935 2.687.383 4.006-2.186 2.224-4.333-1.414-1.704-1.963-1.79-3.837-.602m9.859.602C60.349 28.489 61.456 31 64 31c1.135 0 2.324-.681 2.643-1.513C67.218 27.99 65.457 25 64 25c-.415 0-1.311.669-1.989 1.487m10 0c-1.782 2.147-.463 4.716 2.224 4.333 2.563-.365 3.638-3.652 1.613-4.935-1.874-1.188-2.423-1.102-3.837.602M56.362 35.5c-.793 2.064.282 4.5 1.984 4.5 2.002 0 3.984-2.698 3.297-4.487-.749-1.954-4.533-1.963-5.281-.013m9.997.007c-.353.92.057 2.337.927 3.207 2.124 2.124 4.941.907 4.534-1.96-.394-2.777-4.513-3.717-5.461-1.247m-5.027 9.071c-.333.867.131 2.314 1.031 3.214 1.516 1.515 1.758 1.515 3.274 0C67.681 45.747 66.743 43 64 43c-1.135 0-2.335.71-2.668 1.578M21.25 60.662c-1.819.734-1.559 6.005.332 6.731C24.349 68.455 25.9 68.056 27 66c2.055-3.84-1.435-7.079-5.75-5.338M101 62c-1.256 2.346.238 6 2.453 6 3.056 0 4.547-1.312 4.547-4 0-4.181-5.059-5.626-7-2M20 92c0 20.32.047 20.8 2 20.29 1.915-.501 2-1.364 2-20.29s-.085-19.789-2-20.29c-1.953-.51-2-.03-2 20.29m85.75-20.311c-1.592.416-1.75 2.242-1.75 20.268 0 18.969.085 19.832 2 20.333 1.953.51 2 .03 2-20.384 0-11.498-.112-20.854-.25-20.79-.138.064-1.037.322-2 .573M61.315 85.016c-6.928 2.762-4.8 13.317 2.685 13.317 5.908 0 9.073-6.714 5.25-11.135-2.177-2.518-5.085-3.318-7.935-2.182m.048 5.481c-.346.901-.167 2.099.398 2.664 1.63 1.63 4.739.531 4.739-1.675 0-2.543-4.228-3.358-5.137-.989M21.2 117.2c-.66.66-1.2 2.226-1.2 3.481 0 3.151 4.727 4.412 6.656 1.775 1.719-2.351 1.69-2.967-.227-4.885-1.879-1.879-3.599-2.001-5.229-.371m80.371.371c-1.917 1.918-1.946 2.534-.227 4.885 1.929 2.637 6.656 1.376 6.656-1.775 0-4.281-3.543-5.995-6.429-3.11" fill-rule="evenodd"/></svg>