<svg xmlns="http://www.w3.org/2000/svg" width="128" height="128"><path d="M0 64.022v41.993l64.25-.258 64.25-.257.261-42 .261-42-64.511.264L0 22.029v41.993M.458 64c0 23.375.131 32.938.291 21.25.16-11.687.16-30.812 0-42.5C.589 31.063.458 40.625.458 64M4 30.5V36h5.822C26.222 36 38.5 47.988 38.5 64S26.222 92 9.822 92H4v11h58V82.402l-3.403-1.231c-16.669-6.027-16.669-28.315 0-34.342L62 45.598V25H4v5.5m62 4.799v10.299l3.403 1.231c16.669 6.027 16.669 28.315 0 34.342L66 82.402V103h58V92h-5.822C101.778 92 89.5 80.012 89.5 64s12.278-28 28.678-28H124V25H66v10.299M4 45.284v6.561l13.75.335c7.563.185 13.908.249 14.101.143.193-.105-.818-1.724-2.246-3.596-3.79-4.969-10.959-8.503-18.901-9.316L4 38.724v6.56m108.897-5.35c-4.977.972-11.936 5.244-14.735 9.047-1.286 1.747-2.186 3.257-2 3.355.186.099 6.526.029 14.088-.156l13.75-.335V39l-3.75.115c-2.062.063-5.371.432-7.353.819M56.299 51.96c-8.677 5.29-8.315 19.878.607 24.491C58.553 77.303 60.373 78 60.95 78c.683 0 1.05-4.892 1.05-14 0-15.325-.071-15.474-5.701-12.04M66 64c0 9.108.367 14 1.05 14 .577 0 2.397-.697 4.044-1.549 8.922-4.613 9.284-19.201.607-24.491C66.071 48.526 66 48.675 66 64M4 64v8h7c6.399 0 8.577-.907 6-2.5-.55-.34-1-2.815-1-5.5s.45-5.16 1-5.5c2.577-1.593.399-2.5-6-2.5H4v8m106-7.059c0 .518.45 1.219 1 1.559.55.34 1 2.815 1 5.5s-.45 5.16-1 5.5c-2.577 1.593-.399 2.5 6 2.5h7V56h-7c-3.85 0-7 .423-7 .941M21.573 58.57c-3.204 3.204-2.775 9.26.827 11.665 2.234 1.491 2.6.613 2.6-6.235 0-7.153-.659-8.198-3.427-5.43M29 64c0 7.412.706 8.294 4 5 2.393-2.393 2.588-6.715.443-9.777C30.405 54.884 29 56.395 29 64m65.557-4.777C93.701 60.445 93 62.595 93 64c0 3.074 2.556 7 4.557 7C98.677 71 99 69.433 99 64c0-7.605-1.405-9.116-4.443-4.777M103 64c0 7.153.659 8.198 3.427 5.43 3.204-3.204 2.775-9.26-.827-11.665-2.234-1.491-2.6-.613-2.6 6.235M16.75 75.747 4 76.06v13.216l6.704-.687c7.873-.806 15.106-4.339 18.8-9.184 2.808-3.681 3.052-4.502 1.246-4.188-.687.12-6.988.358-14 .53M96 75.45c0 .376 1.123 2.156 2.496 3.955 3.694 4.845 10.927 8.378 18.8 9.184l6.704.687V76l-11.75-.014c-6.463-.007-12.763-.285-14-.616-1.237-.332-2.25-.296-2.25.08" fill-rule="evenodd"/></svg>