<svg xmlns="http://www.w3.org/2000/svg" width="128" height="128"><path d="M52.644 7.181C50.792 11.207 42.197 29.575 33.546 48l-15.73 33.5L10.45 89c-4.052 4.125-8.06 9.173-8.908 11.218-6.577 15.858 10.382 32.817 26.24 26.24 2.045-.848 7.093-4.838 11.218-8.866l7.5-7.324L86.754 91.41c39.505-18.507 43.327-20.729 40.509-23.547-.515-.515-2.243-1.173-3.841-1.463-3.859-.7-5.718-2.523-9.038-8.865-2.38-4.546-3.586-5.671-8.497-7.925C99.522 46.688 95 42.072 95 38.495 95 35.47 92.512 33 89.463 33c-3.601 0-8.962-5.339-11.406-11.359-1.895-4.669-2.801-5.647-7.09-7.657-6.016-2.817-8.53-5.406-9.695-9.984-.631-2.482-1.526-3.593-3.075-3.819-1.842-.268-2.714.831-5.553 7m-7.506 31.055C38.421 52.61 33.054 65.038 33.212 65.853c.159.815.738 1.626 1.288 1.803.55.177 8.324-10.36 17.276-23.417C68.006 20.566 68.045 20.496 65.799 19c-1.238-.825-3.646-2.715-5.35-4.2l-3.099-2.7-12.212 26.136m11.471 10.857C40.563 72.5 39.872 73.989 43.603 77.086c1.301 1.079 4.391-1.597 20.961-18.15C75.254 48.257 84 39.274 84 38.975c0-.299-1.392-1.366-3.093-2.371-1.7-1.004-4.324-3.769-5.829-6.143l-2.738-4.316-15.731 22.948m12.436 14.362c-19.229 19.248-19.416 19.477-17.586 21.5C52.477 86.08 53.853 87 54.518 87c1.129 0 42.442-27.78 45.281-30.448 1.048-.986.533-1.728-2.671-3.849-2.183-1.445-4.777-3.994-5.765-5.665C90.376 45.367 89.324 44 89.025 44c-.299 0-9.29 8.755-19.98 19.455m14.476 12.546c-12.639 8.73-23.12 16.296-23.292 16.813-1.111 3.333 5.15 1.177 28.572-9.839 14.079-6.622 25.813-12.255 26.076-12.518.262-.263-.673-1.711-2.078-3.217-1.405-1.507-3.075-3.753-3.712-4.99s-1.479-2.222-1.872-2.187c-.393.035-11.056 7.207-23.694 15.938m-56.789 1.473-2.6 5.301 2.43 2.283c1.337 1.256 2.57 2.094 2.741 1.863.171-.232 1.708-2.236 3.416-4.453 3.38-4.39 3.192-5.986-1.03-8.752-2.313-1.516-2.405-1.446-4.957 3.758M37.021 87.62c-4.39 6.113-2.814 7.968 2.914 3.431 4.45-3.524 5.058-5.449 2.206-6.976-1.56-.835-2.384-.264-5.12 3.545M14.33 94.25C8.021 100.744 7 102.7 7 108.299c0 9.658 10.215 15.54 19.411 11.176 1.767-.838 5.422-3.767 8.122-6.509l4.91-4.984-9.452-9.491C24.793 93.271 20.29 89 19.986 89c-.305 0-2.85 2.362-5.656 5.25m31.083.933c-4.792 3.563-4.968 4.005-2.493 6.244 1.88 1.702 2.171 1.703 6.556.029 5.51-2.104 5.877-2.586 4.415-5.796-1.654-3.63-4.057-3.766-8.478-.477" fill-rule="evenodd"/></svg>