<svg xmlns="http://www.w3.org/2000/svg" width="128" height="128"><path d="M86.712.622c-.392.391-.713 2.324-.713 4.295-.002 3.527-.098 3.611-6.165 5.394-5.211 1.532-7.204 2.852-12.894 8.543-5.806 5.806-7.02 7.666-8.836 13.544-4.477 14.496-1.105 27.813 9.54 37.674 5.192 4.809 8.032 6.457 14.365 8.338 26.898 7.988 52.392-17.492 44.407-44.382-3.29-11.077-12.545-20.862-22.51-23.798-5.741-1.692-5.818-1.765-6.11-5.722L97.5.5 92.462.205c-2.772-.162-5.359.025-5.75.417M34 11c0 8.333.148 9 2 9s2-.667 2-9-.148-9-2-9-2 .667-2 9m34-5c0 1.333.667 2 2 2s2-.667 2-2-.667-2-2-2-2 .667-2 2m22 1c0 2.333.444 3 2 3s2-.667 2-3-.444-3-2-3-2 .667-2 3M12 17c0 4.333.267 5 2 5s2-.667 2-5-.267-5-2-5-2 .667-2 5m65.952-1.386C69.264 19.639 70.421 20 92 20c13.346 0 19.907-.341 19.491-1.014-.345-.558-2.504-1.972-4.798-3.143-6.206-3.166-22.129-3.293-28.741-.229M52 16c0 1.333.667 2 2 2s2-.667 2-2-.667-2-2-2-2 .667-2 2m-46.562.101c-.375.605.269 2.05 1.43 3.211 1.628 1.629 2.381 1.839 3.297.923.917-.917.77-1.649-.644-3.211-2.069-2.287-3.097-2.519-4.083-.923m13.041.923c-1.414 1.562-1.561 2.294-.644 3.211.916.916 1.669.706 3.297-.923 1.161-1.161 1.805-2.606 1.43-3.211-.986-1.596-2.014-1.364-4.083.923M2 24c0 1.733.667 2 5 2s5-.267 5-2-.667-2-5-2-5 .267-5 2m14 0c0 1.733.667 2 5 2s5-.267 5-2-.667-2-5-2-5 .267-5 2m18 2c0 1.333.667 2 2 2s2-.667 2-2-.667-2-2-2-2 .667-2 2m32.5-1c-.406.657 8.343 1 25.5 1s25.906-.343 25.5-1c-.839-1.358-50.161-1.358-51 0M12 31c0 4.333.267 5 2 5s2-.667 2-5-.267-5-2-5-2 .667-2 5m-5.521-1.976c-1.414 1.562-1.561 2.294-.644 3.211.916.916 1.669.706 3.297-.923 1.161-1.161 1.805-2.606 1.43-3.211-.986-1.596-2.014-1.364-4.083.923m10.959-.923c-.375.605.269 2.05 1.43 3.211 1.628 1.629 2.381 1.839 3.297.923.917-.917.77-1.649-.644-3.211-2.069-2.287-3.097-2.519-4.083-.923m43.968 7.574c-1.89 6.502-1.5 13.571 1.107 20.075L64.217 60h55.566l1.704-4.25c2.607-6.504 2.997-13.573 1.107-20.075L120.944 30H63.056l-1.65 5.675M34 39.883c0 7.043-.213 7.94-2 8.407-1.562.408-2 1.364-2.001 4.366l-.002 3.844-6.163 1.811c-5.211 1.532-7.204 2.852-12.894 8.543-5.806 5.806-7.02 7.666-8.836 13.544-4.477 14.496-1.105 27.813 9.54 37.674 5.192 4.809 8.032 6.457 14.365 8.338 26.898 7.988 52.392-17.492 44.407-44.382-3.298-11.104-12.546-20.865-22.554-23.806-5.83-1.713-5.859-1.741-5.861-5.566C42 49.654 41.562 48.698 40 48.29c-1.787-.467-2-1.364-2-8.407C38 32.667 37.831 32 36 32s-2 .667-2 7.883M89.268 36c-1.493 3.801-1.785 4-5.861 4-5.44 0-6.321 1.436-3.005 4.897 2.196 2.293 2.578 3.516 2.359 7.561-.314 5.804.892 6.546 5.007 3.083C89.43 54.144 91.334 53 92 53c.666 0 2.57 1.144 4.232 2.541 4.115 3.463 5.321 2.721 5.007-3.083-.219-4.045.163-5.268 2.359-7.561 3.316-3.461 2.435-4.897-3.005-4.897-4.076 0-4.368-.199-5.861-4-.864-2.2-2.094-4-2.732-4-.638 0-1.868 1.8-2.732 4M91 43c0 .55-1.035 1-2.299 1-2.045 0-2.254.392-1.885 3.551.383 3.281.544 3.433 2.128 2 2.17-1.964 3.942-1.964 6.112 0 1.584 1.433 1.745 1.281 2.128-2 .369-3.159.16-3.551-1.885-3.551C94.035 44 93 43.55 93 43s-.45-1-1-1-1 .45-1 1m-73 5c0 1.333.667 2 2 2s2-.667 2-2-.667-2-2-2-2 .667-2 2m16 7c0 2.333.444 3 2 3s2-.667 2-3-.444-3-2-3-2 .667-2 3m-12.022 8.602C6.94 70.569-.05 90.149 7.197 105c1.476 3.025 3.383 6.369 4.236 7.431 1.524 1.896 1.599 1.888 4.066-.43l2.514-2.362 2.994 2.867L24 115.374l3-2.874 3-2.874 3 2.874 3 2.874 3-2.874 3-2.874 3 2.874 3 2.874 2.993-2.868 2.994-2.867 2.514 2.362c2.467 2.318 2.542 2.326 4.066.43 7.327-9.116 9.136-23.194 4.307-33.517-3.056-6.533-8.221-12.03-14.14-15.05-6.234-3.18-22.145-3.325-28.756-.262M68 65c0 .639 8.667 1 24 1s24-.361 24-1-8.667-1-24-1-24 .361-24 1m-24 2.933c0 1.088.922 2.225 2.111 2.602 3.167 1.005 9.489 7.084 10.893 10.476C58.402 84.386 62 85.206 62 82.15c0-2.716-5.392-9.697-10.154-13.146C47.027 65.513 44 65.099 44 67.933M30.549 72.95c-3.811 3.87-4.631 5.246-3.754 6.303.851 1.025.648 2.134-.836 4.574-1.077 1.772-1.961 3.998-1.963 4.947-.002.949-.929 3.244-2.06 5.099C19.115 98.5 19.965 100 25.408 100c4.445 0 4.473.022 4.782 3.75l.31 3.75h11l.307-3.698c.302-3.634.387-3.702 4.922-4 2.538-.166 4.781-.808 4.984-1.426.203-.618-.807-2.523-2.245-4.232-1.72-2.044-2.405-3.767-2.002-5.037.357-1.126-.22-3.298-1.386-5.215-1.515-2.491-1.726-3.613-.875-4.639.877-1.057.057-2.433-3.754-6.303C38.769 70.228 36.316 68 36 68c-.316 0-2.769 2.228-5.451 4.95M79 72.823c4.452 2.15 6.929 2.656 13 2.656s8.548-.506 13-2.656l5.5-2.656h-37l5.5 2.656M34 74.5c-1.063 1.281-.771 1.5 2 1.5s3.063-.219 2-1.5c-.685-.825-1.585-1.5-2-1.5-.415 0-1.315.675-2 1.5M31.5 83l-1.551 3h12.102L40.5 83c-1.192-2.304-2.235-3-4.5-3s-3.308.696-4.5 3M84 86c0 1.333-.667 2-2 2s-2 .667-2 2 .667 2 2 2 2 .667 2 2 .667 2 2 2 2-.667 2-2 .667-2 2-2 2-.667 2-2-.667-2-2-2-2-.667-2-2-.667-2-2-2-2 .667-2 2m26 2c0 1.333.667 2 2 2s2-.667 2-2-.667-2-2-2-2 .667-2 2m-50 2c0 1.333.667 2 2 2s2-.667 2-2-.667-2-2-2-2 .667-2 2m-32.5 3-1.551 3h9.525c5.239 0 9.526-.372 9.526-.826 0-.454-1.042-1.804-2.314-3C40.872 90.471 39.146 90 34.711 90c-5.277 0-5.764.203-7.211 3m84.5 10c0 4.333.267 5 2 5s2-.667 2-5-.267-5-2-5-2 .667-2 5m-78-1c0 1.333.667 2 2 2s2-.667 2-2-.667-2-2-2-2 .667-2 2m71.438.101c-.375.605.269 2.05 1.43 3.211 1.628 1.629 2.381 1.839 3.297.923.917-.917.77-1.649-.644-3.211-2.069-2.287-3.097-2.519-4.083-.923m13.041.923c-1.414 1.562-1.561 2.294-.644 3.211.916.916 1.669.706 3.297-.923 1.161-1.161 1.805-2.606 1.43-3.211-.986-1.596-2.014-1.364-4.083.923M90 108c0 1.333.667 2 2 2s2-.667 2-2-.667-2-2-2-2 .667-2 2m12 2c0 1.733.667 2 5 2s5-.267 5-2-.667-2-5-2-5 .267-5 2m14 0c0 1.733.667 2 5 2s5-.267 5-2-.667-2-5-2-5 .267-5 2m-4 7c0 4.333.267 5 2 5s2-.667 2-5-.267-5-2-5-2 .667-2 5m-5.521-1.976c-1.414 1.562-1.561 2.294-.644 3.211.916.916 1.669.706 3.297-.923 1.161-1.161 1.805-2.606 1.43-3.211-.986-1.596-2.014-1.364-4.083.923m10.959-.923c-.375.605.269 2.05 1.43 3.211 1.628 1.629 2.381 1.839 3.297.923.917-.917.77-1.649-.644-3.211-2.069-2.287-3.097-2.519-4.083-.923M16.51 115.985C15.063 118.326 28.86 124 36 124c7.767 0 21.482-5.918 19.14-8.26-.836-.836-1.903-.383-4.133 1.754L48 120.374l-3-2.874-3-2.874-3 2.874-3 2.874-3-2.874-3-2.874-3 2.874-3 2.874-2.805-2.687c-3.061-2.932-3.767-3.189-4.685-1.702M70 120c0 1.333.667 2 2 2s2-.667 2-2-.667-2-2-2-2 .667-2 2" fill-rule="evenodd"/></svg>