<svg xmlns="http://www.w3.org/2000/svg" width="128" height="128"><path d="M32 1.706c-2.278.833-6.033 4.493-7.5 7.31-.72 1.384-1.465 5.433-1.655 8.998-.31 5.818-.128 6.577 1.775 7.415 2.412 1.062 6.079 7.205 4.966 8.319-.405.404-3.247 1.639-6.317 2.744-8.611 3.098-9.701 5.204-10.102 19.524l-.332 11.877-4.168.304L4.5 68.5l-.302 5.25C3.926 78.462 4.104 79 5.929 79c1.979 0 2.041.626 2.303 23.25L8.5 125.5l37.5.555c33.819.501 37.746.393 40.009-1.101 2.35-1.553 2.665-1.543 5 .154 2.232 1.622 3.841 1.737 15.491 1.101l13-.709.268-23.25c.262-22.624.324-23.25 2.303-23.25 1.825 0 2.003-.538 1.731-5.25l-.302-5.25-4.25-.307-4.25-.308-.004-12.192c-.004-14.812-1.293-17.909-8.2-19.713a438.408 438.408 0 0 1-9.228-2.551c-2.712-.786-6.762-1.423-9-1.417-4.613.015-21.052 4.315-23.151 6.057-2.298 1.907-3.396 7.854-3.589 19.431l-.183 11-.572-12.18c-.689-14.65-1.784-16.749-10.342-19.828-3.07-1.105-5.912-2.34-6.317-2.744-1.114-1.114 2.554-7.258 4.966-8.317 1.923-.844 2.087-1.582 1.769-7.931-.398-7.936-2.151-11.711-6.767-14.569C41.411 1.091 35.329.489 32 1.706m1.378 3.755C29.854 6.968 27 10.503 27 13.362c0 1.719.53 1.854 5.126 1.309 2.82-.334 6.241-1.337 7.602-2.229 2.372-1.554 2.599-1.503 5.45 1.218l2.975 2.84-.695-3C46.61 9.838 42.385 5.433 39 4.682c-1.375-.305-3.905.045-5.622.779m46.857 2.962c-3.469 3.18-3.735 3.825-3.735 9.077s.266 5.897 3.735 9.077C83.221 29.313 84.795 30 88.081 30 95.585 30 101 24.761 101 17.5S95.585 5 88.081 5c-3.286 0-4.86.687-7.846 3.423m6.265.388c-6.325 1.229-8.927 10.561-4.186 15.015 3.356 3.152 9.581 2.98 12.712-.353 5.928-6.311.098-16.337-8.526-14.662M36 17.465l-4.5 1.204v4.877c0 4.281.336 5.065 2.75 6.416 2.472 1.383 3.028 1.383 5.5.004 2.477-1.381 2.78-2.151 3.048-7.75.329-6.88.559-6.719-6.798-4.751m-.664 18.702c.63 1.008 1.471 1.833 1.869 1.833.399 0 1.166-.825 1.706-1.833.845-1.579.585-1.834-1.869-1.834-2.514 0-2.716.217-1.706 1.834M77.5 37.663c-8.487 2.468-10.506 3.513-11.048 5.714-.287 1.167-.394 9.773-.237 19.123.272 16.238.375 17 2.285 17 1.902 0 2.014-.759 2.277-15.477.268-14.971 1.153-19.33 3.249-16.015.519.821.95 7.005.959 13.742L75 74h27V61.622c0-9.738.317-12.64 1.488-13.612 2.219-1.842 2.459-.402 2.752 16.49.247 14.247.36 15 2.26 15 1.916 0 2.011-.757 2.272-18.029.202-13.413-.054-18.447-1-19.661-1.743-2.236-15.632-5.833-22.033-5.706-2.882.057-7.489.759-10.239 1.559m-46.308 2.272c.664 1.065 1.59 1.7 2.057 1.411.953-.589-1.007-3.346-2.38-3.346-.487 0-.342.871.323 1.935m9.882-.524c-.644.776-.789 1.647-.323 1.935.467.289 1.393-.346 2.057-1.411 1.389-2.224.02-2.638-1.734-.524m-17.779.754C17.914 41.624 17 44.028 17 56.723 17 67.333 17.118 68 19 68c1.861 0 2-.667 2-9.573 0-8.579.182-9.539 1.75-9.239 1.49.285 1.793 1.705 2.038 9.573L25.075 68h3.971c3.637 0 3.872-.158 2.796-1.881-.898-1.438-.9-3.545-.008-8.943 1.484-8.988 1.468-11.174-.084-11.186-.687-.005-2.15-1.514-3.25-3.352-1.845-3.083-2.249-3.275-5.205-2.473m22.212 2.452C44.505 44.478 43.029 46 42.227 46c-1.207 0-1.31.988-.601 5.75.471 3.163.86 8.113.865 11L42.5 68H50v-9.5c0-7.778.272-9.5 1.5-9.5s1.5 1.722 1.5 9.5c0 8.833.14 9.5 2 9.5 1.883 0 2-.667 2-11.389 0-12.698-.879-14.9-6.586-16.508-2.844-.801-3.228-.605-4.907 2.514M36.851 50.5c-1.22 1.885-1.942 13.972-.927 15.495.863 1.294 1.182 1.242 2.375-.389 1.006-1.376 1.165-3.127.591-6.495-.433-2.536-.923-5.736-1.09-7.111-.166-1.375-.594-2.05-.949-1.5M7 73.5c0 1.297 3.722 1.5 27.5 1.5S62 74.797 62 73.5 58.278 72 34.5 72 7 72.203 7 73.5m108 0c0 1 1 1.5 3 1.5s3-.5 3-1.5-1-1.5-3-1.5-3 .5-3 1.5M75 98.878c0 23.694.153 24.372 5.5 24.372s5.5-.678 5.5-24.372V77H75v21.878m15.667-21.211C90.3 78.033 90 87.433 90 98.556c0 18.027.197 20.465 1.81 22.458 2.007 2.479 6.303 2.967 8.687.989 1.254-1.041 1.503-4.879 1.503-23.125V77h-5.333c-2.934 0-5.634.3-6 .667M12 100.5V122l29.75.001 29.75.001-.292-19.001L70.916 84H68.53C66.146 84 63 81.684 63 79.929 63 79.381 52.526 79 37.5 79H12v21.5m102-20.035c0 1.723-3.021 3.535-5.892 3.535-1.951 0-2.035.688-2.316 19.001l-.292 19.001 5.25-.001L116 122v-21.5c0-13.667-.364-21.5-1-21.5-.55 0-1 .659-1 1.465" fill-rule="evenodd"/></svg>