<svg xmlns="http://www.w3.org/2000/svg" width="128" height="128"><path d="M35.4.765c-.605.404-1.634 1.747-2.285 2.985C31.03 7.708 34.839 12 40.434 12c1.411 0 2.566.45 2.566 1 0 .619-5.318 1-13.955 1-13.551 0-14.026-.072-16.454-2.5-2.877-2.877-7.064-3.258-10.368-.943C.115 12.033 0 12.802 0 25.434 0 40.78.25 41.281 7.672 40.808c3.885-.248 5.021-.748 5.815-2.558.971-2.212 1.289-2.25 18.75-2.25H50v2.93c0 2.278-.501 3.002-2.25 3.25-1.237.176-2.25.995-2.25 1.82 0 1.264 2.278 1.5 14.5 1.5s14.5-.236 14.5-1.5c0-1.217-1.932-1.554-10.25-1.785L54 41.93v-3.408C54 33.623 51.195 32 42.732 32h-6.823l.295-6.75.296-6.75 9.697-.286C61.584 17.761 66 20.956 66 32.541c0 3.852.286 4.549 1.75 4.258 2.7-.536 2.469-11.689-.319-15.423-3.8-5.09-7.026-6.755-13.942-7.196C47.061 13.771 44.227 12 50 12c3.439 0 7-3.052 7-6 0-1.1-.9-2.9-2-4C53.32.32 51.679.002 44.75.015c-4.538.009-8.745.346-9.35.75m1.25 3.992c-1.447 2.342 1.286 3.327 8.438 3.04C50.878 7.565 52.5 7.172 52.5 6c0-1.178-1.648-1.562-7.666-1.791-4.216-.159-7.899.087-8.184.548M4 25v12h6V13H4v12m10-4.555c0 2.208.461 2.475 4.75 2.75 3.42.22 4.75.725 4.75 1.805s-1.33 1.585-4.75 1.805c-4.289.275-4.75.542-4.75 2.75 0 2.412.12 2.445 9 2.445h9V18h-9c-8.88 0-9 .033-9 2.445M55.977 52.25c-4.796 7.818-4.292 14.212 1.275 16.17 6.64 2.335 11.73-3.522 9.273-10.669-3.138-9.129-7.066-11.177-10.548-5.501m1.735 5.5c-1.811 4.522-.7 7.531 2.606 7.061 2.652-.378 3.356-3.769 1.643-7.906-1.589-3.835-2.443-3.665-4.249.845m.743 17.705c-4.278 4.277-2.98 7.791 4.814 13.041L68.473 92H62.87c-5.137 0-7.01-.748-22.487-8.989-9.286-4.943-18.036-8.993-19.444-9C18.54 74.001 14 77.155 14 78.832c0 .415-1.453 1.185-3.228 1.711-4.233 1.255-6.555 5.305-5.239 9.139.838 2.443 4.631 4.642 28.467 16.507 35.823 17.831 36.147 17.952 48.471 18.151 8.421.135 10.022-.089 10.295-1.44.274-1.356-1.322-1.702-10.472-2.268l-10.794-.668-30.397-14.741C24.385 97.116 10.218 89.707 9.62 88.76c-.838-1.329-.69-2.118.645-3.454 1.642-1.642 2.677-1.41 20.004 4.481L48.541 96h26.743l6.393 4.037c6.088 3.846 8.337 4.293 8.312 1.654-.006-.655-6.519-5.241-14.473-10.191-7.953-4.95-14.715-9.642-15.025-10.428-.311-.785.104-2.096.922-2.913 1.314-1.315 2.327-1.167 8.786 1.286 18.07 6.86 20.378 7.513 26.65 7.534 7.218.024 12.234 1.972 14.677 5.701.904 1.38 4.08 3.624 7.059 4.987l5.415 2.48v11.926c0 6.56-.203 11.927-.451 11.927s-3.043-.675-6.21-1.5c-3.168-.825-8.59-1.5-12.049-1.5-5.623 0-6.29.212-6.29 2 0 1.762.667 2 5.607 2 3.084 0 8.705.748 12.492 1.662 6.56 1.583 6.981 1.576 8.893-.155 1.803-1.631 2.008-3.071 2.008-14.08 0-6.745-.273-12.976-.607-13.846-.334-.87-2.651-2.486-5.149-3.591-2.497-1.105-6.502-3.817-8.9-6.027C107.85 83.899 105.445 83 97.39 83c-5.36 0-8.741-.863-19.586-5-7.209-2.75-13.959-5-15.001-5-1.042 0-2.998 1.105-4.348 2.455m-40.009 3.632c-.369.598-.26 1.499.243 2.002.995.995 24.474 9.081 24.96 8.596C44.191 89.142 22.308 78 20.699 78c-.87 0-1.883.489-2.253 1.087" fill-rule="evenodd"/></svg>