<svg xmlns="http://www.w3.org/2000/svg" width="128" height="128"><path d="M24.308 14.01c-1.205.485-2.945 2.032-3.866 3.438-1.444 2.205-3.259 12.448-3.398 19.182-.039 1.888-.743 2.18-6.195 2.575-5.162.373-6.528.884-8.5 3.175L0 45.112v30.993c0 33.898.245 35.511 5.729 37.783 2.054.851 15.825 1.093 50.525.891l47.702-.279 2.723-2.724c2.279-2.279 2.791-3.787 3.138-9.25l.416-6.526h3.747c5.202 0 8.661-3.597 9.425-9.799.318-2.586 1.543-16.539 2.722-31.007 1.599-19.63 1.866-26.913 1.053-28.697-2.387-5.24-3.206-5.388-52.852-9.557C48.573 14.777 27.275 13.034 27 13.067c-.275.033-1.486.457-2.692.943m1.372 5.278C24.382 20.273 22 32.527 22 38.224c0 .427 17.979.776 39.953.776 28.846 0 40.682.332 42.575 1.195C109.524 42.471 110 44.974 110 68.95V91h2.878c1.582 0 3.385-.612 4.006-1.36 1.668-2.009 6.372-59.293 5.07-61.726-.564-1.053-1.318-1.914-1.677-1.914-1.605 0-85.216-6.989-88.888-7.43-2.429-.292-4.765.002-5.709.718M6.571 45.571C5.707 46.436 5 48.69 5 50.581v3.438l49.75-.26 49.75-.259.327-2.308c.18-1.269-.393-3.407-1.273-4.75l-1.6-2.442H55.048c-41.308 0-47.093.188-48.477 1.571M5 64v5h100V59H5v5m0 26.434c0 15.868.079 16.508 2.223 18.009 1.932 1.354 8.186 1.557 48 1.557 44.634 0 45.828-.051 47.802-2.025 1.888-1.888 2.007-3.092 1.75-17.75L104.5 74.5l-49.75-.259L5 73.981v16.453m64.25-8.772c-.882.356-1.25 3.429-1.25 10.449v9.944l14.25-.278 14.25-.277.292-8.982c.377-11.585.432-11.543-14.733-11.439-6.358.043-12.121.306-12.809.583M73 92v5h19V87H73v5" fill-rule="evenodd"/></svg>