<svg xmlns="http://www.w3.org/2000/svg" width="128" height="128"><path d="M22.073 2.635C20.029 5.233 20 6.098 20 64s.029 58.767 2.073 61.365L24.145 128h39.773c39.163 0 39.801-.032 41.677-2.105 1.829-2.021 1.905-4.502 1.905-61.895s-.076-59.874-1.905-61.895C103.719.032 103.081 0 63.918 0H24.145l-2.072 2.635m1.962 2.299C22.37 8.046 22.72 14 24.567 14c1.068 0 1.381-.587.983-1.843C24.645 9.306 28.569 5 32.073 5 33.683 5 35 4.55 35 4s-2.234-1-4.965-1c-3.885 0-5.19.421-6 1.934M38 5.5V8h52V3H38v2.5M93 4c0 .55 1.317 1 2.927 1 3.504 0 7.428 4.306 6.523 7.157-.398 1.256-.085 1.843.983 1.843 1.13 0 1.567-.995 1.567-3.566C105 4.45 103.628 3 97.965 3 95.234 3 93 3.45 93 4M29.093 9.388c-.921 1.109-.953 2.005-.127 3.548 1.912 3.572 6.443 1.991 5.871-2.049-.398-2.821-3.89-3.733-5.744-1.499m64.574-.721c-1.539 1.539-.597 5.22 1.507 5.888 2.874.912 5.197-1.994 3.752-4.693-.979-1.83-3.95-2.505-5.259-1.195M37.82 13.25c-.197 1.386-1.559 2.826-3.548 3.75l-3.229 1.5-.021 19.302L31 57.104l3.006 1.048c5.378 1.875 5.378 9.821 0 11.696L31 70.896l.022 19.302.021 19.302 3.229 1.5c1.989.924 3.351 2.364 3.548 3.75l.319 2.25h51.722l.319-2.25c.197-1.386 1.559-2.826 3.548-3.75l3.229-1.5.021-19.302L97 70.896l-3.006-1.048c-1.86-.648-3.236-1.963-3.608-3.448-1.009-4.018.344-7.11 3.608-8.248L97 57.104l-.022-19.302-.021-19.302-3.229-1.5c-1.989-.924-3.351-2.364-3.548-3.75L89.861 11H38.139l-.319 2.25m-14.153 4.417c-.367.366-.667 9.366-.667 20V57h5V37c0-18.727-.117-20-1.833-20-1.009 0-2.134.3-2.5.667M100 36.93V57h5.042l-.271-19.75c-.269-19.627-.285-19.752-2.521-20.07l-2.25-.319V36.93M4.164 25.303c-.901 1.085-4.159 75.34-4.163 94.876C0 125.776 1.824 128 6.416 128c6.867 0 6.677 1.974 4.974-51.533-.839-26.382-1.936-48.979-2.437-50.217-1.014-2.508-3.145-2.929-4.789-.947m44.059.254c-2.815 1.971-2.928 6.495-.223 8.943 1.1.995 2 2.645 2 3.665s.9 2.625 2 3.567c1.1.942 2 2.512 2 3.49 0 .978.835 2.613 1.855 3.633 1.021 1.021 2.158 3.061 2.528 4.534 1.438 5.728 9.796 5.728 11.234 0 .37-1.473 1.507-3.513 2.528-4.534C73.165 47.835 74 46.2 74 45.222c0-.978.9-2.548 2-3.49 1.1-.942 2-2.547 2-3.567s.9-2.67 2-3.665c4.449-4.026.239-12.304-4.867-9.571-1.367.732-2.836.754-4.633.071-1.776-.675-3.26-.664-4.565.035-1.334.714-2.536.714-3.87 0-1.305-.699-2.789-.71-4.565-.035-1.754.667-3.254.667-4.5 0-2.357-1.262-2.146-1.286-4.777.557m70.816.693c-.505 1.238-1.6 23.837-2.434 50.22-1.691 53.503-1.882 51.53 4.979 51.53 4.523 0 6.416-2.237 6.416-7.582 0-19.215-3.28-94.05-4.169-95.121-1.639-1.976-3.77-1.552-4.792.953M5.735 41c-.395 7.975-1.011 23.388-1.368 34.25L3.717 95h5.325l-.624-16.25c-.343-8.937-.926-24.35-1.294-34.25l-.671-18L5.735 41m44.417-13.094c-1.818 1.124-1.055 4.489 1.113 4.906.957.185 2.026-.407 2.375-1.316.818-2.132-1.683-4.706-3.488-3.59m7.809.641c-1.579 1.902-.414 4.686 1.786 4.267 2.198-.419 2.874-4.362.879-5.127-.814-.313-2.013.074-2.665.86m9.191-.641c-1.818 1.124-1.055 4.489 1.113 4.906.957.185 2.026-.407 2.375-1.316.818-2.132-1.683-4.706-3.488-3.59m7.809.641c-1.579 1.902-.414 4.686 1.786 4.267 2.198-.419 2.874-4.362.879-5.127-.814-.313-2.013.074-2.665.86M120.7 50.5c-.41 13.2-1.021 28.612-1.359 34.25L118.727 95h5.462l-.737-24.25c-.405-13.337-1.023-28.75-1.372-34.25-.561-8.816-.724-7.159-1.38 14M53.364 36.493c-.346.903-.15 2.121.436 2.707 1.524 1.524 4.41.131 4.012-1.935-.443-2.302-3.647-2.858-4.448-.772m7.999.004c-.346.901-.167 2.099.398 2.664 1.63 1.63 4.739.531 4.739-1.675 0-2.543-4.228-3.358-5.137-.989m9.001-.004c-.346.903-.15 2.121.436 2.707 1.524 1.524 4.41.131 4.012-1.935-.443-2.302-3.647-2.858-4.448-.772m-12.979 6.946c-.791 2.061 1.337 4.605 3.241 3.874 1.995-.765 1.319-4.708-.879-5.127-.964-.183-2.027.38-2.362 1.253m9.282-.772c-1.184 1.183-.709 4.103.76 4.667 1.829.701 3.974-1.847 3.216-3.821-.597-1.558-2.797-2.026-3.976-.846m-5.111 8.243C60.6 52.456 62.12 55 64 55s3.4-2.544 2.444-4.09C66.135 50.409 65.035 50 64 50s-2.135.409-2.444.91M23.39 61.427c-.801 2.086-.066 5.859 1.224 6.283.694.228 1.113-1.153 1.113-3.672 0-3.98-1.268-5.396-2.337-2.611M102.273 64c0 2.55.417 3.937 1.113 3.705 1.451-.484 1.451-6.926 0-7.41-.696-.232-1.113 1.155-1.113 3.705m-73.614-1.554c-1.045 2.722.404 4.684 3.219 4.358 2.049-.238 2.622-.85 2.622-2.804 0-1.954-.573-2.566-2.622-2.804-1.661-.193-2.841.265-3.219 1.25m64.703.054c-.945 2.462.414 4.5 3 4.5 2.585 0 3.944-2.038 3-4.5-.317-.825-1.667-1.5-3-1.5-1.334 0-2.684.675-3 1.5M23.229 90.75c.269 19.627.285 19.752 2.521 20.07l2.25.319V71h-5.042l.271 19.75m76.771.32v20.069l2.25-.319c2.236-.318 2.252-.443 2.521-20.07l.271-19.75H100v20.07M60 88c-1.1 1.1-2 2.822-2 3.826C58 93.989 61.988 98 64.14 98c1.988 0 5.86-4.172 5.86-6.314C70 89.376 66.437 86 64 86c-1.1 0-2.9.9-4 2m1.958 2.55c-1.062 1.281-.997 1.84.378 3.214 1.552 1.553 1.776 1.553 3.328 0 1.375-1.374 1.44-1.933.378-3.214C65.334 89.698 64.415 89 64 89c-.415 0-1.334.698-2.042 1.55m-58.451 12.7c-.351 2.888-.495 8.85-.322 13.25.297 7.545.45 8.019 2.68 8.335 1.301.184 2.789-.089 3.307-.607.564-.564.659-6.004.238-13.584C8.727 98.351 8.644 98 6.426 98c-2.005 0-2.359.637-2.919 5.25m115.083 7.394c-.421 7.58-.326 13.02.238 13.584.518.518 2.006.791 3.307.607 2.23-.316 2.383-.79 2.68-8.335.173-4.4.029-10.362-.322-13.25-.56-4.613-.914-5.25-2.919-5.25-2.218 0-2.301.351-2.984 12.644m-89.624 4.42c-.826 1.543-.794 2.439.127 3.548 1.854 2.234 5.346 1.322 5.744-1.499.572-4.04-3.959-5.621-5.871-2.049m65.197-1.186c-1.948 1.235-1.033 5.531 1.271 5.971 2.653.506 4.795-2.553 3.492-4.987-1.074-2.007-2.639-2.33-4.763-.984M23 117.566c0 5.984 1.372 7.434 7.035 7.434 2.731 0 4.965-.45 4.965-1s-1.317-1-2.927-1c-3.504 0-7.428-4.306-6.523-7.157.398-1.256.085-1.843-.983-1.843-1.13 0-1.567.995-1.567 3.566m79.45-1.723c.905 2.851-3.019 7.157-6.523 7.157-1.61 0-2.927.45-2.927 1s2.234 1 4.965 1c5.663 0 7.035-1.45 7.035-7.434 0-2.571-.437-3.566-1.567-3.566-1.068 0-1.381.587-.983 1.843M38 122.5v2.5h52v-5H38v2.5" fill-rule="evenodd"/></svg>