<svg xmlns="http://www.w3.org/2000/svg" width="128" height="128"><path d="M50.645 9.584C31.114 14.312 14.178 31.417 9.537 51.103c-9.468 40.17 27.19 76.828 67.36 67.36C101.625 112.634 119.97 89.438 119.97 64c0-35.866-34.402-62.87-69.325-54.416m2.855 3.52c-8.798 1.782-19.135 7.494-26.019 14.377-17.615 17.616-20.202 44.733-6.26 65.612l4.047 6.06 4.366-4.284C33.854 90.727 34 90.377 34 84.413c0-5.913.125-6.222 3-7.413 2.904-1.203 3-1.454 3.014-7.871.007-3.646.285-7.642.616-8.879.332-1.238.183-2.25-.331-2.25-.513 0-1.71 2.464-2.66 5.475-1.437 4.561-2.639 6.188-7.199 9.75-3.011 2.351-6.022 4.275-6.693 4.275-2.884 0-1.331-3.28 3.201-6.762 4.14-3.18 5.23-4.764 7.056-10.25 2.042-6.135 2.331-6.491 5.328-6.55 2.57-.05 3.789-.913 6.457-4.57 3.102-4.251 3.218-4.707 2.032-7.986-.691-1.913-2.734-4.604-4.539-5.981C41.477 34.025 40 32.246 40 31.449c0-4.129 8.634 1.47 11.195 7.259l1.941 4.388L55.1 40.6c2.511-3.192 1.727-6.612-2.175-9.497C49.933 28.89 48.994 26 51.268 26c2.451 0 8.5 4.938 9.131 7.455C60.9 35.45 61.665 36 63.94 36c2.35 0 3.017-.522 3.512-2.75.682-3.071 6.883-7.719 9.142-6.852 2.219.851 1.674 2.16-2.094 5.034-3.955 3.017-4.43 5.801-1.615 9.461l1.84 2.394 1.681-4.394c1.781-4.653 7.586-9.494 10.188-8.495 2.274.872 1.634 2.434-1.966 4.794-2.92 1.914-6.565 8.204-5.419 9.351.216.216 4.787-4.018 10.157-9.409l9.764-9.801-5.436-3.744C82.645 13.979 66.26 10.52 53.5 13.104m38.126 25.77-9.837 9.874 1.683 2.568c1.107 1.69 2.768 2.674 4.855 2.876 2.89.281 3.36.836 5.269 6.23 1.642 4.639 3.268 6.954 7.5 10.68 4.221 3.716 5.142 5.024 4.205 5.976-2.561 2.605-13.489-7.106-15.308-13.602-1.641-5.861-3.539-7.203-2.66-1.881.355 2.148.653 6.155.662 8.905.016 4.499.318 5.171 3.011 6.703C93.829 78.81 94 79.263 94 85.139c0 5.033.421 6.68 2.187 8.56 1.684 1.793 1.915 2.599 1.002 3.512-.912.912-1.816.713-3.936-.865-2.424-1.803-2.813-2.872-3.253-8.938-.618-8.521-2.595-9.655-5.301-3.041-1.945 4.752-7.537 10.96-11.932 13.246-1.503.781-4.752 1.697-7.22 2.036-5.837.8-14.222-3.118-18.76-8.765l-3.174-3.949-7.307 7.257c-4.018 3.992-7.306 7.569-7.306 7.95 0 .381 2.693 2.491 5.984 4.688 20.799 13.89 47.948 11.275 65.535-6.311 17.586-17.587 20.201-44.736 6.311-65.535-2.197-3.291-4.304-5.984-4.682-5.984-.377 0-5.112 4.443-10.522 9.874m-31.592 2.585c-.997 1.202-.755 1.573 1.378 2.108 1.423.357 3.825.339 5.337-.04 2.644-.664 2.675-.744.809-2.108-2.505-1.832-5.986-1.813-7.524.04m-9.091 8.363c-5.6 5.599-8.587 18.434-6.289 27.017.582 2.176 1.207 1.76 8.986-5.978L62 62.544V48.336l-3.662-1.124c-3.515-1.079-3.811-.975-7.395 2.61m17.807-2.66c-2.512.918-2.75 1.449-2.75 6.134v5.129l4.958-4.883c4.5-4.433 4.8-5.003 3.25-6.181-1.987-1.509-1.881-1.505-5.458-.199m3.438 11.148L66 64.554v30.663l2.75-.686c8.301-2.072 14.65-12.421 14.707-23.972.035-7.347-1.846-15.807-3.894-17.506-.843-.7-2.982.824-7.375 5.257M54.122 76.378l-7.329 7.377 1.815 2.769C50.883 89.997 57.697 95 60.15 95 61.855 95 62 93.982 62 82c0-7.15-.124-13-.275-13-.151 0-3.573 3.32-7.603 7.378m-15.455 4.289c-.367.366-.667 1.816-.667 3.222v2.555l2.121-2.121c1.167-1.167 1.816-2.617 1.441-3.222-.77-1.247-1.912-1.418-2.895-.434" fill-rule="evenodd"/></svg>