<svg xmlns="http://www.w3.org/2000/svg" width="128" height="128"><path d="M55.994.934C51.695 2.242 46.623 5.11 43.5 7.999c-2.595 2.4-4.02 2.836-10.555 3.225C23.643 11.779 15.939 15.061 10 21 3.054 27.946-1.994 41.904 2.129 42.761c1.19.248 1.819-.672 2.332-3.406 1.859-9.91 9.396-18.661 19.247-22.347C28.456 15.232 37 14.232 37 15.453 37 17.681 34.318 21 32.518 21c-8.039 0-19.223 8.673-21.429 16.618-.656 2.364-1.08 15.27-1.083 32.996L10 99.727l2.636 2.637c2.492 2.492 3.176 2.636 12.5 2.636H35v6l-9.75-.002c-10.88-.001-15.085-1.424-18.679-6.319-1.942-2.644-2.102-4.514-2.571-29.987-.457-24.848-.649-27.196-2.25-27.503C.119 46.876 0 48.666 0 73.611c0 25.223.122 27.009 2.121 31.139 1.276 2.635 3.736 5.452 6.172 7.066 3.72 2.464 5.015 2.711 15.83 3.017l11.779.332.633 4.668C37.756 128.834 34.953 128 64 128s26.244.834 27.465-8.167l.633-4.668 11.779-.332c10.749-.304 12.125-.563 15.746-2.962 2.489-1.649 4.997-4.613 6.732-7.957l2.764-5.328-.209-30.26c-.114-16.643-.591-30.023-1.059-29.734-.468.289-.855-.288-.861-1.283-.019-3.51-4.877-12.202-9.157-16.383-6.129-5.986-13.532-9.146-22.778-9.723-6.849-.427-7.906-.785-11.308-3.837C81.683 5.515 79.572 4 79.056 4c-1.669 0-2.261 2.048-1.024 3.539.955 1.15.841 2.005-.548 4.126-.964 1.471-2.553 4.948-3.532 7.726C71.074 27.566 70 26.396 70 15.083 70 5.667 70.132 5 72 5c2.879 0 2.477-2.868-.565-4.025C68.465-.154 59.647-.177 55.994.934M62 16.555V29.11l-4.618-.305-4.618-.305-1.78-5.77C49.064 16.505 46.542 12 44.977 12c-1.495 0-1.178 1.954 1.074 6.605 1.128 2.33 2.14 5.51 2.25 7.066.195 2.769.078 2.835-5.551 3.129-4.119.215-5.75.697-5.75 1.7 0 1.003 1.631 1.485 5.75 1.7 5.694.297 5.748.329 5.533 3.26-.119 1.628-1.33 5.106-2.691 7.728-1.568 3.023-2.094 5.002-1.437 5.408 1.774 1.096 4.06-2.2 6.438-9.285L52.88 32.5l4.56-.305L62 31.89v12.555C62 56.333 62.106 57 64 57s2-.667 2-12.555V31.89l4.56.305 4.56.305 2.287 6.811c2.378 7.085 4.664 10.381 6.438 9.285.657-.406.131-2.385-1.437-5.408-1.361-2.622-2.572-6.1-2.691-7.728-.215-2.931-.161-2.963 5.533-3.26 4.119-.215 5.75-.697 5.75-1.7 0-1.003-1.631-1.485-5.75-1.7-5.694-.297-5.748-.329-5.533-3.26.119-1.628 1.33-5.106 2.691-7.728 1.568-3.023 2.094-5.002 1.437-5.408-1.774-1.096-4.06 2.2-6.438 9.285L75.12 28.5l-4.56.305-4.56.305V16.555C66 4.667 65.894 4 64 4s-2 .667-2 12.555m-9.473-9.992c-4.076 2.125-4.02 1.903-1.514 5.959 1.233 1.994 2.79 5.482 3.46 7.751C56.719 27.881 58 25.997 58 15.083c0-10.965-.197-11.272-5.473-8.52M91 15.313C91 17.664 93.629 21 95.482 21c8.039 0 19.223 8.673 21.429 16.618.656 2.364 1.08 15.27 1.083 32.996L118 99.727l-2.636 2.637c-2.492 2.492-3.176 2.636-12.5 2.636H93v6.177l10.93-.339c12.266-.379 15.072-1.589 18.347-7.909 1.61-3.109 1.75-6.372 1.5-34.929-.268-30.507-.348-31.633-2.533-35.722-3.487-6.526-7.882-10.954-13.696-13.798C102.724 16.119 91 13.876 91 15.313m-51.902 5.836c-.604 1.732-1.098 3.307-1.098 3.5 0 .193 1.35.351 3 .351 3.297 0 3.569-.658 1.839-4.453-1.528-3.355-2.411-3.213-3.741.602m46.063-.602C83.431 24.342 83.703 25 87 25c1.65 0 3-.158 3-.351C90 23.295 87.661 18 87.063 18c-.408 0-1.264 1.146-1.902 2.547M27.03 26.113c-4.58 1.827-9.236 6.129-11.117 10.271-1.686 3.713-1.871 6.957-1.891 33.166-.016 21.287.299 29.371 1.178 30.25.754.754 4.518 1.2 10.131 1.2h8.931l-.589-3.626c-.332-2.05-1.503-4.267-2.694-5.101-3.25-2.277-4.234-5.88-2.513-9.208 1.64-3.17 3.333-4.065 7.689-4.065 2.31 0 2.916.399 2.658 1.75-.189.99-1.415 1.889-2.823 2.071-3.382.435-5.204 2.91-3.916 5.317C33.013 89.892 34.859 90 64 90s30.987-.108 31.926-1.862c.694-1.296.629-2.357-.215-3.491-1.055-1.42-4.498-1.664-26.698-1.889-23.359-.236-25.515-.404-25.823-2.008-.314-1.631 1.467-1.75 26.237-1.75 25.24 0 26.673.1 28.573 2 3.253 3.253 3.01 7.5-.615 10.757-1.382 1.242-2.768 3.829-3.08 5.75L93.738 101h8.931c5.613 0 9.377-.446 10.131-1.2.878-.878 1.2-9.009 1.2-30.343 0-28.577-.045-29.228-2.327-33.55-2.696-5.107-8.688-9.712-13.689-10.52l-3.484-.562-.099 6.337c-.137 8.795-3.264 15.599-9.997 21.752C78.233 58.554 72.06 61 64 61s-14.233-2.446-20.404-8.086c-6.704-6.128-9.859-12.964-9.997-21.662-.108-6.802-.883-7.409-6.569-5.139M38 36.351C38 37.705 40.339 43 40.937 43 41.734 43 44 38.526 44 36.953c0-.524-1.35-.953-3-.953s-3 .158-3 .351m17.667.316c-.367.366-.667 1.446-.667 2.398 0 .953-1.35 4.298-3 7.435-1.65 3.137-3 5.905-3 6.153C49 53.227 55.601 56 56.968 56 57.609 56 58 52.207 58 46c0-9.161-.501-11.166-2.333-9.333M70 45.917C70 52.181 70.391 56 71.032 56 72.694 56 79 53.166 79 52.419c0-.376-.957-2.232-2.127-4.125-1.17-1.893-2.676-5.298-3.346-7.567C71.281 33.119 70 35.003 70 45.917m14-8.964C84 38.526 86.266 43 87.063 43 87.661 43 90 37.705 90 36.351c0-.193-1.35-.351-3-.351s-3 .429-3 .953M.079 40.583c.048 1.165.285 1.402.604.605.289-.722.253-1.585-.079-1.917-.332-.332-.568.258-.525 1.312M.439 74c0 15.125.139 21.313.309 13.75.169-7.562.169-19.937 0-27.5C.578 52.688.439 58.875.439 74m36.954 21.582c.334.87.607 2.445.607 3.5 0 1.607.731 1.918 4.5 1.918 4.476 0 4.5-.019 4.5-3.5V94h-5.107c-4.246 0-5.005.267-4.5 1.582M51 97.5v3.5h11v-7H51v3.5m15 0v3.5h11v-7H66v3.5m15 0c0 3.481.024 3.5 4.5 3.5 3.769 0 4.5-.311 4.5-1.918 0-1.055.273-2.63.607-3.5.505-1.315-.254-1.582-4.5-1.582H81v3.5M39 108c0 2.889.167 3 4.5 3s4.5-.111 4.5-3-.167-3-4.5-3-4.5.111-4.5 3m13 0c0 2.933.111 3 5 3s5-.067 5-3-.111-3-5-3-5 .067-5 3m14 0c0 2.933.111 3 5 3s5-.067 5-3-.111-3-5-3-5 .067-5 3m14 0c0 2.889.167 3 4.5 3s4.5-.111 4.5-3-.167-3-4.5-3-4.5.111-4.5 3m-39.625 10.125c.344 1.719.625 3.744.625 4.5 0 .944 1.292 1.375 4.125 1.375 4.087 0 4.119-.029 3.5-3.125-.344-1.719-.625-3.744-.625-4.5 0-.944-1.292-1.375-4.125-1.375-4.087 0-4.119.029-3.5 3.125m12 0c.344 1.719.625 3.744.625 4.5 0 .963 1.348 1.375 4.5 1.375H62v-9H51.75l.625 3.125M66 119.5v4.5h4.5c3.152 0 4.5-.412 4.5-1.375 0-.756.281-2.781.625-4.5L76.25 115H66v4.5m13.625-1.375C78.519 123.653 78.719 124 83 124c2.727 0 4-.437 4-1.375 0-.756.281-2.781.625-4.5.617-3.083.572-3.125-3.375-3.125-3.68 0-4.05.25-4.625 3.125" fill-rule="evenodd"/></svg>