<svg xmlns="http://www.w3.org/2000/svg" width="128" height="128"><path d="M38.723 8.775c-6.575 6.626-6.723 6.89-6.723 12V26H20.655c-9.721 0-11.582.262-13 1.829-.91 1.006-1.655 2.806-1.655 4S5.1 34.9 4 36c-2.712 2.712-2.664 8.886.096 12.395 1.839 2.338 2.518 6.747 5.523 35.885 3.593 34.841 4.406 38.499 9.022 40.602 1.689.77 16.162 1.118 46.452 1.118h43.998l2.454-2.455c4.75-4.749 2.212-11.545-4.31-11.545h-3.108l2.187-4.976 2.186-4.977 7.095-.023c9.196-.031 10.405-1.216 10.405-10.198 0-8.2-1.461-9.826-8.829-9.826-3.665 0-5.171-.392-5.171-1.345 0-.74-.823-2.09-1.829-3C108.594 76.227 105.504 76 87.69 76H67.038l.501-4.25c.275-2.338.932-7.993 1.461-12.567.661-5.725 1.59-9.118 2.98-10.885 2.685-3.413 2.695-9.623.02-12.298-1.1-1.1-2-3.055-2-4.345C70 27.01 67.351 26 55.171 26H44v-2.719c0-1.935 1.501-4.238 5.209-7.993l5.21-5.275-3.913-4.006C48.355 3.803 46.336 2 46.02 2c-.315 0-3.599 3.049-7.297 6.775m1.989 3.009c-4.274 4.34-4.712 5.223-4.712 9.5 0 4.049.283 4.716 2 4.716 1.585 0 2-.667 2-3.216 0-2.484 1.061-4.292 4.664-7.95 3.962-4.023 4.47-4.968 3.377-6.284C47.334 7.697 46.456 7 46.09 7c-.366 0-2.786 2.153-5.378 4.784m-30.03 18.867c-.375.375-.682 1.282-.682 2.016C10 33.746 15.346 34 38.073 34c26.198 0 28.051-.117 27.737-1.75-.309-1.607-2.542-1.772-27.391-2.016-14.88-.146-27.361.042-27.737.417m-4.287 8.762c-.304.793-.405 2.487-.224 3.764L6.5 45.5h63v-7l-31.276-.264c-26.486-.224-31.361-.044-31.829 1.177m3.966 12.337c.272.962.798 5.013 1.169 9l.673 7.25h51.594l.673-7.25c.371-3.987.897-8.038 1.169-9C66.103 50.113 64.317 50 38 50s-28.103.113-27.639 1.75m63.156.222c-.33.534.161 2.133 1.091 3.552 1.614 2.463 1.593 2.713-.459 5.488-2.835 3.835-2.716 7.107.364 10 3.385 3.181 5.476 1.427 2.931-2.457-1.68-2.564-1.665-2.765.407-5.567 2.781-3.763 2.725-7.098-.165-9.814-2.576-2.419-3.289-2.625-4.169-1.202m16 0c-.33.534.161 2.133 1.091 3.552 1.614 2.463 1.593 2.713-.459 5.488-2.835 3.835-2.716 7.107.364 10 3.385 3.181 5.476 1.427 2.931-2.457-1.68-2.564-1.665-2.765.407-5.567 2.781-3.763 2.725-7.098-.165-9.814-2.576-2.419-3.289-2.625-4.169-1.202M13.01 74.25c.005 1.237.672 8.1 1.48 15.25.809 7.15 1.48 13.338 1.49 13.75.011.412 9.068.75 20.127.75 18.763 0 20.058-.117 19.37-1.75-1.684-4.002-3.447-13.089-3.461-17.845C51.997 78.261 53.964 76 59.329 76 62.333 76 63 75.637 63 74c0-1.947-.667-2-25-2H13l.01 2.25m18.863 3.434c-5.557 3.449-7.472 10.801-4.237 16.276 4.682 7.928 16.046 7.928 20.728 0 6.116-10.353-6.296-22.603-16.491-16.276m2.448 3.505c-5.523 2.67-5.039 11.443.765 13.847 8.905 3.688 15.066-9.912 6.299-13.906-2.957-1.348-4.175-1.338-7.064.059m22.13-.11c-1.919 3.105 2.252 20.468 6.611 27.522L65.163 112h33.753l2.429-4.25c3.611-6.317 5.784-13.941 5.98-20.984l.175-6.266-25.18-.267c-17.677-.187-25.386.065-25.869.846M62 88c0 1.833.667 2 8 2s8-.167 8-2-.667-2-8-2-8 .167-8 2m20 0c0 1.333.667 2 2 2s2-.667 2-2-.667-2-2-2-2 .667-2 2m29.541 2.578c-.386 2.573-.948 5.319-1.249 6.104-.443 1.154.572 1.368 5.33 1.122l5.878-.304v-11l-4.629-.3-4.629-.3-.701 4.678m-94.43 23.144c.488 3.596 1.426 6.198 2.524 7 1.23.899 6.084 1.278 16.383 1.278h14.636l-.446-3.039c-.602-4.098 2.065-6.961 6.482-6.961 3.07 0 3.282-.183 2.31-2-1.018-1.902-2.094-2-21.868-2H16.335l.776 5.722m37.246 3.791c-.32.832-.025 2.182.654 3 1.84 2.217 52.138 2.217 53.978 0 .679-.818.974-2.168.654-3-.874-2.277-54.412-2.277-55.286 0" fill-rule="evenodd"/></svg>