<svg xmlns="http://www.w3.org/2000/svg" width="128" height="128"><path d="M5.636 5.85C4.155 7.486 3.993 10.348 4.231 30.6c.23 19.569.487 22.9 1.769 22.9 1.274 0 1.575-3.389 2-22.5.425-19.111.726-22.5 2-22.5 1.315 0 1.5 6.833 1.5 55.5s-.185 55.5-1.5 55.5c-1.29 0-1.57-4.278-2-30.5-.43-26.222-.71-30.5-2-30.5-1.295 0-1.536 4.218-1.765 30.905-.237 27.697-.091 31.097 1.405 32.75C6.559 123.17 8.52 124 10 124c4.301 0 6-2.783 6-9.829V108h20v6.345c0 7.062 1.658 9.655 6.174 9.655 4.722 0 5.826-2.62 5.826-13.829V100h32c31.253 0 32 .046 32 1.985 0 1.93-.83 1.993-29.75 2.25-25.66.229-29.75.471-29.75 1.765s4.09 1.536 29.75 1.765l29.75.265v6.33c0 4.862.424 6.714 1.829 7.985 2.422 2.192 6.457 2.101 8.532-.191 1.493-1.65 1.642-4.914 1.405-30.75-.229-24.908-.473-28.904-1.766-28.904-1.287 0-1.571 4.056-2 28.5-.429 24.444-.713 28.5-2 28.5-1.315 0-1.5-6.833-1.5-55.5s.185-55.5 1.5-55.5c1.279 0 1.574 3.611 2 24.5.426 20.889.721 24.5 2 24.5 1.286 0 1.538-3.553 1.768-24.902.238-22.113.08-25.108-1.405-26.75C118.923 2.048 112 4.691 112 9.805c0 2.099-.369 2.153-16.75 2.421-14.1.231-16.75.511-16.75 1.774s2.65 1.543 16.75 1.774c15.922.261 16.75.372 16.75 2.25 0 1.927-.797 1.976-32 1.976-31.172 0-32-.051-32-1.97 0-1.843.826-1.988 12.75-2.25 10.542-.232 12.75-.54 12.75-1.78s-2.208-1.548-12.75-1.78C48.169 11.944 48 11.91 48 9.625c0-4.942-6.987-7.507-10.345-3.796C36.343 7.278 36 9.768 36 17.829V28h-5.545c-4.615 0-5.975.429-8.103 2.557-1.996 1.996-2.469 3.314-2.156 6 .356 3.042.135 3.443-1.897 3.443H16V23.655c0-14.565-.199-16.525-1.829-18-2.423-2.193-6.457-2.101-8.535.195m34.855 3.317C40.21 9.9 40.097 35.025 40.24 65c.227 47.662.448 54.5 1.76 54.5 1.279 0 1.574-3.611 2-24.5.426-20.889.721-24.5 2-24.5 1.156 0 1.568 1.548 1.796 6.75l.295 6.75H94v-3.545c0-2.431.772-4.317 2.455-6 2.106-2.107 3.383-2.455 9-2.455H112V52H48.091l-.295 6.75c-.228 5.202-.64 6.75-1.796 6.75-1.286 0-1.571-4.046-2-28.417-.378-21.477-.805-28.519-1.749-28.834-.688-.228-1.48.185-1.76.918M48 26c0 1.667.667 2 4 2s4-.333 4-2-.667-2-4-2-4 .333-4 2m12 6c0 7.333.167 8 2 8s2-.667 2-8-.167-8-2-8-2 .667-2 8m8-6c0 1.556.667 2 3 2s3-.444 3-2-.667-2-3-2-3 .444-3 2m10 6c0 7.333.167 8 2 8s2-.667 2-8-.167-8-2-8-2 .667-2 8m8-6c0 1.556.667 2 3 2s3-.444 3-2-.667-2-3-2-3 .444-3 2m10 6c0 7.333.167 8 2 8s2-.667 2-8-.167-8-2-8-2 .667-2 8m8-6c0 1.667.667 2 4 2s4-.333 4-2-.667-2-4-2-4 .333-4 2m-78.8 7.2c-1.536 1.536-1.536 4.064 0 5.6.66.66 3.36 1.2 6 1.2H36v-8h-4.8c-2.64 0-5.34.54-6 1.2M48 36v4h8v-8h-8v4m20 0c0 3.778.167 4 3 4s3-.222 3-4-.167-4-3-4-3 .222-3 4m18 0c0 3.778.167 4 3 4s3-.222 3-4-.167-4-3-4-3 .222-3 4m18 0v4h8v-8h-8v4M16 46c0 1.867.667 2 10 2s10-.133 10-2-.667-2-10-2-10 .133-10 2m32 0c0 1.958.667 2 32 2s32-.042 32-2-.667-2-32-2-32 .042-32 2m-32 9v3h20v-6H16v3m0 9c0 1.867.667 2 10 2s10-.133 10-2-.667-2-10-2-10 .133-10 2m0 8.958v2.958l7.75.292c6.092.23 7.75.613 7.75 1.792s-1.658 1.562-7.75 1.792c-6.928.261-7.75.5-7.75 2.25C16 83.855 16.738 84 26 84h10V70H16v2.958M99.2 77.2c-.66.66-1.2 2.46-1.2 4 0 2.8 0 2.8 7 2.8h7v-8h-5.8c-3.19 0-6.34.54-7 1.2M16 92c0 3.481.292 4 2.25 4s2.25-.519 2.25-4-.292-4-2.25-4-2.25.519-2.25 4m9.2-2.8c-1.536 1.536-1.536 4.064 0 5.6.66.66 3.36 1.2 6 1.2H36v-8h-4.8c-2.64 0-5.34.54-6 1.2M48 92v4h64v-8H48v4m-32 10c0 1.867.667 2 10 2s10-.133 10-2-.667-2-10-2-10 .133-10 2" fill-rule="evenodd"/></svg>