<svg xmlns="http://www.w3.org/2000/svg" width="128" height="128"><path d="M12.086 10.314c-1.639 1.639-1.303 6.326.589 8.218 1.422 1.422 2.935 1.57 10 .982L31 18.82v3.875C31 28.268 27.704 30 17.096 30 12.365 30 9 30.416 9 31c0 .592 3.656 1 8.969 1 7.09 0 9.792-.429 12.894-2.046 4.165-2.171 8.087-1.924 10.218.644.716.863 3.137 1.41 6.291 1.424 9.891.042 16.862 5.335 18.221 13.833L66.256 50h-4.52c-4.094 0-4.584-.258-5.208-2.744-.379-1.51-1.158-3.31-1.731-4-1.47-1.772-12.219-1.657-13.716.146-2.131 2.568-6.053 2.815-10.218.644C27.753 42.424 25.06 42 17.886 42c-6.796 0-8.949.312-8.639 1.25.279.842 3.273 1.345 9.18 1.54 5.838.194 9.562.812 11.147 1.85 3.075 2.015 8.807 1.996 11.914-.04 1.343-.88 4.452-1.6 6.909-1.6 5.316 0 6.75 2.32 4.014 6.495-1.361 2.078-1.474 3.071-.574 5.046C52.888 58.848 53.441 59 60.779 59c4.75 0 8.292-.471 9.021-1.2 1.39-1.39 1.606-5.431.332-6.219-.478-.295-1.161-2.742-1.519-5.438-1.289-9.719-7.083-15.104-17.289-16.069C42.506 29.241 39 27.032 39 22.31v-3.46l8.861.693c8.534.668 8.921.607 10.5-1.647 2.11-3.014 2.076-5.204-.111-7.114-1.453-1.269-5.424-1.53-23.414-1.541-14.273-.009-22.034.357-22.75 1.073m2.464 2.279C12.316 14.827 13.755 17 17.467 17c10.361 0 17.138-3.213 9.283-4.401-9.46-1.43-10.776-1.43-12.2-.006m18.993-.248c-1.044.763-1.401 1.862-.97 2.984.95 2.478 4.842 1.769 5.23-.952.366-2.569-1.989-3.693-4.26-2.032m15.957-.66c-6.3.548-8.5 1.248-8.5 2.703 0 2.643 14.656 3.673 15.643 1.099.569-1.482-1.277-4.651-2.515-4.319-.346.093-2.428.325-4.628.517M34 23.059c0 1.785.417 2.802 1 2.441.55-.34 1-1.716 1-3.059C36 21.098 35.55 20 35 20s-1 1.377-1 3.059m73.5 28.771c-5.835 5.707-15.131 13.298-22.32 18.225L72.86 78.5H60.35c-11.296 0-12.651.191-13.952 1.971-.793 1.085-1.228 2.53-.966 3.214.304.791-.868 1.484-3.227 1.91-7.882 1.422-9.475 4.667-4.205 8.563 1.65 1.22 3 2.964 3 3.875s.875 2.449 1.944 3.416c1.069.967 2.081 2.938 2.25 4.38.38 3.254 6.325 6.84 12.806 7.725 4.813.658 10.531 2.878 11.517 4.473.33.535 1.985.973 3.676.973 2.429 0 4.573-1.424 10.207-6.775 8.22-7.808 10.77-9.184 23.668-12.766C119.613 95.975 119 96.203 119 95.031c0-1.61-3.058-1.239-12.638 1.535-13.174 3.815-16.152 5.422-24.665 13.315-4.269 3.959-8.231 6.907-8.804 6.553-.643-.397-.175-1.57 1.219-3.053 1.523-1.621 1.932-2.737 1.251-3.418-.68-.68-1.608-.35-2.842 1.013-1.007 1.113-2.986 2.024-4.398 2.024h-2.568l2.472-1.646c2.75-1.831 4.973-4.31 4.973-5.545 0-1.505-2.359-.82-4.678 1.358-3.259 3.062-12.426 3.77-16.989 1.313-3.476-1.872-4.837-5.3-1.583-3.988 6.97 2.81 13.812.914 17.29-4.791 2.561-4.198 2.47-6.996-.331-10.253-1.887-2.194-3.453-2.783-8.896-3.347-3.632-.376-7.386-1.332-8.342-2.125-1.621-1.345-1.578-1.486.646-2.109C54.729 80.575 64.728 81.021 75.5 83c12.81 2.354 17.179 2.461 24.189.595C107.154 81.607 119 75.937 119 74.352c0-1.763.402-1.864-8.109 2.023-9.961 4.548-16.761 6.011-24.781 5.331-11.142-.946-11.196-1.221-1.519-7.824 12.79-8.728 16.039-11.358 25.659-20.775 7.765-7.601 10.334-11.159 8-11.082-.412.013-5.25 4.426-10.75 9.805M54 54.5c0 1.19 1.444 1.5 7 1.5s7-.31 7-1.5-1.444-1.5-7-1.5-7 .31-7 1.5m.683 7.15c-.376.376-.683 2.221-.683 4.1 0 4.165 2.335 4 2.828-.199.335-2.855-.915-5.13-2.145-3.901M66 64c0 1.1.45 2 1 2s1-.9 1-2-.45-2-1-2-1 .9-1 2m-6 4.5c0 2.489.402 3.533 1.25 3.25.688-.229 1.25-1.692 1.25-3.25s-.562-3.021-1.25-3.25c-.848-.283-1.25.761-1.25 3.25m6 3c0 1.375.45 2.5 1 2.5s1-1.125 1-2.5-.45-2.5-1-2.5-1 1.125-1 2.5m-11.361.194C53.403 72.93 54.017 76 55.5 76c.825 0 1.5-.873 1.5-1.941 0-2.087-1.318-3.408-2.361-2.365M40.25 88.706c-2.527.486-2.813 1.331-1.05 3.094 1.716 1.716 2.363 1.516 4.208-1.3 1.71-2.61 1.551-2.701-3.158-1.794m5.832 2.662c-2.35 3.801-2.649 6.665-.882 8.432 1.906 1.906 2.8 1.413 2.804-1.55.002-1.513.902-4.223 2-6.024 2.458-4.031 2.461-4.226.078-4.226-1.1 0-2.807 1.438-4 3.368m7.168.951c-2.638 3.875-2.99 9.183-.668 10.074 2.898 1.112 3.418.635 3.424-3.143.004-2.062.679-5.039 1.5-6.614 1.87-3.585 1.866-3.637-.256-3.629-.962.004-2.763 1.494-4 3.312m7.219.741c-.87 1.683-1.445 4.721-1.276 6.75l.307 3.69 3.25-3.173c3.36-3.281 4.192-6.985 2.05-9.127-1.819-1.819-2.602-1.483-4.331 1.86" fill-rule="evenodd"/></svg>