<svg xmlns="http://www.w3.org/2000/svg" width="128" height="128"><path d="M41.437 1.406c-1.104.774-3.081 3.699-4.393 6.5C34.659 12.999 34.657 13 29.829 13 22.795 13 21 15.148 21 23.566c0 3.611.483 7.468 1.074 8.572.905 1.691-.75 5.469-10.5 23.977C-1.554 81.036-2.393 84.171 3 88.158l3 2.218v16.177c0 14.852.17 16.393 2.073 18.812 1.584 2.015 2.96 2.635 5.845 2.635 6.658 0 7.082-1.248 7.082-20.829V90h86v17.345c0 15.534.191 17.518 1.829 19 2.925 2.647 8.642 2.142 11.098-.98 1.902-2.418 2.073-3.961 2.073-18.75V90.5l3.5-2.793c3.071-2.45 3.5-3.346 3.5-7.309 0-2.484-.378-4.283-.839-3.998-.461.286-5.874-9.025-12.028-20.691-9.633-18.259-11.046-21.528-10.161-23.506.565-1.263 1.028-5.201 1.028-8.75C107 15.158 105.177 13 98.171 13c-4.828 0-4.83-.001-7.215-5.094C87.229-.052 87.406 0 64 0 47.957 0 43.004.309 41.437 1.406m2.953 3.359C43.33 5.466 40 11.296 40 12.45c0 .303 10.8.55 24 .55s24-.247 24-.55c0-1.154-3.33-6.984-4.39-7.685-1.449-.958-37.771-.958-39.22 0m-17.711 12.89c-.374.373-.679 1.278-.679 2.012C26 20.754 33.012 21 64.073 21c35.722 0 38.053-.108 37.737-1.75-.313-1.623-3.017-1.769-37.395-2.012-20.382-.144-37.363.043-37.736.417M26 28c0 1.965.667 2 38 2s38-.035 38-2-.667-2-38-2-38 .035-38 2m-8.584 26.72C11.412 66.116 6.35 75.791 6.167 76.22 5.983 76.649 32.008 77 64 77c31.992 0 58.017-.351 57.833-.78-.183-.429-5.245-10.104-11.249-21.5L99.668 34H28.332L17.416 54.72m50.899-15.303c-6.22 2.796-8.078 11.309-4.213 19.295 2.515 5.193 6.652 7.662 11.78 7.029 3.109-.383 4.212.095 7.846 3.406C86.053 71.266 88.45 73 89.055 73 90.87 73 96 67.293 96 65.273c0-1.034-1.603-3.431-3.561-5.327-3.073-2.973-3.479-3.892-2.955-6.698 1.739-9.312-11.696-18.089-21.169-13.831m-.242 6.218C66.933 47.084 66 49.123 66 50.167c0 3.353 2.757 8.628 5.422 10.374 2.201 1.442 3.042 1.509 5.604.448 4.548-1.883 8.14-6.662 7.777-10.347-.67-6.808-12.523-10.355-16.73-5.007m-30 2c-2.75 3.495-2.618 6.911.382 9.91 2.999 3 6.415 3.132 9.91.382C51.667 55.33 51.978 49.978 49 47c-2.978-2.978-8.33-2.667-10.927.635m3.289 2.865c-.878 2.287.351 4.5 2.5 4.5 2.365 0 3.579-2.763 2.033-4.627-1.505-1.813-3.814-1.748-4.533.127m42.779 10.83c-.844 1.017-.438 1.969 1.723 4.039 2.521 2.416 2.967 2.539 4.128 1.141 1.095-1.32.933-1.96-1.02-4.039-2.661-2.833-3.301-2.984-4.831-1.141M.286 81.5c.008 2.75.202 3.756.432 2.236.229-1.52.223-3.77-.014-5-.237-1.23-.425.014-.418 2.764m3.904 1.25C4.507 84.393 8.154 84.5 64 84.5c55.846 0 59.493-.107 59.81-1.75.318-1.651-3.066-1.75-59.81-1.75s-60.128.099-59.81 1.75M11 106.441c0 9.979.397 16.686 1.009 17.065.555.342 1.905.339 3-.009C16.891 122.9 17 121.962 17 106.433V90h-6v16.441m100-.008c0 15.529.109 16.467 1.991 17.064 1.095.348 2.445.351 3 .009.612-.379 1.009-7.086 1.009-17.065V90h-6v16.433" fill-rule="evenodd"/></svg>