<svg xmlns="http://www.w3.org/2000/svg" width="128" height="128"><path d="M97.482 6.11c-2.74 2.26-5.313 4.623-5.717 5.25-1.444 2.241-.72 4.839 2.148 7.707 3.834 3.833 4.141 5.068 1.747 7.007-1.236 1.001-1.752 2.243-1.358 3.27.741 1.932 3.771 2.183 5.498.456.92-.92 1.475-.925 2.376-.024.902.902.757 1.64-.621 3.163-.989 1.093-1.532 2.678-1.208 3.524.659 1.717 4.196 2.086 5.153.537 1.002-1.621 2.769-1.142 2.111.572-.711 1.853 3.973 8.428 6.005 8.428 2.17 0 9.55-7.166 11.037-10.718 2.766-6.608 1.388-10.131-8.153-20.834C106.693 3.446 105.219 2 103.809 2c-.74 0-3.587 1.849-6.327 4.11m-30.159.586c-4.377.852-4.789 2.928-1.426 7.174 5.808 7.333 3.045 10-3.036 2.931-3.107-3.613-3.866-4.042-5.198-2.936-2.328 1.932-3.913 7.708-3.126 11.388 1.626 7.608 6.828 12.361 14.861 13.58 4.25.645 4.885 1.261 19.59 18.977 8.359 10.071 16.264 18.716 17.567 19.211 5.844 2.222 12.78-4.517 10.523-10.223-.5-1.264-7.68-10.398-15.957-20.298-14.509-17.355-15.027-18.131-14.473-21.647 1.205-7.645-4.29-15.549-12.371-17.793-2.077-.577-4.002-.99-4.277-.918-.275.072-1.48.321-2.677.554M99.5 11c-2.147 2.241-2.466 3-1.26 3 2.11 0 5.989 4.961 5.295 6.77-.306.798 1.821 4.251 4.914 7.977 2.999 3.614 5.588 7.511 5.752 8.662.287 2.01.406 1.986 3.049-.614 4.267-4.196 3.773-8.355-1.805-15.203-2.519-3.093-5.373-5.592-6.385-5.592-1.967 0-5.06-3.951-5.06-6.465 0-2.296-1.303-1.872-4.5 1.465M72 12.878c0 .482.675 1.437 1.5 2.122 1.774 1.472 1.825 2.291.447 7.25-.989 3.561-1.249 3.75-5.18 3.75-2.872 0-4.846-.665-6.453-2.174L60 21.651v2.752c0 1.707 1.109 3.86 2.923 5.674C65.298 32.452 66.7 33 70.399 33c5.31 0 4.011-1.241 23.546 22.5 9.67 11.751 13.745 16 15.347 16 1.21 0 2.319-.717 2.491-1.612.176-.911-6.651-10.018-15.705-20.95-13.989-16.891-15.93-19.66-15.337-21.888 1.576-5.925-.35-11.28-4.906-13.635C72.651 11.768 72 11.677 72 12.878m-53.645 6.569C9.164 23.446 2.818 33.658 2.869 44.367c.025 5.211.697 7.468 4.514 15.157 12.576 25.334 36.089 48.869 61.044 61.1C76.24 124.453 78.182 125 83.981 125c11.03 0 19.59-5.494 24.152-15.5 2.312-5.074 2.356-9.696.117-12.361-.962-1.146-5.35-3.391-9.75-4.991-4.4-1.599-9.446-3.504-11.214-4.233-4.489-1.852-8.084-.346-11.573 4.849-1.565 2.33-3.29 4.236-3.834 4.236-2.464 0-14.23-9.178-22.966-17.913C40.098 70.271 31 58.58 31 56.067c0-.573 1.817-2.189 4.038-3.591 5.616-3.545 6.786-6.47 4.719-11.793-.893-2.301-2.999-7.783-4.68-12.183-1.68-4.4-3.821-8.562-4.757-9.25-2.216-1.627-7.992-1.532-11.965.197m4.166 4.518C21.281 25.972 29.865 48 31.887 48c.533 0 1.672-.702 2.53-1.56 1.413-1.413 1.408-1.907-.058-5.25-.89-2.029-2.811-6.84-4.27-10.69-2.017-5.32-3.163-7.074-4.777-7.307-1.168-.169-2.424.178-2.791.772m-8.775 5.778C10.169 33.479 8 39.018 8 44.42c0 9.941 15.49 34.253 31.446 49.357C54.501 108.027 74.949 120 84.233 120c5.375 0 12.346-2.859 15.715-6.444l2.201-2.343-6.825-2.247c-3.753-1.235-9.364-3.515-12.468-5.067-4.556-2.277-6.228-2.653-8.678-1.95-4.009 1.15-8.345-1.021-18.892-9.46-9.389-7.512-17.409-16.024-24.488-25.989-4.569-6.432-4.933-7.363-4.483-11.472.387-3.534-.091-5.633-2.274-10-1.519-3.041-3.556-8.003-4.525-11.028-.969-3.025-2.069-5.84-2.446-6.257-.376-.416-1.871.484-3.324 2m51.32 21.71c-4.232 3.443-5.821 4.213-7.184 3.484-2.68-1.435-3.531-1.184-7.347 2.167C48.355 59.017 47 61.116 47 62.578 47 65.967 58.389 79 61.351 79c3.423 0 9.026-6.246 8.425-9.392-.407-2.131.446-3.276 5.408-7.255 5.845-4.689 7.063-7.489 3.551-8.166-.98-.188-4.15 1.721-7.239 4.361-4.517 3.859-5.759 4.478-6.967 3.476-1.242-1.03-.535-2.001 4.549-6.249 6.102-5.099 7.287-8.053 3.412-8.509-1.124-.132-4.356 1.691-7.424 4.187M53.003 61.496c-1.029 1.24-.596 2.228 2.518 5.75l4.453 5.037c.868.982 4.026-.163 4.026-1.461C64 69.631 55.96 60 54.966 60c-.397 0-1.28.673-1.963 1.496M81.75 93.077c-.963.562-1.75 1.633-1.75 2.379 0 2.044 22.987 11.224 24.447 9.764.304-.305.553-1.524.553-2.709 0-1.799-1.533-2.74-9.25-5.678-5.088-1.937-9.925-3.805-10.75-4.151-.825-.345-2.287-.168-3.25.395" fill-rule="evenodd"/></svg>