<svg xmlns="http://www.w3.org/2000/svg" width="128" height="128"><path d="M53.222 4.537C45.001 8.696 40.139 16.521 40.044 25.75L40 30H22.655C1.924 30 2 29.963 2 40.174c0 5.043.413 6.89 1.829 8.171 1.006.91 2.356 1.655 3 1.655C7.698 50 8 57.824 8 80.345c0 28.128.134 30.466 1.829 32 1.006.91 3.143 1.656 4.75 1.658 2.344.002 3.316.736 4.921 3.719 5.826 10.826 19.174 10.826 25 0l2-3.717 20.7-.002L87.9 114l.3 5.75.3 5.75h19l.3-5.75.3-5.75h4.295c7.723 0 7.605.524 7.605-33.829 0-24.607.248-30.171 1.345-30.171 3.034 0 4.655-3.542 4.655-10.174 0-9.798-.059-9.826-20.69-9.826H88.278l-.553-6.093C86.592 11.405 77.687 2.858 65.119 2.209c-5.603-.29-7.429.068-11.897 2.328m1.677 4.247c-4.315 2.254-5.861 3.8-8.115 8.115-3.556 6.808-3.556 11.394 0 18.202 2.254 4.315 3.8 5.861 8.115 8.115 6.808 3.556 11.394 3.556 18.202 0 4.315-2.254 5.861-3.8 8.115-8.115 3.556-6.808 3.556-11.394 0-18.202-2.254-4.315-3.8-5.861-8.115-8.115C70.017 7.173 66.183 6 64 6c-2.183 0-6.017 1.173-9.101 2.784m6.92 2.942c-4.166 4.816-11.912 17.589-11.43 18.846.383.997 2.202 1.428 6.025 1.428h5.476l.305 4.75c.22 3.42.725 4.75 1.805 4.75 1.991 0 14.338-18.178 13.619-20.051C77.227 20.428 75.446 20 71.586 20H66.11l-.305-4.672c-.336-5.142-1.637-6.318-3.986-3.602M58.68 23.908 55.972 28h4.546c3.7 0 4.691.39 5.32 2.092.712 1.924.992 1.763 3.482-2L72.028 24h-4.546c-3.7 0-4.691-.39-5.32-2.092-.712-1.924-.992-1.763-3.482 2M6.406 35.386c-.293.762-.391 3.349-.219 5.75L6.5 45.5l21.847.27 21.846.27-3.126-3.126c-1.719-1.72-3.799-4.428-4.622-6.02L40.949 34H23.943c-13.57 0-17.113.28-17.537 1.386m79.523.841c-.641 1.25-2.787 3.97-4.77 6.043l-3.604 3.77 21.972-.27 21.973-.27v-11l-17.202-.273c-17.012-.271-17.215-.249-18.369 2M12 74v24h7.961l.269-21.75.27-21.75h43l.27 21.75.269 21.75H116V50H12v24m70.698-19.364c-.384.383-.698 1.72-.698 2.97 0 1.905-.608 2.324-3.75 2.584l-3.75.31v11l3.75.31c2.893.24 3.75.74 3.75 2.19s-.857 1.95-3.75 2.19l-3.75.31v11l3.689.307c3.169.263 3.733.686 4 3L82.5 93.5h23v-39l-11.052-.281c-6.079-.154-11.367.033-11.75.417M24 78v20h36V58H24v20m62-4v16h16V58H86v16M28.428 63.326c-.292.762-.395 4.262-.229 7.779L28.5 77.5h27v-15l-13.27-.279c-10.573-.223-13.378.002-13.802 1.105M78 66c0 1.333.667 2 2 2s2-.667 2-2-.667-2-2-2-2 .667-2 2m12 0c0 1.667.667 2 4 2s4-.333 4-2-.667-2-4-2-4 .333-4 2m-58 4v4h20v-8H32v4m46 12c0 1.333.667 2 2 2s2-.667 2-2-.667-2-2-2-2 .667-2 2m12 0c0 1.667.667 2 4 2s4-.333 4-2-.667-2-4-2-4 .333-4 2m-77.81 23.75c.261 3.16.703 3.793 2.81 4.026 2.018.223 2.918-.501 4.667-3.75L21.834 102h-9.955l.311 3.75m13.21-.35c-4.613 4.613-4.613 8.587 0 13.2 2.45 2.45 4.294 3.4 6.6 3.4 4.446 0 10-5.554 10-10 0-2.306-.95-4.15-3.4-6.6-2.45-2.45-4.294-3.4-6.6-3.4s-4.15.95-6.6 3.4m18.933.602 2.167 4.002 34.5-.252 34.5-.252.31-3.75.311-3.75H42.166l2.167 4.002m-16.678 1.827c-2.186 2.415-2.103 6.455.174 8.516 3.964 3.588 10.171.83 10.171-4.519 0-5.121-6.911-7.792-10.345-3.997m2.791 3.258c-1.03 1.668 1.287 3.58 2.667 2.2C34.267 112.133 33.545 110 32 110c-.485 0-1.184.489-1.554 1.087M92 118v4h12v-8H92v4" fill-rule="evenodd"/></svg>