<svg xmlns="http://www.w3.org/2000/svg" viewBox="0 0 128 128" style="enable-background:new 0 0 512 512" xml:space="preserve"><g xmlns="http://www.w3.org/2000/svg" fill="currentColor"><path d="M104.743 4.557h-34.7a1.749 1.749 0 0 0-1.75 1.75v3.424A9.364 9.364 0 0 0 62.28 13.7a36.786 36.786 0 0 0-35.829 36.728v27.49l-1.421 6.548h-1.773a1.75 1.75 0 0 0-1.75 1.75v35.477a1.75 1.75 0 0 0 1.75 1.75H40.1a1.749 1.749 0 0 0 1.75-1.75V86.216a1.749 1.749 0 0 0-1.75-1.75h-1.769l-1.421-6.548V50.387a26.278 26.278 0 0 1 25.4-26.229 9.245 9.245 0 0 0 .857 1.065v7.251a19.256 19.256 0 0 0-17.485 19.148v65.071a6.757 6.757 0 0 0 6.75 6.75h35.213a6.757 6.757 0 0 0 6.75-6.75V51.622a19.256 19.256 0 0 0-17.487-19.148v-7.251a9.319 9.319 0 0 0 2.3-4.536 52.179 52.179 0 0 1 21.253 5.362 1.75 1.75 0 0 0 1.7-3.06 52.37 52.37 0 0 0-14.918-4.957L105.215 13a1.752 1.752 0 0 0 1.278-1.686v-5a1.75 1.75 0 0 0-1.75-1.757zm-34.7 8.5a5.847 5.847 0 1 1-5.848 5.847 5.854 5.854 0 0 1 5.844-5.844zm-3.37 19.326v-4.768a9.2 9.2 0 0 0 6.739 0v4.771zm-28.32 87.56H25.007V87.966h13.346zm-9.741-35.477 1-4.61h4.137l1 4.61zm4.8-34.079v25.969h-3.461V50.428a33.287 33.287 0 0 1 30.893-33.157 9.044 9.044 0 0 0 .029 3.462A29.784 29.784 0 0 0 33.41 50.387zM90.9 51.622v65.071a3.254 3.254 0 0 1-3.25 3.25H52.432a3.254 3.254 0 0 1-3.25-3.25V51.622a15.754 15.754 0 0 1 15.737-15.736h10.239A15.754 15.754 0 0 1 90.9 51.622zM103 9.983l-23.895 6.694a9.364 9.364 0 0 0-7.316-6.946V8.057h31.2z" data-original="#000000"/><path d="M53.136 62.035v31.758a1.749 1.749 0 0 0 1.75 1.75h30.305a1.75 1.75 0 0 0 1.75-1.75V62.035a1.75 1.75 0 0 0-1.75-1.75h-30.3a1.749 1.749 0 0 0-1.755 1.75zm3.5 1.75h26.805v28.258h-26.8z" data-original="#000000"/></g></svg>