<svg xmlns="http://www.w3.org/2000/svg" viewBox="0 0 74 74" style="enable-background:new 0 0 512 512" xml:space="preserve"><g fill="currentColor"><path xmlns="http://www.w3.org/2000/svg" d="M61 72H13a1 1 0 0 1-1-1V3a1 1 0 0 1 1-1h48a1 1 0 0 1 1 1v68a1 1 0 0 1-1 1zm-47-2h46V4H14z" data-original="#000000"/><path xmlns="http://www.w3.org/2000/svg" d="M52 12H22a1 1 0 0 1-1-1V3a1 1 0 0 1 1-1h30a1 1 0 0 1 1 1v8a1 1 0 0 1-1 1zm-29-2h28V4H23zm29 62H22a1 1 0 0 1-1-1v-8a1 1 0 0 1 1-1h30a1 1 0 0 1 1 1v8a1 1 0 0 1-1 1zm-29-2h28v-6H23z" data-original="#000000"/><path xmlns="http://www.w3.org/2000/svg" d="M37 19a8.009 8.009 0 0 1-8-8 1 1 0 0 1 2 0 6 6 0 0 0 12 0 1 1 0 0 1 2 0 8.009 8.009 0 0 1-8 8zm7 45a1 1 0 0 1-1-1 6 6 0 0 0-12 0 1 1 0 0 1-2 0 8 8 0 0 1 16 0 1 1 0 0 1-1 1zm17-26H13a1 1 0 0 1 0-2h48a1 1 0 0 1 0 2z" data-original="#000000"/><path xmlns="http://www.w3.org/2000/svg" d="M37 46a9 9 0 1 1 9-9 9.01 9.01 0 0 1-9 9zm0-16a7 7 0 1 0 7 7 7.008 7.008 0 0 0-7-7z" data-original="#000000"/></g></svg>