<svg xmlns="http://www.w3.org/2000/svg" viewBox="0 0 64 64" style="enable-background:new 0 0 512 512" xml:space="preserve"><path xmlns="http://www.w3.org/2000/svg" d="M61 57h-4v-2.534a5.3 5.3 0 0 0 2.303.534h2.81l-2.862-26.707A3.989 3.989 0 0 0 61 25a4.007 4.007 0 0 0-3.102-3.898 4.005 4.005 0 0 0-2.207-2.711C52.453 9.17 43.802 3 34 3h-2.548A3.992 3.992 0 0 0 28 1a4.007 4.007 0 0 0-3.898 3.102 3.968 3.968 0 0 0-1.604.795 3.986 3.986 0 0 0-1.599-.795A4.008 4.008 0 0 0 17 1a3.992 3.992 0 0 0-3.563 2.214A11.145 11.145 0 0 0 6.757 1H4v2.764c0 1.212.221 2.426.633 3.568A15.878 15.878 0 0 0 1.4 9.2l-.722.541 1.343 2.238a10.885 10.885 0 0 0 5.286 4.51A3.985 3.985 0 0 0 7 18c0 .401.068.798.185 1.178a3.984 3.984 0 0 0-1.083 1.923A4.01 4.01 0 0 0 3 25c0 1.369.697 2.572 1.749 3.293L1.887 55h2.81A5.3 5.3 0 0 0 7 54.466V57H3c-1.103 0-2 .897-2 2v2c0 1.103.897 2 2 2h14c1.103 0 2-.897 2-2v-2c0-1.103-.897-2-2-2h-4v-8.893a7.731 7.731 0 0 0 2.832-2.553l.23-.345-1.275-6.376c8.46-2.702 14.859-9.52 17.213-17.846 2.355 8.326 8.753 15.144 17.213 17.846l-1.275 6.376.23.345A7.731 7.731 0 0 0 51 48.107V57h-4c-1.103 0-2 .897-2 2v2c0 1.103.897 2 2 2h14c1.103 0 2-.897 2-2v-2c0-1.103-.897-2-2-2zM37 9.281c1.391.254 2.732.683 4 1.263v3.37c0 5.125 2.421 9.956 6.483 12.98a4.01 4.01 0 0 0 2.618 2.005 3.99 3.99 0 0 0 .781 1.587l-.487 2.436C42.343 30.096 37 22.599 37 13.913zM51.78 27H51c-1.103 0-2-.897-2-2s.897-2 2-2h.78c-.48.532-.78 1.229-.78 2s.301 1.468.78 2zm-1.678-5.898a4.007 4.007 0 0 0-2.947 2.848A14.234 14.234 0 0 1 43 13.913v-2.302c3.339 2.096 5.941 5.33 7.188 9.223-.028.09-.065.175-.086.268zM52 28v-.78c.532.48 1.229.78 2 .78s1.468-.301 2-.78V28c0 1.103-.897 2-2 2s-2-.897-2-2zm1-3a1.001 1.001 0 1 1 1 1c-.551 0-1-.448-1-1zm6.303 28a3.296 3.296 0 0 1-2.748-1.471A3.291 3.291 0 0 1 56 49.697V31.459a4.027 4.027 0 0 0 1.428-1.413L59.887 53zM57 23c1.103 0 2 .897 2 2s-.897 2-2 2h-.78c.48-.532.78-1.229.78-2s-.301-1.468-.78-2zm-1-.22c-.532-.48-1.229-.78-2-.78s-1.468.301-2 .78V22c0-1.103.897-2 2-2s2 .897 2 2zm-2.569-4.731a3.968 3.968 0 0 0-1.849.775C48.799 12.05 42.227 7.38 34.868 7.036A3.996 3.996 0 0 0 33.64 5H34c8.59 0 16.216 5.188 19.431 13.049zM31 10h-.78c.479-.532.78-1.229.78-2s-.301-1.468-.78-2H31c1.103 0 2 .897 2 2s-.897 2-2 2zM14 6h.78c-.479.532-.78 1.229-.78 2s.301 1.468.78 2H14c-1.103 0-2-.897-2-2s.897-2 2-2zm8.46 5.075c.471.39 1.027.681 1.642.823a4 4 0 0 0 3.615 3.077A2.002 2.002 0 0 1 26 18h-.78c.48-.532.78-1.229.78-2 0-1.654-1.346-3-3-3a2.98 2.98 0 0 0-2 .78V13a2.01 2.01 0 0 1 1.46-1.925zM21 18.22c.532.48 1.229.78 2 .78s1.468-.301 2-.78V19c0 1.103-.897 2-2 2s-2-.897-2-2zM22 16a1.001 1.001 0 1 1 1 1c-.551 0-1-.448-1-1zm-1.22 2H20c-1.103 0-2-.897-2-2s.897-2 2-2h.78c-.48.532-.78 1.229-.78 2s.301 1.468.78 2zm-6.882 3.102c-.009-.04-.027-.076-.037-.116.047.002.091.014.139.014a2.98 2.98 0 0 0 2-.78V21c0 .38-.115.737-.308 1.049a3.991 3.991 0 0 0-1.794-.947zM12.22 23H13c1.103 0 2 .897 2 2s-.897 2-2 2h-.78c.48-.532.78-1.229.78-2s-.301-1.468-.78-2zm.78-5a1.001 1.001 0 1 1 1 1c-.551 0-1-.448-1-1zm3.943.567c.351.417.788.754 1.28 1.001A1.988 1.988 0 0 1 17 20h-.78c.359-.398.617-.886.723-1.433zm-.925-2.772A2.98 2.98 0 0 0 14 15a2.98 2.98 0 0 0-2 .78V15c0-.956.675-1.755 1.573-1.952a4.004 4.004 0 0 0 2.594 1.855 3.98 3.98 0 0 0-.149.892zM12 22v.78c-.532-.48-1.229-.78-2-.78s-1.468.301-2 .78V22c0-1.103.897-2 2-2s2 .897 2 2zm-1 3a1.001 1.001 0 0 1-2 0 1.001 1.001 0 0 1 2 0zm-3 3v-.78c.532.479 1.229.78 2 .78s1.468-.301 2-.78V28c0 1.103-.897 2-2 2s-2-.897-2-2zm5.117 2.485c.367-.46.645-.995.781-1.587A4.007 4.007 0 0 0 17 25a3.97 3.97 0 0 0-.185-1.164 3.98 3.98 0 0 0 1.085-1.938 4.008 4.008 0 0 0 1.676-.844A3.995 3.995 0 0 0 23 23c.811 0 1.559-.254 2.19-.67a20.035 20.035 0 0 1-11.585 10.599zM28 13c-1.103 0-2-.897-2-2v-.78c.532.48 1.229.78 2 .78s1.468-.301 2-.78V11c0 1.103-.897 2-2 2zm-1-5a1.001 1.001 0 1 1 1 1c-.551 0-1-.448-1-1zm1-5c1.103 0 2 .897 2 2v.78c-.532-.479-1.229-.78-2-.78s-1.468.301-2 .78V5c0-1.103.897-2 2-2zm-3 3h.78c-.479.532-.78 1.229-.78 2s.301 1.468.78 2H25c-1.103 0-2-.897-2-2s.897-2 2-2zm-5 0c.487 0 .948.18 1.307.491A3.952 3.952 0 0 0 21 8c0 .497.096.971.262 1.411a4.03 4.03 0 0 0-2.159 2.69 3.967 3.967 0 0 0-1.652.83A1.978 1.978 0 0 1 17 13c-1.103 0-2-.897-2-2v-.78c.532.48 1.229.78 2 .78 1.654 0 3-1.346 3-3a2.98 2.98 0 0 0-.78-2zm-4 2a1.001 1.001 0 1 1 1 1c-.551 0-1-.448-1-1zm1-5c1.103 0 2 .897 2 2v.78c-.532-.479-1.229-.78-2-.78s-1.468.301-2 .78V5c0-1.103.897-2 2-2zM6 3.764V3h.757c1.872 0 3.658.555 5.174 1.584a4.03 4.03 0 0 0-1.403 1.436c-1.36.04-2.708.258-4.011.64A8.504 8.504 0 0 1 6 3.764zM3.736 10.95l-.399-.666a14.121 14.121 0 0 1 6.666-2.247 3.972 3.972 0 0 0 1.025 2.621l-3.864-.644-.329 1.973 3.959.66a3.89 3.89 0 0 0-.693 1.456c-.562.13-1.07.388-1.515.727a8.91 8.91 0 0 1-4.85-3.88zM9 18c0-1.103.897-2 2-2h.78a2.976 2.976 0 0 0-.78 2c0 .05.012.096.015.145A3.962 3.962 0 0 0 10 18c-.341 0-.666.056-.982.137C9.014 18.091 9 18.046 9 18zm-2 5h.78c-.479.532-.78 1.229-.78 2s.301 1.468.78 2H7c-1.103 0-2-.897-2-2s.897-2 2-2zM4.697 53h-.584l2.459-22.954c.35.584.84 1.071 1.428 1.413v18.238c0 .654-.192 1.287-.555 1.832A3.295 3.295 0 0 1 4.697 53zm12.304 8H3v-2h14zM11 57H9v-4.217c.035-.049.076-.093.109-.144A5.286 5.286 0 0 0 10 49.697v-.735a7.548 7.548 0 0 0 1-.143zm-1-10.035V32c.468 0 .917-.082 1.334-.23l2.6 13.001A5.718 5.718 0 0 1 10 46.965zm4.392-10.104L14 34.903a22.02 22.02 0 0 0 14.364-15.695A3.983 3.983 0 0 0 30 16c0-.488-.09-.966-.259-1.414A4.02 4.02 0 0 0 31 13.64v.273c0 10.436-6.782 19.708-16.608 22.948zM33 13.913v-2.461a4 4 0 0 0 1.849-2.417l.151.007v4.871c0 9.643 5.995 17.952 15.001 20.984l-.393 1.964C39.782 33.621 33 24.349 33 13.913zm17.065 30.858 2.6-13.001c.418.148.867.23 1.335.23v14.965a5.722 5.722 0 0 1-3.935-2.194zM53 48.82c.328.069.661.116 1 .143v.735c0 1.05.308 2.067.891 2.941.034.051.074.095.109.144V57h-2zM61 61H47v-2h14z" fill="currentColor" data-original="#000000"/></svg>