<svg xmlns="http://www.w3.org/2000/svg" viewBox="0 0 128 128" style="enable-background:new 0 0 512 512" xml:space="preserve"><g xmlns="http://www.w3.org/2000/svg" fill="currentColor"><path d="M127.156 36.839c-.018-9.828-3.732-18.901-10.46-25.551-13.951-13.787-37.493-13.786-51.407.002-6.909 6.845-14.641 20.26-19.239 33.379-2.849 8.125-4.189 15.329-4.051 21.353-3.198 7.376-7.442 14.047-11.503 18.114-2.502-1.763-4.954-1.255-6.28.045-1.226 1.2-1.98 3.588-.073 6.366a.884.884 0 0 0 .117.142l.754.754L2.332 113.25c-.83.731-1.291 1.604-1.333 2.525-.045.996.382 1.977 1.235 2.875l5.975 6.97c.66.836 1.551 1.324 2.507 1.377.059.003.117.005.176.005.989 0 1.981-.457 2.809-1.295l22.789-22.79.798.798c.038.039.08.074.124.105 1.171.839 2.329 1.185 3.369 1.185 1.223 0 2.282-.477 3.005-1.188 1.212-1.191 1.947-3.556.07-6.318 4.07-4.064 10.751-8.313 18.135-11.513.274.006.536.028.815.028 5.85 0 12.77-1.354 20.519-4.07 12.973-4.547 26.386-12.277 33.374-19.235 6.663-6.633 10.475-16.062 10.457-25.87zm-84.81 33.208c.335 2.19.905 4.181 1.719 5.949-2.61 4.865-5.788 9.287-9.056 12.612l-3.079-3.079c3.617-3.632 7.353-9.201 10.416-15.482zm-5.923 19.975c3.142-3.196 6.198-7.351 8.774-11.935a15.452 15.452 0 0 0 2.089 2.619 15.544 15.544 0 0 0 2.629 2.083c-4.587 2.576-8.745 5.635-11.945 8.78zm-24.142 34.276c-.473.479-1.001.718-1.455.702-.388-.021-.74-.229-1.074-.65l-6.033-7.037c-.343-.362-.746-.907-.722-1.447.017-.37.238-.746.689-1.145l22.742-21.864 8.646 8.646zm30.102-21.906c-.73.72-2.167.946-3.742-.151l-12.899-12.9c-.944-1.422-.997-2.881-.127-3.733.728-.713 2.147-.941 3.705.141l12.9 12.9c1.164 1.729.852 3.065.163 3.743zm.08-6.329-3.079-3.079c3.323-3.264 7.738-6.44 12.597-9.046 1.767.814 3.757 1.385 5.946 1.72-6.273 3.061-11.835 6.791-15.464 10.405zm40.199-16.006c-15.619 5.474-28 5.199-33.962-.764-5.962-5.961-6.24-18.339-.764-33.962 4.508-12.86 12.047-25.969 18.761-32.62 6.576-6.516 15.427-9.774 24.282-9.774s17.717 3.258 24.311 9.775c6.346 6.271 9.85 14.841 9.866 24.131.017 9.278-3.58 18.189-9.868 24.449-6.691 6.66-20.107 14.376-32.626 18.765z" data-original="#000000"/><path d="M112.739 15.334c-.019-.02-.037-.04-.058-.059-11.666-11.09-31.529-11.093-43.371-.005-9.236 8.648-20.604 31.98-20.868 47.984-.092 5.62 1.201 9.81 3.845 12.453 2.819 2.819 7.049 3.817 11.627 3.817 6.433 0 13.552-1.972 18.404-3.631 12.005-4.105 24.215-11.013 30.383-17.187 11.092-11.103 11.11-30.965.038-43.372zm5.007 31.005L114.407 43l4.625-4.625a30.29 30.29 0 0 1-1.286 7.964zm-5.3 9.7-5.539-5.539 6.086-6.086 4.026 4.026c-1.087 2.767-2.612 5.342-4.573 7.599zm-8.16 6.84L99.407 58l6.086-6.086 5.581 5.581c-1.781 1.746-4.098 3.574-6.788 5.384zm-10.141 5.859L91.407 66l6.586-6.586 4.582 4.582a96.03 96.03 0 0 1-8.43 4.742zM71.197 76.79l-2.29-2.29 6.086-6.086L80.579 74l-.48.48c-.013.013-.016.029-.028.042-3.163 1.017-6.131 1.772-8.874 2.268zm-16.739-1.841 6.035-6.035 5.586 5.586-2.987 2.987c-3.682-.119-6.619-.962-8.634-2.538zm-3.995-10.005 3.03-3.03 5.586 5.586-6.035 6.035c-1.57-1.994-2.437-4.872-2.581-8.591zm.277-5.783 1.339 1.339-1.593 1.593a42.45 42.45 0 0 1 .254-2.932zm7.385-23.616L60.579 38l-6.009 6.009a97.363 97.363 0 0 1 3.555-8.464zm5.713-10.286L68.579 30l-6.585 6.585-2.939-2.939c1.509-3.002 3.127-5.841 4.783-8.387zm15.828-14.172L83.579 15l-6.086 6.086-5.502-5.502a28.518 28.518 0 0 1 7.675-4.497zm30.876 4.951-4.048 4.048-5.586-5.586 2.843-2.843a27.635 27.635 0 0 1 6.791 4.381zm5.682 8.317-2.731 2.731-5.586-5.586 4.026-4.026a30.357 30.357 0 0 1 4.291 6.881zm2.382 7.844-3.699-3.699 2.144-2.144a31.994 31.994 0 0 1 1.555 5.843zM68.993 46.414 74.579 52l-6.586 6.586L62.407 53zm-8 5.172L55.407 46l6.586-6.586L67.579 45zM85.407 44l6.086-6.086 5.586 5.586-6.086 6.086zm4.172 7-6.586 6.586L77.407 52l6.586-6.586zm3.328-14.5 6.086-6.086L104.579 36l-6.086 6.086zm7.5-7.5 6.086-6.086 5.586 5.586-6.086 6.086zm-1.414-1.414L93.407 22l6.086-6.086 5.586 5.586zM97.579 29l-6.086 6.086-5.586-5.586 6.086-6.086zm-7.5 7.5-6.086 6.086L78.407 37l6.086-6.086zm-7.5 7.5-6.586 6.586L70.407 45l6.586-6.586zm-16 16-6.086 6.086-5.586-5.586 6.086-6.086zm1.414 1.414L73.579 67l-6.086 6.086-5.586-5.586zM69.407 60l6.586-6.586L81.579 59l-6.586 6.586zm13.586.414L88.579 66l-6.586 6.586L76.407 67zM84.407 59l6.586-6.586L96.579 58l-6.586 6.586zm8-8 6.086-6.086 5.586 5.586-6.086 6.086zm7.5-7.5 6.086-6.086L111.579 43l-6.086 6.086zm7.5-7.5 6.086-6.086 5.482 5.482.013.195-5.995 5.995zm-7.914-22.914-3.8-3.8c2.067.308 4.1.819 6.057 1.542zm-6.94-4.112 5.526 5.526-6.086 6.086L86.407 15l6.033-6.033c.038.001.076.005.113.007zm-7.56 4.612-3.238-3.238a31.207 31.207 0 0 1 7.853-1.377zm0 2.828L90.579 22l-6.086 6.086-5.586-5.586zM83.079 29.5l-6.086 6.086L71.407 30l6.086-6.086zm-7.5 7.5-6.586 6.586L63.407 38l6.586-6.586zM53.152 48.239c.015-.013.034-.018.048-.032l.793-.793L59.579 53l-6.086 6.086-2.392-2.392c.469-2.739 1.17-5.586 2.051-8.455zm14.341 27.675 1.259 1.259c-.962.125-1.897.221-2.792.274zm22.5-8.5 2.253 2.253a103.611 103.611 0 0 1-7.855 3.349zM70.491 16.912l5.588 5.588-6.086 6.086-5.017-5.017c1.849-2.668 3.721-4.944 5.515-6.657zM106.993 93c-7.72 0-14 6.28-14 14s6.28 14 14 14 14-6.28 14-14-6.28-14-14-14zm0 26c-6.617 0-12-5.383-12-12s5.383-12 12-12 12 5.383 12 12-5.383 12-12 12z" data-original="#000000"/><circle cx="104.993" cy="100" r="1" data-original="#000000"/><circle cx="109.993" cy="100" r="1" data-original="#000000"/></g></svg>