<svg height="512" width="512" xmlns="http://www.w3.org/2000/svg"><path d="M477 25.174H35c-19.299 0-35 15.701-35 35v280c0 19.299 15.701 35 35 35h147.75v40.097L61.065 457.657c-7.823 2.725-11.956 11.276-9.23 19.099 2.726 7.825 11.277 11.955 19.1 9.231l163.685-57.016c13.787-4.803 28.975-4.803 42.762 0l163.685 57.016a14.98 14.98 0 0 0 4.936.839c6.204 0 12.008-3.88 14.164-10.07 2.726-7.823-1.407-16.374-9.23-19.099L329.25 415.271v-40.097H477c19.299 0 35-15.701 35-35v-280c0-19.299-15.701-35-35-35zM299.25 404.821l-12-4.18c-20.152-7.02-42.348-7.02-62.5 0l-12 4.18v-29.647h86.5zM482 340.174c0 2.757-2.243 5-5 5H35c-2.757 0-5-2.243-5-5v-280c0-2.757 2.243-5 5-5h442c2.757 0 5 2.243 5 5z"/><path d="m81.606 140.78 35.163-35.163c5.858-5.858 5.858-15.355 0-21.213-5.857-5.858-15.355-5.858-21.213 0l-35.163 35.163c-5.858 5.858-5.858 15.355 0 21.213 2.929 2.929 6.768 4.394 10.606 4.394s7.679-1.465 10.607-4.394zm82.288-44.713-91.837 91.837c-5.858 5.858-5.858 15.355 0 21.213 2.929 2.929 6.768 4.394 10.606 4.394s7.678-1.464 10.606-4.394l91.837-91.837c5.858-5.858 5.858-15.355 0-21.213-5.857-5.858-15.355-5.858-21.212 0z"/></svg>