<svg height="512" viewBox="0 0 511.999 511.999" width="512" xmlns="http://www.w3.org/2000/svg"><path d="M177.657 421.994h-30.001c-8.284 0-15 6.716-15 15s6.716 15 15 15h30.001c8.284 0 15-6.716 15-15s-6.716-15-15-15z"/><path d="m417.215 372.778-89.761-32.586-6.29-42.712c22.412-18.7 36.699-46.826 36.699-78.228V111.989l7.256-10.79c6.83-10.157 8.971-22.44 5.873-33.7-3.029-11.011-10.863-20.3-21.555-25.599-5.441-3.257-44.767-26.763-59.34-34.422C280.92 2.656 268.811 0 256 0s-24.921 2.656-34.098 7.479c-14.572 7.658-53.893 31.162-59.337 34.421-10.691 5.299-18.526 14.588-21.556 25.6-3.098 11.26-.957 23.543 5.873 33.699l7.256 10.79v107.262c0 31.402 14.287 59.527 36.697 78.228l-6.291 42.713-89.763 32.587c-21.349 7.755-38.073 31.621-38.073 54.334v69.886c0 8.284 6.716 15 15 15H440.29c8.284 0 15-6.716 15-15v-69.886c0-22.713-16.723-46.579-38.075-54.335zM184.138 122.415h143.725v32.368L256 167.193l-71.861-12.41v-32.368zm-14.204-46.957c.788-2.865 2.985-5.277 6.187-6.791.444-.21.877-.442 1.298-.694.437-.262 43.842-26.267 58.439-33.938C240.666 31.509 248.195 30 256 30c7.804 0 15.333 1.508 20.141 4.035 14.597 7.671 58.004 33.677 58.441 33.938.421.253.854.484 1.298.694 3.201 1.514 5.397 3.925 6.186 6.791.788 2.865.134 6.061-1.842 9l-5.351 7.957h-63.874v-17.41c0-8.284-6.716-15-15-15s-15 6.716-15 15v17.41h-63.873l-5.351-7.957c-1.975-2.938-2.629-6.135-1.841-9zm14.204 109.769 69.309 11.969a14.994 14.994 0 0 0 5.106 0l69.311-11.969v34.024c0 39.625-32.238 71.862-71.863 71.862s-71.861-32.237-71.861-71.862v-34.024zm71.861 135.887c13.152 0 25.73-2.506 37.281-7.064l4.553 30.914-41.834 33.889-41.834-33.889 4.553-30.914c11.552 4.558 24.129 7.064 37.281 7.064zM86.708 427.113c0-10.197 8.729-22.655 18.313-26.135l90.206-32.748L241 405.31v76.689H86.708zm338.582 54.886H270.999V405.31l45.772-37.08 90.204 32.747c9.585 3.482 18.315 15.939 18.315 26.137z"/><circle cx="348.149" cy="436.999" r="15"/></svg>