<svg height="512" width="512" xmlns="http://www.w3.org/2000/svg"><path d="M511.917 147.432c-.006-.056-.019-.11-.025-.166a15.21 15.21 0 0 0-.219-1.378c-.015-.071-.038-.14-.054-.211-.098-.434-.21-.862-.345-1.281-.034-.105-.077-.206-.114-.31a14.917 14.917 0 0 0-.431-1.118c-.014-.033-.024-.067-.038-.099L455.986 20.697C450.356 8.124 437.817 0 424.042 0H87.951C74.183 0 61.647 8.118 56.014 20.681l-54.701 122A14.992 14.992 0 0 0 0 148.818v49.034c0 29.353 16.712 55.031 41 67.719V477c0 19.299 15.701 35 35 35h360c19.299 0 35-15.701 35-35V265.571c24.288-12.688 41-38.365 41-67.719V149c0-.53-.029-1.052-.083-1.568zM87.951 30h58.893l-23.35 104H38.083L83.388 32.955A5.008 5.008 0 0 1 87.951 30zm273.395 171.436C359.951 225.14 340.298 244 316.25 244c-24.951 0-45.25-20.299-45.25-45.25V164h90.346zM241 30v104h-86.759l23.35-104zm93.408 0 23.351 104H271V30zM150.654 201.436V164H241v34.75c0 24.951-20.299 45.25-45.25 45.25-24.048 0-43.701-18.86-45.096-42.564zM30 164h90.5v34.75c0 12.198-4.781 23.635-13.463 32.205-8.68 8.568-20.179 13.174-32.392 13.041C50.027 243.677 30 222.977 30 197.852zm407.355 79.996c-12.227.131-23.712-4.473-32.392-13.041-8.682-8.57-13.616-20.007-13.616-32.205V164H482v33.852c0 25.125-20.027 45.825-44.645 46.144zM388.506 134 365.155 30h58.887a5.006 5.006 0 0 1 4.563 2.957L473.848 134zM171 362h70v120h-70zm100 0h70v120h-70zm170 115c0 2.757-2.243 5-5 5h-65V362h5c8.284 0 15-6.716 15-15s-6.716-15-15-15H136c-8.284 0-15 6.716-15 15s6.716 15 15 15h5v120H76c-2.757 0-5-2.243-5-5V273.867c1.08.061 2.164.112 3.255.126 20.28.271 39.421-7.438 53.856-21.688a76.488 76.488 0 0 0 7.417-8.482C149.267 262.133 171.149 274 195.75 274c24.619 0 46.513-11.882 60.25-30.214C269.737 262.118 291.631 274 316.25 274c24.601 0 46.483-11.867 60.222-30.176a76.384 76.384 0 0 0 7.417 8.482c14.435 14.249 33.593 21.971 53.856 21.688a73.147 73.147 0 0 0 3.256-.126V477z"/></svg>