<svg height="512pt" viewBox="0 0 512 512" width="512pt" xmlns="http://www.w3.org/2000/svg"><path d="M486.625 204.5 512 189.86V0H0v189.863L25.375 204.5a74.834 74.834 0 0 0 20.527 8.086V482H0v30h512v-30h-49.469V213.316a75 75 0 0 0 24.094-8.816zm-14.992-25.984c-13.969 8.058-31.324 8.058-45.293 0l-10.36-5.977v-27.285H482v27.281zM125.5 145.254H192v27.312l-10.309 5.95c-13.968 8.058-31.324 8.058-45.296 0L125.5 172.23zm162.586-30H222V30h66.086zm30-85.254h67.894v85.254h-67.894zM192 115.254h-66.5V30H192zm30 30h66.086v27.281l-10.367 5.98c-13.969 8.06-31.324 8.06-45.297 0L222 172.505zm96.086 0h67.894v27.113l-12.308 6.836c-13.836 7.688-30.945 7.547-44.656-.363l-10.93-6.309zm163.914-30h-66.02V30H482zM95.5 30v85.254H30V30zM30 172.535v-27.281h65.5v27.586l-9.836 5.676c-13.973 8.058-31.328 8.058-45.297 0zM75.902 482V213.437a74.989 74.989 0 0 0 24.75-8.937l10.375-5.984 10.38 5.988c23.214 13.39 52.062 13.394 75.277-.004l10.375-5.984 10.37 5.984c23.22 13.395 52.063 13.395 75.282.004l10.375-5.988 10.937 6.312c11.579 6.676 24.61 10.02 37.649 10.02 12.625 0 25.254-3.133 36.566-9.418l12.594-6.996 10.516 6.066a74.886 74.886 0 0 0 21.183 8.23V482zm0 0"/><path d="M212 232.879h-57v30h27v128.11c0 24.199 19.688 43.89 43.887 43.89h14.5c-5.895 2.047-10.61 7.723-10.32 14.176.363 8.129 6.59 15 15 15 7.843 0 15.363-6.899 15-15-.29-6.47-4.305-12.133-10.172-14.176h47.425c-5.894 2.047-10.61 7.723-10.324 14.176.367 8.129 6.594 15 15 15 7.848 0 15.363-6.899 15-15-.289-6.47-4.3-12.133-10.168-14.176H330v-30H225.887c-7.657 0-13.887-6.23-13.887-13.89v-8.583h74.21c30.93 0 56.759-23.187 60.083-53.937l7.414-68.594H212zm74.215 119.527H212V335.88h101.297a30.385 30.385 0 0 1-27.082 16.527zm34.074-62.527-1.727 16H212v-16zm0 0"/></svg>