<svg height="512" width="512" xmlns="http://www.w3.org/2000/svg"><path d="M505.771 33.832a15.002 15.002 0 0 0-13.514-2.062 146.418 146.418 0 0 0-98.361 115.513C356.207 110.342 306.334 91 256 91c-38.125 0-74.73 10.739-106 30.698V46c0-8.284-6.716-15-15-15s-15 6.716-15 15v60c0 8.271-6.729 15-15 15H90V46c0-8.284-6.716-15-15-15s-15 6.716-15 15v75H45c-8.271 0-15-6.729-15-15V46c0-8.284-6.716-15-15-15S0 37.716 0 46v90c0 23.676 11.306 45.937 30 60v240c0 24.813 20.187 45 45 45s45-20.187 45-45v-9.452C157.303 462.14 206.251 481 256 481c65.986 0 129.352-33.511 166-91.377V436c0 24.813 20.187 45 45 45s45-20.187 45-45V46c0-4.822-2.317-9.349-6.229-12.168zM75 451c-8.271 0-15-6.729-15-15V187.973a15 15 0 0 0-7.489-12.984c-9.995-5.782-17.242-15.151-20.531-25.917A44.843 44.843 0 0 0 45 151h60c4.527 0 8.896-.679 13.021-1.928-3.289 10.766-10.536 20.135-20.531 25.917A14.999 14.999 0 0 0 90 187.973V436c0 8.271-6.729 15-15 15zm181 0c-54.523 0-105.023-26.134-136-70.124V196c11.265-8.475 19.842-19.928 24.884-32.872C174.855 136.317 215.146 121 256 121c54.523 0 105.023 26.134 136 70.124V316c0 8.284 6.716 14.99 15 14.99h8.754C395.831 400.509 330.104 451 256 451zm226-15c0 8.271-6.729 15-15 15s-15-6.729-15-15V316c0-8.284-6.716-15-15-15h-15V170.868c0-42.974 23.414-81.7 60-101.972z"/><path d="M256 181c-58.448 0-106 47.103-106 105s47.552 105 106 105 106-47.103 106-105-47.552-105-106-105zm0 180c-41.906 0-76-33.645-76-75s34.094-75 76-75 76 33.645 76 75-34.094 75-76 75z"/></svg>