<svg height="512" viewBox="0 0 476.5 476.5" width="512" xmlns="http://www.w3.org/2000/svg"><path d="M425.25 386.5V417h-53.927l11.87-59.789c6.654-33.517-6.602-66.593-31.821-86.661l16.996-168.292c41.806-6.583 73.883-42.86 73.883-86.486V0h-30v15.772c0 31.734-25.817 57.552-57.552 57.552h-55.728v30h39.136l-15.354 152.044a90.041 90.041 0 0 0-4.398-1.258l-131.142-33.773-.814-.21-.832-.117a103.155 103.155 0 0 0-33.236.708l-26.855-89.005h59.936v-30H58.184v30h35.957l29.774 98.678c-25.212 12.881-45.016 35.869-53.029 64.784-7.674 27.695-3.456 57.626 11.575 82.12L106.824 417H51.25v-30.5h-30v90h30V447h374v29.5h30v-90zm-317.22-24.895c-10.692-17.424-13.693-38.716-8.234-58.417 9.808-35.394 44.45-58.309 80.788-53.579l130.289 33.553c30.106 7.753 48.948 37.714 42.895 68.208L340.737 417H142.022z"/><path d="M214.853 290.978c-20.417 0-37.793 13.219-44.05 31.544H143.25v30h27.553c6.258 18.325 23.633 31.544 44.05 31.544 25.665 0 46.544-20.88 46.544-46.544s-20.879-46.544-46.544-46.544zm0 63.088c-9.123 0-16.544-7.422-16.544-16.544s7.422-16.544 16.544-16.544 16.544 7.421 16.544 16.544-7.421 16.544-16.544 16.544z"/></svg>