<svg height="512" width="512" xmlns="http://www.w3.org/2000/svg"><path d="M256 142c-24.813 0-45 20.187-45 45s20.187 45 45 45 45-20.187 45-45-20.187-45-45-45zm0 60c-8.271 0-15-6.729-15-15s6.729-15 15-15 15 6.729 15 15-6.729 15-15 15zM60.125 321.182H121v30H60.125zm0 60H121v30H60.125zm330.875-60h60.875v30H391zM225.562 322h60.875v30h-60.875zm0-60h60.875v30h-60.875zM391 381.182h60.875v30H391z"/><path d="M512 205.315v-90H406.438v109.671L361 265.375V135.91l-90-80V0h-30v55.91l-90 80v129.465l-45.438-40.389V115.315H0v90h75.562v19.671L.125 292.042V512h511.75V292.042l-75.438-67.056v-19.671zm-75.562-60H482v30h-45.563v-30zM30 175.315v-30h45.562v30zM151 482H30.125V305.514l60.437-53.722L151 305.514zm120 0h-30v-55c0-8.271 6.729-15 15-15s15 6.729 15 15zm60 0h-30v-55c0-24.813-20.187-45-45-45s-45 20.187-45 45v55h-30V149.382l75-66.667 75 66.667v142.66zm150.875 0H361V305.514l60.438-53.722 60.438 53.722V482z"/></svg>