<svg height="512pt" viewBox="-1 0 512 512" width="512pt" xmlns="http://www.w3.org/2000/svg"><path d="M495.32 297.48H304.828v-36.42h144.828c8.383 0 15.176-6.797 15.176-15.18V15.18c0-8.382-6.793-15.18-15.176-15.18H60.844c-8.383 0-15.18 6.797-15.18 15.18v230.699c0 8.383 6.797 15.18 15.18 15.18h144.82v36.421H15.18C6.797 297.48 0 304.277 0 312.66v184.16C0 505.203 6.797 512 15.18 512h480.14c8.383 0 15.18-6.797 15.18-15.18V312.66c0-8.383-6.797-15.18-15.18-15.18zm-106.507 92.083h-267.13v-61.727h267.13zM76.02 30.354h358.457v142.672H76.02zm0 173.028h358.457v27.32H76.02zm160 57.676h38.453v36.421H236.02zM30.355 327.836h60.973v153.809H30.355zm91.329 92.082h267.128v61.727H121.684zm358.46 61.727h-60.976v-153.81h60.977zm0 0"/><path d="M269.078 435.602h-27.656c-8.383 0-15.18 6.796-15.18 15.18s6.797 15.175 15.18 15.175h27.656c8.383 0 15.18-6.793 15.18-15.176s-6.797-15.18-15.18-15.18zM60.844 376.406c-8.383 0-15.18 6.797-15.18 15.18v26.309c0 8.382 6.797 15.175 15.18 15.175s15.176-6.793 15.176-15.175v-26.31c0-8.382-6.793-15.179-15.176-15.179zm388.812 56.664c8.383 0 15.176-6.793 15.176-15.175v-26.31c0-8.382-6.793-15.179-15.176-15.179s-15.18 6.797-15.18 15.18v26.309c0 8.382 6.797 15.175 15.18 15.175zm0 0"/></svg>