<svg xmlns="http://www.w3.org/2000/svg" viewBox="0 0 512.023 512.023" style="enable-background:new 0 0 512.023 512.023" xml:space="preserve"><path d="m499.488 230.706-90.048-20.16-9.568-84.352c-.832-7.424-6.656-13.28-14.08-14.08l-82.976-9.376-9.888-88.512c-.512-4.384-2.784-8.384-6.336-11.008-3.52-2.656-7.968-3.776-12.352-2.944l-90.496 16a16.019 16.019 0 0 0-12.416 10.656L82.016 294.227l-42.592 42.592-11.328 11.328C9.984 366.258 0 390.386 0 416.018c0 25.632 9.984 49.76 28.128 67.872C46.24 502.034 70.368 512.018 96 512.018s49.76-9.984 67.872-28.128l11.328-11.328 42.592-42.592 267.296-89.312a16.116 16.116 0 0 0 10.624-12l16-79.168c1.696-8.511-3.712-16.864-12.224-18.784zm-203.68-96.607 73.696 8.352 8.384 73.728-201.024 144.96-26.016-26.016 144.96-201.024zm-97.152-88 64.352-11.36 8.704 78.08L127.936 312.21l-13.632-13.632 84.352-252.479zM50.752 461.266C38.656 449.17 32 433.107 32 416.018s6.656-33.152 18.752-45.248l90.496 90.496c-24.192 24.192-66.304 24.192-90.496 0zm113.12-22.624-90.496-90.496L96 325.49l90.528 90.528-22.656 22.624zm302.272-125.376L213.44 397.714l-13.632-13.632 198.56-143.2 78.848 17.632-11.072 54.752z"/></svg>