<svg xmlns="http://www.w3.org/2000/svg" viewBox="0 0 297 297" style="enable-background:new 0 0 297 297" xml:space="preserve"><path d="M231.876 203.755c-23.395 0-42.428 19.034-42.428 42.428s19.034 42.428 42.428 42.428 42.428-19.034 42.428-42.428-19.033-42.428-42.428-42.428zm0 65.123c-12.514 0-22.694-10.18-22.694-22.694s10.18-22.694 22.694-22.694 22.694 10.18 22.694 22.694-10.18 22.694-22.694 22.694zM284.342 61.49l-48.833-48.833C226.846 3.994 215.098-.47 202.432.041c-13.833.575-27.066 7.167-36.305 18.085l-45.464 53.73c-7.647 9.037-12.766 19.54-16.487 30.326-8.065 23.377-36.151 92.074-36.151 92.074L7.191 255.091C2.553 259.727 0 265.892 0 272.45a24.386 24.386 0 0 0 7.19 17.358l.001.001a24.386 24.386 0 0 0 17.358 7.19c6.558 0 12.723-2.553 17.359-7.19l60.836-60.836s68.697-28.086 92.074-36.151c10.785-3.721 21.288-8.84 30.325-16.487l53.731-45.464c10.917-9.239 17.509-22.472 18.084-36.305.527-12.666-3.954-24.413-12.616-33.076zm-7.101 32.258a28.803 28.803 0 0 1-1.085 6.666L261.32 85.578l9.586-9.586c4.369 4.663 6.618 10.935 6.335 17.756zm-39.776 46.311-15.313-15.313 11.212-11.212 16.248 16.248-12.147 10.277zm-23.685-23.685-12.392-12.392L212.6 92.77l12.392 12.392-11.212 11.212zm-114.15 92.62-11.625-11.625 17.864-45.498c3.488 8.864 8.714 16.931 15.522 23.738s14.875 12.033 23.738 15.522L99.63 208.994zm31.94-118.921 12.729 12.729-11.213 11.213-9.114-9.114c1.823-5.112 4.356-10.102 7.598-14.828zm17.696-21.47 14.616 14.616L152.67 94.43l-13.681-13.681 10.277-12.146zm17.952-21.216 16.247 16.247-11.212 11.212-15.313-15.312 10.278-12.147zm13.974-16.514a32.609 32.609 0 0 1 4.392-4.288l17.466 17.466-11.212 11.212-16.945-16.945 6.299-7.445zM156.03 174.125c-5.833-1.819-11.333-4.663-16.246-8.539l14.064-14.064 12.392 12.393-10.21 10.21zm18.583-1.84 3.9 3.9c-2.722.304-5.44.418-8.135.334l4.235-4.234zm-43.201-15.071c-3.876-4.913-6.719-10.413-8.538-16.245l10.211-10.211 12.392 12.392-14.065 14.064zm10.045-34.828 11.213-11.213 12.392 12.392-11.213 11.213-12.392-12.392zm19.585-19.584 11.212-11.212 12.392 12.392-11.212 11.212-12.392-12.392zm19.583-19.583 11.212-11.212 12.392 12.392-11.212 11.211-12.392-12.391zm19.584-19.584 11.212-11.212 12.392 12.392-11.212 11.212-12.392-12.392zm-75.495 58.751-4.235 4.235c-.084-2.695.03-5.413.335-8.135l3.9 3.9zm67.384 50.641-9.114-9.114 11.213-11.213 12.729 12.729c-4.726 3.242-9.716 5.775-14.828 7.598zm-17.485-17.485-12.392-12.392 11.213-11.213 12.392 12.392-11.213 11.213zm7.192-31.977 11.212-11.212 12.392 12.392-11.212 11.212-12.392-12.392zm39.167-39.167 11.212-11.212 12.392 12.392-11.212 11.212-12.392-12.392zm19.584-19.584 9.601-9.601 12.392 12.392-9.601 9.601-12.392-12.392zm1.229-17.972-9.601 9.601-12.392-12.392 9.601-9.601 12.392 12.392zm-38.534-27.084c.384-.016.768-.024 1.149-.024 6.376 0 12.208 2.235 16.609 6.358l-9.587 9.587-14.836-14.836a28.84 28.84 0 0 1 6.665-1.085zM27.953 275.855c-1.227 1.227-2.659 1.41-3.404 1.41s-2.178-.183-3.404-1.41l-.001-.001c-1.227-1.227-1.41-2.659-1.41-3.404s.183-2.178 1.411-3.404l55.313-55.313 6.809 6.809-55.314 55.313zM216.25 158.01l-13.681-13.681 11.212-11.212 14.616 14.616-12.147 10.277zm49.877-42.203-7.445 6.3-16.946-16.946 11.212-11.212 17.466 17.466a32.542 32.542 0 0 1-4.287 4.392z"/></svg>