<svg height="512" viewBox="0 0 510 510" width="512" xmlns="http://www.w3.org/2000/svg"><path d="M406.353 0v300H13.646l35 210H254.06l30-180h122.293v180h90V0zM248.646 360h-82.293v-30h87.293zm-82.292 30h77.293l-5 30h-72.293zm-30 30H64.061l-5-30h77.293zm0-90v30H54.061l-5-30zM69.061 450h67.293v30H74.061zm97.293 30v-30h67.293l-5 30zm299.999 0h-30V30h30z"/><path d="M151.354 270c58.836 0 105-47.832 105-105 0-57.22-46.218-105-105-105-58.836 0-105 47.832-105 105 0 57.22 46.217 105 105 105zm65.014-67.572c-12.285-8.222-20.015-22.186-20.015-37.428s7.729-29.206 20.015-37.428c6.553 11.298 9.985 24.038 9.985 37.428.001 13.388-3.431 26.125-9.985 37.428zm-19.997-97.433c-18.527 13.924-30.018 36.016-30.018 60.005s11.491 46.082 30.019 60.006C183.53 234.67 167.834 240 151.354 240c-16.479 0-32.173-5.329-45.019-14.995 18.528-13.924 30.019-36.016 30.019-60.005s-11.491-46.082-30.019-60.006C119.177 95.33 134.873 90 151.354 90c16.478 0 32.172 5.329 45.017 14.995zM86.339 127.573c12.285 8.221 20.015 22.185 20.015 37.427s-7.73 29.206-20.015 37.428C79.786 191.13 76.354 178.39 76.354 165c0-13.388 3.431-26.125 9.985-37.427zM301.353 75h75v30h-75zm-15 60h90v30h-90zm15 60h75v30h-75z"/></svg>