<svg height="512" width="512" xmlns="http://www.w3.org/2000/svg"><circle cx="399.574" cy="431.749" r="15"/><path d="M477.537 287.008c-4.378-24.768-14.595-48.373-29.71-68.526-31.241-41.655-41.353-96.413-27.048-146.478 4.914-17.2 1.554-35.254-9.218-49.535C400.789 8.19 384.353 0 366.466 0c-17.888 0-34.324 8.19-45.097 22.471-10.771 14.28-14.131 32.334-9.217 49.534 12.746 44.609 6.091 92.937-17.608 132.408-8.585-29.878-8.918-62.006-.231-92.409 4.914-17.2 1.554-35.254-9.218-49.535C274.323 48.19 257.887 40 240 40s-34.324 8.19-45.096 22.47-14.132 32.335-9.218 49.534c8.686 30.402 8.353 62.53-.231 92.408-23.699-39.472-30.353-87.799-17.608-132.408 4.914-17.199 1.554-35.253-9.218-49.534C147.858 8.19 131.421 0 113.534 0 95.646 0 79.21 8.19 68.438 22.47S54.306 54.805 59.22 72.004c14.304 50.064 4.193 104.822-27.048 146.477C11.125 246.545 0 279.92 0 315s11.125 68.455 32.173 96.519L47.534 432c8.453 11.271 21.911 18 36 18h60c4.323 0 8.569-.628 12.652-1.851a167.91 167.91 0 0 0 2.453 3.369L174 472c8.453 11.271 21.911 18 36 18h60c8.426 0 16.656-2.44 23.72-6.818C316.676 501.227 345.603 512 377 512c74.439 0 135-60.561 135-135 0-34.542-13.046-66.091-34.463-89.992zM347.339 140h38.254a194.887 194.887 0 0 0 2.026 13.864A195.386 195.386 0 0 0 391.321 170h-49.71c1.459-5.326 2.7-10.71 3.702-16.136.848-4.593 1.51-9.22 2.026-13.864zm-2.019-99.463C350.371 33.84 358.078 30 366.466 30c8.387 0 16.094 3.84 21.146 10.536 5.051 6.696 6.626 15.162 4.322 23.227-4.294 15.03-6.756 30.597-7.392 46.237H348.39c-.636-15.64-3.097-31.207-7.392-46.237-2.304-8.065-.728-16.53 4.322-23.226zm-36.216 195.945c8.49-11.32 15.727-23.591 21.611-36.482h71.502c5.883 12.891 13.12 25.162 21.61 36.482a130.503 130.503 0 0 1 11.785 18.919C417.876 246.817 397.99 242 377 242c-20.776 0-40.469 4.722-58.067 13.142a165.35 165.35 0 0 1-10.794-17.342c.322-.444.644-.89.965-1.318zM220.873 180h38.254a194.887 194.887 0 0 0 2.026 13.864A195.386 195.386 0 0 0 264.855 210h-49.71c1.459-5.326 2.7-10.71 3.702-16.136.848-4.593 1.51-9.22 2.026-13.864zm-2.019-99.464C223.905 73.84 231.613 70 240 70s16.094 3.84 21.146 10.536c5.051 6.696 6.626 15.162 4.322 23.227-4.294 15.03-6.755 30.597-7.392 46.237h-36.152c-.636-15.64-3.097-31.207-7.392-46.237-2.304-8.065-.728-16.531 4.322-23.227zM94.407 140h38.254a194.775 194.775 0 0 0 2.026 13.863A195.316 195.316 0 0 0 138.389 170h-49.71c1.459-5.326 2.7-10.71 3.702-16.137A195.35 195.35 0 0 0 94.407 140zm-2.018-99.464C97.439 33.84 105.146 30 113.534 30s16.095 3.84 21.146 10.537c5.051 6.696 6.626 15.162 4.322 23.226-4.294 15.03-6.756 30.597-7.392 46.237H95.458c-.636-15.64-3.097-31.207-7.392-46.237-2.304-8.065-.728-16.531 4.323-23.227zM83.534 420a15.072 15.072 0 0 1-12-6l-15.361-20.482c-34.673-46.23-34.673-110.806 0-157.037 8.49-11.32 15.727-23.591 21.61-36.481h71.503c5.883 12.89 13.12 25.161 21.61 36.481.321.428.644.874.966 1.318a165.152 165.152 0 0 1-13.223 20.683c-21.047 28.063-32.173 61.439-32.173 96.518 0 22.708 4.668 44.699 13.665 65zM210 460a15.072 15.072 0 0 1-12-6l-15.361-20.482c-34.673-46.23-34.673-110.806 0-157.036 8.49-11.32 15.727-23.591 21.611-36.482h71.502a198.01 198.01 0 0 0 17.69 31.041C262.13 295.786 242 334.085 242 377c0 31.255 10.68 60.061 28.577 82.967-.193.008-.382.033-.577.033zm167 22c-57.897 0-105-47.103-105-105s47.103-105 105-105 105 47.103 105 105-47.103 105-105 105z"/><circle cx="442" cy="389.322" r="15"/><path d="M381.896 371.645c-5.858 5.858-5.858 15.355 0 21.213s15.355 5.858 21.213 0 5.858-15.355 0-21.213-15.355-5.858-21.213 0z"/></svg>