<svg height="512" width="512" xmlns="http://www.w3.org/2000/svg"><path d="M512 144.777c0-38.495-30.365-70.027-68.392-71.893a3.258 3.258 0 0 0-.805-.995c-42.5-34.552-96.405-49.36-149.265-41.346-10.461-7.232-20.861-12.862-30.933-16.706C200.525-9.855 134.873-2.858 82.49 33.035 31.138 68.22.301 126.354.002 188.541c-.416 86.597 58.001 162.067 140.566 184.006l-.67 100.421c-.05 10.348 3.932 20.096 11.21 27.448 7.281 7.354 16.989 11.432 27.336 11.482l18.373.088h.074c.139 0 .274-.017.412-.021.135.001.271.012.406.012 13.942 0 27.433-7.538 34.346-20.699l46.876-88.832c49.57 11.553 101.843 2.626 145.189-25.163 47.851-30.677 78.647-80.087 86.716-139.129 2.552-18.683.797-41.464-4.917-64.465A71.555 71.555 0 0 0 512 144.777zm-30 0c0 23.15-18.823 41.984-41.96 41.984s-41.96-18.834-41.96-41.984 18.823-41.984 41.96-41.984S482 121.627 482 144.777zM99.447 57.783c44.117-30.229 99.649-36.04 152.367-15.952-41.75 16.559-76.404 47.437-97.69 87.958-23.342 44.437-27.417 94.663-14.418 140.239l-88.085-.424c-13.919-23.927-21.759-51.666-21.618-80.919.25-52.345 26.211-101.28 69.444-130.902zm-25.191 241.93 76.855.37c10.287 21.441 24.699 41.138 42.981 57.784l-23.723 44.957.281-42.085a15.001 15.001 0 0 0-12.113-14.82c-33.148-6.501-62.211-23.098-84.281-46.206zm201.351 70.799a15 15 0 0 0-17.625 7.353l-52.472 99.438c-2.242 4.268-7.532 5.918-11.797 3.679l-16.266-8.544c-4.263-2.239-5.907-7.534-3.678-11.777l52.458-99.412a15 15 0 0 0-3.922-18.734c-26.422-21.043-44.569-49.165-53.508-79.844l202.95 106.61c-30.908 10.235-64.432 10.86-96.14 1.231zm205.506-136.42c-6.858 50.194-32.85 92.077-73.183 117.935-.685.439-1.378.859-2.068 1.287l-243.28-127.796c-1.328-27.649 4.496-55.88 18.1-81.778 22.336-42.52 62.155-72.445 109.249-82.102 39.608-8.124 80.474-.742 115.127 20.265-22.037 12.318-36.978 35.878-36.978 62.874 0 39.692 32.281 71.984 71.96 71.984 15.221 0 29.343-4.765 40.982-12.863 1.259 10.956 1.313 21.248.091 30.194z"/></svg>