<svg height="512" width="512" xmlns="http://www.w3.org/2000/svg"><path d="M256 512c-68.38 0-132.667-26.629-181.02-74.98C26.629 388.667 0 324.38 0 256S26.629 123.333 74.98 74.98C123.333 26.629 187.62 0 256 0s132.667 26.629 181.02 74.98C485.371 123.333 512 187.62 512 256s-26.629 132.667-74.98 181.02C388.667 485.371 324.38 512 256 512zm0-482c-60.367 0-117.12 23.508-159.806 66.194S30 195.633 30 256s23.508 117.12 66.194 159.806S195.633 482 256 482s117.12-23.508 159.806-66.194S482 316.367 482 256s-23.508-117.12-66.194-159.806S316.367 30 256 30z"/><path d="M256 389.751c-73.75 0-133.751-60-133.751-133.751s60-133.751 133.751-133.751 133.751 60 133.751 133.751S329.75 389.751 256 389.751zm0-237.502c-57.208 0-103.751 46.542-103.751 103.751S198.792 359.751 256 359.751 359.751 313.208 359.751 256 313.208 152.249 256 152.249z"/><path d="M314.881 284.417c0 25.822-23.083 42.058-57.903 42.058-34.625 0-57.512-16.236-57.512-42.058 0-14.671 7.629-25.626 20.735-32.277-10.172-6.26-15.845-15.845-15.845-28.169 0-24.061 21.518-39.124 52.621-39.124 31.494 0 53.012 15.063 53.012 39.124 0 12.324-5.869 21.909-16.041 28.169 13.304 6.651 20.933 17.606 20.933 32.277zm-32.081-.978c0-12.128-9.977-19.562-25.821-19.562-15.649 0-25.431 7.433-25.431 19.562s9.781 19.757 25.431 19.757c15.844 0 25.821-7.629 25.821-19.757zm-46.948-58.099c0 10.368 8.216 16.823 21.127 16.823 13.106 0 21.518-6.455 21.518-16.823 0-10.759-8.607-17.214-21.518-17.214-12.716 0-21.127 6.456-21.127 17.214z"/></svg>