<svg height="512pt" viewBox="0 0 512 512" width="512pt" xmlns="http://www.w3.org/2000/svg"><path d="M201 20c0-11.047 8.953-20 20-20s20 8.953 20 20-8.953 20-20 20-20-8.953-20-20zm96 60c11.047 0 20-8.953 20-20s-8.953-20-20-20-20 8.953-20 20 8.953 20 20 20zm-174 29c11.047 0 20-8.953 20-20s-8.953-20-20-20-20 8.953-20 20 8.953 20 20 20zm389-34v181c0 85.059-30.773 136.691-56.59 165.027-14.039 15.41-29.062 26.743-43.558 34.758C426.152 470.242 435 490.105 435 512h-40c0-22.055-17.945-40-40-40H157c-22.055 0-40 17.945-40 40H77c0-21.895 8.848-41.758 23.145-56.215-14.497-8.015-29.516-19.347-43.555-34.754C30.773 392.691 0 341.06 0 256v-46h34c0-33.086 26.914-60 60-60 14.383 0 27.598 5.09 37.941 13.559 12.98-14.88 32.059-24.309 53.309-24.309 18.297 0 34.996 6.984 47.566 18.422C249.164 134.879 275.875 120 306 120c31.77 0 59.746 16.547 75.77 41.477C391.672 154.27 403.844 150 417 150c24.574 0 45.734 14.855 55 36.055V75c0-19.3-15.7-35-35-35s-35 15.7-35 35h-40c0-41.355 33.645-75 75-75s75 33.645 75 75zM397 210h40c0-11.027-8.973-20-20-20s-20 8.973-20 20zm-141 0h100c0-27.57-22.43-50-50-50s-50 22.43-50 50zm-101.5 0H216c0-16.957-13.793-30.75-30.75-30.75S154.5 193.043 154.5 210zM74 210h40c0-11.027-8.973-20-20-20s-20 8.973-20 20zm398 40H40v6c0 72.258 25.102 114.977 46.16 138.09C109.887 420.137 138.477 432 155 432h202c16.523 0 45.113-11.863 68.84-37.91C446.898 370.977 472 328.258 472 256zm0 0"/></svg>