<svg height="512" width="512" xmlns="http://www.w3.org/2000/svg"><path d="M271 150h-45v-30h15c8.284 0 15-6.716 15-15V45c0-8.284-6.716-15-15-15h-60c-8.284 0-15 6.716-15 15v60c0 8.284 6.716 15 15 15h15v30h-45c-41.355 0-75 33.645-75 75v242c0 24.813 20.187 45 45 45h180c24.813 0 45-20.187 45-45V225c0-41.355-33.645-75-75-75zm-75-90h30v30h-30zm-45 120h120c19.555 0 36.228 12.541 42.42 30H108.58c6.192-17.459 22.865-30 42.42-30zm150 302H121c-8.271 0-15-6.729-15-15V240h210v227c0 8.271-6.729 15-15 15z"/><path d="M271 302c-8.284 0-15 6.716-15 15v15h-2.58c-4.527-12.764-14.656-22.893-27.42-27.42V287c0-8.284-6.716-15-15-15s-15 6.716-15 15v17.58c-12.764 4.527-22.893 14.656-27.42 27.42H166v-15c0-8.284-6.716-15-15-15s-15 6.716-15 15v30c0 8.284 6.716 15 15 15h15v30h-15c-8.284 0-15 6.716-15 15v30c0 8.284 6.716 15 15 15s15-6.716 15-15v-15h2.58c6.192 17.459 22.865 30 42.42 30s36.228-12.541 42.42-30H256v15c0 8.284 6.716 15 15 15s15-6.716 15-15v-30c0-8.284-6.716-15-15-15h-15v-30h15c8.284 0 15-6.716 15-15v-30c0-8.284-6.716-15-15-15zm-60 120c-8.271 0-15-6.729-15-15v-60c0-8.271 6.729-15 15-15s15 6.729 15 15v60c0 8.271-6.729 15-15 15z"/><circle cx="301" cy="75" r="15"/><circle cx="361" cy="45" r="15"/><circle cx="361" cy="105" r="15"/><circle cx="421" cy="75" r="15"/><circle cx="421" cy="15" r="15"/><circle cx="421" cy="135" r="15"/></svg>