<svg height="512" viewBox="0 0 510 510" width="512" xmlns="http://www.w3.org/2000/svg"><path d="M300 270.041V165H60v105.041C47.456 260.603 31.871 255 15 255H0v195h30v30h30v-30h240v30h30v-30h30V255h-15c-16.871 0-32.456 5.603-45 15.041zM270 195v120.041C257.456 305.603 241.871 300 225 300h-90c-16.871 0-32.456 5.603-45 15.041V195zm-2.57 165H92.57c6.19-17.461 22.873-30 42.43-30h90c19.557 0 36.239 12.539 42.43 30zM30 420V287.57c17.461 6.191 30 22.873 30 42.43v90zm60 0v-30h180v30H90zm240 0h-30v-90c0-19.556 12.539-36.239 30-42.43z"/><path d="M135 225h30v30h-30zm60 0h30v30h-30zm315-30V30H360v165h60v255h-30v30h90v-30h-30V195zM390 60h90v105h-90z"/></svg>