<svg xmlns="http://www.w3.org/2000/svg" viewBox="0 0 512 512" style="enable-background:new 0 0 512 512" xml:space="preserve"><path d="M500.87 0H11.13C4.983 0 0 4.983 0 11.13v489.739C0 507.017 4.983 512 11.13 512h489.74c6.147 0 11.13-4.983 11.13-11.13V11.13C512 4.983 507.017 0 500.87 0zM387.698 22.261h94.447l-41.473 41.474c-.002.002-.006.004-.008.008l-55.095 55.095-47.224-47.224 49.353-49.353zm-191.025 191.02-47.223 47.223-55.083-55.092c-.019-.019-.04-.034-.058-.053l-70.776-70.781 47.214-47.223 55.093 55.093.006.006 70.827 70.827zm-47.219-78.705 47.221-47.222 55.095 55.095c.008.008.016.013.023.021l70.811 70.811-47.223 47.222-125.927-125.927zm7.865 149.541 55.095-55.095 47.224 47.223-70.833 70.833-55.095 55.095-47.221-47.221 70.83-70.835zm125.931 0 .006-.006 55.089-55.089 47.224 47.224-70.833 70.833a.065.065 0 0 0-.008.009l-55.088 55.086-47.223-47.224 70.833-70.833zm62.97-78.701-.006-.007-70.832-70.832 47.222-47.222L448.53 213.28l-47.223 47.222-55.087-55.086zM261.769 22.261h94.447L314.75 63.726l-.017.016-55.093 55.092-47.222-47.222 49.351-49.351zm-125.931 0h94.447l-41.482 41.482-.006.006-55.089 55.089-47.222-47.225 49.352-49.352zm-113.577 0h82.095L62.875 63.743l-.006.006-40.608 40.616V22.261zm0 142.531 48.49 48.492-48.49 48.491v-96.983zm0 128.464 64.23-64.23 47.216 47.22-70.833 70.833-.006.006-39.256 39.265-1.352 1.352v-94.446zm0 196.483v-41.611l41.606 41.611H22.261zm73.086 0-71.815-71.825 47.216-47.221 18.67 18.67 36.42 36.421.006.006 63.95 63.949H95.347zm125.928 0-71.825-71.825 47.224-47.224 55.093 55.095a.065.065 0 0 0 .009.008l63.947 63.947h-94.448zm125.93 0-71.825-71.825 47.223-47.223 55.095 55.095 63.954 63.953h-94.447zm142.534 0h-16.604l-71.825-71.825 47.224-47.224 41.205 41.205v77.844zm0-109.325-25.463-25.464 25.463-25.463v50.927zm0-82.411-49.073 49.073-.002.003-55.095 55.095-47.224-47.224 70.833-70.833.002-.002 55.092-55.092 25.466 25.466v43.514zm0-74.997-17.596-17.596-.006-.006-70.827-70.827 47.224-47.224 41.205 41.205v94.448zm0-125.93-25.463-25.463 25.463-25.464v50.927z"/></svg>