<svg height="512" width="512" xmlns="http://www.w3.org/2000/svg"><path d="M497 0H15C6.716 0 0 6.716 0 15v482c0 8.284 6.716 15 15 15h482c8.284 0 15-6.716 15-15V15c0-8.284-6.716-15-15-15zm-15 482H30V30h452z"/><path d="M75 241c91.088 0 166-74.934 166-166 0-8.284-6.716-15-15-15H75c-8.284 0-15 6.716-15 15v151c0 8.284 6.716 15 15 15zM90 89.99h120.179C203.233 153.037 153.037 203.234 90 210.178zM75 452h151c8.284 0 15-6.716 15-15 0-91.088-74.934-166-166-166-8.284 0-15 6.716-15 15v151c0 8.284 6.716 15 15 15zm15-150.178c63.037 6.944 113.233 57.141 120.179 120.178H90zM437 271c-91.088 0-166 74.934-166 166 0 8.284 6.716 15 15 15h151c8.284 0 15-6.716 15-15V286c0-8.284-6.716-15-15-15zm-15 151H301.821c6.945-63.037 57.142-113.234 120.179-120.178zm15-181c8.284 0 15-6.716 15-15V75c0-8.284-6.716-15-15-15H286c-8.284 0-15 6.716-15 15 0 91.088 74.934 166 166 166zM422 90v120.178C358.963 203.234 308.767 153.037 301.821 90zM176.333 243.153a15.001 15.001 0 0 0 .001 25.694c27.274 16.438 50.38 39.544 66.819 66.82a14.998 14.998 0 0 0 25.694 0c16.439-27.276 39.546-50.382 66.82-66.82a15 15 0 0 0 0-25.694c-27.274-16.438-50.381-39.544-66.82-66.82a14.998 14.998 0 0 0-25.694 0c-16.439 27.276-39.545 50.382-66.82 66.82zM256 210.856A227.76 227.76 0 0 0 301.144 256 227.787 227.787 0 0 0 256 301.144 227.76 227.76 0 0 0 210.856 256 227.76 227.76 0 0 0 256 210.856z"/></svg>