<svg height="512" viewBox="0 0 510 510" width="512" xmlns="http://www.w3.org/2000/svg"><path d="M510 30V0H0v30h60v150H30v19.022c0 20.975-6.32 41.971-18.277 60.718C3.74 272.257-.307 286.756.018 301.669c.877 40.156 33.707 72.745 73.884 73.323.371.005.74.008 1.111.008C116.209 375 150 341.682 150 300c0-14.247-4.019-28.114-11.622-40.101C126.355 240.944 120 219.783 120 198.702V180H90V30h60v32.58c-17.459 6.192-30 22.865-30 42.42 0 24.813 20.187 45 45 45s45-20.187 45-45c0-19.555-12.542-36.228-30-42.42V30h60v285h-30v19.022c0 20.975-6.32 41.971-18.277 60.718-7.983 12.517-12.031 27.015-11.705 41.929.877 40.156 33.707 72.745 73.884 73.323.372.005.74.008 1.111.008C296.207 510 330 476.683 330 435c0-14.247-4.019-28.113-11.622-40.101C306.356 375.943 300 354.782 300 333.702V315h-30V30h60v77.58c-17.459 6.192-30 22.865-30 42.42 0 24.813 20.186 45 45 45s45-20.187 45-45c0-19.555-12.541-36.228-30-42.42V30h60v210h-30v19.022c0 20.975-6.32 41.971-18.277 60.719-7.982 12.516-12.029 27.014-11.704 41.928.877 40.155 33.706 72.745 73.883 73.323.372.005.74.008 1.112.008C476.208 435 510 401.682 510 360c0-14.247-4.019-28.113-11.622-40.101C486.356 300.943 480 279.782 480 258.702V240h-30V30zM74.333 344.995c-23.917-.344-43.799-20.074-44.322-43.981-.338-15.446 6.52-24.026 10.55-31.014h68.901c4.042 7.051 10.538 15.166 10.538 30 0 25.029-20.443 45.364-45.667 44.995zM96.34 240H53.723c3.045-9.819 5.006-19.871 5.831-30h30.918c.843 10.12 2.817 20.172 5.868 30zM165 120c-8.271 0-15-6.729-15-15s6.729-15 15-15 15 6.729 15 15-6.729 15-15 15zm89.333 359.995c-23.917-.344-43.799-20.074-44.322-43.981-.338-15.446 6.52-24.026 10.55-31.014h68.901c4.117 7.183 10.538 15.167 10.538 30 0 25.181-20.594 45.376-45.667 44.995zM276.34 375h-42.617c3.045-9.819 5.006-19.871 5.831-30h30.918c.844 10.12 2.817 20.171 5.868 30zM345 165c-8.272 0-15-6.729-15-15s6.728-15 15-15c8.271 0 15 6.729 15 15s-6.728 15-15 15zm89.333 239.995c-23.917-.344-43.8-20.073-44.322-43.98-.337-15.447 6.521-24.026 10.55-31.015h68.901c4.117 7.183 10.538 15.167 10.538 30 0 25.132-20.523 45.36-45.667 44.995zM456.34 300h-42.617c3.045-9.819 5.007-19.871 5.83-30h30.919c.844 10.12 2.817 20.171 5.868 30z"/><path d="M165 180h30v30h-30zm150 60h30v30h-30zM60 435h30v30H60zm315 30h30v30h-30z"/></svg>