<svg height="512" width="512" xmlns="http://www.w3.org/2000/svg"><path d="M241 370h30c8.284 0 15-6.716 15-15s-6.716-15-15-15h-30c-8.284 0-15 6.716-15 15s6.716 15 15 15z"/><path d="M497 280h-86V95c0-24.813-20.187-45-45-45h-19.844l-8.685-21.713C330.597 11.104 314.196 0 295.689 0h-79.378c-18.507 0-34.908 11.104-41.782 28.287L165.844 50H146c-24.813 0-45 20.187-45 45v185H15c-8.284 0-15 6.716-15 15s6.716 15 15 15h16v187c0 8.284 6.716 15 15 15s15-6.716 15-15v-67h390v67c0 8.284 6.716 15 15 15s15-6.716 15-15V310h16c8.284 0 15-6.716 15-15s-6.716-15-15-15zM131 95c0-8.271 6.729-15 15-15h30a15 15 0 0 0 13.927-9.429l12.457-31.142a14.927 14.927 0 0 1 13.927-9.43h79.378a14.927 14.927 0 0 1 13.927 9.43l12.457 31.142A15 15 0 0 0 336 80h30c8.271 0 15 6.729 15 15v185H131zm20 305H61v-30h90zm0-60H61v-30h90zm180 60H181v-90h150zm120 0h-90v-30h90zm0-60h-90v-30h90z"/><path d="M203.01 173.954c4.986 6.648 14.953 8.687 22.149 4.532l77.538-44.768c7.157-4.132 9.989-13.562 6.293-20.954-3.696-7.392-12.576-10.059-19.734-5.927l-82.228 47.475c-7.195 4.156-9.004 12.994-4.018 19.642zm85.49 2.603-79.659 45.991c-6.668 3.85-9.698 12.113-6.603 19.163 3.659 8.335 13.6 11.438 21.261 7.015l79.659-45.991c6.668-3.85 9.698-12.113 6.603-19.163-3.659-8.335-13.6-11.437-21.261-7.015z"/></svg>