<svg height="512" width="512" xmlns="http://www.w3.org/2000/svg"><path d="M497 82H297c-8.284 0-15 6.716-15 15v145H15c-8.284 0-15 6.716-15 15v240c0 8.284 6.716 15 15 15h482c8.284 0 15-6.716 15-15V97c0-8.284-6.716-15-15-15zm-185 30h170v130H312zM30 272h252v30H30zm0 60h172v150H30zm202 0h50v150h-50zm80 150V272h170v210z"/><path d="M15 200h220c8.284 0 15-6.716 15-15v-40c0-4.379-1.914-8.539-5.238-11.389L180 78.101V15c0-8.284-6.716-15-15-15H85c-8.284 0-15 6.716-15 15v63.101l-64.762 55.51A15.003 15.003 0 0 0 0 145v40c0 8.284 6.716 15 15 15zm85-170h50v40h-50zM30 151.899 90.549 100h68.902L220 151.899V170H30zM357 152c-8.284 0-15 6.716-15 15v30c0 8.284 6.716 15 15 15s15-6.716 15-15v-30c0-8.284-6.716-15-15-15zm0 150c-8.284 0-15 6.716-15 15v30c0 8.284 6.716 15 15 15s15-6.716 15-15v-30c0-8.284-6.716-15-15-15zm-200 75c-8.284 0-15 6.716-15 15v30c0 8.284 6.716 15 15 15s15-6.716 15-15v-30c0-8.284-6.716-15-15-15z"/></svg>