<svg height="512" width="512" xmlns="http://www.w3.org/2000/svg"><path d="M436 190h-40c-8.284 0-15 6.716-15 15s6.716 15 15 15h5v55c0 13.785-11.215 25-25 25h-75v-30h22.396c12.548 0 24.618-5.296 33.115-14.53s12.772-21.702 11.73-34.207l-15-180C351.312 18.125 331.614 0 308.396 0H203.604c-23.218 0-42.917 18.125-44.845 41.263l-15 180c-1.042 12.505 3.233 24.973 11.73 34.207S176.055 270 188.604 270H211v30h-75c-13.785 0-25-11.215-25-25v-55h5c8.284 0 15-6.716 15-15s-6.716-15-15-15H76c-8.284 0-15 6.716-15 15s6.716 15 15 15h5v55c0 30.327 24.673 55 55 55h15v15c0 24.813 20.187 45 45 45h45v36.188l-79.743 26.581A15 15 0 0 0 151 467v30c0 8.284 6.716 15 15 15s15-6.716 15-15v-19.188l60-20V487c0 8.284 6.716 15 15 15s15-6.716 15-15v-29.188l60 20V497c0 8.284 6.716 15 15 15s15-6.716 15-15v-30a15 15 0 0 0-10.256-14.23L271 426.188V390h45c24.813 0 45-20.187 45-45v-15h15c30.327 0 55-24.673 55-55v-55h5c8.284 0 15-6.716 15-15s-6.716-15-15-15zm-247.396 50c-4.244 0-8.165-1.72-11.039-4.843-2.874-3.124-4.262-7.173-3.91-11.402l15-180c.643-7.713 7.21-13.755 14.949-13.755h104.792c7.739 0 14.306 6.042 14.948 13.754l15 180c.353 4.229-1.036 8.279-3.91 11.402s-6.794 4.843-11.039 4.843H188.604zM271 270v30h-30v-30zm60 75c0 8.271-6.729 15-15 15H196c-8.271 0-15-6.729-15-15v-15h150z"/></svg>