<svg height="512" width="512" xmlns="http://www.w3.org/2000/svg"><path d="M308.464 44H120.608c-5.523 0-10 4.477-10 10v404c0 5.523 4.477 10 10 10h187.856c5.523 0 10-4.477 10-10V54c0-5.523-4.477-10-10-10zM130.608 64h73.928v384h-73.928zm167.856 384h-73.928V64h73.928z"/><path d="M435.392 0H76.608c-5.523 0-10 4.477-10 10v492c0 5.523 4.477 10 10 10h358.784c5.523 0 10-4.477 10-10V10c0-5.523-4.477-10-10-10zm-72.928 219.553h62.928v87.915h-62.928zm0-20v-87.915h62.928v87.915zm0 127.915h62.928v87.915h-62.928zm62.928-235.83h-62.928V20h62.928zM86.608 20h255.856v472H86.608zm275.856 472v-56.617h62.928V492z"/><path d="M258.319 291.688c5.523 0 10-4.477 10-10v-51.375c0-5.523-4.477-10-10-10s-10 4.477-10 10v51.375c0 5.522 4.477 10 10 10zm-87.566-71.375c-5.523 0-10 4.477-10 10v51.375c0 5.523 4.477 10 10 10s10-4.477 10-10v-51.375c0-5.523-4.477-10-10-10z"/></svg>