<svg height="512" width="512" xmlns="http://www.w3.org/2000/svg"><path d="M497 422.48H270v-24.16h1.462c8.284 0 15-6.716 15-15s-6.716-15-15-15h-32.924c-8.284 0-15 6.716-15 15s6.716 15 15 15H240v24.16h-46.273v-270.2c0-34.338 27.936-62.273 62.273-62.273s62.273 27.936 62.273 62.273v44.713c0 8.284 6.716 15 15 15h60c8.284 0 15-6.716 15-15V152.28c0-83.964-68.31-152.273-152.274-152.273S103.727 68.316 103.727 152.28v270.2H56.462v-24.16h1.461c8.284 0 15-6.716 15-15s-6.716-15-15-15H25c-8.284 0-15 6.716-15 15s6.716 15 15 15h1.462v24.16H15c-8.284 0-15 6.716-15 15v59.514c0 8.284 6.716 15 15 15h482c8.284 0 15-6.716 15-15V437.48c0-8.284-6.716-15-15-15zm-363.273-270.2c0-67.422 54.852-122.273 122.273-122.273S378.274 84.858 378.274 152.28v29.713h-30V152.28c0-50.88-41.393-92.273-92.273-92.273s-92.273 41.394-92.273 92.273v270.2h-30v-270.2zM482 481.993H30V452.48h452z"/><path d="M304.24 311.646c-1.91-5.987-7.285-10.305-13.608-10.626-6.27-.319-12.187 3.465-14.592 9.246-2.397 5.761-.869 12.668 3.779 16.85 4.653 4.188 11.613 5.072 17.141 2.11 6.254-3.35 9.3-10.802 7.28-17.58zm2.52-39.98c5.979-1.815 10.329-7.358 10.624-13.61.295-6.262-3.452-12.187-9.244-14.59-5.788-2.401-12.64-.853-16.852 3.78-4.216 4.637-5.048 11.622-2.108 17.14 3.337 6.264 10.805 9.302 17.58 7.28zm138.17 88.091c-6.249.635-11.53 5.192-13.072 11.28-1.537 6.067 1.014 12.657 6.223 16.12 5.201 3.458 12.231 3.319 17.251-.425 5.029-3.751 7.238-10.395 5.419-16.405-2.041-6.74-8.8-11.295-15.821-10.57zm-12.51-58.681c-6.25.635-11.531 5.19-13.075 11.28-1.537 6.063 1.012 12.646 6.215 16.11 5.227 3.479 12.209 3.305 17.261-.42 5.044-3.719 7.233-10.414 5.418-16.4-2.042-6.74-8.794-11.295-15.819-10.57zm-24.89-49.49c-2.424 5.745-.853 12.682 3.779 16.85 4.653 4.187 11.613 5.072 17.141 2.11 5.513-2.953 8.7-9.241 7.765-15.434s-5.756-11.277-11.905-12.496c-6.938-1.375-14.078 2.426-16.78 8.97zm-30.82 122.481c-1.281-6.151-6.271-10.965-12.505-11.909-6.189-.937-12.486 2.254-15.425 7.769-2.943 5.522-2.117 12.495 2.104 17.14 4.215 4.639 11.066 6.175 16.856 3.78 6.582-2.724 10.271-9.832 8.97-16.78zm.22-58.551c-.647-6.237-5.194-11.533-11.281-13.065-6.053-1.523-12.67.989-16.119 6.215-3.469 5.258-3.298 12.172.42 17.256 3.687 5.043 10.453 7.248 16.41 5.414 6.731-2.073 11.293-8.773 10.57-15.82zm0-60c-.647-6.236-5.194-11.533-11.281-13.065-6.053-1.523-12.67.989-16.119 6.215-3.469 5.258-3.298 12.172.42 17.256 3.687 5.043 10.453 7.248 16.41 5.414 6.731-2.073 11.293-8.773 10.57-15.82z"/></svg>