<svg xmlns="http://www.w3.org/2000/svg" width="128" height="128"><path d="M50 1.555C32.258 5.365 15.193 18.694 7.137 35.034c-11.555 23.432-8.729 49.391 7.559 69.443 23.767 29.261 67.546 31.402 94.335 4.613 8.565-8.564 14.955-19.781 16.972-29.79.643-3.19 1.581-6.581 2.083-7.536 1.063-2.02 1.259-17.442.209-16.392-.388.388-1.277-2.124-1.976-5.583-.699-3.459-3.151-10.099-5.45-14.755C108.222 9.419 78.581-4.583 50 1.555m8.221 4.212c-.996.691-.608 2.318 1.757 7.372 1.679 3.588 4.654 13.604 6.66 22.423 4.176 18.359 6.812 24.412 12.127 27.836 7.806 5.031 8.112 4.888 10.236-4.798 3.166-14.435 2.987-45.686-.273-47.809-5.306-3.456-27.495-7.11-30.507-5.024M44.945 8.45c-9.667 3.562-18.093 9.279-25.072 17.012l-3.628 4.019 4.628 5.892c11.196 14.254 32.479 32.013 51.37 42.862l8.244 4.734 2.257-5.113C83.985 75.044 85 72.656 85 72.55c0-.106-2.244-1.208-4.987-2.447C70.716 65.901 65.884 57.854 62.537 41 59.145 23.915 52.725 6.9 49.736 7.07c-.68.039-2.836.66-4.791 1.38m51.388 23.886c-.059 11.554-.618 19.779-1.71 25.164C93.73 61.9 93 65.888 93 66.361c0 1.366 6.948-.301 12.065-2.894 11.191-5.671 15.755-17.406 10.6-27.255-2.839-5.424-11.083-15.121-15.704-18.472l-3.54-2.567-.088 17.163m-84.8 5.6c-4.569 8.835-7.033 21.34-5.99 30.395.664 5.764.738 5.873 6.303 9.433 8.593 5.497 17.035 7.957 34.744 10.125 9.284 1.137 18.272 2.829 21.446 4.038 5.185 1.976 5.531 1.992 6.787.327 3.494-4.632 3.413-4.851-3.104-8.298-17.616-9.318-37.251-25.205-52.381-42.384l-6.102-6.928-1.703 3.292m108.59 17.768c-3.083 7.442-13.022 14.163-24.231 16.388-5.57 1.105-5.624 1.15-7.908 6.659-2.138 5.159-2.18 5.632-.607 6.782 1.994 1.459 18.555 7.028 23.701 7.97 3.571.654 3.583.644 6.168-5.174 1.424-3.206 3.063-7.629 3.642-9.829 1.635-6.212 2.361-17.583 1.403-21.968l-.867-3.969-1.301 3.141M.349 64c0 4.675.173 6.588.383 4.25.211-2.338.211-6.163 0-8.5-.21-2.338-.383-.425-.383 4.25m8.599 20.362c5.366 14.114 15.566 25.479 28.841 32.132l5.289 2.65 4.711-2.744c6.727-3.918 14.105-9.554 18.521-14.146l3.81-3.962-2.81-1.099c-4.646-1.818-10.418-3.019-17.81-3.707-17.725-1.649-28.978-4.435-37.265-9.227l-4.264-2.466.977 2.569m71.671 8.705-1.812 3.068 4.58 4.515c4.759 4.691 7.276 10.685 6.077 14.464l-.64 2.017 3.894-1.987c4.559-2.326 13.299-9.49 16.249-13.319l2.06-2.675-5.763-1.599c-3.17-.879-9.28-2.937-13.578-4.574C87.388 91.339 83.548 90 83.152 90c-.397 0-1.536 1.38-2.533 3.067m-11.894 13.956c-3.176 3.219-8.498 7.632-11.827 9.808-4.364 2.851-5.683 4.191-4.726 4.8 1.954 1.244 20.646.872 25.561-.509 4.801-1.349 6.267-3.379 6.267-8.674 0-2.945-.778-4.461-3.882-7.566-2.136-2.135-4.273-3.844-4.75-3.797-.478.047-3.467 2.719-6.643 5.938" fill-rule="evenodd"/></svg>