<svg xmlns="http://www.w3.org/2000/svg" width="128" height="128"><path d="M68.2 1.2c-2.813 2.813.146 5.984 6.8 7.291 1.925.378 7.325 2.511 12 4.74C98.912 18.91 109.09 29.088 114.769 41c2.229 4.675 4.362 10.075 4.74 12 1.348 6.867 4.742 9.812 7.49 6.501 1.71-2.06-.976-12.686-5.567-22.033C113.081 20.47 95.824 6.233 77.733 1.417c-6.438-1.714-8-1.75-9.533-.217M19.266 8.64c-1.779.877-6.362 4.887-10.185 8.912C-.565 27.707-1.932 33.568 2.02 47.83c7.883 28.446 35.246 59.115 65.314 73.205 22.653 10.616 33.247 9.285 46.17-5.801 5.707-6.662 6.494-8.078 6.481-11.659-.009-2.241-.387-4.661-.841-5.377-.454-.716-5.463-5.995-11.13-11.732-14.053-14.225-17.471-14.667-29.128-3.763l-5.009 4.686-3.428-1.846C61.55 80.75 46.225 65.259 41.718 56.5l-1.543-3 5.836-6.084c10.181-10.613 9.365-14.921-5.561-29.361C28.663 6.653 25.841 5.398 19.266 8.64m-4.097 13.753L8 29.787v5.925c0 14.729 10.72 35.513 27.345 53.015 18.755 19.744 46.781 34.289 60.225 31.257 2.945-.664 5.596-2.605 10.674-7.815 3.716-3.813 6.756-7.721 6.756-8.685 0-.965-4.133-5.968-9.184-11.119-11.339-11.563-11.948-11.659-20.442-3.24C79 93.46 76.437 95.25 74.602 95.25c-8.695 0-34.374-23.723-40.656-37.56-1.046-2.304-1.912-4.733-1.924-5.396-.012-.663 2.903-4.088 6.478-7.61 4.429-4.364 6.5-7.173 6.5-8.814C45 32.768 27.462 15 24.4 15c-1.25 0-4.884 2.91-9.231 7.393m51.934 1.983c-2.406 2.899-.836 4.955 5.431 7.113 13.35 4.597 20.95 12.453 24.384 25.206 1.23 4.57 4.098 6.366 6.706 4.202 3.532-2.931-2.592-17.579-10.767-25.754-8.175-8.175-22.823-14.299-25.754-10.767" fill-rule="evenodd"/></svg>