<svg xmlns="http://www.w3.org/2000/svg" width="128" height="128"><path d="M.465 1.236C.199 1.931.098 30.625.241 65L.5 127.5l62.888.258c45.62.186 63.263-.053 64.25-.873 1.123-.931 1.362-12.173 1.362-63.979V.057L64.974.015C14.27-.019.847.235.465 1.236M.471 64c0 34.925.125 49.212.278 31.75.154-17.463.154-46.038 0-63.5C.596 14.787.471 29.075.471 64M4.667 4.667C3.718 5.615 3.838 12 4.804 12 5.779 12 12 5.691 12 4.702c0-.894-6.444-.925-7.333-.035M45 11.5l7.45 7.5 6.775-6.723C62.951 8.579 66 5.204 66 4.777 66 4.35 59.599 4 51.775 4H37.55L45 11.5m19.496 1.504-8.962 9.004 4.497 4.496 4.496 4.497L78 17.5 91.472 4H73.458l-8.962 9.004m31.945-7.555c-1.838 1.371-1.2 2.192 12.046 15.5C116.179 28.677 122.817 35 123.237 35c.419 0 .763-3.724.763-8.275V18.45l-7.274-7.225C109.458 4.005 109.45 4 103.918 4c-3.273 0-6.329.592-7.477 1.449M117 4.632c0 1.075 5.196 6.368 6.25 6.368.482 0 .736-1.462.563-3.25-.275-2.858-.705-3.288-3.563-3.563-1.787-.173-3.25.028-3.25.445m-99.569 1.48c-.401.648 6.755 8.562 17.167 18.986l17.854 17.875 4.289-4.209 4.289-4.21-14.753-14.777L31.525 5h-6.703c-3.84 0-6.998.475-7.391 1.112m-8.706 8.66L4 19.569v8.215C4 32.303 4.347 36 4.772 36c.425 0 4.579-3.827 9.232-8.504l8.461-8.505-4.508-4.508-4.508-4.508-4.724 4.797m64.276 13.727L55.524 45.998l4.5 4.499 4.5 4.5 17.959-17.98 17.959-17.98-3.924-4.018C94.36 12.808 92.118 11 91.536 11c-.581 0-8.922 7.874-18.535 17.499m-52.519-1.48-3.924 4.018 17.947 17.968 17.947 17.968 4.29-4.21 4.29-4.211-17.756-17.776C33.511 30.999 25.27 23 24.963 23c-.306 0-2.323 1.808-4.481 4.019m78.739.256-4.196 4.276 14.487 14.461L124 60.474V42.462l-9.768-9.731C108.86 27.379 104.228 23 103.94 23c-.288 0-2.412 1.924-4.719 4.275M8.208 39.288 4 43.576v8.212C4 56.305 4.328 60 4.729 60c.401 0 4.448-3.699 8.992-8.22l8.263-8.22-4.2-4.28C15.474 36.926 13.321 35 13 35c-.321 0-2.477 1.93-4.792 4.288m65.516 13.488L55.968 70.552l4.29 4.211 4.29 4.21 17.947-17.968 17.947-17.968-3.924-4.018C94.36 36.808 92.343 35 92.037 35c-.307 0-8.548 7.999-18.313 17.776m-53.242-1.757-3.924 4.018 17.947 17.968 17.947 17.968 4.29-4.21 4.29-4.211-17.756-17.776C33.511 54.999 25.27 47 24.963 47c-.306 0-2.323 1.808-4.481 4.019m78.739.256-4.196 4.276 14.487 14.461L124 84.474V66.462l-9.768-9.731C108.86 51.379 104.228 47 103.94 47c-.288 0-2.412 1.924-4.719 4.275M8.208 63.288 4 67.576v17.882l8.992-8.95 8.991-8.949-4.2-4.28C15.473 60.926 13.321 59 13 59c-.321 0-2.477 1.93-4.792 4.288m65.516 13.488L55.968 94.552l4.29 4.211 4.29 4.21 17.947-17.968 17.947-17.968-3.924-4.018C94.36 60.808 92.343 59 92.037 59c-.307 0-8.548 7.999-18.313 17.776m-53.021-1.984C18.666 76.878 17 79.02 17 79.553c0 .533 7.867 8.826 17.482 18.429l17.481 17.46 4.253-3.971c2.339-2.184 4.464-4.1 4.722-4.257C61.471 106.888 25.82 71 24.963 71c-.306 0-2.223 1.706-4.26 3.792m78.518.483-4.196 4.276 14.487 14.461L124 108.474V90.72l-9.687-9.86c-5.328-5.423-9.959-9.86-10.292-9.86-.333 0-2.493 1.924-4.8 4.275M8.746 87.425 4 91.783v8.609c0 4.734.122 8.608.271 8.608.149 0 4.204-3.951 9.011-8.781l8.74-8.781-4.265-4.185-4.264-4.186-4.747 4.358m64.744 13.626L55.5 119.102l2.806 2.449c1.869 1.632 4.015 2.449 6.429 2.449 3.34 0 4.864-1.231 19.444-15.709C92.881 99.651 100 92.092 100 91.494 100 90.458 92.929 83 91.947 83c-.257 0-8.563 8.123-18.457 18.051m-52.263-1.782-4.189 4.268 9.731 10.244 9.731 10.243 8.987-.012 8.987-.012L40 109.5C32.039 101.525 25.501 95 25.471 95c-.03 0-1.94 1.921-4.244 4.269m77.991.009-4.198 4.277 10.327 10.293c9.945 9.91 10.473 10.28 14.24 9.972 3.842-.314 3.919-.398 4.224-4.648.307-4.261.161-4.481-9.437-14.25-5.362-5.457-10.02-9.922-10.353-9.922-.333 0-2.494 1.925-4.803 4.278m-90.58 12.581c-4.103 4.166-4.739 5.344-4.462 8.25.311 3.253.507 3.403 4.824 3.685 4.151.271 4.83-.043 8.752-4.04l4.252-4.334-4.29-4.21-4.289-4.21-4.787 4.859m74.366 3.637L74.544 124h18.05l3.923-4.017 3.922-4.017-4.487-4.488-4.487-4.487-8.461 8.505M23 121.5l-2.349 2.5h9.698L28 121.5c-1.292-1.375-2.417-2.5-2.5-2.5-.083 0-1.208 1.125-2.5 2.5m78.508-.509c-2.324 2.569-1.635 3.221 2.984 2.825l3.694-.316-2.424-2.266-2.424-2.265-1.83 2.022" fill-rule="evenodd"/></svg>