<svg xmlns="http://www.w3.org/2000/svg" width="128" height="128"><path d="M62.55 1.167c-.249.733-.586 2.404-.751 3.713-.24 1.908-3.174 4.035-14.799 10.726-7.975 4.591-15.203 8.358-16.063 8.371-.86.012-2.815 1.33-4.346 2.928-3.155 3.294-3.829 8.414-1.643 12.498 1.856 3.467 7.407 5.941 11.576 5.158 4.085-.766 4.75-2.323 2.327-5.446-2.423-3.122-2.354-7.35.156-9.621 1.104-.999 1.891-2.498 1.75-3.331-.167-.985 3.245-3.546 9.743-7.315 5.5-3.191 10.337-5.812 10.75-5.824.413-.013.75 2.742.75 6.122 0 5.917-.17 6.328-4.56 11.022-3.555 3.8-4.42 5.367-3.923 7.104C54.415 40.413 61.513 47 64 47s9.585-6.587 10.483-9.728c.497-1.737-.368-3.304-3.923-7.104C66.17 25.474 66 25.063 66 19.146c0-3.38.287-6.146.637-6.146.351 0 6.376 3.017 13.39 6.705 8.327 4.378 12.58 7.154 12.256 8-.273.712-1.519 1.295-2.768 1.295-1.248 0-2.841.688-3.539 1.529-1.053 1.268-.881 1.943 1.004 3.949 1.537 1.637 2.119 3.225 1.797 4.906-.772 4.042.507 5.155 4.176 3.636 2.422-1.004 3.714-1.037 5.667-.147 3.327 1.516 4.669.548 4.149-2.993-.283-1.931.18-3.429 1.404-4.537 2.866-2.593 2.321-5.294-1.21-6-1.822-.365-3.559-1.602-4.338-3.089-.867-1.654-6.437-5.242-16.713-10.763C67.454 7.722 66.469 7.007 66 3.934c-.518-3.39-2.658-5.107-3.45-2.767M2.923 21.923C-1.057 25.903-1.029 30.236 3 34c3.55 3.316 3.877 6.895.988 10.802-1.947 2.634-2.003 3.996-1.75 42.709L2.5 127.5h123l.262-39.989c.253-38.713.197-40.075-1.75-42.709-2.983-4.035-2.552-7.328 1.488-11.369 2.511-2.51 3.5-4.385 3.5-6.633 0-1.723-.245-2.888-.545-2.588-.3.299-1.84-.751-3.423-2.334-3.579-3.579-6.94-3.668-10.955-.289-4.245 3.572-4.276 8.489-.077 12.411 3.549 3.316 3.897 7.044 1 10.727-1.1 1.399-2 3.382-2 4.408C113 50.93 111.152 51 64 51s-49-.07-49-1.865c0-1.026-.9-3.009-2-4.408-2.897-3.683-2.549-7.411 1-10.727 4.199-3.922 4.168-8.839-.077-12.411-4.032-3.393-7.375-3.291-11 .334m2.127 3.984c-.775 1.448-.588 2.442.777 4.127 3.173 3.919 8.516.343 6.134-4.106-1.335-2.496-5.58-2.509-6.911-.021m110.989.021c-2.382 4.449 2.961 8.025 6.134 4.106 1.365-1.685 1.552-2.679.777-4.127-1.331-2.488-5.576-2.475-6.911.021M.232 28c0 1.925.206 2.712.457 1.75.252-.962.252-2.538 0-3.5-.251-.962-.457-.175-.457 1.75m29.423 1.829c-2.186 2.415-2.103 6.455.174 8.516 2.744 2.484 3.257 2.044 2.576-2.212-.355-2.223-.133-4.773.524-6 1.482-2.77-.846-2.987-3.274-.304m31.032 2.976c-3.281 3.424-3.324 4.248-.373 7.021 3.021 2.837 3.757 2.753 7.186-.826l2.874-3-2.874-3c-1.581-1.65-3.156-3-3.5-3-.344 0-1.835 1.262-3.313 2.805m33.529.04C92.473 33.951 93.782 37 96 37s3.527-3.049 1.784-4.155c-.706-.448-1.509-.814-1.784-.814-.275 0-1.078.366-1.784.814M7 85.573c0 36.198.108 38.553 1.75 38.237 1.622-.312 1.77-2.974 2.029-36.323.153-19.793.032-37-.269-38.237C10.208 48.013 9.295 47 8.481 47 7.199 47 7 52.173 7 85.573M117.49 49.25c-.301 1.237-.422 18.444-.269 38.237.259 33.349.407 36.011 2.029 36.323 1.642.316 1.75-2.039 1.75-38.237 0-33.4-.199-38.573-1.481-38.573-.814 0-1.727 1.013-2.029 2.25M15 85.5V115h10.23l-1.542-2.354c-2.728-4.163-3.06-9.018-.943-13.794 1.062-2.393 2.678-4.97 3.592-5.724 1.437-1.187 1.663-3.8 1.663-19.25V56H15v29.5M32 73v17h4.566c2.511 0 5.436.466 6.5 1.035 1.879 1.006 1.934.521 1.934-17V56H32v17m17 2.906c0 18.427.13 19.88 1.75 19.552.962-.194 3.888-.63 6.5-.967l4.75-.614V56H49v19.906M66 75v19h13V56H66v19m17.228.223.272 19.223 4.354.743c2.395.408 5.207 1.013 6.25 1.344C95.923 97.11 96 96.304 96 76.567V56H82.957l.271 19.223M100 76.974v20.975l3.137 1.622c7.035 3.638 9.457 8.709 6.306 13.206-1.487 2.124-1.442 2.223 1 2.223H113V56h-13v20.974M33.21 94.797c-.937.632-1.21 3.447-1 10.287l.29 9.416 3 .272c1.687.153 4.422-.606 6.25-1.735 3.116-1.925 3.25-2.271 3.25-8.367 0-4.95-.416-6.736-1.876-8.058-2.2-1.991-8.062-3.064-9.914-1.815M66 106.5v8.5h13v-7.893C79 98.145 78.871 98 70.918 98H66v8.5m-39.393-5.918c-.908 2.366-.705 6.719.393 8.418.688 1.065.974-.169.985-4.25.015-5.911-.32-6.926-1.378-4.168m26.762-.892c-1.756.344-2.224 1.33-2.666 5.614-.295 2.858-.851 6.209-1.236 7.446-.678 2.177-.486 2.25 5.916 2.25H62V99l-3.25.136c-1.788.075-4.209.324-5.381.554M83 106.988V115h13v-6.525c0-7.284-.24-7.526-8.75-8.842L83 98.976v8.012M100 109c0 2.75.241 5 .535 5 1.679 0 5.465-3.505 5.465-5.058 0-1.693-3.434-4.942-5.223-4.942-.427 0-.777 2.25-.777 5m-85 13c0 1.973.667 2 49 2s49-.027 49-2-.667-2-49-2-49 .027-49 2" fill-rule="evenodd"/></svg>