<svg xmlns="http://www.w3.org/2000/svg" width="128" height="128"><path d="M55.5 1.647C50.132 4.45 33.961 21.128 31.401 26.5c-4.06 8.524-2.764 16.982 3.675 23.967C38.427 54.102 39 55.38 39 59.214c0 5.696 3.091 10.466 8.839 13.639 4.142 2.286 4.254 2.48 3.962 6.875L51.5 84.25l-10.253 3.759c-17.334 6.354-22.295 12.081-23.058 26.612l-.436 8.305-8.626.287C1.262 123.475.5 123.677.5 125.5c0 1.976.753 2.003 62.888 2.258 45.62.186 63.263-.053 64.25-.873 1.438-1.193 1.888-3.968.612-3.767-.412.066-4.631.066-9.375 0l-8.624-.118-.438-8.342c-.355-6.769-.949-9.214-3.148-12.966-3.723-6.354-7.602-9.021-19.741-13.573L76.5 84.21l-.301-4.502c-.291-4.371-.176-4.571 3.962-6.855C86.532 69.335 89 65.04 89 57.467c0-5.58.268-6.413 2.548-7.906 5.485-3.594 8.024-11.638 5.328-16.877-.619-1.201-5.569-6.731-11-12.289C80.444 14.837 76 9.634 76 8.832c0-1.948-4.813-6.445-8.315-7.768C63.751-.423 59.03-.197 55.5 1.647m1.799 4.977c-1.76.868-7.235 5.749-12.167 10.846-8.751 9.047-11.153 13.162-11.104 19.03.023 2.815 3.318 9.67 5.64 11.732 1.89 1.679 2.425 1.255 17.141-13.572 14.437-14.545 15.19-15.501 15.176-19.233-.022-5.558-1.558-7.649-2.492-3.393C68.64 15.914 60.532 25 57.922 25c-3.432 0-3.139-2.204.845-6.343C63.487 13.751 65 11.059 65 7.566c0-3.073-2.708-3.404-7.701-.942m19.097 13.942c-.375 1.064-2.289 3.627-4.254 5.696l-3.571 3.762 7.964 8.024c9.232 9.3 11.642 9.923 14.896 3.846 2.622-4.897 1.367-7.664-7.441-16.404-6.019-5.973-6.999-6.609-7.594-4.924m-26.955 7.53c-.373.603-.062 1.711.691 2.464 1.734 1.734 4.398.263 3.545-1.959-.703-1.832-3.23-2.133-4.236-.505m4.796 16.167c-10.81 10.846-11.72 12.707-9.311 19.042C45.969 66.048 60.569 75 64 75c3.374 0 17.53-8.673 18.836-11.54.64-1.405 1.164-4.501 1.164-6.881 0-4.131-.41-4.729-9.059-13.203-4.982-4.882-9.375-8.991-9.763-9.13-.388-.14-5.311 4.367-10.941 10.017M22.851 47.24C20.218 49.369 18 53.322 18 55.885c0 1.341 1.135 4.376 2.522 6.743 1.834 3.13 2.448 5.461 2.25 8.55-.212 3.315.098 4.324 1.411 4.595.954.197 2.187-.596 2.85-1.834 2.003-3.744 1.377-8.74-1.643-13.098l-2.811-4.056 2.308-4.009c1.972-3.427 2.105-4.213.915-5.403-1.128-1.127-1.69-1.153-2.951-.133m97.696 1.886c-3.338 3.968-3.328 8.865.03 14.596 2.151 3.67 2.411 4.873 1.574 7.276-1.091 3.128.677 5.844 2.907 4.466 1.815-1.122 3.953-7.091 3.826-10.682-.066-1.879-.319-2.493-.592-1.435-.398 1.543-.872 1.263-2.884-1.697-2.771-4.078-3.015-6.466-.94-9.209 3.742-4.947.067-8.054-3.921-3.315M3.073 58.635C.291 62.171.298 69.128 3.087 73.64c1.611 2.608 1.937 4.261 1.429 7.265-.78 4.618.711 6.105 3.547 3.538C10.935 81.844 10.66 75.283 7.5 71c-3.042-4.123-3.097-5.353-.407-9.131 1.681-2.36 1.854-3.228.878-4.404-1.699-2.047-2.523-1.85-4.898 1.17m101.336-1.792c-1.833 1.325-3.515 4.039-4.387 7.08-.741 2.585-.382 4.091 2.103 8.815 2.505 4.761 2.818 6.092 1.907 8.092-.8 1.756-.784 2.764.061 3.782 1.711 2.061 2.688 1.713 4.381-1.562 2.153-4.162 1.905-7.028-.974-11.265-2.828-4.162-3.215-7.947-1-9.785 2.813-2.335.817-7.26-2.091-5.157m-45.105 5.806C58.498 64.752 60.924 67 64 67c3.076 0 5.502-2.248 4.696-4.351-.332-.864-2.08-1.376-4.696-1.376-2.616 0-4.364.512-4.696 1.376M57 82.32c0 1.946-.637 4.174-1.415 4.952-1.481 1.481-2.06 1.736-15.257 6.725-12.654 4.782-17.309 11.165-17.322 23.753L23 123h9.737l.487-7.582c.414-6.457.869-7.966 3.065-10.162 2.226-2.225 3.657-2.641 10.427-3.033 6.463-.375 8.09-.162 9.223 1.204 2.253 2.714-.246 4.022-8.735 4.573l-7.704.5-.294 7.25-.294 7.25h50.176l-.294-7.25-.294-7.25-7.704-.5c-8.489-.551-10.988-1.859-8.735-4.573 1.133-1.366 2.76-1.579 9.223-1.204 6.77.392 8.201.808 10.427 3.033 2.196 2.196 2.651 3.705 3.065 10.162l.487 7.582h10.026l-.559-7.383c-.945-12.498-5.131-17.402-19.2-22.493-13.831-5.004-14.49-5.503-14.515-10.982-.014-3.179-.162-3.318-2.765-2.6-1.513.417-3.425.758-4.25.758-.825 0-2.737-.341-4.25-.758-2.625-.724-2.75-.598-2.75 2.778m6.104 20.615c-1.702 1.053-.735 4.065 1.306 4.065 2.195 0 3.016-2.003 1.458-3.56-.859-.859-1.887-1.047-2.764-.505M.079 125.583c.048 1.165.285 1.402.604.605.289-.722.253-1.585-.079-1.917-.332-.332-.568.258-.525 1.312" fill-rule="evenodd"/></svg>