<svg xmlns="http://www.w3.org/2000/svg" width="128" height="128"><path d="M1.064 1.422C-.67 3.512.089 12.5 2 12.5c1.05 0 1.592-1.276 1.807-4.25L4.115 4H26v22H4.121l-.311-3.742c-.217-2.615-.837-3.841-2.06-4.073C.277 17.906 0 18.626 0 22.727c0 2.68.54 5.413 1.2 6.073 1.663 1.663 25.937 1.663 27.6 0 1.663-1.663 1.663-25.937 0-27.6C26.955-.645 2.619-.45 1.064 1.422m33.029-.034c-.776.935-1.061 5.751-.873 14.75L33.5 29.5h61l.28-13.362c.188-8.999-.097-13.815-.873-14.75-1.7-2.049-58.114-2.049-59.814 0M99.2 1.2c-1.663 1.663-1.663 25.937 0 27.6 1.663 1.663 25.937 1.663 27.6 0 1.663-1.663 1.663-25.937 0-27.6-1.663-1.663-25.937-1.663-27.6 0M37 15v11h54V4H37v11m65 0v11h22V4h-22v11M3 32.729c-.825.314-1.831 1.066-2.235 1.671-1.281 1.918-.898 26.067.435 27.4.878.878 8.921 1.2 29.943 1.2C65.778 63 63 64.371 63 47.277c0-16.438 2.35-15.295-31.25-15.198-14.987.043-27.925.336-28.75.65m64.044 1.227C65.227 35.773 65 37.253 65 47.277 65 64.371 62.222 63 96.857 63c21.022 0 29.065-.322 29.943-1.2 1.462-1.462 1.654-25.532.222-27.8-.798-1.264-5.422-1.546-29.441-1.794-27.567-.284-28.56-.227-30.537 1.75M5.75 36.681C4.219 37.089 4 38.511 4 48.073V59h55.066l-.283-11.25L58.5 36.5 33 36.358c-14.025-.079-26.287.067-27.25.323m63.917-.014c-.367.366-.667 5.541-.667 11.5V59h55V48.117c0-10.441-.091-10.908-2.25-11.487-3.086-.827-51.254-.793-52.083.037M1.2 66.2C-.263 67.663-.454 91.733.979 94c.764 1.208 3.489 1.5 14.021 1.5s13.257-.292 14.021-1.5c1.433-2.267 1.242-26.337-.221-27.8-1.663-1.663-25.937-1.663-27.6 0m33.02-.02c-.838.838-1.22 5.395-1.22 14.545V94.05l2.565.975C36.992 95.567 49.611 96 64 96s27.008-.433 28.435-.975L95 94.05V80.647c0-10.368-.322-13.669-1.422-14.583C91.488 64.33 82.5 65.089 82.5 67c0 1.05 1.276 1.592 4.25 1.807l4.25.308v10.836c0 8.958-.274 10.94-1.582 11.442-.87.334-13.02.607-27 .607H37V69.042l19.75-.271c16.768-.23 19.75-.497 19.75-1.771 0-1.276-3.068-1.54-20.53-1.77-15.127-.198-20.852.052-21.75.95m64.98.02c-1.463 1.463-1.654 25.533-.221 27.8.764 1.208 3.489 1.5 14.021 1.5s13.257-.292 14.021-1.5c1.433-2.267 1.242-26.337-.221-27.8-1.663-1.663-25.937-1.663-27.6 0M4.217 80.25 4.5 91.5h21l.283-11.25.283-11.25H3.934l.283 11.25m98 0 .283 11.25h21l.283-11.25.283-11.25h-22.132l.283 11.25M1.2 99.2c-1.663 1.663-1.663 25.937 0 27.6.66.66 3.36 1.2 6 1.2 4.133 0 4.8-.278 4.8-2 0-1.667-.667-2-4-2H4v-22h55v22H38.5c-19.833 0-20.5.065-20.5 2 0 1.936.662 2 20.75 1.985 11.413-.009 21.425-.441 22.25-.962 1.919-1.211 2.792-23.675 1.047-26.936C60.953 98.044 60.313 98 31.665 98c-21.428 0-29.586.321-30.465 1.2m64.753.887c-1.745 3.261-.872 25.725 1.047 26.936 2.334 1.472 58.313 1.264 59.8-.223 1.663-1.663 1.663-25.937 0-27.6-.879-.879-9.037-1.2-30.465-1.2-28.648 0-29.288.044-30.382 2.087M69 113v11h55v-22H69v11" fill-rule="evenodd"/></svg>