<svg xmlns="http://www.w3.org/2000/svg" width="128" height="128"><path d="M4.667 11.667C4.3 12.033 4 18.141 4 25.24c0 11.753.156 12.877 1.75 12.571 1.522-.291 1.787-1.797 2.033-11.573C7.96 19.207 8.46 15 9.12 15c.579 0 6.752.761 13.717 1.691 17.759 2.372 64.567 2.372 82.326 0 6.965-.93 13.138-1.691 13.717-1.691.66 0 1.16 4.207 1.337 11.238.246 9.776.511 11.282 2.033 11.573 1.595.306 1.75-.827 1.75-12.769 0-11.075-.247-13.2-1.595-13.717-.878-.337-8.865.225-17.75 1.248-21.193 2.439-61.152 2.48-80.5.081-14.565-1.805-18.472-2.003-19.488-.987m7.969 8.84c-2.358 2.358-2.462 38.562-.117 40.509 1.224 1.016 4.288.991 15.75-.128 18.252-1.78 53.21-1.78 71.462 0 11.462 1.119 14.526 1.144 15.75.128 1.26-1.046 1.519-4.464 1.519-20.067 0-21.455-.344-22.529-6.886-21.523-22.571 3.472-69.657 3.472-92.228 0-2.583-.397-4.08-.089-5.25 1.081M15 40.654v17.604l5.75-.642c13.271-1.484 31.562-2.571 43.25-2.571 11.688 0 29.979 1.087 43.25 2.571l5.75.642V23.05l-2.75.454c-20.958 3.456-71.542 3.456-92.5 0L15 23.05v17.604M4.667 43.667C4.3 44.033 4 50.122 4 57.198c0 10.127.299 12.98 1.405 13.404.773.297 7.411-.28 14.75-1.281 19.047-2.599 68.643-2.599 87.69 0 7.339 1.001 13.977 1.578 14.75 1.281 1.8-.691 2.074-26.071.293-27.171-2.102-1.299-2.857 2.092-2.873 12.898L120 67.159l-2.75-.532C104.819 64.222 92.519 63.5 64 63.5s-40.819.722-53.25 3.127L8 67.159V56.661c0-12.337-.815-15.513-3.333-12.994m14.425 34.735c-1.242 1.322-2.503 4.243-2.806 6.5-.473 3.53-.888 4.098-2.995 4.098-1.369 0-3.731 1.286-5.368 2.923C5.341 94.505 5 95.547 5 100.854c0 5.468-.202 6.036-2.25 6.326-1.816.258-2.311 1.057-2.565 4.14-.584 7.104-4.631 6.68 63.782 6.68 58.526 0 61.809-.095 63.378-1.829 1.626-1.796 2.374-9.285.905-9.053-.412.066-1.763.066-3 0-2.074-.109-2.25-.595-2.25-6.195 0-5.383-.334-6.411-2.923-9-1.637-1.637-3.999-2.923-5.368-2.923-2.107 0-2.522-.568-2.995-4.098-.303-2.257-1.564-5.178-2.806-6.5C106.901 76.265 105.792 76 98.873 76c-4.279 0-8.937.528-10.353 1.173-1.969.897-2.85.897-3.747 0C84.069 76.469 80.363 76 75.5 76c-4.863 0-8.569.469-9.273 1.173-.897.897-1.778.897-3.747 0-3.376-1.538-17.715-1.538-19.253 0-.897.897-1.778.897-3.747 0C38.064 76.528 33.406 76 29.127 76c-6.919 0-8.028.265-10.035 2.402m3.123 2.444c-.707.449-1.554 2.467-1.881 4.485-.546 3.364-.398 3.67 1.785 3.675 1.31.004 3.552.617 4.983 1.364 2.171 1.133 3.001 1.138 5 .03 1.319-.731 3.411-1.345 4.648-1.365 1.872-.029 2.25-.59 2.25-3.335 0-1.815-.54-3.84-1.2-4.5-1.355-1.355-13.571-1.632-15.585-.354m21.82 1.088c-.569 1.064-1.035 3.089-1.035 4.5 0 1.99.505 2.569 2.25 2.581 1.237.008 3.375.591 4.75 1.295 2.034 1.041 2.966 1.04 5-.009 1.375-.709 3.513-1.291 4.75-1.295 1.878-.005 2.25-.552 2.25-3.306 0-4.837-1.463-5.7-9.665-5.7-6.159 0-7.422.294-8.3 1.934M67.2 81.2c-.66.66-1.2 2.685-1.2 4.5 0 2.754.372 3.301 2.25 3.306 1.237.004 3.414.614 4.837 1.356 2.173 1.134 2.883 1.133 4.441-.006C78.548 89.61 80.646 89 82.191 89 84.54 89 85 88.58 85 86.434 85 80.984 83.572 80 75.665 80c-4.317 0-7.752.487-8.465 1.2m23 0c-.66.66-1.2 2.685-1.2 4.5 0 2.66.398 3.3 2.05 3.3 1.127 0 3.273.633 4.768 1.406 2.336 1.208 2.99 1.208 4.642 0 1.057-.773 3.186-1.406 4.731-1.406 2.349 0 2.809-.42 2.809-2.566 0-5.45-1.428-6.434-9.335-6.434-4.317 0-7.752.487-8.465 1.2M10.75 94.08C9.394 94.87 9 96.438 9 101.05V107h19v-5.429c0-7.291-1.407-8.58-9.321-8.541-3.399.017-6.966.489-7.929 1.05m23 0c-1.356.79-1.75 2.358-1.75 6.97V107h19v-4.777c0-7.432-1.82-9.229-9.307-9.193-3.406.017-6.981.489-7.943 1.05m23 0c-1.356.79-1.75 2.358-1.75 6.97V107h18v-5.8c0-3.19-.54-6.34-1.2-7-1.46-1.46-12.597-1.549-15.05-.12m21.807 1.143c-.882 1.258-1.557 4.294-1.557 7V107h19v-5.8c0-3.19-.54-6.34-1.2-7-.696-.696-4.032-1.2-7.943-1.2-5.835 0-6.953.299-8.3 2.223m23.014-.652c-1.042 1.043-1.571 3.399-1.571 7V107h19v-5.429c0-7.317-1.39-8.571-9.5-8.571-4.446 0-6.83.472-7.929 1.571M.272 112c0 2.475.195 3.487.434 2.25.238-1.237.238-3.263 0-4.5-.239-1.237-.434-.225-.434 2.25M4 112c0 .656 20.667 1 60 1s60-.344 60-1-20.667-1-60-1-60 .344-60 1" fill-rule="evenodd"/></svg>