<svg xmlns="http://www.w3.org/2000/svg" width="128" height="128"><path d="M19.638 1.9C15.421 4.68 5.292 18.668 2.91 24.999c-4.182 11.118-3.378 24.153 2.175 35.25 1.336 2.668 12.418 14.594 29.772 32.039 22.187 22.304 28.784 28.36 33.424 30.685 11.203 5.616 23.615 6.383 34.719 2.147 6.36-2.427 20.336-12.566 23.1-16.758 2.249-3.411 2.443-8.436.47-12.162-2.179-4.113-23.669-24.949-27.025-26.203-4.839-1.807-9.794-.354-14.155 4.15-5.009 5.174-8.841 7.223-11.149 5.963C72.1 78.941 47 53.606 47 52.614c0-1.738 3.121-6.395 6.396-9.542 1.961-1.885 4.06-4.924 4.664-6.753 2.049-6.209.519-8.987-11.93-21.653C39.734 8.157 33.285 2.194 31.8 1.416 28.063-.543 23.04-.343 19.638 1.9m54.698-.333C73.41 3.98 74.882 4.721 83 5.926c20.515 3.046 35.853 18.522 39.22 39.574 1.105 6.907 1.553 8 3.28 8 2.596 0 3.079-3.866 1.496-11.967-3.711-18.99-20.911-36.46-39.795-40.421-7.571-1.589-12.143-1.427-12.865.455M18.222 10.75C3.96 26.064 1.356 44.917 11.382 60.276c4.188 6.417 51.482 53.511 57.39 57.147 11.941 7.351 27.866 6.923 40.101-1.079l2.374-1.552-7.764-7.809c-5.334-5.366-7.573-8.306-7.155-9.396 1.086-2.83 3.092-1.718 10.672 5.913 4.097 4.125 7.977 7.5 8.621 7.5 1.607 0 7.379-6.715 7.379-8.584 0-.834-.643-2.73-1.429-4.216-1.726-3.26-20.14-21.506-23.359-23.146-3.235-1.647-5.971-.497-11.775 4.952-5.566 5.226-9.574 6.653-13.978 4.978-3.329-1.265-25.58-22.857-28.643-27.793-1.53-2.468-1.901-4.26-1.456-7.043.581-3.628.346-3.982-8.381-12.669C25.276 28.817 23.072 25 26.771 25c.974 0 5.796 4.044 10.716 8.987l8.945 8.987 3.206-3.108c3.761-3.645 4.856-7.032 3.277-10.137-1.614-3.173-19.885-21.59-23.115-23.3-4.379-2.317-5.938-1.735-11.578 4.321m57.028 6.901c-1.469.606-1.66 2.977-.308 3.813.518.32 3.556 1.052 6.75 1.626 11.793 2.118 21.052 11.383 23.205 23.218 1.212 6.664 1.693 7.692 3.595 7.692 2.101 0 2.629-3.09 1.523-8.919-2.061-10.869-9.351-20.114-19.395-24.595-5.196-2.318-13.093-3.775-15.37-2.835M13.966 32.024c-1.095.68-1.449 2.878-1.397 8.693.075 8.446 2.187 14.154 7.228 19.533 5.303 5.659 8.1 1.933 3.196-4.259-4.167-5.261-6.258-12.169-5.468-18.061.675-5.032-.861-7.58-3.559-5.906m61.138 3.862c-2.273 1.486-.489 3.933 3.686 5.057 4.681 1.261 6.688 3.305 8.413 8.57 2.38 7.265 6.806 4.948 4.797-2.512-1.018-3.783-7.724-10.987-10.253-11.015-.686-.007-2.147-.238-3.247-.513-1.1-.274-2.628-.089-3.396.413M29.323 67.601c-.853 2.222 1.811 3.693 3.545 1.959.753-.753 1.064-1.861.691-2.464-1.006-1.628-3.533-1.327-4.236.505M90.2 90.2c-1.488 1.488-.328 3.8 1.907 3.8C93.298 94 94 93.298 94 92.107c0-2.235-2.312-3.395-3.8-1.907" fill-rule="evenodd"/></svg>