<svg xmlns="http://www.w3.org/2000/svg" width="128" height="128"><path d="M62.688.646C62.309 1.024 62 2.158 62 3.167c0 1.008-.562 1.849-1.25 1.868-.687.019-4.662.643-8.832 1.387C41.812 8.225 34 12.251 34 15.655c0 1.912 1.777 1.666 4.727-.655C42.265 12.217 43 12.475 43 16.5c0 2.789-.391 3.5-1.927 3.5-2.883 0-6.311 4.869-5.602 7.957.648 2.827 7.05 9.043 9.313 9.043C47.324 37 54 29.479 54 26.618 54 23.514 50.814 20 48 20c-1.696 0-2-.667-2-4.381 0-4.35.032-4.39 4.443-5.5 2.443-.616 6.043-1.119 8-1.119H62v25h-2.961C55.054 34 52 37.416 52 41.872c0 2.885.873 4.337 4.997 8.312C59.745 52.833 62.846 55 63.889 55c2.38 0 9.57-5.739 11.021-8.797C77.75 40.218 74.739 34 69 34h-3V9h3.557c1.957 0 5.557.503 8 1.119 4.411 1.11 4.443 1.15 4.443 5.5C82 19.333 81.696 20 80 20c-2.814 0-6 3.514-6 6.618C74 29.55 80.703 37 83.34 37 86.087 37 93 29.597 93 26.655 93 23.519 89.827 20 87 20c-1.619 0-2-.667-2-3.5 0-4.054.729-4.287 4.395-1.404 1.513 1.19 3.358 1.829 4.271 1.479 1.434-.551 1.404-.84-.28-2.702-3.028-3.348-9.203-6.005-17.323-7.454-4.16-.742-8.094-1.365-8.743-1.384-.65-.019-1.325-1.012-1.5-2.207C65.488.573 63.88-.547 62.688.646M39.667 24.667C37.751 26.582 41.57 33 44.626 33 46.604 33 50 28.868 50 26.461c0-2.653-1.055-3.037-4.005-1.458-1.252.67-2.079.67-2.493 0-.706-1.142-2.842-1.329-3.835-.336M78 26.326C78 28.63 81.693 33 83.64 33c1.779 0 5.36-4.553 5.36-6.814 0-2.373-2.765-3.021-4.687-1.099-.783.783-1.275.783-1.759 0-.37-.598-1.545-1.087-2.613-1.087-1.365 0-1.941.69-1.941 2.326M57.125 37.902c-3.489 2.21.692 10.953 6.052 12.654 2.436.773 7.251-2.76 8.775-6.439 2.269-5.48-1.948-9.241-6.123-5.462-1.702 1.54-1.956 1.54-3.658 0-2.058-1.863-3.059-2.012-5.046-.753M0 88.5v39.591l6.75-.295 6.75-.296.31-3.75.311-3.75h99.758l.311 3.75.31 3.75h14l.263-39.5.262-39.5-7.262.5-7.263.5-.302 5.25-.303 5.25h-99.79l-.303-5.25-.302-5.25-6.75-.296L0 48.909V88.5m.456 0c0 22 .132 30.858.293 19.683.161-11.174.161-29.174 0-40C.587 57.358.455 66.5.456 88.5m2.999-35.244c-.265.69-.363 17.003-.218 36.25L3.5 124.5l3.25.313 3.25.314V52H6.969c-1.668 0-3.249.565-3.514 1.256M118 88.5v36.627l3.25-.314 3.25-.313v-72l-3.25-.313-3.25-.314V88.5M14 84v20h9V64h-9v20m12 0v20h10V64H26v20m13 0v20h10V64H39v20m14 0v20h9V64h-9v20m13 0v20h9V64h-9v20m13 0v20h10V64H79v20m13 0v20h10V64H92v20m13 0v20h9V64h-9v20m-91 28v4h100v-8H14v4" fill-rule="evenodd"/></svg>