<svg xmlns="http://www.w3.org/2000/svg" width="128" height="128"><path d="M56.5 1.659c-1.65.868-4.13 2.631-5.51 3.917-2.098 1.954-4.554 2.592-14.939 3.878-6.835.846-12.711 1.996-13.057 2.555-.345.56-.217 4.201.285 8.093.843 6.536.758 7.184-1.115 8.496-1.115.781-3.399 3.817-5.075 6.746l-3.047 5.327-2.021 38.414c-1.111 21.128-2.02 40.777-2.021 43.665V128h108v-5.25c-.001-2.888-.911-22.553-2.023-43.701-1.994-37.906-2.06-38.515-4.639-43-3.513-6.11-5.304-8.049-7.432-8.049-1.463 0-1.75-.767-1.595-4.25l.189-4.25L92.304 17c-8.548-2.096-10.286-2.851-10.75-4.673-.846-3.323-5.375-8.195-9.64-10.371C67.326-.385 60.629-.514 56.5 1.659M60 5.385l-3.5 1.036 3.216.35c3.466.378 3.352.106 4.801 11.479.672 5.273 2.12 6.222 3.051 2 1.623-7.356 1.936-7.763 5.795-7.529l3.644.22-1.645-2.511C72.375 5.871 65.728 3.688 60 5.385m-17.427 7.746c-8.21 1.039-15.009 1.997-15.11 2.129-.1.132.412 4.965 1.14 10.74.727 5.775 1.339 11.063 1.359 11.75.025.828 1.723 1.25 5.03 1.25h4.993l-.243-4.75-.242-4.75 10.25-2.435c10.247-2.433 10.25-2.435 10.239-5.5-.016-4.336-1.135-10.588-1.87-10.444-.34.067-7.336.972-15.546 2.01m30.145 5.841c-.44 1.681-.051 2.028 2.268 2.028 2.651 0 2.888.382 4.498 7.25.935 3.987 1.914 8.038 2.175 9 .388 1.427 1.618 1.75 6.661 1.75h6.185l1.743-7.671c.959-4.219 1.535-7.88 1.28-8.135-.255-.255-5.091-1.544-10.746-2.865-5.655-1.321-11.014-2.623-11.908-2.893-1.043-.316-1.816.235-2.156 1.536M58.211 29.47c-7.309 1.801-13.518 3.504-13.798 3.784-.281.281-.215 1.688.147 3.128L45.217 39h15.891c12.057 0 15.887-.302 15.873-1.25-.056-3.589-2.78-11.266-4.046-11.401-.789-.084-7.415 1.32-14.724 3.121m-35.654 5.753C20.495 38.165 20.593 39 23 39c1.556 0 2-.667 2-3 0-3.585-.39-3.709-2.443-.777M100 34.418c0 .78-.273 2.13-.607 3-.493 1.284.166 1.582 3.5 1.582 4.522 0 4.853-.49 2.55-3.777-1.729-2.47-5.443-3.018-5.443-.805M16.621 80.75c-.954 20.213-1.821 38.1-1.928 39.75l-.193 3h99l-.193-3c-.107-1.65-.974-19.537-1.928-39.75L109.644 44H18.356l-1.735 36.75m25.936-30.527c-2.074 2.961-1.962 4.992.443 8.05 1.208 1.536 2.002 4.064 2.006 6.385.023 16.316 13.271 26.487 26.61 20.429 6.966-3.163 11.365-11.062 11.378-20.429.004-2.321.798-4.849 2.006-6.385 2.405-3.058 2.517-5.089.443-8.05-1.962-2.802-7.41-3.022-9.788-.394C73.41 52.309 73.57 56.57 76 59c4.513 4.513 1.466 17.522-4.999 21.34-3.658 2.161-10.407 2.118-14.192-.09C50.493 76.565 47.529 63.471 52 59c2.499-2.499 2.584-7.161.171-9.345-2.681-2.427-7.725-2.129-9.614.568m4.131 2.423c-1.221 1.22-.736 1.925 1.324 1.925 1.106 0 1.866-.438 1.687-.973-.426-1.278-2.143-1.821-3.011-.952m32 0c-1.221 1.22-.736 1.925 1.324 1.925 1.106 0 1.866-.438 1.687-.973-.426-1.278-2.143-1.821-3.011-.952" fill-rule="evenodd"/></svg>