<svg xmlns="http://www.w3.org/2000/svg" width="128" height="128"><path d="M50.5 1.881c-2.2 1.01-4.77 2.704-5.712 3.764C42.477 8.248 40 14.364 40 17.468V20h36l-.022-2.75c-.027-3.445-3.076-10.199-5.623-12.462-2.84-2.521-8.827-4.791-12.573-4.766C55.977.034 52.7.87 50.5 1.881m2 3.522c-3.593 1.585-5.99 4.127-7.406 7.849L44.05 16h11.829l.311-3.75c.209-2.529.799-3.75 1.81-3.75 1.011 0 1.601 1.221 1.81 3.75l.311 3.75H71.95l-1.044-2.748c-1.449-3.811-3.845-6.291-7.624-7.89-3.98-1.685-6.899-1.674-10.782.041M20.679 24.655C20.305 25.028 20 47.481 20 74.55c0 49.197-.001 49.217-2.105 49.767-1.161.304-1.909 1.141-1.667 1.867.647 1.942 82.897 1.942 83.544 0 .242-.725-.503-1.563-1.657-1.864-2.089-.546-2.097-.736-2.356-50.184L95.5 24.5l-37.071-.262c-20.39-.144-37.377.043-37.75.417M24 76c0 31.014.35 48 .99 48 .636 0 1.083-16.736 1.25-46.75l.26-46.75h63l.26 46.75c.167 30.014.614 46.75 1.25 46.75.64 0 .99-16.986.99-48V28H24v48m6 3v45h26V34H30v45m30 0v45h26V34H60v45m42.118-11.877c-1.744 2.205-2.085 3.31-1.274 4.121.812.812 1.651.618 3.132-.723 1.962-1.775 2.086-1.775 4.048 0 1.481 1.341 2.32 1.535 3.132.723 1.354-1.354-2.823-7.133-5.156-7.133-.825 0-2.572 1.355-3.882 3.012m-1.625 13.889c-.831 1.345 3.599 6.877 5.507 6.877 2.333 0 6.51-5.779 5.156-7.133-.812-.812-1.651-.618-3.132.723-1.887 1.707-2.148 1.719-3.853.176-2.12-1.919-2.815-2.04-3.678-.643" fill-rule="evenodd"/></svg>