<svg xmlns="http://www.w3.org/2000/svg" width="128" height="128"><path d="M39.882 1.226c-.175 1.881-.175 1.883.557 7l.676 4.725-16.807.275L7.5 13.5l-.277 55c-.152 30.25-.03 56.017.272 57.259l.548 2.26 48.728-.26 48.729-.259.288-9.89.288-9.89 7.554-9.004 7.555-9.005-4.567-4.567-4.567-4.567-3.013 2.887-3.013 2.886-.262-36.425L105.5 13.5l-16.834-.275-16.833-.274.747-4.226C74.166-.234 75.597.534 56.75.226c-12.999-.213-16.777.011-16.868 1M45 6.25c0 1.238.675 5.777 1.5 10.088.825 4.311 1.5 8.023 1.5 8.25 0 .227 3.793.412 8.429.412h8.429l1.119-5.75c.615-3.163 1.489-7.646 1.941-9.963.453-2.316.582-4.454.286-4.75C67.909 4.242 62.567 4 56.333 4 45.247 4 45 4.049 45 6.25m10 2.528C47.765 11.108 48.9 21 56.402 21 60.262 21 63 18.438 63 14.826c0-3.692-4.575-7.151-8-6.048m.177 5.775c.452 2.172 2.227 2.305 2.633.197.21-1.095-.28-1.75-1.31-1.75-.961 0-1.512.647-1.323 1.553M12 70.5V124h89l-.032-5.25-.031-5.25-2.052 2.75c-1.129 1.513-2.814 2.75-3.745 2.75C93.341 119 80 106.159 80 104.428 80 103.179 87.229 96 88.487 96c.497 0 2.106 1.152 3.576 2.561l2.673 2.56 3.132-3.954L101 93.212V17H71.35l-1.425 6.25L68.5 29.5H56.583c-13.38 0-12.49.554-14.046-8.75L41.909 17H12v53.5m8.679-35.846c-.373.374-.679 11.614-.679 24.977 0 23 .103 24.354 1.934 25.334 2.981 1.595 67.189 1.397 69.393-.215 1.546-1.13 1.684-3.603 1.441-25.75L92.5 34.5l-35.571-.262c-19.564-.145-35.876.043-36.25.416M25 60v21h16l.006-4.75c.008-6.75 1.661-11.843 4.593-14.149 2.09-1.644 2.345-2.337 1.466-3.98-2.088-3.901-1.277-8.755 2.012-12.044C51.606 43.548 52.96 43 56.676 43c3.769 0 5.005.517 7.423 3.106 3.114 3.333 3.853 8.246 1.815 12.055-.896 1.673-.701 2.3 1.105 3.565C70.136 63.909 72 69.051 72 75.468V81h16V39H25v21m27.392-10.483c-2.634 2.634-2.591 5.492.126 8.358 2.021 2.132 6.618 1.676 8.672-.861 2.324-2.871 2.279-4.148-.263-7.379-2.602-3.309-5.306-3.347-8.535-.118M48 66c-1.59 1.59-2 3.333-2 8.5V81h21v-6.5c0-5.167-.41-6.91-2-8.5-1.59-1.59-3.333-2-8.5-2s-6.91.41-8.5 2m56.025 30.623c-4.111 5.245-7.86 9.775-8.331 10.066-.471.291-2.143-.703-3.716-2.21-2.866-2.746-5.978-2.86-5.978-.219 0 .728 1.956 3.243 4.347 5.589l4.346 4.266 10.247-12.092c8.469-9.995 10.036-12.347 9.031-13.558-.669-.806-1.498-1.446-1.843-1.422-.346.024-3.992 4.334-8.103 9.58m-83.358-6.956c-.367.366-.667 1.491-.667 2.5C20 93.868 21.152 94 36 94h16v-5H36.667c-8.434 0-15.634.3-16 .667m36.042-.043c-.39.39-.709 1.555-.709 2.588 0 1.683.707 1.848 6.75 1.584 5.985-.262 6.75-.523 6.75-2.296 0-1.747-.764-2.037-6.041-2.292-3.323-.161-6.36.026-6.75.416m16.958.043c-.367.366-.667 1.491-.667 2.5 0 1.506.803 1.833 4.5 1.833 4.133 0 4.5-.204 4.5-2.5 0-2.232-.411-2.5-3.833-2.5-2.109 0-4.134.3-4.5.667M20 104.5v2.534l25.75-.267c24.994-.259 25.75-.326 25.75-2.267 0-1.941-.756-2.008-25.75-2.267L20 101.966v2.534m0 13.036v2.536l9.75-.286c9.249-.271 9.766-.402 10.07-2.536.313-2.206.12-2.25-9.75-2.25H20v2.536m24-.036v2.5h34v-5H44v2.5" fill-rule="evenodd"/></svg>