<svg xmlns="http://www.w3.org/2000/svg" width="128" height="128"><path d="M2 20c-1.926 1.926-2 3.333-2 38 0 42.876-.867 40 12.06 40h8.059l-4.236 5.024c-3.394 4.025-3.984 5.267-2.97 6.25 1.009.977 2.441-.043 7.051-5.024L25.749 98h98.346l2.453-2.646L129 92.708V56.687c0-19.811-.262-35.758-.583-35.437-.321.321-1.446-.279-2.5-1.333C124.07 18.07 121.797 18 64 18c-58.667 0-60.044.044-62 2M.452 58c0 20.075.133 28.288.297 18.25.163-10.037.163-26.462 0-36.5C.585 29.713.452 37.925.452 58m4.006-34.752c-.267.695-.366 16.787-.221 35.758L4.5 93.5l10 .221 10 .221L39 77.919c18.181-20.091 18.717-20.602 20.149-19.17 1.263 1.263-.302 3.293-14.007 18.175L36.784 86h10.447c10.143 0 10.481-.072 11.574-2.472 2.064-4.53 9.208-4.215 10.695.471C70.107 85.911 71.01 86 89.907 86h19.772l1.1-2.413c.604-1.328 2.027-2.708 3.16-3.068C115.938 79.885 116 79.203 116 58s-.062-21.885-2.061-22.519c-1.133-.36-2.538-1.702-3.122-2.983-.583-1.281-1.953-2.562-3.044-2.847-2.924-.765-1.629-2.977 2.302-3.931a901.106 901.106 0 0 0 5.577-1.374c3.299-.83 6.769 3.091 5.755 6.502-1.027 3.455-1.027 50.849 0 54.304 1.125 3.782-2.472 7.379-6.255 6.257-2.083-.618-26.825-.887-50.902-.552-1.513.021-9.072-.186-16.799-.46-13.254-.469-14.156-.381-15.915 1.563l-1.864 2.06 46.914-.26 46.914-.26v-71l-59.278-.258c-47.042-.205-59.379.003-59.764 1.006M8 26c-1.716 1.716-2.023 2.776-1.407 4.848 1.027 3.455 1.027 50.849 0 54.304-1.103 3.708 2.449 7.332 6.255 6.382 1.459-.364 4.452-.971 6.652-1.348 4.685-.803 5.562-3.506 1.298-3.998-1.648-.19-2.95-1.092-3.337-2.311-.349-1.099-1.72-2.494-3.048-3.098L12 79.679V36.321l2.413-1.1c1.328-.604 2.708-2.027 3.068-3.16.631-1.99 1.337-2.061 20.426-2.061h19.772l1.126 2.472c2.058 4.516 9.207 4.217 10.687-.446.584-1.841 1.697-1.995 16.317-2.251C98.968 29.544 101.5 29.258 101.5 28c0-1.25-2.922-1.617-17.5-2.199-9.625-.384-18.737-.681-20.25-.659-23.572.34-48.821.067-50.902-.551C10.777 23.977 9.715 24.285 8 26m2.446 3.087c-1.03 1.668 1.287 3.58 2.667 2.2C14.267 30.133 13.545 28 12 28c-.485 0-1.184.489-1.554 1.087m52 0c-1.03 1.668 1.287 3.58 2.667 2.2C66.267 30.133 65.545 28 64 28c-.485 0-1.184.489-1.554 1.087m52 0c-1.03 1.668 1.287 3.58 2.667 2.2C118.267 30.133 117.545 28 116 28c-.485 0-1.184.489-1.554 1.087M87 50.308c-5.775 3.467-10.5 6.932-10.5 7.7 0 1.993 21.323 14.569 22.576 13.316 1.3-1.3.761-26.55-.576-26.99-.55-.181-5.725 2.508-11.5 5.974m2.004 3.259c-3.023 1.875-5.627 3.802-5.787 4.282C82.975 58.576 94.228 66 95.572 66c.235 0 .428-3.6.428-8s-.338-7.964-.75-7.921c-.412.044-3.223 1.614-6.246 3.488m-26.558-.48c-1.03 1.668 1.287 3.58 2.667 2.2C66.267 54.133 65.545 52 64 52c-.485 0-1.184.489-1.554 1.087m-52 32c-1.03 1.668 1.287 3.58 2.667 2.2C14.267 86.133 13.545 84 12 84c-.485 0-1.184.489-1.554 1.087m52 0c-1.03 1.668 1.287 3.58 2.667 2.2C66.267 86.133 65.545 84 64 84c-.485 0-1.184.489-1.554 1.087m52 0c-1.03 1.668 1.287 3.58 2.667 2.2C118.267 86.133 117.545 84 116 84c-.485 0-1.184.489-1.554 1.087" fill-rule="evenodd"/></svg>