<svg xmlns="http://www.w3.org/2000/svg" width="128" height="128"><path d="M4.208 4.288C1.894 6.646.014 9.009.032 9.538c.017.529 2.634 5.237 5.814 10.462 5.628 9.245 5.891 9.508 9.779 9.798 3.684.275 5.178 1.483 19.19 15.517l15.194 15.218-8.92 8.879-8.921 8.879-6.834.108c-8.096.129-13.008 2.232-18.551 7.944-6.401 6.595-8.882 20.987-4.392 25.477 1.485 1.484 2.075 1.156 7.39-4.103 4.374-4.328 6.485-5.717 8.693-5.717 3.431 0 8.526 4.394 8.526 7.352 0 1.088-2.766 4.859-6.147 8.38-5.591 5.822-6.005 6.544-4.575 7.975 2.071 2.07 10.166 2.789 15.437 1.37C42.253 124.239 50 113.846 50 102.546V96.45l7.331-7.282c6.259-6.217 7.511-7.063 8.569-5.789.932 1.124.963 2.009.123 3.578-1.526 2.852-.325 4.353 2.957 3.697 2.494-.499 4.138.966 18.512 16.495 8.676 9.374 17.177 17.898 18.892 18.943 9.095 5.546 21.616-1.862 21.616-12.79 0-2.421-.639-5.637-1.42-7.148-1.151-2.224-29.982-29.711-35.384-33.733-1.127-.84-1.204-1.538-.344-3.145 1.501-2.804-.802-4.908-3.683-3.366-1.493.799-2.262.683-3.233-.487-1.083-1.305-.191-2.626 5.949-8.807l7.223-7.272 5.259.437c9.548.791 20.34-6.049 24.23-15.359 2.608-6.241 1.45-19.422-1.706-19.422-.572 0-3.634 2.475-6.806 5.5-6.66 6.353-9.371 6.899-13.398 2.695-4.085-4.263-3.512-6.948 2.813-13.195 3.025-2.987 5.5-6.021 5.5-6.741 0-3.635-13.268-4.184-20.236-.838-8.85 4.25-14.151 12.753-14.219 22.808l-.045 6.729-8.984 9.026-8.983 9.025-15.218-15.194C31.188 20.71 30.075 19.33 29.798 15.562c-.291-3.968-.508-4.185-9.768-9.81C14.821 2.588 10.077 0 9.488 0c-.589 0-2.965 1.93-5.28 4.288m92.429 2.177c-8.425 3.003-12.91 10.18-12.813 20.501l.063 6.662-25.292 25.277-25.291 25.277-5.465-.683C16.597 82.094 7.434 89.27 5.491 101l-.745 4.5 5.084-4.75c6.976-6.517 10.343-6.539 17.213-.113 4.484 4.195 4.957 5.055 4.957 9.022 0 3.767-.6 5.039-4.25 9.013L23.5 123.3l4-.715c6.181-1.105 10.717-3.863 14-8.511 2.722-3.854 3-4.98 3-12.153v-7.905l24.829-24.844 24.829-24.845 7.832.087c7.154.079 8.207-.175 12.171-2.927C118.925 38.178 123 31.344 123 26.661v-2.916l-4.478 4.128c-3.763 3.468-5.147 4.127-8.671 4.127-3.667 0-4.737-.567-8.522-4.518C97.48 23.466 97 22.444 97 18.27c0-4.169.47-5.174 4.208-8.982 3.987-4.063 4.079-4.286 1.75-4.244-1.352.024-4.196.663-6.321 1.421M7.549 7.946c-1.696 1.874-1.599 2.213 2.66 9.25 3.974 6.564 4.77 7.335 7.856 7.612 2.94.264 5.75 2.614 19.49 16.294 15.326 15.26 16.131 15.903 17.718 14.149 1.581-1.747.871-2.629-14.305-17.783-14.54-14.518-15.969-16.259-15.98-19.456-.012-3.307-.441-3.76-7.35-7.762C13.602 7.912 10.077 6 9.805 6c-.272 0-1.287.876-2.256 1.946M85.18 41.25c.176 1.237.995 2.25 1.82 2.25.825 0 1.644-1.013 1.82-2.25.245-1.732-.174-2.25-1.82-2.25-1.646 0-2.065.518-1.82 2.25M62.095 62.405c-11.648 11.664-16.205 16.866-15.77 18 .337.877 1.194 1.595 1.905 1.595C50.193 82 82 49.731 82 47.739c0-4.088-4.455-.805-19.905 14.666m11.017 10.982c-4.666 4.724-5.046 5.423-3.6 6.623 1.408 1.168 2.332.624 7.185-4.228 5.17-5.171 5.428-5.645 3.6-6.623-1.683-.901-2.727-.286-7.185 4.228m6.963 7.037-5.356 5.423 16.163 17.465c8.89 9.605 17.477 18.008 19.082 18.673 3.771 1.562 9.23-.106 11.454-3.5 2.267-3.46 1.977-8.5-.673-11.676C118.158 103.709 86.769 75 85.966 75c-.294 0-2.945 2.441-5.891 5.424m-40.061 4.568c-1.815 1.121-.414 4.232 1.721 3.82.958-.184 1.882-1.061 2.053-1.948.365-1.898-1.908-3.026-3.774-1.872m47.653 1.675c-1.861 1.86.331 4.925 11.197 15.657 8.513 8.408 12.326 11.54 13.5 11.09.9-.345 1.636-1.149 1.636-1.786C114 110.491 90.016 86 88.902 86c-.313 0-.869.3-1.235.667" fill-rule="evenodd"/></svg>