<svg xmlns="http://www.w3.org/2000/svg" width="128" height="128"><path d="M66.455 2.455c-2.579 2.578-3.377 8.223-1.437 10.163 1.12 1.12-2.212 8.148-6.578 13.872l-2.511 3.292-7.215-1.874c-8.848-2.298-12.103-2.376-14.143-.337-2.082 2.082-1.995 5.756.179 7.616 2.302 1.969 21.898 7.113 24.906 6.538 2.238-.427 2.344-.189 2.344 5.291 0 7.051-1.416 8.691-5.615 6.501-2.108-1.099-6.185-1.506-15.135-1.511C33.754 52.002 29 51.612 29 51c0-.55 2.003-1 4.45-1 4.865 0 6.675-1.689 5.778-5.392C38.047 39.728 36.316 39 25.89 39h-9.799l-.637 3.395c-.35 1.867-.146 4.312.454 5.434.601 1.122 1.092 3.157 1.092 4.523 0 3.515.985 5.648 2.607 5.648.959 0 1.393-1.248 1.393-4 0-3.333.333-4 2-4 1.951 0 2 .667 2 27s-.049 27-2 27c-1.937 0-2-.667-2-21 0-17.283-.247-21-1.393-21C17.279 62 17 64.415 17 84.582 17 103.49 16.946 104 14.95 104c-5.803 0-9.791 4.82-8.702 10.518.362 1.895.051 2.482-1.315 2.482-4.447 0-6.523 6.251-3.104 9.345C3.488 127.847 9.265 128 64.154 128h60.497l2.175-2.314c1.837-1.956 3.354-8.2 1.555-6.4-.341.34-1.273-.035-2.071-.834-.799-.798-2.258-1.452-3.243-1.452-1.366 0-1.677-.587-1.315-2.482 1.098-5.743-2.902-10.518-8.809-10.518-1.656 0-1.993-.406-1.451-1.75 1.197-2.971 1.786-9.005 1.133-11.609-.456-1.816-3.547-4.262-11.552-9.141l-10.93-6.662-4.571-11.424C81.667 53.657 81 50.969 81 44.995 81 39.683 80.665 38 79.607 38 77.715 38 77 40.231 77 46.134v4.971l-5.25-.303-5.25-.302-.275-14.524c-.221-11.651.02-14.915 1.218-16.5 1.482-1.961 1.494-1.96 1.525.071.018 1.126 1.798 3.771 3.956 5.879 2.158 2.107 4.184 4.867 4.502 6.133.35 1.395 1.464 2.428 2.826 2.622 1.885.267 2.829 2.014 5.848 10.819 2.776 8.095 4.181 10.83 6.135 11.941 2.25 1.278 2.829 1.247 5.15-.274 3.433-2.249 3.331-4.149-.901-16.714-3.382-10.044-3.804-10.731-11.102-18.072-6.711-6.751-7.459-7.868-6.484-9.69C81.809 6.751 77.99 0 72 0c-1.948 0-3.998.907-5.545 2.455m2.631 2.942c-.682.821-1.092 2.53-.913 3.798.255 1.8.961 2.305 3.218 2.305 3.565 0 5.61-2.684 4.002-5.25-1.436-2.29-4.743-2.738-6.307-.853M73 19.226c0 .675 3.124 4.388 6.943 8.25 6.551 6.628 7.117 7.573 10.047 16.774 1.707 5.362 3.506 9.75 3.998 9.75 2.123 0 1.917-2.529-.952-11.708-2.918-9.334-3.365-10.077-10.268-17.026-6.894-6.94-9.768-8.717-9.768-6.04M59.43 31.608l-2.07 2.79-8.43-2.212C39.633 29.745 37 29.488 37 31.021c0 1.393 3.008 2.562 12.91 5.018 8.293 2.056 8.437 2.059 10.33.165 1.202-1.201 1.797-2.943 1.59-4.653l-.33-2.733-2.07 2.79M20 44.5c0 1.2 1.5 1.5 7.5 1.5s7.5-.3 7.5-1.5-1.5-1.5-7.5-1.5-7.5.3-7.5 1.5m43.11 11.867c-.855 1.031-.813 1.635.172 2.452.976.81 2.054.473 4.262-1.331l2.956-2.416-3.128-.036c-1.72-.02-3.638.579-4.262 1.331m15.9 10.824L83.852 79.5l10.324 6.553c9.521 6.044 10.349 6.821 10.645 10 .658 7.059 4.133 6.03 4.164-1.232.015-3.608-.197-3.81-11.169-10.629l-11.184-6.95-4.243-10.871c-3.233-8.284-4.716-10.944-6.232-11.18-1.796-.278-1.519.889 2.853 12M29 80v24h25.5c14.025 0 25.5-.385 25.5-.856 0-.47-3.823-8.818-8.497-18.55L63.007 66.9l-4.035 3.243c-3.653 2.936-4.376 4.336-7.637 14.8-1.982 6.356-4.287 12.344-5.124 13.307-3 3.452-14.318 1.139-15.698-3.208-.946-2.983 1.818-6.832 5.189-7.223 2.54-.295 2.98-1.066 5.855-10.252 2.953-9.432 3.403-10.192 8.927-15.094 5.539-4.914 5.702-5.192 3.416-5.803-1.32-.354-7.462-.649-13.65-.656L29 56v24m39.314-17.75-2.035 2.25L75.548 84l9.269 19.5 9.247.29c7.473.234 9.041.041 8.173-1.004-.59-.712-1.223-2.84-1.405-4.729-.305-3.152-1.108-3.911-9.764-9.231-5.188-3.189-9.791-6.367-10.228-7.062-.438-.695-2.656-5.876-4.928-11.514C73.639 64.612 71.458 60 71.064 60c-.393 0-1.631 1.013-2.75 2.25m-15.003 2.877c-4.469 3.834-5.062 4.917-8.349 15.25L41.423 91.5l-3.711.31c-4.308.361-4.827 1.816-1.147 3.215 6.35 2.414 6.796 1.962 10.79-10.952 3.493-11.296 3.956-12.167 8.743-16.471 2.78-2.5 4.769-5.008 4.42-5.574-1.052-1.701-2.175-1.218-7.207 3.099M11.2 109.2c-1.837 1.837-1.428 5.608.734 6.765 1.246.666 16.938 1.035 44.074 1.035 39.594 0 42.118.106 41.802 1.75-.314 1.632-3.477 1.767-47.074 2.01-40.622.226-46.736.455-46.736 1.75 0 1.303 7.51 1.49 60 1.49 52.667 0 60-.183 60-1.5 0-1.227-1.713-1.5-9.418-1.5-10.257 0-12.582-.482-12.582-2.607 0-1.038 1.548-1.393 6.066-1.393 3.336 0 6.936-.466 8-1.035 2.162-1.157 2.571-4.928.734-6.765-1.73-1.73-103.87-1.73-105.6 0M.195 122.5c.02 1.65.244 2.204.498 1.231.254-.973.237-2.323-.037-3-.274-.677-.481.119-.461 1.769" fill-rule="evenodd"/></svg>