<svg xmlns="http://www.w3.org/2000/svg" width="128" height="128"><path d="M50.859 2.158C46.814 4.503 43 10.407 43 14.323c0 1.403.897 6.291 1.993 10.864 3.381 14.103 2.459 21.598-3.639 29.594-1.883 2.468-2.286 3.687-1.483 4.49.803.803 1.811.441 3.713-1.334 7.091-6.619 8.992-17.728 5.523-32.266C47.948 20.815 47 15.955 47 14.871 47 9.671 52.764 4 58.049 4c3.992 0 8.747 3.051 10.495 6.735 1.623 3.42 1.604 3.955-.422 11.959-2.359 9.315-2.735 19.526-.941 25.515 1.593 5.319 8.192 12.737 9.875 11.101.96-.933.622-1.902-1.568-4.5-1.535-1.82-3.398-4.758-4.14-6.528-1.981-4.728-1.644-15.549.763-24.468 2.451-9.086 2.033-13.301-1.77-17.82-5.24-6.228-12.793-7.715-19.482-3.836m2.796 8.671c-2.427 2.681-2.129 7.725.568 9.614C58.834 23.673 65 20.845 65 15.5c0-5.476-7.735-8.661-11.345-4.671m-29.583.584c-1.141 1.375-1.097 1.902.29 3.434.901.996 1.638 2.463 1.638 3.261 0 .797-2.959 4.362-6.575 7.921-7.57 7.45-9.721 10.945-8.856 14.389.851 3.391 4.152 6.261 5.57 4.843.79-.79.645-1.732-.523-3.399-.889-1.269-1.616-2.69-1.616-3.158 0-.468 3.6-4.61 8-9.204 8.916-9.31 9.884-12.199 5.71-17.05-2.076-2.414-2.415-2.511-3.638-1.037m32.292 3.08c-.346.903-.15 2.121.436 2.707 1.524 1.524 4.41.131 4.012-1.935-.443-2.302-3.647-2.858-4.448-.772m59.99-.726c-3.056.491-3.746 1.483-16.779 24.124-8.969 15.58-11.424 20.589-10.406 21.234.732.465 1.558.851 1.836.86.277.008 5.902-9.322 12.5-20.735 10.386-17.967 12.319-20.75 14.412-20.75 1.329 0 2.571.464 2.76 1.032.189.567-4.404 9.308-10.206 19.425-9.511 16.581-11.659 21.939-8.351 20.836 1.058-.352 10.217-15.51 19.079-31.575 3.617-6.557 3.9-7.565 2.841-10.12-1.295-3.127-4.376-4.863-7.686-4.331m-82.893 8.296c-.361.585.062 1.858.941 2.829 2.812 3.107 1.766 5.395-6.069 13.276-6.214 6.251-7.666 8.293-7.666 10.78 0 3.903 4.018 8.558 5.981 6.929 1.08-.896.958-1.563-.662-3.622C24.894 50.866 24 49.286 24 48.743c0-.543 3.6-4.676 8-9.183 6.351-6.507 8-8.806 8-11.156 0-5.082-4.575-9.519-6.539-6.341m26.262 11.889C59.289 35.609 59.66 36 61.667 36c1.817 0 2.39-.465 2.145-1.739-.487-2.528-3.45-2.753-4.089-.309m47.947-.535c-.648 1.688 2.256 3.057 3.61 1.703.52-.52.643-1.435.274-2.033-.953-1.542-3.24-1.347-3.884.33m-2.609 5.01c-.802.966-.671 1.652.503 2.626 1.322 1.097 1.741 1.078 2.497-.117 1.259-1.991 1.163-2.636-.488-3.27-.785-.301-1.915.041-2.512.761m-45.725 1.14c-.722 1.881 1.048 3.932 2.577 2.987C63.561 41.535 63.216 38 61.469 38c-.843 0-1.802.705-2.133 1.567m39.656 9.446c-3.347 5.732-3.938 7.406-2.856 8.092 2.096 1.328 2.12 1.305 6.154-5.789 3.29-5.786 3.6-6.854 2.357-8.098-1.244-1.244-1.99-.479-5.655 5.795M60.461 47.75C61.307 51.184 65.14 59 65.977 59c.343 0 1.151-.528 1.797-1.174.899-.899.741-1.895-.672-4.25-1.015-1.692-2.136-4.313-2.493-5.826-.451-1.916-1.281-2.75-2.736-2.75-1.777 0-1.988.411-1.412 2.75M3.322 64.25c.296 1.237 2.683 16.092 5.304 33.01l4.766 30.76 44.99-.26 44.99-.26 4.78-30c2.628-16.5 4.794-31.237 4.813-32.75L113 62H2.783l.539 2.25M8 66.86c0 1.161 7.922 52.048 8.545 54.89l.493 2.25h41.481c22.815 0 41.481-.226 41.481-.502 0-.562 7.636-49.158 8.524-54.248l.567-3.25H58.545C30.745 66 8 66.387 8 66.86m15.885 2.588c-.246.246.673 11.946 2.043 26C28.166 118.41 28.6 121 30.209 121c1.276 0 1.791-.771 1.791-2.679 0-3.441-3.945-44.098-4.567-47.071-.421-2.012-2.355-2.994-3.548-1.802m20.514 5.802c.307 3.438.842 15.138 1.189 26 .602 18.855.721 19.75 2.625 19.75 1.951 0 1.98-.471 1.352-21.25C48.72 71.838 48.375 69 45.827 69c-1.829 0-1.942.494-1.428 6.25m23.262 12.5c-1.07 30.609-.976 33.25 1.181 33.25 1.703 0 1.89-1.469 2.5-19.661C72.376 70.452 72.323 69 70.158 69c-1.7 0-1.892 1.44-2.497 18.75m19.462 5.5c-1.258 13.338-2.505 25.037-2.772 26-.348 1.255.093 1.75 1.563 1.75 2.575 0 2.53.227 5.038-25.571C93.489 69.33 93.492 69 91.205 69c-1.615 0-2.026 2.437-4.082 24.25m12.544-7.583C98.321 87.012 99.053 89 100.893 89c1.899 0 3.491-2.283 2.371-3.402-.797-.798-2.769-.76-3.597.069m-1 6C97.321 93.012 98.053 95 99.893 95c1.899 0 3.491-2.283 2.371-3.402-.797-.798-2.769-.76-3.597.069m-1.039 7.083c-.278.963-1.011 5.35-1.628 9.75s-1.35 8.787-1.628 9.75c-.366 1.262.064 1.75 1.542 1.75 2.307 0 2.464-.468 4.442-13.199 1.166-7.507 1.154-8.775-.084-9.25-2.022-.776-2.08-.75-2.644 1.199" fill-rule="evenodd"/></svg>