<svg xmlns="http://www.w3.org/2000/svg" width="128" height="128"><path d="M13.636 2.636 11 5.273v55.454l2.636 2.637L16.273 66h95.615l2.806-2.413 2.806-2.414V4.827l-2.819-2.425-2.819-2.425-40.181.262C36.747.466 31.5.696 31.5 2c0 1.304 5.165 1.534 39.434 1.762 34.942.232 39.641.449 41.25 1.905C113.849 7.173 114 9.452 114 33.084c0 22.097-.224 25.997-1.571 27.345-1.384 1.383-7.153 1.571-48.3 1.571-35.012 0-47.03-.301-47.929-1.2-1.771-1.771-1.706-54.135.07-55.609.698-.579 3.282-1.197 5.741-1.372 3.308-.236 4.558-.774 4.804-2.069C27.098.257 26.348 0 21.71 0c-4.541 0-5.872.434-8.074 2.636m42.031 20.031C55.3 23.033 55 27.772 55 33.198c0 10.977.642 12.021 6.018 9.795 3.901-1.616 4.314-5.544.482-4.582-2.462.618-2.5.535-2.5-5.487V26.81l4.75 2.738c2.612 1.505 5.097 2.931 5.521 3.167.425.236-.25 1.265-1.5 2.286-1.729 1.414-1.994 2.139-1.111 3.038.89.906 1.871.76 4.218-.626 6.149-3.632 5.247-5.548-5.37-11.408-7.397-4.084-8.666-4.514-9.841-3.338M12.573 78.57c-3.657 3.656-3.444 16.408.358 21.551 2.386 3.227 1.773 4.779-1.931 4.895-1.906.06-4.125 1.807-6.296 4.957-2.036 2.953-2.395 14.936-.504 16.827.832.832 6.029 1.2 16.929 1.2 17.991 0 18.875-.343 18.865-7.321-.008-6.528-1.764-11.379-4.933-13.636-1.579-1.124-3.475-2.05-4.215-2.058-.74-.009-1.982-.418-2.76-.911-1.156-.732-.928-1.473 1.25-4.061C31.717 97.183 32 96.028 32 89.146 32 78.171 30.989 77 21.515 77c-5.366 0-7.799.427-8.942 1.57m41.844.917c-1.255 1.914-1.547 4.315-1.27 10.424.308 6.782.72 8.319 2.831 10.565 2.078 2.213 2.236 2.777.996 3.561-.811.513-2.227.939-3.147.948-4.082.037-9.748 8.907-7.752 12.136C47.1 118.78 50 116.498 50 114.033c0-3.424 7.204-7.198 8.752-4.586 2.077 3.503 7.27 3.641 10.069.268 1.424-1.715 4.758-1.23 7.429 1.081 1.294 1.12 1.75 3.036 1.75 7.359 0 5.178-.228 5.845-2 5.845-1.439 0-2-.667-2-2.378 0-2.482-2.204-5.085-3.342-3.947-.362.362-.658 1.933-.658 3.492 0 2.796-.078 2.833-6 2.833-5.973 0-6-.013-6-2.941 0-1.618-.5-3.25-1.112-3.628-1.388-.858-2.852 1.344-2.873 4.319-.011 1.708-.597 2.25-2.432 2.25-1.329 0-2.593-.531-2.81-1.18-.217-.653-1.14-.893-2.066-.538-1.753.673-1.335 3.545.72 4.953 1.892 1.295 32.035.903 33.373-.435.712-.712 1.2-4.138 1.2-8.423 0-6.733-.209-7.432-3.077-10.3-1.692-1.692-3.83-3.084-4.75-3.092-3.965-.037-4.412-1.545-1.657-5.587 2.421-3.552 2.626-4.594 2.309-11.737C74.389 77.831 73.492 77 63.332 77c-6.658 0-7.426.214-8.915 2.487m43.238-.658c-2.628 2.904-2.336 17.036.425 20.546 2.623 3.334 2.193 4.605-2.031 6.008-4.891 1.625-7.342 5.52-7.844 12.464-.738 10.199-.82 10.153 18.13 10.153 11.317 0 16.63-.365 17.465-1.2.701-.701 1.2-4.067 1.2-8.1 0-6.514-.19-7.09-3.4-10.3-1.87-1.87-4.318-3.4-5.441-3.4-3.154 0-3.468-1.663-.955-5.062 3.129-4.23 3.378-17.525.391-20.83-2.634-2.914-15.376-3.113-17.94-.279m-83.048 3.753c-.334.87-.607 1.77-.607 2 0 .969 7.699.319 8.758-.74.876-.876 1.537-.842 2.724.143 1.843 1.53 3.015.753 2.173-1.442-.859-2.239-12.187-2.205-13.048.039m43.06-.915c-.367.366-.667 1.266-.667 2 0 1.683 7.108 1.825 8.758.175.876-.876 1.537-.842 2.724.143 1.881 1.561 2.803.921 1.935-1.342C69.933 81.384 68.449 81 64.06 81c-3.15 0-6.027.3-6.393.667m43 0C98.781 83.552 100.229 85 104 85c2.2 0 4-.45 4-1s.675-1 1.5-1 1.5.45 1.5 1 .45 1 1 1 1-.9 1-2c0-1.771-.667-2-5.833-2-3.209 0-6.134.3-6.5.667m-86.108 9.147C13.258 94.913 16.91 100 21.155 100c4.011 0 7.04-3.326 6.654-7.309-.307-3.173-.344-3.193-6.477-3.487-5.335-.255-6.25-.038-6.773 1.61m42.802-.312c-.8 2.084.324 6.04 2.266 7.982 4.043 4.043 12.411-1.211 10.984-6.897C70.003 89.163 69.583 89 63.95 89c-4.426 0-6.165.396-6.589 1.502m43.349-.879c-1.427 1.428-.657 6.43 1.29 8.377 4.491 4.491 11.428 1.185 10.82-5.156-.317-3.31-.377-3.347-5.86-3.638-3.047-.161-5.859.026-6.25.417M19 106c0 1.333.667 2 2 2s2-.667 2-2-.667-2-2-2-2 .667-2 2m43 0c0 1.333.667 2 2 2s2-.667 2-2-.667-2-2-2-2 .667-2 2m42.015-1.25c.038 1.853 1.926 3.486 3.384 2.927 2.59-.994 1.934-3.677-.899-3.677-1.375 0-2.493.338-2.485.75m-91.756 4.018C8.835 109.331 7 112.805 7 118.723c0 4.962.149 5.277 2.5 5.277 2.078 0 2.5-.478 2.5-2.833 0-1.559.296-3.13.658-3.492 1.138-1.138 3.342 1.465 3.342 3.947 0 2.212.379 2.378 5.437 2.378 5.402 0 5.438-.02 5.75-3.25.2-2.083.852-3.25 1.813-3.25s1.613 1.167 1.813 3.25c.26 2.692.732 3.25 2.75 3.25 2.203 0 2.436-.409 2.422-4.25-.019-5.421-1.784-8.886-5.414-10.627-2.645-1.267-3.006-1.198-4.57.875-2.109 2.796-6.317 2.944-9.303.327-1.217-1.066-3.199-1.761-4.439-1.557m84.635.346C93.636 110.31 92 113.797 92 119.547c0 4.052.219 4.453 2.437 4.453 2.018 0 2.49-.558 2.75-3.25.2-2.083.852-3.25 1.813-3.25s1.613 1.167 1.813 3.25c.312 3.23.348 3.25 5.75 3.25 5.058 0 5.437-.166 5.437-2.378 0-2.482 2.204-5.085 3.342-3.947.362.362.658 1.933.658 3.492 0 2.355.422 2.833 2.5 2.833 2.328 0 2.5-.339 2.5-4.918 0-6.512-.705-8.053-4.4-9.617-2.784-1.18-3.324-1.104-5.298.736-2.864 2.671-7.206 2.636-9.402-.076-.946-1.169-1.873-2.089-2.06-2.046-.187.043-1.512.509-2.946 1.035" fill-rule="evenodd"/></svg>