<svg xmlns="http://www.w3.org/2000/svg" width="128" height="128"><path d="M8.491 1.25c-.246.688-.569 4.397-.719 8.244-.268 6.881-.319 7.001-3.215 7.5-1.619.278-2.857.843-2.75 1.256.106.413.193 1.2.193 1.75s1.332 1 2.96 1h2.959l.291 8.25.29 8.25 6.976.301c8.716.376 9.52-.488 9.534-10.242l.01-7.059 2.346 5c1.291 2.75 6.405 12.201 11.365 21.002 8.725 15.485 9.04 16.266 9.736 24.123l.719 8.121-5.244 4.877c-2.884 2.682-5.866 5.487-6.627 6.232-.76.746-1.136 2.135-.833 3.087.391 1.232-2.777 5.238-10.966 13.87C16.141 116.694 14 119.502 14 121.919c0 3.31 3.025 6.081 6.638 6.081 1.507 0 5.94-3.937 14.164-12.579 11.287-11.86 12.096-12.503 14.154-11.25 2.04 1.242 2.62.853 8.863-5.946 3.675-4.002 7.181-7.264 7.791-7.25.611.014 5.062 1.851 9.893 4.082 5.656 2.614 9.126 3.714 9.749 3.091C86.598 96.802 92 98.8 92 100.643c0 .796-.74 5.906-1.646 11.356-1.533 9.233-1.531 10.081.024 12.454 1.858 2.836 6.038 3.426 8.988 1.269 2.431-1.778 7.265-29.041 5.742-32.384-.638-1.401-3.575-3.437-7.575-5.25C92.765 85.926 91 84.603 91 83.193c0-1.407-1.643-2.644-6.05-4.556l-6.051-2.624.685-6.05c.594-5.252 2.182-8.714 12.042-26.256C97.873 32.593 103.072 22.825 103.178 22c.107-.825.448 2.325.758 7l.564 8.5 6.976.301c8.677.374 9.524-.515 9.524-9.992 0-6.515.103-6.809 2.393-6.809 2.296 0 4.117-2.157 2.871-3.402-.328-.329-1.647-.598-2.931-.598-2.219 0-2.333-.337-2.333-6.918C121-.103 121.093 0 111.933 0h-7.852l-.291 8.25-.29 8.25-39.25.174-39.25.174v-6.842C25-.036 25.031 0 16.362 0c-5.035 0-7.568.402-7.871 1.25M12 18.5c0 9 .379 14.5 1 14.5s1-5.5 1-14.5S13.621 4 13 4s-1 5.5-1 14.5m6.667-13.833C17.561 5.772 17.882 33 19 33c.621 0 1-5.5 1-14.5 0-7.975-.15-14.5-.333-14.5-.184 0-.634.3-1 .667M108 18.5c0 9 .379 14.5 1 14.5s1-5.5 1-14.5S109.621 4 109 4s-1 5.5-1 14.5m6.667-13.833C113.561 5.772 113.882 33 115 33c.621 0 1-5.5 1-14.5 0-7.975-.15-14.5-.333-14.5-.184 0-.634.3-1 .667M31 22.301c0 .795 2.748 6.341 6.107 12.323 11.794 21.002 10.913 19.731 12.332 17.79 1.09-1.491.114-3.783-6.952-16.324C35.134 23.038 31 18.076 31 22.301m9.232.949c.804 1.238 4.504 7.762 8.223 14.5L55.216 50h18.306l7.739-13.826C85.517 28.569 89 22.044 89 21.674 89 21.303 77.698 21 63.885 21H38.77l1.462 2.25m45.927 12.909c-7.318 13.235-8.162 15.266-6.88 16.549 1.283 1.282 2.521-.43 10.091-13.948C94.117 30.284 98 22.821 98 22.175c0-.646-.787-1.159-1.75-1.139-1.206.025-4.341 4.722-10.091 15.123M57.873 24.684c-5.737 3.56-7.72 11.38-4.337 17.107C59.935 52.625 76.333 48.1 76.333 35.5c0-9.471-10.611-15.688-18.46-10.816m3.218 3.405c-7.265 2.907-6.528 12.517 1.168 15.234 2.219.784 6.675-.872 8.378-3.112 1.965-2.588 1.631-7.546-.676-10.022C68.84 28.985 67.526 28 67.043 28c-.484 0-1.479-.197-2.211-.437-.733-.241-2.416-.004-3.741.526m-7.968 26.814c-1.099.696-1.235 2.866-.672 10.735.389 5.424.942 10.864 1.23 12.089.415 1.764-.792 3.46-5.808 8.16L41.54 91.82l4.463 3.96 4.462 3.961 6.361-6.871C60.325 89.092 63.85 86 64.659 86c.81 0 4.881 1.575 9.047 3.5 4.167 1.925 7.973 3.5 8.46 3.5.844 0 1.743-1.854 3.262-6.731.612-1.964 0-2.562-5.117-5-4.439-2.115-5.765-3.241-5.617-4.769 1.449-14.901 1.503-20.761.2-21.586-1.805-1.143-19.97-1.152-21.771-.011m35.444 35.783c-.866 2.257-.866 2.257 3.933 4.314 2.475 1.061 4.496 2.507 4.491 3.214-.005.708-.833 6.1-1.841 11.985-1.813 10.589-1.502 14.553.949 12.102 1.17-1.17 4.875-20.398 4.892-25.387.008-2.207-.863-2.963-5.924-5.146-4.976-2.148-6.024-2.322-6.5-1.082M29.25 109.072C23.062 115.564 18 121.306 18 121.831c0 3.037 3.391 1.302 9.118-4.666 16.601-17.297 16.416-17.067 14.845-18.532-1.259-1.175-3.034.283-12.713 10.439" fill-rule="evenodd"/></svg>