<svg xmlns="http://www.w3.org/2000/svg" width="128" height="128"><path d="M44.544 2.929c-.876 1.418-4.705 40.209-4.12 41.734.373.971 2.847 1.337 9.045 1.337H58v11.922l-8.75.289-8.75.289-.308 3.709-.308 3.709-7.692.291-7.692.291v59h11l.31-3.75.311-3.75h55.758l.311 3.75.31 3.75h11v-59l-7.692-.291-7.692-.291-.308-3.709L87.5 58.5l-8.75-.289-8.75-.289V46h8.531c6.198 0 8.672-.366 9.045-1.337.585-1.525-3.244-40.316-4.12-41.734-.754-1.219-38.158-1.219-38.912 0M19.431 6.112c-.389.63 1.961 3.76 5.421 7.22 4.832 4.832 6.365 5.851 7.337 4.879.973-.973-.009-2.481-4.698-7.22-6.192-6.258-6.932-6.705-8.06-4.879m81.086 4.871C95.849 15.7 94.842 17.242 95.8 18.2c.958.958 2.5-.049 7.217-4.717 5.658-5.599 6.643-7.43 4.397-8.178-.529-.177-3.632 2.379-6.897 5.678M48 8c0 1.917.667 2 16 2s16-.083 16-2-.667-2-16-2-16 .083-16 2m-1 8c0 1.922.667 2 17 2s17-.078 17-2-.667-2-17-2-17 .078-17 2m-33 8c0 1.833.667 2 8 2s8-.167 8-2-.667-2-8-2-8 .167-8 2m31.532 6.25c-.371 4.538-.898 9.038-1.171 10C43.901 41.875 45.302 42 64 42s20.099-.125 19.639-1.75c-.273-.962-.8-5.462-1.171-10L81.792 22H46.208l-.676 8.25M98 24c0 1.833.667 2 8 2s8-.167 8-2-.667-2-8-2-8 .167-8 2M24.517 34.983C19.849 39.7 18.842 41.242 19.8 42.2c.958.958 2.5-.049 7.217-4.717 3.299-3.265 5.855-6.368 5.678-6.897-.748-2.246-2.579-1.261-8.178 4.397m70.914-4.871c-.389.63 1.961 3.76 5.421 7.22 4.832 4.832 6.365 5.851 7.337 4.879.973-.973-.009-2.481-4.698-7.22-6.192-6.258-6.932-6.705-8.06-4.879M62 52c0 5.333.222 6 2 6s2-.667 2-6-.222-6-2-6-2 .667-2 6M44 64c0 1.933.667 2 20 2s20-.067 20-2-.667-2-20-2-20 .067-20 2M28 92v22h72V70H28v22m4.431-16.681c-.285.742-.385 5.136-.224 9.765L32.5 93.5h63v-19l-31.276-.264c-25.493-.216-31.371-.015-31.793 1.083M36 84v6h56V78h-3.797c-3.112 0-4.502.721-7.703 4l-3.906 4H51.406L47.5 82c-3.201-3.279-4.591-4-7.703-4H36v6m14.5-4c1.613 1.783 3.08 2 13.5 2s11.887-.217 13.5-2c1.802-1.992 1.747-2-13.5-2s-15.302.008-13.5 2M32.411 99.371c-.295.77-.396 3.364-.224 5.765l.313 4.364h63v-11l-31.276-.264c-26.061-.22-31.365-.031-31.813 1.135M36 104c0 1.897.667 2 13 2s13-.103 13-2-.667-2-13-2-13 .103-13 2m30 0c0 1.897.667 2 13 2s13-.103 13-2-.667-2-13-2-13 .103-13 2m-38 16c0 1.333.667 2 2 2s2-.667 2-2-.667-2-2-2-2 .667-2 2m68 0c0 1.333.667 2 2 2s2-.667 2-2-.667-2-2-2-2 .667-2 2" fill-rule="evenodd"/></svg>