<svg xmlns="http://www.w3.org/2000/svg" width="128" height="128"><path d="M53.655 5.829c-1.064 1.176-1.659 3.586-1.665 6.75-.01 4.771-.129 4.971-3.912 6.559l-3.902 1.638-3.284-3.388c-5.046-5.205-8.138-4.718-15.173 2.391-6.83 6.902-7.178 9.143-2.209 14.231l3.51 3.595-1.76 4.187c-1.738 4.136-1.823 4.188-6.855 4.198C11.113 46.004 10 47.573 10 57.829c0 6.838.326 8.497 2 10.171 1.1 1.1 2.45 2 3 2 1.32 0 1.285-3.315-.049-4.649-.593-.593-.919-4.048-.75-7.95L14.5 50.5l6.075-.293 6.075-.293 2.636-6.707 2.637-6.707-4.172-4.252-4.172-4.252 4.923-4.998C31.21 20.249 33.913 18 34.509 18c.597 0 2.8 1.757 4.897 3.904l3.812 3.903 5.141-2.394c2.827-1.316 5.682-2.398 6.343-2.403.775-.007 1.308-2.231 1.5-6.26L56.5 8.5h15l.298 6.25c.192 4.029.725 6.253 1.5 6.26.661.005 3.516 1.087 6.343 2.403l5.141 2.394 3.812-3.903c2.097-2.147 4.3-3.904 4.897-3.904.596 0 3.274 2.223 5.951 4.941l4.866 4.941-3.963 4.694-3.963 4.695 2.484 6.322 2.484 6.321 6.075.293 6.075.293.299 6.901c.169 3.902-.157 7.357-.75 7.95C111.715 66.685 111.68 70 113 70c.55 0 1.9-.9 3-2 1.68-1.68 2-3.333 2-10.345 0-10.132-1.116-11.65-8.579-11.665-4.828-.01-4.954-.09-6.681-4.198l-1.76-4.187 3.51-3.595c4.969-5.088 4.621-7.329-2.209-14.231-7.035-7.109-10.127-7.596-15.173-2.391l-3.284 3.388-3.902-1.638c-3.808-1.599-3.902-1.76-3.912-6.733C75.996 5.058 74.462 4 63.826 4c-6.98 0-8.814.33-10.171 1.829M53 32.077c-8.787 3.969-15.435 12.519-16.655 21.42-.552 4.027-.408 4.503 1.36 4.503 1.585 0 2.226-1.113 3.235-5.624 1.028-4.59 2.205-6.594 6.409-10.904 5.344-5.477 9.771-7.461 16.651-7.461 6.88 0 11.307 1.984 16.651 7.461 4.204 4.31 5.381 6.314 6.409 10.904.971 4.339 1.679 5.624 3.099 5.624 2.456 0 2.406-3.414-.149-10.245-2.356-6.297-8.545-12.762-15.01-15.68-6.086-2.747-15.917-2.746-22 .002m4.42 19.808c-6.345 3.87-7.045 12.951-1.431 18.565 2.58 2.58 3.814 3.05 8.011 3.05 4.213 0 5.428-.467 8.055-3.093C82.32 60.142 69.821 44.324 57.42 51.885m1.035 4.57C57.096 57.813 56 60.081 56 61.531 56 64.737 60.971 70 64 70s8-5.263 8-8.469C72 57.902 67.855 54 64 54c-1.948 0-3.998.907-5.545 2.455m-35.035 3.43c-6.345 3.87-7.045 12.951-1.431 18.565 2.58 2.58 3.814 3.05 8.011 3.05 4.213 0 5.428-.467 8.055-3.093C48.32 68.142 35.821 52.324 23.42 59.885m68 0c-6.345 3.87-7.045 12.951-1.431 18.565 2.58 2.58 3.814 3.05 8.011 3.05 4.213 0 5.428-.467 8.055-3.093 10.265-10.265-2.234-26.083-14.635-18.522m-66.965 4.57C23.096 65.813 22 68.081 22 69.531 22 72.737 26.971 78 30 78s8-5.263 8-8.469C38 65.902 33.855 62 30 62c-1.948 0-3.998.907-5.545 2.455m68 0C91.096 65.813 90 68.081 90 69.531 90 72.737 94.971 78 98 78s8-5.263 8-8.469c0-3.629-4.145-7.531-8-7.531-1.948 0-3.998.907-5.545 2.455M48.5 77.412c-1.65.733-4.091 2.515-5.424 3.961-2.349 2.545-2.786 2.627-14 2.629-13.301.001-16.515 1.098-21.505 7.339-2.845 3.557-3.095 4.515-3.401 13-.298 8.26-.1 9.502 2.02 12.659 3.83 5.704 7.627 6.997 20.56 6.998C37.334 124 38 123.882 38 122c0-1.852-.667-2-9-2h-9v-11c0-10.333-.121-11-2-11-1.873 0-2 .667-2 10.5 0 11.54-.677 12.602-5.059 7.937-1.997-2.125-2.463-3.793-2.727-9.75-.376-8.49 1.42-12.901 6.684-16.417 2.972-1.986 4.663-2.27 13.5-2.272l10.102-.001-.302 14.55-.302 14.549 3.452 3.452c2.935 2.935 4.14 3.452 8.052 3.452H54v-16c0-15.333-.083-16-2-16-1.905 0-2 .667-2 14.108v14.109l-2.75-.663c-4.663-1.125-5.25-2.913-5.248-15.995.001-13.761 1.209-17.49 6.896-21.289C51.947 80.233 53.496 80 64 80c10.504 0 12.053.233 15.102 2.27 5.687 3.799 6.895 7.528 6.896 21.289.002 13.082-.585 14.87-5.248 15.995l-2.75.663v-14.109C78 92.667 77.905 92 76 92c-1.917 0-2 .667-2 16v16h4.6c3.912 0 5.117-.517 8.052-3.452l3.452-3.452-.302-14.549-.302-14.55 10.102.001c8.837.002 10.528.286 13.5 2.272 5.264 3.516 7.06 7.927 6.684 16.417-.264 5.957-.73 7.625-2.727 9.75-4.382 4.665-5.059 3.603-5.059-7.937 0-9.833-.127-10.5-2-10.5-1.879 0-2 .667-2 11v11h-9c-8.333 0-9 .148-9 2 0 1.882.666 2 11.25 1.998 12.933-.001 16.73-1.294 20.56-6.998 2.12-3.157 2.318-4.399 2.02-12.659-.306-8.485-.556-9.443-3.401-13-4.99-6.241-8.204-7.338-21.505-7.339-11.216-.002-11.651-.084-14-2.631-4.108-4.454-7.756-5.375-21.142-5.332-7.989.026-13.331.505-15.282 1.373M56 122c0 1.833.667 2 8 2s8-.167 8-2-.667-2-8-2-8 .167-8 2" fill-rule="evenodd"/></svg>