<svg xmlns="http://www.w3.org/2000/svg" width="128" height="128"><path d="M53.63 2.25c-.331 1.238-.609 4.162-.616 6.5-.008 2.473-.484 4.25-1.139 4.25-.619 0-3.744 1.175-6.945 2.612l-5.82 2.612-4.408-3.612C32.278 12.625 29.877 11 29.368 11 27.906 11 16 23.401 16 24.924c0 .753 1.546 3.257 3.436 5.563l3.436 4.194-2.405 4.909c-1.322 2.701-2.419 5.653-2.436 6.562-.024 1.277-1.447 1.814-6.281 2.37-3.437.395-6.581 1.227-6.985 1.848-1.043 1.605-.913 16.847.158 18.54.527.833 3.216 1.603 6.566 1.881 4.048.335 5.83.934 6.217 2.09.298.89 1.565 3.934 2.814 6.763l2.272 5.144-4.012 4.855-4.012 4.855 5.706 5.185c3.138 2.852 6.227 4.969 6.866 4.704.638-.265 4.252-5.005 8.031-10.534l6.871-10.052-2.154-2.65c-1.185-1.458-3.377-5.126-4.871-8.151-2.271-4.597-2.717-6.813-2.717-13.5 0-6.724.443-8.903 2.78-13.661 3.204-6.524 8.972-12.142 15.598-15.192 7.158-3.295 19.892-3.027 26.73.562 6.478 3.4 13.741 11.433 15.8 17.475 1.811 5.314 2.073 15.042.554 20.514-.565 2.034-2.588 6.017-4.495 8.851C87.56 80.882 86 83.641 86 84.18c0 1.916 13.527 19.753 15 19.78 2.077.038 11-7.773 11-9.629 0-.832-1.524-3.294-3.387-5.47l-3.386-3.956 2.82-6.703c2.453-5.831 3.186-6.736 5.636-6.966 1.549-.145 4.295-.506 6.101-.802l3.285-.538-.285-10.198L122.5 49.5l-6.25-.89c-3.437-.489-6.254-1.389-6.26-2-.005-.61-1.128-3.512-2.495-6.448l-2.485-5.338 3.495-4.265c1.922-2.346 3.495-4.907 3.495-5.691C112 23.245 99.995 11 98.403 11c-.574 0-2.944 1.627-5.268 3.616l-4.225 3.617-5.83-2.617C79.873 14.177 76.744 13 76.125 13 75.482 13 75 11.313 75 9.065c0-2.164-.439-5.089-.975-6.5C73.073.063 72.82 0 63.641 0c-8.911 0-9.44.119-10.011 2.25m3.868 6.5a3651.16 3651.16 0 0 1-.812 6.141c-.102.765-1.986 1.929-4.186 2.585-2.2.657-5.895 2.169-8.21 3.359C41.974 22.026 39.675 23 39.181 23c-.495 0-2.875-1.566-5.29-3.48L29.5 16.04l-4.448 4.441-4.449 4.442 3.012 3.788c4.624 5.815 4.653 5.971 2.017 10.525-1.358 2.345-2.958 6.121-3.555 8.39C20.929 51.981 18.995 53 11.875 53 9.009 53 9 53.02 9 59.375c0 6.34.017 6.378 3.125 7 1.719.344 4.203.625 5.521.625 1.675 0 2.737.829 3.525 2.75.62 1.513 2.415 5.623 3.989 9.134l2.861 6.385-3.697 4.511-3.697 4.511 2.882 2.298 2.881 2.297 5.277-7.581 5.278-7.582-2.395-2.846c-6.541-7.773-8.534-23.491-4.388-34.589 2.987-7.992 12.134-17.139 20.126-20.126 11.623-4.343 26.201-2.23 35.957 5.211C93.718 37.073 100 49.992 100 59.661c0 5.985-2.105 13.131-5.556 18.861-1.93 3.206-3.102 6.207-2.685 6.876.408.653 2.727 3.959 5.154 7.346l4.413 6.16 2.837-2.02c1.56-1.111 2.837-2.251 2.837-2.534 0-.282-1.654-2.532-3.676-4.999l-3.676-4.486 1.777-3.008c.978-1.654 2.597-5.336 3.599-8.182 2.07-5.878 2.664-6.341 9.226-7.186l4.75-.612v-6.438c0-6.426-.006-6.439-2.875-6.439-6.747 0-8.995-1.071-10.214-4.867-.641-1.998-2.291-5.963-3.665-8.81l-2.499-5.177 3.799-4.637 3.8-4.637-4.501-4.501-4.501-4.5-4.267 3.564C91.731 21.396 89.385 23 88.866 23c-.52 0-2.84-.974-5.156-2.165-2.315-1.19-6.01-2.701-8.21-3.357-3.956-1.18-4.009-1.26-4.837-7.335L69.825 4H58.123l-.625 4.75m-3.494 27.469c-4.735 3.19-7.11 7.7-7.156 13.587-.044 5.73 1.855 9.925 6.116 13.51L56 65.871v16.096c0 13.509-.245 16.19-1.527 16.682C51.741 99.697 48 107.377 48 111.937c0 7.926 5.351 14.934 11.739 15.373 2.703.186 2.761.074 2.761-5.31 0-5.173.146-5.5 2.455-5.5 2.329 0 2.44.267 2.175 5.253-.334 6.291 1.179 7.418 6.101 4.544 5.168-3.018 7.769-7.703 7.769-13.995 0-6.462-1.787-10.275-6.499-13.869L71 95.763V65.374l3.123-2.937c5.974-5.618 7.477-13.381 3.935-20.324-2.215-4.342-5.982-7.175-9.883-7.435-2.543-.169-2.7.093-3.175 5.322-.424 4.667-.803 5.5-2.5 5.5-1.756 0-2-.667-2-5.475 0-6.487-1.347-7.276-6.496-3.806M53.254 43c-4.127 6.431-1.935 15.045 4.702 18.477L61 63.051v36.573l-3.092 2.286c-6.073 4.49-7.289 13.144-2.563 18.241l2.155 2.324.301-3.987c.358-4.743 2.3-6.499 7.14-6.456 4.857.043 6.855 1.845 7.237 6.526l.322 3.942 1.84-2.712c4.449-6.558 2.699-15.062-3.902-18.957L67 98.802V62.376l3.092-2.286c6.073-4.49 7.289-13.144 2.563-18.241L70.5 39.526l-.301 4.1C69.87 48.116 67.489 50 62.144 50c-4.067 0-6.003-1.984-6.343-6.5l-.301-4-2.246 3.5" fill-rule="evenodd"/></svg>