<svg xmlns="http://www.w3.org/2000/svg" width="128" height="128"><path d="M52.392 4.146c-.491 2.28-1.567 4.475-2.392 4.877-.825.401-4.812 2.121-8.86 3.82l-7.36 3.09-3.872-2.217-3.871-2.216-7.268 7.269-7.269 7.268 2.216 3.871 2.217 3.872-3.09 7.36c-1.699 4.048-3.419 8.035-3.82 8.86-.402.825-2.597 1.901-4.877 2.392L0 53.284v21.432l4.146.892c2.28.491 4.475 1.567 4.877 2.392.401.825 2.121 4.812 3.82 8.86l3.09 7.36-2.217 3.872-2.216 3.871 7.269 7.268 7.268 7.269 3.871-2.216 3.872-2.217 7.36 3.09c4.048 1.699 8.035 3.419 8.86 3.82.825.402 1.901 2.597 2.392 4.877l.892 4.146h21.432l.892-4.146c.491-2.28 1.567-4.475 2.392-4.877.825-.401 4.812-2.121 8.86-3.82l7.36-3.09 3.872 2.217 3.871 2.216 7.268-7.269 7.269-7.268-2.216-3.871-2.217-3.872 3.09-7.36c1.699-4.048 3.414-8.024 3.809-8.835.396-.811 2.703-1.957 5.127-2.546l4.407-1.071.275-10.954.274-10.954-4.054-.152c-4.308-.161-6.995-1.695-6.995-3.992 0-.77-1.34-4.356-2.978-7.968l-2.978-6.568 2.228-3.891 2.228-3.892-7.269-7.268-7.268-7.269-3.871 2.216-3.872 2.217-7.36-3.09c-4.048-1.699-8.035-3.419-8.86-3.82-.825-.402-1.901-2.597-2.392-4.877L74.716 0H53.284l-.892 4.146m6.143 7.646c-.63 3.728-.757 3.822-7.475 5.553-3.759.968-8.988 3.126-11.62 4.795l-4.785 3.035-3.639-2.046-3.639-2.045-3.123 3.123-3.123 3.124 2.067 3.591 2.066 3.591-3.079 4.856c-1.694 2.671-3.872 7.932-4.84 11.691-1.731 6.718-1.825 6.845-5.553 7.475C8.015 59.173 8 59.195 8 64s.015 4.827 3.792 5.465c3.728.63 3.822.757 5.553 7.475.968 3.759 3.146 9.02 4.84 11.691l3.079 4.856-2.066 3.591-2.067 3.591 3.123 3.124 3.123 3.123 3.639-2.045 3.639-2.046 4.785 3.035c2.632 1.669 7.861 3.827 11.62 4.795 6.718 1.731 6.845 1.825 7.475 5.553.638 3.777.66 3.792 5.465 3.792s4.827-.015 5.465-3.792c.63-3.728.757-3.822 7.475-5.553 3.759-.968 9.02-3.146 11.691-4.84l4.856-3.079 3.591 2.066 3.591 2.067 3.1-3.1 3.1-3.1-2.067-3.591-2.066-3.591 3.079-4.856c1.694-2.671 3.872-7.932 4.84-11.691 1.731-6.718 1.825-6.845 5.553-7.475 3.777-.638 3.792-.66 3.792-5.465s-.015-4.827-3.792-5.465c-3.728-.63-3.822-.757-5.553-7.475-.968-3.759-3.146-9.02-4.84-11.691l-3.079-4.856 2.066-3.591 2.067-3.591-3.1-3.1-3.1-3.1-3.591 2.067-3.591 2.066-4.856-3.079c-2.671-1.694-7.932-3.872-11.691-4.84-6.718-1.731-6.845-1.825-7.475-5.553C68.827 8.015 68.805 8 64 8s-4.827.015-5.465 3.792M52.5 24.346c-11.789 3.904-20.708 11.65-25.807 22.413C23.733 53.008 23.5 54.266 23.5 64s.233 10.992 3.193 17.241c4.133 8.724 11.342 15.933 20.066 20.066 6.249 2.96 7.507 3.193 17.241 3.193s10.992-.233 17.241-3.193c3.97-1.881 8.823-5.275 11.807-8.259s6.378-7.837 8.259-11.807c2.96-6.249 3.193-7.507 3.193-17.241s-.233-10.992-3.193-17.241c-4.152-8.763-11.348-15.947-20.066-20.029-5.742-2.689-8.075-3.197-15.741-3.433-5.53-.169-10.542.235-13 1.049m4.723 6.716c-20.281 3.997-32.529 27.484-24.022 46.066C37.785 87.14 46.872 94.789 56.25 96.527l3.75.696V75H49.5c-5.775 0-10.5-.21-10.5-.467s6.13-9.814 13.623-21.239C60.115 41.87 66.464 31.955 66.73 31.262c.556-1.448-2.814-1.519-9.507-.2M68 42v11h10.5c5.775 0 10.5.209 10.5.464s-6.279 10.042-13.952 21.748c-7.674 11.706-13.583 21.653-13.132 22.104 1.179 1.179 12.791-1.126 17.325-3.439 19.685-10.042 24.203-36.205 9.132-52.886C84.558 36.768 74.147 31 70.34 31c-2.312 0-2.34.134-2.34 11M.378 64c0 6.325.163 8.912.361 5.75.198-3.163.198-8.338 0-11.5C.541 55.087.378 57.675.378 64m55.865-2.378C54.459 64.401 53 66.973 53 67.338c0 .364 3.342.662 7.427.662 6.222 0 7.48.278 7.757 1.716.23 1.195 1.314.182 3.573-3.338C73.541 63.599 75 61.027 75 60.662c0-.364-3.342-.662-7.427-.662-6.222 0-7.48-.278-7.757-1.716-.23-1.195-1.314-.182-3.573 3.338" fill-rule="evenodd"/></svg>