<svg xmlns="http://www.w3.org/2000/svg" width="128" height="128"><path d="M.419 1.351c-.29.755-.39 4.023-.223 7.261L.5 14.5l24.75.267 24.75.268v2.482c0 1.366.9 3.383 2 4.483 1.733 1.733 3.333 2 12 2s10.267-.267 12-2c1.1-1.1 2-3.125 2-4.5V15h24.3c17.567 0 24.633-.333 25.5-1.2.676-.676 1.2-3.913 1.2-7.408V.184l-10.25.158C109.219.489 108.5.64 108.5 2.5c0 1.789.765 2.031 7.25 2.294 6.952.282 7.25.394 7.25 2.75V10l-18.75.002-18.75.001V.5L43.223.239C8.129.023.856.212.419 1.351m95.945.142c-.346.903-.15 2.121.436 2.707 1.524 1.524 4.41.131 4.012-1.935-.443-2.302-3.647-2.858-4.448-.772M.328 7.5c.005 3.85.185 5.302.402 3.228.216-2.075.213-5.225-.008-7C.501 1.952.324 3.65.328 7.5M5 7.5V10h37.723l-.478-2.5-.478-2.5H5v2.5m42-1.934c0 .311.466 1.436 1.035 2.5C48.988 9.845 50.263 10 64 10s15.012-.155 15.965-1.934C80.534 7.002 81 5.877 81 5.566 81 5.255 73.35 5 64 5s-17 .255-17 .566m8.47 10.482c-1.371 2.219 1.345 3.037 9.125 2.747 6.229-.232 7.905-.613 7.905-1.795 0-1.187-1.703-1.56-8.167-1.789-5.27-.187-8.414.11-8.863.837m-41.336 7.509c-5.961 7.578-6.796 23.371-1.757 33.24 2.827 5.538 4.996 7.23 6.866 5.36.811-.811.324-2.656-1.817-6.883-2.51-4.952-2.926-6.913-2.926-13.774 0-6.934.381-8.688 2.862-13.164 1.574-2.84 2.56-5.653 2.191-6.25-1.122-1.815-3.299-1.224-5.419 1.471m94.313-1.471c-.369.597.617 3.41 2.191 6.25 2.481 4.476 2.862 6.23 2.862 13.164 0 6.861-.416 8.822-2.926 13.774-2.141 4.227-2.628 6.072-1.817 6.883 1.87 1.87 4.039.178 6.866-5.36 5.039-9.869 4.204-25.662-1.757-33.24-2.12-2.695-4.297-3.286-5.419-1.471M21.781 28.25c-4.377 6.793-5.025 16.86-1.531 23.788 1.506 2.987 2.994 4.568 4.5 4.782 2.82.4 2.883-1.208.272-6.961-2.564-5.651-2.538-11.161.077-16.564 2.174-4.491 2-7.295-.453-7.295-.779 0-2.068 1.012-2.865 2.25m79.617-.844c-.328.854.348 3.504 1.503 5.889 2.615 5.403 2.641 10.913.077 16.564-2.611 5.753-2.548 7.361.272 6.961 1.501-.214 3.02-1.819 4.563-4.82 2.933-5.706 2.739-15.395-.43-21.5-2.199-4.236-4.993-5.68-5.985-3.094m-41.09 3.844c-1.696 1.788-3.849 4.767-4.785 6.621C52.037 44.784 56.367 52 64 52s11.963-7.216 8.477-14.129C70.798 34.543 65.179 28 64 28c-.334 0-1.996 1.462-3.692 3.25m-31.782 3.7c-1.966 3.802-1.951 10.327.032 14.162 2.067 3.998 5.077 3.581 4.62-.639-.573-5.297-.445-10.909.314-13.723.636-2.36.444-2.75-1.35-2.75-1.304 0-2.665 1.11-3.616 2.95m65.982-.2c.759 2.814.887 8.426.314 13.723-.457 4.22 2.553 4.637 4.62.639 3.211-6.209.927-17.112-3.584-17.112-1.794 0-1.986.39-1.35 2.75m-33.499 3.735c-2.414 3.906-2.004 7.064 1.042 8.031 2.787.885 5.744-.296 6.47-2.582C69.152 41.945 65.637 35 64 35c-.46 0-1.806 1.568-2.991 3.485m-6.746 19.652c-.713.713-.921 2.959-.558 6.023.382 3.219-.03 7.137-1.205 11.478l-1.784 6.591-1.31-3.114c-1.362-3.24-3.481-4.014-5.106-1.865-2.948 3.897-7.701 18.78-8.064 25.25-.363 6.463-.16 7.345 2.639 11.5 3.28 4.868 10.59 10.335 16.761 12.535 12.723 4.535 27.559-2.059 33.93-15.08 2.441-4.989 2.636-6.247 2.212-14.214-.345-6.452-1.121-10.181-2.965-14.241-3.453-7.602-7.54-12.271-10.212-11.666-1.588.359-2.843-.54-5.136-3.679C70.206 63.193 60.922 57 57.494 57c-1.152 0-2.606.512-3.231 1.137m5.013 6.141c1.697 4.421-5.593 26.751-9.398 28.787-2.546 1.363-3.859.41-3.962-2.874-.146-4.661-4.059 5.265-4.623 11.724-.41 4.708-.118 6.123 1.86 9.008 2.545 3.712 4.847 5.069 4.847 2.858 0-.762 2.267-4.338 5.038-7.947 4.185-5.449 5.251-7.715 6.296-13.379.692-3.751 1.836-7.012 2.543-7.247 3.24-1.08 14.007 13.43 16.781 22.613.943 3.123 2.029 6.055 2.413 6.514.385.459 1.935-1.692 3.446-4.78 2.411-4.928 2.685-6.439 2.239-12.335C86.275 90.86 83.57 82 82.111 82c-.37 0-1.182 1.35-1.805 3-2.152 5.701-5.738 3.363-6.555-4.273-.604-5.645-4.293-11.445-9.635-15.147-4.108-2.847-5.585-3.244-4.84-1.302M64 96.54c0 2.392-3.489 8.659-7.48 13.436-2.738 3.278-3.55 5.082-3.322 7.387.264 2.667.882 3.229 4.917 4.477 5.308 1.642 12.996.906 15.373-1.471 2.236-2.236 1.822-8.161-.993-14.208C68.295 97.138 64 92.274 64 96.54" fill-rule="evenodd"/></svg>