<svg xmlns="http://www.w3.org/2000/svg" width="128" height="128"><path d="M59.5 18.938C46.995 21.971 40.652 34.452 46 45.5c6.811 14.071 27.348 14.166 34.661.162 1.781-3.412 1.949-12.62.288-15.844-4.201-8.158-13.411-12.83-21.449-10.88m-3.6 6.137c-4.755 2.835-7.067 6.963-7.067 12.62 0 10.574 11.526 17.433 21.096 12.553 9.576-4.882 10.602-18.186 1.895-24.567-4.034-2.956-11.505-3.24-15.924-.606m43.014 6.881C92.014 34.047 88 39.489 88 46.753c0 10.091 11.983 17.41 20.931 12.783 11.252-5.819 11.313-20.635.107-26.286-4.727-2.384-5.994-2.546-10.124-1.294m-78.23 1.481c-5.107 1.837-7.296 3.981-9.227 9.036-2.695 7.058.633 14.503 8.227 18.405C28.038 65.17 40 57.442 40 47.753c0-10.588-9.698-17.775-19.316-14.316m75.427 5.123c-5.924 4.985-4.646 14.065 2.393 17.006 12.235 5.112 20.607-12.417 8.812-18.449-3.634-1.859-7.94-1.304-11.205 1.443M20.5 38.161c-8.147 4.48-6.978 15.876 1.93 18.816 7.151 2.36 14.517-4.115 13.124-11.538-1.215-6.477-9.355-10.412-15.054-7.278m31.083 22.852c-2.704 1.056-6.605 3.277-8.669 4.936-3.732 2.999-3.775 3.007-7.584 1.392-5.2-2.205-13.792-2.207-19.552-.003C10.044 69.531 2.886 77.1 1.189 82.764.535 84.947 0 89.692 0 93.309 0 102.478.891 103 16.562 103c11.98 0 12.13.028 13.265 2.52.632 1.386 2.308 2.961 3.726 3.5 3.983 1.515 58.348 1.25 61.447-.299 1.413-.707 2.916-2.657 3.457-4.485l.957-3.236h12.721c9.79 0 13.057-.335 14.175-1.452.798-.799 1.73-1.174 2.071-.834.34.341.619-2.521.619-6.36 0-11.413-5.671-21.018-15.22-25.776-6.372-3.176-13.616-3.392-20.898-.625l-5.139 1.953-3.313-2.527c-8.374-6.387-22.769-8.301-32.847-4.366m2.749 3.777c-9.098 3.252-15.855 9.773-18.812 18.154-.922 2.613-1.52 7.799-1.52 13.182V105h60v-8.822c0-10.821-1.8-16.533-7.111-22.566-7.934-9.015-21.633-12.727-32.557-8.822M95.5 69.472c-2.2.824-4.143 1.505-4.318 1.513-.175.008.672 1.406 1.883 3.107C95.885 78.052 99 88.039 99 93.12v3.942l12.25-.281 12.25-.281-.072-6.609c-.058-5.295-.61-7.526-2.777-11.223-4.918-8.392-16.243-12.533-25.151-9.196m-79.071 2.421C8.752 75.38 4 83.81 4 93.943V98h24.71l.591-7.048c.412-4.915 1.482-8.831 3.535-12.94l2.945-5.893-3.04-1.059c-4.593-1.602-11.758-1.236-16.312.833M.343 92.5c.003 4.4.179 6.076.39 3.724.212-2.352.209-5.952-.006-8S.339 88.1.343 92.5" fill-rule="evenodd"/></svg>