<svg xmlns="http://www.w3.org/2000/svg" width="128" height="128"><path d="M106.489 5.75C100.884 12.849 96 22.366 96 26.192c0 4.779 2.642 9.577 6.895 12.52 3.282 2.271 4.036 3.39 4.067 6.038.026 2.181-.436 3.25-1.403 3.25-2.013 0-3.006 1.953-1.672 3.287.663.663 1.113 5.004 1.113 10.739 0 8.768.206 9.819 2.314 11.8 3.003 2.82 6.782 2.765 9.512-.14 1.917-2.041 2.174-3.438 2.174-11.8 0-5.632.452-9.938 1.113-10.599 1.334-1.334.341-3.287-1.672-3.287-2.356 0-1.909-6.717.497-7.48 2.421-.769 7.982-7.004 8.298-9.305.129-.943.473 20.11.764 46.785l.529 48.5.026-61.5c.015-33.825-.121-57.074-.302-51.665l-.327 9.835-2.938-5.835C121.794 10.988 113.561 0 112 0c-.534 0-3.014 2.588-5.511 5.75M1 65.988v62.027l61.25-.257 61.25-.258v-43l-19.729-.271-19.729-.271-.271-19.729L83.5 44.5l-19.729-.271-19.729-.271-.271-19.729L43.5 4.5l-21.25-.27L1 3.96v62.028M46.461 7.064C44.93 9.54 48.272 10.04 64.575 9.775 78.831 9.543 81.5 9.263 81.5 8c0-1.265-2.697-1.543-17.177-1.773-11.784-.188-17.392.075-17.862.837m61.089 3.999c-8.501 11.833-9.389 17.843-3.472 23.512 2.521 2.415 3.903 2.925 7.922 2.925s5.401-.51 7.922-2.925c3.789-3.631 4.733-8.072 2.732-12.861C120.76 17.182 113.219 6 112.057 6c-.478 0-2.506 2.278-4.507 5.063M4 26v18h36V8H4v18m30.688-15.354c-.379.378-.688 6.675-.688 13.992v13.306l-13.75.278C8.818 38.453 6.5 38.753 6.5 40c0 1.269 2.389 1.5 15.5 1.5h15.5V26.083c0-14.484-.58-17.669-2.812-15.437m11.773 4.418c-1.531 2.476 1.811 2.976 18.114 2.711C78.831 17.543 81.5 17.263 81.5 16c0-1.265-2.697-1.543-17.177-1.773-11.784-.188-17.392.075-17.862.837m0 8c-1.531 2.476 1.811 2.976 18.114 2.711C78.831 25.543 81.5 25.263 81.5 24c0-1.265-2.697-1.543-17.177-1.773-11.784-.188-17.392.075-17.862.837m0 8c-1.531 2.476 1.811 2.976 18.114 2.711C78.831 33.543 81.5 33.263 81.5 32c0-1.265-2.697-1.543-17.177-1.773-11.784-.188-17.392.075-17.862.837m0 8c-1.531 2.476 1.811 2.976 18.114 2.711C78.831 41.543 81.5 41.263 81.5 40c0-1.265-2.697-1.543-17.177-1.773-11.784-.188-17.392.075-17.862.837M111 45c0 1.65.45 3 1 3s1-1.35 1-3-.45-3-1-3-1 1.35-1 3M4 66v18h36V48H4v18m40 0v18h36V48H44v18m-9.312-15.354c-.379.378-.688 6.675-.688 13.992v13.306l-13.75.278C8.818 78.453 6.5 78.753 6.5 80c0 1.269 2.389 1.5 15.5 1.5h15.5V66.083c0-14.484-.58-17.669-2.812-15.437m40 0c-.379.378-.688 6.675-.688 13.992v13.306l-13.75.278c-11.432.231-13.75.531-13.75 1.778 0 1.269 2.389 1.5 15.5 1.5h15.5V66.083c0-14.484-.58-17.669-2.812-15.437M109 61.531c0 7.586.309 9.65 1.513 10.112 3.32 1.274 4.487-1.526 4.487-10.765V52h-6v9.531M4 106v18h36V88H4v18m40 0v18h36V88H44v18m40 0v18h36V88H84v18M34.688 90.646c-.379.378-.688 6.675-.688 13.992v13.306l-13.75.278c-11.432.231-13.75.531-13.75 1.778 0 1.269 2.389 1.5 15.5 1.5h15.5v-15.417c0-14.484-.58-17.669-2.812-15.437m40 0c-.379.378-.688 6.675-.688 13.992v13.306l-13.75.278c-11.432.231-13.75.531-13.75 1.778 0 1.269 2.389 1.5 15.5 1.5h15.5v-15.417c0-14.484-.58-17.669-2.812-15.437m40 0c-.379.378-.688 6.675-.688 13.992v13.306l-13.75.278c-11.432.231-13.75.531-13.75 1.778 0 1.269 2.389 1.5 15.5 1.5h15.5v-15.417c0-14.484-.58-17.669-2.812-15.437" fill-rule="evenodd"/></svg>