<svg xmlns="http://www.w3.org/2000/svg" width="128" height="128"><path d="M.465 1.236C.199 1.931.098 30.625.241 65L.5 127.5l62.888.258c45.62.186 63.263-.053 64.25-.873 1.123-.931 1.362-12.173 1.362-63.979V.057L64.974.015C14.27-.019.847.235.465 1.236M.471 64c0 34.925.125 49.212.278 31.75.154-17.463.154-46.038 0-63.5C.596 14.787.471 29.075.471 64M5 44v39h79.947l.276-14.75c.263-13.991.38-14.75 2.277-14.75 1.957 0 2.006.754 2.263 34.75l.263 34.75H123V5H90.053l-.276 14.75c-.263 13.991-.38 14.75-2.277 14.75-1.897 0-2.014-.759-2.277-14.75L84.947 5l-15.724.003-15.723.003-.054 4.135c-.043 3.342-.618 4.586-3 6.492L47.5 17.99l7.349.005c4.652.003 8.585.591 10.717 1.603C69.116 21.283 80 33.242 80 35.459c0 .714-3.15 4.27-7 7.902l-7 6.604-.015 10.767c-.009 5.923-.379 11.34-.823 12.04-.618.974-5.361 1.209-20.235 1L25.5 73.5l-.28-12.79c-.177-8.076-.644-12.566-1.265-12.182C22.783 49.252 10 37.245 10 35.421c0-2.187 10.916-14.153 14.434-15.823 2.108-1 6.037-1.598 10.499-1.598 5.882 0 7.241-.306 7.764-1.75.349-.962 1.942-2.875 3.539-4.25 3.229-2.78 3.025-5.465-.502-6.584C43.554 4.724 41 7.067 41 9.761c0 .857-.85 1.257-2.25 1.059-1.723-.245-2.241-.965-2.211-3.07l.04-2.75H5v39m21.5-19.401c-1.65.854-4.722 3.615-6.826 6.134l-3.827 4.581 3.473 3.472c3.321 3.322 3.572 3.403 5.758 1.872C29.292 37.706 30 39.787 30 55.122V69h30V55.122c0-11.191.294-14.121 1.519-15.138 1.244-1.032 1.884-.929 3.541.57 1.977 1.79 2.101 1.752 5.557-1.705l3.536-3.535-3.827-4.587C64.457 23.691 56 20.369 56 25.1c0 1.155-1.53 3.63-3.4 5.5-4.823 4.823-10.377 4.823-15.2 0-1.87-1.87-3.4-4.345-3.4-5.5 0-2.573-3.099-2.78-7.5-.501m12.5-.254c0 4.088 7.379 6.104 10.345 2.826C52.309 23.896 51.376 23 45 23c-4.359 0-6 .368-6 1.345m47.25 17.386c-.687.239-1.25 1.25-1.25 2.245 0 1.945 1.725 3 3.75 2.293.688-.239 1.25-1.25 1.25-2.245 0-1.945-1.725-3-3.75-2.293m11.168 19.622C96.306 64.25 97.407 67.5 99.5 67.5c1.618 0 2-.667 2-3.486 0-2.528-.482-3.579-1.753-3.824-.964-.186-2.012.338-2.329 1.163M5 95.5v7.5h80V88H5v7.5m36.36-.997c-.886 2.309.911 3.709 4.268 3.325 2.096-.239 2.872-.868 2.872-2.328 0-2.65-6.174-3.512-7.14-.997M5 115.5v7.5h80v-15H5v7.5m36.36-.997c-.886 2.309.911 3.709 4.268 3.325 2.096-.239 2.872-.868 2.872-2.328 0-2.65-6.174-3.512-7.14-.997" fill-rule="evenodd"/></svg>