<svg xmlns="http://www.w3.org/2000/svg" width="128" height="128"><path d="M29.077 15.077 26 18.154V65h-9.444c-8.462 0-9.728.244-12.167 2.342C-.743 71.756 2.399 81 9.031 81c2.637 0 2.692.135 3.221 7.846.599 8.735 2.289 12.899 7.404 18.243 3.026 3.161 3.252 3.743 1.89 4.873-1.826 1.516-2.052 4.038-.36 4.038.652 0 2.119-.877 3.26-1.949 1.754-1.648 2.689-1.806 6.064-1.024 5.415 1.256 61.877 1.181 67.385-.089 3.867-.892 4.657-.768 6.565 1.024 1.193 1.121 2.477 2.038 2.854 2.038 1.265 0 .702-2.742-.822-4.007-1.308-1.085-.985-1.82 2.433-5.527 4.536-4.922 7.075-12.151 7.075-20.148 0-5.169.079-5.318 2.826-5.318 6.75 0 9.9-9.258 4.678-13.75L120.888 65H29V19.909l2.455-2.454c4.436-4.437 11.648-2.391 13.09 3.714.534 2.26.273 2.72-1.707 3-1.688.239-2.424 1.078-2.648 3.019-.218 1.882-.968 2.782-2.5 3-1.883.268-2.19.944-2.19 4.812v4.5l11.25.283 11.25.283v-4.627c0-3.74-.372-4.724-1.943-5.134-1.188-.311-2.063-1.538-2.25-3.157-.238-2.051-.927-2.719-3.057-2.964-2.193-.253-2.75-.83-2.75-2.85 0-1.548-1.323-3.857-3.4-5.934-2.864-2.864-4.113-3.4-7.923-3.4-3.718 0-5.071.548-7.6 3.077M43 29c0 .55 1.8 1 4 1s4-.45 4-1-1.8-1-4-1-4 .45-4 1m-5 6.5c0 1.216 1.611 1.5 8.5 1.5s8.5-.284 8.5-1.5-1.611-1.5-8.5-1.5-8.5.284-8.5 1.5m2 9c0 1.689.458 2.514 1.25 2.25.688-.229 1.25-1.242 1.25-2.25s-.562-2.021-1.25-2.25c-.792-.264-1.25.561-1.25 2.25m5.38-1.048c-.306.799-.266 1.924.09 2.5C46.635 47.837 48 47.053 48 44.5c0-2.711-1.718-3.398-2.62-1.048m4.956.115c-.834 2.172 1.282 4.215 2.797 2.7C54.413 44.987 53.62 42 52 42c-.585 0-1.333.705-1.664 1.567M40 51.5c0 1.689.458 2.514 1.25 2.25.688-.229 1.25-1.242 1.25-2.25s-.562-2.021-1.25-2.25c-.792-.264-1.25.561-1.25 2.25m5.38-1.048c-.306.799-.266 1.924.09 2.5C46.635 54.837 48 54.053 48 51.5c0-2.711-1.718-3.398-2.62-1.048m4.956.115c-.834 2.172 1.282 4.215 2.797 2.7C54.413 51.987 53.62 49 52 49c-.585 0-1.333.705-1.664 1.567M7.25 69.031c-2.939 1.182-3.148 6.418-.316 7.934 2.666 1.427 111.466 1.427 114.132 0 3.015-1.614 2.609-6.758-.631-7.99-3.276-1.245-110.078-1.193-113.185.056m8.897 20.294c.398 9.395 2.375 13.437 8.688 17.765l3.515 2.41 33.075.302c18.191.166 34.564.028 36.385-.307 4.035-.741 11.008-6.829 12.843-11.213.741-1.77 1.347-6.382 1.347-10.25V81H15.795l.352 8.325" fill-rule="evenodd"/></svg>