<svg xmlns="http://www.w3.org/2000/svg" width="128" height="128"><path d="M18.23 1.551c-1.218.853-2.694 2.447-3.28 3.542C13.863 7.125 4.001 87.619 3.78 96.267c-.102 3.973.354 5.263 2.736 7.75L9.374 107H56v9.3c0 5.9.439 9.739 1.2 10.5.66.66 3.344 1.2 5.965 1.2 3.741 0 4.995-.43 5.835-2 .94-1.757 2.094-2 9.5-2 7.406 0 8.56.243 9.5 2 .848 1.585 2.094 2 6 2 6.302 0 7-1.24 7-12.434V107h8.484c7.891 0 8.705-.197 11.637-2.816 2.531-2.262 3.149-3.592 3.14-6.75-.018-6.061-2.431-26.639-3.442-29.357-.772-2.076-1.094-2.219-2.244-1-1.124 1.192-1.058 3.779.407 15.923 2.347 19.45 2.368 19.405-9.243 19.789-8.222.272-8.739.168-8.739-1.75 0-1.823.629-2.039 5.929-2.039 7.582 0 9.392-1.553 8.584-7.365-.316-2.274-2.597-21.46-5.069-42.635-3.642-31.204-4.809-38.737-6.16-39.75-2.461-1.846-35.612-1.764-37.153.092-.612.738-.818 1.638-.456 2 .362.362 8.419.658 17.904.658h17.245l.592 3.75c.325 2.063 2.384 19.275 4.575 38.25 2.191 18.975 4.234 35.962 4.541 37.75l.559 3.25H101l-.006-3.25C100.974 79.981 93.493 72 82.482 72c-5.434 0-9.3 1.806-12.822 5.992l-2.578 3.063-1.532-2.338c-2.474-3.776-8.705-6.719-14.186-6.701-10.05.034-17.315 7.462-17.348 17.734L34 95H15.909l.559-3.25c.307-1.787 2.35-18.775 4.541-37.75 2.191-18.975 4.25-36.187 4.575-38.25l.592-3.75h17.245c9.485 0 17.542-.296 17.904-.658.362-.362.156-1.262-.456-2-1.541-1.856-34.692-1.938-37.153-.092-1.351 1.013-2.518 8.546-6.16 39.75-2.472 21.175-4.753 40.361-5.069 42.635C11.488 98.821 12.048 99 35.571 99 55.396 99 56 99.06 56 101.018c0 1.975-.507 2.013-23.237 1.75L9.526 102.5 8.382 100C6.664 96.244 17.084 8.669 19.577 5.915 21.233 4.085 23.212 4 64 4c40.599 0 42.774.093 44.401 1.891 1.319 1.457 2.411 7.829 4.756 27.75 1.977 16.785 3.523 26.36 4.407 27.287 2.682 2.81 2.672-1.789-.057-25.684-3.197-28.005-3.734-30.491-7.166-33.19C107.798.053 106.596 0 64.088 0 26.271 0 20.149.207 18.23 1.551M40 25.646c-1.925 1.361-3.636 2.856-3.803 3.322-.685 1.919 2.122 2.083 5.663.331 3.672-1.816 3.862-1.817 6.709-.031 3.578 2.244 10.563 1.827 13.472-.805 1.875-1.697 2.043-1.697 3.918 0 2.909 2.632 9.894 3.049 13.472.805 2.847-1.786 3.037-1.785 6.709.031 3.498 1.731 5.86 1.658 5.86-.18C92 28.172 84.206 23 82.778 23c-.573 0-2.574.947-4.447 2.104-3.77 2.33-9.144 2.032-11.353-.63a3.838 3.838 0 0 0-5.956 0c-2.209 2.662-7.583 2.96-11.353.63-4.228-2.613-5.291-2.553-9.669.542m2.139 14.387C40.841 41.115 38.983 42 38.012 42c-2 0-4.337 2.341-3.337 3.342 1.193 1.193 5.84.686 8.077-.881 1.978-1.385 2.494-1.385 5.173 0 3.872 2.003 10.494 1.966 13.61-.076 2.269-1.487 2.661-1.487 4.93 0 3.169 2.076 10.43 2.077 13.394.001 2.127-1.49 2.548-1.482 5.487.101 3.254 1.752 7.657 1.78 7.828.049.096-.966-.528-1.379-5.174-3.422-1.375-.605-3.233-1.628-4.128-2.275-1.309-.945-2.17-.75-4.385.993-3.589 2.823-9.509 2.906-11.987.168-.995-1.1-2.57-2-3.5-2-.93 0-2.505.9-3.5 2-1.19 1.315-3.08 2-5.52 2-2.196 0-4.748-.816-6.253-2-3.111-2.447-3.613-2.445-6.588.033m.511 15.027c-1.44 1.134-4.222 2.321-6.181 2.639-2.564.416-3.477 1.03-3.257 2.189.438 2.311 4.727 2.471 8.689.324 3.29-1.783 3.516-1.784 6.961-.027 4.586 2.338 7.847 2.29 11.888-.174 3.24-1.975 3.26-1.975 6.5 0 4.041 2.464 7.302 2.512 11.888.174 3.445-1.757 3.671-1.756 6.961.027 4.073 2.207 8.252 1.985 8.716-.462.238-1.257-.323-1.754-1.992-1.765-2.163-.013-3.422-.557-8.561-3.695-1.669-1.019-2.508-.822-5.316 1.25-4.101 3.026-6.08 3.075-11.06.276L64 53.632l-3.886 2.184c-4.993 2.806-6.958 2.75-11.114-.316-1.864-1.375-3.465-2.5-3.559-2.5-.094 0-1.35.927-2.791 2.06m1.649 22.9C40.157 80.485 38 84.763 38 90.45c0 4.187.2 4.55 2.5 4.55s2.5-.364 2.5-4.545C43 84.575 46.214 81 51.5 81c2.479 0 4.351.76 6.045 2.455C59.98 85.889 60 86.067 60 104.955V124h5l-.004-19.25c-.003-17.328-.198-19.57-1.956-22.451-3.752-6.156-12.458-8.171-18.741-4.339m31.42-.183C72.243 79.93 69 86.465 69 91.316c0 3.209.306 3.684 2.37 3.684 2.072 0 2.435-.574 2.884-4.562.957-8.489 8.006-12.168 14.111-7.365 2.152 1.692 2.635 2.9 2.635 6.592 0 3.005.67 5.371 2 7.062 1.1 1.399 2 3.321 2 4.273 0 .952-.9 2.874-2 4.273-1.1 1.398-2 3.301-2 4.227 0 .926.9 2.829 2 4.227 2.405 3.058 2.517 5.089.443 8.05-1.487 2.124-1.442 2.223 1 2.223H97l-.024-16.75c-.029-20.186-.703-23.678-5.408-28-2.973-2.73-4.3-3.246-8.303-3.223-2.724.015-5.956.764-7.546 1.75M48.2 86.2c-.66.66-1.2 2.91-1.2 5V95h9v-3.8c0-4.271-1.4-6.2-4.5-6.2-1.155 0-2.64.54-3.3 1.2m30.835.734c-.569 1.064-1.035 3.314-1.035 5 0 2.967.145 3.066 4.5 3.066H87v-3.8c0-2.09-.54-4.34-1.2-5-1.837-1.837-5.608-1.428-6.765.734M69 101c0 1.98.458 2.056 10.75 1.784 8.763-.232 10.75-.561 10.75-1.784 0-1.223-1.987-1.552-10.75-1.784C69.458 98.944 69 99.02 69 101m.667 6.667c-.367.366-.667 1.491-.667 2.5 0 1.642.939 1.833 9 1.833 8.933 0 9-.019 9-2.5 0-2.467-.111-2.5-8.333-2.5-4.584 0-8.634.3-9 .667M69 118c0 1.98.458 2.056 10.75 1.784 8.763-.232 10.75-.561 10.75-1.784 0-1.223-1.987-1.552-10.75-1.784C69.458 115.944 69 116.02 69 118" fill-rule="evenodd"/></svg>