<svg xmlns="http://www.w3.org/2000/svg" width="128" height="128"><path d="M29.655 1.829C28.745 2.835 28 5.105 28 6.875c0 2.528.642 3.583 2.994 4.922C33.418 13.176 33.99 14.165 34 17c.007 1.925.685 4.789 1.506 6.364.822 1.576 1.494 4.163 1.494 5.75 0 2.83-.106 2.886-5.484 2.886-4.643 0-5.984.446-8.742 2.91l-3.257 2.91-.638 13.84c-.898 19.485-2.211 24.913-7.148 29.536-2.776 2.599-5.028 3.786-7.589 4L.5 85.5v42h12l.277-14.75.276-14.75h12.63l4.439 14.75 4.439 14.75 7.734.292c9.388.355 9.961-.389 6.118-7.941-2.298-4.517-6.415-19.034-6.339-22.351.061-2.615 9.208 18.735 10.284 24l1.225 6 6.722.296c5.27.232 6.848-.031 7.303-1.216.319-.832-1.262-7.041-3.514-13.798S60 99.917 60 99.208c0-.971 2.033-1.217 8.25-.998l8.25.29.277 14.75.276 14.75h24.774c17.934 0 25.104-.331 25.973-1.2.855-.855 1.194-6.963 1.178-21.25-.019-17.64-.254-20.561-1.951-24.3-1.062-2.34-2.625-4.25-3.478-4.25-.95 0-1.549-.89-1.549-2.304 0-1.294-1.425-3.669-3.25-5.417-3.194-3.06-3.426-3.114-13.464-3.167-9.411-.049-10.335.12-11.75 2.14C92.691 69.458 92 71.259 92 72.253c0 .994-1.575 3.191-3.5 4.881-2.171 1.907-3.5 3.983-3.5 5.47 0 2.952-3.246 3.299-5.193.555-.719-1.013-2.226-2.329-3.348-2.924-2.693-1.427-5.457-15.499-5.465-27.821-.01-16.018-2.963-20.403-13.744-20.41-5.067-.004-5.249-.1-5.218-2.754.017-1.512.674-3.598 1.459-4.635 2.106-2.782 2.841-9.668 1.545-14.482-1.511-5.612-5.821-8.458-11.69-7.72-2.941.37-4.511.094-5.373-.945-1.691-2.038-6.33-1.836-8.318.361m3.419 3.125C31.496 5.93 32.505 8 34.559 8c1.52 0 2.003-2.535.643-3.375-.439-.271-1.396-.123-2.128.329m6.742 4.55c-1.631 3.58-.587 3.974 5.103 1.928 3.937-1.416 4.782-2.087 3.927-3.118-.6-.723-2.62-1.314-4.49-1.314-2.657 0-3.648.547-4.54 2.504m4.934 6.822c-6.163 2.21-7.195 4.056-3.921 7.019 4.451 4.028 10.677.2 9.99-6.142l-.319-2.938-5.75 2.061M41.816 32.75c-.305 2.654-.567 2.77-7.482 3.308-10.046.782-10.327 1.143-10.369 13.314-.019 5.571-.679 13.053-1.465 16.628-1.975 8.979-1.936 9.705.408 7.584 2.839-2.57 4.969-13.659 4.359-22.699-.317-4.716-.12-7.858.52-8.253 1.699-1.05 4.213.445 4.213 2.506 0 1.809.731 1.907 12.238 1.643 11.333-.26 12.265-.429 12.607-2.281.532-2.875 2.08-4.466 3.728-3.834 1.094.42 1.427 2.716 1.427 9.852 0 6.446.779 12.634 2.537 20.143 3.6 15.379 3.073 14.345 7.28 14.299l3.683-.04-2.528-1.375c-2.223-1.21-2.794-2.746-4.75-12.779C66.871 63.833 66 55.595 66 49.754c0-9.189-.115-9.699-2.635-11.681-2.039-1.604-4.075-2.073-9-2.073H48v-3c0-2.652-.341-3-2.934-3-2.456 0-2.985.447-3.25 2.75m51.669 8.015c-1.197.866-1.331 19.146-.154 20.997.53.835 1.347.958 2.409.364 1.26-.706 1.629-2.699 1.713-9.263.14-10.985-.943-14.287-3.968-12.098m10.944 0c-1.22.838-1.664 19.236-.509 21.105.407.659 1.425.935 2.263.613 1.202-.461 1.54-2.521 1.605-9.784.108-11.962-.447-13.932-3.359-11.934m10.071-.186c-1.069.449-1.162 15.648-.121 19.794.439 1.749 1.132 2.306 2.442 1.964 1.631-.427 1.809-1.53 1.642-10.158-.104-5.323-.25-10.241-.326-10.929-.134-1.226-1.653-1.506-3.637-.671m-80.777 15.93c2.66 5.422 2.676 5.578 1.061 9.936-1.375 3.711-1.421 4.611-.285 5.555 1.022.848 2.133.724 4.502-.501 5.966-3.085 10.701-.428 13.803 7.746C54.413 83.482 54.853 84 56.839 84c1.16 0 3.161-4.624 3.159-7.297-.001-1.212-1.402-4.858-3.112-8.103-2.815-5.34-3.047-6.456-2.449-11.75l.662-5.85H31.022l2.701 5.509m62.902 15.289c-1.024 1.657 1.196 3.35 3.975 3.032 1.782-.204 3.01-.998 3.215-2.08.265-1.398-.376-1.75-3.183-1.75-1.933 0-3.736.359-4.007.798M110 71.8c0 1.549 2.425 3.2 4.7 3.2 2.544 0 2.926-.974 1.1-2.8-1.339-1.339-5.8-1.647-5.8-.4m-84.047 4.756c-1.324 1.596-.362 5.522 8.928 36.44 2.663 8.863 3.063 9.556 6.003 10.4 1.733.497 3.399.654 3.703.35.304-.303-.331-2.284-1.411-4.401s-3.857-12.623-6.172-23.347c-2.314-10.724-4.413-19.836-4.665-20.248-.812-1.332-5.056-.796-6.386.806m14.036-.042c-1.043 1.256.201 4.699 7.315 20.25 4.714 10.305 8.875 20.424 9.245 22.486.59 3.285 1.022 3.75 3.487 3.75h2.814l-7.284-21.801c-4.005-11.991-7.812-22.791-8.46-24-1.37-2.56-5.251-2.934-7.117-.685M20.064 78c-.125 3.293-1.097 4.691-4.092 5.887-2.253.899-2.113.992 1.577 1.05l4.049.063-.371-3.75c-.481-4.854-1.044-6.425-1.163-3.25M91.2 80.2c-.66.66-1.2 2.01-1.2 3 0 2.064 2.965 2.435 4.8.6s1.464-4.8-.6-4.8c-.99 0-2.34.54-3 1.2m8.8-.134c0 2.098 2.099 4.934 3.652 4.934 1.152 0 1.418-.611.978-2.25-.331-1.237-.609-2.588-.616-3-.022-1.186-4.014-.872-4.014.316m9.494-.057c-.926 1.499.442 4.991 1.957 4.991.724 0 1.594-.787 1.933-1.75.34-.963.879-2.312 1.2-3 .712-1.527-4.152-1.758-5.09-.241M118.5 83c-1.779 1.966-1.747 2 1.88 2 3.38 0 3.6-.168 2.62-2-.589-1.1-1.435-2-1.88-2-.446 0-1.625.9-2.62 2M.423 106.5c.001 11.55.147 16.138.324 10.196.177-5.943.176-15.393-.002-21C.567 90.088.422 94.95.423 106.5m3.765-14.75c.287 1.5 1.728 1.791 10.074 2.036 9.223.271 9.738.179 9.738-1.75C24 90.123 23.393 90 13.927 90c-9.055 0-10.04.177-9.739 1.75m53.001 0c.297 1.549 1.914 1.782 14.073 2.028 13.226.268 13.738.203 13.738-1.75C85 90.087 84.399 90 70.927 90c-12.865 0-14.045.15-13.738 1.75M90 107.024v17.024l16.75-.274 16.75-.274v-25l-14.75-.277C94.896 97.963 94 97.828 94 96c0-1.828.896-1.963 14.737-2.223 13.113-.246 14.775-.47 15.074-2.027.309-1.611-1.016-1.75-16.738-1.75H90v17.024M4.434 99.311c-.277.721-.375 6.453-.219 12.738.248 9.955.51 11.47 2.035 11.762 1.595.306 1.75-.826 1.75-12.738C8 100 7.766 98 6.469 98c-.843 0-1.758.59-2.035 1.311M81 111c0 12.333.103 13 2 13s2-.667 2-13-.103-13-2-13-2 .667-2 13m13-6.5c0 1.833.533 2.5 2 2.5s2-.667 2-2.5-.533-2.5-2-2.5-2 .667-2 2.5m0 11c0 3.833.296 4.5 2 4.5s2-.667 2-4.5-.296-4.5-2-4.5-2 .667-2 4.5" fill-rule="evenodd"/></svg>