<svg xmlns="http://www.w3.org/2000/svg" width="128" height="128"><path d="M111.5 6c-1.609 1.777-3.08 2-13.225 2-11.097 0-11.539.085-15.861 3.059l-4.447 3.06-2.618-2.06C71.526 9.053 67.365 9.398 64 13c-2.584 2.766-3.334 3-9.626 3H47.55l-6.657 6.607-6.658 6.606-8.412-4.168c-6.958-3.448-9.527-4.201-14.867-4.357L4.5 20.5l-.265 29.984-.265 29.984 2.265 1.766L8.5 84l-2.289 1.784c-2.152 1.677-2.271 2.378-2 11.75L4.5 107.5l6.456-.188c5.34-.156 7.909-.909 14.867-4.357l8.412-4.168 6.658 6.606L47.55 112h6.824c6.292 0 7.042.234 9.626 3 3.365 3.602 7.526 3.947 11.349.941l2.618-2.06 4.447 3.06c4.322 2.974 4.764 3.059 15.861 3.059 10.145 0 11.616.223 13.225 2 3.7 4.088 10.5 1.385 10.5-4.174 0-5.248-6.928-7.773-10.5-3.826-1.588 1.755-3.08 2-12.17 2-10.247 0-10.421-.04-15.845-3.642-3.017-2.002-5.485-4.048-5.485-4.545 0-.497-1.105-2.008-2.455-3.358-3.49-3.491-7.972-3.279-11.545.545-2.547 2.727-3.383 3-9.183 3h-6.38l-5.862-5.924-5.863-5.925 3.228-4.075L43.168 88h19.626L69 95l6.206 7h6.242c4.972 0 6.61.407 8.052 2 3.7 4.088 10.5 1.385 10.5-4.174 0-5.248-6.928-7.773-10.5-3.826-1.371 1.515-3.08 2-7.052 2-5.232 0-5.253-.013-11.448-7l-6.206-7h-9.397c-9.671 0-10.359-.335-8.362-4.066C48.002 78.127 49.306 78 66.823 78h18.752l4.925 5c4.64 4.711 5.222 5 10.057 5 3.863 0 5.581.495 6.943 2 3.7 4.088 10.5 1.385 10.5-4.174 0-5.248-6.928-7.773-10.5-3.826-1.314 1.452-3.08 2-6.443 2-4.235 0-5.054-.428-9.557-5l-4.925-5H48.767l.603-2.25c.331-1.237.609-3.037.616-4 .019-2.398 3.511-2.253 6.014.25 2.546 2.546 5.454 2.546 8 0 1.871-1.871 3.333-2 22.599-2h20.599L110 69c5.198 5.564 14 2.421 14-5 0-7.421-8.802-10.564-14-5l-2.802 3H86.599C67.333 62 65.871 61.871 64 60c-2.546-2.546-5.454-2.546-8 0-3.02 3.02-5.686 2.591-6.213-1l-.441-3h35.217l5.937-6c5.555-5.613 6.236-6 10.564-6 3.356 0 5.123.549 6.436 2 3.7 4.088 10.5 1.385 10.5-4.174 0-5.248-6.928-7.773-10.5-3.826-1.362 1.505-3.08 2-6.936 2-4.939 0-5.343.219-11.064 6l-5.937 6H48.438l-1.132-3-1.132-3h18.38l6.946-7c6.492-6.542 7.233-7 11.322-7 3.572 0 4.89.551 7.178 3 5.198 5.564 14 2.421 14-5 0-7.421-8.802-10.564-14-5-2.373 2.54-3.55 3-7.678 3-4.708 0-5.114.24-11.822 7l-6.946 7H44.427l-3.819-5.115-3.818-5.115 5.824-5.885L48.437 20h6.38c5.8 0 6.636.273 9.183 3 3.573 3.824 8.055 4.036 11.545.545 1.35-1.35 2.455-2.861 2.455-3.358 0-.497 2.468-2.543 5.485-4.545C88.909 12.04 89.083 12 99.33 12c9.09 0 10.582.245 12.17 2 3.7 4.088 10.5 1.385 10.5-4.174 0-5.248-6.928-7.773-10.5-3.826m2.946 3.087c-1.03 1.668 1.287 3.58 2.667 2.2C118.267 10.133 117.545 8 116 8c-.485 0-1.184.489-1.554 1.087M67.04 15.452c-2.657 3.201 1.245 8.118 4.71 5.936 2.222-1.399 2.765-4.063 1.21-5.936a3.837 3.837 0 0 0-5.92 0M8 33.11v9.162l4.64-.636c4.367-.599 7.254-2.661 7.328-5.236.06-2.052-5.913-9.32-8.948-10.89L8 23.949v9.161m85.04-5.658c-2.657 3.201 1.245 8.118 4.71 5.936 2.222-1.399 2.765-4.063 1.21-5.936a3.837 3.837 0 0 0-5.92 0m-72.847.298c4.368 9.116 7.514 11.631 12.168 9.729l2.832-1.158-3.846-3.024c-5.465-4.295-12.147-7.618-11.154-5.547m2.253 13.337c-1.03 1.668 1.287 3.58 2.667 2.2C26.267 42.133 25.545 40 24 40c-.485 0-1.184.489-1.554 1.087m11.282.303c-4.825 2.138-5.51 4.158-4.358 12.86L30.396 62h15.763l-.65-3.25c-1.677-8.385-6.309-18.874-8.244-18.669-.421.045-2.012.634-3.537 1.309m76.718-.303c-1.03 1.668 1.287 3.58 2.667 2.2C114.267 42.133 113.545 40 112 40c-.485 0-1.184.489-1.554 1.087M12.25 45.732 8 46.115V62h18.188l-.666-5.25C24.609 49.56 24.08 48 22.555 48c-.721 0-1.87-.675-2.555-1.5s-1.752-1.421-2.372-1.325c-.621.096-3.04.347-5.378.557m100.79 15.72c-2.657 3.201 1.245 8.118 4.71 5.936 2.222-1.399 2.765-4.063 1.21-5.936a3.837 3.837 0 0 0-5.92 0m-54.594 1.635c-1.03 1.668 1.287 3.58 2.667 2.2C62.267 64.133 61.545 62 60 62c-.485 0-1.184.489-1.554 1.087M8 71.826c0 7.729 2.484 10.323 10.087 10.531 5.936.162 6.006.062 7.345-10.655L26.144 66H8v5.826m21.652-.076c-.348 3.162-.899 7.325-1.225 9.25-.582 3.434-.502 3.533 4.24 5.242 4.725 1.703 4.871 1.697 6.526-.291 1.997-2.396 5.256-10.888 6.218-16.201l.68-3.75H30.285l-.633 5.75m80.794 13.337c-1.03 1.668 1.287 3.58 2.667 2.2C114.267 86.133 113.545 84 112 84c-.485 0-1.184.489-1.554 1.087M10.027 88.472c-1.808 1.924-2.08 3.259-1.826 8.968l.299 6.707 3.5-2.357c3.694-2.488 10.521-12.723 9.248-13.866-.411-.369-2.627-.906-4.923-1.192-3.444-.43-4.546-.126-6.298 1.74m15.265 2.278c-.355.963-1.724 3.48-3.041 5.594-1.318 2.115-2.18 4.061-1.916 4.324C21.415 101.748 34 93.746 34 91.979 34 91.226 28.636 89 26.819 89c-.485 0-1.172.787-1.527 1.75m67.154 8.337c-1.03 1.668 1.287 3.58 2.667 2.2C96.267 100.133 95.545 98 94 98c-.485 0-1.184.489-1.554 1.087m-25.406 8.365c-2.657 3.201 1.245 8.118 4.71 5.936C75.212 111.207 73.979 106 70 106c-.965 0-2.297.653-2.96 1.452m47.406 9.635c-1.03 1.668 1.287 3.58 2.667 2.2 1.154-1.154.432-3.287-1.113-3.287-.485 0-1.184.489-1.554 1.087" fill-rule="evenodd"/></svg>