<svg xmlns="http://www.w3.org/2000/svg" width="128" height="128"><path d="M55 2.248c-2.475 1.323-5.843 4.312-7.484 6.642-2.531 3.593-3.041 5.371-3.361 11.721-.309 6.11-.054 7.843 1.388 9.437.972 1.074 2.318 1.952 2.991 1.952s1.786 1.359 2.474 3.02c.688 1.661 2.6 4.155 4.247 5.541 1.648 1.387 2.68 2.84 2.294 3.23-.387.39-4.381 1.609-8.876 2.709l-8.173 2-.292 7.729-.291 7.729-19.709.271L.5 64.5l-.305 5.329c-.267 4.671-.051 5.396 1.75 5.867C3.931 76.215 4 76.898 4 96c0 19.102-.069 19.785-2.055 20.304-1.801.471-2.017 1.196-1.75 5.867L.5 127.5l62.888.258c45.62.186 63.263-.053 64.25-.873 1.421-1.179 1.978-10.982.612-10.767-4.297.679-4.25.899-4.25-19.881 0-19.536.026-19.774 2.25-20.75 1.856-.814 2.303-1.908 2.553-6.255.166-2.897-.059-5.206-.5-5.131-.442.075-9.672.083-20.511.017L88.084 64l-.292-7.75-.292-7.75-8.224-2.058c-4.524-1.131-8.518-2.35-8.876-2.709-.358-.358.697-1.785 2.345-3.172 1.647-1.386 3.559-3.88 4.247-5.541.688-1.661 1.801-3.02 2.474-3.02 4.973 0 6.357-13.232 2.207-21.093C76.518 1.143 64.417-2.786 55 2.248m2.18 3.374c-4.1 2.094-7.956 7.009-8.797 11.212-.597 2.987.71 4.443 2.047 2.279.301-.487 2.102-1.178 4.001-1.534 2.098-.394 4.225-1.709 5.423-3.354l1.971-2.705 2.466 2.66c1.72 1.856 3.94 2.875 7.338 3.367 2.679.388 5.444 1.163 6.145 1.722 2.25 1.795 2.561-.102.781-4.764-.995-2.606-3.139-5.611-5.033-7.056-4.36-3.325-11.785-4.156-16.342-1.827m.575 15.201c-3.65 1.634-3.745 1.813-3.75 7.027-.004 4.754.374 5.729 3.395 8.75 4.613 4.613 8.587 4.613 13.2 0 3.023-3.023 3.4-3.996 3.4-8.773v-5.372l-4.25-1.12c-2.338-.616-5.15-1.361-6.25-1.655-1.1-.294-3.685.22-5.745 1.143M48 25.441c0 .793.45 1.719 1 2.059.55.34 1-.309 1-1.441C50 24.927 49.55 24 49 24s-1 .648-1 1.441m30 .618c0 1.132.45 1.781 1 1.441.55-.34 1-1.266 1-2.059 0-.793-.45-1.441-1-1.441s-1 .927-1 2.059M28.188 28.96c-2.765 3.739-2.765 6.341 0 10.08L30.376 42l-2.188 2.96c-2.663 3.601-2.77 5.04-.376 5.04C30.023 50 34 44.859 34 42c0-1.145-.985-3.413-2.188-5.04L29.624 34l2.188-2.96c1.203-1.627 2.188-3.427 2.188-4 0-2.152-3.707-.928-5.812 1.92M94 27.04c0 .573.985 2.373 2.188 4L98.376 34l-2.188 2.96C94.985 38.587 94 40.855 94 42c0 2.859 3.977 8 6.188 8 2.394 0 2.287-1.439-.376-5.04L97.624 42l2.188-2.96C101.015 37.413 102 35.145 102 34c0-2.859-3.977-8-6.188-8-.997 0-1.812.468-1.812 1.04m-79.812 9.92c-2.765 3.739-2.765 6.341 0 10.08L16.376 50l-2.188 2.96c-2.663 3.601-2.77 5.04-.376 5.04C16.023 58 20 52.859 20 50c0-1.145-.985-3.413-2.188-5.04L15.624 42l2.188-2.96c1.203-1.627 2.188-3.427 2.188-4 0-2.152-3.707-.928-5.812 1.92M108 35.04c0 .573.985 2.373 2.188 4l2.188 2.96-2.188 2.96C108.985 46.587 108 48.855 108 50c0 2.859 3.977 8 6.188 8 2.394 0 2.287-1.439-.376-5.04L111.624 50l2.188-2.96c2.765-3.739 2.765-6.341 0-10.08-2.105-2.848-5.812-4.072-5.812-1.92M61.738 45.894c-.378 1.447-2.467 2.351-8.867 3.839L44.5 51.678l-.298 6.161L43.905 64h3.047c2.72 0 3.048-.323 3.048-3 0-2.333.444-3 2-3s2 .667 2 3v3h20v-3c0-2.333.444-3 2-3s2 .667 2 3c0 2.677.328 3 3.048 3h3.047l-.297-6.222-.298-6.223-8.37-1.88c-6.442-1.446-8.485-2.317-8.867-3.777-.642-2.457-3.883-2.46-4.525-.004M.3 70c0 3.025.187 4.263.416 2.75.229-1.513.229-3.987 0-5.5S.3 66.975.3 70M4 70c0 1.969.667 2 43 2s43-.031 43-2-.667-2-43-2-43 .031-43 2m90 3.892c0 5.434.192 5.939 2.475 6.512 1.72.432 2.73 1.609 3.313 3.859.462 1.78 1.486 3.237 2.276 3.237 1.13 0 1.497-2.075 1.722-9.75l.286-9.75H94v5.892M108 70c0 1.833.667 2 8 2s8-.167 8-2-.667-2-8-2-8 .167-8 2M8 81v5h42c41.333 0 42 .032 42 2s-.667 2-42 2H8v12h112V90h-5c-4.333 0-5-.267-5-2s.667-2 5-2h5V76h-12v6.345c0 4.877-.423 6.728-1.829 8-3.827 3.464-10.171.86-10.171-4.174C96 84.956 95.371 84 94.571 84 92.363 84 90 81.12 90 78.429V76H8v5m0 30v5h112v-10H8v5M.3 122c0 3.025.187 4.263.416 2.75.229-1.513.229-3.987 0-5.5S.3 118.975.3 122m3.7 0c0 1.978.667 2 60 2s60-.022 60-2-.667-2-60-2-60 .022-60 2" fill-rule="evenodd"/></svg>