<svg xmlns="http://www.w3.org/2000/svg" width="128" height="128"><path d="M4.449 5.273c-.269.7-.367 11.387-.219 23.75L4.5 51.5l7.563.289 7.563.288 1.255 3.471C22.459 59.912 26.365 62 32.95 62c5.849 0 9.05 2.361 9.05 6.674v2.675l-2.513-2.361c-1.961-1.842-2.778-2.097-3.719-1.156-.94.94-.168 2.242 3.514 5.923L44 78.474l4.718-4.719c3.682-3.681 4.454-4.983 3.514-5.923-.941-.941-1.758-.686-3.719 1.156L46 71.349v-2.724c0-3.877-2.414-8.037-5.472-9.43C39.086 58.538 35.677 58 32.953 58 28.147 58 24 55.704 24 53.042c0-.527 3.487-1.089 7.75-1.25l7.75-.292.275-16.95.275-16.949-6.748-6.801L26.554 4H15.745C7.919 4 4.803 4.351 4.449 5.273m42 0c-.269.7-.367 11.387-.219 23.75L46.5 51.5l7.75.292 7.75.292V76.5l-22.25 6.397c-12.238 3.518-23.038 6.796-24 7.285-1.471.747-1.75 2.321-1.75 9.875 0 8.37.154 9.051 2.25 9.939 1.237.524 12.495 3.924 25.017 7.556l22.768 6.603 23.232-6.707c12.778-3.688 24.02-7.114 24.983-7.612 1.47-.762 1.75-2.348 1.75-9.922v-9.016l-3.25-1.29c-1.787-.71-12.584-3.949-23.992-7.199L66.016 76.5l-.008-12.208L66 52.084l7.75-.292 7.75-.292.275-16.95.275-16.949-6.748-6.801L68.554 4H57.745c-7.826 0-10.942.351-11.296 1.273m42 0c-.269.7-.367 11.387-.219 23.75L88.5 51.5l7.75.292c4.263.161 7.75.723 7.75 1.25C104 55.704 99.853 58 95.047 58c-2.724 0-6.133.538-7.575 1.195C84.414 60.588 82 64.748 82 68.625v2.724l-2.513-2.361c-1.961-1.842-2.778-2.097-3.719-1.156-.94.94-.168 2.242 3.514 5.923L84 78.474l4.718-4.719c3.682-3.681 4.454-4.983 3.514-5.923-.941-.941-1.758-.686-3.719 1.156L86 71.349v-2.675C86 64.361 89.201 62 95.05 62c6.585 0 10.491-2.088 12.069-6.452l1.255-3.471 7.563-.288 7.563-.289.275-16.95.275-16.949-6.748-6.801-6.748-6.8H99.745c-7.826 0-10.942.351-11.296 1.273M8 28v20h28V20.1l-5.75-.3-5.75-.3-.3-5.75L23.9 8H8v20m42 0v20h28V20.1l-5.75-.3-5.75-.3-.3-5.75L65.9 8H50v20m42 0v20h28V20.1l-5.75-.3-5.75-.3-.3-5.75-.3-5.75H92v20M28 13.5c0 2.043.488 2.5 2.674 2.5h2.675L31 13.5c-1.292-1.375-2.495-2.5-2.674-2.5-.179 0-.326 1.125-.326 2.5m42 0c0 2.043.488 2.5 2.674 2.5h2.675L73 13.5c-1.292-1.375-2.495-2.5-2.674-2.5-.179 0-.326 1.125-.326 2.5m42 0c0 2.043.488 2.5 2.674 2.5h2.675L115 13.5c-1.292-1.375-2.495-2.5-2.674-2.5-.179 0-.326 1.125-.326 2.5M12 18c0 1.667.667 2 4 2s4-.333 4-2-.667-2-4-2-4 .333-4 2m42 0c0 1.667.667 2 4 2s4-.333 4-2-.667-2-4-2-4 .333-4 2m42 0c0 1.667.667 2 4 2s4-.333 4-2-.667-2-4-2-4 .333-4 2m-84 8c0 1.867.667 2 10 2s10-.133 10-2-.667-2-10-2-10 .133-10 2m42 0c0 1.867.667 2 10 2s10-.133 10-2-.667-2-10-2-10 .133-10 2m42 0c0 1.867.667 2 10 2s10-.133 10-2-.667-2-10-2-10 .133-10 2m-84 8c0 1.867.667 2 10 2s10-.133 10-2-.667-2-10-2-10 .133-10 2m42 0c0 1.867.667 2 10 2s10-.133 10-2-.667-2-10-2-10 .133-10 2m42 0c0 1.867.667 2 10 2s10-.133 10-2-.667-2-10-2-10 .133-10 2m-84 8c0 1.867.667 2 10 2s10-.133 10-2-.667-2-10-2-10 .133-10 2m42 0c0 1.333.667 2 2 2s2-.667 2-2-.667-2-2-2-2 .667-2 2m8 0c0 1.333.667 2 2 2s2-.667 2-2-.667-2-2-2-2 .667-2 2m8 0c0 1.333.667 2 2 2s2-.667 2-2-.667-2-2-2-2 .667-2 2m26 0c0 1.867.667 2 10 2s10-.133 10-2-.667-2-10-2-10 .133-10 2M42.754 86.316C32.994 89.167 25.009 91.725 25.01 92c0 .275 8.808 3.044 19.573 6.153l19.572 5.653 19.422-5.619c10.683-3.091 19.422-5.859 19.421-6.153-.002-.412-24.624-7.955-35.248-10.799-1.505-.403-1.75.272-1.75 4.823v5.291l2.513-2.361c1.961-1.842 2.778-2.097 3.719-1.156.94.94.168 2.242-3.514 5.923L64 98.474l-4.718-4.719c-3.682-3.681-4.454-4.983-3.514-5.923.941-.941 1.758-.686 3.719 1.156L62 91.349v-5.175c0-2.846-.337-5.144-.75-5.108-.413.037-8.736 2.399-18.496 5.25m-24.746 14.361.008 5.823 20.742 5.926c11.408 3.259 21.305 6.119 21.992 6.357.907.313 1.25-1.18 1.25-5.441v-5.872l-20.679-5.985c-11.374-3.292-21.274-6.13-22-6.308-.981-.24-1.319 1.175-1.313 5.5m69.249.64L66.015 107.5l-.008 5.867c-.006 5.101.221 5.805 1.743 5.397.963-.258 10.858-3.123 21.991-6.367l20.241-5.897.009-5.75c.005-3.162-.329-5.72-.741-5.683-.412.037-10.309 2.85-21.993 6.25" fill-rule="evenodd"/></svg>