<svg xmlns="http://www.w3.org/2000/svg" width="128" height="128"><path d="M29.627 24.468c-5.646 2.013-10.768 6.566-13.623 12.109L13.5 41.441l-.305 37.729-.305 37.729-4.958.301c-2.727.165-4.952.75-4.945 1.3.02 1.566 25.239 1.321 25.763-.25.303-.909-1.244-1.25-5.667-1.25H17V79.712c0-36.698.036-37.358 2.25-41.692 3.568-6.983 8.58-10.351 16.12-10.831 10.117-.644 17.483 4.382 20.577 14.041 1.266 3.952.814 5.77-1.435 5.77-2.677 0-8.196 6.386-8.924 10.326-.878 4.749.53 6.674 4.879 6.674 1.953 0 3.936.788 5.033 2 2.287 2.527 4.696 2.545 6.951.054.977-1.08 3.383-2.081 5.405-2.25L71.5 63.5l-.062-4.735c-.07-5.396-2.71-9.074-8.188-11.407-2.136-.91-3.25-2.077-3.25-3.404 0-6.977-8.58-17.158-16.422-19.487-6.034-1.791-8.922-1.791-13.951.001m22.296 28.455c-1.608 1.608-2.923 3.858-2.923 5C49 59.887 49.543 60 59 60c6.315 0 10-.387 10-1.05 0-2.029-3.042-6.902-4.945-7.92-3.81-2.039-9.011-1.228-12.132 1.893m.732.906c-2.001 2.21-2.146 4.171-.31 4.171C53.946 58 57 54.832 57 53.171c0-1.776-2.482-1.401-4.345.658m-9.609 25.125C41.438 80.562 41 82.288 41 87.021c0 5.408-.248 6.135-2.432 7.13-3.655 1.666-4.681 5.406-4.358 15.903l.29 9.446 6.831.298c6.174.268 6.883.1 7.367-1.75C49.223 116.04 49.836 116 80 116s30.777.04 31.302 2.048c.484 1.85 1.193 2.018 7.367 1.75l6.831-.298.286-10.348.286-10.348-3.396-3.202c-2.93-2.764-3.462-4.006-3.882-9.069-.776-9.357-1.626-9.725-21.212-9.17-19.348.549-15.575.549-35.786-.001-15.82-.43-16.812-.346-18.75 1.592m2.704 2.126c-1.325.772-1.75 2.332-1.75 6.424 0 4.432.45 5.855 2.5 7.905 1.375 1.375 2.5 3.196 2.5 4.046 0 1.322 2.088 1.545 14.5 1.545H78v-9.465c0-8.334-.231-9.588-1.934-10.5-2.492-1.333-28.014-1.296-30.316.045m36.821.491C81.378 82.765 81 85.288 81 92.071V101h15c13.913 0 15-.134 15-1.845 0-1.015.9-2.66 2-3.655 2.86-2.588 2.907-12.944.066-14.465-1.064-.569-8.007-1.035-15.429-1.035-10.934 0-13.792.298-15.066 1.571M37.993 99.012c-.592 1.107-.945 5.495-.785 9.75l.292 7.738h8l.292-8.347c.185-5.294-.134-8.86-.872-9.75-1.717-2.068-5.68-1.719-6.927.609m77.25-.855c-.802.802-1.243 4.363-1.243 10.043v8.8h8.072l-.286-9.75c-.281-9.575-.331-9.755-2.793-10.043-1.379-.161-3.066.266-3.75.95M49 108.486V113h62.115l-.308-4.25-.307-4.25-30.75-.264-30.75-.265v4.515" fill-rule="evenodd"/></svg>