<svg xmlns="http://www.w3.org/2000/svg" width="128" height="128"><path d="M48.216 2.019C25.585 7.948 7.785 25.881 1.972 48.609c-8.632 33.752 12.397 68.662 46.637 77.419 21.646 5.536 44.156-.798 60.456-17.012 8.473-8.428 14.832-19.538 17.01-29.716.683-3.19 1.62-6.228 2.083-6.75.992-1.12 1.158-19.199.167-18.208-.371.371-1.48-2.495-2.464-6.368-5.641-22.213-23.82-40.209-46.47-46.002-9.779-2.501-21.519-2.483-31.175.047m.284 7.848c-9.306 2.674-16.371 6.971-24.03 14.616C13.096 35.835 8 48.062 8 64c0 15.93 5.093 28.154 16.47 39.53C35.846 114.907 48.07 120 64 120s28.154-5.093 39.53-16.47C114.907 92.154 120 79.93 120 64s-5.093-28.154-16.47-39.53C91.938 12.878 79.838 7.939 63.356 8.071c-5.184.042-11.344.786-14.856 1.796M45.11 28.34c-4.878 2.818-5.037 3.999-5.075 37.839-.03 27.496.172 31.886 1.536 33.25 1.86 1.859 1.993 1.875 4.495.536C47.787 99.044 48 97.789 48 88.572V78.214l15.25-.377c14.596-.36 15.475-.5 20.504-3.268 17.778-9.784 17.778-34.346 0-44.142-5.072-2.795-5.79-2.905-20.754-3.181-11.783-.218-16.073.044-17.89 1.094M48 52.5V70h13.684c15.495 0 20.364-1.455 24.559-7.336C89.57 58 89.492 46.89 86.099 42.133c-4.116-5.77-8.62-7.086-24.349-7.111L48 35v17.5M.36 64c0 5.225.169 7.362.375 4.75s.206-6.888 0-9.5S.36 58.775.36 64" fill-rule="evenodd"/></svg>