<svg xmlns="http://www.w3.org/2000/svg" width="128" height="128"><path d="M52.335 1.423C31.521 6.471 15 27.081 15 48c0 17.341 15.208 43.158 44.475 75.5l4.525 5 4.525-5c31.478-34.786 45.798-60.353 44.091-78.721-2.787-29.991-31.181-50.414-60.281-43.356m-.848 8.319C39.398 14.059 32.119 20.577 26.626 32 23.8 37.876 23.5 39.413 23.5 48c0 9.091.18 9.876 4.18 18.24 2.3 4.807 6.606 12.457 9.57 17 5.832 8.938 19.793 26.628 24.398 30.915l2.852 2.654 8-9.473c15.628-18.506 26.816-36.264 31.006-49.215 2.547-7.873 1.698-17.971-2.207-26.232-4.418-9.348-10.061-15.168-18.979-19.575-6.775-3.349-8.487-3.764-16.685-4.047-6.876-.238-10.375.127-14.148 1.475m4.442 7.566C37.106 22.628 27.131 41.563 33.44 60c2.497 7.295 11.848 16.747 19.06 19.264 6.411 2.238 16.589 2.238 23 0C82.712 76.747 92.063 67.295 94.56 60c7.023-20.524-6.681-41.698-28.146-43.49-3.39-.283-7.865.058-10.485.798m-.302 8.099c-16.946 6.309-21.751 28.196-8.991 40.957 9.546 9.545 25.182 9.545 34.728 0 15.113-15.114 5.601-40.634-15.654-42-3.893-.25-7.655.139-10.083 1.043M54 49v16h8v-8.742l4.89-.649c8.836-1.172 13.442-7.221 11.198-14.709-1.797-5.998-5.595-7.892-15.838-7.896L54 33v16m8-4.44c0 3.487.076 3.554 3.649 3.25 7.041-.599 7.39-6.81.382-6.81-3.953 0-4.031.069-4.031 3.56" fill-rule="evenodd"/></svg>