<svg xmlns="http://www.w3.org/2000/svg" width="128" height="128"><path d="M87.2 10.2c-.66.66-1.2 2.903-1.2 4.984v3.783l-26.75.267c-22.993.229-26.75.477-26.75 1.766 0 1.302 5.611 1.566 42.5 2l42.5.5.31 3.75.311 3.75H3.879l.311-3.75.31-3.75L12 23c5.778-.385 7.5-.844 7.5-2 0-1.181-1.672-1.563-7.872-1.794C1.391 18.823 0 19.905 0 28.249c0 5.097.283 6.012 2 6.461 1.949.51 2 1.364 2 33.456 0 26.843.269 33.453 1.453 35.743 1.378 2.665 4.673 4.601 9.003 5.29 1.381.22 2.199 1.476 2.778 4.264.452 2.174 1.371 4.303 2.044 4.73 1.589 1.01 15.855 1.01 17.444 0 .673-.427 1.593-2.558 2.045-4.735l.822-3.958 26.917-.267 26.917-.266 2.459 3.141c4.772 6.097 13.639 8.373 20.864 5.354 4.958-2.072 7.188-4.204 9.373-8.962 3.532-7.692 1.361-16.867-5.127-21.664L118 84.624V59.929c0-23.855.068-24.714 2-25.219 1.717-.449 2-1.364 2-6.461 0-7.241-1.7-9.249-7.829-9.249-4.163 0-4.171-.007-4.171-3.8 0-2.09-.54-4.34-1.2-5-1.634-1.634-19.966-1.634-21.6 0M90 16v3h16v-6H90v3m-65.554 4.087c-1.03 1.668 1.287 3.58 2.667 2.2C28.267 21.133 27.545 19 26 19c-.485 0-1.184.489-1.554 1.087M8 50v15l5.75-.012 5.75-.011 4.509-8.227c2.537-4.628 5.27-8.373 6.25-8.561 1.522-.294 1.741.553 1.741 6.738V62h4.929c3.021 0 5.502.574 6.41 1.482 1.213 1.212 5.91 1.531 25.822 1.75C90.01 65.462 93.5 65.715 93.5 67c0 1.288-3.647 1.538-25.757 1.767l-25.757.267-3.743 6.126C30.533 87.779 28 88.85 28 79.491V74.1l-5.75-.3c-5.235-.273-5.743-.501-5.671-2.55.071-1.999-.403-2.25-4.25-2.25H8v16c0 14.667.167 16.167 2 18 1.933 1.933 3.333 2 42 2h40v-4.266c0-9.052 7.252-16.759 16.49-17.525l5.51-.457V69.121l-3.75-.311c-2.529-.209-3.75-.799-3.75-1.81 0-1.011 1.221-1.601 3.75-1.81l3.75-.311V35H8v15m28.426-9.668c-.291.758-.393 4.256-.227 7.773L36.5 54.5h35v-15l-17.272-.274c-13.945-.221-17.375-.008-17.802 1.106m45.229 2.497C78.067 46.793 80.825 53 86.174 53c5.121 0 7.792-6.911 3.997-10.345-2.415-2.186-6.455-2.103-8.516.174m16 0c-2.186 2.415-2.103 6.455.174 8.516 3.964 3.588 10.171.83 10.171-4.519 0-5.121-6.911-7.792-10.345-3.997M40 47v4h28v-8H40v4m44.446-.913c-1.03 1.668 1.287 3.58 2.667 2.2C88.267 47.133 87.545 45 86 45c-.485 0-1.184.489-1.554 1.087m16 0c-1.03 1.668 1.287 3.58 2.667 2.2C104.267 47.133 103.545 45 102 45c-.485 0-1.184.489-1.554 1.087M24.75 63.876c-1.512 2.705-2.75 5.19-2.75 5.521 0 .332 2.221.603 4.937.603 4.838 0 4.943.065 5.25 3.25l.313 3.25 2.667-4.5 2.667-4.5-4.667-.5c-4.53-.485-4.682-.611-5.167-4.271l-.5-3.771-2.75 4.918m73.696 2.211c-1.03 1.668 1.287 3.58 2.667 2.2C102.267 67.133 101.545 65 100 65c-.485 0-1.184.489-1.554 1.087M40.464 78.059c-1.478 2.391 1.646 2.994 14.117 2.722C65.273 80.548 67.5 80.241 67.5 79c0-1.243-2.254-1.548-13.173-1.778-8.894-.189-13.398.083-13.863.837m0 8c-1.478 2.391 1.646 2.994 14.117 2.722C65.273 88.548 67.5 88.241 67.5 87c0-1.243-2.254-1.548-13.173-1.778-8.894-.189-13.398.083-13.863.837m62.434 3.211c-11.19 7.475-7.46 23.752 5.814 25.372 7.18.877 13.993-4.71 14.914-12.229C124.562 94.768 117.695 87 110 87c-2.186 0-5.096.93-7.102 2.27m-62.434 4.789c-1.478 2.391 1.646 2.994 14.117 2.722C65.273 96.548 67.5 96.241 67.5 95c0-1.243-2.254-1.548-13.173-1.778-8.894-.189-13.398.083-13.863.837m63.991 1.396c-4.051 4.05-2.987 9.603 2.388 12.467 4.664 2.485 11.157-1.679 11.157-7.156 0-3.87-4.013-7.766-8-7.766-1.948 0-3.998.907-5.545 2.455m2.584 3.473c-1.8 3.363.944 6.783 4.384 5.463C114.894 103.059 113.727 97 110 97c-1.061 0-2.394.867-2.961 1.928M21.184 111.75c.309 2.685.468 2.75 6.816 2.75s6.507-.065 6.816-2.75l.317-2.75H20.867l.317 2.75" fill-rule="evenodd"/></svg>