<svg xmlns="http://www.w3.org/2000/svg" width="128" height="128"><path d="M4.454 13.258c-.275.719-.378 9.617-.227 19.774L4.5 51.5l5.75.3 5.75.3v26.95c0 25.813-.086 27.036-2.045 28.995-1.726 1.726-1.998 3.089-1.75 8.75l.295 6.705h17l.295-6.705c.248-5.661-.024-7.024-1.75-8.75C26.086 106.086 26 104.863 26 79.046V52.091l6.75-.295 6.75-.296v-39l-17.272-.274c-13.488-.213-17.382.013-17.774 1.032M8 32v16h28V16H8v16m8.432-10.682c-.278.724-.377 6.012-.219 11.75.233 8.479.568 10.432 1.787 10.432 1.011 0 1.601-1.221 1.81-3.75.295-3.557.49-3.75 3.796-3.75 7.376 0 11.067-8.417 5.939-13.545C27.584 20.493 26.071 20 22.014 20c-3.278 0-5.256.467-5.582 1.318M20 28c0 4.028.075 4.119 3.149 3.813 3.833-.381 5.841-3.013 4.245-5.563-.603-.962-2.513-1.891-4.245-2.063C20.075 23.881 20 23.972 20 28m0 51c0 17.333.358 27 1 27s1-9.667 1-27-.358-27-1-27-1 9.667-1 27m40.491-21.135c-4.517 2.052-10.209 8.028-11.688 12.271-.87 2.494-1.158 2.652-2.465 1.344-.894-.893-3.373-1.48-6.254-1.48C34.33 70 32 72.068 32 77.174 32 81.493 34.508 84 38.829 84c1.744 0 3.171.45 3.171 1s-.438 1-.974 1c-1.818 0-3.849 5.538-5.055 13.783-1.358 9.288-.477 11.885 5.108 15.063 1.754.997 2.911 2.486 2.915 3.749.011 3.779 3.074 5.405 10.18 5.405 7.086 0 9.826-1.625 9.826-5.829 0-2.125.299-2.171 14-2.171h14v2.345c0 4.025 2.933 5.655 10.174 5.655 6.96 0 9.819-1.622 9.832-5.579.004-1.071 1.293-2.653 2.915-3.575 5.585-3.178 6.466-5.775 5.108-15.063C118.823 91.538 116.792 86 114.974 86c-.536 0-.974-.45-.974-1s1.505-1 3.345-1c1.971 0 4.025-.751 5-1.829 2.237-2.471 2.138-8.424-.174-10.516-2.338-2.116-10.454-2.229-12.509-.175-1.307 1.308-1.595 1.15-2.465-1.344-1.479-4.243-7.171-10.219-11.688-12.271-5.819-2.644-29.199-2.644-35.018 0m3.009 3.339c-3.601 1.255-8.162 5.308-10.058 8.936-.759 1.452-1.776 5.165-2.26 8.25L50.303 84h55.394l-.879-5.61c-1.432-9.126-5.692-14.906-12.717-17.254-4.202-1.404-24.517-1.356-28.601.068m-1.983 8.779C56.849 74.7 55.842 76.242 56.8 77.2c.958.958 2.5-.049 7.217-4.717 3.299-3.265 5.855-6.368 5.678-6.897-.748-2.246-2.579-1.261-8.178 4.397m10 0C66.849 74.7 65.842 76.242 66.8 77.2c.958.958 2.5-.049 7.217-4.717 3.299-3.265 5.855-6.368 5.678-6.897-.748-2.246-2.579-1.261-8.178 4.397M36.362 75.5c-.995 2.592.449 4.5 3.407 4.5 1.557 0 3.371.54 4.031 1.2.933.933 1.2.618 1.2-1.418C45 75.22 44.021 74 40.362 74c-2.122 0-3.644.571-4 1.5m75.265.029c-.345.899-.627 2.778-.627 4.175 0 1.918.307 2.287 1.25 1.507.688-.569 2.6-1.186 4.25-1.373 2.443-.275 3-.802 3-2.838 0-2.151-.506-2.542-3.623-2.803-2.624-.219-3.795.148-4.25 1.332M43.142 89.858c-1.177 1.177-2.253 4.515-2.934 9.108-1.146 7.719-.476 11.333 2.297 12.398 2.165.83 68.825.83 70.99 0 2.773-1.065 3.443-4.679 2.297-12.398C114.058 87.279 116.543 88 78 88c-30.827 0-33.122.122-34.858 1.858m7.081 5.699C45.684 98.736 48.501 106 54.272 106c4.899 0 7.552-7.039 3.899-10.345-2.292-2.074-5.078-2.109-7.948-.098m48 0C93.684 98.736 96.501 106 102.272 106c4.899 0 7.552-7.039 3.899-10.345-2.292-2.074-5.078-2.109-7.948-.098m-33.817 1.826c-.292.761.15 3.011.981 5L66.898 106h22.204l1.511-3.617C93.166 96.273 92.628 96 78 96c-10.199 0-13.179.303-13.594 1.383m-11.96 1.704c-1.03 1.668 1.287 3.58 2.667 2.2C56.267 100.133 55.545 98 54 98c-.485 0-1.184.489-1.554 1.087m48 0c-1.03 1.668 1.287 3.58 2.667 2.2 1.154-1.154.432-3.287-1.113-3.287-.485 0-1.184.489-1.554 1.087M69 101c0 .593 3.667 1 9 1s9-.407 9-1-3.667-1-9-1-9 .407-9 1m-52.286 9.62c-.393.392-.714 2.663-.714 5.047V120h10.11l-.305-4.75-.305-4.75-4.036-.297c-2.22-.163-4.358.024-4.75.417m31.476 7.13c.272 1.412 1.393 1.75 5.81 1.75s5.538-.338 5.81-1.75c.291-1.513-.494-1.75-5.81-1.75s-6.101.237-5.81 1.75m48 0c.272 1.412 1.393 1.75 5.81 1.75s5.538-.338 5.81-1.75c.291-1.513-.494-1.75-5.81-1.75s-6.101.237-5.81 1.75" fill-rule="evenodd"/></svg>