<svg xmlns="http://www.w3.org/2000/svg" width="128" height="125"><path d="M6.047 2.376c-.496 1.306-1.403 4.231-2.014 6.5C3.375 11.32 2.328 13 1.461 13 .423 13 0 14.158 0 17c0 2.2.45 4 1 4s1 .675 1 1.5S1.55 24 1 24c-.653 0-1 17.502-1 50.507v50.508l64.25-.258 64.25-.257.259-50.722c.229-44.882.086-50.656-1.25-50.143-.932.358-1.509.006-1.509-.921 0-.825.675-1.759 1.5-2.076.982-.376 1.5-1.935 1.5-4.513 0-3.367-.274-3.866-1.887-3.444-1.576.412-2.196-.54-3.755-5.762C122.33 3.478 121 .5 120.402.301c-.606-.202-1.872 2.532-2.856 6.168-1.099 4.058-2.294 6.531-3.157 6.531-.954 0-1.389 1.253-1.389 4 0 2.2.45 4 1 4s1 .675 1 1.5-.45 1.5-1 1.5c-.633 0-1 7.333-1 20v20h-13v-3.094c0-2.201-.549-3.237-1.906-3.592-1.252-.327-2.137-1.754-2.579-4.156-2.371-12.887-13.622-24.143-25.765-25.777-4.739-.637-4.75-.648-4.75-4.51 0-2.576.45-3.871 1.345-3.871 1.711 0 4.879-3.442 3.988-4.333-.369-.369-1.462.045-2.43.921-1.091.988-2.546 1.343-3.831.935-1.993-.633-2.506-2.025-2.124-5.773.269-2.644-1.823-2.098-2.514.657-.636 2.536.964 6.593 2.601 6.593.531 0 .965 1.967.965 4.371v4.371l-4.75.639c-12.143 1.634-23.394 12.89-25.765 25.777-.442 2.402-1.327 3.829-2.579 4.156-1.357.355-1.906 1.391-1.906 3.592V64H15V44c0-12.667-.367-20-1-20-.55 0-1-.675-1-1.5s.45-1.5 1-1.5 1-1.8 1-4c0-2.694-.441-4-1.352-4-.816 0-2.048-2.574-3.111-6.5C8.668-.408 7.51-1.471 6.047 2.376m.229 7.075C5.232 12.853 5.289 13 7.661 13c2.103 0 2.371-.338 1.785-2.25-1.416-4.631-2.065-4.897-3.17-1.299m112.892-.504c-1.337 3.835-1.125 4.349 1.596 3.884 1.754-.3 1.825-.658.759-3.796l-1.178-3.464-1.177 3.376M.272 17c0 2.475.195 3.488.434 2.25.238-1.238.238-3.262 0-4.5C.467 13.512.272 14.525.272 17M2 17.25c0 .848 1.767 1.25 5.5 1.25s5.5-.402 5.5-1.25S11.233 16 7.5 16 2 16.402 2 17.25m113 0c0 .848 1.767 1.25 5.5 1.25s5.5-.402 5.5-1.25-1.767-1.25-5.5-1.25-5.5.402-5.5 1.25M5 22.5c0 1 1 1.5 3 1.5s3-.5 3-1.5S10 21 8 21s-3 .5-3 1.5m112 0c0 1 1 1.5 3 1.5s3-.5 3-1.5-1-1.5-3-1.5-3 .5-3 1.5M.464 74.5c0 28.05.128 39.669.285 25.82.157-13.849.157-36.799 0-51C.593 35.119.465 46.45.464 74.5M2 29c0 2.97.056 3 5.5 3s5.5-.03 5.5-3-.056-3-5.5-3-5.5.03-5.5 3m113 0c0 2.97.056 3 5.5 3s5.5-.03 5.5-3-.056-3-5.5-3-5.5.03-5.5 3m-56.65 1.928c-4.105 2.503-9.108 12.699-9.973 20.322L47.725 57h32.55l-.652-5.75C78.295 39.544 70.894 29.007 64 29.007c-1.375 0-3.918.865-5.65 1.921m-10.523 2.967c-6.929 4.394-11.256 10.727-12.734 18.637l-.852 4.561 5.629-.297 5.629-.296.733-6c.432-3.534 2.104-8.774 4.068-12.75 1.834-3.712 3.055-6.75 2.713-6.75-.342 0-2.676 1.303-5.186 2.895M77.7 37.75c1.964 3.976 3.636 9.216 4.068 12.75l.733 6 5.623.296 5.624.296-.746-3.796c-1.735-8.828-5.764-14.921-12.829-19.401C77.663 32.303 75.329 31 74.987 31c-.342 0 .879 3.038 2.713 6.75M2 35.5C2 36.652 3.278 37 7.5 37c4.222 0 5.5-.348 5.5-1.5 0-1.152-1.278-1.5-5.5-1.5-4.222 0-5.5.348-5.5 1.5m113 0c0 1.152 1.278 1.5 5.5 1.5 4.222 0 5.5-.348 5.5-1.5 0-1.152-1.278-1.5-5.5-1.5-4.222 0-5.5.348-5.5 1.5M2 81.5V123h11V40H2v41.5m113 0V123h11V40h-11v41.5M31 62c0 1.96.667 2 33 2s33-.04 33-2-.667-2-33-2-33 .04-33 2m-15 5.75C16 68.733 26.267 69 64 69c37.733 0 48-.267 48-1.25s-10.267-1.25-48-1.25c-37.733 0-48 .267-48 1.25m0 29.75c0 24.833.052 25.5 2 25.5 1.916 0 2-.667 2-15.864 0-15.65.034-15.897 2.537-18.401 3.567-3.566 6.919-4.168 11.3-2.026 5.088 2.488 6.039 6.011 6.107 22.624.043 10.602.348 13.737 1.306 13.418.911-.302 1.325-4.555 1.526-15.659.309-17.036 1-19.203 6.72-21.091 3.608-1.19 9.388.444 11.132 3.147.48.744 1.097 8.552 1.372 17.352.417 13.333.75 16 2 16s1.583-2.667 2-16c.275-8.8.892-16.608 1.372-17.352 1.744-2.703 7.524-4.337 11.132-3.147 5.72 1.888 6.411 4.055 6.72 21.091.201 11.104.615 15.357 1.526 15.659.958.319 1.263-2.816 1.306-13.418.068-16.613 1.019-20.136 6.107-22.624 4.381-2.142 7.733-1.54 11.3 2.026 2.503 2.504 2.537 2.751 2.537 18.401 0 15.197.084 15.864 2 15.864 1.948 0 2-.667 2-25.5V72H16v25.5m9.57-21.296c-1.313 1.874-1.342 2.509-.192 4.25 1.797 2.722 5.654 3.223 7.316.95 1.72-2.352 1.648-3.919-.265-5.833-2.214-2.213-5.049-1.951-6.859.633M49.2 75.2c-2.805 2.805-.692 7.8 3.3 7.8s6.105-4.995 3.3-7.8c-.66-.66-2.145-1.2-3.3-1.2-1.155 0-2.64.54-3.3 1.2m23 0c-2.805 2.805-.692 7.8 3.3 7.8 1.155 0 2.64-.54 3.3-1.2.66-.66 1.2-2.145 1.2-3.3 0-1.155-.54-2.64-1.2-3.3-.66-.66-2.145-1.2-3.3-1.2-1.155 0-2.64.54-3.3 1.2m23.425.318c-1.897 1.896-2.004 2.906-.59 5.548 1.4 2.615 5.479 2.466 7.395-.27 1.313-1.874 1.342-2.509.192-4.25-1.737-2.63-4.926-3.099-6.997-1.028m-68.289 2.049c-.834 2.172 1.282 4.215 2.797 2.7C31.413 78.987 30.62 76 29 76c-.585 0-1.333.705-1.664 1.567m23.044-.115c-.697 1.815.315 3.548 2.072 3.548 1.53 0 2.458-1.915 1.817-3.75-.597-1.713-3.206-1.577-3.889.202m23.338-.16c-.293.764-.17 1.977.274 2.694 1.121 1.815 4.232.414 3.82-1.721-.415-2.159-3.369-2.861-4.094-.973m23.618.275c-.834 2.172 1.282 4.215 2.797 2.7C101.413 78.987 100.62 76 99 76c-.585 0-1.333.705-1.664 1.567M24.174 90.314C22.139 92.481 22 93.599 22 107.814V123h15v-15.326c0-14.726-.09-15.41-2.314-17.5-3.075-2.888-7.725-2.826-10.512.14m23 0C45.139 92.481 45 93.599 45 107.814V123h15v-15.326c0-14.726-.09-15.41-2.314-17.5-3.075-2.888-7.725-2.826-10.512.14m23 0C68.139 92.481 68 93.599 68 107.814V123h15v-15.326c0-14.726-.09-15.41-2.314-17.5-3.075-2.888-7.725-2.826-10.512.14m23 0C91.139 92.481 91 93.599 91 107.814V123h15v-15.326c0-14.726-.09-15.41-2.314-17.5-3.075-2.888-7.725-2.826-10.512.14" fill-rule="evenodd"/></svg>