<svg xmlns="http://www.w3.org/2000/svg" width="128" height="128"><path d="M41.655 5.829C40.168 7.472 40 12.13 40 51.829V96H29.2c-12.008 0-13.2.522-13.2 5.783 0 1.861-.925 7.007-2.056 11.434-1.13 4.428-1.819 8.666-1.531 9.417.741 1.931 96.463 2.045 96.993.116.189-.687 1.046-8.783 1.905-17.99 1.068-11.452 2.055-17.445 3.125-18.972 1.149-1.64 1.564-4.723 1.564-11.609 0-9.008-.112-9.481-2.836-12.028-1.956-1.828-3.016-4.001-3.418-7.002-1.494-11.156-11.842-19.703-22.919-18.929C74.507 37.081 66 46.615 66 59.559v6.331l-4.75.305-4.75.305-.308 4.828c-.169 2.655.128 5.355.661 6 1.001 1.212 1.629 4.414 2.632 13.422l.584 5.25H52V51.655c0-41.691-.109-44.444-1.829-46-2.415-2.186-6.455-2.103-8.516.174m3.033 2.817C44.309 9.024 44 28.833 44 52.667 44 95.409 44.027 96 46.011 96c1.987 0 2.007-.504 1.75-43.667-.25-41.83-.558-46.203-3.073-43.687m64.017 22.421-4.795 4.938 5.045 5.045L114 46.095l5.048-5.047L124.095 36l-5-5c-2.75-2.75-5.134-4.971-5.297-4.936-.164.035-2.456 2.286-5.093 5.003m3.253 3.483c-1.062 1.281-.997 1.84.378 3.214 1.552 1.553 1.776 1.553 3.328 0 1.375-1.374 1.44-1.933.378-3.214-.708-.852-1.627-1.55-2.042-1.55-.415 0-1.334.698-2.042 1.55m-31.79 7.596c-6.391 3.163-9.525 8.486-10.006 16.993L69.774 66h4.712c3.946 0 5.167-.488 7.514-3 2.777-2.973 2.9-3 13.533-3h10.73l-.546-4.072c-.771-5.746-4.775-11.294-9.967-13.807-5.562-2.693-10.106-2.686-15.582.025M20.705 55.067l-4.795 4.938 5.045 5.045L26 70.095l5.048-5.047L36.095 60l-5-5c-2.75-2.75-5.134-4.971-5.297-4.936-.164.035-2.456 2.286-5.093 5.003m3.253 3.483c-1.062 1.281-.997 1.84.378 3.214 1.552 1.553 1.776 1.553 3.328 0 1.375-1.374 1.44-1.933.378-3.214C27.334 57.698 26.415 57 26 57c-.415 0-1.334.698-2.042 1.55m61.122 6.853c-.738.89-1.057 4.456-.872 9.75.232 6.623.602 8.347 1.792 8.347 1.08 0 1.585-1.33 1.805-4.75.249-3.884.649-4.75 2.195-4.75 1.546 0 1.946.866 2.195 4.75.22 3.42.725 4.75 1.805 4.75s1.585-1.33 1.805-4.75C96.054 74.866 96.454 74 98 74c1.546 0 1.946.866 2.195 4.75.22 3.42.725 4.75 1.805 4.75s1.585-1.33 1.805-4.75c.249-3.884.649-4.75 2.195-4.75 1.546 0 1.946.866 2.195 4.75.22 3.42.725 4.75 1.805 4.75 1.19 0 1.56-1.724 1.792-8.347.185-5.294-.134-8.86-.872-9.75-1.674-2.016-24.166-2.016-25.84 0M60 72c0 1.867.667 2 10 2s10-.133 10-2-.667-2-10-2-10 .133-10 2M8.705 79.067 3.91 84.005l5.045 5.045L14 94.095l5.048-5.047L24.095 84l-5-5c-2.75-2.75-5.134-4.971-5.297-4.936-.164.035-2.456 2.286-5.093 5.003m54.442 5.683c.413 3.713.773 7.763.802 9 .046 2.019.552 2.25 4.929 2.25 2.709 0 5.316.556 5.864 1.25.543.688 1.239 3.826 1.548 6.974.308 3.149.845 6.186 1.194 6.75.732 1.184 28.488 1.452 28.565.276.027-.412.607-5.812 1.29-12 .847-7.675.911-11.284.201-11.358-.572-.059-6.215-.091-12.54-.071-13.063.041-15-.795-15-6.476V78H62.396l.751 6.75m-51.189-2.2c-1.062 1.281-.997 1.84.378 3.214 1.552 1.553 1.776 1.553 3.328 0 1.375-1.374 1.44-1.933.378-3.214C15.334 81.698 14.415 81 14 81c-.415 0-1.334.698-2.042 1.55M98 92c0 1.333.667 2 2 2s2-.667 2-2-.667-2-2-2-2 .667-2 2m0 11c0 4.333.267 5 2 5s2-.667 2-5-.267-5-2-5-2 .667-2 5m-78-1c0 1.949.667 2 26 2s26-.051 26-2-.667-2-26-2-26 .051-26 2m-.482 7.25c-1.362 4.062-2.574 10.028-2.127 10.474 1.195 1.195 3.365-.755 3.918-3.521.327-1.633.89-4.147 1.251-5.586.508-2.026.286-2.617-.983-2.617-.902 0-1.828.563-2.059 1.25m8 0c-1.362 4.062-2.574 10.028-2.127 10.474 1.195 1.195 3.365-.755 3.918-3.521.327-1.633.89-4.147 1.251-5.586.508-2.026.286-2.617-.983-2.617-.902 0-1.828.563-2.059 1.25m8.005 0c-.769 2.321-2.512 9.244-2.517 10-.003.412 1.099.75 2.449.75 2.065 0 2.548-.595 3.044-3.75 1.303-8.276 1.305-8.25-.669-8.25-1.041 0-2.079.563-2.307 1.25m7.978 2.5C42.111 120.58 41.935 120 46 120s3.889.58 2.499-8.25C48.056 108.932 47.435 108 46 108s-2.056.932-2.499 3.75m9.083-1.553c1.365 9.625 1.437 9.803 3.961 9.803 2.837 0 2.824.078 1.125-6.5-.97-3.756-1.804-5.075-3.352-5.303-1.644-.241-1.995.164-1.734 2m8.435-1.52c.086 3.64 2.872 10.871 4.296 11.145 2.005.386 2.02.12.351-6.321-.832-3.207-1.9-5.115-2.981-5.323-.927-.179-1.676.046-1.666.499m8 0c.086 3.64 2.872 10.871 4.296 11.145 2.005.386 2.02.12.351-6.321-.832-3.207-1.9-5.115-2.981-5.323-.927-.179-1.676.046-1.666.499m10.17 9.073c.296 1.544 1.891 1.783 13.573 2.029 12.726.268 13.238.201 13.238-1.75 0-1.939-.602-2.029-13.573-2.029-12.389 0-13.544.153-13.238 1.75" fill-rule="evenodd"/></svg>