<svg xmlns="http://www.w3.org/2000/svg" width="128" height="128"><path d="M58.648 4.967c-6.99 2.242-13.863 9.415-15.765 16.453-1.321 4.886-.622 13.25 1.44 17.238C45.996 41.893 50.799 47 52.168 47c1.967 0 1.861-2.971-.179-5.011-3.074-3.074-5.941-9.861-5.967-14.125-.013-2.072 1.176-5.928 2.762-8.965 2.254-4.315 3.8-5.861 8.115-8.115 3.037-1.586 6.893-2.775 8.965-2.762 4.617.028 11.406 3.088 14.673 6.612 2.274 2.454 2.683 2.574 4.065 1.193 1.381-1.381 1.216-1.856-1.639-4.711-1.747-1.746-4.57-3.895-6.274-4.777-3.653-1.889-13.981-2.674-18.041-1.372m.802 8.44c-9.329 4.063-12.319 16.841-5.764 24.632 2.352 2.795 2.757 2.946 4.154 1.55 1.397-1.397 1.309-1.801-.896-4.149-1.906-2.028-2.444-3.681-2.444-7.501 0-4.201.466-5.367 3.269-8.17s3.969-3.269 8.17-3.269c3.794 0 5.476.541 7.451 2.397 2.138 2.009 2.803 2.188 4.106 1.106 1.399-1.161 1.377-1.49-.221-3.284-3.925-4.411-11.9-5.893-17.825-3.312m-43.57 7.387C6.214 25.844 1.587 37.53 5.398 47.268c2.484 6.347 4.209 8.303 6.006 6.812 1.272-1.056 1.144-1.825-.969-5.798-2.994-5.632-3.086-10.306-.314-16.032 3.972-8.205 14.154-12.251 22.281-8.855 4.752 1.985 5.237 1.989 5.98.051.429-1.118-.593-2.093-3.643-3.478-6.175-2.803-12.438-2.528-18.859.826m44.575 1.661C58.907 24.002 58 26.052 58 28c0 3.585 3.828 8 6.938 8 1.435 0 2.784 1.492 4.613 5.101 1.422 2.806 2.373 5.654 2.114 6.329-.259.676-2.395 3.8-4.746 6.944l-4.274 5.716-2.059-2.059c-1.703-1.703-1.847-2.359-.833-3.795C61.271 52.086 65 45.247 65 44.613c0-.256-.787-.618-1.75-.804-1.218-.236-2.932 1.489-5.639 5.676-7.452 11.523-25.508 27.73-33.46 30.032-2.097.608-2.276.429-1.668-1.668.71-2.452 9.128-15.491 10.581-16.389.46-.284 1.327.402 1.928 1.525.883 1.651 1.466 1.84 3.05.993 1.856-.994 1.871-1.181.296-3.585-1.624-2.478-1.579-2.618 1.929-6.126 3.508-3.508 3.648-3.553 6.126-1.929 2.401 1.573 2.592 1.559 3.571-.271.92-1.719.065-2.512-7.715-7.155-4.812-2.872-9.794-6.502-11.071-8.067-2.725-3.338-7.008-3.795-9.523-1.016-2.564 2.833-2.065 6.694 1.209 9.349 1.575 1.277 4.086 4.447 5.579 7.045l2.715 4.723-4.437 5.777c-5.769 7.51-8.916 13.787-8.53 17.013.709 5.927 16.095 12.845 26.838 12.068l5.759-.416-1.422 4.556c-.781 2.506-1.69 5.793-2.018 7.306-.522 2.4-1.071 2.75-4.318 2.75-5.591 0-7.03 2.216-7.03 10.829V124h44v-7.345C80 108.261 78.551 106 73.171 106c-1.744 0-3.197-.112-3.23-.25-1.21-5.153-3.424-22.951-2.895-23.278.408-.252 2.448.254 4.534 1.126 4.985 2.083 16.898 2.927 21.864 1.55 2.169-.602 4.089-.949 4.266-.771.177.177-1.359 5.115-3.413 10.973C91.619 102.983 90.1 106 88.935 106 85.517 106 84 109.328 84 116.829V124h40v-7.345c0-7.49-.899-9.44-5.021-10.884-1.015-.355-2.646-5.164-4.902-14.455l-3.381-13.922 4.658-5.997c11.429-14.718 11.648-31.636.596-45.962-3.212-4.163-4.808-5.43-6.822-5.413-3.925.033-9.815 3.045-17.522 8.962l-6.893 5.292-5.357-2.627C75.469 29.742 74 28.458 74 26.965 74 23.832 69.599 20 66 20c-1.948 0-3.998.907-5.545 2.455m2.585 2.997c-2.657 3.201 1.245 8.118 4.71 5.936 2.222-1.399 2.765-4.063 1.21-5.936a3.837 3.837 0 0 0-5.92 0m42.048-.361c-2.732 1.092-14.682 9.444-15.571 10.881-.32.519.79 1.652 2.467 2.52 2.568 1.328 2.887 1.881 2.02 3.501-1.01 1.887-1.099 1.883-4.603-.184l-3.573-2.108-4.063 4.064-4.064 4.063 2.108 3.573c2.067 3.504 2.071 3.593.184 4.603-1.622.868-2.175.545-3.518-2.053l-1.594-3.082-3.464 4.316c-4.381 5.459-9.839 16.322-8.935 17.785 3.735 6.044 38.049-25.697 45.475-42.064 3.141-6.923 2.607-8.004-2.869-5.815M20.5 26.959c-7.222 3.007-10.642 13.308-6.57 19.791 1.122 1.788 2.511 3.25 3.087 3.25 1.88 0 2.196-2.858.572-5.176-2.611-3.728-1.994-7.619 1.811-11.424 4.232-4.232 8.162-4.481 12.543-.794 2.55 2.145 3.363 2.385 4.602 1.356 1.332-1.105 1.301-1.475-.267-3.208-3.862-4.266-10.696-5.91-15.778-3.795m90.954 6.144c-1.018 2.256-3.306 6.15-5.086 8.653l-3.235 4.551 2.643 3.597c1.454 1.978 2.756 3.765 2.893 3.972.404.608 4.653-6.884 6.985-12.316 2.143-4.993 2.144-5.036.229-8.789-1.058-2.074-2.071-3.771-2.251-3.771-.181 0-1.161 1.846-2.178 4.103m-39.933.863C70.836 35.074 74.63 43 75.846 43 76.791 43 81 38.677 81 37.706 81 37.093 73.693 33 72.599 33c-.265 0-.75.435-1.078.966m-47.075 5.121c-1.03 1.668 1.287 3.58 2.667 2.2C28.267 40.133 27.545 38 26 38c-.485 0-1.184.489-1.554 1.087m5.744 5.229c-.632.792-.057 2.594 1.737 5.443l2.682 4.258 2.667-2.783 2.666-2.783-4.403-2.66c-3.279-1.981-4.644-2.357-5.349-1.475m88.81.497c0 .447-1.773 3.753-3.94 7.346-3.891 6.451-3.923 6.588-2.602 10.937l1.339 4.404 2.798-6c2.555-5.477 4.633-17.5 3.025-17.5-.341 0-.62.366-.62.813M92.687 57.812l-7.766 7.811 2.492 2.689C88.783 69.79 90.597 71 91.443 71c.846 0 4.566-2.868 8.265-6.373l6.726-6.372-2.731-4.128c-1.502-2.27-2.848-4.127-2.991-4.127-.142 0-3.754 3.515-8.025 7.812M49.119 66.38l-6.323 6.379 1.717 2.621c2.244 3.424 3.268 3.314 8.726-.938 5.897-4.595 7.633-8.462 5.357-11.936C57.693 61.128 56.614 60 56.198 60c-.416 0-3.601 2.871-7.079 6.38m52.584 2.156L95.907 74h5.924c7.457 0 8.725-1.221 7.19-6.924-.604-2.242-1.193-4.06-1.31-4.04-.116.021-2.819 2.496-6.008 5.5m-27 4.412L67.906 77.5l3.038 1.249c2.675 1.1 3.817.938 9.547-1.356C84.071 75.96 87 74.638 87 74.455c0-.182-1.237-1.62-2.75-3.195l-2.75-2.864-6.797 4.552m-40.505 6.004c-2.367 1.604-4.842 3.143-5.5 3.419-1.958.822 2.426 3.724 4.589 3.038 1.04-.33 3.918-1.497 6.394-2.592l4.503-1.992-2.266-2.413c-1.247-1.326-2.526-2.404-2.842-2.394-.317.01-2.512 1.331-4.878 2.934m20.599-.509c-2.181 1.921-2.406 2.493-1.168 2.968 2.344.9 6.696.674 8.371-.434 1.271-.84 1.118-1.292-1-2.962-3.096-2.44-2.932-2.452-6.203.428M86 79.5l-4.5 2.41 3.201.045C88.97 82.015 98 80.037 98 79.042c0-.678-5.006-2.132-6.875-1.997-.344.025-2.65 1.13-5.125 2.455m18.256 1.75c-.544.688-2.585 5.75-4.536 11.25-1.95 5.5-3.858 10.787-4.24 11.75-.63 1.589.142 1.75 8.413 1.75 5.009 0 9.107-.237 9.107-.526 0-2.156-6.409-25.474-7.001-25.474-.415 0-1.199.563-1.743 1.25M43 86.092 39.5 88.1l5.724-.475c6.715-.557 9.089-1.6 6.21-2.727-3.043-1.192-4.679-.96-8.434 1.194m16.106 1.849c-2.76 1.431-3.719 2.812-5.14 7.406C50.361 106.997 49.985 106 57.981 106c7.009 0 7.019-.004 6.943-2.75-.042-1.513-.605-5.971-1.25-9.909L62.5 86.183l-3.394 1.758m-18.417 22.703c-.379.379-.689 2.639-.689 5.023V120h36.11l-.305-4.75-.305-4.75-17.061-.273c-9.383-.15-17.37.038-17.75.417m48.003-.002c-.381.38-.692 2.641-.692 5.025V120h32.11l-.305-4.75-.305-4.75-15.058-.275c-8.282-.151-15.37.036-15.75.417" fill-rule="evenodd"/></svg>