<svg xmlns="http://www.w3.org/2000/svg" width="128" height="128"><path d="M81.314 1.797c-6.053 2.162-13.16 6.639-13.996 8.817-1.143 2.978 1.287 3.589 4.288 1.079C78.295 6.1 82.911 4.514 92.5 4.516c7.801.002 9.672.356 14.04 2.654 14.435 7.593 20.94 24.399 15.307 39.542-1.63 4.384-3.983 7.674-9.694 13.56-9.977 10.281-15.849 13.229-26.147 13.128-14.316-.14-24.657-6.411-28.76-17.439-5.27-14.169-3.689-23.462 6.232-36.61.66-.876.553-1.71-.328-2.573-1.065-1.042-1.936-.54-4.725 2.722-7.095 8.301-9.819 22.426-6.521 33.821 1.343 4.638 1.287 5.056-1.453 11-1.567 3.399-5.063 8.498-7.769 11.331C38.18 80.366 37.314 83 40.267 83c.632 0 2.858-1.669 4.947-3.709 3.588-3.504 3.892-3.614 5.514-1.992 1.622 1.623 1.198 2.238-7.708 11.181-8.827 8.863-9.537 9.362-11.204 7.853-1.694-1.532-1.636-1.774 1.202-5.006 3.215-3.662 3.592-4.832 1.892-5.883-.6-.37-2.756.953-4.792 2.941S25.51 92 24.403 92c-1.242 0-6.305 4.349-13.208 11.346C.963 113.716 0 115.014 0 118.423 0 123.622 4.378 128 9.577 128c3.409 0 4.707-.963 15.077-11.195C31.864 109.691 36 104.855 36 103.538c0-1.31 3.955-5.975 10.75-12.682 8.146-8.04 12.202-11.259 16.743-13.289l5.993-2.679 8.6 1.739c8.097 1.636 8.998 1.64 15.42.055 8.593-2.121 14.738-6.05 22.592-14.446C124.979 52.742 127.5 46.831 127.5 35.5c0-7.664-.396-9.846-2.67-14.696-3.422-7.301-10.403-14.262-17.614-17.563C99.639-.227 88.693-.838 81.314 1.797m6.439 8.333c-6.221.922-9.944 3.332-17.875 11.571-7.933 8.242-10.317 13.659-9.688 22.015C61.229 57.497 70.709 66.863 84.57 67.8c8.827.596 14.478-2.136 23.356-11.292 8.302-8.561 10.199-12.469 10.199-21.008 0-7.267-1.601-11.695-6.07-16.784-6.336-7.217-14.374-10.057-24.302-8.586m1.9 3.737c-1.677.66-1.7.849-.25 2.053 1.279 1.061 1.896 1.077 3.097.08 3-2.49 1.299-3.764-2.847-2.133m6.32 3.662-2.376 2.529 2.988 2.989 2.989 2.988 3.463-3.591 3.463-3.592-2.361-1.926c-3.168-2.584-5.321-2.426-8.166.603M78.139 18.75l-3.285 2.75 3.078 2.942 3.077 2.941L84.499 24l3.491-3.382-2.17-2.309c-2.777-2.957-3.684-2.905-7.681.441m27.049 6.556-3.203 3.305 3.001 2.875 3.001 2.875 2.506-2.355c2.897-2.721 3.134-4.666.95-7.783-2.034-2.904-2.462-2.83-6.255 1.083M87 26.5l-3.426 3.535 3 3 3 3L93 32.5l3.426-3.535-3-3-3-3L87 26.5m-18.637 2.091c-2.869 3.761-2.656 5.56.923 7.818 1.311.827 2.383.335 5.183-2.379l3.53-3.421-2.687-2.805C73.835 26.262 72.283 25 71.864 25c-.419 0-1.995 1.616-3.501 3.591m26.825 6.715-3.203 3.305 3.012 2.886 3.012 2.886 3.495-3.387 3.495-3.387-2.687-2.805C100.835 33.262 99.348 32 99.009 32c-.339 0-2.058 1.487-3.821 3.306m-18.482 1.483-3.727 3.817 3.034 2.907 3.034 2.906 3.709-3.708 3.708-3.708-3.015-3.016-3.016-3.015-3.727 3.817M112 35.5c-.997 1.201-.981 1.818.08 3.097 1.204 1.45 1.393 1.427 2.053-.25 1.631-4.146.357-5.847-2.133-2.847m-48 5c0 3.215.212 3.569 1.5 2.5.825-.685 1.5-1.81 1.5-2.5s-.675-1.815-1.5-2.5c-1.288-1.069-1.5-.715-1.5 2.5m40 3.001-3.383 3.49 2.941 3.077 2.942 3.078 2.75-3.285c3.346-3.997 3.398-4.904.441-7.681l-2.309-2.17L104 43.501m-18.989 1.988-3.381 3.488 2.359 2.512c3.068 3.265 3.978 3.172 7.823-.795l3.203-3.305-2.812-2.695C90.656 43.213 89.166 42 88.891 42c-.274 0-2.02 1.57-3.88 3.489m-17.515.516-2.922 3.049 1.871 3.473C67.473 54.437 68.606 56 68.961 56c.356 0 2.181-1.583 4.056-3.518l3.409-3.517-3.004-3.005-3.005-3.005-2.921 3.05m26.717 7.275c-3.731 3.849-3.902 4.787-1.304 7.138 1.734 1.569 2.176 1.589 4.823.221 1.602-.829 3.521-2.238 4.262-3.132 1.166-1.404.947-2.028-1.609-4.584l-2.959-2.958-3.213 3.315m-19.211 2.218c-3.291 3.395-3.333 3.541-1.446 4.973 3.58 2.718 5.5 2.825 8.029.449C82.913 59.672 84 58.133 84 57.5c0-1.099-4.095-5.5-5.118-5.5-.269 0-2.015 1.574-3.88 3.498m10.034 6.959C83.927 63.793 84.185 64 86.961 64c2.12 0 3.065-.423 2.789-1.25-.624-1.877-3.264-2.041-4.714-.293M53.275 67.37l-2.133 4.392 2.679 2.536 2.679 2.537 4.262-2.194 4.261-2.193-4.807-4.735-4.807-4.735-2.134 4.392m38.084 13.075c-3.203 1.394-4.138 3.286-10.897 22.055-.991 2.75-2.419 5.732-3.174 6.626-3.931 4.654-1.954 13.444 3.679 16.357 4.137 2.139 6.304 1.916 13.346-1.372 3.403-1.588 10.619-4.566 16.037-6.616 8.95-3.387 9.983-4.048 11.317-7.241 1.756-4.202.462-8.468-3.32-10.946-1.588-1.041-2.347-2.496-2.347-4.5 0-4.044-4.807-8.808-8.888-8.808-2.059 0-3.402-.673-4.157-2.085-.614-1.146-2.64-2.721-4.503-3.5-3.978-1.662-3.198-1.665-7.093.03m.891 4.305c-1.084.963-3.384 5.733-5.111 10.602-5.219 14.717-4.118 15.267 5.828 2.909C96.835 93.454 100 88.755 100 87.817 100 86.274 96.526 83 94.888 83c-.366 0-1.554.787-2.638 1.75m12.214 5.991c-.839.614-10.631 12.559-14.805 18.059-.685.902-.492 1.796.632 2.919 1.491 1.492 1.995 1.322 6.414-2.168a715.9 715.9 0 0 1 9.587-7.414c4.967-3.759 6.726-7.29 5.004-10.042-1.093-1.747-5.188-2.558-6.832-1.354m-81.514 6.82c-1.101 1.325-.744 2.111 2.368 5.223 3.46 3.46 3.758 3.568 5.378 1.949 1.619-1.619 1.525-1.909-1.687-5.224-3.858-3.98-4.265-4.111-6.059-1.948m-6.255 6.224c-1.572 1.736-1.452 2.046 2.14 5.554 3.66 3.574 3.869 3.646 5.47 1.876 1.572-1.736 1.452-2.046-2.14-5.554-3.66-3.574-3.869-3.646-5.47-1.876M105 108.11c-9.583 7.713-10.362 8.495-9.637 9.669.921 1.49 20.84-6.199 22.488-8.68 1.199-1.806 1.164-2.427-.256-4.594-.902-1.378-2.418-2.489-3.368-2.469-.95.02-5.102 2.753-9.227 6.074m-97.297 4.682c-4.088 4.187-4.648 7.043-1.874 9.553 2.872 2.6 5.453 1.974 9.668-2.342l3.902-3.996-3.396-3.504c-1.867-1.926-3.666-3.503-3.996-3.503-.331 0-2.267 1.706-4.304 3.792m72.332-.858c-3.699 6.912 4.305 14.234 10.524 9.628 1.862-1.379 1.738-1.644-3.021-6.5-2.73-2.784-5.301-5.062-5.715-5.062-.414 0-1.218.87-1.788 1.934" fill-rule="evenodd"/></svg>