<svg xmlns="http://www.w3.org/2000/svg" width="128" height="128"><path d="M75 4.402c-9.075 2.398-16.779 4.198-17.121 4-.341-.198-.893-1.72-1.225-3.381-.66-3.303-1.843-3.624-7.654-2.079-1.925.511-5.465 1.44-7.867 2.064L36.767 6.14l.622 3.89c.716 4.481 3.429 3.275-22.389 9.948L.5 23.725l.228 3.702c.253 4.129 3.341 9.143 6.187 10.046 1.412.448 2.025 1.974 2.536 6.309C11.691 62.805 22.568 84 30.091 84c1.111 0 11.767-2.522 23.68-5.604 16.925-4.38 21.757-5.309 22.105-4.25.809 2.459 6.888 7.854 8.851 7.854 1.555 0 1.845.557 1.503 2.885-.233 1.587.086 3.837.709 5 .961 1.796.855 2.115-.704 2.115C83.268 92 82 94.095 82 99c0 4.887 1.268 7 4.2 7 1.119 0 1.8.739 1.8 1.953 0 3.335 2.267 7.134 5.145 8.622 1.711.885 5.787 1.425 10.751 1.425h7.994l.305 4.75.305 4.75h15v-57h-11L116 86l-.5 15.5-2.75.316c-2.58.297-2.75.078-2.75-3.55 0-4.218-1.384-6.266-4.235-6.266-1.505 0-1.649-.349-.8-1.934 1.45-2.711 1.29-5.673-.495-9.125-1.428-2.761-1.392-3.108.538-5.18 2.406-2.583 3.437-5.952 2.692-8.8-.413-1.58.252-2.332 3.124-3.532 9.755-4.076 13.225-11.899 10.533-23.749-.852-3.752-1.394-6.92-1.203-7.041.19-.12 1.696-.674 3.346-1.23 2.649-.893 2.967-1.413 2.714-4.449-.388-4.652-4.214-12.752-8.134-17.216-4.537-5.168-12.64-8.89-20.325-9.337C92.767.116 88.157.926 75 4.402m-2.5 5.119a5910.75 5910.75 0 0 1-43.069 11.07c-12.138 3.062-22.688 5.95-23.443 6.417-1.103.681-1.141 1.361-.193 3.44 2.365 5.193 4.629 5.12 28.226-.909C45.947 26.493 57.311 24 59.275 24c4.468 0 9.15 3.727 10.742 8.55.706 2.14 2.267 4.063 4.045 4.982 2.633 1.361 3.672 1.302 11.478-.656 6.417-1.609 8.871-1.865 9.722-1.014.805.805.826 1.45.073 2.203-1.176 1.176-14.66 4.891-17.851 4.918-3.926.033-8.578-3.458-11.298-8.481-2.886-5.33-6.119-7.238-10.433-6.155l-2.528.635 2.348 5.813C58.034 40.887 61 55.695 61 61.888c0 1.994-.419 5.085-.93 6.869-.697 2.431-.616 3.243.327 3.243.691 0 12.418-2.88 26.06-6.399 21.608-5.575 25.176-6.773 27.703-9.3 3.632-3.632 4.49-8.528 2.848-16.263-1.018-4.797-1.665-5.99-3.383-6.235-3.903-.557-2.317-3.147 2.875-4.697 2.75-.82 5.158-1.601 5.352-1.734.193-.133-.373-2.423-1.258-5.089-2.131-6.415-6.713-11.803-12.558-14.765C99.499 3.192 95.867 3.397 72.5 9.521M44.863 8.176c-2.922.779-3.537 1.354-3.126 2.925.32 1.225 1.118 1.78 2.137 1.487.894-.258 3.52-.958 5.834-1.556 3.056-.789 4.054-1.49 3.643-2.559-.632-1.648-3.097-1.734-8.488-.297M40 32.224c-4.125 1.133-7.568 2.109-7.652 2.168-.084.059 1.249 4.158 2.96 9.108 2.836 8.201 3.116 10.132 3.152 21.748l.04 12.733c0-.008 3.323-.878 7.385-1.933 4.062-1.055 7.79-2.323 8.284-2.817 1.66-1.66 2.585-11.455 1.77-18.727-.871-7.761-5.801-23.742-7.439-24.114-.55-.125-4.375.7-8.5 1.834m61.441 1.209c-1.479 1.091-1.664 1.713-.779 2.612 1.559 1.582 6.726-.134 7.161-2.378.412-2.124-3.621-2.272-6.382-.234M27.25 44.694c2.315 6.681 3.169 11.182 3.539 18.656.456 9.205.366 9.827-1.373 9.492-3.744-.721-10.425-16.963-11.917-28.972-.605-4.871-.955-5.564-2.593-5.135-1.6.418-1.803 1.134-1.31 4.63 1.915 13.579 8.389 29.761 13.69 34.222 3.406 2.866 4.716 2.731 6.449-.666 3.98-7.801-1.867-39.927-7.413-40.727-2.079-.301-2.06-.126.928 8.5m-4.777 2.477c.827 5.164 3.568 14.122 4.144 13.545.659-.659-2.389-13.54-3.685-15.574-.792-1.243-.904-.75-.459 2.029m69.328 21.282c-12.43 3.278-11.993 3.032-10.643 5.994 1.644 3.609 3.718 3.888 12.397 1.665 8.777-2.249 9.445-2.706 9.735-6.663.273-3.73-.777-3.821-11.489-.996M120 88.345c0 18.382.652 17.655-15.829 17.655-11.504 0-12.171.11-12.171 2 0 1.1.9 2.9 2 4 1.81 1.81 3.333 2 16 2h14V94c0-19.333-.067-20-2-20-1.907 0-2 .667-2 14.345M92 82c-1.1 1.1-2 2.9-2 4s.9 2.9 2 4 2.9 2 4 2 2.9-.9 4-2 2-2.9 2-4-.9-2.9-2-4-2.9-2-4-2-2.9.9-4 2m2.446 3.087c-1.03 1.668 1.287 3.58 2.667 2.2C98.267 86.133 97.545 84 96 84c-.485 0-1.184.489-1.554 1.087M86 99v3h20v-6H86v3m30 22c0 2.833.222 3 4 3s4-.167 4-3-.222-3-4-3-4 .167-4 3" fill-rule="evenodd"/></svg>