<svg xmlns="http://www.w3.org/2000/svg" width="128" height="128"><path d="M67.571 5.571C65.465 7.678 65.592 9.592 68 12c1.863 1.863 2 3.333 2 21.5V53h-6.031l.266 28.75.265 28.75h51l.265-28.75.266-28.75H110V40.122c0-10.226.309-13.133 1.5-14.122 1.924-1.597 1.931-5.398.013-6.989-2.003-1.663-6.228-.484-7.002 1.954-.674 2.123.962 6.035 2.524 6.035.57 0 .965 5.316.965 13v13h-8v-6.345c0-5.075.4-6.707 2-8.155 2.544-2.302 2.543-4.699-.004-7.004-2.98-2.697-6.996-.68-6.996 3.514 0 1.791.62 3.291 1.5 3.628 1.133.435 1.5 2.264 1.5 7.469V53h-7V37.107c0-13.205.254-15.99 1.5-16.469 2.317-.889 1.914-6.346-.567-7.674-1.608-.86-2.608-.752-4.5.488-2.954 1.936-3.119 4.617-.433 7.048 1.834 1.66 2 3.08 2 17.155V53h-8V43c0-5.757.409-10 .965-10 .53 0 1.477-.957 2.103-2.126 2.462-4.601-3.235-9.307-6.868-5.674-1.663 1.663-1.502 5.305.3 6.8 1.148.953 1.5 3.562 1.5 11.122V53h-7V33.122c0-16.449.259-20.092 1.5-21.122.825-.685 1.5-2.225 1.5-3.422 0-4.283-4.38-6.055-7.429-3.007m.765 1.996c-.331.862-.092 2.077.531 2.7.844.844 1.133.699 1.133-.567 0-.935.45-1.7 1-1.7s1.007.787 1.015 1.75c.013 1.413.187 1.479.908.341.49-.775.66-2.013.377-2.75-.709-1.849-4.229-1.689-4.964.226m19.914 7.095c-1.457.588-1.68 3.954-.318 4.796.513.317 1.103-.669 1.312-2.191l.38-2.767 1.024 2.421c.7 1.656 1.26 2.037 1.773 1.206.413-.668.207-1.87-.457-2.671-1.269-1.528-1.678-1.615-3.714-.794M7.683 17.65C7.308 18.026 7 31.083 7 46.667V75h6v19.592c0 18.135-.15 19.783-2.018 22.157-1.773 2.255-1.85 2.819-.635 4.658 1.765 2.673 4.944 3.159 7.028 1.075 2.168-2.168 2.049-4.139-.375-6.214-1.875-1.605-2-2.95-2-21.49V75h8v9.759c0 8.677-.222 9.899-2 11.009-3.757 2.346-1.97 8.232 2.5 8.232 4.173 0 6.183-5.359 3-8-1.148-.953-1.5-3.562-1.5-11.122V75h7v16c0 14.667-.167 16.167-2 18-1.1 1.1-2 2.45-2 3 0 1.297 3.703 5 5 5 1.297 0 5-3.703 5-5 0-.55-.9-1.9-2-3-1.833-1.833-2-3.333-2-18V75h8v6.345c0 5.075-.4 6.707-2 8.155-2.521 2.282-2.546 4.696-.072 6.935 3.622 3.278 8.149-.466 6.572-5.435-.349-1.1-1.054-2-1.567-2-.513 0-.933-3.15-.933-7v-7h7v12.95c0 9.685-.334 13.152-1.325 13.75-2.178 1.314-2.62 3.934-1.043 6.185 1.863 2.66 4.526 2.703 6.872.111 1.498-1.656 1.616-2.438.676-4.5-.625-1.373-1.597-2.496-2.159-2.496C53.379 101 53 96.182 53 88V75h6.031l-.266-28.75L58.5 17.5l-25.067-.267c-13.786-.147-25.374.041-25.75.417M9 42.482V66h3c2.97 0 3-.056 3-5.5V55h36v11.127l3.25-.314 3.25-.313v-46l-24.25-.268L9 18.964v23.518m97.336-20.915c-.331.862-.092 2.077.531 2.7.844.844 1.133.699 1.133-.567 0-.935.45-1.7 1-1.7s1 .765 1 1.7c0 1.169.322 1.378 1.033.667 1.5-1.5.075-4.367-2.171-4.367-1.059 0-2.195.705-2.526 1.567M77.7 27.341c-.283.737-.113 1.975.377 2.75.721 1.138.895 1.072.908-.341.008-.962.465-1.75 1.015-1.75.55 0 1 .765 1 1.7 0 1.266.289 1.411 1.133.567.623-.623.862-1.838.531-2.7-.735-1.915-4.255-2.075-4.964-.226m20.001 5.291c-.385.386-.701 1.612-.701 2.726 0 1.995.022 1.996 1.468.083 1.329-1.756 1.471-1.774 1.5-.191.018.962.513 1.75 1.102 1.75 1.664 0 .623-4.443-1.119-4.774-.852-.162-1.864.02-2.25.406M112.5 49c.34.55 1.941 1 3.559 1H119v10.941c0 6.215.432 11.208 1 11.559.646.399 1-3.823 1-11.941V48h-4.559c-2.785 0-4.319.389-3.941 1m-47.316 8.75.316 2.75 24.25.268 24.25.268V55H64.867l.317 2.75M17 61v5h32V56H17v5m48.667 1.667c-.367.366-.667 10.941-.667 23.5V109h49V62h-3c-2.97 0-3 .056-3 5.5V73H72v-5.5c0-5.373-.066-5.5-2.833-5.5-1.559 0-3.134.3-3.5.667M74 67v5h32V62H74v5M9 69.982V73h49.133l-.317-2.75-.316-2.75-24.25-.268L9 66.964v3.018M40.18 93.25c.463 3.257 4.214 3.056 4.649-.25.321-2.441.292-2.453-1.219-.5-1.381 1.787-1.55 1.813-1.578.25-.018-.963-.513-1.75-1.102-1.75-.588 0-.925 1.013-.75 2.25m-18.661 4.952c-.915 2.237.129 3.798 2.54 3.798 1.458 0 1.933-.684 1.911-2.75-.028-2.537-.119-2.598-1.165-.794-1.126 1.941-1.14 1.941-1.862 0-.658-1.767-.796-1.791-1.424-.254m28.204 5.458c-1.133 1.8.28 4.34 2.415 4.34 2.318 0 3.574-2.688 1.995-4.267-.844-.844-1.133-.699-1.133.567 0 2.237-1.755 2.197-2.2-.05-.233-1.175-.587-1.369-1.077-.59m-19.245 7.376c-.393.636-.009 1.862.853 2.724 1.292 1.292 1.842 1.342 3.119.282 1.735-1.44 2.089-4.042.55-4.042-.55 0-1.014.787-1.032 1.75-.03 1.639-.119 1.635-1.404-.06-.959-1.264-1.587-1.461-2.086-.654M60 117c0 .639 8.667 1 24 1s24-.361 24-1-8.667-1-24-1-24 .361-24 1m51 0c0 .55 1.575 1 3.5 1s3.5-.45 3.5-1-1.575-1-3.5-1-3.5.45-3.5 1m-99.434 1.202c-.974 2.231.068 3.798 2.524 3.798 2.357 0 3.636-2.674 2.043-4.267-.844-.844-1.133-.699-1.133.567 0 2.233-1.735 2.195-2.272-.05-.39-1.632-.468-1.636-1.162-.048M21.5 121c-.407.659 10.99 1 33.441 1C76.98 122 89 121.647 89 121s-11.814-1-33.441-1c-21.215 0-33.667.366-34.059 1" fill-rule="evenodd"/></svg>