<svg xmlns="http://www.w3.org/2000/svg" width="128" height="128"><path d="M31.208 19.936C17.297 28.598 5.394 36.206 4.756 36.844c-.879.879-.279 2.065 2.481 4.907 3.559 3.666 3.627 3.884 3.079 9.813-.801 8.67 2.435 14.736 9.894 18.542C23.309 71.688 26.146 72 37.441 72h13.52l5.425-3.47 5.425-3.471.609 5.221c.335 2.871.976 9.72 1.424 15.22.462 5.672 1.505 11.321 2.409 13.052 2.398 4.591 10.04 11.158 14.392 12.367 5.708 1.584 20.898 1.369 24.21-.344 6.655-3.442 6.655-13.708 0-17.15-1.621-.838-5.66-1.425-9.805-1.425-5.809 0-7.416-.366-9.132-2.082-1.841-1.841-2.01-2.853-1.465-8.75.34-3.667.939-12.169 1.332-18.892l.715-12.224L95 44.73l8.5-5.322.281-12.888.282-12.888-4.744-4.816L94.575 4l-19.037.094-19.038.094-25.292 15.748m5.072 1.843L14.06 35.5l13.566.279 13.567.279 20.653-12.693c11.36-6.981 21.542-13.294 22.627-14.029 1.689-1.144-.031-1.332-12-1.307L58.5 8.058 36.28 21.779m33.76 1.309C57.688 30.75 47.146 37.454 46.614 37.986 45.626 38.974 48.47 43 50.156 43c.466 0 6.953-3.636 14.417-8.08 12.51-7.448 17.332-9.138 16.177-5.669-.228.687-6.791 5.006-14.583 9.599L52 47.199v9.46c0 5.202.337 9.273.75 9.046.413-.228 11.212-6.827 24-14.666L100 36.787V25.581c0-10.973-.058-11.263-2.805-13.894-1.542-1.478-3.23-2.652-3.75-2.608-.52.043-11.052 6.347-23.405 14.009m14.752-.031c-1.803 1.051-1.385 3.954.565 3.928 2.198-.03 3.706-1.658 3.07-3.315-.734-1.912-1.257-2-3.635-.613M11 40.378c0 .207.615.888 1.367 1.512 1.04.863 1.668.773 2.623-.378 1.066-1.284.86-1.512-1.368-1.512-1.442 0-2.622.17-2.622.378m11.415 1.043c-6.373 2.775-9.661 10.273-7.447 16.981 2.221 6.731 10.47 11.06 16.728 8.778 1.913-.697 2.217-1.047.958-1.101C27.431 65.856 22 59.698 22 54c0-5.702 5.446-11.872 10.654-12.07 1.689-.065 1.676-.144-.154-.93-2.925-1.257-6.581-1.104-10.085.421m18.809.329c6.247 7.124 6.247 17.376 0 24.5C39.793 67.882 39.97 68 43.845 68H48V46.392l-3.298-3.196c-3.459-3.353-6.12-4.459-3.478-1.446m-10.903 5.439c-1.198.579-2.715 2.349-3.371 3.932-1.531 3.695.142 8.144 3.665 9.749 3.895 1.775 4.502 1.338 1.84-1.325C30.907 57.998 30 55.948 30 54s.907-3.998 2.455-5.545c2.546-2.547 1.635-3.088-2.134-1.266m4.719 4.263c-1.555 1.873-1.012 4.537 1.21 5.936 3.465 2.182 7.367-2.735 4.71-5.936a3.837 3.837 0 0 0-5.92 0m38.71 6.375c-7.701 4.632-7.75 4.688-7.75 8.87 0 8.329 4.796 12.873 10.914 10.339 4.074-1.688 5.217-5.263 4.878-15.261l-.292-8.61-7.75 4.662m-4.095 8.002C66.274 69.564 68.775 76 73.606 76 76.9 76 80 73.139 80 70.098c0-5.364-6.811-8.175-10.345-4.269m2.791 3.258c-1.03 1.668 1.287 3.58 2.667 2.2C76.267 70.133 75.545 68 74 68c-.485 0-1.184.489-1.554 1.087M88 81.977c0 1.946.606 2.023 16 2.023h16v36h-18c-17.333 0-18-.074-18-2 0-1.353-.667-2-2.06-2-1.77 0-2.017.53-1.75 3.75l.31 3.75h43v-43l-17.75-.273C88.509 79.962 88 80.012 88 81.977m-20 4.659c0 8.003 4.13 15.044 10.899 18.58 4.665 2.437 6.438 2.784 14.215 2.784 7.553 0 9.186-.3 10.886-2 1.1-1.1 2-2.9 2-4 0-4.119-3.433-6-10.953-6-3.824 0-8.133-.538-9.575-1.195C82.261 93.342 80 89.207 80 84.8v-3.3H68v5.136" fill-rule="evenodd"/></svg>