<svg xmlns="http://www.w3.org/2000/svg" width="128" height="128"><path d="M59.655 5.829C58.477 7.131 58 9.507 58 14.079c0 6.175-.138 6.531-3.603 9.296C49.941 26.93 48 31.389 48 38.067c0 4.451-.412 5.515-3.109 8.035-2.581 2.411-3.04 3.498-2.701 6.401.225 1.923.028 3.497-.436 3.497-.465 0-1.949 1.105-3.299 2.455L36 60.909v31.546c0 30.878.042 31.545 2 31.545 1.907 0 2-.667 2-14.316V95.368l4.937 4.758c10.868 10.476 27.258 10.476 38.126 0L88 95.368v14.316c0 13.649.093 14.316 2 14.316 1.958 0 2-.667 2-31.545V60.909l-2.455-2.454C88.195 57.105 86.711 56 86.246 56c-.464 0-.661-1.574-.436-3.497.339-2.903-.12-3.99-2.701-6.401C80.412 43.582 80 42.518 80 38.067c0-6.678-1.941-11.137-6.397-14.692C70.121 20.596 70 20.28 70 13.905c0-5.119-.409-6.965-1.829-8.25-2.415-2.186-6.455-2.103-8.516.174m2.791 3.258c-1.03 1.668 1.287 3.58 2.667 2.2C66.267 10.133 65.545 8 64 8c-.485 0-1.184.489-1.554 1.087m-.23 17.663c.232 8.763.561 10.75 1.784 10.75 1.223 0 1.552-1.987 1.784-10.75C66.056 16.458 65.98 16 64 16s-2.056.458-1.784 10.75M55 28.492c-1.963 2.096-2.5 3.721-2.5 7.569 0 4.201.466 5.367 3.269 8.17C58.583 47.045 59.73 47.5 64 47.5s5.417-.455 8.231-3.269c2.813-2.813 3.269-3.961 3.269-8.228 0-4.075-.49-5.447-2.75-7.708L70 25.545v6.573C70 39.421 68.389 42 63.826 42c-3.979 0-5.683-2.788-6.022-9.858l-.304-6.319-2.5 2.669M52.022 57.22l.021 10.28 3.229 1.5c2.009.934 3.606 2.633 4.228 4.5.857 2.571 1.5 3 4.5 3s3.643-.429 4.5-3c.622-1.867 2.219-3.566 4.228-4.5l3.229-1.5.021-10.28L76 46.94l-3.084 2.28c-4.359 3.223-13.473 3.223-17.832 0L52 46.94l.022 10.28m-5.474-6.97c-.419.962-.419 2.538 0 3.5.725 1.667.781 1.667 1.18 0 .23-.962.23-2.538 0-3.5-.399-1.667-.455-1.667-1.18 0M80 52c0 1.824.415 2.862 1 2.5.55-.34 1-1.465 1-2.5s-.45-2.16-1-2.5c-.585-.362-1 .676-1 2.5m-38.96 9.452c-2.657 3.201 1.245 8.118 4.71 5.936 2.222-1.399 2.765-4.063 1.21-5.936a3.837 3.837 0 0 0-5.92 0m40 0c-2.657 3.201 1.245 8.118 4.71 5.936 2.222-1.399 2.765-4.063 1.21-5.936a3.837 3.837 0 0 0-5.92 0M40.206 78.865c.248 4.21 1.164 8.981 2.041 10.635 1.561 2.941 1.599 2.801 1.923-7.184.325-10.036.296-10.19-2.042-10.634-2.358-.449-2.369-.408-1.922 7.183M85.5 71.671c-1.87.372-1.979 1.061-1.67 10.614.324 10.014.362 10.156 1.923 7.215 1.357-2.557 3.233-18.762 2.125-18.364-.208.075-1.278.316-2.378.535m-36.46 1.781c-2.657 3.201 1.245 8.118 4.71 5.936C57.212 77.207 55.979 72 52 72c-.965 0-2.297.653-2.96 1.452m24 0c-2.657 3.201 1.245 8.118 4.71 5.936C81.212 77.207 79.979 72 76 72c-.965 0-2.297.653-2.96 1.452m-12 8c-2.657 3.201 1.245 8.118 4.71 5.936C69.212 85.207 67.979 80 64 80c-.965 0-2.297.653-2.96 1.452M48 90.765c0 7.123.063 7.303 3.25 9.246 1.788 1.09 3.587 1.983 4 1.985.413.002.75-4.158.75-9.246V83.5h-8v7.265m24 1.985c0 5.088.338 9.248.75 9.246.412-.002 2.213-.895 4-1.985 3.187-1.943 3.25-2.123 3.25-9.246V83.5h-8v9.25m-12 5V104h8V91.5h-8v6.25" fill-rule="evenodd"/></svg>