<svg xmlns="http://www.w3.org/2000/svg" width="128" height="128"><path d="M41.835 21.543C25.94 24.02 14.06 29.004 7.5 35.949l-3 3.177-.32 16.023c-.36 18.03.125 19.607 7.682 24.976C15.748 82.886 27.8 88 30.421 88c2.839 0 1.852-3.897-1.171-4.62-3.489-.836-14.258-5.836-16.296-7.567C10.469 73.702 8 69.699 8 67.78c0-.976 1.586-3.529 3.524-5.675 13.82-15.297 68.083-18.761 95.976-6.128 6.599 2.989 11.22 7.06 12.13 10.687.601 2.392-1.492 6.596-4.555 9.149-2.094 1.746-12.865 6.738-16.325 7.567-1.853.443-2.75 1.304-2.75 2.639 0 2.521 1.549 2.491 8.712-.166 7.644-2.836 14.362-7.288 17.16-11.372 2.164-3.157 2.253-4.047 1.948-19.342l-.32-16.034-3.5-3.643c-3.973-4.136-11.911-8.459-20-10.891-14.731-4.431-40.534-5.774-58.165-3.028m9.665 3.104c-22.358 2.592-37.632 8.228-41.905 15.462C8.718 41.594 8 44.73 8 47.079v4.27l2.25-1.99c3.879-3.43 7.407-5.258 15.198-7.873 29.397-9.869 76.813-5.824 92.302 7.873l2.25 1.99v-4.452c0-6.924-2.86-10.318-12.5-14.834-13.126-6.149-38.239-9.474-56-7.416m-4.38 16.469c-15.336 1.779-29.977 6.898-35.37 12.368-4.07 4.127-3.34 4.846 1.562 1.538 21.489-14.502 79.887-14.502 101.376 0 4.902 3.308 5.632 2.589 1.562-1.538-9.807-9.946-41.355-15.591-69.13-12.368M62 54c0 1.333.667 2 2 2s2-.667 2-2-.667-2-2-2-2 .667-2 2m-14 7.344c-11.06 2.615-18.044 7.228-17.957 11.861.023 1.262 3.286 8.595 7.25 16.295 7.206 13.998 7.208 14 12.207 15.912 3.655 1.399 7.555 1.913 14.5 1.913s10.845-.514 14.5-1.913l5-1.912 7.407-14.555c8.203-16.118 8.481-18.108 3.07-21.962-6.276-4.468-13.667-6.245-27.477-6.603-8.342-.216-14.971.129-18.5.964m1.389 4.144c-6.79 1.477-13.964 4.775-14.654 6.735-.247.702 1.722 5.627 4.375 10.943l4.824 9.667 5.283-2.087c7.441-2.938 22.125-2.938 29.566 0l5.283 2.087 4.824-9.667c2.653-5.316 4.622-10.241 4.375-10.943-.714-2.028-7.897-5.249-15.121-6.78-8.201-1.738-20.646-1.719-28.755.045M12 68c0 1.333.667 2 2 2s2-.667 2-2-.667-2-2-2-2 .667-2 2m100 0c0 1.333.667 2 2 2s2-.667 2-2-.667-2-2-2-2 .667-2 2m-50 8c0 5.333.222 6 2 6s2-.667 2-6-.222-6-2-6-2 .667-2 6m-9.574-4.396C50.844 72.26 52.883 84 54.579 84c2.156 0 2.595-1.758 1.876-7.517-.645-5.162-1.335-5.997-4.029-4.879m18.893 5.338c-.889 5.521-.81 6.085.93 6.637 2.577.818 2.659.648 2.975-6.1.222-4.762-.035-5.971-1.329-6.238-1.254-.259-1.817.985-2.576 5.701M43.75 74.746c-2.105.482-2.093-.136-.117 5.826 1.954 5.899 2.557 6.676 4.573 5.902 1.379-.529 1.385-1.136.054-5.782-1.707-5.959-2.114-6.495-4.51-5.946m37.774.582c-.194.644-1.033 3.29-1.863 5.879-1.447 4.511-1.427 4.732.49 5.341 2.393.759 2.186 1.002 3.74-4.402.688-2.395 1.47-4.923 1.737-5.619.268-.698-.462-1.512-1.633-1.818-1.195-.312-2.271-.043-2.471.619M51.625 94.414c-5.51 2.042-6.585 3.381-4.156 5.174 3.483 2.57 9.81 3.637 19.031 3.207C75.223 102.39 82 100.293 82 98c0-.522-1.463-1.725-3.25-2.673-4.431-2.352-21.677-2.932-27.125-.913M62 98c0 1.333.667 2 2 2s2-.667 2-2-.667-2-2-2-2 .667-2 2" fill-rule="evenodd"/></svg>