<svg xmlns="http://www.w3.org/2000/svg" width="128" height="128"><path d="M59.45 5.407c-6.611 2.88-10.43 10.555-9.012 18.114.783 4.176 5.806 10.251 9.173 11.096 6.627 1.663.106 9.309-16.156 18.945-18.414 10.912-24.281 19.481-23.172 33.845.698 9.038 3.793 16.593 6.798 16.593 2.37 0 2.422.428-1.141-9.5-3.933-10.958-1.008-22.177 7.639-29.305 1.97-1.623 7.708-5.364 12.751-8.313 5.044-2.948 11.099-7.125 13.456-9.282l4.287-3.922 3.213 3.061c1.768 1.684 8.389 6.29 14.714 10.235 13.828 8.627 17.185 11.703 20.057 18.381 1.791 4.163 2.083 6.24 1.602 11.394-.676 7.236-3.59 14.523-7.4 18.501L93.626 108H58.468c-40.906 0-38.797-.531-38.271 9.638l.303 5.862h87l.303-5.862c.342-6.601-1.382-9.638-5.471-9.638h-2.357l2.298-3.75c3.876-6.326 4.895-9.471 5.454-16.843 1.09-14.369-4.742-22.889-23.227-33.933-11.131-6.65-18.5-12.82-18.5-15.49 0-1.223 1.076-1.963 3.521-2.422 6.32-1.186 13.742-9.9 11.51-13.513-.595-.961-1.454-.882-3.849.357-4.819 2.492-7.967 2.009-11.782-1.806-3.793-3.793-4.298-6.964-1.859-11.679 1.431-2.768 1.273-4.974-.35-4.882-.38.022-2.063.637-3.741 1.368M55.698 14.7C54.764 16.461 54 18.845 54 20c0 5.377 6.503 11.988 11.8 11.996 1.264.002 3.739-.76 5.5-1.694l3.2-1.698-3.664-.631c-6.933-1.193-11.616-5.876-12.809-12.809l-.631-3.664-1.698 3.2m-31.02 97.955c-.373.373-.678 2.178-.678 4.012V120h80.121l-.311-3.75-.31-3.75-39.072-.261c-21.489-.144-39.377.043-39.75.416" fill-rule="evenodd"/></svg>