<svg xmlns="http://www.w3.org/2000/svg" width="128" height="128"><path d="M87.655 3.829C86.218 5.416 86 8.625 86 28.174 86 54.268 85.908 54 94.829 54H100v11.469c0 9.865-.213 11.386-1.525 10.883-.838-.322-5.065-5.145-9.392-10.718C76.372 49.262 78.915 50.5 58 50.5c-20.923 0-18.361-1.252-31.16 15.233-7.347 9.463-8.563 10.555-16.143 14.5L2.5 84.5l-.283 11.885c-.352 14.81.13 15.615 9.36 15.615 6.259 0 6.269.005 7.407 3.45 1.456 4.412 6.97 9.263 11.495 10.112 7.932 1.488 16.197-3.02 18.537-10.112l1.139-3.45h27.69l1.139 3.45c1.456 4.412 6.97 9.263 11.495 10.112 7.932 1.488 16.197-3.02 18.537-10.112 1.138-3.445 1.148-3.45 7.407-3.45 8.897 0 9.577-.979 9.577-13.794 0-9.852-.085-10.233-3.021-13.577-1.835-2.09-4.484-3.786-6.75-4.321l-3.729-.88-.28-12.714L111.94 54h5.375c8.748 0 8.685.19 8.685-26.174 0-20.543-.16-22.661-1.829-24.171C122.625 2.256 119.791 2 105.826 2c-14.73 0-16.695.198-18.171 1.829m2.802 3.422c-.275.717-.378 10.516-.228 21.776L90.5 49.5h31v-43l-15.271-.276c-11.828-.214-15.384.018-15.772 1.027m6.21 7.416c-.367.366-.667 6.216-.667 13C96 39.333 96.108 40 98 40c1.733 0 2-.667 2-5v-5h5.545c4.555 0 5.985-.439 8-2.455 3.248-3.247 3.248-7.843 0-11.09-2.13-2.131-3.363-2.455-9.333-2.455-3.783 0-7.179.3-7.545.667M100 22v4.105l5.147-.303c9.564-.561 9.564-7.043 0-7.604L100 17.895V22M41.339 55.285c-1.188.668-6.153 6.39-11.034 12.715-5.592 7.247-10.236 12.236-12.557 13.491l-3.683 1.99-.283 10.01L13.5 103.5l-3.811.314c-2.944.243-3.738.698-3.49 2 .247 1.3 1.614 1.754 5.968 1.983l5.647.297 1.154-3.497c2.356-7.137 10.599-11.651 18.553-10.159 4.525.849 10.039 5.7 11.495 10.112l1.139 3.45h27.69l1.139-3.45c1.456-4.412 6.97-9.263 11.495-10.112 7.954-1.492 16.197 3.022 18.553 10.159l1.154 3.497 5.657-.297 5.657-.297.307-3.686c.3-3.611.228-3.693-3.5-4L114.5 99.5V94c0-5.257.122-5.514 2.75-5.816 6.366-.733 1.885-3.209-10.307-5.696-4.625-.943-9.378-2.083-10.562-2.533-1.184-.45-6.062-5.912-10.841-12.137-4.779-6.225-9.667-11.865-10.864-12.533-1.428-.796-7.163-1.214-16.676-1.214-9.522 0-15.242.417-16.661 1.214M104 66c0 11.333.111 12 2 12s2-.667 2-12-.111-12-2-12-2 .667-2 12m-61.766-6.25c-3.589 3.16-14.379 19.429-13.832 20.855.795 2.072 58.401 2.072 59.196 0 .547-1.426-10.243-17.695-13.832-20.855C72.078 58.264 69.698 58 58 58s-14.078.264-15.766 1.75m.661 5.5a637.588 637.588 0 0 1-5.653 8L33.83 78H56V62h-5.432c-5.002 0-5.609.257-7.673 3.25M60 69.95V78h22.058l-5.444-7.75-5.444-7.75-5.585-.3L60 61.9v8.05M7.25 86.662c-.818.33-1.25 2.724-1.25 6.921 0 5.75.208 6.417 2 6.417 1.81 0 2-.667 2-7 0-6.861-.216-7.36-2.75-6.338M28 88c0 1.667.667 2 4 2s4-.333 4-2-.667-2-4-2-4 .333-4 2m28 0c0 1.667.667 2 4 2s4-.333 4-2-.667-2-4-2-4 .333-4 2m62 6c0 1.333.667 2 2 2s2-.667 2-2-.667-2-2-2-2 .667-2 2m-89.701 5.96C24.854 102.06 22 106.609 22 110c0 5.377 6.503 11.988 11.8 11.996 5.661.009 12.193-6.417 12.193-11.996 0-5.579-6.532-12.005-12.193-11.996-1.265.002-3.741.882-5.501 1.956m60 0C84.854 102.06 82 106.609 82 110c0 5.377 6.503 11.988 11.8 11.996 5.661.009 12.193-6.417 12.193-11.996 0-5.579-6.532-12.005-12.193-11.996-1.265.002-3.741.882-5.501 1.956m-59.844 4.495C23.494 109.415 27.009 118 34 118c4.111 0 8-3.889 8-8 0-4.111-3.889-8-8-8-1.948 0-3.998.907-5.545 2.455m60 0C86.907 106.002 86 108.052 86 110s.907 3.998 2.455 5.545C90.002 117.093 92.052 118 94 118s3.998-.907 5.545-2.455c1.548-1.547 2.455-3.597 2.455-5.545s-.907-3.998-2.455-5.545C97.998 102.907 95.948 102 94 102s-3.998.907-5.545 2.455m-57.415 2.997c-2.657 3.201 1.245 8.118 4.71 5.936C39.212 111.207 37.979 106 34 106c-.965 0-2.297.653-2.96 1.452m60 0c-2.657 3.201 1.245 8.118 4.71 5.936C99.212 111.207 97.979 106 94 106c-.965 0-2.297.653-2.96 1.452" fill-rule="evenodd"/></svg>