<svg xmlns="http://www.w3.org/2000/svg" width="128" height="128"><path d="M2.455 19.455 0 21.909v71.742l2.314 2.175C4.501 97.88 5.557 98 21.388 98c15.422 0 16.732-.14 16.423-1.75-.298-1.558-2.148-1.805-16.823-2.25L4.5 93.5l-.263-34.882c-.188-24.911.061-35.273.872-36.25 1.564-1.884 107.812-2.047 109.691-.168.66.66 1.2 2.215 1.2 3.456 0 2.211-.081 2.227-4.126.8-5.811-2.051-13.528-1.795-18.874.625-8.94 4.047-13.846 11.131-14.771 21.328-.44 4.85-1.035 6.437-2.992 7.977-2.048 1.611-2.35 2.509-1.863 5.552.573 3.582.367 3.844-15.397 19.585L42 97.477v5.106c0 6.522 1.886 8.417 8.374 8.417 5.738 0 9.626-3.186 9.626-7.888 0-2.696.3-2.97 3.164-2.888 3.834.109 6.836-3.112 6.836-7.335 0-2.626.313-2.889 3.443-2.889C77.435 90 80 87.174 80 82.777c0-2.975-.322-2.879 10.863-3.231 2.272-.071 4.002-.896 5.336-2.543 1.497-1.85 2.772-2.369 5.28-2.153 2.917.251 8.851-.888 13.084-2.512 2.008-.771 2.115 18.855.111 20.517-.837.695-8.485 1.201-20.75 1.373C77.446 94.459 74.5 94.727 74.5 96c0 1.275 3.04 1.541 20.275 1.771l20.274.271 2.476-2.476c2.357-2.357 2.475-3.044 2.475-14.42V69.201L123.5 64c1.925-2.861 3.598-6.168 3.717-7.35.12-1.183.472 6.625.783 17.35.434 14.958.566 10.999.568-17 .001-20.075-.141-31.112-.317-24.526l-.318 11.974-2.308-4.974c-1.268-2.736-3.053-5.592-3.966-6.346-1.135-.939-1.659-2.928-1.659-6.296 0-3.893-.513-5.436-2.455-7.377L115.091 17H4.909l-2.454 2.455M.452 58c0 20.075.133 28.288.297 18.25.163-10.037.163-26.462 0-36.5C.585 29.713.452 37.925.452 58m11.105-27.777c-2.724 3.888-1.487 16.126 1.341 13.269.54-.546 1.122-3.242 1.292-5.992l.31-5 15.25-.276L45 31.948v15.026c0 14.311-1.012 19.106-2.433 11.53-.361-1.923-1.705-4.716-2.988-6.207-1.917-2.228-2.163-3.192-1.386-5.42.697-2 .531-3.51-.635-5.764-3.076-5.95-8.988-6.837-13.76-2.065-2.608 2.608-2.975 3.595-2.541 6.831.369 2.75-.005 4.442-1.369 6.202-1.032 1.33-2.165 4.124-2.516 6.208-.97 5.745-2.832 3.877-3.171-3.182-.252-5.246-.569-6.181-2-5.898-1.402.278-1.701 1.536-1.701 7.145 0 9.541.207 9.646 18.969 9.646C50.251 66 49 67.24 49 46.643c0-11.3-.365-16.608-1.2-17.443-.838-.838-6.254-1.2-17.943-1.2-16.169 0-16.797.076-18.3 2.223m82.943.116c-7.685 3.504-13.169 13.03-12.241 21.263.46 4.087 1.311 5.422 7.294 11.452 7.604 7.662 10.874 8.875 18.652 6.916 13.119-3.304 19.398-17.346 13.262-29.661-3.674-7.371-8.863-10.677-17.345-11.048-4.07-.178-7.778.238-9.622 1.078m8.955 7.711c-2.47 2.729-2.42 8.444.095 10.893 5.042 4.91 13.45 1.498 13.45-5.457 0-6.508-9.224-10.21-13.545-5.436m-76.884 3.521c-2.173 2.174-1.964 5.04.494 6.762 4.453 3.119 9.427-1.407 6.483-5.9-1.828-2.789-4.695-3.143-6.977-.862m79.401-.038c-1.932 2.329 0 4.967 3.637 4.967 2.546 0 2.891-.358 2.891-3 0-2.482-.446-3.052-2.586-3.301-1.484-.172-3.163.396-3.942 1.334m-83.485 13.79C21.669 56.49 21 58.47 21 59.723c0 2.201.301 2.277 9 2.277 5.52 0 9-.399 9-1.032 0-.568-.633-2.548-1.407-4.4-1.38-3.303-1.526-3.368-7.514-3.368-5.09 0-6.353.353-7.592 2.123M77 60.277C77 62.193 90.287 75 92.275 75c2.999 0 1.913-1.999-4.939-9.097C81.149 59.494 77 57.236 77 60.277M61.238 83.262C46.385 98.138 46 98.631 46 102.762V107h3.8c4.65 0 6.2-1.41 6.2-5.641 0-3.666.941-4.504 5.966-5.313 3.177-.512 3.566-.921 3.855-4.057.404-4.382 1.159-5.139 5.878-5.9 3.477-.56 3.827-.909 4.107-4.1.36-4.109 2.428-5.989 6.588-5.989h3.012L81.5 72c-2.148-2.2-4.158-4-4.465-4-.308 0-7.416 6.868-15.797 15.262M11.149 71.32c-.622.75-.836 1.66-.474 2.022.362.362 9.166.658 19.565.658 17.468 0 18.881-.133 18.57-1.75-.303-1.578-2.118-1.777-18.432-2.022-14.319-.215-18.333.013-19.229 1.092m-.474 8.338c-.362.362-.156 1.262.456 2C11.982 82.683 16.21 83 29.041 83 46.601 83 49 82.687 49 80.393 49 79.252 45.598 79 30.167 79c-10.359 0-19.13.296-19.492.658" fill-rule="evenodd"/></svg>