<svg xmlns="http://www.w3.org/2000/svg" width="128" height="128"><path d="M6 58c0 54.667-.048 56.048-2 58-1.333 1.333-2 3.333-2 6v4h20v-4c0-2.667-.667-4.667-2-6-1.852-1.852-2-3.333-2-20V78h92v18c0 16.667-.148 18.148-2 20-1.333 1.333-2 3.333-2 6v4h20v-4c0-2.667-.667-4.667-2-6-1.952-1.952-2-3.333-2-58V2h-12v8H18V2H6v56m4 2c0 53.333.025 54 2 54s2-.667 2-54-.025-54-2-54-2 .667-2 54m104 0c0 53.333.025 54 2 54s2-.667 2-54-.025-54-2-54-2 .667-2 54M18 16c0 1.971.667 2 46 2s46-.029 46-2-.667-2-46-2-46 .029-46 2m4.286 7.714c1.619 1.619 1.809 1.619 3.428 0S27.238 22 24 22s-3.333.095-1.714 1.714m16 0c1.619 1.619 1.809 1.619 3.428 0S43.238 22 40 22s-3.333.095-1.714 1.714m16 0c1.619 1.619 1.809 1.619 3.428 0S59.238 22 56 22s-3.333.095-1.714 1.714m16 0c1.619 1.619 1.809 1.619 3.428 0S75.238 22 72 22s-3.333.095-1.714 1.714m16 0c1.619 1.619 1.809 1.619 3.428 0S91.238 22 88 22s-3.333.095-1.714 1.714m16 0c1.619 1.619 1.809 1.619 3.428 0S107.238 22 104 22s-3.333.095-1.714 1.714m-73.312 1.813L26.6 28.055l2.7 2.7 2.7 2.7 2.7-2.7 2.7-2.7-2.374-2.528C33.72 24.137 32.358 23 32 23c-.358 0-1.72 1.137-3.026 2.527m16 0L42.6 28.055l2.7 2.7 2.7 2.7 2.7-2.7 2.7-2.7-2.374-2.528C49.72 24.137 48.358 23 48 23c-.358 0-1.72 1.137-3.026 2.527m16 0L58.6 28.055l2.7 2.7 2.7 2.7 2.7-2.7 2.7-2.7-2.374-2.528C65.72 24.137 64.358 23 64 23c-.358 0-1.72 1.137-3.026 2.527m16 0L74.6 28.055l2.7 2.7 2.7 2.7 2.7-2.7 2.7-2.7-2.374-2.528C81.72 24.137 80.358 23 80 23c-.358 0-1.72 1.137-3.026 2.527m16 0L90.6 28.055l2.7 2.7 2.7 2.7 2.7-2.7 2.7-2.7-2.374-2.528C97.72 24.137 96.358 23 96 23c-.358 0-1.72 1.137-3.026 2.527M18 28c0 3.238.095 3.333 1.714 1.714 1.619-1.619 1.619-1.809 0-3.428S18 24.762 18 28m89.958-1.45c-1.062 1.281-.997 1.84.378 3.214 1.552 1.553 1.664 1.448 1.664-1.55 0-3.646-.237-3.839-2.042-1.664m-86.984 6.977L18.6 36.055l2.7 2.7 2.7 2.7 2.7-2.7 2.7-2.7-2.374-2.528C25.72 32.137 24.358 31 24 31c-.358 0-1.72 1.137-3.026 2.527m16 0L34.6 36.055l2.7 2.7 2.7 2.7 2.7-2.7 2.7-2.7-2.374-2.528C41.72 32.137 40.358 31 40 31c-.358 0-1.72 1.137-3.026 2.527m16 0L50.6 36.055l2.7 2.7 2.7 2.7 2.7-2.7 2.7-2.7-2.374-2.528C57.72 32.137 56.358 31 56 31c-.358 0-1.72 1.137-3.026 2.527m16 0L66.6 36.055l2.7 2.7 2.7 2.7 2.7-2.7 2.7-2.7-2.374-2.528C73.72 32.137 72.358 31 72 31c-.358 0-1.72 1.137-3.026 2.527m16 0L82.6 36.055l2.7 2.7 2.7 2.7 2.7-2.7 2.7-2.7-2.374-2.528C89.72 32.137 88.358 31 88 31c-.358 0-1.72 1.137-3.026 2.527m16 0L98.6 36.055l2.7 2.7 2.7 2.7 2.7-2.7 2.7-2.7-2.374-2.528C105.72 32.137 104.358 31 104 31c-.358 0-1.72 1.137-3.026 2.527m-72 8L26.6 44.055l2.7 2.7 2.7 2.7 2.7-2.7 2.7-2.7-2.374-2.528C33.72 40.137 32.358 39 32 39c-.358 0-1.72 1.137-3.026 2.527m16 0L42.6 44.055l2.7 2.7 2.7 2.7 2.7-2.7 2.7-2.7-2.374-2.528C49.72 40.137 48.358 39 48 39c-.358 0-1.72 1.137-3.026 2.527m16 0L58.6 44.055l2.7 2.7 2.7 2.7 2.7-2.7 2.7-2.7-2.374-2.528C65.72 40.137 64.358 39 64 39c-.358 0-1.72 1.137-3.026 2.527m16 0L74.6 44.055l2.7 2.7 2.7 2.7 2.7-2.7 2.7-2.7-2.374-2.528C81.72 40.137 80.358 39 80 39c-.358 0-1.72 1.137-3.026 2.527m16 0L90.6 44.055l2.7 2.7 2.7 2.7 2.7-2.7 2.7-2.7-2.374-2.528C97.72 40.137 96.358 39 96 39c-.358 0-1.72 1.137-3.026 2.527M18 44c0 3.238.095 3.333 1.714 1.714 1.619-1.619 1.619-1.809 0-3.428S18 40.762 18 44m89.958-1.45c-1.062 1.281-.997 1.84.378 3.214 1.552 1.553 1.664 1.448 1.664-1.55 0-3.646-.237-3.839-2.042-1.664m-86.984 6.977L18.6 52.055l2.7 2.7 2.7 2.7 2.7-2.7 2.7-2.7-2.374-2.528C25.72 48.137 24.358 47 24 47c-.358 0-1.72 1.137-3.026 2.527m16 0L34.6 52.055l2.7 2.7 2.7 2.7 2.7-2.7 2.7-2.7-2.374-2.528C41.72 48.137 40.358 47 40 47c-.358 0-1.72 1.137-3.026 2.527m16 0L50.6 52.055l2.7 2.7 2.7 2.7 2.7-2.7 2.7-2.7-2.374-2.528C57.72 48.137 56.358 47 56 47c-.358 0-1.72 1.137-3.026 2.527m16 0L66.6 52.055l2.7 2.7 2.7 2.7 2.7-2.7 2.7-2.7-2.374-2.528C73.72 48.137 72.358 47 72 47c-.358 0-1.72 1.137-3.026 2.527m16 0L82.6 52.055l2.7 2.7 2.7 2.7 2.7-2.7 2.7-2.7-2.374-2.528C89.72 48.137 88.358 47 88 47c-.358 0-1.72 1.137-3.026 2.527m16 0L98.6 52.055l2.7 2.7 2.7 2.7 2.7-2.7 2.7-2.7-2.374-2.528C105.72 48.137 104.358 47 104 47c-.358 0-1.72 1.137-3.026 2.527m-72 8L26.6 60.055l2.7 2.7 2.7 2.7 2.7-2.7 2.7-2.7-2.374-2.528C33.72 56.137 32.358 55 32 55c-.358 0-1.72 1.137-3.026 2.527m16 0L42.6 60.055l2.7 2.7 2.7 2.7 2.7-2.7 2.7-2.7-2.374-2.528C49.72 56.137 48.358 55 48 55c-.358 0-1.72 1.137-3.026 2.527m16 0L58.6 60.055l2.7 2.7 2.7 2.7 2.7-2.7 2.7-2.7-2.374-2.528C65.72 56.137 64.358 55 64 55c-.358 0-1.72 1.137-3.026 2.527m16 0L74.6 60.055l2.7 2.7 2.7 2.7 2.7-2.7 2.7-2.7-2.374-2.528C81.72 56.137 80.358 55 80 55c-.358 0-1.72 1.137-3.026 2.527m16 0L90.6 60.055l2.7 2.7 2.7 2.7 2.7-2.7 2.7-2.7-2.374-2.528C97.72 56.137 96.358 55 96 55c-.358 0-1.72 1.137-3.026 2.527M18 60c0 3.238.095 3.333 1.714 1.714 1.619-1.619 1.619-1.809 0-3.428S18 56.762 18 60m89.958-1.45c-1.062 1.281-.997 1.84.378 3.214 1.552 1.553 1.664 1.448 1.664-1.55 0-3.646-.237-3.839-2.042-1.664M22 64.5c-1.063 1.281-.771 1.5 2 1.5s3.063-.219 2-1.5c-.685-.825-1.585-1.5-2-1.5-.415 0-1.315.675-2 1.5m16 0c-1.063 1.281-.771 1.5 2 1.5s3.063-.219 2-1.5c-.685-.825-1.585-1.5-2-1.5-.415 0-1.315.675-2 1.5m16 0c-1.063 1.281-.771 1.5 2 1.5s3.063-.219 2-1.5c-.685-.825-1.585-1.5-2-1.5-.415 0-1.315.675-2 1.5m16 0c-1.063 1.281-.771 1.5 2 1.5s3.063-.219 2-1.5c-.685-.825-1.585-1.5-2-1.5-.415 0-1.315.675-2 1.5m16 0c-1.063 1.281-.771 1.5 2 1.5s3.063-.219 2-1.5c-.685-.825-1.585-1.5-2-1.5-.415 0-1.315.675-2 1.5m16 0c-1.063 1.281-.771 1.5 2 1.5s3.063-.219 2-1.5c-.685-.825-1.585-1.5-2-1.5-.415 0-1.315.675-2 1.5M18 72c0 1.971.667 2 46 2s46-.029 46-2-.667-2-46-2-46 .029-46 2m18.907 16.327c-2.424 1.279-5.757 4.245-7.407 6.59-2.609 3.707-2.999 5.131-2.993 10.923.005 5.254.506 7.466 2.373 10.477 6.803 10.974 22.053 12.75 31.173 3.63L64 116l3.947 3.947c9.12 9.12 24.356 7.346 31.18-3.63 3.361-5.406 3.361-15.228 0-20.634-6.824-10.976-22.06-12.75-31.18-3.63L64 96l-3.935-3.935c-6.351-6.351-15.433-7.817-23.158-3.738m3.307 2.717c-2.258.907-2.264.956-.519 4.187 2.437 4.512 2.439 17.022.003 21.532l-1.762 3.262 2.597.988c1.428.543 3.889.987 5.467.987 1.578 0 4.039-.444 5.467-.987l2.597-.988-1.762-3.262c-2.434-4.506-2.434-17.02 0-21.526l1.762-3.262-2.597-.988c-3.168-1.204-8.174-1.179-11.253.057m36 0c-2.258.907-2.264.956-.519 4.187 2.437 4.512 2.439 17.022.003 21.532l-1.762 3.262 2.597.988c1.428.543 3.889.987 5.467.987 1.578 0 4.039-.444 5.467-.987l2.597-.988-1.762-3.262c-1.236-2.289-1.762-5.501-1.762-10.763s.526-8.474 1.762-10.763l1.762-3.262-2.597-.988c-3.168-1.204-8.174-1.179-11.253.057m-43.827 6.489c-2.599 3.966-2.573 12.954.048 16.824 1.785 2.635 2.034 2.721 3.209 1.115 2.903-3.969 2.891-14.991-.02-18.972-1.28-1.749-1.45-1.695-3.237 1.033m23.168.685C54.7 100.263 54 103.765 54 106c0 2.235.7 5.737 1.555 7.782l1.555 3.718 1.923-2.5c1.058-1.375 2.208-3.962 2.557-5.75.835-4.291-.181-9.162-2.557-12.25l-1.923-2.5-1.555 3.718m12.832-.685c-2.599 3.966-2.573 12.954.048 16.824 1.785 2.635 2.034 2.721 3.209 1.115 2.903-3.969 2.891-14.991-.02-18.972-1.28-1.749-1.45-1.695-3.237 1.033m23.168.685C90.7 100.263 90 103.765 90 106c0 2.235.7 5.737 1.555 7.782l1.555 3.718 1.923-2.5c1.058-1.375 2.208-3.962 2.557-5.75.835-4.291-.181-9.162-2.557-12.25l-1.923-2.5-1.555 3.718M6.712 118.622c-.392.391-.712 1.311-.712 2.045 0 .964 1.679 1.333 6.073 1.333 5.245 0 6.028-.239 5.741-1.75-.255-1.34-1.51-1.819-5.362-2.045-2.766-.162-5.349.025-5.74.417m104 0c-.392.391-.712 1.311-.712 2.045 0 .964 1.679 1.333 6.073 1.333 5.245 0 6.028-.239 5.741-1.75-.255-1.34-1.51-1.819-5.362-2.045-2.766-.162-5.349.025-5.74.417" fill-rule="evenodd"/></svg>