<svg xmlns="http://www.w3.org/2000/svg" width="128" height="128"><path d="M101.39 1.427c-.968 2.522.057 6.043 1.86 6.386 1.435.274 1.75-.4 1.75-3.74C105 1.082 104.593 0 103.469 0c-.843 0-1.778.642-2.079 1.427M90 4.889c0 2.936 3.599 6.866 5.014 5.476.874-.858.763-1.896-.455-4.25C92.781 2.676 90 1.928 90 4.889m21.658 1.113c-1.719 2.91-1.545 4.998.416 4.998 1.273 0 4.961-6.135 4.315-7.179-1.024-1.657-3.003-.745-4.731 2.181m-84.334.377c-5.124 1.676-10.096 4.685-13.196 7.985-3.515 3.741-.852 6.507 2.951 3.065 1.641-1.485 1.659-1.348.336 2.491-.77 2.235-1.693 7.217-2.051 11.072C14.93 35.663 14.288 38 13.438 38c-.701 0-2.057.3-3.013.667-1.568.602-1.672.134-1.059-4.75.374-2.979.782-6.542.907-7.917.345-3.797-2.381-3.09-3.858 1-1.511 4.186-1.813 14.636-.447 15.48.846.523 20.841-1.721 26.662-2.993 1.956-.427 2.222.152 3.25 7.065.616 4.141 1.12 7.899 1.12 8.351 0 .452-3.476 1.136-7.725 1.521-7.06.64-21.51 2.831-27.025 4.097-2.147.494-3.085 2.871-1.5 3.801.413.242 5.25-.38 10.75-1.382 5.5-1.002 13.712-2.135 18.25-2.518l8.25-.697v2.515c0 2.592 2.176 5.251 3.342 4.085.362-.362.658-2.158.658-3.992V59l9.75-.217c23.361-.52 45.458.903 64.25 4.139 7.03 1.21 10.913 1.481 11.75.82 1.96-1.548 1.466-3.227-1.001-3.401-1.237-.088-8.567-1.097-16.29-2.243-17.819-2.643-41.487-4.034-57.128-3.357l-12.168.527-.736-4.884c-.405-2.686-.779-6.45-.832-8.363l-.095-3.48 13-1.774c7.15-.976 13.612-2.002 14.359-2.281 3.134-1.169-1.258-12.601-7.492-19.501-7.307-8.089-21.759-11.97-32.043-8.606m4.306 5.871c-.331 1.238-.609 6.862-.616 12.5L31 35h4.441c2.443 0 4.707-.43 5.032-.956C41.843 31.827 35.053 10 32.993 10c-.418 0-1.031 1.012-1.363 2.25m7.937.5c.429.963 1.908 6.155 3.286 11.538 1.883 7.356 2.854 9.655 3.908 9.25.771-.296 2.54-.538 3.929-.538 2.253 0 2.454-.299 1.856-2.75-1.33-5.447-5.572-13.472-8.634-16.332-3.52-3.288-5.532-3.829-4.345-1.168m42.444-.263c-.968 1.166-.58 1.804 2.079 3.421 1.798 1.094 3.638 1.76 4.089 1.481 1.714-1.059.711-3.395-2.078-4.837-2.515-1.3-3.058-1.309-4.09-.065m17.341-.395c-4.993 1.447-9.353 7.133-9.348 12.193.007 8.557 6.454 14.374 14.877 13.425 12.907-1.455 15.66-19.383 3.803-24.767-4.66-2.115-4.893-2.137-9.332-.851m20.398.668c-4.971 3.079-2.627 6.203 2.488 3.315 2.674-1.51 3.361-4.075 1.262-4.714-.55-.167-2.237.462-3.75 1.399m-95.993 3.316C21.074 20.552 19 28.425 19 34.136c0 2.461.387 2.862 2.75 2.849 5.095-.029 5.339-.686 5.033-13.565L26.5 11.5l-2.743 4.576m27.673 1.378c1.806 3 3.857 7.5 4.557 10 1.285 4.591 2.388 5.248 6.239 3.721 1.594-.632 1.549-1.066-.598-5.68C59.466 20.849 51.248 12 49.095 12c-.522 0 .529 2.454 2.335 5.454m47.899-.972c-6.232 2.663-7.426 10.576-2.252 14.929 6.477 5.45 14.923 1.879 14.923-6.31 0-7.16-6.206-11.382-12.671-8.619m-20.849 7.55c-1.141 1.846 1.009 3.138 4.643 2.791 4.785-.458 4.571-3.223-.28-3.628-2.012-.167-3.975.209-4.363.837m41.698.653c.258 1.339 1.263 1.815 3.836 1.815 5.085 0 4.78-2.894-.35-3.315-3.254-.268-3.783-.041-3.486 1.5M83.75 33.574c-3.058 1.656-3.526 3.191-1.242 4.067 1.855.712 6.757-2.345 6.242-3.892-.582-1.746-2.008-1.795-5-.175m33.65-.412c-.885 1.432 3.341 5.035 5.43 4.63 2.714-.527 2.355-2.645-.717-4.233-3.609-1.867-3.795-1.882-4.713-.397m-26.404 8.847c-1.84 4.442.059 6.007 2.902 2.393 2.339-2.973 2.309-4.733-.09-5.198-.918-.178-2.039.94-2.812 2.805m19.615-2.188c-.279.451.387 2.291 1.481 4.089 1.627 2.677 2.25 3.051 3.437 2.066 1.26-1.045 1.226-1.582-.255-4.09-1.669-2.824-3.651-3.702-4.663-2.065m-9.185 2.511c-1.013 2.639-.018 7.168 1.574 7.168 1.078 0 1.5-1.102 1.5-3.917 0-3.966-1.991-6.072-3.074-3.251M.079 62.583c.048 1.165.285 1.402.604.605.289-.722.253-1.585-.079-1.917-.332-.332-.568.258-.525 1.312M79 66.5c0 1.03.655 1.52 1.75 1.31 2.108-.406 1.975-2.181-.197-2.633-.906-.189-1.553.362-1.553 1.323m25.916 2.004c-8.066 1.985-17.18 6.215-16.653 7.73.598 1.722 2.932 1.357 11.737-1.832 5.42-1.963 10.273-2.881 17.5-3.309 7.959-.472 10-.899 10-2.093 0-2.051-14.931-2.379-22.584-.496m-89.383 1.443c-.88 1.423.242 3.053 2.099 3.053.876 0 1.378-.703 1.191-1.667-.389-2.009-2.386-2.849-3.29-1.386m45.106 8.747C59.444 79.889 59.994 82 61.5 82c.825 0 1.5-.648 1.5-1.441 0-1.671-1.427-2.798-2.361-1.865m14.397 4.397c-12.429 8.146-21.97 8.702-40.536 2.363-15.488-5.289-33.384-6.009-34.276-1.38-.23 1.194 1.691 1.445 10.999 1.437 10.583-.01 11.984.235 22.777 3.985 10.166 3.533 12.564 3.997 20.671 4 8.931.004 9.403-.116 18-4.551 6.313-3.257 8.829-5.086 8.829-6.417 0-2.799-1.538-2.666-6.464.563M100 89.593c-7.92.929-15.137 2.606-25.45 5.914-12.958 4.155-19.729 4.44-33.05 1.388-11.08-2.539-30.317-3.586-36.25-1.973C1.984 95.81 1 96.558 1 98.155c0 1.713.396 1.945 2.25 1.322 1.238-.416 6.75-.955 12.25-1.2 8.101-.359 12.372.047 22.489 2.14 17.555 3.631 23.076 3.437 38.424-1.351 15.069-4.702 28.558-6.527 41.225-5.58 6.558.491 9.344.353 9.863-.488.399-.645.322-1.575-.171-2.068-.982-.982-21.717-1.996-27.33-1.337m-87.529 17.454c-1.356 2.193 1.31 3.043 8.626 2.75 5.782-.232 7.403-.625 7.403-1.797 0-1.178-1.648-1.562-7.666-1.791-4.907-.186-7.917.116-8.363.838m75.099 6.84c-1.455 2.353 2.635 3.167 14.558 2.895 10.833-.247 12.389-.497 12.683-2.032.306-1.597-.847-1.75-13.179-1.75-7.433 0-13.761.399-14.062.887M75 126c0 1.958.469 2.066 7.75 1.792 6.092-.23 7.75-.613 7.75-1.792s-1.658-1.562-7.75-1.792c-7.281-.274-7.75-.166-7.75 1.792" fill-rule="evenodd"/></svg>