<svg xmlns="http://www.w3.org/2000/svg" width="128" height="128"><path d="M21.278 19.278C7.177 33.38 2 39.188 2 40.907c0 1.604 2.729 5.139 8.587 11.125 7.377 7.539 8.441 9.048 7.552 10.708-1.069 1.998-6.145 6.692-12.492 11.553C3.407 76.008 2 77.932 2 79.281 2 82.458 30.624 111 33.811 111c1.471 0 3.696-1.519 6.012-4.106 2.022-2.258 6.322-5.444 9.554-7.079l5.878-2.972 3.798 3.709c3.098 3.024 4.321 3.607 6.623 3.154 2.545-.5 4.069.675 15.41 11.87C88.008 122.409 94.21 128 94.867 128c.658 0 1.471-.717 1.807-1.593.431-1.123-3.126-5.339-12.045-14.278L71.972 99.444l4.292-4.213 4.292-4.212 9.953 9.99c9.099 9.133 13.491 11.984 13.491 8.758 0-.678-4.605-5.853-10.233-11.501L83.535 87.999l3.72-3.72 3.72-3.72 4.438 4.356c2.889 2.835 4.988 4.145 6.013 3.752 2.351-.902 1.968-1.876-2.426-6.167-2.2-2.148-4-4.401-4-5.007 0-.605 1.583-2.635 3.517-4.509l3.517-3.409 8.877 8.837c8.072 8.034 11.089 9.748 11.089 6.3 0-.644-3.701-4.891-8.225-9.438-7.306-7.344-8.194-8.633-7.944-11.532.247-2.869-.572-4.109-6.773-10.253-4.309-4.268-7.055-7.812-7.056-9.104-.001-1.163-.925-3.288-2.053-4.722l-2.05-2.607 2.179-2.948c5.003-6.766-2.819-14.384-10.122-9.858-1.445.895-2.221.938-2.737.15-1.214-1.857-5.199-3.541-7.015-2.965-1.225.389-4.948-2.626-12.9-10.444C48.476 2.31 45.541 0 43.342 0c-2.284 0-6.256 3.471-22.064 19.278m3.751 2.221C15.113 31.359 7 40.131 7 40.99c0 .86 3.174 4.702 7.053 8.537 6.564 6.489 7.129 6.834 8.144 4.973.6-1.1 7.644-8.638 15.654-16.75C51.446 23.98 52.662 23 56.15 23c2.647 0 4.16.605 5.189 2.073 1.02 1.457 1.67 1.721 2.186.886.459-.742-3.243-5.165-9.866-11.788L43.058 3.57 25.029 21.499m35.492 13.47C55.582 39.936 51.181 44 50.739 44c-.441 0-1.074-.711-1.408-1.579-.402-1.05 1.131-3.339 4.569-6.82C59.124 30.312 59.959 27 56.07 27c-2.816 0-29.326 27.728-31.972 33.441-3.272 7.066-6.549 10.998-12.175 14.608C9.215 76.787 7 78.73 7 79.368c0 .638 5.976 7.124 13.28 14.413l13.281 13.253 3.969-4.106c2.184-2.258 7.12-5.702 10.97-7.654C56.931 90.999 75 73.922 75 70.229c0-4.004-3.978-2.688-10.054 3.325-5.017 4.964-5.755 5.382-6.954 3.936-1.179-1.42.513-3.474 13.933-16.915 14.838-14.861 17.053-18.084 13.292-19.336-.705-.235-5.293 3.498-10.195 8.295-6.03 5.901-9.416 8.529-10.468 8.125-.855-.328-1.554-.955-1.554-1.393 0-.439 5.4-6.183 12-12.766 11.623-11.592 13.746-14.893 10.407-16.174-1.12-.43-5.2 2.988-13.764 11.531C64.948 45.536 58.942 51 58.295 51c-3.399 0-1.627-3.057 6.681-11.528 9.254-9.437 10.83-12.643 6.514-13.253-1.377-.195-4.756 2.5-10.969 8.75m48.905-5.637c-1.013 2.639-.018 7.168 1.574 7.168 1.078 0 1.5-1.102 1.5-3.917 0-3.966-1.991-6.072-3.074-3.251m-8.946 8.7c-1.141 1.846 1.009 3.138 4.643 2.791 4.785-.458 4.571-3.223-.28-3.628-2.012-.167-3.975.209-4.363.837m13 0c-1.141 1.846 1.009 3.138 4.643 2.791 4.785-.458 4.571-3.223-.28-3.628-2.012-.167-3.975.209-4.363.837m-4.054 4.3c-1.013 2.639-.018 7.168 1.574 7.168 1.078 0 1.5-1.102 1.5-3.917 0-3.966-1.991-6.072-3.074-3.251M82.083 56.416l-6.36 6.417 2.139 2.718c3.893 4.949 3.033 6.839-8.373 18.414l-10.51 10.666 2.325 2.185C62.583 98.017 64.28 99 65.075 99c.795 0 9.532-8.096 19.416-17.991l17.97-17.99-6.452-6.51C92.461 52.929 89.307 50 89 50c-.307 0-3.42 2.887-6.917 6.416M109 95.845c0 2.23 3.023 5.155 5.329 5.155 2.238 0 2.142-3.264-.158-5.345-2.448-2.216-5.171-2.116-5.171.19m11.07.581c-2.263 2.409-2.114 4.574.315 4.574 1.863 0 5.934-4.675 5.161-5.926-1.071-1.732-3.035-1.247-5.476 1.352m-8.452 8.66c-1.44 1.133-2.618 2.675-2.618 3.428 0 2.522 2.126 2.716 4.574.416 4.261-4.002 2.541-7.381-1.956-3.844m7.482-.706c-.839 1.011-.603 1.982.967 3.979 3.217 4.088 7.272 3.012 4.956-1.315-1.587-2.967-4.562-4.305-5.923-2.664" fill-rule="evenodd"/></svg>