<svg xmlns="http://www.w3.org/2000/svg" width="128" height="128"><path d="M97.69.75c-.235.413-.749 2.529-1.142 4.703-1.649 9.118-6.102 14.063-13.858 15.387-3.238.553-4.19 1.157-4.19 2.66 0 1.516.965 2.109 4.38 2.692 7.904 1.35 11.3 5.165 13.625 15.308.737 3.218 1.73 5.113 2.785 5.316 1.666.322 1.975-.457 3.192-8.037C103.492 32.49 110.484 26 116.25 26c1.293 0 2.879-.529 3.526-1.176 1.705-1.705-.373-3.824-3.751-3.824-5.875 0-13.969-8.764-14.009-15.168-.009-1.468-.289-3.38-.623-4.25-.627-1.634-2.948-2.155-3.703-.832M11.315 9.007c-1.201.484-2.664 1.776-3.25 2.871C7.349 13.216 7 31.698 7 68.299c0 53.552.033 54.474 2.073 57.066L11.145 128h90.71l2.085-2.651c2.036-2.589 2.079-3.478 1.822-38.25-.256-34.845-.304-35.599-2.262-35.599-1.954 0-2.012.833-2.5 36l-.5 36h-88v-110l38.448-.262c39.133-.267 41.715-.529 38.872-3.954-.834-1.006-9.224-1.27-38.692-1.221-20.696.035-38.611.46-39.813.944M95 18.861 90.5 23.5l4.75 4.886c2.612 2.688 4.75 4.375 4.75 3.75s1.794-2.93 3.986-5.122l3.986-3.986-2.443-1.601c-1.343-.88-3.249-2.861-4.236-4.403L99.5 14.222 95 18.861m-78.319-1.209C16.307 18.027 16 40.935 16 68.56c0 44.877.168 50.291 1.582 50.833 2.382.914 76.724.699 78.182-.226.986-.626 1.205-8.153 1-34.234C96.535 55.999 96.298 51.5 95 51.5c-1.168 0-1.565 1.603-1.794 7.25L92.912 66H59V21.081l8.25-.291c6.538-.23 8.25-.601 8.25-1.79 0-1.293-4.014-1.537-29.069-1.765-15.987-.145-29.375.042-29.75.417m3.986 4.015c-.367.366-.667 10.491-.667 22.5V66h34V21H37.667c-8.984 0-16.634.3-17 .667m6.915 8.373c-3.46 3.831-3.917 5.966-1.273 5.955C28.127 35.988 35 29.31 35 27.551c0-2.847-3.726-1.597-7.418 2.489m5.762 5.21C25.063 43.652 23.071 47 26.353 47 27.925 47 46 28.813 46 27.231c0-3.18-4.311-.448-12.656 8.019m40.334-3.557c-.27.994-.792 3.157-1.159 4.807-.914 4.111-4.183 7.346-8.179 8.096C62.041 45.027 61 45.777 61 47c0 1.223 1.041 1.973 3.34 2.404 4.372.82 7.308 4.071 8.51 9.424.535 2.38 1.218 4.573 1.518 4.873 1.394 1.394 3.41-.909 3.994-4.564.805-5.032 4.078-8.786 8.638-9.905 4.642-1.139 4.433-3.208-.498-4.915-5.289-1.831-6.536-3.233-7.995-8.987-1.263-4.978-3.918-6.978-4.829-3.637m-.237 12.718-2.06 2.331 2.201 2.559 2.201 2.559 2.309-2.458 2.308-2.457-2.45-2.433-2.45-2.433-2.059 2.332M20 93v22h34V71H20v22m39 0v22h34V71H59v22m7.703-14.208C62.65 82.943 62.018 85 64.797 85c2.305 0 9.649-7.47 8.759-8.91-1.188-1.921-3.059-1.183-6.853 2.702m4.885 5.119c-6.144 6.173-8.683 9.4-8.26 10.5.335.874 1.177 1.589 1.871 1.589C67.151 96 84 78.768 84 76.771c0-3.693-3.81-1.501-12.412 7.14" fill-rule="evenodd"/></svg>