<svg xmlns="http://www.w3.org/2000/svg" width="128" height="128"><path d="M36.341 4.933c-5.413 2.713-11.283 6.426-13.045 8.251-5.807 6.011-22.256 29.272-22.276 31.5-.019 2.089 10.004 15.9 14.199 19.566 3.202 2.798 5.804 2.084 10.586-2.907l4.462-4.657-.458 8.407c-.659 12.112-3.254 16.214-11.303 17.87-4.032.83-4.565 3.775-.822 4.545 9.704 1.995 11.714 5.919 12.162 23.753.319 12.691.511 13.876 2.473 15.25 1.805 1.264 8.756 1.489 45.98 1.489h43.855l2.923-2.923c3.344-3.344 3.907-8.227 1.366-11.854-1.409-2.012-1.409-2.434 0-4.446 1.994-2.846 1.994-7.708 0-10.554-1.409-2.012-1.409-2.434 0-4.446 2.541-3.627 1.978-8.51-1.366-11.854-2.908-2.908-2.985-2.923-15-2.923H98V56.722l4.32 4.639c4.64 4.983 7.242 5.702 10.461 2.889 4.195-3.666 14.218-17.477 14.199-19.566-.02-2.228-16.469-25.489-22.276-31.5-1.762-1.825-7.632-5.538-13.045-8.251L81.819 0H46.181l-9.84 4.933M48 5.599C48 9.437 57.467 15 64 15c6.533 0 16-5.563 16-9.401C80 4.2 77.995 4 64 4c-13.995 0-16 .2-16 1.599m-7.482 2.372c-1.851 2.994 6.09 10.921 13.592 13.568 4.983 1.758 14.313 1.901 18.991.291 7.569-2.606 16.215-10.892 14.41-13.812-1.093-1.769-3.15-1.107-4.282 1.379C80.817 14.69 72.186 19 64 19s-16.817-4.31-19.229-9.603c-1.12-2.459-3.186-3.152-4.253-1.426M29.756 13.52c-4.588 3.117-19.03 22.401-17.905 23.907 12.278 16.426 13.418 17.639 15.122 16.098 2.043-1.85 4.429-1.963 5.791-.275.555.688 1.2 5.525 1.434 10.75.594 13.259 2.971 17.25 11.296 18.963 4.032.83 4.565 3.775.822 4.545-8.359 1.718-11.458 6.227-12.118 17.631L33.743 113h13.022c10.355 0 13.133-.292 13.569-1.427.301-.785-.101-1.965-.893-2.622-1.988-1.65-1.85-8.842.214-11.122 1.54-1.702 1.54-1.956 0-3.658C58.684 93.098 58 90.656 58 88.26c0-3.331.566-4.559 3.077-6.671 3.009-2.532 3.404-2.589 18-2.589H94V66.7c0-12.416.602-14.7 3.871-14.7.809 0 2.23.686 3.156 1.525 1.704 1.541 2.844.328 15.122-16.098 1.125-1.506-13.317-20.79-17.905-23.907-4.745-3.224-5.857-3.169-7.692.38C86.813 21.13 73.876 28 64 28c-9.876 0-22.813-6.87-26.552-14.1-1.835-3.549-2.947-3.604-7.692-.38m23.791 23.73c-.215.688-.687 3.018-1.048 5.179C51.697 47.226 46.357 53 42.722 53c-3.164 0-5.151 2.171-3.498 3.824.647.647 2.15 1.176 3.341 1.176C47.301 58 53 65.297 53 71.361c0 2.732 2.18 4.059 3.878 2.361.617-.617 1.122-2.175 1.122-3.462C58 64.372 63.677 58 68.925 58c1.006 0 2.325-.596 2.929-1.324C73.319 54.911 71.419 53 68.2 53c-2.981 0-8.879-5.714-9.641-9.341-.307-1.462-.793-3.784-1.078-5.159-.537-2.588-3.247-3.449-3.934-1.25M6.421 43.459c-.5 1.991.554 3.891 5.545 10 6.015 7.361 8.546 8.975 9.633 6.144C22.155 58.155 9.564 41 7.946 41c-.5 0-1.186 1.106-1.525 2.459m106.085 6.144c-6.3 8.162-7.464 11.397-4.102 11.397.807 0 4.241-3.394 7.63-7.541 4.991-6.109 6.045-8.009 5.545-10-.339-1.353-1.025-2.459-1.525-2.459-.499 0-3.895 3.871-7.548 8.603m-60.019 2.718L49.5 55.5l3.076 3.155 3.076 3.155 2.54-3.184 2.54-3.184-2.629-3.15-2.63-3.149-2.986 3.178M28.851 82.344l-2.649 3.199 2.899 3.244L32 92.032l2.899-3.245 2.899-3.244-2.649-3.199c-1.457-1.76-2.874-3.2-3.149-3.2-.275 0-1.692 1.44-3.149 3.2m35.372 2.213C62.982 85.426 62 87.167 62 88.5c0 5.125 2.13 5.5 31.223 5.5 25.666 0 26.862-.085 28.828-2.051 1.414-1.414 1.849-2.734 1.399-4.25C122.102 83.154 121.108 83 93.031 83c-22.444 0-26.932.243-28.808 1.557m0 15c-1.241.869-2.223 2.61-2.223 3.943 0 5.12 2.146 5.5 31.031 5.5 28.077 0 29.071-.154 30.419-4.699.45-1.516.015-2.836-1.399-4.25C120.085 98.085 118.889 98 93.223 98c-22.618 0-27.123.242-29 1.557m-.568 15.272c-2.36 2.607-2.046 5.869.74 7.694 2.058 1.348 6.213 1.528 29.452 1.273 16.347-.179 27.427-.692 27.992-1.296 2.173-2.321 2.26-5.401.212-7.449-1.968-1.968-3.157-2.051-29.396-2.051-25.221 0-27.474.142-29 1.829m-29.333 3.774c-.352.918-.183 2.395.376 3.283.82 1.304 3.229 1.668 12.539 1.895l11.523.28-.669-3.28-.67-3.281-11.229-.283c-9.728-.245-11.315-.06-11.87 1.386" fill-rule="evenodd"/></svg>