<svg xmlns="http://www.w3.org/2000/svg" width="128" height="128"><path d="M36.972 1.877c-8.471 2.711-17.867 8.119-20.815 11.981-2.428 3.18-2.686 4.403-2.993 14.216-.381 12.192.29 14.238 5.266 16.037 1.886.682 3.639 2.046 3.897 3.032.427 1.633-.526 1.819-10.679 2.075L.5 49.5l-.302 5.83c-.268 5.172-.071 5.89 1.75 6.367C3.962 62.223 4 62.811 4 93.182c0 19.422.386 31.67 1.035 32.884.775 1.448 2.107 1.934 5.3 1.934 5.126 0 6.665-1.316 6.665-5.7 0-3.648 2.001-4.45 4.211-1.689 4.906 6.132 6.705 7.389 10.577 7.389 4.293 0 8.669-2.712 9.72-6.026.595-1.874 1.589-1.974 19.599-1.974H80.08l3.805 4c2.989 3.141 4.536 3.999 7.21 3.996 4.1-.004 9.478-3.074 10.383-5.927a2.96 2.96 0 0 1 2.839-2.083c1.201-.007 3.196-.285 4.433-.616 2.012-.539 2.25-.242 2.25 2.813 0 4.502 1.507 5.817 6.665 5.817 3.193 0 4.525-.486 5.3-1.934.649-1.214 1.035-13.425 1.035-32.763V62.474l2.25-.987c1.891-.829 2.297-1.889 2.547-6.635l.297-5.649-13.759-.147c-7.568-.081-13.899-.287-14.071-.458-.171-.172-.027-1.051.319-1.955.388-1.009 1.767-1.643 3.574-1.643 3.602 0 8.382-2.356 9.222-4.545 1.096-2.856.663-13.016-.629-14.754-.687-.924-5.15-2.994-9.917-4.599-7.412-2.496-10.011-4.038-17.949-10.645-5.106-4.249-10.754-8.34-12.551-9.091-5.038-2.105-29.251-1.765-36.361.511M42.5 5.061c-2.75.455-8.786 2.764-13.412 5.133-10.864 5.561-12.247 7.859-11.862 19.7.228 6.977.591 8.581 2.153 9.5 1.471.866 1.994.783 2.413-.384.294-.82 1.777-2.733 3.295-4.25 4.811-4.812 14.467-2.891 16.421 3.266C42.103 39.9 43.097 40 61.107 40H80.08l3.805-4c2.989-3.141 4.536-3.999 7.21-3.996 4.1.004 9.478 3.074 10.383 5.927.486 1.53 1.499 2.069 3.889 2.069 6.052 0 8.218-5.624 2.383-6.187-4.476-.431-4.36-3.15.163-3.813 2.758-.404 3.141-.721 2-1.652-.777-.634-3.334-1.666-5.682-2.294-7.971-2.131-12.714-4.851-21.548-12.358C76.478 8.423 72.57 5.877 69.49 5.102 64.52 3.85 49.962 3.828 42.5 5.061m.676 4.009c-4.953.975-13.899 4.884-18.226 7.966-3.211 2.286-3.88 5.393-1.368 6.357.87.334 14.609.607 30.531.607 26.16 0 29.012-.161 29.593-1.676.851-2.217-9.868-11.916-14.706-13.307-4.137-1.189-19.673-1.157-25.824.053M40.5 14.395c-2.2.694-5.35 1.996-7 2.893-2.959 1.609-2.872 1.632 6.25 1.672L49 19v-3c0-3.444-1.669-3.759-8.5-1.605M53 16v3l11.25-.041 11.25-.04-3.462-2.96C68.845 13.23 67.97 13 60.788 13H53v3m-1.554 13.087c-1.245 2.015 1.236 3.029 6.652 2.72 4.184-.239 5.457-.697 5.716-2.057.287-1.51-.494-1.75-5.682-1.75-3.308 0-6.316.489-6.686 1.087M29.28 37.029c-4.334 1.726-4.349 8.517-.023 10.937 2.464 1.378 3.023 1.378 5.493.003 6.815-3.795 1.795-13.833-5.47-10.94m59.946.011c-4.333 1.74-4.834 7.72-.879 10.491 2.87 2.01 5.279 1.843 7.653-.531 2.791-2.791 2.532-6.437-.635-8.927-2.934-2.309-2.954-2.312-6.139-1.033m-58.89 4.527c-.834 2.172 1.282 4.215 2.797 2.7C34.413 42.987 33.62 40 32 40c-.585 0-1.333.705-1.664 1.567m59.993.017c-.716 1.867 1.061 3.911 2.584 2.97 1.588-.981 1.328-3.248-.451-3.93-.891-.342-1.788.062-2.133.96M41.71 47c-.51 1.953-.03 2 20.419 2C82.76 49 83.055 48.97 82 47c-1.014-1.894-2.094-2-20.419-2-18.507 0-19.37.087-19.871 2M.31 55.5c.005 3.3.192 4.529.415 2.732.222-1.797.218-4.497-.01-6C.486 50.729.304 52.2.31 55.5m4.365-1.841C4.304 54.03 4 54.933 4 55.667 4 56.763 14.679 57 64.073 57c56.675 0 60.055-.099 59.737-1.75-.316-1.64-4.063-1.766-59.399-2.008-32.484-.142-59.365.046-59.736.417M9 93.073c0 29.056.114 31.052 1.75 30.737 1.614-.311 1.77-2.717 2.014-31.073.261-30.231.232-30.737-1.75-30.737C9.038 62 9 62.592 9 93.073m8-18.63v12.442l5.25-3.461c10.284-6.78 14.463-7.84 32.41-8.217 19.027-.399 19.149-.359 32.11 10.631 6.391 5.419 9.798 7.517 15 9.233 3.701 1.222 7.293 2.429 7.98 2.682.971.358 1.25-3.581 1.25-17.646V62H17v12.443m98.236 18.294c.244 28.356.4 30.762 2.014 31.073 1.636.315 1.75-1.681 1.75-30.737C119 62.592 118.962 62 116.986 62c-1.982 0-2.011.506-1.75 30.737M39.058 80.594c-8.321 2.237-18.228 8.302-20.306 12.432-1.982 3.937-2.442 16.816-.717 20.04 1.198 2.238 3.965 2.603 3.965.523C22 110.89 27.903 107 32 107s10 3.89 10 6.589c0 1.166 3.374 1.411 19.465 1.411 19.177 0 19.482-.033 20.617-2.25 1.929-3.766 5.154-5.704 9.533-5.728 4.473-.024 8.817 2.612 9.893 6.004.87 2.741 6.996 2.77 8.457.04 1.662-3.107 1.224-4.066-1.858-4.066-3.128 0-4.637-2.07-2.829-3.878.617-.617 1.932-1.122 2.922-1.122 3.029 0 2-1.798-1.45-2.536-7.621-1.628-15.034-5.603-23.071-12.371-4.626-3.896-10.033-7.761-12.013-8.588-4.771-1.994-25.066-1.938-32.608.089m2.223 3.376c-4.084.97-13.267 5.445-16.672 8.123C23.174 93.222 22 95.012 22 96.073 22 97.934 23.056 98 53 98c28.172 0 31-.151 31-1.654 0-1.796-6.117-7.502-11.889-11.091-3.248-2.019-4.817-2.235-15.611-2.148-6.6.054-13.448.442-15.219.863m-2.543 5.552c-2.07.76-4.757 2.078-5.973 2.93C30.702 93.897 31.167 94 39.777 94H49v-3c0-2.732-.29-2.994-3.25-2.93-1.788.039-4.943.693-7.012 1.452m14.446 1.228.316 2.75 11 .244 11 .244-3.266-2.994C69.172 88.187 68.466 88 60.918 88h-8.051l.317 2.75m-1.829 12.767c-1.009 2.629 1.018 3.617 6.752 3.29 4.624-.263 5.393-.592 5.393-2.307 0-1.734-.767-2.04-5.762-2.3-4.571-.238-5.89.034-6.383 1.317m-23.132 9.04c-4.628 3.241-1.987 10.776 3.777 10.776 3.805 0 6-2.365 6-6.467 0-2.854-3.081-5.866-6-5.866-.855 0-2.555.701-3.777 1.557m59.362.349c-2.705 2.989-1.762 8.257 1.78 9.947 2.556 1.219 3.148 1.155 5.5-.592 3.383-2.515 3.9-6.496 1.196-9.2-2.579-2.579-6.222-2.646-8.476-.155m-56.897 2.74c-1.416 1.415-.615 3.354 1.385 3.354 1.398 0 1.968-.543 1.75-1.667-.357-1.841-2.064-2.759-3.135-1.687m59.648.921c-.788 2.054.794 3.589 2.568 2.492 1.511-.934.815-4.059-.904-4.059-.585 0-1.333.705-1.664 1.567" fill-rule="evenodd"/></svg>