<svg xmlns="http://www.w3.org/2000/svg" width="128" height="128"><path d="M15.655 1.829C14.158 3.483 14 8.849 14 58.174c0 51.544.1 54.606 1.829 56.171 1.006.91 3.031 1.655 4.5 1.655 2.6 0 2.671.161 2.671 6.042v6.042l7.692-.292 7.691-.292 2.208-5.5 2.208-5.5h42.402l2.208 5.5 2.208 5.5 7.691.292 7.692.292v-6.042c0-5.974.032-6.042 2.845-6.042 6.36 0 6.155 1.937 6.155-58.174 0-51.544-.1-54.606-1.829-56.171C110.525.165 105.707 0 63.826 0 20.032 0 17.213.107 15.655 1.829m2.586 56.421.259 54.25h91l.259-54.25.258-54.25H17.983l.258 54.25m6.437-47.595c-.373.373-.678 6.453-.678 13.512V37h80.058l-.279-13.25-.279-13.25-39.072-.261c-21.489-.144-39.377.043-39.75.416M28 24v10h72V14H28v10m24.343-2.452c-1.136 2.96 2.66 4.388 11.657 4.388s12.793-1.428 11.657-4.388c-.676-1.76-2.24-2.032-3.157-.548-.34.55-4.165 1-8.5 1s-8.16-.45-8.5-1c-.917-1.484-2.481-1.212-3.157.548M24.441 45.294c-.278.724-.379 6.917-.223 13.761L24.5 71.5h79v-27l-39.277-.262c-31.751-.211-39.374-.009-39.782 1.056M28 58v10h72V48H28v10m24-1.45C52 59.219 54.717 60 64 60s12-.781 12-3.45c0-.675-4.286-1.05-12-1.05s-12 .375-12 1.05M24 92.5V106h80V79H24v13.5m4 .5v10h72V83H28v10m24-2.622c0 2.956 2.733 3.699 12.541 3.409 7.885-.232 9.951-.612 10.818-1.989 1.445-2.298.006-3.507-2.391-2.01-2.333 1.457-16.592 1.63-17.468.212-.92-1.488-3.5-1.209-3.5.378M27 120v4h4.5c2.475 0 4.5-.17 4.5-.378s.681-2.008 1.513-4L39.027 116H27v4m63.487-.378c.832 1.992 1.513 3.792 1.513 4 0 .208 2.025.378 4.5.378h4.5v-8H88.973l1.514 3.622" fill-rule="evenodd"/></svg>