<svg xmlns="http://www.w3.org/2000/svg" width="128" height="128"><path d="M34.262 1.529c-1.2.841-2.475 3.091-2.833 5-.594 3.162-.958 3.471-4.09 3.471-4.116 0-8.888 2.289-10.309 4.945-.567 1.058-1.03 3.753-1.03 5.989V25H9.934C-.058 25 0 24.91 0 40.335 0 49.319.387 53.987 1.2 54.8c1.604 1.604 7.281 1.53 8.644-.112.612-.737 1.214-6.548 1.373-13.25.265-11.177.411-11.938 2.283-11.938 1.798 0 2.027.757 2.271 7.5.339 9.372.731 10.658 2.741 8.99C19.698 45.006 20 41.951 20 30.934c0-13.148.108-13.896 2.223-15.377C24.143 14.211 29.818 14 64 14s39.857.211 41.777 1.557L108 17.113v71.799l-7.25.294-7.25.294-2.804 5.887c-1.543 3.238-2.569 6.501-2.282 7.25.391 1.019 2.931 1.363 10.055 1.363 9.425 0 9.531.027 9.531 2.429 0 5.625.423 5.571-43.637 5.571-26.002 0-41.187-.37-42.429-1.035-1.244-.666-1.934-2.092-1.934-4V104h9.531c7.124 0 9.664-.344 10.055-1.363.287-.749-.739-4.012-2.282-7.25L34.5 89.5l-7.25-.294-7.25-.294V71.079c0-13.7-.311-18.092-1.342-18.948-.738-.612-1.638-.818-2-.456-.362.362-.658 13.839-.658 29.949v29.291l3.5 2.792c2.999 2.394 3.5 3.393 3.5 6.986 0 6.078 2.224 7.307 13.223 7.307C46.72 128 49 126.572 49 120v-4h30v4c0 6.572 2.28 8 12.777 8 10.999 0 13.223-1.229 13.223-7.307 0-3.591.501-4.593 3.489-6.977l3.489-2.783.261-40.717c.256-39.962.298-40.716 2.261-40.716 1.872 0 2.018.761 2.283 11.938.159 6.702.761 12.513 1.373 13.25 1.605 1.934 7.259 1.616 9.189-.517 1.361-1.504 1.655-4.135 1.655-14.833 0-9.613-.326-13.065-1.25-13.237-.687-.127-4.513-.464-8.5-.748l-7.25-.517v-3.984c0-2.191-.463-4.849-1.03-5.907-1.421-2.656-6.193-4.945-10.309-4.945-3.132 0-3.496-.309-4.09-3.471C95.372.136 94.693 0 64 0 40.895 0 36.093.247 34.262 1.529m2.42 3.122C36.307 5.026 36 6.383 36 7.667V10h56.133l-.317-2.75L91.5 4.5l-27.068-.266c-14.887-.146-27.374.042-27.75.417M32 20c0 1.111.667 2 1.5 2s1.5-.889 1.5-2-.667-2-1.5-2-1.5.889-1.5 2m10.458-.933c-1.565 2.533 1.968 2.965 22.113 2.704C82.387 21.54 85.5 21.277 85.5 20c0-1.278-3.14-1.54-21.179-1.77-14.672-.187-21.389.071-21.863.837M93 20c0 1.111.667 2 1.5 2s1.5-.889 1.5-2-.667-2-1.5-2-1.5.889-1.5 2m-67.777 6.557C23.038 28.086 23 28.5 23 50.485c0 19.005.237 22.609 1.571 23.944C25.945 75.802 30.918 76 64 76s38.055-.198 39.429-1.571C104.763 73.094 105 69.49 105 50.485c0-21.985-.038-22.399-2.223-23.928-3.339-2.339-74.215-2.339-77.554 0M.395 40.5c.001 7.7.158 10.718.348 6.706.191-4.011.189-10.311-.002-14C.549 29.518.393 32.8.395 40.5M4 40.5C4 50.056 4.254 52 5.5 52S7 50.056 7 40.5C7 30.944 6.746 29 5.5 29S4 30.944 4 40.5m23.679-10.846c-.373.374-.679 10.054-.679 21.513V72h74.04l-.27-21.25-.27-21.25-36.071-.262c-19.839-.145-36.377.043-36.75.416M121 40.5c0 9.556.254 11.5 1.5 11.5s1.5-1.944 1.5-11.5c0-9.556-.254-11.5-1.5-11.5s-1.5 1.944-1.5 11.5M42.105 83.898c-1.83 1.18-1.065 4.775 2.841 13.352L48.02 104h31.96l3.089-6.75c1.699-3.713 3.334-8.19 3.633-9.95.472-2.779.218-3.282-1.925-3.82C80.573 82.425 74.5 83.323 74.5 85c0 1.014 1.353 1.662 4.177 2l4.177.5-2.677 6.238-2.677 6.238h-27l-2.67-6.238-2.671-6.238 11.988-.281c10.709-.252 11.952-.465 11.658-2-.287-1.499-1.925-1.751-12.817-1.97-6.869-.138-13.116.154-13.883.649m11.57 8.76c-.362.362-.156 1.262.456 2 1.559 1.878 18.179 1.878 19.738 0 .612-.738.818-1.638.456-2-.859-.858-19.791-.858-20.65 0M20 96.452V100h15.006l-1.322-3.25c-1.268-3.118-1.574-3.262-7.503-3.548L20 92.905v3.547m75.589-2.596c-.291.471-.981 2.046-1.534 3.5L93.05 100H108v-7h-5.941c-3.268 0-6.179.385-6.47.856M27.19 119.75l.31 3.75h17l.31-3.75.311-3.75H26.879l.311 3.75m56 0 .31 3.75h17l.31-3.75.311-3.75H82.879l.311 3.75" fill-rule="evenodd"/></svg>