<svg xmlns="http://www.w3.org/2000/svg" width="128" height="128"><path d="M4.5 1.155C.43 3.381 0 4.967 0 17.764c0 11.254.16 12.352 1.75 12.047 1.525-.292 1.787-1.807 2.035-11.762.157-6.322.77-12.013 1.372-12.738C6.679 3.477 120.969 3.369 122.8 5.2c1.8 1.8 1.726 116.118-.075 117.614-.702.582-3.514 1.199-6.25 1.372-3.616.228-4.975.724-4.975 1.814 0 1.948 7.672 2.586 11.589.963 6.158-2.551 5.951-.265 5.853-64.465-.054-35.663-.45-58.302-1.015-57.953-.51.315-.927.108-.927-.46 0-.569-1.328-1.72-2.95-2.559C121.504.209 113.246.004 63.8.03 24.26.051 5.88.4 4.5 1.155M.389 17.5c.001 7.15.161 9.944.353 6.208.193-3.735.192-9.585-.003-13C.545 7.294.387 10.35.389 17.5M28.2 8.2c-1.554 1.554-1.554 9.046 0 10.6 1.705 1.705 48.895 1.705 50.6 0 1.554-1.554 1.554-9.046 0-10.6-1.705-1.705-48.895-1.705-50.6 0m2.8 5.3V16h45v-5H31v2.5M16.655 24.829C15.163 26.478 15 31.443 15 75.329V124h-4.378c-2.437 0-4.87-.593-5.489-1.339-.768-.926-1.192-14.578-1.372-44.167-.202-33.186-.542-42.921-1.511-43.244C1.262 34.921 1 44.289 1 79.891v45.058l2.969 1.535c2.572 1.33 9.55 1.5 52.236 1.275 46.008-.242 49.29-.375 49.605-2.009.295-1.533-.539-1.75-6.737-1.75H92V75.155c0-46.05-.105-48.94-1.829-50.5C88.543 23.181 84.506 23 53.326 23c-32.653 0-35.128.123-36.671 1.829M19 75.525v48.525l16.25-.275 16.25-.275.26-48.25.259-48.25H19v48.525m37-.025V124h32V27H56v48.5m48.468-22.449C98.192 62.992 98.792 65 108.041 65c10.193 0 10.945-1.362 5.748-10.41-3.877-6.751-5.828-7.073-9.321-1.539m2.475 3.699a543.84 543.84 0 0 0-1.744 3.5c-.201.413 1.247.75 3.218.75 1.971 0 3.583-.247 3.583-.55 0-.75-2.974-6.45-3.365-6.45-.173 0-.934 1.237-1.692 2.75m-6.021 17.844c-1.121 1.351-.889 2.379 1.526 6.75 5.391 9.756 6.779 10.009 11.341 2.066 5.197-9.048 4.445-10.41-5.748-10.41-4.084 0-6.187.471-7.119 1.594M105 77.476c0 .262.86 1.891 1.912 3.62l1.912 3.144 1.588-3.07c2.128-4.116 2.104-4.17-1.912-4.17-1.925 0-3.5.214-3.5.476" fill-rule="evenodd"/></svg>