<svg xmlns="http://www.w3.org/2000/svg" width="128" height="128"><path d="M43.564 3.929c-1.374 1.518-1.704 3.493-1.548 9.25C42.353 25.627 42.284 26 39.655 26 35.127 26 34 28.728 34 39.689V49.72l-5.478.566c-6.483.669-14.431 4.707-18.593 9.447-10.755 12.25-10.755 28.284 0 40.534 4.162 4.74 12.11 8.778 18.593 9.447l5.478.566v6.205C34 126.647 30.861 126 80.174 126c39.919 0 42.617-.112 44.171-1.829 1.49-1.646 1.655-6.464 1.655-48.345 0-43.794-.107-46.613-1.829-48.171-1.006-.91-2.806-1.655-4-1.655-2.094 0-2.171-.383-2.171-10.8 0-7.067-.415-11.215-1.2-12-1.634-1.634-19.966-1.634-21.6 0-.785.785-1.2 4.933-1.2 12 0 10.133-.123 10.8-2 10.8-2.232 0-2.344-.714-2.016-12.821C90.295 1.703 90.932 2 66 2c-19.168 0-20.818.142-22.436 1.929m2.85 3.435c-.297.774-.399 3.371-.227 5.772L46.5 17.5h39v-11l-19.273-.272c-15.827-.223-19.37-.02-19.813 1.136M98 16v10h7.349l-2.361-2.513c-1.824-1.941-2.091-2.784-1.173-3.702.917-.917 2.051-.345 4.979 2.514C113.11 28.466 114 27.689 114 16V6H98v10m3.432-5.889c-.385.622 1.558 3.355 4.422 6.219 4.031 4.031 5.366 4.85 6.333 3.883.967-.967.189-2.278-3.693-6.219-5.175-5.254-5.951-5.681-7.062-3.883M56 12c0 1.897.667 2 13 2s13-.103 13-2-.667-2-13-2-13 .103-13 2m-9.541 11.066c-1.549 2.506 1.891 2.969 20.114 2.707C82.609 25.542 85.5 25.271 85.5 24c0-1.272-2.918-1.541-19.178-1.771-13.229-.188-19.39.072-19.863.837m-7.781 7.59c-.373.372-.678 3.077-.678 6.011V42h84.1l-.3-5.75-.3-5.75-41.072-.261c-22.59-.143-41.378.044-41.75.417M46 36c0 1.333.667 2 2 2s2-.667 2-2-.667-2-2-2-2 .667-2 2m8 0c0 1.333.667 2 2 2s2-.667 2-2-.667-2-2-2-2 .667-2 2m8 0c0 1.333.667 2 2 2s2-.667 2-2-.667-2-2-2-2 .667-2 2m16 0c0 1.778.667 2 6 2s6-.222 6-2-.667-2-6-2-6 .222-6 2m16 0c0 1.833.667 2 8 2s8-.167 8-2-.667-2-8-2-8 .167-8 2M38 48.5c0 1.584.564 2.5 1.54 2.5 2.352 0 8.993 3.651 12.932 7.11L56 61.207l3.528-3.097c6.817-5.986 11.125-7.585 20.472-7.598 7.552-.011 9.093.317 13.819 2.934 15.668 8.68 20.741 26.938 11.671 42.001-3.302 5.483-3.384 5.861-2.289 10.603.853 3.695.848 5.548-.021 7.454-1.875 4.116-9.647 6.048-12.158 3.022-1.076-1.296-1.586-1.286-4.23.082-3.616 1.87-7.423 1.131-8.292-1.608-.348-1.097-1.808-2.29-3.243-2.65-2.356-.592-3.692-.292-9.507 2.134-1.525.636-1.752.107-1.768-4.127-.016-4.439-.363-5.144-4.027-8.187l-4.01-3.329-3.5 3.073C48.498 105.38 41.88 109 39.492 109c-1.312 0-1.536 1.083-1.29 6.25l.298 6.25h83l.262-37.75.262-37.75H38v2.5m-14.031 7.036c-5.123 1.579-11.586 6.719-14.276 11.352-1.802 3.106-1.801 3.112.5 3.1 1.515-.009 3.059-1.175 4.5-3.399 3.339-5.157 11.85-8.958 18.774-8.383C44.854 59.15 54 68.858 54 80c0 11.142-9.146 20.85-20.533 21.794-6.924.575-15.435-3.226-18.774-8.383-1.441-2.224-2.985-3.39-4.5-3.399-2.301-.012-2.302-.006-.5 3.1C13.742 100.086 23.978 106 32 106c13.305 0 26-12.695 26-26 0-10.368-8.236-21.508-18.059-24.425-6.36-1.889-9.943-1.897-15.972-.039m47.922.023c-2.535.781-6.544 3.136-8.908 5.234-3.768 3.344-4.21 4.165-3.584 6.66l.714 2.845 2.423-3.565c3.639-5.356 11.963-9.105 18.931-8.527 7.883.653 14.143 4.8 17.827 11.809 2.99 5.688 3.127 8.185 1.114 20.235-.816 4.883 1.161 5.026 3.165.23 4.266-10.211 2.224-20.778-5.509-28.511-7.294-7.295-16.211-9.478-26.173-6.41m-47.723 8.53c-12.163 6.181-13.309 23.157-2.065 30.598 14.976 9.911 33.679-6.111 25.898-22.185-4.4-9.089-15.082-12.86-23.833-8.413m48 .057c-8.26 4.089-12.188 14.247-8.655 22.384l1.724 3.97.83-2.881c1.85-6.422 8.079-9.607 11.946-6.107 1.49 1.348 2.131 1.348 5.954 0 5.381-1.899 8.124-1.91 10.592-.044 3.129 2.367 3.732 1.804 3.192-2.986-.689-6.109-4.622-11.757-10.001-14.361-5.562-2.693-10.106-2.686-15.582.025M6 80c0 5.333.222 6 2 6s2-.667 2-6-.222-6-2-6-2 .667-2 6m65.689 5.791c-1.125 1.243-1.869 4.89-2.431 11.919l-.81 10.127 4.776.332 4.777.331v-9.25C78 90.666 78.144 90 80 90c1.889 0 2 .667 2 12 0 6.6.241 12 .535 12 1.813 0 5.451-3.502 5.071-4.882-.245-.89-.742-4.655-1.105-8.368-.617-6.303-.528-6.75 1.34-6.75 2.177 0 2.562 1.199 3.693 11.5.9 8.196 2.783 10.182 6.841 7.215 1.665-1.217 1.62-1.887-.853-12.75-1.435-6.306-2.845-12.251-3.132-13.213-.931-3.11-4.748-3.072-12.255.123-6.678 2.841-7.176 2.917-8.079 1.23-.65-1.215-.588-2.173.191-2.952.733-.733.772-1.153.108-1.153-.575 0-1.774.806-2.666 1.791m-12.265 6.658c-.564 2.246-.119 3.317 2.443 5.88 3.015 3.014 3.133 3.046 3.133.849 0-1.256-1.1-3.902-2.444-5.88l-2.443-3.596-.689 2.747" fill-rule="evenodd"/></svg>