<svg xmlns="http://www.w3.org/2000/svg" width="128" height="128"><path d="M59.655 3.829C57.411 6.308 57.57 10.301 60 12.5c2.924 2.646 2.577 5.301-.741 5.684-2.474.285-2.807.805-3.41 5.316-.368 2.75-.975 10.655-1.349 17.566-.613 11.323-.89 12.696-2.801 13.89-1.846 1.152-2.254 1.082-3.159-.542-2.223-3.99-7.324-8.269-11.265-9.45-5.827-1.745-7.271-.904-7.297 4.255-.019 3.838-.355 4.436-3.248 5.781-6.206 2.885-6.206 11.115 0 14 2.893 1.345 3.229 1.943 3.248 5.781.026 5.159 1.47 6 7.297 4.255 3.953-1.185 8.934-5.37 11.377-9.56 1.025-1.757 1.319-1.809 2.655-.476 1.327 1.325 1.343 3.828.142 21.5-.749 11-1.38 20.765-1.405 21.7-.035 1.362-1.188 1.76-5.794 2l-5.75.3v11h51v-11l-5.637-.297-5.637-.296-.606-7.204c-.334-3.961-1.327-18.838-2.208-33.058-1.244-20.081-1.334-26.111-.403-27 .908-.868 1.476-.667 2.345.831 2.424 4.179 7.415 8.374 11.371 9.56 5.827 1.745 7.271.904 7.297-4.255.019-3.838.355-4.436 3.248-5.781 6.206-2.885 6.206-11.115 0-14-2.893-1.345-3.229-1.943-3.248-5.781-.026-5.159-1.47-6-7.297-4.255-3.956 1.186-8.947 5.381-11.371 9.56-1.842 3.173-3.712.361-4.86-7.307-.941-6.291-1.179-6.737-3.75-7.033-3.321-.383-3.669-3.037-.744-5.684C72.088 8.8 69.385 2 63.826 2c-1.384 0-3.261.823-4.171 1.829M102 3.872c0 1.384.631 2.128 1.804 2.128.992 0 4.148 1.169 7.014 2.597 5.543 2.762 9.563 8.058 10.796 14.222.461 2.304 1.188 3.181 2.639 3.181 1.785 0 1.931-.446 1.346-4.105-1.601-10.011-9.483-17.893-19.494-19.494-3.726-.596-4.105-.46-4.105 1.471M62.446 7.087c-1.03 1.668 1.287 3.58 2.667 2.2C66.267 8.133 65.545 6 64 6c-.485 0-1.184.489-1.554 1.087M102 11.796c0 1.455.857 2.233 2.973 2.698 3.301.725 7.699 5.351 8.636 9.083.392 1.562 1.324 2.423 2.624 2.423 1.739 0 1.929-.447 1.38-3.25-1.157-5.908-6.455-11.206-12.363-12.363-2.815-.552-3.25-.363-3.25 1.409m0 7.659c0 1.884 4.661 6.545 6.545 6.545 2.237 0 1.729-2.817-1-5.545-2.728-2.729-5.545-3.237-5.545-1M62.306 25c.623 1.65 1.385 3 1.694 3 .309 0 1.071-1.35 1.694-3 1.092-2.893 1.031-3-1.694-3-2.725 0-2.786.107-1.694 3m-44.454.391C10.98 27.846 4.855 34.265 2.995 40.959 1.502 46.333 1.74 48 4 48c1.261 0 2-.667 2-1.804 0-.992 1.169-4.148 2.597-7.014 2.762-5.543 8.058-9.563 14.222-10.796C25.036 27.943 26 27.182 26 25.875c0-2.241-2.77-2.405-8.148-.484m70.219 2.359C82.914 30.382 80.5 34.288 80.5 40s2.414 9.618 7.571 12.25l3.429 1.751.294-7.001c.161-3.85.161-10.15 0-14l-.294-7.001-3.429 1.751m-29.036 7c-.019 2.888.146 5.25.367 5.25s.844-1.267 1.384-2.816c.715-2.05.615-3.478-.367-5.25-1.271-2.294-1.35-2.133-1.384 2.816m8.241-2.456c-.762 1.672-.692 3.094.258 5.25 1.287 2.918 1.305 2.888 1.385-2.294.044-2.888-.072-5.25-.258-5.25-.187 0-.81 1.032-1.385 2.294M19.5 33.412c-4.999 2.222-9.5 8.453-9.5 13.153 0 3.091 3.554 1.249 5.5-2.851 1.462-3.081 3.133-4.752 6.214-6.214 7.17-3.403 5.05-7.317-2.214-4.088M96 40c0 4.327 1.342 4.99 3.423 1.69.756-1.197.756-2.183 0-3.38C97.342 35.01 96 35.673 96 40m-23 0c0 1.289.506 1.998 1.25 1.75.688-.229 1.25-1.017 1.25-1.75 0-.733-.562-1.521-1.25-1.75-.744-.248-1.25.461-1.25 1.75m-52.545 2.455c-2.729 2.728-3.237 5.545-1 5.545C21.339 48 26 43.339 26 41.455c0-2.237-2.817-1.729-5.545 1m40.458 4.931-2.587 6.356 2.439 4.129C62.106 60.142 63.562 62 64 62c.438 0 1.894-1.858 3.235-4.129l2.439-4.129-2.587-6.356c-1.423-3.495-2.812-6.355-3.087-6.355-.275 0-1.664 2.86-3.087 6.355M34 62.027V75.95l2.75-1.041c11.691-4.43 11.853-21.714.241-25.762L34 48.104v13.923M27.2 59.2c-1.536 1.536-1.536 4.064 0 5.6 2.067 2.067 2.8 1.335 2.8-2.8s-.733-4.867-2.8-2.8M50.5 61c-.729 1.18.217 3 1.559 3 .518 0 .941-.9.941-2 0-2.109-1.455-2.691-2.5-1m6.517 7.25.017 6.25 2.095-3.272c1.827-2.853 1.937-3.654.862-6.25-1.938-4.678-2.992-3.518-2.974 3.272m10.992-3.272c-1.075 2.596-.965 3.397.862 6.25l2.095 3.272.017-6.25c.018-6.79-1.036-7.95-2.974-3.272m-7.856 12.785c-3.262 5.579-3.305 5.798-1.711 8.73.899 1.654 2.517 4.132 3.596 5.507L64 94.5l1.962-2.5c1.079-1.375 2.697-3.853 3.596-5.507 1.594-2.932 1.551-3.151-1.711-8.73-1.841-3.148-3.572-5.724-3.847-5.724-.275 0-2.006 2.576-3.847 5.724m-4.511 15.443c-.338 1.262-.611 4.994-.606 8.294l.008 6 1.933-2.5c4.27-5.524 4.435-6.5 1.761-10.434-2.38-3.504-2.507-3.56-3.096-1.36m13.511 1.477c-2.525 3.857-2.342 4.869 1.87 10.317l1.933 2.5-.049-6.5c-.069-9.449-.847-10.757-3.754-6.317M59.631 108.5 55.98 114h16.04l-3.651-5.5C66.36 105.475 64.394 103 64 103c-.394 0-2.36 2.475-4.369 5.5M42 120c0 1.939.667 2 22 2s22-.061 22-2-.667-2-22-2-22 .061-22 2" fill-rule="evenodd"/></svg>