<svg xmlns="http://www.w3.org/2000/svg" width="128" height="128"><path d="M65.5 27.884c-11.55 5.433-22.237 11.086-23.75 12.56-3.878 3.782-3.738 9.085.432 16.374 1.75 3.058 2.762 5.71 2.25 5.892-.513.182-8.131 4.596-16.929 9.81C18.705 77.734 10.548 82 9.376 82 6.301 82 4.385 84.554 6 86.5c.685.825 2.202 1.504 3.372 1.509 1.171.005 4.378 1.116 7.128 2.469 6.675 3.283 13.385 3.298 20 .044 6.407-3.152 11.312-3.158 17.5-.022 6.477 3.282 12.784 3.279 19.849-.01 6.693-3.116 11.269-3.107 17.651.032 6.646 3.27 13.019 3.262 19.5-.022 2.713-1.375 6.018-2.5 7.344-2.5 3.314 0 5.331-2.482 3.656-4.5-1.748-2.107-4.691-1.857-10.613.9-7.645 3.56-10.616 3.96-15.033 2.026-2.12-.928-5.326-2.226-7.126-2.885-2.604-.954-5.509-4.443-14.247-17.115L64.004 50.51l15.455-7.739c8.499-4.257 15.923-8.617 16.497-9.69 1.354-2.529 1.336-7.667-.036-10.231-.947-1.77-6.445-4.855-8.638-4.847-.43.001-10.232 4.448-21.782 9.881m.642 5.845c-14.41 6.831-20.653 10.299-21.369 11.87-.826 1.814-.316 3.507 2.787 9.252 2.969 5.497 3.594 7.488 2.866 9.121-.525 1.175-7.878 6.181-16.818 11.449-16.908 9.963-17.131 10.264-8.893 12.032 2.427.522 4.755-.001 9.5-2.131C42.283 81.7 48.763 81.571 55 84.908c5.859 3.135 12.401 3.244 17.189.284C74.14 83.987 76.47 83 77.368 83c.898 0 1.632-.193 1.632-.43 0-.236-4.459-6.891-9.908-14.79-5.449-7.898-10.003-15.017-10.118-15.82-.628-4.353.236-5.053 15.948-12.921 16.181-8.102 18.77-10.296 16.038-13.587-.663-.799-1.937-1.434-2.832-1.413-.896.021-10.789 4.382-21.986 9.69m28.495 8.736c-17.858 6.366-16.34 32.221 2.135 36.372 10.954 2.462 21.725-5.192 22.98-16.33 1.009-8.952-5.019-18.099-13.475-20.447-4.865-1.351-6.914-1.28-11.64.405m.781 5.504c-3.164 1.28-7.261 6.679-7.981 10.517C86.16 65.293 93.312 74 100.18 74c8.028 0 13.81-5.906 13.816-14.115.008-9.273-9.707-15.504-18.578-11.916M5.38 100.452c-.801 2.088.4 3.546 2.929 3.558 1.205.005 4.666 1.197 7.691 2.649 7.404 3.553 13.726 3.56 21.096.025 6.943-3.33 8.99-3.336 15.904-.051 3.86 1.834 7.14 2.613 11 2.613 3.86 0 7.14-.779 11-2.613 6.898-3.278 8.947-3.276 15.894.01 7.052 3.336 13.935 3.505 19.85.487 2.324-1.185 5.919-2.507 7.99-2.937 2.804-.583 3.766-1.282 3.766-2.738 0-3.11-6.227-3.116-12.788-.012-6.779 3.207-10.471 3.22-16.712.057-6.597-3.343-13.655-3.339-20.849.01-6.669 3.104-10.289 3.097-16.651-.032-6.768-3.329-13.902-3.322-20.5.022-6.191 3.137-10.157 3.142-16.5.022-5.661-2.785-12.256-3.322-13.12-1.07" fill-rule="evenodd"/></svg>