<svg xmlns="http://www.w3.org/2000/svg" width="128" height="128"><path d="M62.683.65C62.308 1.026 62 3.718 62 6.633v5.299l-10.75.284-10.75.284-.3 5.75-.3 5.75h-9.597l-2.242-8.487C24.946 3.722 22.846 2 11.578 2 2.733 2 0 3.331 0 7.638c0 4.096 2.487 5.827 9.137 6.358l6.304.504 10.725 41.939c6.375 24.927 11.483 42.953 12.592 44.438 1.026 1.375 3.108 3.427 4.626 4.561 2.661 1.988 4.161 2.072 41.822 2.346 35.506.258 39.231.13 40.928-1.405 2.434-2.203 2.375-5.87-.134-8.379-1.928-1.928-3.333-2-38.977-2H50.046l-1.404-2.25c-1.302-2.086-3.023-7.665-2.411-7.817.148-.036 17.472-2.199 38.499-4.807 35.545-4.407 38.408-4.907 40.768-7.124l2.537-2.384-.267-23.559L127.5 24.5l-6.719-.295-6.718-.295-.282-11.705L113.5.5 88.433.233C74.647.086 63.059.274 62.683.65M66 7.95v3.95l5.75.3 5.75.3.299 5.719.299 5.718 11.701.282c9.609.231 11.701.549 11.701 1.781 0 1.295-4.778 1.568-35 2-34.167.488-35 .548-35 2.5 0 1.101-.667 2-1.483 2-1.046 0-2.43-3.486-4.698-11.834-1.767-6.509-3.743-12.471-4.389-13.25C20.097 6.412 17.442 6 11.804 6c-7.032 0-7.912.202-7.618 1.75.267 1.407 1.699 1.848 7.315 2.25l6.982.5 10.695 41.889c5.882 23.039 11.25 43.23 11.929 44.868.678 1.639 2.619 3.825 4.313 4.858 2.87 1.749 5.663 1.878 40.903 1.881 35.485.004 37.803-.104 37.487-1.746-.311-1.619-3.162-1.787-38.162-2.25-37.088-.49-37.86-.542-39.55-2.629-2.501-3.091-16.533-58.336-15.165-59.704.673-.673 1.407-.716 1.985-.117.505.522 3.406 10.563 6.447 22.313 3.04 11.75 5.69 21.525 5.888 21.723.626.626 74.143-8.587 76.497-9.587 2.234-.949 2.25-1.11 2.25-22.439V28.078l-8.669-.289c-6.073-.202-8.8-.683-9.106-1.605-.24-.724.511-1.564 1.67-1.867 1.961-.513 2.105-1.226 2.105-10.434V4H66v3.95M44 20v4h30v-8H44v4m6.475 17.204c-.289.753-.401 9.003-.25 18.333C50.457 69.826 50.736 72.5 52 72.5c1.278 0 1.5-2.657 1.5-17.917 0-13.44-.312-18.02-1.249-18.333-.688-.229-1.487.2-1.776.954m12.213-.558c-.379.378-.688 8.262-.688 17.521C62 70.399 62.072 71 64.024 71c1.963 0 2.015-.51 1.75-17.168-.257-16.1-.853-19.42-3.086-17.186m11.785.563c-.29.756-.403 8.331-.25 16.833.232 12.951.52 15.458 1.777 15.458 1.272 0 1.5-2.491 1.5-16.417 0-12.24-.318-16.522-1.249-16.833-.688-.229-1.487.202-1.778.959m12.215-.563c-.379.378-.688 7.587-.688 16.021C86 67.397 86.08 68 88.025 68c1.96 0 2.017-.511 1.75-15.668-.257-14.655-.892-17.881-3.087-15.686m11.783.569c-.292.76-.404 7.66-.251 15.333.233 11.611.532 13.952 1.78 13.952 1.266 0 1.5-2.324 1.5-14.917 0-11.041-.325-15.025-1.249-15.333-.688-.229-1.488.205-1.78.965m12.217-.569c-.379.378-.688 6.864-.688 14.414 0 11.429.257 13.825 1.538 14.316 2.306.885 2.548-.773 2.242-15.345-.261-12.443-.969-15.509-3.092-13.385M36.5 113.155c-3.059 1.673-4.5 3.94-4.5 7.082 0 3.867 4.014 7.763 8 7.763 3.571 0 8-3.824 8-6.907 0-3.273-2.057-6.798-4.657-7.983-3-1.366-4.278-1.358-6.843.045m78.423 1.768c-3.295 3.296-3.562 4.94-1.46 9.005 4.583 8.864 17.517 2.001 13.916-7.383-.7-1.823-5.435-4.545-7.906-4.545-.895 0-2.942 1.315-4.55 2.923m-77.883 2.529c-2.657 3.201 1.245 8.118 4.71 5.936C45.212 121.207 43.979 116 40 116c-.965 0-2.297.653-2.96 1.452m80 0c-2.657 3.201 1.245 8.118 4.71 5.936 3.462-2.181 2.229-7.388-1.75-7.388-.965 0-2.297.653-2.96 1.452" fill-rule="evenodd"/></svg>