<svg xmlns="http://www.w3.org/2000/svg" width="128" height="128"><path d="M33.11 9.396c-5.022 2.783-5.037 2.935-5.075 51.404-.037 47.423.174 49.915 4.36 51.521.809.311 1.613 2.053 1.787 3.872.318 3.303.324 3.307 5.818 3.307 5.257 0 5.514-.122 5.816-2.75l.317-2.75h35.734l.317 2.75c.302 2.628.559 2.75 5.816 2.75 5.494 0 5.5-.004 5.818-3.307.174-1.819.978-3.561 1.787-3.872 4.178-1.603 4.395-4.132 4.395-51.224 0-48.34-.07-49.048-5.145-51.672-3.867-2-58.143-2.026-61.745-.029M34 14c-1.81 1.81-2 3.333-2 16v14h64V30c0-19.63 2.898-18-32-18-26.667 0-28.095.095-30 2m4.446 7.281c-.293.762-.4 5.174-.239 9.803L38.5 39.5h11v-19l-5.261-.303c-3.779-.217-5.411.088-5.793 1.084M42 30c0 5.333.222 6 2 6s2-.667 2-6-.222-6-2-6-2 .667-2 6M32 77c0 27.667.092 29.092 2 31 1.905 1.905 3.333 2 30 2s28.095-.095 30-2c1.908-1.908 2-3.333 2-31V48H32v29m6.446-23.719c-.293.762-.4 5.174-.239 9.803L38.5 71.5h11v-19l-5.261-.303c-3.779-.217-5.411.088-5.793 1.084M42 62c0 5.333.222 6 2 6s2-.667 2-6-.222-6-2-6-2 .667-2 6m-4 53c0 .55.9 1 2 1s2-.45 2-1-.9-1-2-1-2 .45-2 1m48 0c0 .55.9 1 2 1s2-.45 2-1-.9-1-2-1-2 .45-2 1" fill-rule="evenodd"/></svg>