<svg xmlns="http://www.w3.org/2000/svg" width="128" height="128"><path d="M56 .876c-9.906 3.259-18.849 11.797-21.643 20.661-.933 2.958-2.367 5.637-3.188 5.952-3.976 1.525-15.994 10.443-23.164 17.189L0 52.208v9.741c0 12.502.408 12.892 21 20.058l10.5 3.654 3.212 6.42c3.401 6.796 6.679 19.265 7.813 29.718.715 6.6 2.538 8.016 3.475 2.701.71-4.026 2.095-4.029 5.987-.014C53.86 126.419 55.819 128 56.34 128c.522 0 2.458-1.687 4.304-3.75L64 120.5l3.356 3.75c1.846 2.063 3.739 3.75 4.208 3.75.468 0 2.518-1.627 4.554-3.615 4.088-3.992 5.882-3.787 5.882.674 0 1.769.526 2.941 1.32 2.941.904 0 1.688-2.759 2.487-8.75 1.582-11.855 3.658-19.398 7.481-27.174l3.212-6.533 10.5-3.584c11.694-3.991 16.418-6.203 19.75-9.25 2.043-1.868 2.25-2.968 2.25-11.942 0-5.437-.377-9.652-.837-9.367-.461.284-2.599-1.321-4.75-3.567-5.411-5.647-17.38-15.137-23.264-18.444-4.283-2.408-5.107-3.413-6.55-7.993-2.092-6.635-9.144-14.621-15.991-18.107C72.158.513 60.916-.742 56 .876m8.793 7.586c2.039 3.004 4.01 5.479 4.38 5.5C70.75 14.051 76 8.665 76 6.958c0-2.129-5.144-3.943-11.207-3.952L61.087 3l3.706 5.462M51 5.934c-1.925 1.038-4.729 3.18-6.232 4.762-2.259 2.378-2.432 2.891-1 2.963.953.049 6.12.437 11.482.862 6.74.535 9.75.444 9.75-.296 0-2.041-6.599-9.726-8.545-9.951-1.075-.124-3.53.623-5.455 1.66m27.016 4.027c-.802 1.937-2.668 3.859-4.676 4.816-3.392 1.618-3.947 2.719-2.51 4.982.614.967 2.036 1.025 6.121.25C79.878 19.454 83.787 19 85.636 19c1.85 0 3.364-.483 3.364-1.074 0-.591-2.171-3.35-4.824-6.132l-4.824-5.057-1.336 3.224m-37.18 6.701C38.331 17.342 36 24.287 36 31.071v6.031l3.25-2.465c4.495-3.408 16.095-9.06 23.036-11.222 4.137-1.289 5.701-2.247 5.489-3.359-.227-1.191-2.171-1.696-8.286-2.153-4.394-.329-10.014-.844-12.489-1.145-2.475-.301-5.249-.344-6.164-.096m35.414 6.061c-2.667.331-3.25.841-3.25 2.84 0 1.652.564 2.439 1.75 2.443 4.689.015 9.99 2.478 13.5 6.273L92 38.333v-6.585c0-9.493-.203-9.777-6.857-9.588-3.104.088-7.106.342-8.893.563m-17.826 5.139c-8.202 3.237-17.342 8.285-19.682 10.871-1.502 1.659-1.498 2.062.058 5.274 2.074 4.283 8.897 11.254 10.513 10.741.653-.208 3.313-4.362 5.911-9.231 5.16-9.671 8.524-13.756 12.78-15.519 2.025-.839 2.634-1.665 2.266-3.072-.684-2.619-3.38-2.406-11.846.936m-33.665 7.033c-4.124 2.692-10.707 7.921-14.629 11.621L3 53.242v8.856c0 10.419-.491 9.869 13.712 15.348C26.319 81.152 28.537 81.677 27.5 80c-.34-.55-1.647-1-2.904-1C22.042 79 19 76.167 19 73.787c0-.947-2.148-2.427-5.5-3.787L8 67.768V54.292l7.25-6.302c3.988-3.466 9.612-7.87 12.5-9.787 3.864-2.566 5.25-4.109 5.25-5.845 0-1.297-.167-2.358-.372-2.358-.204 0-3.745 2.203-7.869 4.895M95 32.411c0 1.884 1.266 3.325 5.25 5.976 2.888 1.922 8.513 6.301 12.5 9.731l7.25 6.236v13.414l-5.389 2.187c-4.373 1.775-5.496 2.721-5.956 5.018-.383 1.919-1.466 3.159-3.36 3.85-1.537.56-2.289 1.055-1.671 1.098 1.474.104 18.473-6.756 20.11-8.115.844-.701 1.266-3.956 1.266-9.77v-8.719l-6.25-5.961c-5.915-5.642-16.569-13.698-21.5-16.258-2.043-1.061-2.25-.94-2.25 1.313m-19.934.26c.036 1.006.598 6.673 1.25 12.594L77.5 56.029l3.715-2.527c2.043-1.39 4.896-4.541 6.339-7.003l2.623-4.477-2.106-3.407c-2.475-4.005-5.368-6.082-9.836-7.063-2.738-.602-3.225-.43-3.169 1.119m-7.781 1.296c-2.947 1.797-7.501 7.775-9.035 11.859-.346.921-1.862 3.778-3.37 6.35l-2.741 4.677 3.08 1.073c3.386 1.181 12.912 1.413 16.673.407 2.367-.634 2.385-.739 1.791-10.237-.647-10.345-1.562-16.098-2.558-16.092-.344.002-2.072.885-3.84 1.963m-39.77 8.107c-3.224 2.259-8.253 6.204-11.176 8.767-5.114 4.484-5.314 4.851-5.326 9.782L11 65.745l4.739 2.051c3.154 1.366 5.129 1.728 5.905 1.085.718-.596 18.202-.915 45.511-.831 33.663.104 45.007-.165 47.095-1.117 2.488-1.134 2.75-1.751 2.75-6.463v-5.21l-7.058-5.88c-3.881-3.234-8.915-7.128-11.186-8.654l-4.128-2.774-1.738 4.578c-2.456 6.471-7.773 12.536-14.026 15.999C73.972 61.239 72.665 61.5 64 61.5c-8.665 0-9.972-.261-14.864-2.971-6.25-3.462-11.57-9.528-14.023-15.991l-1.735-4.571-5.863 4.107M.37 62c0 5.775.165 8.138.367 5.25.202-2.888.202-7.612 0-10.5S.37 56.225.37 62m21.987 10.513c-.32.832-.025 2.182.654 3 1.853 2.234 80.125 2.234 81.978 0 .679-.818.974-2.168.654-3C105.138 71.196 99.731 71 64 71s-41.138.196-41.643 1.513m15.25 9.069c-.334.87-.607 1.73-.607 1.912 0 .182 1.913.624 4.25.984 2.337.36 5.712.899 7.5 1.199 3.768.632 4.445-1.285 1.421-4.022-2.491-2.255-11.706-2.308-12.564-.073m19.551.536c-1.967 3.15-.046 4.375 6.717 4.283 7.35-.1 8.402-.698 6.927-3.937C69.803 80.272 69.06 80 64.08 80c-4.62 0-5.83.37-6.922 2.118m20.497-.289c-2.554 2.822-2.094 4.416 1.095 3.788 1.513-.298 4.914-.838 7.56-1.202 3.649-.501 4.675-1.012 4.25-2.119-.308-.803-.56-1.648-.56-1.878 0-.23-2.405-.418-5.345-.418-3.908 0-5.79.492-7 1.829m-35.527 8.803 3.367 3.474 1.793-2.213c2.204-2.722 1.446-3.486-4.157-4.188l-4.37-.547 3.367 3.474m40.622-2.904c-4.208.441-4.52 1.099-1.998 4.214l1.753 2.164 3.443-3.553c1.895-1.954 2.794-3.477 1.998-3.385-.795.093-3.133.345-5.196.56m-32.363 5.264-2.642 3.991 3.695 4.509c2.031 2.479 3.812 4.508 3.957 4.508.145 0 1.723-2.032 3.506-4.514l3.242-4.515-3.156-3.985C57.252 90.793 55.201 89 54.43 89c-.771 0-2.59 1.796-4.043 3.992m11.319-1.319c1.78 2.718 3.015 2.633 4.99-.341 1.303-1.963 1.181-2.059-2.598-2.059-3.956 0-3.962.005-2.392 2.4m7.305 1.313-3.156 3.985 3.242 4.515c1.783 2.482 3.337 4.514 3.452 4.514.116 0 1.886-2.045 3.934-4.545l3.724-4.544-2.618-3.956C76.15 90.78 74.341 89 73.57 89c-.771 0-2.822 1.793-4.559 3.986M38.897 94c1.028 2.475 2.071 5.174 2.318 5.997.35 1.166.701 1.029 1.584-.622.976-1.822.651-2.661-2.318-5.997L37.028 89.5l1.869 4.5m48.228-.336c-2.542 3.084-2.843 3.994-1.905 5.747.873 1.632 1.213 1.759 1.565.586.247-.823 1.271-3.409 2.276-5.747S90.721 90 90.517 90c-.204 0-1.73 1.649-3.392 3.664m-43.082 8.756c-1.669 3.118-.649 8.722 2.028 11.144 1.988 1.799 2.085 1.775 4.445-1.112 1.326-1.624 2.428-3.316 2.448-3.761.046-1.038-6.084-8.691-6.962-8.691-.365 0-1.247 1.089-1.959 2.42m16.593 1.384c-1.45 2.092-2.636 4.258-2.636 4.813 0 .555 1.35 2.302 3 3.883l3 2.874 3-2.874c1.65-1.581 3-3.328 3-3.883 0-1.338-5.069-8.617-6-8.617-.4 0-1.914 1.712-3.364 3.804m17.531.137c-1.742 2.168-3.151 4.306-3.131 4.75.02.445 1.122 2.137 2.448 3.761 2.36 2.887 2.457 2.911 4.445 1.112 2.677-2.422 3.697-8.026 2.028-11.144-.712-1.331-1.594-2.42-1.959-2.42s-2.089 1.774-3.831 3.941M52.54 114.537l-2.797 3.667 3.128 3.129L56 124.462l3.232-3.233 3.232-3.232-3.564-3.563-3.563-3.564-2.797 3.667m16.497-.087-3.463 3.585 3.19 3.191 3.191 3.191 3.023-2.896c1.662-1.592 3.022-3.165 3.022-3.496 0-.33-1.237-2.076-2.75-3.88l-2.75-3.28-3.463 3.585" fill-rule="evenodd"/></svg>