<svg xmlns="http://www.w3.org/2000/svg" width="128" height="128"><path d="M66.373 5.918c-2.269 1.03-4.412 2.336-4.761 2.901-1.666 2.695-2.535 11.562-1.56 15.914.709 3.163.705 4.91-.012 5.627-1.874 1.874-1.142 6.629 1.415 9.185 3.1 3.101 6.223 3.108 10.045.025 2.422-1.955 2.757-2.668 1.74-3.705-1.024-1.045-1.827-.95-4.296.509-2.41 1.424-3.337 1.545-4.49.587-2.364-1.961-1.718-3.559 3.187-7.876 6.134-5.4 8.986-5.391 14.881.042 4.766 4.393 5.349 5.905 3.024 7.834-1.153.958-2.08.837-4.49-.587-2.469-1.459-3.272-1.554-4.296-.509-1.017 1.037-.682 1.75 1.74 3.705 3.822 3.083 6.945 3.076 10.045-.025 2.558-2.557 3.289-7.311 1.414-9.186-.685-.685-.73-2.421-.131-5.087 1.024-4.561-.009-12.988-1.98-16.145-3.055-4.89-14.129-6.545-21.475-3.209m3.128 3.148C66.144 10.067 64 12.464 64 15.217c0 1.752.146 1.758 3.25.133 4.162-2.179 11.338-2.179 15.5 0 3.481 1.823 3.926 1.227 2.091-2.8-1.763-3.869-8.737-5.453-15.34-3.484M67.25 19.745C64.915 20.908 64 22.049 64 23.8v2.437l3.433-2.618c4.309-3.287 10.559-3.557 14.294-.619 3.151 2.478 4.273 2.527 4.273.185 0-4.4-12.29-6.655-18.75-3.44m3.13 10.707c-.887 2.312.489 3.549 3.929 3.533 4.061-.02 6.153-1.338 5.368-3.384-.813-2.12-8.493-2.243-9.297-.149m-39.117 6.86C28.052 39.482 26.824 43 29.277 43c.703 0 2.313-.725 3.579-1.612 2.188-1.532 2.449-1.471 5.314 1.25 1.657 1.574 3.897 4.092 4.978 5.595 1.908 2.656 1.915 2.892.222 8.264-1.268 4.02-1.443 5.83-.644 6.629 1.633 1.633 3.075.269 4.405-4.168.652-2.177 1.518-3.958 1.923-3.958.406 0 4.076 3.548 8.155 7.884 6.678 7.099 7.377 8.22 7.022 11.261-.279 2.389.243 4.188 1.782 6.144C68.271 83.16 74.802 87 77.425 87c.828 0 1.939.812 2.47 1.803 1.487 2.78 11.745 7.33 19.086 8.466 5.667.877 7.136.769 10.355-.758 3.941-1.87 6.664-5.838 6.664-9.711 0-4.138-11.098-35.762-13.589-38.723-2.735-3.251-10.964-7.463-13.03-6.67-2.506.962-1.445 2.527 3.369 4.968 2.612 1.325 5.548 3.292 6.524 4.372C101.095 52.762 112 84.013 112 87.216c0 3.573-3.617 5.784-9.462 5.784-5.305 0-15.889-3.14-17.08-5.068-.319-.516.621-3.143 2.088-5.839l2.668-4.902 3.361 1.405c4.371 1.826 6.425 1.778 6.425-.152 0-1.553-8.077-5.78-11-5.757-.825.007-2.573-.82-3.885-1.837-1.808-1.403-4.104-1.85-9.5-1.851H68.5l-8.725-9.398c-9.493-10.226-9.425-9.772-2.025-13.5 2.338-1.178 4.25-2.597 4.25-3.153 0-2.31-3.275-1.95-8.627.95l-5.697 3.085-5.422-5.991c-2.982-3.296-5.947-5.964-6.588-5.93-.641.034-2.623 1.047-4.403 2.25m-18.554 3.312c-1.742 1.742-.618 3.498 2.041 3.192 1.637-.188 2.75-.923 2.75-1.816 0-1.572-3.57-2.597-4.791-1.376m7 0c-1.742 1.742-.618 3.498 2.041 3.192 1.637-.188 2.75-.923 2.75-1.816 0-1.572-3.57-2.597-4.791-1.376m-.673 6.832C17.656 49.12 18.445 51 20.524 51c1.586 0 3.744-3.399 2.774-4.369-1.073-1.072-2.996-.7-4.262.825m6.652.19c-.379.378-.688 1.77-.688 3.094 0 1.754.475 2.315 1.75 2.07 1.088-.21 1.75-1.247 1.75-2.74 0-2.406-1.52-3.716-2.812-2.424m49 2c-.379.378-.688 4.47-.688 9.094 0 7.468.195 8.369 1.75 8.07 1.501-.289 1.75-1.533 1.75-8.74 0-7.774-.867-10.37-2.812-8.424M14 51.499c-1.014 1.222-1.044 1.857-.13 2.771 1.429 1.429 4.63-.206 4.63-2.365 0-1.994-2.96-2.261-4.5-.406M24.362 55.5c-.801 2.086.382 4.751 1.889 4.256 1.964-.645 2.217-5.756.284-5.756-.879 0-1.857.675-2.173 1.5m56.351.121c-.392.392-.713 1.312-.713 2.046C80 58.618 81.596 59 85.573 59c4.768 0 5.526-.253 5.241-1.75-.247-1.304-1.487-1.826-4.86-2.046-2.491-.163-4.849.025-5.241.417M35.704 67.328c-.28.731.797 3.274 2.393 5.651C41.669 78.298 41.767 80 38.5 80c-2.186 0-2.5.436-2.5 3.467 0 2.691-1.006 4.599-4.5 8.533L27 97.067v12.344c0 9.022.356 12.64 1.324 13.443 2.746 2.279 3.676-.902 3.676-12.581V98.947l14.75.276 14.75.277.5 12c.275 6.6.837 11.888 1.25 11.75.413-.138 1.2-.25 1.75-.25.616 0 1-5.024 1-13.071v-13.07l-3.928-4.68c-2.579-3.072-4.039-5.881-4.25-8.179-.253-2.748-.805-3.569-2.572-3.82-3.023-.429-2.904-3.235.345-8.144 1.427-2.156 2.3-4.397 1.941-4.978-1.019-1.649-21.191-1.399-21.832.27m6.328 3.422c.017.412.692 1.624 1.5 2.691.807 1.068 1.468 2.98 1.468 4.25 0 1.386.6 2.309 1.5 2.309.879 0 1.513-.931 1.532-2.25.017-1.237.692-3.124 1.5-4.191C51.81 70.547 51.344 70 46.5 70c-2.475 0-4.486.338-4.468.75m27.718 2.939C64.313 75.11 73.32 83 80.38 83c1.555 0 2.73-1.007 3.804-3.26 1.49-3.123 1.458-3.332-.753-5-2.208-1.665-9.257-2.207-13.681-1.051M40 86.067c0 1.136-1.178 3.611-2.619 5.5L34.763 95h11.618C52.772 95 58 94.727 58 94.394c0-.333-1.125-1.942-2.5-3.576-1.375-1.634-2.5-3.837-2.5-4.895 0-1.7-.753-1.923-6.5-1.923-5.903 0-6.5.19-6.5 2.067M74 107c0 15.792.138 17.12 1.75 16.81 1.582-.305 1.75-1.917 1.75-16.81 0-14.893-.168-16.505-1.75-16.81C74.138 89.88 74 91.208 74 107m22.378-4.542c-.308.802-.181 5.86.281 11.24.698 8.12 1.138 9.837 2.591 10.115 1.531.292 1.75-.536 1.75-6.6C101 107.119 99.993 101 98.333 101c-.768 0-1.648.656-1.955 1.458" fill-rule="evenodd"/></svg>