<svg xmlns="http://www.w3.org/2000/svg" width="128" height="128"><path d="M59.756 1.755C55.632 4.312 54 8.738 54 17.367v7.565l-10.75.284-10.75.284-.273 18.25L31.955 62H20.384c-10.623 0-11.613.16-12.08 1.946-.365 1.397-1.537 2.031-4.156 2.25L.5 66.5v49l3.702.307 3.702.308.298 5.692.298 5.693h46c40.222 0 46-.188 46-1.5 0-1.307-5.699-1.534-44.25-1.76-43.419-.256-44.25-.298-44.25-2.25 0-1.961.757-1.99 52-1.99 50.845 0 52 .043 52 1.945 0 1.611-.816 1.998-4.741 2.25-3.624.233-4.821.729-5.082 2.103-.306 1.61.369 1.766 6.491 1.5l6.832-.298.3-5.75.3-5.75h3.25c1.787 0 3.79-.54 4.45-1.2 1.349-1.349 1.788-48.893.45-48.682-.412.066-2.385.066-4.383 0-2.735-.089-3.763-.613-4.157-2.118-.485-1.854-1.364-2-12.064-2H96.105l-.303-5.25c-.222-3.866-.698-5.25-1.802-5.25-1.297 0-1.536 4.367-1.764 32.25L91.972 116H36v-5.378c0-3.278-.524-5.812-1.342-6.491-2.054-1.704-2.658-.332-2.658 6.036V116H12V66h20v15.833c0 8.709.296 16.13.658 16.492.362.362 1.262.156 2-.456C35.732 96.977 36 89.998 36 62.878V29h55.919l.291 8.239c.246 6.98.563 8.291 2.076 8.58 1.636.313 1.762-.527 1.5-9.989L95.5 25.5l-10.75-.284C74.116 24.935 74 24.906 74 22.507c0-2.349.264-2.435 8.25-2.717l8.25-.29.286-9.75.286-9.75-14.286.027C65.11.048 61.999.364 59.756 1.755m.699 4.7C58.255 8.654 58 9.746 58 16.955V25h11.885l.308-4.25c.306-4.229.328-4.251 4.557-4.557l4.25-.308V4h-8.045c-7.209 0-8.301.255-10.5 2.455M83 10c0 5.333.222 6 2 6s2-.667 2-6-.222-6-2-6-2 .667-2 6m-5.287 23.621c-.392.392-.713 1.312-.713 2.046C77 36.618 78.596 37 82.573 37c4.768 0 5.526-.253 5.241-1.75-.247-1.304-1.487-1.826-4.86-2.046-2.491-.163-4.849.025-5.241.417m0 8c-.392.392-.713 1.312-.713 2.046C77 44.618 78.596 45 82.573 45c4.768 0 5.526-.253 5.241-1.75-.247-1.304-1.487-1.826-4.86-2.046-2.491-.163-4.849.025-5.241.417M41.25 54.662c-1.608.649-1.647 8.541-.05 10.138.66.66 3.495 1.2 6.3 1.2 2.805 0 5.64-.54 6.3-1.2 1.552-1.552 1.552-8.048 0-9.6-1.168-1.168-10.045-1.548-12.55-.538m32.95.538c-.66.66-1.2 2.82-1.2 4.8 0 4.834 1.458 6 7.5 6 2.805 0 5.64-.54 6.3-1.2 1.825-1.825 1.54-9.456-.382-10.193-2.75-1.055-10.968-.657-12.218.593M44 60c0 1.619.667 2 3.5 2s3.5-.381 3.5-2-.667-2-3.5-2-3.5.381-3.5 2m33 0c0 1.619.667 2 3.5 2s3.5-.381 3.5-2-.667-2-3.5-2-3.5.381-3.5 2m19 31v25h20V66H96v25M.432 91c0 13.475.142 18.987.315 12.25.173-6.737.173-17.763 0-24.5C.574 72.013.432 77.525.432 91M4 91c0 20.333.063 21 2 21s2-.667 2-21-.063-21-2-21-2 .667-2 21m12.5-20c-1.216 1.968.697 3 5.559 3C26.333 74 27 73.73 27 72s-.667-2-4.941-2c-2.718 0-5.219.45-5.559 1m83.958 1.31c-.333 1.328-.46 3.938-.282 5.802l.324 3.388h11v-11l-5.218-.301c-4.796-.277-5.267-.106-5.824 2.111M120 91c0 20.333.063 21 2 21s2-.667 2-21-.063-21-2-21-2 .667-2 21m-16-15c0 1.333.667 2 2 2s2-.667 2-2-.667-2-2-2-2 .667-2 2m-87.5 3c-1.206 1.951.68 3 5.392 3 5.233 0 6.244-.483 5.432-2.598-.632-1.646-9.844-1.988-10.824-.402m0 8c-1.206 1.951.68 3 5.392 3 5.343 0 6.618-.681 4.977-2.658-1.292-1.557-9.452-1.826-10.369-.342m84.55.44c-1.698 2.046.22 2.794 6.086 2.373 3.073-.22 4.364-.757 4.364-1.813 0-2.179-8.719-2.646-10.45-.56M16.5 95c-1.206 1.951.68 3 5.392 3 5.343 0 6.618-.681 4.977-2.658-1.292-1.557-9.452-1.826-10.369-.342m84.55.44c-1.698 2.046.22 2.794 6.086 2.373 3.073-.22 4.364-.757 4.364-1.813 0-2.179-8.719-2.646-10.45-.56" fill-rule="evenodd"/></svg>