<svg xmlns="http://www.w3.org/2000/svg" width="128" height="128"><path d="M56.978 16.986c-26.027 3.307-47.072 27.26-46.961 53.448.029 6.626 2.677 17.198 5.998 23.945 2.998 6.09 8.017 12.63 9.679 12.612 1.098-.012 12.595-9.872 13.665-11.72.568-.981.189-2.391-1.117-4.158-5.45-7.371-6.727-11.282-6.735-20.613-.006-7.826.356-9.738 2.773-14.661 3.335-6.792 8.987-12.137 16.6-15.697 4.504-2.107 7.119-2.63 13.172-2.635 6.718-.006 8.389.407 15.139 3.743 8.571 4.236 9.347 4.397 10.219 2.123 1.437-3.744-7.503-9.111-19.66-11.802-2.457-.544-2.75-1.049-2.75-4.729v-4.121l5.135.609c6.396.757 15.783 5.11 22.443 10.406 12.555 9.985 19.472 28.712 16.533 44.764-1.058 5.78-7.488 20.538-8.916 20.464-.382-.02-1.982-1.089-3.555-2.376l-2.861-2.339 3.34-6.875c3.104-6.39 3.341-7.584 3.36-16.969.022-10.522-1.076-13.822-4.387-13.184-1.341.259-1.592 2.041-1.592 11.293 0 11.523-.979 14.804-6.742 22.599-1.322 1.788-1.691 3.184-1.115 4.213 1.6 2.859 13.361 11.61 14.84 11.042 2.396-.919 8.669-11.227 11.116-18.266 4.829-13.889 4.097-27.716-2.159-40.769-10.065-20.999-32.485-33.266-55.462-30.347m-7.491 7.813c-5.764 1.993-13.539 6.353-15.463 8.673-1.116 1.344-.962 1.965 1.004 4.057 2.873 3.058 3.215 3.057 7.748-.023 3.451-2.344 9.196-4.549 15.474-5.936 2.438-.539 2.75-1.06 2.75-4.589 0-3.831-.122-3.98-3.25-3.948-1.788.018-5.506.812-8.263 1.766M24.37 43.75c-3.171 4.861-6.8 14.197-7.774 20-.546 3.249-.545 3.25 3.77 3.25h4.316l1.205-5.385c.663-2.962 2.772-7.987 4.686-11.167l3.482-5.781-2.715-2.834C29.847 40.275 28.365 39 28.047 39c-.319 0-1.973 2.138-3.677 4.75M77.5 56.527c-19.542 13.271-23.51 16.94-23.478 21.708.061 8.857 10.959 12.663 17.188 6.003 6.401-6.844 27.841-35.737 27.571-37.155-.683-3.585-4.754-1.779-21.281 9.444m-6.532 11.754c-10.611 7.381-12.651 10.077-9.564 12.639 2.238 1.857 4.684.539 8.736-4.707a955.92 955.92 0 0 1 7.835-9.963c2.308-2.888 4.03-5.25 3.828-5.25-.202 0-5.078 3.277-10.835 7.281M16.015 73.75c.111 5.624 7.792 25.262 9.874 25.245.336-.003 1.911-1.045 3.5-2.316l2.888-2.312-3.036-6.433c-1.671-3.539-3.348-8.346-3.727-10.684l-.69-4.25h-4.412c-2.427 0-4.405.338-4.397.75m35.342 22.763C50.016 100.007 52.815 101 64 101s13.984-.993 12.643-4.487c-.858-2.236-24.428-2.236-25.286 0m-14 11c-.32.832-.025 2.182.654 3 1.838 2.215 50.14 2.215 51.978 0 .679-.818.974-2.168.654-3-.873-2.276-52.413-2.276-53.286 0" fill-rule="evenodd"/></svg>