<svg xmlns="http://www.w3.org/2000/svg" width="128" height="128"><path d="M85.5.954c-5.077 2.1-8.5 8.387-8.5 15.611V21H58.682c-20.404 0-25.473.93-32.256 5.918-2.232 1.642-4.919 4.582-5.97 6.533C18.603 36.893 18.369 37 12.707 37c-5.993 0-9.287 1.128-11.425 3.913-.84 1.094-1.228 6.652-1.25 17.882-.031 15.988.014 16.342 2.423 18.75C4.47 79.561 5.9 80 10.455 80c5.375 0 5.546.084 5.577 2.75.036 3.155 1.523 5.42 4.652 7.087C22.141 90.612 29.712 91 43.412 91h20.543l.272 18.25c.262 17.492.356 18.25 2.273 18.25 1.917 0 2.011-.758 2.273-18.25L69.045 91h21.91l.272 18.25c.262 17.492.356 18.25 2.273 18.25 1.917 0 2.011-.758 2.273-18.25L96.045 91h12.431c12.967 0 16.265-.754 18.426-4.214 1.693-2.711 2.978-46.448 1.334-45.432-.627.388-1.331-.483-1.695-2.095-1.071-4.758-6.888-11.589-12.438-14.608-4.056-2.206-7.028-2.972-13.171-3.393C93.42 20.743 93 20.589 93 18.357c0-2.101.461-2.36 4.25-2.389 8.795-.066 12.645-8.261 6.549-13.94-1.777-1.656-3.47-2.016-9.238-1.965C90.678.098 86.6.499 85.5.954m1.9 5.474c-1.706.742-3.393 2.111-3.75 3.043-.358.931-.65 8.756-.65 17.388 0 12.748-.3 16.124-1.595 17.973-2.204 3.146-1.097 6.956 2.265 7.8 4.902 1.23 7.924-3.274 5.388-8.031-.726-1.362-1.021-7.551-.839-17.601l.281-15.5 4-.267c6.627-.441 8.5-1.134 8.5-3.145 0-1.031-.712-2.147-1.582-2.481-2.657-1.02-8.746-.604-12.018.821M33.234 29.113c-2.346 1.161-5.201 3.299-6.344 4.749L24.811 36.5l14.684.5c14.586.497 14.701.519 17.095 3.306C58.905 43.001 59 43.703 59 58.122c0 15.083-.558 18.02-3.913 20.596-1.093.839-6.642 1.228-17.837 1.25-9.179.018-16.25.432-16.25.95C21 84.914 21.468 85 43.107 85H64l-.006-19.75c-.003-10.862-.443-21.325-.979-23.25-1.361-4.892-6.622-10.917-11.444-13.107-5.516-2.505-13.013-2.415-18.337.22m29.332 1.137c5.964 7.066 6.388 9.246 6.412 33L69 85h52.962l.627-2.498c.345-1.374.465-10.936.267-21.25-.353-18.443-.405-18.831-3.163-23.524-4.298-7.317-9.351-10.151-18.87-10.584L93 26.788l.032 6.856c.02 4.437.55 7.541 1.5 8.797 1.924 2.544 1.875 8.533-.093 11.342-4.221 6.027-12.334 6.507-16.965 1.004-2.314-2.75-2.566-3.721-2.005-7.716.353-2.514.877-8.058 1.163-12.321l.52-7.75h-17.33l2.744 3.25M.409 58.5c-.001 9.35.149 13.31.334 8.799.185-4.51.186-12.16.002-17C.562 45.46.41 49.15.409 58.5m12.627-14.088c.805.777 4.808 4.125 8.895 7.44l7.431 6.028 8.069-6.591c4.438-3.625 8.497-6.973 9.019-7.44.525-.469-7.063-.849-16.964-.849-15.453 0-17.713.194-16.45 1.412M5 58.083c0 7.114.387 11.947.94 11.75C7.48 69.288 20 58.683 20 57.924 20 57.169 6.468 46 5.553 46 5.249 46 5 51.438 5 58.083m40.75-6.462C42.038 54.637 39 57.476 39 57.93c0 1.137 12.969 12.434 13.577 11.827.269-.269.361-5.694.206-12.055L52.5 46.136l-6.75 5.485M17.199 68.105C13.24 71.463 10 74.388 10 74.605c0 .217 8.587.395 19.083.395 10.513 0 18.934-.394 18.75-.876-.183-.482-3.387-3.474-7.12-6.649-6.242-5.308-6.976-5.672-9.125-4.522-1.742.932-2.863.97-4.397.149C26.058 62.496 24.966 62 24.765 62c-.202 0-3.606 2.747-7.566 6.105" fill-rule="evenodd"/></svg>