<svg xmlns="http://www.w3.org/2000/svg" width="128" height="128"><path d="M102.021 5.116c-1.364.544-3.164 1.608-4 2.365-1.205 1.089-2.365 1.15-5.581.291-4.702-1.255-8.21-.601-11.564 2.157L78.5 11.883l8.478 8.559C91.641 25.149 96.017 29 96.702 29c3.233 0 5.592-10.715 3.301-14.995-.799-1.493-.473-2.276 1.634-3.934 3.292-2.589 4.83-2.604 7.363-.071 1.847 1.847 2 3.333 2 19.383 0 16.543-.097 17.409-2 17.907-1.745.456-2 1.364-2 7.116V61H94.067c-11.957 0-12.979-.147-13.553-1.956C79.606 56.183 74.222 52 71.449 52c-1.637 0-2.876-.925-3.906-2.917-1.476-2.854-7.484-5.855-9.378-4.685-.481.297-1.925-.578-3.21-1.946-3.346-3.561-8.781-4.994-13.294-3.505C37.4 40.353 33 45.205 33 48.497c0 1.787-.707 2.499-2.973 2.997-3.109.683-8.027 5.635-8.027 8.083C22 60.634 20.597 61 16.547 61c-2.999 0-6.569.508-7.932 1.13-3.038 1.384-4.867 5.506-4.437 9.997.274 2.859.772 3.441 3.322 3.876 2.969.506 3.043.678 7.113 16.438 3.438 13.313 4.558 16.31 6.827 18.261 2.538 2.184 2.653 2.624 1.762 6.798-1.137 5.333.009 6.797 4.947 6.318 2.77-.269 3.75-1.13 6.315-5.55l3.036-5.233h53l3.036 5.233c2.565 4.42 3.545 5.281 6.315 5.55 4.938.479 6.084-.985 4.947-6.318-.891-4.174-.776-4.614 1.762-6.798 2.269-1.951 3.389-4.948 6.827-18.261 4.07-15.76 4.144-15.932 7.113-16.438 2.55-.435 3.048-1.017 3.322-3.876.408-4.258-1.472-8.881-3.93-9.661-1.633-.518-1.892-1.62-1.892-8.033 0-5.94-.301-7.433-1.5-7.433-1.273 0-1.5-2.504-1.5-16.532 0-19.279-.876-22.682-6.432-25.004-1.927-.805-3.631-1.435-3.786-1.401-.155.035-1.398.509-2.761 1.053m-17.415 6.712c-.695 1.124 11.154 12.746 12.065 11.834.398-.398.677-2.384.619-4.415C97.157 14.55 93.374 11 88.503 11c-1.862 0-3.615.373-3.897.828m-8.596 7.66c-.998 1.203-.935 1.603.329 2.089 1.957.751 3.661-.244 3.661-2.136 0-1.88-2.415-1.851-3.99.047m-6.045 4.054c-.974 1.174-1.002 1.821-.115 2.708 1.43 1.43 4.782-1.419 3.709-3.154-.935-1.514-2.086-1.371-3.594.446m11.371 1.025c-.96 2.501 1.133 3.822 3.037 1.917.905-.905 1.39-2.059 1.077-2.565-.906-1.466-3.457-1.064-4.114.648m-4.586 4.545C74.42 30.427 74.514 33 76.893 33c2.032 0 3.681-2.834 2.39-4.105-.431-.424-1.57-.326-2.533.217m10.215.43c-.974 1.174-1.002 1.821-.115 2.708 1.43 1.43 4.782-1.419 3.709-3.154-.935-1.514-2.086-1.371-3.594.446m-16.933 6.397c-1.181 2.207-.041 3.385 2.378 2.457 1.997-.766 2.101-4.396.125-4.396-.805 0-1.932.873-2.503 1.939m12.348.513c-.306.799-.252 1.946.12 2.549.855 1.382 3.5-.6 3.5-2.623 0-1.832-2.912-1.772-3.62.074m-42.14 7.093c-1.213.849-2.82 3.652-3.571 6.229-1.2 4.112-1.776 4.768-4.719 5.37-3.075.629-5.95 3.068-5.95 5.047 0 .445 11.475.809 25.5.809s25.5-.38 25.5-.845c0-1.955-4.237-4.45-7.724-4.549-2.915-.082-3.831-.551-4.116-2.106-.718-3.92-3.257-5.659-7.273-4.981-3.173.536-3.801.326-4.367-1.457C52.756 44.657 48.164 42 44.772 42c-1.28 0-3.319.695-4.532 1.545M111 55.5c0 4.222.348 5.5 1.5 5.5 1.152 0 1.5-1.278 1.5-5.5 0-4.222-.348-5.5-1.5-5.5-1.152 0-1.5 1.278-1.5 5.5M9.2 66.2c-.66.66-1.2 2.235-1.2 3.5V72h112v-2.3c0-1.265-.54-2.84-1.2-3.5-1.731-1.731-107.869-1.731-109.6 0m8.934 25.05c2.361 9.037 4.649 15.759 5.616 16.5 2.359 1.807 78.141 1.807 80.5 0 .967-.741 3.255-7.463 5.616-16.5L113.851 76H14.149l3.985 15.25m9.496 24c-1.553 5.794 1.075 6.689 3.669 1.25 1.661-3.484 1.658-3.5-.699-3.5-1.609 0-2.56.72-2.97 2.25m69.071 1.25c1.614 3.385 4.313 4.802 4.285 2.25-.04-3.664-1.341-5.75-3.586-5.75-2.357 0-2.36.016-.699 3.5" fill-rule="evenodd"/></svg>