<svg xmlns="http://www.w3.org/2000/svg" width="128" height="128"><path d="M17.054 1.728c-2.531.893-6.445 3.568-9.083 6.206-19.528 19.528-.037 52.332 26.508 44.615 8.13-2.363 15.707-9.94 18.07-18.07C58.734 13.204 38.204-5.74 17.054 1.728m2.653 3.884C9.175 8.85 2.474 20.601 4.922 31.541c1.416 6.328 6.736 12.945 12.522 15.573 7.944 3.608 18.711 1.916 24.932-3.917 6.411-6.012 8.514-17.44 4.738-25.753-2.405-5.295-9.106-10.953-14.615-12.34-5.471-1.378-6.832-1.324-12.792.508m-.957 4.961c-.413.418-.75 7.885-.75 16.594V43h2.5c2.389 0 2.5-.267 2.5-6v-6h4.066c10.641 0 15.748-9.7 9.051-17.195-2.624-2.937-3.499-3.261-9.75-3.609-3.777-.211-7.204-.041-7.617.377M56 12.5V15h72v-5H56v2.5M23 21v6h3.066c5.316 0 8.89-2.643 8.919-6.595.023-3.229-3.122-5.405-7.814-5.405H23v6m35 18c0 1.333.667 2 2 2 1.969 0 2 .667 2 43.5s.031 43.5 2 43.5 2-.667 2-43.5.031-43.5 2-43.5c1.333 0 2-.667 2-2 0-1.778-.667-2-6-2s-6 .222-6 2M10.898 60.27c-4.336 2.896-6.894 8.001-6.896 13.758C4 77.317 3.453 79.024 2 80.268c-2.533 2.168-2.568 6.164-.077 8.655 1.678 1.678 1.965 3.707 2.25 15.931.287 12.285.582 14.354 2.398 16.827 3.893 5.298 7.507 6.316 22.445 6.317 16.075.002 19.175-1.093 22.734-8.034 1.973-3.848 2.25-5.899 2.25-16.676 0-10.955.217-12.505 2-14.288 1.1-1.1 2-3.055 2-4.345 0-1.29-.9-3.16-2-4.155-1.447-1.309-2-3.081-2.002-6.405-.002-5.82-2.545-10.918-6.896-13.825C43.954 58.167 42.622 58 29 58s-14.954.167-18.102 2.27m70 0c-4.351 2.907-6.894 8.005-6.896 13.825C74 77.419 73.447 79.191 72 80.5c-2.522 2.283-2.565 5.935-.098 8.402 1.647 1.647 1.948 3.758 2.25 15.75.391 15.569 1.517 18.539 8.229 21.725 5.084 2.412 28.743 2.321 33.548-.129 6.676-3.404 7.532-5.724 7.898-21.394.285-12.224.572-14.253 2.25-15.931 2.491-2.491 2.456-6.487-.077-8.655-1.453-1.244-2-2.951-2.002-6.24-.002-5.757-2.56-10.862-6.896-13.758C113.954 58.167 112.622 58 99 58s-14.954.167-18.102 2.27M21 64.077C21 67.544 15.701 72 11.577 72 8.288 72 8 72.236 8 74.93c0 4.189 3.821 4.653 6.272.763C16.646 71.923 21.645 70 29.067 70c7.241 0 11.867 1.925 14.228 5.922 2.261 3.827 5.705 3.2 5.705-1.039C49 72.33 48.648 72 45.923 72 42.301 72 37 67.293 37 64.077c0-1.93-.568-2.077-8-2.077s-8 .147-8 2.077m70 0C91 67.293 85.699 72 82.077 72 79.352 72 79 72.33 79 74.883c0 4.239 3.444 4.866 5.705 1.039C87.066 71.925 91.692 70 98.933 70c7.53 0 12.289 1.874 14.572 5.739 1.333 2.256 2.287 2.832 4.115 2.483 1.851-.354 2.38-1.096 2.38-3.339 0-2.64-.301-2.883-3.577-2.883-4.124 0-9.423-4.456-9.423-7.923 0-1.93-.568-2.077-8-2.077s-8 .147-8 2.077m-79.506.929c-.998 1.104-1.52 2.302-1.159 2.663C11.4 68.734 16 66.178 16 64.521c0-2.143-2.356-1.89-4.506.485M42 64.521c0 1.735 4.624 4.19 5.754 3.055.768-.77-3.278-4.576-4.865-4.576-.489 0-.889.685-.889 1.521m39.861.393c-1.299 1.053-2.025 2.251-1.615 2.662 1.13 1.135 5.754-1.32 5.754-3.055 0-2.039-1.291-1.916-4.139.393M112 64.521c0 1.657 4.6 4.213 5.665 3.148.881-.881-2.624-4.669-4.32-4.669-.74 0-1.345.685-1.345 1.521M22.501 75.008C19.373 76.001 17 78.452 17 80.691 17 81.697 19.779 82 29 82c13.027 0 14.192-.592 9.622-4.885-2.729-2.564-11.197-3.671-16.121-2.107m70.999-.292c-2.557.618-6.5 4.233-6.5 5.958C87 81.702 89.701 82 99 82c7.827 0 12-.371 12-1.066 0-5.074-9.004-8.273-17.5-6.218M4.675 83.658C3.439 84.895 6.24 87 9.122 87 11.333 87 12 86.537 12 85c0-1.6-.667-2-3.333-2-1.834 0-3.63.296-3.992.658M46 85.063c0 1.725.532 2.012 3.242 1.75 2.135-.206 3.355-.91 3.573-2.063.266-1.402-.379-1.75-3.242-1.75C46.63 83 46 83.364 46 85.063m29.185-.313c.218 1.153 1.438 1.857 3.573 2.063 2.71.262 3.242-.025 3.242-1.75C82 83.364 81.37 83 78.427 83c-2.863 0-3.508.348-3.242 1.75M116 85c0 1.537.667 2 2.878 2 2.882 0 5.683-2.105 4.447-3.342-.362-.362-2.158-.658-3.992-.658-2.666 0-3.333.4-3.333 2m-99 8v6h24V87H17v6m70 0v6h24V87H87v6m-79 8.889v10.888l3.65.685c4.22.792 9.35 5.434 9.35 8.461 0 1.93.568 2.077 8 2.077 7.744 0 8-.076 8-2.364 0-3.209 4.304-7.283 8.531-8.076l3.469-.651v-10.954C49 93.34 48.707 91 47.628 91c-1.009 0-1.494 2.122-1.837 8.043-.745 12.873-5.596 17.315-18.291 16.749-11.499-.512-15.5-5.079-15.5-17.693C12 91.667 11.812 91 10 91c-1.878 0-2 .667-2 10.889m71 .066v10.954l3.469.651c4.227.793 8.531 4.867 8.531 8.076 0 2.288.256 2.364 8 2.364 7.432 0 8-.147 8-2.077 0-3.027 5.13-7.669 9.35-8.461l3.65-.685v-10.888C120 91.667 119.878 91 118 91c-1.816 0-2 .667-2 7.266 0 12.559-4.812 17.735-16.484 17.732-11.877-.003-16.593-4.623-17.307-16.955-.343-5.921-.828-8.043-1.837-8.043C79.293 91 79 93.34 79 101.955m-62 2.871c0 1.004 1.042 2.804 2.314 4 1.958 1.839 3.488 2.174 9.928 2.174 7.033 0 7.771-.201 9.685-2.635C42.842 103.389 42.123 103 29 103c-10.951 0-12 .16-12 1.826m70-.461c0 .751.933 2.551 2.073 4 1.92 2.442 2.641 2.635 9.825 2.635 6.812 0 8.018-.281 9.928-2.314 1.196-1.273 2.174-3.073 2.174-4 0-1.488-1.413-1.686-12-1.686-9.473 0-12 .287-12 1.365m-77 14.542c0 1.411 4.886 4.541 5.746 3.68 1.119-1.119-1.284-4.062-3.598-4.407-1.181-.175-2.148.152-2.148.727m32.59.994c-1.004 1.109-1.315 2.151-.745 2.503 1.443.892 4.07-.377 5.218-2.522.82-1.533.658-1.882-.873-1.882-1.034 0-2.654.855-3.6 1.901m38.059-.373c.754 1.966 4.085 3.754 5.437 2.919 1.453-.898-1.906-4.447-4.21-4.447-1.216 0-1.62.503-1.227 1.528m32.551-.328c-1.344 1.344-1.617 3.8-.423 3.8 1.298 0 5.223-3.049 5.223-4.057 0-1.347-3.376-1.167-4.8.257" fill-rule="evenodd"/></svg>