<svg xmlns="http://www.w3.org/2000/svg" width="128" height="128"><path d="M40.75 4.08C39.262 4.947 39 6.647 39 15.447v10.347l-12.25.39c-14.4.457-19.005 2.223-23.499 9.011L.5 39.35l-.286 35.1-.286 35.1 2.364 4.475c1.565 2.964 3.999 5.488 7.208 7.475l4.844 3h49.578c49.351 0 49.597-.01 53.744-2.227 4.255-2.275 6.736-5.141 9.676-11.177 1.445-2.966 1.658-7.777 1.658-37.416 0-18.707-.275-33.738-.612-33.401-.337.336-1.608-1.276-2.825-3.584-4.24-8.041-10.738-10.681-26.313-10.689L89 26V15.535c0-9.323-.211-10.578-1.934-11.5-2.561-1.37-43.955-1.33-46.316.045M47 18.5V26h34V11H47v7.5M14.315 35.464C8.197 38.124 8 39.375 8 75.5c0 36.332.178 37.423 6.534 40.079 5.018 2.096 93.914 2.096 98.932 0 6.356-2.656 6.534-3.747 6.534-40.079s-.178-37.423-6.534-40.079c-4.941-2.064-94.396-2.026-99.151.043M.45 75.5c.001 19.25.135 26.983.299 17.185.164-9.797.163-25.547-.001-35C.584 48.233.45 56.25.45 75.5m26.041-32.694c-4.601 2.158-10.167 8.056-11.097 11.759-.348 1.39-.43 4.981-.182 7.981.344 4.149 1.175 6.352 3.473 9.212l3.021 3.759-3.02 3.732c-2.304 2.847-3.127 5.026-3.473 9.195-.604 7.289.173 9.871 4.376 14.523 7.002 7.751 17.122 8.923 25.381 2.94l4.136-2.996 2.978 2.506c3.042 2.56 8.611 4.567 12.698 4.577 3.072.008 9.203-2.632 11.816-5.086l2.126-1.997 5.304 3.294c4.384 2.724 6.276 3.29 10.916 3.264 16.066-.09 24.637-18.765 14.113-30.751l-2.859-3.256 2.852-3.192c3.298-3.691 5.383-10.356 4.547-14.534-3.049-15.248-19.018-21.324-31.38-11.941l-3.282 2.492-2.231-2.096c-2.705-2.541-8.803-5.193-11.922-5.185-4.079.01-9.654 2.015-12.68 4.562l-2.96 2.491-4.323-3.047c-5.68-4.004-12.695-4.848-18.328-2.206m-.065 9.444c-2.989 2.74-3.555 3.934-3.605 7.602-.141 10.327 11.215 15.16 18.824 8.012 4.908-4.611 3.842-13.376-2.065-16.979-4.729-2.883-9.004-2.44-13.154 1.365M58 51.198c-3.8 2.572-5.763 7.627-4.663 12.008.865 3.448 5.174 7.495 8.498 7.983C69.43 72.304 75 67.731 75 60.381c0-9.112-9.514-14.252-17-9.183m30.756-.443c-4.219 2.615-6.241 7.683-4.88 12.226 2.564 8.556 12.192 11.061 18.769 4.883 9.266-8.706-3.024-23.846-13.889-17.109M46.93 73.584c-.929 1.12-1.017 2.054-.301 3.19 1.517 2.405 2.743 2.461 4.161.19 1.053-1.686 1.021-2.296-.186-3.503-1.829-1.829-2.06-1.821-3.674.123m30.724.246c-1.564 1.728-1.552 1.952.176 3.516s1.952 1.552 3.516-.176 1.552-1.952-.176-3.516-1.952-1.552-3.516.176m-47.011 6.223c-8.2 2.386-10.565 12.144-4.507 18.592 4.611 4.908 13.376 3.842 16.979-2.065 2.895-4.749 2.447-9.024-1.365-12.999-3.604-3.76-6.812-4.778-11.107-3.528m30.684-.353c-2.848.549-7.204 4.961-7.99 8.094-1.887 7.52 4.55 14.852 12.163 13.854 8.967-1.176 12.908-12.394 6.577-18.725C70.469 81.315 68.481 80 67.659 80c-.823 0-2.095-.162-2.827-.36-.733-.197-2.31-.171-3.505.06m30.316.329c-4.049 1.212-6.488 3.721-7.767 7.99-1.382 4.615.714 9.717 5.044 12.275 11.536 6.814 23.195-9.129 12.969-17.734-1.673-1.408-3.421-2.56-3.884-2.56-.463 0-1.441-.186-2.173-.413-.733-.228-2.618-.029-4.189.442" fill-rule="evenodd"/></svg>