<svg xmlns="http://www.w3.org/2000/svg" width="128" height="128"><path d="M69 2.834c-3.025 1.007-7.389 2.803-9.699 3.992-3.723 1.918-4.742 2.037-9 1.058C43.616 6.347 37.989 8.011 33 13c-4.308 4.308-6.515 10.442-5.657 15.726.379 2.337-.248 4.97-2.154 9.036-2.293 4.893-2.676 6.989-2.601 14.238.056 5.405.875 11.326 2.25 16.261 4.088 14.674 3.402 16.4-12.407 31.244-14.875 13.967-15.041 14.486-7.15 22.279 7.818 7.721 8.339 7.557 21.841-6.87 6.221-6.648 12.541-12.723 14.045-13.5 3.811-1.971 8.551-1.769 18.109.772 5.004 1.33 11.364 2.211 16.242 2.25 7.104.057 8.775-.308 14.657-3.203 12.965-6.379 28.792-26.682 33.979-43.586 4.524-14.741.862-25.537-13.684-40.348-7.082-7.211-10.543-9.909-16.003-12.472C85.797.756 77.257.088 69 2.834m3.251 3.66c-2.887.805-7.092 2.405-9.344 3.553-3.707 1.892-3.955 2.248-2.621 3.771 9.658 11.03 3.183 28.968-11.151 30.891-6.209.833-10.894-.497-15.081-4.279l-3.826-3.457-1.614 4.034c-3.252 8.128-3.789 7.335 23.143 34.251 27.991 27.974 26.364 27.021 37.035 21.688 16.105-8.048 34.875-38.297 32.721-52.732-1.182-7.913-5.403-15.092-14.069-23.926C95.083 7.688 83.808 3.269 72.251 6.494m-33.61 7.404c-9.481 6.25-8.725 20.171 1.379 25.404 9.082 4.704 20.564-2.733 20.41-13.22-.08-5.471-2.905-10.242-7.459-12.597-3.999-2.068-10.867-1.87-14.33.413M27 57.593c0 .573.889 4.387 1.976 8.475 1.088 4.087 1.988 9.12 2 11.182.013 2.063.378 3.75.812 3.75.433 0 2.906-2.151 5.495-4.78l4.708-4.779-7.496-7.446C30.373 59.9 27 57.019 27 57.593m-2.333 36.469C13.3 104.583 4 113.505 4 113.888c0 .822 8.317 9.112 9.143 9.112.578 0 33.961-35.617 37.061-39.541 1.643-2.08 1.586-2.27-1.583-5.342l-3.286-3.185-20.668 19.13m26.052-4.285c-2.595 2.636-4.718 5.001-4.717 5.257.001.256 1.592.579 3.535.718s7.152 1.191 11.577 2.338c4.425 1.146 8.221 1.909 8.436 1.693.215-.215-2.872-3.633-6.86-7.594l-7.251-7.203-4.72 4.791" fill-rule="evenodd"/></svg>