<svg xmlns="http://www.w3.org/2000/svg" width="128" height="128"><path d="M36.259 1.25c-.542.688-1.273 4.85-1.624 9.25-.551 6.904-.969 8.243-3.053 9.772-1.472 1.081-2.661 3.227-3.048 5.5-.529 3.115-1.253 3.991-4.397 5.324-7.052 2.991-7.199 3.927-6.9 44.082.228 30.614.463 35.322 1.763 35.322 1.297 0 1.568-4.927 2-36.339l.5-36.34 2.361-1.91C25.447 34.627 27.786 34 30.988 34c2.768 0 5.234-.563 5.881-1.342 1.4-1.687.474-2.658-2.536-2.658-2.411 0-2.734-.901-1.703-4.75.574-2.14 1.084-2.25 10.451-2.25 8.714 0 9.968.223 10.884 1.934C56.258 29.219 55.415 30 48.5 30c-4.889 0-6.5.345-6.5 1.393C42 33.461 44.301 34 53.127 34c7.122 0 8.223.259 10.418 2.455C65.61 38.519 66 39.869 66 44.955c0 5.378.221 6.045 2 6.045 1.762 0 2-.667 2-5.599 0-7.559-2.353-12.276-7.137-14.305-3.161-1.34-3.866-2.203-4.408-5.385-.412-2.427-1.508-4.355-3.049-5.365C53.79 19.287 53 17.828 53 15.9v-2.869l28.737-.266c26.451-.244 28.763-.404 29.073-2.015C111.124 9.115 109.2 9 81.573 9H52V5.7c0-1.815-.54-3.84-1.2-4.5-1.616-1.616-13.259-1.576-14.541.05M39 6.86c0 1.574-.286 4.949-.636 7.5L37.728 19h5.636C48.93 19 49 18.964 49 16.07c0-2.243-.51-3.006-2.172-3.25-2.922-.43-3.558-2.816-.933-3.503C47.292 8.952 48 7.965 48 6.383 48 4.225 47.575 4 43.5 4c-4.285 0-4.5.137-4.5 2.86m-8.342 44.815c-.362.362-.658 3.036-.658 5.942 0 3.951-.432 5.526-1.715 6.243-2.316 1.297-2.735 12.593-.593 15.987 1.232 1.952 2.098 2.265 5.144 1.863 2.015-.265 4.677-.812 5.914-1.213 4.151-1.347 2.496 2.022-2.748 5.596L31.004 89.5l-.002 6.764c-.001 3.72-.553 7.646-1.227 8.725-.953 1.526-.959 2.227-.024 3.162.936.936 1.65.796 3.225-.63 1.661-1.503 2.024-3.074 2.024-8.766 0-5.968.313-7.196 2.25-8.811 1.237-1.033 2.587-1.892 3-1.911.413-.018.75 2.405.75 5.385 0 6.338.682 8.582 2.607 8.582 1.058 0 1.393-1.683 1.393-7 0-7.595.75-8.393 4.75-5.056 1.937 1.615 2.25 2.843 2.25 8.811 0 5.692.363 7.263 2.024 8.766 1.575 1.426 2.289 1.566 3.225.63.935-.935.929-1.636-.024-3.162-.674-1.079-1.23-5.005-1.237-8.725l-.012-6.764-5.488-3.81c-6.011-4.173-7.163-6.362-2.738-5.202 1.513.396 4.528.786 6.701.866 3.34.123 4.191-.278 5.5-2.595 1.163-2.058 1.279-3.171.465-4.46-.761-1.208-.774-2.539-.043-4.475.876-2.323.693-3.125-1.167-5.104C57.536 62.942 57 61.151 57 57.352c0-5.474-.467-6.494-2.598-5.676-.874.335-1.402 2.02-1.402 4.476C53 60.337 49.598 65 46.545 65c-2.005 0-1.953-.892.192-3.262 1.649-1.822 1.649-1.983 0-3.189C45.782 57.851 45 56.542 45 55.64c0-2.876-2.478-1.764-4.52 2.027-1.46 2.711-1.65 3.776-.728 4.084 1.508.502 1.679 3.249.203 3.249C37.546 65 34 60.038 34 56.668c0-3.323-2.01-6.325-3.342-4.993M65.763 89.75 65.5 123.5h-44l-.5-3.99c-.345-2.755-1.042-4.094-2.25-4.324-2.67-.508-2.471 8.093.25 10.814 1.881 1.881 3.333 2 24.5 2s22.619-.119 24.5-2c1.922-1.922 2-3.333 2-36 0-33.257-.043-34-1.987-34-1.938 0-1.993.83-2.25 33.75M30.525 66.959c-1.26 2.04.668 3.04 5.784 3.002l5.191-.039-3.065-1.335c-5.276-2.298-7.245-2.703-7.91-1.628M50 68.036l-4.5 1.917 5.5-.226c3.972-.164 5.5-.621 5.5-1.644 0-2.144-1.553-2.156-6.5-.047m-19.655 7.507c-.326.849-.332 1.803-.015 2.12.906.906 7.119-.534 9.246-2.144 1.763-1.334 1.483-1.458-3.357-1.487-3.859-.023-5.441.384-5.874 1.511M46 74.551C46 75.418 52.715 78 54.968 78c2.398 0 2.732-2.517.45-3.393-1.975-.758-9.418-.802-9.418-.056" fill-rule="evenodd"/></svg>