<svg xmlns="http://www.w3.org/2000/svg" width="128" height="128"><path d="M7.049 6.665c-1.961 2.493-2.079 3.707-1.823 18.75C5.487 40.742 5.594 41.5 7.5 41.5c1.894 0 2.027-.833 2.5-15.67.275-8.619.818-15.987 1.207-16.374.389-.387 1.401-.437 2.25-.111C14.815 9.866 15 15.156 15 53.469 15 79.238 14.625 97 14.082 97 10.143 97 10 96.334 10 77.952c0-17.97-.49-20.45-3.544-17.916C5.287 61.007 5 64.557 5 78.053c0 16.669-.019 16.811-2.25 17.127C.539 95.494.5 95.743.5 109.5v14l62.888.258c45.62.186 63.263-.053 64.25-.873 1.024-.85 1.362-4.431 1.362-14.443V95.129l-5.75.32c-3.162.176-6.875.647-8.25 1.046-2.033.59-1.827.25 1.106-1.823 5.348-3.779 9.87-11.484 11.16-19.014.997-5.82.883-6.986-1.252-12.781-2.143-5.819-2.399-8.491-2.931-30.525-.528-21.865-.763-24.346-2.488-26.25C118.109 3.358 112.694 3.306 110 6c-1.1 1.1-2 2.45-2 3 0 .652-15.333 1-44 1s-44-.348-44-1c0-2.233-4.111-5-7.427-5-2.522 0-3.982.704-5.524 2.665m106.618 3.002c-.367.366-.667 8.64-.667 18.385V45.77l2.5 1.638 2.5 1.638V30.605c0-10.143-.273-19.153-.607-20.023-.624-1.626-2.544-2.097-3.726-.915M20.198 21.25l.302 5.25 8.75.289 8.75.289V16H19.895l.303 5.25M44 21.5V27h17V16H44v5.5m23 0V27h17V16H67v5.5m23 .039v5.539l8.75-.289 8.75-.289.302-5.25.303-5.25H90v5.539M20 37.5V43h18V32H20v5.5m24 0V43h17V32H44v5.5m23 0V43h17V32H67v5.5m23.003-.25.002 5.25 8.998.024 8.997.024V32H90l.003 5.25m1.476 11.144c-2.211.693-5.315 2.108-6.897 3.144C81.81 53.354 76 60.486 76 62.072c0 .425 1.612 1.305 3.582 1.955 3.307 1.091 3.707 1.001 5.196-1.172.886-1.295 4.523-5.393 8.081-9.105 6.853-7.151 6.666-7.878-1.38-5.356M6.064 49.423C4.512 51.293 5.497 53 8.129 53c1.495 0 1.928-.557 1.691-2.172-.4-2.713-2.132-3.362-3.756-1.405m14.603-.756c-.367.366-.667 2.841-.667 5.5V59h18V48h-8.333c-4.584 0-8.634.3-9 .667M44 53.5V59h17V48H44v5.5m23 0c0 5.2.136 5.5 2.5 5.5 1.375 0 2.5-.387 2.5-.859 0-.473 1.838-2.948 4.085-5.5L80.17 48H67v5.5m30.018 3.422C92.608 61.279 89 65.276 89 65.805c0 1.052 3.322 2.16 6.542 2.181 1.129.008 4.033-2.049 6.5-4.604 2.452-2.54 6.156-5.874 8.232-7.409l3.774-2.79-2.659-2.092c-1.462-1.15-3.49-2.091-4.506-2.091-1.015 0-5.455 3.565-9.865 7.922m17.591 2.401-2.891 2.314 2.56 6.431c1.408 3.538 2.873 8.124 3.254 10.193.912 4.94 2.02 5.462 3.371 1.589 1.713-4.915 1.294-13.82-.876-18.6-1.061-2.337-2.064-4.248-2.228-4.245-.164.003-1.6 1.046-3.19 2.318M20 81.5V98h4.341c2.388 0 6.55-.67 9.25-1.489 6.252-1.897 13.566-1.897 19.818 0 6.336 1.922 14.859 1.896 21.465-.066l5.236-1.555-3.049-3.473c-5.541-6.311-7.452-11.188-7.509-19.162L69.5 65.01l-24.75-.005L20 65v16.5m83.994-12.994-2.39 2.544 2.698 8.285c1.484 4.556 2.705 8.932 2.713 9.725.009.792.402 2.05.875 2.795.705 1.114 1.346 1.036 3.589-.433 2.514-1.647 2.681-2.158 2.111-6.453-.775-5.841-4.904-18.24-6.22-18.679-.542-.181-2.061.817-3.376 2.216m-29.642 4.046c.367 2.677 1 5.2 1.408 5.606C77.248 79.643 88.575 82 94.224 82h5.803l-1.546-3.699c-.85-2.034-1.672-3.825-1.827-3.98-.155-.155-4.303-1.377-9.218-2.716-4.915-1.339-10.019-2.769-11.344-3.178-2.371-.731-2.397-.669-1.74 4.125m7.288 15.655c4.006 4.266 9.912 6.745 16.129 6.771 5.231.022 5.265.002 4.667-2.728-.332-1.513-.776-3.312-.988-4-.261-.847-2.731-1.258-7.667-1.274-4.004-.013-9.018-.427-11.141-.919l-3.86-.896 2.86 3.046M.395 109.5c.001 7.7.158 10.718.348 6.706.191-4.011.189-10.311-.002-14-.192-3.688-.348-.406-.346 7.294m4.605.105V119h118v-18.789l-3.75.923c-12.62 3.106-14.191 3.274-19.478 2.075-15.912-3.607-15.781-3.599-24.499-1.34-10.224 2.651-12.322 2.651-22.546 0-8.718-2.259-8.587-2.267-24.499 1.34-5.287 1.199-6.858 1.031-19.478-2.075L5 100.211v9.394" fill-rule="evenodd"/></svg>