<svg xmlns="http://www.w3.org/2000/svg" width="128" height="128"><path d="M38.703 1.442c-9.348 3.335-15.368 9.697-18.805 19.872L18.146 26.5l-8.823.5-8.823.5v20l3.697.307c4.431.368 3.553-4.245 8.305 43.627 1.907 19.214 3.84 35.308 4.297 35.765.457.457 14.747.711 31.756.566l30.926-.265.537-3c.446-2.496.952-2.948 3.009-2.693 1.36.17 6.073.368 10.473.441 6.67.111 8.914-.293 13.5-2.433 8.1-3.779 13.434-8.92 17.208-16.586 2.942-5.976 3.292-7.593 3.292-15.208 0-7.117-.434-9.447-2.635-14.141-3.688-7.866-8.995-13.327-16.581-17.061-5.476-2.696-7.669-3.21-13.901-3.26-5.732-.046-7.284-.359-6.891-1.391.279-.732.508-1.943.508-2.689 0-.848 1.41-1.475 3.75-1.669l3.75-.31v-20l-8.823-.5-8.823-.5-1.752-5.186C71.479 7.627 61.146-.055 47.5.049c-2.75.022-6.709.648-8.797 1.393M43 6.109c-5.914 1.141-11.806 5.385-15.161 10.922-3.669 6.053-4.039 9.37-1.091 9.788 1.701.242 2.498-.368 3.271-2.5 2.082-5.742 3.586-7.733 7.927-10.493C41.465 11.589 43.56 11 48 11s6.535.589 10.054 2.826c4.341 2.76 5.845 4.751 7.927 10.493.773 2.132 1.57 2.742 3.271 2.5 1.758-.249 2.176-.864 1.916-2.819-.955-7.191-9.843-16.355-17.036-17.564A284.204 284.204 0 0 1 49 5.533c-.825-.16-3.525.099-6 .576m-.73 11.374c-2.813 1.222-7.255 6.583-7.266 8.767-.002.413 5.846.75 12.996.75s12.998-.337 12.996-.75c-.011-2.273-4.509-7.566-7.486-8.81-4.261-1.78-7.071-1.77-11.24.043M5.198 37.25 5.5 42.5h85l.302-5.25.303-5.25H4.895l.303 5.25m8.806 12.5c.003.962 1.576 17.275 3.496 36.25s3.493 35.063 3.496 35.75c.003.969 6.073 1.25 27.004 1.25h27l-.033-2.75c-.024-1.992-1.247-3.788-4.435-6.514l-4.403-3.764-.315 3.264c-.241 2.505-.837 3.338-2.564 3.584-1.334.189-2.28-.218-2.323-1-.041-.726-.228-4.92-.416-9.32-.188-4.4-.647-11.825-1.018-16.5-.578-7.269-.374-9.296 1.415-14 1.458-3.834 2.091-7.81 2.091-13.128.001-5.559.408-7.965 1.501-8.872 2.355-1.954 4.5.511 4.5 5.173v3.929l3.25-2.433c1.787-1.338 4.713-3.173 6.5-4.077C81.478 55.213 82 54.39 82 51.474V48H48c-31.716 0-34 .118-33.996 1.75m14.098 4.627c-.859 1.035-.753 8.777.426 31.174.863 16.388 1.798 30.168 2.079 30.623.792 1.281 4.13.973 4.592-.424.786-2.383-2.459-60.256-3.449-61.5-1.283-1.612-2.232-1.579-3.648.127m18.006-.007c-.808.974-1.061 10.168-.873 31.75l.265 30.38h5l.265-30.38C51.022 56.656 50.717 53 48 53c-.415 0-1.267.617-1.892 1.37m38.886 5.564C73.399 63.461 64 76.026 64 88c0 11.096 8.273 23.088 18.59 26.948 10.571 3.955 21.706 2.065 29.798-5.059 13.228-11.643 13.228-32.135 0-43.778-2.474-2.179-6.579-4.67-9.122-5.536-4.808-1.638-13.94-1.958-18.272-.641m3.675 7.316c-3.589 4.794-5.888 9.738-5.273 11.34.997 2.599 3.552 1.446 6.298-2.84 1.498-2.338 2.891-4.474 3.096-4.748.206-.275 1.021.387 1.813 1.47 1.297 1.773 1.232 2.045-.656 2.743-4.51 1.669-.54 5.916 6.926 7.41 2.723.544 3.215.28 4.194-2.254 2.183-5.653 2.334-9.28.416-10.016-1.138-.436-2.231-.052-3.055 1.074-1.179 1.612-1.407 1.512-2.832-1.243-3.612-6.986-7.178-7.944-10.927-2.936M74.25 84.119c-3.731 1.077-4.492 4.352-1.25 5.381 2.48.787 2.48 1.256 0 5-4.417 6.669-1.423 9.721 9.119 9.296 6.277-.252 7.413-.573 7.719-2.176.492-2.58-1.488-3.587-7.088-3.605-4.858-.015-5.402-.437-3.811-2.951.753-1.19 1.178-1.211 2.485-.127 2.636 2.188 4.761-.4 3.964-4.825-1.31-7.266-3.203-8.284-11.138-5.993m30.757 4.061c.003 1.276.9 3.67 1.993 5.32 2.555 3.858 2.508 4.5-.329 4.5-1.764 0-2.311-.539-2.25-2.219.127-3.548-3.191-3.396-7.027.321-4.144 4.017-4.191 5.457-.321 9.713 3.37 3.705 6.473 3.902 6.348.404-.071-1.962.421-2.219 4.25-2.219 5.215 0 8.821-2.875 7.768-6.192-2.645-8.333-10.449-15.535-10.432-9.628" fill-rule="evenodd"/></svg>