<svg xmlns="http://www.w3.org/2000/svg" width="128" height="128"><path d="M59.655 5.829C58.745 6.835 58 8.844 58 10.294c0 1.612-.776 3.051-2 3.706-1.209.647-2 .689-2 .107C54 12.308 50.868 10 48.429 10c-3.99 0-5.953 3.044-7.754 12.025-1.785 8.902-3.123 11.486-4.659 9-.562-.908-.487-1.958.199-2.784 1.416-1.706-.425-3.758-2.618-2.917-2.414.927-3.052 5.333-1.184 8.183 1.78 2.717 6.271 3.409 8.387 1.293.933-.933 1.2-.085 1.2 3.818 0 7.252 2.428 14.354 6.555 19.176L52.156 62H38.8c-14.976 0-16.135.403-20.342 7.066C16.092 72.815 16 73.606 16 90.289c0 19.223.335 20.419 6.042 21.586 3.196.653 3.493 1.04 4.111 5.364.864 6.042 1.382 6.761 4.871 6.761 3.202 0 4.976-2.265 4.976-6.352 0-4.001 1.052-5.648 3.607-5.648C44.48 112 46 108.908 46 99v-9l25.25.003 25.25.002.074 14.248C96.661 120.93 97.505 124 102 124c4.418 0 5.301-3.092 5.632-19.707.254-12.758.491-14.416 2.325-16.25 3.134-3.134 2.902-13.722-.415-18.977C105.335 62.403 104.176 62 89.2 62H75.844l3.601-4.206C83.572 52.972 86 45.87 86 38.618c0-3.903.267-4.751 1.2-3.818 2.116 2.116 6.607 1.424 8.387-1.293 1.868-2.85 1.23-7.256-1.184-8.183-2.193-.841-4.034 1.211-2.618 2.917.686.826.761 1.876.199 2.784-1.536 2.486-2.874-.098-4.659-9C85.524 13.044 83.561 10 79.571 10 77.132 10 74 12.308 74 14.107c0 .582-.791.54-2-.107-1.272-.68-2-2.094-2-3.88 0-5.383-6.803-8.205-10.345-4.291m2.791 3.258c-1.03 1.668 1.287 3.58 2.667 2.2C66.267 10.133 65.545 8 64 8c-.485 0-1.184.489-1.554 1.087M46.674 14.75c-.244.412-.769 2.719-1.168 5.127-.514 3.106-.403 4.177.385 3.691.61-.378 1.109-1.961 1.109-3.52 0-1.597.655-3.085 1.5-3.41.825-.316 1.5-1.039 1.5-1.607 0-1.183-2.659-1.408-3.326-.281M78 15.031c0 .568.675 1.291 1.5 1.607.845.325 1.5 1.813 1.5 3.41 0 1.559.499 3.142 1.109 3.52.788.486.899-.585.385-3.691-.399-2.408-.924-4.715-1.168-5.127-.667-1.127-3.326-.902-3.326.281m-20.894 3.167c-3.181 1.702-5.253 3.865-7.5 7.827C46.894 30.805 46.5 32.452 46.5 39s.394 8.195 3.106 12.975c7.437 13.112 21.651 13.014 28.971-.2C81.079 47.26 81.5 45.419 81.5 39c0-6.419-.421-8.26-2.923-12.775-5.095-9.197-13.448-12.319-21.471-8.027m4.413 17.783c-6.276 6.313-7.688 8.25-6.719 9.219.969.969 2.906-.443 9.219-6.719 4.396-4.37 7.849-8.376 7.674-8.901-.773-2.321-2.721-1.096-10.174 6.401m4.996 5.003c-3.861 3.92-4.665 5.266-3.715 6.216.95.95 2.296.146 6.216-3.715 4.743-4.673 5.584-6.452 3.393-7.182-.531-.177-3.183 1.93-5.894 4.681M23.981 68.75l-2.164 2.75 21.091.27c11.601.148 30.583.148 42.184 0l21.091-.27-2.164-2.75-2.164-2.75h-75.71l-2.164 2.75M20 83v7h22V76H20v7m26-1.986v5.015l30.75-.265 30.75-.264.305-4.75.305-4.75H46v5.014m-16.43-2.127c-.301.487.082 1.409.852 2.048 1.559 1.294 3.155-.193 2.078-1.935-.765-1.238-2.2-1.294-2.93-.113m45.648.267c.519 1.558 2.756 1.83 2.835.346.029-.55-.698-1.155-1.615-1.346-1.043-.215-1.5.159-1.22 1m25.204 15.519c-.708 4.717.104 23.187 1.061 24.143 1.132 1.132 1.577-.913 2.173-9.993C104.304 98.966 103.515 90 102 90c-.483 0-1.193 2.103-1.578 4.673m-80.218 6.077.296 6.75h21l.296-6.75.295-6.75H19.909l.295 6.75m9.366-3.863c-.301.487.082 1.409.852 2.048 1.559 1.294 3.155-.193 2.078-1.935-.765-1.238-2.2-1.294-2.93-.113m.43 18.054c0 4.247 1.709 4.677 2.191.551.281-2.407.004-3.492-.892-3.492-.771 0-1.299 1.195-1.299 2.941" fill-rule="evenodd"/></svg>