<svg xmlns="http://www.w3.org/2000/svg" width="128" height="128"><path d="M105.241 3.995c-1.793 1.093-4.153 3.453-5.246 5.246-7.127 11.689 7.075 25.891 18.764 18.764 9.434-5.752 9.434-18.258 0-24.01-1.792-1.093-4.834-1.988-6.759-1.988-1.925 0-4.967.895-6.759 1.988M105.4 9.4c-4.613 4.613-4.613 8.587 0 13.2 4.613 4.613 8.587 4.613 13.2 0 2.45-2.45 3.4-4.294 3.4-6.6s-.95-4.15-3.4-6.6c-4.613-4.613-8.587-4.613-13.2 0m4.6 5.041c0 5.284.926 6.068 5.415 4.587 2.659-.878 3.265-1.535 2.856-3.099-.367-1.405-1.067-1.811-2.395-1.39-1.502.477-1.876.084-1.876-1.972 0-1.9-.519-2.567-2-2.567-1.7 0-2 .667-2 4.441M25.873 25.684c-5.786 3.591-7.495 10.955-3.894 16.781l1.978 3.202-3.104 2.916c-4.572 4.295-6.805 9.892-6.831 17.117L14 71.9l-5.75.3-5.75.3V78c0 5.247.126 5.514 2.73 5.814l2.73.315.27 20.685.27 20.686h105l.27-20.686.27-20.685 2.73-.315c2.604-.3 2.73-.567 2.73-5.814v-5.5l-10.687-.283-10.687-.283-.313-2.717c-.271-2.35-.82-2.759-4.063-3.027-3.413-.283-3.75-.575-3.75-3.25 0-2.915.049-2.94 5.8-2.94 3.19 0 6.34-.54 7-1.2 1.655-1.655 1.655-23.945 0-25.6-1.669-1.669-27.931-1.669-29.6 0-1.655 1.655-1.655 23.945 0 25.6.66.66 3.81 1.2 7 1.2 5.751 0 5.8.025 5.8 2.94 0 2.675-.337 2.967-3.75 3.25-3.256.269-3.792.672-4.066 3.06L77.867 72H50l-.022-6.25c-.026-7.278-2.247-12.861-6.831-17.167l-3.104-2.916 1.978-3.202c6.572-10.632-5.628-23.31-16.148-16.781m2.448 3.505c-5.523 2.67-5.039 11.443.765 13.847 8.905 3.688 15.066-9.912 6.299-13.906-2.957-1.348-4.175-1.338-7.064.059M76 46v10h24V36H76v10m-52.405 5.499C19.865 54.957 18 59.945 18 66.468V72h28v-4.757c0-2.616-.442-6.299-.983-8.185C43.959 55.371 38.44 49 36.304 49c-1.627 0-1.629-.043.253 7.22 1.549 5.98 1.545 6.028-1.014 9.895C34.129 68.252 32.551 70 32.037 70c-.515 0-2.151-1.593-3.636-3.541-2.638-3.458-2.671-3.675-1.423-9.25.702-3.14 1.493-6.271 1.756-6.959.819-2.135-2.308-1.374-5.139 1.249m7.156 8.025c-.489 2.557.533 4.036 2.115 3.059C33.887 61.952 33.119 57 32 57c-.422 0-.984 1.136-1.249 2.524M82 71c0 .556 2.667 1 6 1s6-.444 6-1-2.667-1-6-1-6 .444-6 1M6 78c0 1.976.667 2 55 2s55-.024 55-2-.667-2-55-2-55 .024-55 2m6 25v19h98V84H12v19m14.427-7.669c-.287.746-.387 4.689-.224 8.763l.297 7.406h71v-17l-35.276-.263c-28.956-.216-35.37-.02-35.797 1.094M30 103v5h64V98H30v5m8.389-1.57c-.996 2.595.399 4.739 2.857 4.39 1.652-.235 2.254-.987 2.254-2.82 0-1.833-.602-2.585-2.254-2.82-1.353-.192-2.496.308-2.857 1.25m14 0c-.996 2.595.399 4.739 2.857 4.39 1.652-.235 2.254-.987 2.254-2.82 0-1.833-.602-2.585-2.254-2.82-1.353-.192-2.496.308-2.857 1.25m14 0c-.996 2.595.399 4.739 2.857 4.39 1.652-.235 2.254-.987 2.254-2.82 0-1.833-.602-2.585-2.254-2.82-1.353-.192-2.496.308-2.857 1.25m14 0c-.996 2.595.399 4.739 2.857 4.39 1.652-.235 2.254-.987 2.254-2.82 0-1.833-.602-2.585-2.254-2.82-1.353-.192-2.496.308-2.857 1.25" fill-rule="evenodd"/></svg>