<svg xmlns="http://www.w3.org/2000/svg" viewBox="0 0 512 512" style="enable-background:new 0 0 512 512" xml:space="preserve"><g xmlns="http://www.w3.org/2000/svg" fill="currentColor"><path d="M168.992 277.591c0-26.551-21.601-48.151-48.151-48.151S72.69 251.041 72.69 277.591s21.601 48.15 48.151 48.15 48.151-21.6 48.151-48.15zm-81.303 0c0-18.279 14.872-33.151 33.151-33.151s33.151 14.872 33.151 33.151-14.872 33.15-33.151 33.15-33.151-14.871-33.151-33.15z" data-original="#000000"/><path d="M479.272 462H445.21l-39.158-36.667a7.5 7.5 0 1 0-10.252 10.95l41.321 38.692a7.496 7.496 0 0 0 5.126 2.025h37.024c9.775 0 17.728 7.953 17.728 17.729V497h-60.844c-2.148 0-4.261-.703-5.981-1.986L241.682 316.1v-24.132l132.207 123.796a7.5 7.5 0 1 0 10.252-10.95L241.682 271.418v-2.458c0-8.284-6.74-15.024-15.025-15.024h-12.548V211.15h11.438c6.536 0 12.38-3.901 14.886-9.938a16.07 16.07 0 0 0-3.471-17.56L132.256 78.616a16.165 16.165 0 0 0-3.91-2.889V64.858h50.148c8.959 0 16.248-7.289 16.248-16.248V23.397c0-8.959-7.289-16.248-16.248-16.248h-50.166C128.144 3.171 124.87 0 120.846 0a7.499 7.499 0 0 0-7.5 7.5v68.223a16.139 16.139 0 0 0-3.92 2.894l-40.015 40.14a7.5 7.5 0 0 0 10.623 10.589l40.016-40.141c.271-.271.579-.328.791-.328.211 0 .521.057.792.329l104.705 105.035c.157.158.527.529.24 1.219-.286.689-.809.689-1.032.689H16.136c-.224 0-.747 0-1.033-.689s.084-1.061.241-1.219l43.521-43.658a7.498 7.498 0 0 0-.017-10.606 7.497 7.497 0 0 0-10.606.017L4.721 183.651a16.076 16.076 0 0 0-3.472 17.561 16.074 16.074 0 0 0 14.887 9.938h11.438v69.444c0 4.143 3.357 7.5 7.5 7.5s7.5-3.357 7.5-7.5V211.15h156.535v132.882H42.573V310.58c0-4.143-3.357-7.5-7.5-7.5s-7.5 3.357-7.5 7.5V497H7.5c-4.143 0-7.5 3.357-7.5 7.5s3.357 7.5 7.5 7.5h497c4.143 0 7.5-3.357 7.5-7.5v-9.771C512 476.682 497.318 462 479.272 462zM179.742 23.397V48.61a1.25 1.25 0 0 1-1.248 1.248h-50.148V22.149h50.148c.689 0 1.248.56 1.248 1.248zm167.196 413.291L410.479 497h-63.541zm-15 60.312h-60.811V364.73l60.811 57.72zm-75.81-146.508V497h-42.02V340.058h12.548c4.939 0 9.316-2.406 12.056-6.096zm-29.446-81.532-.012 56.097-.014.001h-12.548v-56.113zM199.108 497h-37.15V359.031h37.15zM94.724 435.516h52.234v21.436H94.724zm52.234-15H94.724V399.08h52.234zm-52.234 51.435h52.234V497H94.724zm52.234-112.92v25.049H94.724v-25.049zm-104.385 0h37.15V497h-37.15z" data-original="#000000"/></g></svg>