<svg xmlns="http://www.w3.org/2000/svg" viewBox="0 0 482 482.2" style="enable-background:new 0 0 512 512" xml:space="preserve"><g fill="currentColor"><path xmlns="http://www.w3.org/2000/svg" d="M119.797 328H62.73l-13.039-91.29c-1.984-12.929-13.91-21.92-26.886-20.276C9.828 218.082.527 229.77 1.835 242.785l10.84 97.598a39.89 39.89 0 0 0 18.321 29.328L.102 477.8l15.39 4.398 30.512-106.8a39.95 39.95 0 0 0 6.398.601h59.395v104h16V374.527c11.012-3.879 17.621-15.132 15.64-26.64-1.976-11.508-11.964-19.91-23.64-19.887zm0 32h-67.36c-12.222-.008-22.488-9.195-23.84-21.344l-10.84-97.601a8.108 8.108 0 0 1 1.997-6.332A8.122 8.122 0 0 1 25.812 232a8.152 8.152 0 0 1 8 6.977l14.063 98.16A8.004 8.004 0 0 0 55.797 344h64a8 8 0 0 1 0 16zm328.801 9.71a39.888 39.888 0 0 0 18.3-29.296l10.84-97.598c1.324-13.023-7.976-24.722-20.96-26.37-12.985-1.653-24.919 7.35-26.895 20.288L416.859 328h-57.062c-11.676-.023-21.664 8.379-23.645 19.887-1.976 11.508 4.633 22.761 15.645 26.64V480h16V376h59.36a39.95 39.95 0 0 0 6.398-.602L464.066 482.2l15.395-4.398zM427.156 360h-67.36a8 8 0 0 1 0-16h64a7.997 7.997 0 0 0 7.919-6.863l14.023-98.16a8.155 8.155 0 0 1 8-6.977c2.313 0 4.516.984 6.055 2.707a8.11 8.11 0 0 1 2.02 6.316l-10.817 97.625c-1.348 12.149-11.613 21.344-23.84 21.352zm0 0" data-original="#000000"/><path xmlns="http://www.w3.org/2000/svg" d="M287.797 432h-24V264h96a8 8 0 0 0 8-8v-32a8 8 0 0 0-8-8h-240a8 8 0 0 0-8 8v32a8 8 0 0 0 8 8h96v168h-24a8 8 0 0 0-8 8v32a8 8 0 0 0 8 8h96a8 8 0 0 0 8-8v-32a8 8 0 0 0-8-8zm-160-184v-16h224v16zm120 16v168h-16V264zm32 200h-80v-16h80zm-80-352h80a7.992 7.992 0 0 0 7.387-4.938 8.005 8.005 0 0 0-1.73-8.718l-37.657-37.656V0h-16v60.688L194.14 98.344A8 8 0 0 0 199.797 112zm40-36.688L260.484 96H219.11zm0 0" data-original="#000000"/></g></svg>