<svg xmlns="http://www.w3.org/2000/svg" viewBox="0 0 64 64" style="enable-background:new 0 0 512 512" xml:space="preserve"><g xmlns="http://www.w3.org/2000/svg" data-name="School Bus" fill="currentColor"><path d="M12 38a4 4 0 1 0 4 4 4 4 0 0 0-4-4Zm0 6a2 2 0 1 1 2-2 2 2 0 0 1-2 2Zm36-2a4 4 0 1 0 4-4 4 4 0 0 0-4 4Zm6 0a2 2 0 1 1-2-2 2 2 0 0 1 2 2ZM37 4H27a1 1 0 0 0-1 1v4a1 1 0 0 0 1 1h10a1 1 0 0 0 1-1V5a1 1 0 0 0-1-1Zm-1 4h-8V6h8Z" data-original="#000000"/><path d="M62 16.18V15a3 3 0 0 0-3-3h-3.07C55.21 4.47 46.4 0 32 0S8.79 4.47 8.07 12H5a3 3 0 0 0-3 3v1.18A3 3 0 0 0 0 19v4a3 3 0 0 0 6 0v-4a3 3 0 0 0-2-2.82V15a1 1 0 0 1 1-1h3v17.64C3.2 36.26 4 41.07 4 48a1 1 0 0 0-1 1v6a1 1 0 0 0 1 1h1v5a3 3 0 0 0 3 3h4a3 3 0 0 0 3-3v-5h34v5a3 3 0 0 0 3 3h4a3 3 0 0 0 3-3v-5h1a1 1 0 0 0 1-1v-6a1 1 0 0 0-1-1c0-6.92.8-11.74-4-16.36V14h3a1 1 0 0 1 1 1v1.18A3 3 0 0 0 58 19v4a3 3 0 0 0 6 0v-4a3 3 0 0 0-2-2.82ZM4 23a1 1 0 0 1-2 0v-4a1 1 0 0 1 2 0Zm9 38a1 1 0 0 1-1 1H8a1 1 0 0 1-1-1v-5h6Zm44 0a1 1 0 0 1-1 1h-4a1 1 0 0 1-1-1v-5h6Zm2-7H5v-4h54ZM37 38v2H27v-2Zm7 0v2h-5v-2ZM27 48v-2h10v2Zm-7-6h5v2h-5Zm7 0h10v2H27Zm17 2h-5v-2h5Zm-5 2h5v2h-5Zm-14-6h-5v-2h5Zm-5 6h5v2h-5Zm38-5v7H46V37a1 1 0 0 0-1-1H19a1 1 0 0 0-1 1v11H6v-7a11 11 0 0 1 11-11h30a11 11 0 0 1 11 11ZM14 28V14h17v14Zm36-14v14H33V14Zm2 15V13a1 1 0 0 0-1-1H13a1 1 0 0 0-1 1v16a16.84 16.84 0 0 0-2 1.06V13C10 4.89 21.36 2 32 2s22 2.89 22 11v17.06A14.12 14.12 0 0 0 52 29Zm10-6a1 1 0 0 1-2 0v-4a1 1 0 0 1 2 0Z" data-original="#000000"/><circle cx="43" cy="7" r="2" data-original="#000000"/><circle cx="21" cy="7" r="2" data-original="#000000"/></g></svg>