<svg xmlns="http://www.w3.org/2000/svg" viewBox="0 0 48 48" style="enable-background:new 0 0 512 512" xml:space="preserve"><path d="M38 33V5a5 5 0 0 0-5-5H15a5 5 0 0 0-5 5v36a5 5 0 0 0 5 5h6.29l2.06 1.76a1 1 0 1 0 1.3-1.52l-6-5.16a.89.89 0 0 1-.26-1 .86.86 0 0 1 .45-.52.87.87 0 0 1 .69-.05L23.68 41a1 1 0 0 0 .9-.14A1 1 0 0 0 25 40V27a1 1 0 0 1 2 0v11a1 1 0 0 0 2 0v-4a1 1 0 0 1 2 0v4a1 1 0 0 0 2 0v-3a1 1 0 0 1 2 0v3a1 1 0 0 0 2 0v-2a1 1 0 0 1 2 0v11a1 1 0 0 0 2 0V36a3 3 0 0 0-3-3zM29 2v1a1 1 0 0 1-1 1h-8a1 1 0 0 1-1-1V2zm-3 22a3 3 0 0 0-2.82 2h-4.3l-.75-6h11.74l-.75 6h-.3A3 3 0 0 0 26 24zm8 8a2.94 2.94 0 0 0-1.47.4A3 3 0 0 0 29 31.18V28h1a1 1 0 0 0 1-.88l.88-7.12H32a1 1 0 0 0 0-2h-2.5l-2.7-3.6a1 1 0 0 0-1.6 1.2L27 18h-6l1.8-2.4a1 1 0 1 0-1.6-1.2L18.5 18H16a1 1 0 0 0 0 2h.12l.88 7.12a1 1 0 0 0 1 .88h5v10.61l-2.88-1a2.9 2.9 0 0 0-2.82 4.94L19 44h-4a3 3 0 0 1-3-3V5a3 3 0 0 1 3-3h2v1a3 3 0 0 0 3 3h8a3 3 0 0 0 3-3V2h2a3 3 0 0 1 3 3v27.78a3 3 0 0 0-2-.78z" fill="currentColor" data-original="#000000" xmlns="http://www.w3.org/2000/svg" data-name="ecommerce smartphone"/></svg>