<svg xmlns="http://www.w3.org/2000/svg" viewBox="0 0 128 128" style="enable-background:new 0 0 512 512" xml:space="preserve"><g xmlns="http://www.w3.org/2000/svg" fill="currentColor"><path d="M121.693 12.117H6.307a1.75 1.75 0 0 0-1.75 1.75v78.738a1.751 1.751 0 0 0 1.75 1.75h47.968v8.981h-7.512a1.75 1.75 0 1 0 0 3.5h34.474a1.75 1.75 0 0 0 0-3.5h-7.512v-8.981h14.341v17.778a3.755 3.755 0 0 0 3.75 3.75H108.4a3.754 3.754 0 0 0 3.75-3.75V94.355h9.539a1.75 1.75 0 0 0 1.75-1.75V13.867a1.749 1.749 0 0 0-1.746-1.75zm-1.75 3.5v65.706h-7.789v-8.246a3.754 3.754 0 0 0-3.75-3.75H91.816a3.755 3.755 0 0 0-3.75 3.75v8.246H8.057V15.617zm-49.718 87.719h-12.45v-8.981h12.45zM8.057 90.855v-6.032h80.009v6.032zm100.6 21.278a.25.25 0 0 1-.25.25H91.816a.251.251 0 0 1-.25-.25V73.077a.251.251 0 0 1 .25-.25H108.4a.25.25 0 0 1 .25.25zm3.5-21.278v-6.032h7.789v6.032z" data-original="#000000"/><path d="M100.11 94.381a6.228 6.228 0 1 0 6.228 6.228 6.235 6.235 0 0 0-6.228-6.228zm0 8.955a2.728 2.728 0 1 1 2.728-2.727 2.73 2.73 0 0 1-2.728 2.727zm-4.477-21.462h1.421a1.75 1.75 0 0 0 0-3.5h-1.421a1.75 1.75 0 0 0 0 3.5zm8.955-3.5h-1.42a1.75 1.75 0 0 0 0 3.5h1.42a1.75 1.75 0 0 0 0-3.5zm-8.955 11.5h1.421a1.75 1.75 0 0 0 0-3.5h-1.421a1.75 1.75 0 0 0 0 3.5zm8.955-3.5h-1.42a1.75 1.75 0 0 0 0 3.5h1.42a1.75 1.75 0 0 0 0-3.5z" data-original="#000000"/></g></svg>