<svg xmlns="http://www.w3.org/2000/svg" viewBox="0 0 60 60" style="enable-background:new 0 0 512 512" xml:space="preserve"><path d="M4 34a3.952 3.952 0 0 0 2.615-1H8v25a2 2 0 0 0 2 2h40a2 2 0 0 0 2-2V33h1.388c.72.641 1.648.997 2.612 1a4 4 0 1 0 0-8 3.947 3.947 0 0 0-2.614 1H52V2a2 2 0 0 0-2-2H10a2 2 0 0 0-2 2v25H6.612A3.943 3.943 0 0 0 4 26a4 4 0 1 0 0 8zm48.143-5a3.568 3.568 0 0 0 0 2H7.857a3.58 3.58 0 0 0 0-2zM18 11h11v16H18zm24 0v16H31V11zm0 38H31V33h11zm-24 0V33h11v16zm-8-16h6v25h-6zm8 25v-7h24v7zm32 0h-6V33h6zm8-28a2 2 0 0 1-2 2 1.955 1.955 0 0 1-1.488-.671 1.983 1.983 0 0 1 .011-2.672A1.95 1.95 0 0 1 56 28a2 2 0 0 1 2 2zm-8-3h-6V2h6zM42 2v7H18V2zM10 2h6v25h-6zM4 28a1.959 1.959 0 0 1 1.489.671c.686.76.68 1.918-.012 2.672A1.95 1.95 0 0 1 4 32a2 2 0 1 1 0-4z" data-original="#000000" xmlns="http://www.w3.org/2000/svg"/></svg>