<svg xmlns="http://www.w3.org/2000/svg" viewBox="0 0 60 60" style="enable-background:new 0 0 512 512" xml:space="preserve"><g xmlns="http://www.w3.org/2000/svg"><path d="M58 37H39.566l-1.8-3H56a2 2 0 0 0 2-2V2a2 2 0 0 0-2-2H4a2 2 0 0 0-2 2v30a2 2 0 0 0 2 2h18.234l-1.8 3H2a2 2 0 0 0-2 2v14a2 2 0 0 0 2 2h3.234l-2.091 3.485a1 1 0 1 0 1.714 1.03L7.566 55h44.868l2.709 4.515a1 1 0 1 0 1.714-1.03L54.766 55H58a2 2 0 0 0 2-2V39a2 2 0 0 0-2-2zM20 47h20v6H20zm20-2H20v-6h20zM4 2h52v30H4zm20.566 32h10.868l1.8 3H22.766zM2 39h16v14H2zm40 14V39h16v14z" data-original="#000000"/><path d="M13 41H7a1 1 0 0 0 0 2h6a1 1 0 0 0 0-2zm40 0h-6a1 1 0 0 0 0 2h6a1 1 0 0 0 0-2zM7 7a1 1 0 0 0 .707-.293l1-1a1 1 0 0 0-1.414-1.414l-1 1A1 1 0 0 0 7 7zm6.293-2.707-7 7a1 1 0 1 0 1.414 1.414l7-7a1 1 0 1 0-1.414-1.414z" data-original="#000000"/></g></svg>