<svg xmlns="http://www.w3.org/2000/svg" viewBox="0 0 204.8 204.8" style="enable-background:new 0 0 512 512" xml:space="preserve"><path d="M174.807 30.034c-39.924-39.921-104.887-39.921-144.814 0C10.651 49.372 0 75.085 0 102.434c0 27.349 10.651 53.062 29.993 72.4 19.965 19.963 46.182 29.943 72.407 29.942 26.218-.003 52.446-9.982 72.407-29.94 19.342-19.34 29.993-45.053 29.993-72.402 0-27.349-10.651-53.062-29.993-72.4zm-4.828 139.974c-37.263 37.26-97.896 37.26-135.159 0-18.051-18.05-27.993-42.047-27.993-67.574S16.768 52.91 34.82 34.86C53.451 16.23 77.926 6.915 102.4 6.915s48.949 9.315 67.581 27.947c18.051 18.048 27.993 42.045 27.993 67.572-.001 25.527-9.942 49.524-27.995 67.574z" fill="currentColor" data-original="#000000" xmlns="http://www.w3.org/2000/svg"/><path d="M182.629 156.544c-.881-.012-88.351-1.993-116.209-70.719a3.413 3.413 0 0 0-6.326 2.565c12.247 30.217 37.344 52.768 72.574 65.219 26.429 9.339 48.922 9.748 49.867 9.762h.048a3.413 3.413 0 0 0 .046-6.827zm-45.456 34.669c-.852-.113-85.502-12.285-109.428-89.783a3.414 3.414 0 0 0-6.523 2.013c13.201 42.761 43.797 66.197 67.139 78.326 25.192 13.09 47 16.09 47.915 16.212a3.411 3.411 0 0 0 3.832-2.935 3.415 3.415 0 0 0-2.935-3.833z" fill="currentColor" data-original="#000000" xmlns="http://www.w3.org/2000/svg"/><path d="M99.316 3.355c-.046-1.886-1.652-3.379-3.495-3.33a3.413 3.413 0 0 0-3.328 3.495c1.181 48.229-26.206 74.086-32.084 79.068-15.749-2.581-30.449 4.639-42.593 20.958-9.165 12.317-13.631 25.387-13.817 25.936a3.414 3.414 0 0 0 6.47 2.183c.043-.125 4.297-12.585 12.824-24.044 11.016-14.801 23.591-20.87 37.355-18.047a3.401 3.401 0 0 0 2.71-.596c1.526-1.122 37.368-28.183 35.958-85.623z" fill="currentColor" data-original="#000000" xmlns="http://www.w3.org/2000/svg"/><path d="M91.371 38.134C41.119 23.866 7.96 65.223 7.632 65.643a3.412 3.412 0 1 0 5.369 4.212c.3-.382 30.623-38.188 76.503-25.156a3.412 3.412 0 1 0 1.867-6.565zm51.486-29.113c-1.864-.072-3.466 1.405-3.534 3.289-2.574 71.431-51.76 108.095-52.256 108.457a3.415 3.415 0 0 0 2.014 6.173c.695 0 1.396-.212 1.998-.652 2.137-1.551 52.369-38.861 55.067-113.734a3.416 3.416 0 0 0-3.289-3.533zm46.132 42.834c-1.867-.092-3.492 1.335-3.598 3.217-3.222 57.632-48.596 93.112-49.055 93.464a3.414 3.414 0 0 0 4.151 5.42c1.973-1.509 48.319-37.661 51.721-98.502a3.414 3.414 0 0 0-3.219-3.599z" fill="currentColor" data-original="#000000" xmlns="http://www.w3.org/2000/svg"/></svg>