<svg height="512" width="512" xmlns="http://www.w3.org/2000/svg"><path d="M497 263.718h-63.355L481.269 58.17c1.87-8.07-3.157-16.129-11.227-17.999-8.067-1.87-16.128 3.157-17.999 11.227L402.85 263.717H109.149L59.957 51.399c-1.87-8.07-9.928-13.097-17.999-11.227-8.07 1.87-13.097 9.928-11.227 17.999l47.624 205.548H15c-8.284 0-15 6.716-15 15v151.768c0 8.284 6.716 15 15 15h46.065v11.732c0 8.284 6.716 15 15 15s15-6.716 15-15v-11.732h329.869v11.732c0 8.284 6.716 15 15 15s15-6.716 15-15v-11.732H497c8.284 0 15-6.716 15-15V278.718c0-8.284-6.716-15-15-15zm-15 151.768H30V293.718h452z"/><path d="M77.232 369.602h127.625c8.284 0 15-6.716 15-15s-6.716-15-15-15H77.232c-8.284 0-15 6.716-15 15s6.716 15 15 15zm240.447 0h29.163c8.284 0 15-6.716 15-15s-6.716-15-15-15h-29.163c-8.284 0-15 6.716-15 15s6.716 15 15 15zm87.925 0h29.163c8.284 0 15-6.716 15-15s-6.716-15-15-15h-29.163c-8.284 0-15 6.716-15 15s6.716 15 15 15zm-203.56-167.144c-5.858 5.858-5.858 15.355 0 21.213 5.857 5.858 15.355 5.858 21.213 0 18.055-18.054 47.431-18.054 65.485 0 2.929 2.929 6.768 4.394 10.606 4.394s7.678-1.464 10.606-4.394c5.858-5.858 5.858-15.355 0-21.213-29.749-29.752-78.159-29.752-107.91 0z"/><path d="M341.722 185.692c3.839 0 7.678-1.464 10.606-4.394 5.858-5.858 5.858-15.355 0-21.213-53.115-53.116-139.541-53.116-192.656 0-5.858 5.858-5.858 15.355 0 21.213 5.857 5.858 15.355 5.858 21.213 0 41.419-41.418 108.812-41.418 150.23 0a14.95 14.95 0 0 0 10.607 4.394z"/><path d="M133.937 134.352c67.306-67.305 176.819-67.305 244.125 0 2.929 2.929 6.768 4.394 10.606 4.394s7.678-1.464 10.606-4.394c5.858-5.858 5.858-15.355 0-21.213C361.005 74.868 310.123 53.792 256 53.792s-105.005 21.076-143.275 59.347c-5.858 5.858-5.858 15.355 0 21.213 5.857 5.858 15.355 5.858 21.212 0z"/></svg>