<svg height="512" viewBox="0 0 510.691 510.691" width="512" xmlns="http://www.w3.org/2000/svg"><path d="M121.43 288.125h267.832V71.226H121.43zm154.178-30c5.575-11.417 17.304-19.303 30.843-19.303s25.267 7.885 30.843 19.303zM151.43 101.226h207.832v135.277c-11.625-16.712-30.956-27.681-52.812-27.681-30.292 0-55.741 21.06-62.518 49.303H151.43zm-30 231.59h65.036v30H121.43zm202.796 0h65.036v30h-65.036z"/><path d="M464.327 89.899h-17.082v-25.21c0-31.619-25.725-57.343-57.344-57.343H120.79c-31.619 0-57.344 25.724-57.344 57.343v25.21H46.364C20.799 89.899 0 110.698 0 136.263v47.489c0 25.565 20.799 46.364 46.364 46.364h.718a46.135 46.135 0 0 0 16.364-2.991v163.537c0 18.425 13.184 33.825 30.612 37.273v75.41h98v-74.684h124v74.684h98v-74.999c18.687-2.375 33.187-18.363 33.187-37.684V227.125a46.113 46.113 0 0 0 16.364 2.991h.718c25.565 0 46.364-20.799 46.364-46.364v-47.489c0-25.565-20.798-46.364-46.364-46.364zM47.082 200.116h-.718c-9.023 0-16.364-7.341-16.364-16.364v-47.489c0-9.023 7.341-16.364 16.364-16.364h17.082v63.853c0 9.023-7.341 16.364-16.364 16.364zm114.977 273.23h-38v-44.684h38zm222 0h-38v-44.684h38zm33.186-82.684c0 4.411-3.589 8-8 8H101.446c-4.411 0-8-3.589-8-8V64.689c0-15.077 12.267-27.343 27.344-27.343h269.111c15.077 0 27.344 12.266 27.344 27.343zm63.446-206.91c0 9.023-7.341 16.364-16.364 16.364h-.718c-9.023 0-16.364-7.341-16.364-16.364v-63.853h17.082c9.023 0 16.364 7.341 16.364 16.364z"/></svg>