<svg height="512" width="512" xmlns="http://www.w3.org/2000/svg"><path d="M301 346.338h-90c-8.284 0-15 6.722-15 15.015 0 8.292 6.716 15.015 15 15.015h90c8.284 0 15-6.722 15-15.015 0-8.292-6.716-15.015-15-15.015z"/><path d="m507.606 90.482-25-25.024A14.991 14.991 0 0 0 472 61.06h-19.135C450.79 27.042 422.497 0 388 0H124C89.503 0 61.21 27.042 59.135 61.06H40a14.987 14.987 0 0 0-10.606 4.398l-25 25.024A15.02 15.02 0 0 0 0 101.099v75.073c0 8.292 6.716 15.015 15 15.015s15-6.722 15-15.015v-68.854l16.213-16.229H59v335.327c0 10.998 7.128 20.355 17 23.703v36.856C76 500.774 87.215 512 101 512h47c13.785 0 25-11.226 25-25.024v-35.535h166v35.535C339 500.774 350.215 512 364 512h47c13.785 0 25-11.226 25-25.024V450.12c9.872-3.348 17-12.704 17-23.703V91.089h12.787L482 107.318v68.854c0 8.292 6.716 15.015 15 15.015s15-6.722 15-15.015v-75.073a15.02 15.02 0 0 0-4.394-10.617zM423 421.412h-56.467l5.992-18.792L423 393.862zm-246.042 0-11.668-36.596a15.005 15.005 0 0 0-11.729-10.229L89 363.384v-60.399c63.4 11.096 270.718 11.076 334 0v60.399l-64.562 11.202a15.007 15.007 0 0 0-11.729 10.229l-11.668 36.596H176.958zm-87.958 0v-27.55l50.476 8.758 5.992 18.792zm35-391.383h264c19.299 0 35 15.716 35 35.034v207.392c-52.91 11.756-281.123 11.749-334 0V65.064c0-19.319 15.701-35.035 35-35.035zm-18 451.942v-30.53h37v30.53zm263 0v-30.53h37v30.53z"/></svg>