<svg height="512pt" viewBox="0 0 512 512" width="512pt" xmlns="http://www.w3.org/2000/svg"><path d="M30.738 332.793c-31.41 31.41-39.656 79.434-20.52 119.496l9.145 19.137 64.399-64.399 21.21 21.211-64.402 64.399 19.137 9.14c40.238 19.223 88.227 10.754 119.5-20.515 28.836-28.84 38.148-71.684 24.668-109.512l30.39-30.387 149.63 148.7c29.234 29.234 76.808 29.234 106.046 0 29.239-29.239 29.239-76.813-.03-106.083L340.312 235.316l28.32-28.324c38.437 13.695 81.133 3.707 109.512-24.668 31.41-31.41 39.652-79.433 20.515-119.5l-9.14-19.137-64.403 64.403-21.21-21.211 64.402-64.399-19.137-9.14C409.105-5.8 361.086 2.445 329.676 33.855c-28.84 28.84-38.153 71.68-24.672 109.508l-49.262 49.262-74.457-75.32-11.082-55.418L58.805 0 .39 58.418l61.886 111.398 55.325 11.063 74.511 75.375-51.867 51.867c-37.828-13.476-80.672-4.168-109.508 24.672zm437.996 72.43c17.543 17.539 17.543 46.086 0 63.629-17.543 17.539-46.086 17.543-63.664-.036L255.473 320.152c7.804-7.804 57.562-57.558 63.535-63.535l.094-.094zm-127.937-255.23-4.574-9.571c-13.668-28.613-7.778-62.918 14.66-85.356 16.965-16.964 40.707-24.472 63.64-21.218l-53.035 53.03 63.63 63.63 53.034-53.031c3.25 22.937-4.257 46.675-21.218 63.636-22.438 22.442-56.743 28.332-85.36 14.664l-9.57-4.57c-9.59 9.59-55.856 55.852-64.082 64.082l-21.09-21.332zM81.762 143.12 37.598 63.63 64.02 37.207l79.492 44.164L153.637 132 276.71 256.496c-7.418 7.422-13.781 13.781-21.211 21.211L132.48 153.266zm131.441 134.465 21.086 21.332-66.203 66.203 4.57 9.57c13.672 28.618 7.778 62.918-14.66 85.36-16.96 16.96-40.703 24.469-63.637 21.219l53.032-53.036-63.63-63.629-53.034 53.036c-3.247-22.938 4.257-46.68 21.218-63.637 22.442-22.441 56.746-28.332 85.36-14.664l9.57 4.574zm0 0"/><path d="m350.887 330.785-21.207 21.211-21.211-21.21 21.21-21.208zm42.422 42.425-21.211 21.212-21.211-21.211 21.21-21.207zm21.207 21.208 21.21 21.207-21.21 21.21-21.207-21.21zm0 0"/></svg>