<svg xmlns="http://www.w3.org/2000/svg" viewBox="0 0 512 512" style="enable-background:new 0 0 512 512" xml:space="preserve"><path d="M469.717 129.996h-9.91c-4.002 0-7.871.571-11.542 1.615-3.741-19.515-20.93-34.309-41.519-34.309h-9.909c-23.315 0-42.284 18.969-42.284 42.283v68.248H157.446v-76.607c0-23.315-18.969-42.283-42.283-42.283h-9.909c-20.589 0-37.778 14.794-41.518 34.309a42.139 42.139 0 0 0-11.543-1.615h-9.909C18.969 121.637 0 140.604 0 163.92v175.8c0 23.315 18.969 42.283 42.283 42.283h9.909c4.002 0 7.871-.571 11.543-1.615 3.741 19.515 20.93 34.309 41.518 34.309h9.909c23.315 0 42.283-18.969 42.283-42.283v-61.402h197.107v69.762c0 23.315 18.969 42.283 42.284 42.283h9.909c20.589 0 37.779-14.795 41.519-34.309a42.132 42.132 0 0 0 11.542 1.615h9.91c23.314 0 42.283-18.969 42.283-42.283V172.279c.001-23.315-18.968-42.283-42.282-42.283zM62.971 339.72c0 5.944-4.835 10.78-10.779 10.78h-9.909c-5.944 0-10.779-4.836-10.779-10.78v-175.8c0-5.944 4.835-10.779 10.779-10.779h9.909c5.944 0 10.779 4.835 10.779 10.779v175.8zm62.971 32.695c0 5.944-4.835 10.779-10.779 10.779h-9.909c-5.944 0-10.779-4.835-10.779-10.779V131.224c0-5.944 4.836-10.779 10.779-10.779h9.909c5.944 0 10.779 4.835 10.779 10.779v241.191zm228.612-92.906H157.446v-40.173h197.107v40.173zm62.971 101.266c0 5.944-4.835 10.779-10.78 10.779h-9.909c-5.944 0-10.78-4.835-10.78-10.779V139.584c0-5.944 4.835-10.779 10.78-10.779h9.909c5.944 0 10.78 4.835 10.78 10.779v241.191zm62.971-32.696c0 5.944-4.835 10.779-10.779 10.779h-9.91c-5.943 0-10.779-4.835-10.779-10.779v-175.8c0-5.944 4.835-10.779 10.779-10.779h9.91c5.943 0 10.779 4.835 10.779 10.779v175.8z"/></svg>