<svg xmlns="http://www.w3.org/2000/svg" viewBox="0 0 512 512" style="enable-background:new 0 0 512 512" xml:space="preserve"><path d="M367.4 30V0h-63.2c-17.18 0-33.646 4.507-48.2 13.119C241.446 4.507 224.98 0 207.8 0h-63.2v30H0v196.156h30V512h452V226.156h30V30H367.4zM271 39.12c10.01-5.98 21.353-9.12 33.2-9.12h33.2v90h-33.2c-11.509 0-22.693 2.032-33.2 5.956V39.12zM174.6 30h33.2c11.847 0 23.19 3.14 33.2 9.12v86.836c-10.508-3.924-21.692-5.956-33.2-5.956h-33.2V30zM150 482h-30V346.156h30V482zm182 0H180V346.156h152V482zm60 0h-30V346.156h30V482zm60 0h-30V316.156H90V482H60V226.156h392V482zm30-285.844H30V60h114.6v90h63.2c14.262 0 27.801 4.537 39.153 13.121l9.047 6.841 9.047-6.841C276.398 154.537 289.938 150 304.2 150h63.2V60H482v136.156z"/><path d="M90 256.16h332v30H90z"/></svg>