<svg height="512" width="512" xmlns="http://www.w3.org/2000/svg"><path d="M497 0H15C6.716 0 0 6.716 0 15v482c0 8.284 6.716 15 15 15h482c8.284 0 15-6.716 15-15V15c0-8.284-6.716-15-15-15zm-15 210.875H361.375V30H482zm0 60.25H361.375v-30.25H482zM30 30h241.125v135.909c-27.485-36.688-71.298-60.471-120.563-60.471S57.485 129.221 30 165.909zm35.962 311.807c16.507-1.183 32.667-6.093 47.423-14.61 22.935-13.238 40.024-33.752 48.867-58.389 12.792-2.113 25.515-1.044 37.288 2.663-5.5 51.646-48.697 92.019-101.217 93.176a121.146 121.146 0 0 1-32.361-22.84zM30 256c0-16.952 3.524-33.095 9.867-47.744.571 37.233 16.62 73.54 45.552 98.983-13.512 4.911-28.026 6.105-42.3 3.419C34.734 294.242 30 275.664 30 256zm88.651-116.268c-18.752 38.641-13.757 85.993 14.984 119.991a80.019 80.019 0 0 1-20.927 30.979c-41.983-30.566-55.354-88.163-30.104-134.232a120.091 120.091 0 0 1 36.047-16.738zm128.531 44.234c-32.504-18.08-71.92-22.322-108.379-10.015a80.346 80.346 0 0 1 18.171-38.342c36.87 1.941 69.403 20.522 90.208 48.357zm-19.68 102.859a80.33 80.33 0 0 1 24.116 34.848c-19.116 29.315-50.63 49.836-87.044 54.071 31.943-19.113 55.355-51.154 62.928-88.919zm-71.69-47.349c-8.228-10.022-13.661-21.577-16.335-33.629 47.484-21.06 104.067-3.805 131.312 41.146.221 2.974.336 5.977.336 9.006 0 10.525-1.36 20.737-3.905 30.476-24.095-35.547-67.597-54.889-111.408-46.999zM30 346.091c27.485 36.688 71.298 60.471 120.562 60.471s93.078-23.784 120.563-60.471V482H30zM301.125 482V30h30.25v452zm60.25 0V301.125H482V482z"/></svg>