<svg height="512" viewBox="0 0 510.004 510.004" width="512" xmlns="http://www.w3.org/2000/svg"><path d="m503.603 448.129-39.999-28c-29.07-20.35-68.135-20.35-97.205 0-18.779 13.146-44.016 13.146-62.795 0-29.07-20.35-68.135-20.35-97.205 0-18.779 13.146-44.016 13.146-62.795 0-29.071-20.349-68.135-20.349-97.204 0l-40 28c-6.787 4.751-8.438 14.104-3.687 20.891 4.75 6.787 14.106 8.437 20.89 3.687l40.001-28c18.779-13.146 44.016-13.146 62.795 0 29.07 20.35 68.135 20.35 97.205 0 18.779-13.146 44.016-13.146 62.795 0 29.07 20.35 68.135 20.35 97.205 0 18.779-13.146 44.015-13.146 62.796 0l40 28c6.786 4.75 16.14 3.101 20.89-3.687 4.75-6.787 3.1-16.14-3.687-20.891zm-480-126.814 40.001-28c18.779-13.146 44.016-13.146 62.795 0 29.07 20.35 68.135 20.35 97.205 0 18.779-13.146 44.016-13.146 62.795 0 29.07 20.35 68.135 20.35 97.205 0 18.779-13.146 44.015-13.146 62.796 0 43.823 30.676 42.305 30.713 48.589 30.713 14.632 0 20.601-18.899 8.614-27.29l-39.999-28c-17.478-12.234-38.566-17.103-58.925-14.626-12.37-67.317-99.665-88.412-141.071-32.846l-5.593-14.998L290.39 150.2a15.004 15.004 0 0 1 18.002-6.637c149.545 53.005 143.19 51.854 154.358 51.854 34.42 0 57.283-36.049 42.419-67.234-5.402-11.333-14.896-19.884-26.728-24.074L289.604 37.175c-20.443-7.245-43.156 1.131-54.001 19.916-26.578 46.033-6.276 12.635-104.243 169.65l-29.483 27.021c-19.276-1.555-38.985 3.433-55.477 14.977l-40 28c-6.787 4.751-8.438 14.104-3.687 20.891 4.75 6.785 14.106 8.435 20.89 3.685zm303.398-101.897c25.22 0 46.045 19.155 48.706 43.68a83.934 83.934 0 0 0-9.309 5.641c-18.779 13.146-44.016 13.146-62.795 0a84.192 84.192 0 0 0-24.256-11.705c5.179-21.598 24.838-37.616 47.654-37.616zm-171.945 25.918c.635-.86 86.385-138.36 86.465-138.499l20.062-34.748a15 15 0 0 1 18.001-6.638l188.84 66.936a16.88 16.88 0 0 1 9.665 8.705c5.391 11.305-2.927 24.326-15.338 24.326-4.142 0 7.446 3.668-144.337-50.131-20.444-7.247-43.155 1.127-54.003 19.912-39.183 67.855-36.785 63.157-37.519 66.255-1.386 5.886-1.033 4.445 16.986 52.764-13.224 1.736-26.116 6.566-37.479 14.521-18.779 13.146-44.016 13.146-62.795 0a84.055 84.055 0 0 0-8.166-5.042c18.249-16.726 18.337-16.625 19.618-18.361z"/><path d="m503.603 376.129-39.999-28c-29.07-20.35-68.135-20.35-97.205 0-18.779 13.146-44.016 13.146-62.795 0-29.07-20.35-68.135-20.35-97.205 0-18.779 13.146-44.016 13.146-62.795 0-29.071-20.349-68.135-20.349-97.204 0l-40 28c-6.787 4.751-8.438 14.104-3.687 20.891 4.75 6.787 14.106 8.437 20.89 3.687l40.001-28c18.779-13.146 44.016-13.146 62.795 0 29.07 20.35 68.135 20.35 97.205 0 18.779-13.146 44.016-13.146 62.795 0 29.07 20.35 68.135 20.35 97.205 0 18.779-13.146 44.015-13.146 62.796 0l40 28c6.786 4.75 16.14 3.101 20.89-3.687 4.75-6.787 3.1-16.14-3.687-20.891z"/></svg>