<svg height="512" width="512" xmlns="http://www.w3.org/2000/svg"><path d="M346.505 356.502c0-26.104-18.451-47.971-42.994-53.268l-21.583-71.377c-5.556-18.371-22.183-30.714-41.376-30.714H105.953c-19.193 0-35.82 12.343-41.376 30.714l-21.583 71.377C18.451 308.531 0 330.398 0 356.502V437c0 8.284 6.716 15 15 15h10v27.437C25 497.392 39.608 512 57.563 512h24.874C100.392 512 115 497.392 115 479.437V452h116.505v27.437c0 17.955 14.608 32.563 32.563 32.563h24.874c17.955 0 32.563-14.608 32.563-32.563V452h10c8.284 0 15-6.716 15-15zM93.293 240.541c1.7-5.621 6.788-9.398 12.66-9.398h134.599c5.873 0 10.96 3.777 12.66 9.398L271.796 302H74.709zM30 356.502C30 342.992 40.992 332 54.502 332h237.399c.032 0 .064.004.097.004l.065-.002c13.483.033 24.442 11.01 24.442 24.5V422H30zm55 122.935A2.566 2.566 0 0 1 82.437 482H57.563A2.566 2.566 0 0 1 55 479.437V452h30zm206.505 0a2.566 2.566 0 0 1-2.563 2.563h-24.874a2.566 2.566 0 0 1-2.563-2.563V452h30z"/><circle cx="75" cy="377" r="15"/><circle cx="271.505" cy="377" r="15"/><path d="M135 392h76.505c8.284 0 15-6.716 15-15s-6.716-15-15-15H135c-8.284 0-15 6.716-15 15s6.716 15 15 15zm264.113-253.055c24.353 0 44.166-19.562 44.166-43.606s-19.813-43.605-44.166-43.605h-28.225c-8.2 0-15 6.659-15 15V168.1c0 8.284 6.716 15 15 15s15-6.716 15-15v-29.11c5.008-.025 10.12-.045 13.225-.045zm0-57.212c7.679 0 14.166 6.23 14.166 13.605s-6.487 13.606-14.166 13.606c-3.134 0-8.163.02-13.109.043-.066-14.02-.025-9.391-.071-27.255h13.18z"/><path d="M512 117.417C512 52.673 459.327 0 394.583 0S277.167 52.673 277.167 117.417c0 59.663 44.73 109.074 102.417 116.462V482h-21.437c-8.284 0-15 6.716-15 15s6.716 15 15 15h72.873c8.284 0 15-6.716 15-15s-6.716-15-15-15h-21.437V233.879C467.27 226.491 512 177.079 512 117.417zm-204.833 0c0-48.202 39.215-87.417 87.417-87.417S482 69.215 482 117.417s-39.215 87.417-87.417 87.417-87.416-39.216-87.416-87.417z"/></svg>