<svg height="512" viewBox="0 0 512.002 512.002" width="512" xmlns="http://www.w3.org/2000/svg"><path d="M497.057 278.574H201.098c-.979-7.333-7.221-12.994-14.795-12.994h-80.857c-7.574 0-13.816 5.66-14.795 12.994H60.733V56.684C60.733 41.97 72.658 30 87.317 30c11.371 0 21.482 7.257 25.151 18.041l5.396 15.927c-26.401 15.073-40.129 46.898-31.27 77.417l4.439 15.296c2.082 7.769 10.865 12.616 18.528 10.206l100.218-29.31a14.957 14.957 0 0 0 8.921-7.186 15.047 15.047 0 0 0 1.246-11.412l-4.44-15.296c-8.976-30.921-38.229-50.476-69.007-48.373l-5.741-16.946C132.95 15.417 111.474 0 87.317 0 56.178 0 30.845 25.428 30.845 56.684v221.89h-15.9c-8.253 0-14.944 6.716-14.944 15v49.533c0 6.885 4.62 12.686 10.919 14.45v43.207c0 34.901 22.043 64.727 52.887 76.201l-7.739 11.776c-4.546 6.915-2.644 16.219 4.245 20.781a14.835 14.835 0 0 0 8.215 2.48c4.854 0 9.615-2.37 12.487-6.742L96.302 482H415.7l15.287 23.26a14.914 14.914 0 0 0 12.487 6.742 14.84 14.84 0 0 0 8.215-2.48c6.889-4.562 8.79-13.866 4.245-20.781l-7.739-11.776c30.844-11.474 52.887-41.3 52.887-76.201v-43.207a14.997 14.997 0 0 0 10.919-14.45v-49.533c0-8.284-6.691-15-14.944-15zM186.811 112.075l.26.895-71.522 20.918-.26-.895c-5.746-19.793 5.623-40.587 25.342-46.354a36.994 36.994 0 0 1 10.403-1.497c16.135 0 31.042 10.619 35.777 26.933zM120.39 295.58h50.969v96.966H120.39zm361.723 37.31c-6.603 4.708-10.919 12.446-10.919 21.177v46.697c0 28.252-22.899 51.237-51.045 51.237H91.853c-28.146 0-51.045-22.985-51.045-51.237v-46.697c0-8.73-4.316-16.469-10.919-21.177v-24.316h60.614v98.972c0 8.284 6.691 15 14.944 15h80.857c8.253 0 14.944-6.716 14.944-15v-98.972h280.866v24.316z"/></svg>