<svg height="512" viewBox="0 0 510 510" width="512" xmlns="http://www.w3.org/2000/svg"><path d="M0 0v30h45v60h75v53.027L175.458 180H210v45h-30v30h150v-30h-30v-45h34.542L390 143.027V90h75V30h45V0H0zm184.542 150L150 126.973V90h90v60h-55.458zM270 225h-30v-45h30zm90-98.027L325.458 150H270V90h90zM435 60H75V30h360zM240 300h30v30h-30zm0 60h30v30h-30zm0 60h30v30h-30zm0 60h30v30h-30zm123.251-126.21 21.21-21.21 21.21 21.21-21.21 21.21zm-42.415-42.426 21.21-21.21 21.21 21.21-21.21 21.21zm84.834 84.852 21.21-21.21 21.21 21.21-21.21 21.21zm42.417 42.427 21.21-21.21 21.21 21.21-21.21 21.21zm-342.381-84.88 21.21-21.21 21.21 21.21-21.21 21.21zm42.427-42.417 21.21-21.21 21.21 21.21-21.21 21.21zM63.278 396.18l21.21-21.21 21.21 21.21-21.21 21.21zm-42.424 42.417 21.21-21.21 21.21 21.21-21.21 21.21z"/></svg>