<svg height="512" width="512" xmlns="http://www.w3.org/2000/svg"><path d="M406 0H130c-25.364 0-46 20.636-46 46v34c0 8.836 7.164 16 16 16h8v262.7c-28.225 12.37-48 40.563-48 73.3 0 44.112 35.888 80 80 80 29.546 0 55.383-16.112 69.237-40H322.94l13.518 22.536C342.936 505.308 354.762 512 367.32 512H412c8.836 0 16-7.164 16-16V96h8c8.836 0 16-7.164 16-16V46c0-25.364-20.636-46-46-46zM116 46c0-7.72 6.28-14 14-14h276c7.72 0 14 6.28 14 14v18H116zm24 434c-26.467 0-48-21.533-48-48s21.533-48 48-48 48 21.533 48 48-21.533 48-48 48zm256 0h-28.68a4.032 4.032 0 0 1-3.429-1.94l-18.17-30.29A16 16 0 0 0 332 440H219.599c.263-2.632.401-5.3.401-8 0-44.112-35.888-80-80-80V96h256z"/><path d="M140.02 448c-8.836 0-16.005-7.164-16.005-16s7.158-16 15.995-16h.01c8.836 0 16 7.164 16 16s-7.164 16-16 16zm184.553-158.054c-6.249-6.248-16.379-6.248-22.627 0C292.883 299.009 280.828 304 268 304c-16.366 0-31.032-8.283-39.728-21.059l9.785 3.914c8.204 3.281 17.516-.709 20.798-8.913 3.282-8.205-.708-17.516-8.913-20.798l-40-16a15.998 15.998 0 0 0-18.742 5.255l-24 32c-5.302 7.069-3.87 17.098 3.2 22.4a15.927 15.927 0 0 0 9.588 3.201c4.864 0 9.669-2.21 12.812-6.401l3.938-5.25C210.08 318.43 237.239 336 268 336c21.376 0 41.467-8.32 56.574-23.427 6.248-6.248 6.248-16.379-.001-22.627zM365.6 211.2c-7.07-5.304-17.099-3.869-22.4 3.2l-3.938 5.25C325.92 193.57 298.761 176 268 176c-21.376 0-41.467 8.32-56.574 23.427-6.248 6.249-6.248 16.379 0 22.627 6.249 6.248 16.379 6.248 22.627 0C243.117 212.991 255.172 208 268 208c16.366 0 31.032 8.283 39.728 21.059l-9.785-3.914c-8.205-3.283-17.517.708-20.798 8.913-3.282 8.205.708 17.516 8.913 20.798l40 16a16 16 0 0 0 18.743-5.255l24-32c5.301-7.07 3.868-17.099-3.201-22.401z"/></svg>