<svg height="512" width="512" xmlns="http://www.w3.org/2000/svg"><path d="M256 0C147.925 0 60 87.925 60 196v316h392V196C452 87.925 364.075 0 256 0zm166 482H90V196c0-91.533 74.467-166 166-166s166 74.467 166 166z"/><path d="M256 60c-74.991 0-136 61.009-136 136v256h272V196c0-74.991-61.009-136-136-136zm15 31.066c18.037 2.566 34.628 9.684 48.562 20.159L271 159.787zm-30 68.721-48.562-48.562C206.372 100.75 222.963 93.633 241 91.066zM219.787 181h-68.721c2.566-18.037 9.684-34.628 20.159-48.562zM241 211v90.5h-91V211zm30 0h91v90.5h-91zm21.213-30 48.562-48.562c10.474 13.935 17.592 30.525 20.159 48.562zM150 331.5h91V422h-91zM271 422v-90.5h91V422z"/></svg>