<svg height="512" width="512" xmlns="http://www.w3.org/2000/svg"><path d="M497 0H15C6.716 0 0 6.716 0 15v482c0 8.284 6.716 15 15 15h121c8.284 0 15-6.716 15-15 0-61.181-22.89-124.451-55.008-177.474 15.651 9.912 36.073 25.751 61.402 51.08A14.95 14.95 0 0 0 168 375c13.243 0 20.084-16.13 10.606-25.606-28.911-28.911-52.586-46.981-71.27-58.234 63.415-32.554 82.31-125.163 83.706-196.159h129.915c1.396 70.97 20.28 163.599 83.706 196.159-18.684 11.253-42.358 29.322-71.27 58.234-5.858 5.857-5.858 15.355 0 21.213s15.355 5.858 21.213 0c25.329-25.329 45.751-41.168 61.402-51.08C383.906 372.522 361 435.795 361 497c0 8.284 6.716 15 15 15h121c8.284 0 15-6.716 15-15V15c0-8.284-6.716-15-15-15zM30 30h452v35H30zm90.495 452H30V303h17.677c15.142 20.097 67.19 94.624 72.818 179zm-5.729-233.46c-15.405 15.99-34 23.974-56.766 24.417-2.683-.057 9.407.043-28 .043V95h130.982c-.781 32.691-6.852 112.681-46.216 153.54zm282.468 0C357.87 207.681 351.799 127.691 351.018 95H482v178c-35.246 0-25.066-.083-26.977-.042-22.777-.438-42.379-8.423-57.789-24.418zM482 482h-90.495c5.628-84.376 57.676-158.903 72.818-179H482z"/></svg>