<svg height="512" width="512" xmlns="http://www.w3.org/2000/svg"><path d="M497 0H15C6.716 0 0 6.716 0 15v482c0 8.284 6.716 15 15 15s15-6.716 15-15v-15h452v15c0 8.284 6.716 15 15 15s15-6.716 15-15V15c0-8.284-6.716-15-15-15zM241.05 331h-90V30h90zm30-240h89.925v38.787l-55.606 55.606c-9.418 9.418-2.746 25.606 10.606 25.606h120c13.321 0 20.046-16.167 10.606-25.606l-55.606-55.606V91H482v240H271.05zm104.925 66.213L399.762 181h-47.573zM482 61H271.05V30H482zM121.05 30v301H30V30zM30 361h211.05v91H30zm241.05 91v-91H482v91z"/><path d="M166.05 391h-60.1c-8.284 0-15 6.716-15 15s6.716 15 15 15h60.1c8.284 0 15-6.716 15-15s-6.716-15-15-15zm240 0h-60c-8.284 0-15 6.716-15 15s6.716 15 15 15h60c8.284 0 15-6.716 15-15s-6.716-15-15-15z"/><circle cx="183.362" cy="196" r="15"/><circle cx="91" cy="196" r="15"/></svg>