<svg xmlns="http://www.w3.org/2000/svg" width="195.878" height="195.879" style="enable-background:new 0 0 195.878 195.879" xml:space="preserve"><path d="M160.55 89.458a1375.247 1375.247 0 0 1-22.896-83.696A7.514 7.514 0 0 0 130.347 0H65.532a7.515 7.515 0 0 0-7.308 5.763 1375.682 1375.682 0 0 1-22.896 83.696 7.516 7.516 0 0 0 5.651 9.569c16.919 3.521 33.248 5.461 49.691 5.902v76.411H61.29a7.27 7.27 0 0 0-7.269 7.269 7.269 7.269 0 0 0 7.269 7.27h73.299a7.27 7.27 0 1 0 0-14.539h-29.381V104.93a266.759 266.759 0 0 0 17.635-1.074v24.196a7.515 7.515 0 0 0 7.516 7.515 7.514 7.514 0 0 0 7.515-7.515v-26.007a295.208 295.208 0 0 0 17.028-3.02 7.502 7.502 0 0 0 4.938-3.536 7.505 7.505 0 0 0 .71-6.031zM97.949 90c-15.246 0-30.311-1.352-45.82-4.123a1392.073 1392.073 0 0 0 19.316-70.848h52.991a1392.084 1392.084 0 0 0 19.312 70.849C128.251 88.648 113.192 90 97.949 90z"/></svg>