<svg height="512" width="512" xmlns="http://www.w3.org/2000/svg"><path d="M424 0H88c-8.836 0-16 7.163-16 16v480c0 8.837 7.164 16 16 16h336c8.836 0 16-7.163 16-16V16c0-8.837-7.164-16-16-16zM104 32h152v448H104zm304 448H288V32h120z"/><path d="M328 360c8.836 0 16-7.163 16-16V168c0-8.837-7.164-16-16-16s-16 7.163-16 16v176c0 8.837 7.164 16 16 16zM216 256c-8.836 0-16 7.163-16 16v72c0 8.837 7.164 16 16 16s16-7.163 16-16v-72c0-8.837-7.164-16-16-16zm0-176h-72c-8.836 0-16 7.163-16 16v112c0 8.837 7.164 16 16 16h72c8.836 0 16-7.163 16-16V96c0-8.837-7.164-16-16-16zm-16 112h-40v-80h40z"/></svg>