<svg height="512" viewBox="0 0 64 64" width="512" xmlns="http://www.w3.org/2000/svg" data-name="Layer 3"><path d="M25 24a3 3 0 1 0-3-3 3 3 0 0 0 3 3zm0-4a1 1 0 1 1-1 1 1 1 0 0 1 1-1zm14 4a3 3 0 1 0-3-3 3 3 0 0 0 3 3zm0-4a1 1 0 1 1-1 1 1 1 0 0 1 1-1zm-22 4a3 3 0 1 0-3-3 3 3 0 0 0 3 3zm0-4a1 1 0 1 1-1 1 1 1 0 0 1 1-1zm30 4a3 3 0 1 0-3-3 3 3 0 0 0 3 3zm0-4a1 1 0 1 1-1 1 1 1 0 0 1 1-1z"/><path d="M51 1H13a1 1 0 0 0-1 1v8h-1a1 1 0 0 0-1 1v51a1 1 0 0 0 1 1h4a1 1 0 0 0 1-1v-3h32v3a1 1 0 0 0 1 1h4a1 1 0 0 0 1-1V11a1 1 0 0 0-1-1h-1V2a1 1 0 0 0-1-1zM14 3h36v7H14zm38 9v2H12v-2zM12 28h19v29H12zm21 0h19v29H33zm19-2H12V16h40zM14 61h-2v-2h2zm36 0v-2h2v2z"/><path d="M15 31h13v2H15zm21 0h13v2H36z"/></svg>