<svg height="512" width="512" xmlns="http://www.w3.org/2000/svg"><path d="m406.445 59.377-46.742-29.314h17.314c8.283 0 14.998-6.715 14.998-14.998S385.3.067 377.017.067C291.397.066 333.095 0 247.46 0c-8.283 0-14.998 6.715-14.998 14.998v19.591h-16.956c-64.504 0-116.982 52.477-116.982 116.982v345.431c0 8.283 6.715 14.998 14.998 14.998s14.998-6.715 14.998-14.998V151.571c0-47.964 39.022-86.985 86.985-86.985h16.956v27.63c-34.295 16.972-56.694 52.377-56.694 91.194v236.603l.002.039v61.563c0 16.711 13.595 30.306 30.306 30.306H348.84c16.711 0 30.307-13.595 30.307-30.306l-.002-298.204c0-38.852-22.405-74.259-56.694-91.194V42.109l68.056 42.681c7.016 4.4 16.273 2.28 20.675-4.738 4.401-7.017 2.28-16.274-4.737-20.675zM277.456 81.721c-5.044 0-10.604.447-14.998 1.098V29.997s-1.283.066 29.997.066v52.758c-4.453-.66-9.984-1.1-14.999-1.1zm71.692 224.637h-36.694v-95.989h36.694zm-.308 175.565H206.076a.31.31 0 0 1-.31-.31V435.01H349.15v46.603a.31.31 0 0 1-.31.31zm.239-301.55h-46.29c-11.211 0-20.332 9.121-20.332 20.332v115.319c0 11.211 9.121 20.332 20.332 20.332h46.359v68.657H205.764V183.41c0-38.742 31.395-71.692 71.692-71.692 38.897 0 70.011 30.859 71.623 68.655z"/></svg>