<svg height="512" viewBox="0 0 511.963 511.963" width="512" xmlns="http://www.w3.org/2000/svg"><path d="M126.491 250.557H30V72.753c0-8.284-6.716-15-15-15s-15 6.716-15 15V439.21c0 8.284 6.716 15 15 15s15-6.716 15-15v-95.429h109.063v95.429c0 8.284 6.716 15 15 15s15-6.716 15-15V293.129c0-23.475-19.098-42.572-42.572-42.572zM30 313.781v-33.225h96.491c6.932 0 12.572 5.64 12.572 12.572v20.652H30zM496.963 57.753c-8.284 0-15 6.716-15 15v177.804h-94.256c-23.475 0-42.572 19.098-42.572 42.572V439.21c0 8.284 6.716 15 15 15s15-6.716 15-15v-95.429h106.829v95.429c0 8.284 6.716 15 15 15s15-6.716 15-15V72.753c-.001-8.284-6.716-15-15.001-15zM375.135 313.781v-20.652c0-6.932 5.64-12.572 12.572-12.572h94.256v33.225H375.135z"/><path d="M290.491 423.01h-18.678V276.505l47.102-52.679h110.493c8.284 0 15-6.716 15-15v-56.5c0-8.284-6.716-15-15-15H82.518c-8.284 0-15 6.716-15 15v56.498c0 8.284 6.716 15 15 15H193.89l47.923 52.75V423.01h-20.377c-8.284 0-15 6.716-15 15s6.716 15 15 15h69.056c8.284 0 15-6.716 15-15s-6.717-15-15.001-15zm123.918-229.184H345.74l23.695-26.5h44.974zm-85.218-26.5-72.467 81.046-73.629-81.046zM97.518 193.823v-26.498h45.045l24.073 26.498z"/></svg>