<svg viewBox="-24 0 511 512" xmlns="http://www.w3.org/2000/svg"><path d="M418.96 0H44.81C20.375 0 .5 19.875.5 44.309V467.69C.5 492.125 20.375 512 44.809 512H418.96c24.434 0 44.309-19.875 44.309-44.309V44.31C463.27 19.875 443.395 0 418.96 0zM30.04 44.309c0-8.145 6.624-14.77 14.769-14.77H418.96c8.144 0 14.77 6.625 14.77 14.77v59.074H30.038zM433.73 467.69c0 8.145-6.625 14.77-14.77 14.77H44.81c-8.145 0-14.77-6.625-14.77-14.77V132.92h403.69zm0 0"/><path d="M330.332 51.691h-29.531c-8.156 0-14.77 6.614-14.77 14.77s6.614 14.77 14.77 14.77h29.531c8.156 0 14.77-6.614 14.77-14.77s-6.614-14.77-14.77-14.77zm78.785 0h-29.531c-8.156 0-14.77 6.614-14.77 14.77s6.614 14.77 14.77 14.77h29.531c8.156 0 14.766-6.614 14.766-14.77s-6.61-14.77-14.766-14.77zm-320 256c0 78.723 64.043 142.77 142.766 142.77 78.726 0 142.77-64.047 142.77-142.77 0-3.832-.157-7.629-.454-11.382 0-.02-.004-.04-.004-.055-5.847-73.395-67.437-131.332-142.312-131.332-74.871 0-136.461 57.937-142.309 131.332-.004.016-.004.035-.004.055a144.27 144.27 0 0 0-.453 11.382zm142.766 113.23c-59.899 0-109.074-46.753-112.973-105.679 3.188 1.313 6.012 3.047 9.235 5.028 8.71 5.363 19.558 12.039 39.738 12.039s31.023-6.672 39.738-12.036c7.223-4.445 12.438-7.656 24.258-7.656 11.82 0 17.039 3.211 24.262 7.656 8.714 5.36 19.562 12.036 39.742 12.036 20.18 0 31.027-6.672 39.742-12.036 3.223-1.984 6.047-3.718 9.23-5.03-3.894 58.925-53.07 105.679-112.972 105.679zm0-226.46c54.648 0 100.379 38.914 110.937 90.488-9.98 2.367-16.82 6.563-22.675 10.164-7.223 4.446-12.442 7.657-24.262 7.657s-17.04-3.211-24.262-7.657c-8.715-5.363-19.558-12.039-39.742-12.039-20.18 0-31.024 6.676-39.738 12.04-7.223 4.445-12.442 7.656-24.258 7.656-11.82 0-17.04-3.211-24.262-7.657-5.855-3.605-12.691-7.8-22.672-10.164 10.559-51.574 56.29-90.488 110.934-90.488zm0 0"/></svg>